<svg width="228" height="207" viewBox="0 0 228 207" fill="none" xmlns="http://www.w3.org/2000/svg">
<path d="M38.1584 205.099C37.833 204.772 37.5551 204.4 37.3334 203.994C36.8612 203.2 36.6107 202.292 36.6107 201.367V165.224H31.4521C23.2455 165.213 15.3776 161.947 9.57412 156.139C3.77207 150.332 0.506524 142.457 0.498047 134.244V30.9792C0.506685 22.7659 3.77199 14.8917 9.57412 9.0849C15.3776 3.27667 23.2459 0.00995949 31.4521 0H196.543C204.749 0.0100864 212.617 3.2766 218.421 9.0849C224.223 14.8917 227.488 22.7663 227.497 30.9792V134.244C227.488 142.458 224.223 150.332 218.421 156.139C212.617 161.947 204.749 165.214 196.543 165.224H85.3336L45.9296 204.785C44.8297 205.909 43.328 206.55 41.7559 206.566C40.404 206.583 39.1025 206.054 38.1451 205.099L38.1584 205.099ZM46.9293 160.06V188.804L78.9157 156.688C80.0027 155.57 81.4857 154.926 83.0434 154.896H196.545C202.018 154.896 207.267 152.72 211.137 148.847C215.007 144.974 217.181 139.721 217.181 134.244V30.9784C217.181 25.5014 215.007 20.2479 211.137 16.3748C207.267 12.5017 202.018 10.3261 196.545 10.3261H31.4544C25.9819 10.3261 20.7327 12.5018 16.8627 16.3748C12.9927 20.2478 10.8189 25.5014 10.8189 30.9784V134.244C10.8189 139.721 12.9928 144.974 16.8627 148.847C20.7325 152.72 25.9819 154.896 31.4544 154.896H41.773C43.1407 154.896 44.4537 155.441 45.4212 156.409C46.3887 157.377 46.9315 158.69 46.9315 160.06L46.9293 160.06ZM155.271 82.6119C155.271 79.8727 156.358 77.2459 158.293 75.3093C160.228 73.3728 162.852 72.2849 165.589 72.2849C168.325 72.2849 170.95 73.3728 172.885 75.3093C174.82 77.2459 175.907 79.8726 175.907 82.6119C175.907 85.351 174.82 87.9778 172.885 89.9144C170.95 91.851 168.325 92.9388 165.589 92.9388C162.853 92.9388 160.228 91.851 158.293 89.9144C156.358 87.9778 155.271 85.3511 155.271 82.6119ZM103.678 82.6119C103.678 79.8727 104.765 77.2459 106.7 75.3093C108.635 73.3728 111.26 72.2849 113.997 72.2849C116.734 72.2849 119.358 73.3728 121.293 75.3093C123.228 77.2459 124.315 79.8726 124.315 82.6119C124.315 85.351 123.228 87.9778 121.293 89.9144C119.358 91.851 116.734 92.9388 113.997 92.9388C111.26 92.9388 108.635 91.851 106.7 89.9144C104.765 87.9778 103.678 85.3511 103.678 82.6119ZM52.0856 82.6119H52.087C52.087 79.8727 53.174 77.2459 55.109 75.3093C57.044 73.3728 59.6686 72.2849 62.4042 72.2849C65.1411 72.2849 67.7658 73.3728 69.7008 75.3093C71.6358 77.2459 72.7228 79.8726 72.7228 82.6119C72.7228 85.351 71.6358 87.9778 69.7008 89.9144C67.7658 91.851 65.1412 92.9388 62.4042 92.9388C59.6687 92.9388 57.044 91.851 55.109 89.9144C53.174 87.9778 52.087 85.3511 52.087 82.6119H52.0856Z" fill="#EDF0F2" fill-opacity="0.8"/>
</svg>
