<svg width="350" height="350" viewBox="0 0 350 350" fill="none" xmlns="http://www.w3.org/2000/svg">
<g id="scene-comparison-boys-background-wrap-0">
<path id="scene-comparison-rigth-background" d="M280.144 296.683C264.583 306.452 244.463 302.289 226.202 304.415C210.772 306.216 196.395 312.679 181.579 317.481C166.763 322.282 150.623 325.439 135.878 320.559C125.752 317.21 117.204 310.362 107.675 305.569C96.1728 299.797 83.3908 297.103 71.3803 292.451C59.3697 287.798 47.5258 280.513 41.9589 268.925C35.2523 255.001 39.1009 238.454 36.5761 223.211C33.7093 206.017 22.8385 191.158 18.2885 174.331C15.0799 162.437 18.4113 148.4 22.295 136.855C26.3978 124.664 37.8122 110.959 48.8057 103.867C52.4001 101.549 55.9419 99.2313 59.3259 96.6163C60.8163 95.4619 68.6275 90.4418 68.6275 88.6315C77.3943 80.1919 82.6544 69.4434 90.2815 60.1029C98.1716 50.4039 109.77 44.1332 121.903 41.046C132.873 38.2257 144.129 36.6617 155.454 36.3845C167.596 36.1834 179.37 37.3116 191.091 33.1486C193.546 32.274 195.939 31.2071 198.385 30.3062C214.954 24.2542 237.134 26.9042 252.625 35.0552C258.534 38.1599 263.478 42.7951 268.239 47.4654C274.06 53.1763 279.513 59.3246 283.598 66.4086C287.508 73.204 288.744 81.2763 293.733 87.6694C297.081 91.9548 300.378 96.6513 303.692 100.788C308.82 107.164 316.719 110.225 321.593 117.178C326.468 124.13 328.835 132.71 330.448 140.992C332.517 151.583 333.683 162.454 332.569 173.194C330.816 190.37 321.742 203.148 312.485 217.132C309.408 221.794 306.304 226.613 305.121 232.07C304.644 234.688 304.351 237.335 304.244 239.994C303.674 247.751 301.719 254.861 300.246 262.409C297.66 275.606 291.997 289.241 280.144 296.683Z" fill="#EFF2FD"/>
</g>
</svg>
