<svg width="350" height="700" viewBox="0 0 350 700" fill="none" xmlns="http://www.w3.org/2000/svg">
<path d="M179.352 635.078C259.314 635.078 324.136 632.619 324.136 629.586C324.136 626.553 259.314 624.094 179.352 624.094C99.3902 624.094 34.5684 626.553 34.5684 629.586C34.5684 632.619 99.3902 635.078 179.352 635.078Z" fill="#D2CBEC"/>
<path d="M306.996 155.606V163.04H276.996V156.376L306.996 155.606Z" fill="#FF6551"/>
<g style="mix-blend-mode:multiply" opacity="0.36">
<path d="M306.996 157.093V163.04H276.996V158.475C278.513 159.113 281.379 159.751 286.64 159.821C296.941 159.935 304.55 159.585 306.996 157.093Z" fill="#F46D36"/>
</g>
<path d="M151.228 220.281L147.388 230.093L129.784 275.029H124.051C124.051 275.029 133.449 242.084 137.823 226.709C139.103 222.205 139.963 219.214 140.024 218.986L145.389 219.581L151.228 220.281Z" fill="#FF6551"/>
<g style="mix-blend-mode:multiply" opacity="0.44">
<path d="M151.228 220.237L147.388 230.05L129.785 275.029H128.014L145.389 219.581L151.228 220.237Z" fill="#CC9281"/>
</g>
<g style="mix-blend-mode:multiply" opacity="0.44">
<path d="M140.025 218.986L151.229 220.281L147.389 230.093C144.131 229.188 140.936 228.072 137.824 226.753C139.104 222.205 139.963 219.214 140.025 218.986Z" fill="#CC9281"/>
</g>
<path d="M186.375 275.03H180.817L175.268 233.925L173.111 217.938L173.76 218.025L184.28 219.468C184.28 219.8 184.508 225.765 184.806 233.671C185.429 250.148 186.375 275.03 186.375 275.03Z" fill="#FF6551"/>
<g style="mix-blend-mode:multiply" opacity="0.44">
<path d="M182.728 275.029H180.817L175.268 233.941L173.111 217.954L173.76 218.042L178.371 226.035L178.45 226.901L182.728 275.029Z" fill="#CC9281"/>
</g>
<g style="mix-blend-mode:multiply" opacity="0.44">
<path d="M184.28 219.485C184.28 219.817 184.508 225.782 184.806 233.688C181.492 233.906 178.31 233.985 175.268 233.941L173.111 217.954L184.28 219.485Z" fill="#CC9281"/>
</g>
<path d="M232.322 275.029H226.588L208.888 229.788L205.145 220.281L210.133 219.721L216.357 219.03C216.419 219.258 217.295 222.354 218.61 226.971C223.02 242.399 232.322 275.029 232.322 275.029Z" fill="#FF6551"/>
<g style="mix-blend-mode:multiply" opacity="0.44">
<path d="M228.28 275.029H226.588L208.888 229.787L205.145 220.28L210.133 219.721C213.289 229.56 224.484 263.519 228.28 275.029Z" fill="#CC9281"/>
</g>
<g style="mix-blend-mode:multiply" opacity="0.44">
<path d="M218.637 226.928C215.323 228.03 212.079 228.974 208.914 229.788L205.145 220.281L216.357 219.03C216.419 219.214 217.295 222.31 218.637 226.928Z" fill="#CC9281"/>
</g>
<path d="M233.487 171.077C233.382 171.952 233.259 172.783 233.128 173.631C232.712 176.404 232.126 179.15 231.374 181.852C231.331 182.036 231.278 182.211 231.225 182.385C228.551 192.084 227.079 201.679 216.462 208.028C214.411 209.252 211.763 210.127 209.668 211.273L209.563 211.334C205.392 213.618 200.954 215.38 196.351 216.581C182.605 220.342 167.166 221.986 153.297 217.981C149.239 216.789 145.505 214.696 142.374 211.859C141.12 210.724 139.948 209.502 138.867 208.203C138.622 207.914 138.385 207.626 138.148 207.328C137.912 207.031 137.675 206.734 137.447 206.454C136.57 205.238 135.694 203.97 134.878 202.667C134.379 201.845 133.905 201.014 133.449 200.174C133.265 199.842 133.09 199.501 132.914 199.16L132.651 198.644C132.485 198.311 132.31 197.962 132.152 197.62C132.064 197.446 131.985 197.279 131.906 197.105C131.827 196.93 131.617 196.484 131.477 196.177C131.336 195.871 131.205 195.548 131.065 195.242C130.661 194.297 130.276 193.353 129.907 192.399C129.539 191.446 129.189 190.484 128.855 189.513C128.154 187.502 127.505 185.455 126.9 183.391L126.786 183.015C126.164 180.89 125.568 178.756 124.981 176.613C122.35 166.993 119.72 157.137 120.106 147.149C120.4 139.198 122.816 131.469 127.103 124.76C131.39 118.051 137.394 112.604 144.495 108.983C150.974 105.703 158.233 104.085 165.387 103.184C173.18 102.205 181.167 101.557 189.057 102.205C194.404 102.662 199.631 104.044 204.504 106.289C211.234 109.389 217.195 113.934 221.959 119.6C229.612 128.687 232.707 141.753 233.785 153.341C234.307 159.247 234.207 165.192 233.487 171.077V171.077Z" fill="#864FF1"/>
<path d="M233.486 170.325C229.436 147.98 216.172 105.922 174.012 112.044C125.418 119.11 125.707 168.261 126.838 182.674L126.724 182.298C126.102 180.173 125.505 178.039 124.918 175.896C122.288 166.276 119.658 156.42 120.044 146.432C120.339 138.48 122.755 130.751 127.042 124.041C131.329 117.33 137.332 111.882 144.433 108.257C150.912 104.986 158.17 103.368 165.324 102.467C173.118 101.488 181.104 100.841 188.995 101.488C194.337 101.936 199.561 103.306 204.433 105.537C211.163 108.629 217.124 113.169 221.888 118.831C229.541 127.917 232.636 140.984 233.714 152.572C234.26 158.481 234.184 164.432 233.486 170.325V170.325Z" fill="#A277F4"/>
<path style="mix-blend-mode:multiply" opacity="0.45" d="M233.486 170.325C233.381 171.2 233.267 172.074 233.136 172.879C232.716 175.652 232.13 178.397 231.382 181.1C231.338 181.284 231.286 181.458 231.242 181.633C228.612 191.254 228.551 199.746 220.722 206.121C218.872 207.626 211.955 209.357 209.693 210.538L209.588 210.599L142.399 211.133C141.145 209.998 139.974 208.777 138.893 207.477C138.647 207.188 138.41 206.9 138.174 206.602C137.937 206.305 137.7 206.008 137.472 205.728C136.596 204.512 135.719 203.244 134.904 201.941C134.404 201.119 133.922 200.288 133.475 199.448C133.291 199.116 133.115 198.775 132.94 198.434L132.677 197.918L132.177 196.895C132.09 196.72 132.011 196.554 131.932 196.379C131.783 196.073 131.642 195.758 131.502 195.452C131.362 195.146 131.23 194.822 131.09 194.516C130.687 193.571 130.301 192.627 129.933 191.673C129.565 190.72 129.214 189.758 128.881 188.787L129.591 183.234C129.591 183.234 139.068 191.411 179.825 188.919C220.582 186.426 232.162 172.179 233.486 170.325Z" fill="url(#paint0_linear_155_1511)"/>
<path d="M223.572 198.696C223.292 199.134 223.011 199.571 222.695 199.991C220.912 202.671 218.801 205.118 216.41 207.276C213.21 209.957 209.621 212.139 205.767 213.748C192.069 219.678 177.054 221.93 162.213 220.281C159.28 220.029 156.379 219.49 153.552 218.672C146.138 216.274 139.864 211.245 135.922 204.538C135.45 203.748 135.02 202.933 134.633 202.098C134.449 201.705 134.273 201.303 134.098 200.891C133.905 200.437 145.118 196.352 178.967 196.519C211.404 196.641 220.249 196.274 223.221 198.434C223.343 198.515 223.46 198.602 223.572 198.696V198.696Z" fill="#864FF1"/>
<g style="mix-blend-mode:multiply" opacity="0.56">
<path d="M223.221 198.417C223.042 198.592 222.875 198.779 222.722 198.976C220.881 201.338 213.14 208.527 181.43 210.153C149.721 211.78 137.64 204.906 137.64 204.906L134.633 202.125C134.449 201.731 134.273 201.329 134.098 200.918C133.905 200.463 145.118 196.379 178.967 196.545C211.413 196.615 220.249 196.248 223.221 198.417Z" fill="#FFAE43"/>
</g>
<path d="M119.668 205.571C119.668 205.571 103.125 172.888 114.04 166.346C124.832 159.935 128.751 176.552 131.845 187.24C134.94 197.927 150.255 220.054 178.397 218.672C213.184 216.966 224.361 202.483 229.499 185.587C234.636 168.69 235.732 165.716 242.044 165.716C248.356 165.716 253.327 185.648 233.68 208.64C214.034 231.633 172.313 231.213 159.575 228.896C146.836 226.578 130.267 222.581 119.668 205.571Z" fill="#864FF1"/>
<path d="M193.686 180.051C190.626 179.727 171.445 181.8 163.633 181.581C162.704 177.383 161.354 172.319 160.214 167.667C159.375 163.797 158.789 159.876 158.461 155.93C158.242 153.691 161.091 152.029 165.027 151.461C172.532 150.385 182.692 149.493 188.584 150.499C189.732 150.691 195.08 152.248 195.466 153.324C197.07 157.775 194.089 176.334 193.686 180.051Z" fill="white"/>
<path d="M195.605 161.851C195.947 165.2 196.578 189.898 195.86 190.545C192.099 193.939 187.268 194.236 182.902 194.376C176.765 194.56 170.339 194.376 165.167 191.157C164.404 190.676 164.045 187.659 163.861 186.732C162.107 178.135 158.855 164.798 158.25 161.851H195.605Z" fill="white"/>
<path d="M185.629 173.789C180.843 174.27 175.434 174.725 172.006 178.512L180.063 178.669C182.529 178.822 185.006 178.649 187.427 178.153C187.383 177.777 186.813 173.675 186.497 173.71L185.629 173.789Z" fill="#FFBF94"/>
<path d="M194.546 152.667C194.546 152.667 214.709 168.217 215.928 171.033C217.146 173.85 215.419 176.832 211.369 176.368C207.319 175.905 193.441 164.194 193.441 164.194C193.441 164.194 188.067 160.18 188.593 157.346C189.119 154.513 191.17 151.364 194.546 152.667Z" fill="white"/>
<path d="M213.841 169.092C206.126 164.544 191.047 170.439 183.867 173.701C186.497 175.879 185.621 178.074 185.84 178.459C185.84 178.459 203.785 178.153 210.141 177.969C216.497 177.785 218.321 171.742 213.841 169.092Z" fill="white"/>
<path d="M184.708 173.421C187.128 172.94 189.486 171.724 191.8 170.885C194.09 170.038 196.433 169.343 198.814 168.803C201.019 168.324 203.264 168.049 205.52 167.981C207.869 167.815 210.229 167.974 212.534 168.453C212.534 168.453 212.534 168.453 212.534 168.41C210.473 167.603 208.286 167.167 206.073 167.124C203.729 167.128 201.392 167.383 199.103 167.885C196.617 168.458 194.183 169.236 191.827 170.211C189.359 171.044 186.973 172.1 184.699 173.368V173.421H184.708Z" fill="#D6D6D6"/>
<path d="M168.236 251.993C168.209 252.054 168.17 252.108 168.12 252.152C168.07 252.196 168.01 252.228 167.946 252.246C166.918 252.644 165.863 252.971 164.79 253.226L160.67 254.302C156.418 255.421 152.148 256.54 147.826 257.371C146.982 257.584 146.108 257.655 145.24 257.581C144.836 257.55 144.455 257.38 144.162 257.1C143.978 256.873 143.849 256.607 143.785 256.322C143.443 255.113 143.383 253.841 143.61 252.605C143.993 250.368 145.212 248.359 147.02 246.981C148.457 245.965 150.146 245.361 151.903 245.234C153.661 245.108 155.419 245.464 156.988 246.264C157.354 246.491 157.753 246.66 158.171 246.763C158.38 246.812 158.599 246.798 158.8 246.724C159.002 246.649 159.176 246.517 159.302 246.343C159.407 246.134 159.461 245.903 159.46 245.67C159.529 244.081 159.191 242.5 158.478 241.078L163.414 240.667C164.659 243.139 165.804 245.664 166.85 248.241C167.324 249.395 167.727 250.558 168.2 251.739C168.24 251.817 168.253 251.907 168.236 251.993Z" fill="#495059"/>
<path d="M220.39 256.322C220.326 256.607 220.197 256.873 220.013 257.1C219.72 257.38 219.339 257.55 218.935 257.581C218.067 257.655 217.193 257.584 216.348 257.371C212.026 256.497 207.766 255.421 203.505 254.302L199.385 253.226C198.312 252.97 197.258 252.642 196.229 252.246C196.164 252.228 196.105 252.196 196.055 252.152C196.005 252.108 195.966 252.054 195.939 251.993C195.913 251.907 195.913 251.816 195.939 251.73C196.36 250.576 196.816 249.43 197.272 248.293C198.324 245.705 199.475 243.162 200.726 240.667L205.67 241.078C204.957 242.491 204.621 244.063 204.697 245.643C204.693 245.876 204.744 246.107 204.846 246.317C204.972 246.49 205.147 246.623 205.348 246.698C205.549 246.772 205.768 246.786 205.977 246.737C206.397 246.637 206.797 246.468 207.161 246.238C208.729 245.438 210.488 245.082 212.245 245.208C214.002 245.334 215.691 245.939 217.129 246.955C218.147 247.737 218.987 248.726 219.592 249.857C220.197 250.988 220.552 252.235 220.635 253.514C220.719 254.457 220.636 255.408 220.39 256.322V256.322Z" fill="#495059"/>
<path d="M219.512 206.725C219.493 205.792 219.339 204.868 219.056 203.979C218.684 202.968 218.151 202.023 217.478 201.18C214.918 197.883 211.175 195.723 207.379 193.965C205.143 192.896 202.82 192.019 200.436 191.341V191.341C199.354 191.05 198.257 190.826 197.148 190.668C192.922 190.09 188.644 190.668 184.375 190.773V190.676C183.595 190.746 182.814 190.781 182.043 190.799C181.271 190.816 180.482 190.746 179.711 190.676C179.706 190.708 179.706 190.741 179.711 190.773C175.45 190.65 171.163 190.09 166.938 190.668C165.285 190.906 163.657 191.29 162.072 191.813C160.243 192.418 158.451 193.13 156.707 193.947C152.92 195.697 149.167 197.865 146.616 201.163C145.941 202.005 145.405 202.95 145.029 203.961C144.667 205.132 144.512 206.358 144.574 207.582C144.587 208.46 144.651 209.336 144.766 210.206C145.425 214.057 146.5 217.825 147.975 221.444C148.115 221.829 148.273 222.231 148.44 222.642C151.675 230.688 159.17 243.369 159.17 243.369C160.047 243.684 162.028 243.072 163.299 242.609C163.983 242.364 164.465 242.154 164.465 242.154C164.465 242.154 164.08 239.005 163.948 237.589C163.641 234.414 163.194 231.248 162.607 228.117C161.909 225.171 161.521 222.161 161.45 219.135C161.411 217.789 161.751 216.459 162.432 215.296C163.589 213.547 165.763 212.864 167.788 212.366C169.813 211.867 172.066 211.413 174.205 210.94C179.352 209.795 184.689 209.795 189.837 210.94C191.976 211.413 194.132 211.815 196.254 212.366C198.375 212.917 200.453 213.564 201.61 215.296C202.293 216.458 202.637 217.788 202.601 219.135C202.68 222.152 201.987 225.143 201.435 228.117C200.848 231.248 200.401 234.414 200.094 237.589C199.962 239.005 199.585 242.154 199.585 242.154C199.585 242.154 200.383 242.504 201.391 242.836C202.619 243.238 204.135 243.632 204.898 243.369C204.898 243.369 213.183 229.376 216.093 221.444C216.514 220.298 216.97 219.144 217.329 217.989C218.593 214.66 219.33 211.155 219.512 207.599C219.512 207.311 219.512 207.013 219.512 206.725Z" fill="#49B3F7"/>
<g style="mix-blend-mode:multiply" opacity="0.4">
<path d="M200.445 191.359C200.445 191.359 196.386 196.904 182.727 197.831C171.172 198.618 164.045 193.458 162.125 191.831C163.713 191.306 165.344 190.923 166.999 190.685C171.216 190.108 175.503 190.685 179.764 190.79C179.764 190.79 179.764 190.729 179.764 190.694C180.535 190.764 181.316 190.799 182.096 190.816C182.876 190.834 183.647 190.764 184.428 190.694V190.79C188.697 190.668 192.975 190.108 197.201 190.685C198.295 190.845 199.378 191.07 200.445 191.359V191.359Z" fill="#3DA6C0"/>
</g>
<g style="mix-blend-mode:multiply" opacity="0.4">
<path d="M168.236 251.993C168.209 252.054 168.17 252.109 168.12 252.153C168.07 252.196 168.01 252.229 167.946 252.247C166.918 252.644 165.863 252.971 164.79 253.226L160.67 254.302C156.418 255.421 152.148 256.541 147.826 257.372C146.982 257.585 146.108 257.656 145.24 257.582C144.836 257.551 144.455 257.381 144.162 257.101C143.978 256.874 143.849 256.607 143.785 256.322C143.443 255.113 143.383 253.841 143.61 252.605C145.363 253.48 150.983 255.631 160.118 252.273C162.634 251.445 164.934 250.068 166.85 248.241C167.324 249.396 167.727 250.559 168.2 251.74C168.24 251.818 168.253 251.907 168.236 251.993Z" fill="#495059"/>
</g>
<g style="mix-blend-mode:multiply" opacity="0.4">
<path d="M220.39 256.322C220.326 256.606 220.197 256.873 220.013 257.1C219.72 257.38 219.339 257.55 218.935 257.581C218.067 257.655 217.193 257.584 216.348 257.371C212.026 256.496 207.766 255.421 203.505 254.301L199.385 253.226C198.312 252.969 197.258 252.642 196.229 252.246C196.164 252.228 196.105 252.196 196.055 252.152C196.005 252.108 195.966 252.054 195.939 251.992C195.913 251.907 195.913 251.816 195.939 251.73C196.36 250.576 196.816 249.43 197.272 248.293C200.867 251.251 205.195 253.188 209.8 253.899C213.41 254.442 217.09 254.312 220.653 253.514C220.731 254.458 220.642 255.408 220.39 256.322V256.322Z" fill="#495059"/>
</g>
<g style="mix-blend-mode:multiply" opacity="0.4">
<path d="M201.445 242.888C200.437 242.556 199.64 242.206 199.64 242.206C199.64 242.206 200.016 239.058 200.148 237.641C200.455 234.466 200.902 231.3 201.489 228.169C202.042 225.196 202.734 222.205 202.655 219.187C202.691 217.84 202.348 216.51 201.665 215.348C200.507 213.599 198.333 212.917 196.308 212.418C194.283 211.92 192.03 211.465 189.891 210.993C184.744 209.847 179.407 209.847 174.26 210.993C172.121 211.465 169.964 211.867 167.842 212.418C165.721 212.969 163.643 213.616 162.486 215.348C161.805 216.511 161.465 217.841 161.504 219.187C161.577 222.208 161.964 225.212 162.661 228.152C163.249 231.283 163.696 234.449 164.002 237.623C164.134 239.04 164.52 242.189 164.52 242.189C164.52 242.189 164.038 242.399 163.354 242.643C163.354 242.643 153.211 217.972 158.33 212.637C163.45 207.302 176.031 204.827 183.009 204.897C189.987 204.967 201.27 207.101 205.145 211.299C209.02 215.497 200.718 238.376 201.445 242.888Z" fill="#3DA6C0"/>
</g>
<g style="mix-blend-mode:multiply" opacity="0.4">
<path d="M219.511 207.599C219.337 211.172 218.603 214.695 217.337 218.042C217.109 217.893 216.89 217.727 216.67 217.552C215.338 216.515 214.37 215.081 213.909 213.459C213.838 213.172 213.838 212.872 213.909 212.584C214.076 212.016 214.672 211.71 215.189 211.421C217.093 210.354 218.623 208.73 219.572 206.769C219.511 207.013 219.511 207.311 219.511 207.599Z" fill="#3DA6C0"/>
</g>
<g style="mix-blend-mode:multiply" opacity="0.4">
<path d="M151.764 217.867C151.597 219.222 150.492 220.237 149.598 221.269C149.198 221.718 148.829 222.194 148.494 222.694C148.327 222.283 148.169 221.881 148.029 221.496C146.554 217.877 145.478 214.109 144.82 210.258C145.418 211.071 146.077 211.837 146.793 212.549C148.152 213.905 149.66 215.103 151.132 216.354C151.311 216.493 151.468 216.658 151.597 216.843C151.766 217.156 151.825 217.517 151.764 217.867Z" fill="#3DA6C0"/>
</g>
<path d="M188.591 150.534C188.416 150.945 186.014 156.542 179.825 156.787C174.258 157.006 170.313 151.855 169.559 150.779C175.95 149.93 182.463 149.484 188.591 150.534Z" fill="#D6D6D6"/>
<path d="M187.26 143.546L186.497 146.896L185.822 149.895L185.769 150.149C185.769 150.149 184.463 154.137 179.238 154.233C174.013 154.33 172.54 150.42 172.54 150.42V149.616L172.426 146.59L172.295 142.908C172.295 128.914 183.902 143.948 183.902 143.948L185.024 143.686L185.094 144.403L187.26 143.546Z" fill="#EA9573"/>
<g style="mix-blend-mode:multiply" opacity="0.09">
<path d="M186.497 146.896L185.822 149.895C184.031 151.091 181.943 151.767 179.79 151.846C177.239 151.696 174.763 150.931 172.575 149.616L172.461 146.59L183.937 143.966L185.129 144.421L186.497 146.896Z" fill="#DD664A"/>
</g>
<path d="M212.088 130.383L211.93 130.777C211.073 132.913 209.867 134.893 208.362 136.636C206.284 138.91 203.505 140.397 200.788 141.884C196.089 144.535 191.195 146.824 186.147 148.732C183.464 149.667 180.589 150.393 177.801 149.869C175.552 149.319 173.435 148.326 171.577 146.947C165.776 143.079 160.491 138.492 155.849 133.295C154.25 131.674 152.987 129.754 152.132 127.646C151.488 125.373 151.294 122.996 151.562 120.649C151.562 120.046 151.632 119.451 151.676 118.9C152.449 107.311 154.426 95.8333 157.576 84.6517L157.918 83.7247C157.979 78.4772 163.099 74.7341 168 72.7925C173.614 70.5994 179.607 69.5367 185.635 69.6658C191.663 69.7949 197.605 71.1132 203.12 73.5446C207.915 75.6961 212.439 78.7921 215.393 83.1649C218.689 88.0276 219.777 94.1146 219.514 99.983C219.251 105.851 217.76 111.589 216.261 117.265C215.181 121.73 213.787 126.114 212.088 130.383V130.383Z" fill="#FFBF94"/>
<g style="mix-blend-mode:multiply" opacity="0.09">
<path d="M211.93 130.777C211.073 132.913 209.867 134.893 208.362 136.637C206.284 138.911 203.505 140.397 200.788 141.884C196.089 144.536 191.195 146.825 186.147 148.732C183.464 149.668 180.589 150.394 177.801 149.869C175.552 149.32 173.435 148.326 171.577 146.948C165.776 143.079 160.491 138.492 155.849 133.296C154.25 131.675 152.987 129.755 152.132 127.646C151.488 125.373 151.294 122.997 151.562 120.65C151.562 120.046 151.632 119.451 151.676 118.9C151.939 119.145 153.14 118.9 153.429 119.635C156.436 128.031 168.333 140.922 179.519 143.651C190.706 146.379 210.536 130.174 210.536 130.174L211.93 130.777Z" fill="#DD664A"/>
</g>
<g style="mix-blend-mode:multiply" opacity="0.09">
<path d="M156.182 102.213L155.787 105.064C155.787 105.064 164.282 96.4235 165.027 88.2201C165.027 88.2201 169.77 95.2166 180.755 98.54C191.74 101.863 198.411 98.8811 198.411 98.8811C198.411 98.8811 195.448 96.0038 194.738 93.5025C194.738 93.5025 203.987 98.1814 210.15 95.1642C210.15 95.1642 207.862 100.91 211.719 108.414C215.577 115.918 215.673 118.533 215.673 118.533L219.513 98.9773L213.28 82.0368L194.817 78.9933L168.841 79.4743L162.757 78.4336C162.757 78.4336 159.32 84.0658 158.996 85.3077C158.671 86.5496 156.182 102.213 156.182 102.213Z" fill="#DD664A"/>
</g>
<path d="M152.736 108.957C152.254 106.587 151.816 104.199 151.413 101.812L151.281 101.033C150.211 94.4214 149.528 87.521 151.79 81.2241C152.822 78.3191 154.542 75.7058 156.804 73.6066C157.505 72.9621 158.259 72.3771 159.057 71.8574C161.48 70.2177 164.387 69.4412 167.307 69.6535V69.9334C164.607 73.8252 163.642 78.4255 162.923 83.1656C162.49 86.9429 161.841 90.6922 160.977 94.3951C159.49 99.8585 156.657 104.864 152.736 108.957V108.957Z" fill="#672410"/>
<path d="M218.067 131.949C215.411 132.19 212.751 131.547 210.501 130.121C209.941 129.778 209.405 129.398 208.896 128.984L213.376 120.579C215.384 117.956 219.162 116.548 222.143 117.956C223.622 118.664 224.767 119.918 225.334 121.454C225.946 122.999 226.002 124.708 225.492 126.29C224.897 127.824 223.888 129.164 222.578 130.163C221.268 131.161 219.707 131.779 218.067 131.949V131.949Z" fill="#FFBF94"/>
<path d="M221.642 112.166C219.973 114.973 217.926 117.539 215.558 119.792C216.154 115.638 214.418 111.554 213.437 107.469C213.147 106.246 212.921 105.008 212.762 103.761C212.224 99.4728 212.492 95.1221 213.551 90.9313L222.729 85.5964L223.501 85.1504L223.948 85.439C226.184 87.0745 226.797 90.2754 226.832 93.109C226.892 99.8166 225.097 106.411 221.642 112.166V112.166Z" fill="#672410"/>
<g style="mix-blend-mode:multiply" opacity="0.32">
<path d="M221.642 112.166C223.685 105.931 226.254 95.8206 221.257 96.4241C216.26 97.0275 213.84 101.191 212.762 103.744C212.224 99.4558 212.492 95.1051 213.551 90.9143L222.729 85.5969L223.948 85.4395C226.184 87.0749 226.797 90.2758 226.832 93.1094C226.892 99.8171 225.097 106.411 221.642 112.166V112.166Z" fill="#672410"/>
</g>
<path d="M171.024 99.7565C170.987 99.5703 170.899 99.3979 170.77 99.258C170.603 99.115 170.405 99.0131 170.192 98.9606C168.868 98.6108 167.299 99.1967 166.036 99.5903C164.456 100.009 163.004 100.811 161.811 101.925C161.109 102.634 160.127 103.989 161.249 104.803C162.503 105.677 164.414 104.803 165.633 104.287C167.386 103.543 171.042 102.468 171.068 100.133C171.071 100.006 171.056 99.8792 171.024 99.7565V99.7565Z" fill="#672410"/>
<path d="M208.424 110.084C208.082 108.458 206.083 107.128 204.715 106.429C202.668 105.259 200.252 104.909 197.956 105.449C197.644 105.513 197.359 105.672 197.141 105.904C197.022 106.089 196.959 106.305 196.959 106.525C196.959 106.745 197.022 106.96 197.141 107.146C197.363 107.519 197.662 107.84 198.017 108.09C199.19 108.953 200.424 109.73 201.708 110.417C202.881 111.14 204.154 111.688 205.487 112.043C206.793 112.341 208.792 111.834 208.424 110.084Z" fill="#672410"/>
<path d="M187.234 137.809C186.423 138.685 185.424 139.367 184.31 139.802C183.197 140.236 181.999 140.413 180.808 140.319C179.552 140.266 178.323 139.936 177.21 139.352C176.097 138.768 175.128 137.945 174.373 136.943C173.242 135.425 172.426 133.697 171.971 131.861C171.817 131.287 171.703 130.702 171.629 130.112C171.892 130.112 182.544 134.345 190.469 131.057C190.314 131.916 190.079 132.76 189.767 133.576C189.21 135.139 188.349 136.578 187.234 137.809V137.809Z" fill="#AA3333"/>
<path d="M189.775 133.549C187.077 134.852 184.069 135.382 181.087 135.08C177.848 134.702 174.734 133.602 171.979 131.861C171.825 131.287 171.711 130.702 171.637 130.112C171.9 130.112 182.551 134.345 190.477 131.057C190.32 131.908 190.086 132.742 189.775 133.549V133.549Z" fill="white"/>
<path d="M187.234 137.809C186.423 138.685 185.424 139.367 184.311 139.802C183.197 140.236 182 140.413 180.808 140.319C179.552 140.266 178.323 139.936 177.21 139.352C176.097 138.768 175.128 137.945 174.373 136.943C175.39 136.633 176.46 136.536 177.516 136.657C178.572 136.779 179.591 137.118 180.51 137.651C180.51 137.651 181.877 135.981 187.234 137.809Z" fill="#FF6551"/>
<g style="mix-blend-mode:multiply" opacity="0.25">
<path d="M217.234 124.672C219.426 123.911 221.618 122.127 221.811 119.731C221.814 119.7 221.807 119.669 221.791 119.642C221.775 119.616 221.75 119.595 221.721 119.584C221.692 119.573 221.66 119.572 221.63 119.581C221.6 119.591 221.574 119.609 221.556 119.635C220.224 121.629 218.847 123.361 216.366 123.911C216.283 123.926 216.204 123.962 216.138 124.015C216.072 124.069 216.02 124.139 215.989 124.217C215.957 124.296 215.946 124.382 215.957 124.466C215.968 124.55 216 124.63 216.051 124.699C216.592 125.412 216.95 126.247 217.094 127.13C217.092 127.831 217.217 128.528 217.462 129.185C217.477 129.217 217.499 129.246 217.527 129.268C217.554 129.291 217.586 129.307 217.621 129.315C217.655 129.324 217.691 129.324 217.726 129.317C217.761 129.309 217.794 129.294 217.822 129.273C218.988 128.127 218.102 125.993 217.234 124.672Z" fill="#DD664A"/>
</g>
<path d="M176.239 141.701C176.722 142.427 177.371 143.028 178.134 143.454C178.896 143.88 179.749 144.119 180.622 144.15C181.56 144.15 183.884 143.695 183.892 142.462C183.892 142.392 183.892 142.313 183.778 142.313C183.287 142.313 183.112 142.576 182.665 142.812C182.015 143.135 181.296 143.294 180.57 143.275C179.043 143.141 177.62 142.45 176.572 141.334C176.344 141.115 176.037 141.474 176.204 141.701H176.239Z" fill="#DD664A"/>
<path d="M224.397 87.1268C222.231 89.6893 219.137 91.1936 215.954 92.5842C211.611 94.5199 207.074 95.9888 202.418 96.9658C193.415 98.8373 183.438 98.6012 175.557 93.3625C174.452 92.6279 165.624 86.7158 161.828 83.0426L160.776 79.4043L158.777 72.5564C158.977 71.3204 159.27 70.1013 159.654 68.9095C162.652 59.5428 170.788 56.3944 179.52 54.2604C189.935 51.7154 202.585 54.6627 211.887 59.5078C212.676 59.9189 213.447 60.3824 214.219 60.8022C218.357 63.2335 222.223 66.3295 224.739 70.4225C227.255 74.5155 228.114 79.7542 226.273 84.1795C225.801 85.2512 225.168 86.245 224.397 87.1268V87.1268Z" fill="#672410"/>
<path d="M152.737 108.957C152.254 106.587 151.816 104.199 151.413 101.812L151.281 101.033C161.179 95.7857 156.804 73.6066 156.804 73.6066C157.505 72.9621 158.259 72.3771 159.057 71.8574C160.983 75.3803 162.293 79.2043 162.932 83.1656C162.499 86.9429 161.85 90.6922 160.986 94.3951C159.497 99.8594 156.661 104.865 152.737 108.957V108.957Z" fill="#56170D"/>
<path d="M155.235 118.349C154.648 118.752 154.034 119.163 153.403 119.53C151.597 120.588 149.651 121.375 147.652 120.956C144.864 120.378 141.857 117.842 141.094 115.079C140.729 113.578 140.839 112.001 141.41 110.566C141.666 109.882 141.986 109.223 142.365 108.598C142.874 107.683 143.538 106.863 144.329 106.175C147.748 103.272 151.676 105.056 155.086 106.945L155.235 118.349Z" fill="#FFBF94"/>
<g style="mix-blend-mode:multiply" opacity="0.25">
<path d="M150.105 113.452C148.308 111.992 147.8 109.761 147.852 107.549C147.858 107.498 147.846 107.448 147.817 107.406C147.788 107.364 147.745 107.334 147.696 107.321C147.647 107.308 147.595 107.314 147.55 107.336C147.504 107.359 147.468 107.397 147.449 107.444C146.485 109.665 147.405 112.123 149.009 113.784C148.341 114.237 147.711 114.743 147.125 115.297C146.419 115.843 145.874 116.568 145.547 117.396C145.503 117.519 145.5 117.653 145.538 117.778C145.576 117.903 145.653 118.012 145.758 118.09C145.863 118.168 145.99 118.211 146.12 118.212C146.251 118.213 146.379 118.172 146.485 118.096C147.08 117.53 147.607 116.896 148.054 116.207C148.659 115.474 149.351 114.816 150.114 114.248C150.175 114.201 150.225 114.14 150.258 114.071C150.292 114.001 150.309 113.925 150.308 113.848C150.308 113.771 150.289 113.695 150.254 113.626C150.218 113.557 150.168 113.498 150.105 113.452V113.452Z" fill="#DD664A"/>
</g>
<path d="M199.349 78.0751C199.574 78.0226 199.808 78.0226 200.033 78.0751C201.282 78.3863 202.469 78.9099 203.54 79.6231C206.86 81.4908 210.52 82.68 214.305 83.1214C212.901 81.2049 212.229 78.8506 212.412 76.4834C212.414 76.1336 212.52 75.7925 212.719 75.5039C212.905 75.3197 213.144 75.1967 213.402 75.1514C213.661 75.1061 213.927 75.1406 214.165 75.2503C214.636 75.4674 215.066 75.7632 215.436 76.1248C216.484 77.0953 217.764 77.7818 219.153 78.1189C224.291 79.1334 222.704 74.262 223.256 71.166C223.204 71.4896 223.958 72.5741 224.089 72.9152C224.374 73.6548 224.592 74.4188 224.738 75.1978C225.037 76.7595 225.052 78.3623 224.782 79.9292C224.358 82.7255 222.842 85.2409 220.565 86.9258C217.058 89.4271 212.333 89.3921 208.361 88.2377C206.652 87.7454 205.062 86.909 203.689 85.7801C204.485 88.9807 206.05 91.9401 208.248 94.4034C202.172 93.3889 197.315 90.4678 192.274 87.057C194.194 90.2842 196.211 93.6075 199.288 95.8027C197.005 95.5287 194.807 94.7713 192.842 93.5813C190.876 92.3912 189.188 90.796 187.891 88.9023C188.56 92.3824 190.446 95.5126 193.212 97.7355C191.459 97.788 189.644 98.0154 187.909 97.9017C185.999 97.7281 184.118 97.3228 182.307 96.6948C178.66 95.4879 169.288 90.4066 162.879 83.3488C162.879 83.2876 162.879 83.2176 162.879 83.1564C162.572 81.2662 162.115 79.4033 161.512 77.5854C161.643 77.9964 168.525 86.7946 183.376 92.1033C182.736 91.8759 182.35 88.605 182.254 87.984C181.966 86.4244 181.981 84.8241 182.298 83.2701C182.417 82.8473 182.673 82.4754 183.025 82.2119C184.06 81.5122 184.691 82.7016 185.27 83.3838C186.458 84.9404 187.923 86.2656 189.592 87.2931C189.145 85.0367 188.715 82.6317 189.697 80.4365C190.179 79.352 193.528 82.5967 193.817 82.8241C194.916 83.7703 196.088 84.6272 197.324 85.3866C198.381 85.8083 199.382 86.3575 200.305 87.022C198.819 84.6095 198.259 81.7423 198.727 78.9497C198.742 78.6582 198.867 78.3832 199.077 78.1801C199.16 78.127 199.252 78.0912 199.349 78.0751V78.0751Z" fill="#56170D"/>
<g style="mix-blend-mode:screen" opacity="0.28">
<path d="M223.221 63.7326C223.116 63.9075 223.002 64.0736 222.888 64.2311C221.357 66.3763 219.304 68.0981 216.922 69.2347C214.541 70.3714 211.909 70.8856 209.273 70.7291C205.162 70.4318 201.313 68.4902 197.201 68.1054C196.209 67.9391 195.189 68.0827 194.282 68.5165C192.949 69.2774 192.371 71.0003 191.003 71.7087C189.636 72.4171 188.128 71.9361 186.9 71.1664C185.673 70.3968 184.656 69.3298 183.394 68.6039C182.131 67.878 180.501 67.537 179.291 68.3241C177.345 69.5835 177.8 72.6007 176.494 74.5073C175.372 76.1427 173.145 76.6413 171.146 76.5276C166.342 76.2564 162.117 73.108 159.592 68.9538C163.975 55.3367 179.343 53.2115 189.136 55.118C207.125 58.6163 211.693 64.3797 217.795 64.3098C219.617 64.2761 221.433 64.083 223.221 63.7326V63.7326Z" fill="#672410"/>
</g>
<g style="mix-blend-mode:multiply" opacity="0.09">
<path d="M186.489 122.521C186.303 122.011 186.013 121.546 185.637 121.154C185.261 120.763 184.808 120.454 184.306 120.247C183.298 119.837 182.207 119.675 181.123 119.775C179.642 119.871 178.116 120.291 177.354 121.69C177.18 121.97 177.101 122.297 177.126 122.626C177.152 122.856 177.264 123.068 177.439 123.22C177.614 123.372 177.84 123.454 178.072 123.448C178.307 123.397 178.531 123.302 178.73 123.168C179.873 122.707 181.146 122.683 182.307 123.098C183.453 123.517 184.663 123.739 185.884 123.754C185.998 123.752 186.111 123.729 186.217 123.684C186.611 123.5 186.629 122.94 186.489 122.521Z" fill="#DD664A"/>
</g>
<path d="M185.577 125.373C185.322 124.026 182.675 123.851 181.561 123.807C180.08 123.746 178.379 123.903 177.301 125.023C177.301 125.023 177.301 125.145 177.353 125.154C178.782 125.233 180.176 124.857 181.614 125.014C182.413 125.095 183.196 125.293 183.937 125.6C184.49 125.819 184.814 126.064 185.349 125.792C185.427 125.756 185.491 125.696 185.532 125.62C185.573 125.544 185.589 125.458 185.577 125.373Z" fill="#DD664A"/>
<g style="mix-blend-mode:multiply" opacity="0.09">
<path d="M153.403 119.53C151.597 120.588 149.651 121.375 147.652 120.955C144.864 120.378 141.857 117.842 141.094 115.078C140.729 113.578 140.839 112.001 141.41 110.565C141.666 109.881 141.986 109.222 142.365 108.598C142.287 110.321 142.813 117.238 153.403 119.53Z" fill="#DD664A"/>
</g>
<g style="mix-blend-mode:multiply" opacity="0.09">
<path d="M218.066 131.949C215.411 132.19 212.75 131.547 210.5 130.121C221.8 131.564 225.351 121.375 225.351 121.375C225.963 122.92 226.019 124.63 225.509 126.211C224.924 127.762 223.918 129.121 222.604 130.134C221.289 131.147 219.718 131.775 218.066 131.949V131.949Z" fill="#DD664A"/>
</g>
<path d="M167.605 122.678C171.168 122.678 174.057 119.797 174.057 116.242C174.057 112.687 171.168 109.805 167.605 109.805C164.041 109.805 161.152 112.687 161.152 116.242C161.152 119.797 164.041 122.678 167.605 122.678Z" fill="white"/>
<path d="M171.226 118.599C171.837 116.018 170.234 113.432 167.647 112.823C165.06 112.214 162.468 113.813 161.858 116.393C161.247 118.974 162.849 121.56 165.436 122.169C168.023 122.778 170.615 121.18 171.226 118.599Z" fill="#191919"/>
<path d="M165.622 119.556C165.622 119.81 165.547 120.059 165.405 120.27C165.264 120.482 165.062 120.647 164.827 120.744C164.591 120.841 164.332 120.867 164.082 120.817C163.832 120.767 163.603 120.645 163.422 120.465C163.242 120.285 163.119 120.056 163.07 119.807C163.02 119.558 163.045 119.299 163.143 119.064C163.241 118.829 163.406 118.628 163.618 118.487C163.83 118.346 164.079 118.271 164.334 118.271C164.675 118.271 165.003 118.406 165.245 118.647C165.487 118.888 165.622 119.215 165.622 119.556V119.556Z" fill="white"/>
<path d="M198.2 126.01C201.764 126.01 204.653 123.129 204.653 119.574C204.653 116.019 201.764 113.137 198.2 113.137C194.637 113.137 191.748 116.019 191.748 119.574C191.748 123.129 194.637 126.01 198.2 126.01Z" fill="white"/>
<path d="M200.542 124.243C202.421 122.368 202.421 119.328 200.542 117.453C198.662 115.577 195.615 115.577 193.735 117.453C191.856 119.328 191.856 122.368 193.735 124.243C195.615 126.118 198.662 126.118 200.542 124.243Z" fill="#191919"/>
<path d="M196.228 122.897C196.228 123.153 196.152 123.403 196.009 123.616C195.867 123.829 195.664 123.995 195.427 124.093C195.19 124.191 194.929 124.216 194.677 124.166C194.425 124.116 194.194 123.993 194.013 123.812C193.831 123.631 193.708 123.401 193.658 123.149C193.608 122.898 193.633 122.638 193.732 122.402C193.83 122.165 193.996 121.963 194.209 121.821C194.423 121.678 194.674 121.603 194.93 121.603C195.101 121.601 195.27 121.634 195.428 121.699C195.586 121.763 195.73 121.859 195.85 121.979C195.971 122.1 196.067 122.243 196.131 122.4C196.196 122.558 196.229 122.727 196.228 122.897V122.897Z" fill="white"/>
<path d="M168.936 184.038C168.909 184.038 168.883 184.03 168.861 184.014C168.839 183.998 168.822 183.976 168.813 183.951L168.147 181.791C168.142 181.774 168.14 181.757 168.141 181.739C168.143 181.722 168.148 181.705 168.156 181.689C168.164 181.674 168.175 181.66 168.189 181.649C168.202 181.638 168.218 181.63 168.235 181.625C168.251 181.619 168.269 181.617 168.286 181.619C168.304 181.62 168.321 181.625 168.336 181.633C168.352 181.641 168.366 181.653 168.377 181.666C168.388 181.68 168.396 181.695 168.401 181.712L169.068 183.872C169.076 183.906 169.072 183.941 169.056 183.972C169.04 184.003 169.013 184.026 168.98 184.038H168.936Z" fill="#2A2B2A"/>
<path d="M164.281 161.098C162.528 163.425 159.977 165.41 157.873 167.439C156.786 168.48 155.515 169.477 154.533 170.596C152.947 172.593 151.206 174.462 149.325 176.185C148.615 176.83 147.853 177.415 147.046 177.934C144.004 179.744 137.928 180.015 138.761 175.03C139.296 171.786 151.035 159.787 157.706 155.011C159.188 153.953 160.792 152.886 162.607 152.825C163.691 152.804 164.742 153.199 165.544 153.927C166.105 154.414 166.451 155.102 166.508 155.842C166.631 157.583 165.325 159.752 164.281 161.098Z" fill="white"/>
<path d="M164.545 175.302C164.545 175.302 167.894 183.715 168.832 183.506C169.77 183.296 167.017 173.99 167.017 173.99L164.545 175.302Z" fill="#2435A1"/>
<path d="M164.91 171.51C164.63 170.91 164.412 170.341 164.102 169.654C162.876 166.862 161.687 163.71 162.167 162.831C162.914 161.442 166.27 167.031 167.811 171.622L164.91 171.51Z" fill="#2435A1"/>
<path d="M172.34 176.552C172.445 177.523 172.182 178.222 171.086 178.03C170.584 177.872 170.141 177.567 169.815 177.155C169.762 177.479 169.911 177.838 169.815 178.144C169.715 178.316 169.555 178.444 169.365 178.504C169.175 178.564 168.97 178.551 168.789 178.467C168.432 178.292 168.129 178.023 167.913 177.689C167.947 177.979 167.947 178.273 167.913 178.563C167.905 178.638 167.875 178.708 167.825 178.765C167.768 178.81 167.696 178.832 167.623 178.826C167.048 178.866 166.471 178.766 165.942 178.535C165.414 178.303 164.95 177.947 164.59 177.497C164.327 180.374 160.759 177.916 159.488 177.497C158.681 177.225 157.471 176.928 157.147 176.027C155.972 172.721 160.654 171.217 162.977 170.902C164.497 170.598 166.052 170.507 167.597 170.631C168.859 170.815 170.28 171.191 170.911 172.38C171.597 173.69 172.079 175.097 172.34 176.552V176.552Z" fill="#FFBF94"/>
<path d="M141.016 179.018C140.607 178.908 140.224 178.718 139.89 178.459C139.555 178.2 139.276 177.877 139.068 177.509C138.86 177.141 138.727 176.736 138.678 176.316C138.629 175.896 138.663 175.471 138.78 175.065C139.007 174.02 139.548 173.069 140.331 172.339C141.115 171.609 142.103 171.135 143.164 170.981C147.082 170.556 151.027 170.436 154.964 170.622C157.138 170.727 159.347 170.483 161.53 170.762C159.61 172.896 159.602 176.762 160.207 179.281C160.215 179.281 144.821 179.928 141.016 179.018Z" fill="white"/>
<path d="M159.609 165.069L153.472 170.317C152.053 170.569 150.662 170.955 149.316 171.471C153.182 171.314 157.054 171.358 160.915 171.602L161.529 170.728L154.857 170.291L159.24 166.32L159.609 165.069Z" fill="#D6D6D6"/>
<path d="M210.597 177.969H149.326V179.281H210.597V177.969Z" fill="#2435A1"/>
<path d="M122.588 191.909L121.711 193.938L119.256 199.343L81.8748 281.772H74.8613C74.8613 281.772 96.7783 222.983 105.44 199.378C107.509 193.737 108.815 190.099 108.877 189.758L122.588 191.909Z" fill="#FF6551"/>
<g style="mix-blend-mode:multiply" opacity="0.44">
<path d="M108.788 189.767L122.587 191.909L119.221 199.343H105.352C107.421 193.737 108.727 190.099 108.788 189.767Z" fill="#CC9281"/>
</g>
<path d="M283.431 281.772H276.374L239.019 199.413L235.617 191.909L237.826 191.568L249.416 189.767C249.477 190.099 250.793 193.755 252.87 199.387C261.523 223.062 283.431 281.772 283.431 281.772Z" fill="#FF6551"/>
<g style="mix-blend-mode:multiply" opacity="0.44">
<path d="M252.87 199.431H239.019L235.617 191.927L249.416 189.784C249.477 190.099 250.793 193.755 252.87 199.431Z" fill="#CC9281"/>
</g>
<g style="mix-blend-mode:multiply" opacity="0.44">
<path d="M278.68 281.772H276.374L239.019 199.413L235.617 191.909L237.826 191.568L242.973 193.938L278.68 281.772Z" fill="#CC9281"/>
</g>
<path d="M132.344 188.342H100.941V193.939H132.344V188.342Z" fill="#CC9281"/>
<path d="M257.262 188.342H225.859V193.939H257.262V188.342Z" fill="#CC9281"/>
<path d="M132.344 188.342H100.941V193.939H132.344V188.342Z" fill="#FF6551"/>
<g style="mix-blend-mode:multiply">
<path d="M132.344 188.342H100.941V193.939H132.344V188.342Z" fill="#CC9281"/>
</g>
<path d="M257.262 188.342H225.859V193.939H257.262V188.342Z" fill="#FF6551"/>
<g style="mix-blend-mode:multiply">
<path d="M257.262 188.342H225.859V193.939H257.262V188.342Z" fill="#CC9281"/>
</g>
<g style="mix-blend-mode:multiply" opacity="0.44">
<path d="M121.667 193.938L119.221 199.343L81.8304 281.772H78.4902L113.969 193.938H121.667Z" fill="#CC9281"/>
</g>
<path d="M305.935 179.281H51.8555V189.776H305.935V179.281Z" fill="#FF8777"/>
<path d="M305.935 183.697H51.8555V189.767H305.935V183.697Z" fill="#FF6551"/>
<path d="M306.998 161.973V170.622H272.334V163.206L306.998 161.973Z" fill="#FFC652"/>
<g style="mix-blend-mode:multiply">
<path d="M306.998 165.69V170.623H272.334V166.058C273.062 166.932 274.64 167.868 278.05 167.868C283.284 167.868 299.66 168.428 306.998 165.69Z" fill="#FFDF7B"/>
</g>
<path d="M308.399 169.092V179.281H277.776L277.417 175.266L276.996 170.622L308.399 169.092Z" fill="#67D449"/>
<g style="mix-blend-mode:multiply" opacity="0.36">
<path d="M308.4 174.182V179.28H277.777L277.418 175.266C277.418 175.319 278.523 176.963 283.204 177.225C287.886 177.488 307.418 178.004 308.4 174.182Z" fill="#2D7F75"/>
</g>
<path d="M258.087 167.064C257.972 167.105 257.85 167.126 257.728 167.125C257.508 167.127 257.292 167.061 257.112 166.935C256.931 166.81 256.794 166.632 256.719 166.425L254.431 160.189L253.248 156.954L249.049 145.514C248.959 145.251 248.977 144.963 249.097 144.712C249.218 144.461 249.432 144.267 249.693 144.171C249.955 144.075 250.244 144.085 250.499 144.199C250.753 144.312 250.953 144.521 251.056 144.779L255.527 156.954L256.404 159.376L256.746 160.251L257.342 161.895L258.727 165.656C258.781 165.79 258.808 165.933 258.805 166.078C258.802 166.222 258.77 166.365 258.71 166.496C258.65 166.628 258.564 166.746 258.457 166.844C258.35 166.941 258.224 167.016 258.087 167.064V167.064Z" fill="#F7A845"/>
<path d="M257.71 160.915L257.789 161.982H257.675C257.556 161.984 257.438 161.966 257.325 161.93C256.746 161.737 256.641 161.055 256.571 160.548V160.285L256.43 159.411L256.071 156.988L254.826 148.767C254.784 148.487 254.856 148.201 255.025 147.973C255.195 147.745 255.448 147.593 255.729 147.552C256.01 147.51 256.297 147.581 256.525 147.75C256.754 147.919 256.906 148.172 256.948 148.452C257.29 150.788 257.824 154.303 258.228 156.988C258.456 158.466 258.64 159.7 258.736 160.32C258.78 160.583 258.797 160.74 258.806 160.775L257.754 160.941L257.71 160.915Z" fill="#FFC652"/>
<path d="M267.975 141.141L265.345 156.954L264.793 160.286L264.697 160.872C264.651 161.117 264.521 161.339 264.329 161.499C264.137 161.659 263.895 161.746 263.645 161.746H263.46C263.322 161.724 263.189 161.675 263.07 161.601C262.951 161.527 262.847 161.43 262.766 161.317C262.684 161.203 262.626 161.074 262.595 160.937C262.564 160.801 262.56 160.66 262.584 160.522L262.628 160.286L263.18 156.954L265.88 140.791C265.893 140.645 265.937 140.503 266.007 140.374C266.078 140.246 266.175 140.133 266.291 140.043C266.408 139.953 266.542 139.888 266.684 139.853C266.827 139.817 266.976 139.811 267.121 139.835C267.266 139.859 267.405 139.913 267.528 139.993C267.652 140.073 267.757 140.178 267.838 140.3C267.919 140.423 267.974 140.561 267.999 140.706C268.024 140.85 268.019 140.999 267.984 141.141H267.975Z" fill="#2435A1"/>
<g style="mix-blend-mode:multiply" opacity="0.26">
<path d="M258.692 160.285H254.773L254.414 160.189L253.23 156.953H255.51L256.387 159.376L256.027 156.953H258.184C258.412 158.431 258.596 159.664 258.692 160.285Z" fill="#FC9630"/>
</g>
<g style="mix-blend-mode:multiply" opacity="0.36">
<path d="M265.337 156.953L264.776 160.285H262.619L263.171 156.953H265.337Z" fill="#2D7F75"/>
</g>
<path d="M268.186 158.492H253.562V179.281H268.186V158.492Z" fill="#49B3F7"/>
<g style="mix-blend-mode:multiply" opacity="0.42">
<path d="M268.186 171.479V179.281H253.562V172.083C255.647 173.73 258.215 174.651 260.874 174.707C262.252 174.712 263.615 174.427 264.875 173.871C266.134 173.315 267.263 172.5 268.186 171.479Z" fill="#F2704F"/>
</g>
<g style="mix-blend-mode:screen" opacity="0.24">
<path d="M268.186 158.492V161.684C266.012 163.091 263.464 163.813 260.874 163.757C258.316 163.776 255.797 163.135 253.562 161.894V158.457L268.186 158.492Z" fill="white"/>
</g>
<path d="M102.696 174.304L56.074 175.633L52.8917 174.304L38.3125 140.502V140.493H90.2821L100.539 168.436L102.696 174.304Z" fill="#545454"/>
<path d="M118.668 174.305H52.8906V179.272H118.668V174.305Z" fill="#686868"/>
<g style="mix-blend-mode:multiply" opacity="0.35">
<path d="M118.695 174.304V179.272H52.9443V174.304L38.3125 140.502C38.5667 140.939 55.1535 170.01 100.083 168.445H100.539L102.696 174.313L118.695 174.304Z" fill="#545454"/>
</g>
<defs>
<linearGradient id="paint0_linear_155_1511" x1="128.793" y1="190.72" x2="233.486" y2="190.72" gradientUnits="userSpaceOnUse">
<stop stop-color="#FFD247"/>
<stop offset="1" stop-color="#FFDF7B"/>
</linearGradient>
</defs>
</svg>
