<svg width="350" height="1050" viewBox="0 0 350 1050" fill="none" xmlns="http://www.w3.org/2000/svg">
<path d="M173.754 988.524C253.775 988.524 318.645 986.062 318.645 983.025C318.645 979.988 253.775 977.526 173.754 977.526C93.7332 977.526 28.8633 979.988 28.8633 983.025C28.8633 986.062 93.7332 988.524 173.754 988.524Z" fill="#D2CBEC"/>
<path d="M231.148 491.737C231.202 491.822 231.26 491.904 231.324 491.982L231.587 492.341L231.78 492.577L232.052 492.893L232.263 493.12L232.552 493.418L232.78 493.628L232.859 493.698L231.982 494.057C230.714 494.666 229.733 495.743 229.245 497.06C228.723 498.378 228.67 499.833 229.095 501.185C229.592 502.513 230.451 503.675 231.575 504.542C232.699 505.408 234.043 505.944 235.456 506.088C237.258 506.29 239.081 505.986 240.72 505.212C241.577 507.187 242.737 509.015 244.159 510.632C240.001 510.632 235.605 511.307 235.026 513.373C234.679 513.577 234.394 513.871 234.203 514.225C234.011 514.578 233.919 514.977 233.938 515.378C234.002 516.518 234.154 517.651 234.394 518.767C234.237 518.828 234.105 518.889 233.982 518.951C231.298 520.29 226.086 525.15 223.638 527.768C222.889 528.572 222.227 529.452 221.664 530.395C221.364 530.775 221.127 531.201 220.963 531.656C219.805 533.995 219.103 536.533 218.892 539.134C218.677 540.093 218.539 541.068 218.48 542.049C218.418 542.846 218.55 545.202 218.638 546.62H218.401C217.62 546.685 216.892 547.04 216.36 547.613C215.828 548.187 215.529 548.938 215.523 549.72C215.497 549.988 215.497 550.257 215.523 550.525V550.753V550.832V551.059V551.199V551.357C215.576 551.777 215.637 552.294 215.707 552.889C216.295 557.915 217.541 568.239 217.541 568.239C217.771 569.888 218.457 571.441 219.524 572.722L219.62 572.827C219.761 572.993 219.901 573.16 220.059 573.326L220.269 573.528C220.422 573.682 220.583 573.828 220.752 573.965L221.006 574.184C221.182 574.324 221.375 574.464 221.577 574.605L221.84 574.788C222.147 574.994 222.466 575.182 222.796 575.349C223.979 577.531 225.905 579.217 228.227 580.103C228.227 580.103 230.692 580.839 234.07 581.706C236 582.196 238.228 582.739 240.466 583.203L241.299 583.378L242.273 583.562L243.791 583.842L245.396 584.096C246.44 584.245 247.432 584.359 248.335 584.42C248.59 584.42 248.809 584.42 249.055 584.42H249.765C249.765 584.42 250.037 584.42 250.529 584.49C250.634 590.357 250.932 595.234 251.643 602.072C251.853 604.078 252.827 612.667 252.59 610.688C252.503 609.935 252.924 625.031 252.924 625.04C252.345 626.266 251.292 628.096 251.634 629.243C252.055 630.644 254.327 630.574 255.459 630.442C256.51 630.25 257.575 630.145 258.644 630.127C259.281 630.179 259.913 630.269 260.539 630.398C262.077 630.663 263.64 630.748 265.198 630.652L266.198 630.574C266.824 630.536 267.438 630.378 268.005 630.109C268.285 629.971 268.526 629.766 268.708 629.512C268.89 629.259 269.007 628.965 269.049 628.656C269.051 628.383 268.998 628.112 268.894 627.86C268.791 627.607 268.637 627.378 268.444 627.185C266.847 625.477 263.259 625.635 261.136 625.031C260.633 624.898 260.146 624.716 259.679 624.488C261.981 611.594 263.626 598.592 264.61 585.532C264.654 584.849 264.697 584.166 264.733 583.483L265.513 583.273C266.697 582.911 267.843 582.436 268.935 581.855C268.935 582.73 269.005 583.606 269.058 584.481C270.207 605.768 273.243 624.558 273.243 624.558H273.295C272.822 625.731 271.391 627.938 271.778 629.251C272.164 630.565 274.48 630.582 275.603 630.451C276.654 630.259 277.719 630.154 278.787 630.136C279.424 630.187 280.057 630.278 280.682 630.407C282.22 630.671 283.784 630.757 285.341 630.661C285.674 630.661 286.017 630.617 286.35 630.582C286.974 630.545 287.585 630.388 288.148 630.118C288.43 629.981 288.672 629.777 288.855 629.523C289.037 629.269 289.153 628.974 289.193 628.665C289.196 628.391 289.145 628.12 289.041 627.867C288.937 627.615 288.782 627.385 288.587 627.194C286.999 625.486 283.402 625.644 281.279 625.04C280.332 624.881 279.474 624.391 278.858 623.656C279.735 616.958 280.551 609.646 281.165 602.23C281.218 601.617 281.27 601.004 281.314 600.383C281.318 600.368 281.318 600.353 281.314 600.339C281.832 593.745 282.191 587.205 282.191 581.075C282.191 578.448 282.191 575.997 282.191 573.72C282.191 573.405 282.191 573.098 282.191 572.801C282.191 571.391 282.191 570.078 282.191 568.852L282.806 568.598L284.437 572.871C284.788 572.95 285.104 572.993 285.429 573.046C285.456 573.7 285.62 574.342 285.911 574.928C286.673 576.077 287.598 577.11 288.657 577.993C288.812 578.123 288.927 578.293 288.991 578.483C289.016 578.775 288.939 579.066 288.771 579.307C288.233 580.316 287.905 581.424 287.806 582.564C287.762 583.107 287.885 583.825 288.429 583.93C288.593 583.942 288.756 583.916 288.908 583.856C289.06 583.795 289.197 583.701 289.307 583.58C290.148 582.829 290.68 581.793 290.798 580.673C290.798 581.005 290.798 581.347 290.798 581.679C290.78 581.983 290.843 582.285 290.982 582.555C291.053 582.684 291.17 582.783 291.309 582.831C291.448 582.88 291.601 582.875 291.737 582.818C291.905 582.688 292.021 582.501 292.061 582.292C292.546 580.663 292.744 578.963 292.649 577.266L293.334 579.228C293.726 578.406 293.783 577.464 293.491 576.601C293.069 574.72 292.449 572.888 291.64 571.137C291.903 570.667 292.053 570.142 292.079 569.605L288.227 555.595L288.289 555.464L288.175 555.411L286.587 549.606C286.587 549.606 286.166 533.206 283.832 529.668C283.181 527.79 282.253 526.019 281.077 524.415C279.656 522.663 276.752 521.472 273.813 521.534L273.892 520.737C277.296 519.371 285.736 514.24 291.526 502.629C292.404 500.834 292.14 498.68 292.035 496.675V496.185C293.725 495.288 295.013 493.787 295.641 491.982C295.957 490.702 295.868 489.356 295.386 488.129C295.173 487.548 294.912 486.986 294.606 486.448C294.218 485.758 293.73 485.13 293.158 484.583C293.474 483.707 293.746 482.832 293.983 481.904C294.106 481.448 294.22 481.028 294.316 480.538C295.196 476.364 295.608 472.106 295.544 467.841C295.544 466.896 295.544 465.95 295.544 465.004C295.544 464.26 295.465 463.498 295.369 462.719C295.316 462.334 295.255 461.94 295.185 461.546C294.978 460.364 294.654 459.205 294.22 458.087C293.805 456.995 293.244 455.964 292.553 455.022C292.108 454.415 291.589 453.865 291.009 453.385C290.427 452.907 289.78 452.515 289.087 452.22C287.925 451.747 286.673 451.534 285.42 451.599C286.192 446.774 281.577 443.35 278.401 440.592C275.225 437.834 269.847 437.309 266.312 439.892C265.831 440.324 265.263 440.646 264.645 440.837C264.072 440.901 263.493 440.832 262.952 440.636C257.24 439.191 251.116 440.233 245.677 442.501C244.168 443.026 242.808 443.906 241.711 445.067C241.184 445.652 240.84 446.378 240.72 447.155C240.6 447.933 240.71 448.728 241.036 449.445C237.097 450.951 233.061 452.746 230.447 456.056C227.832 459.365 227.218 464.593 230.175 467.596C228.034 470.1 225.788 472.797 224.998 476.072C224.209 479.347 224.998 481.623 225.744 484.828C225.944 485.959 226.332 487.048 226.893 488.05C228.078 489.81 229.929 489.907 231.148 491.737Z" fill="#CFD8F9"/>
<path d="M114.017 491.447C113.811 490.88 113.556 490.332 113.254 489.81C112.873 489.135 112.397 488.519 111.841 487.98C111.139 487.341 114.008 481.737 114.473 480.765C115.71 478.085 116.859 474.338 116.473 471.369C116.219 469.364 115.131 467.569 114.263 465.73C113.394 463.892 112.71 461.816 113.289 459.873C113.461 459.454 113.567 459.011 113.605 458.559C113.552 456.712 111.095 453.883 109.753 452.78C105.998 449.681 101.576 450.784 97.8038 448.744C93.6501 446.422 89.006 445.111 84.2491 444.917C81.4592 444.83 78.4499 445.241 76.3531 447.106C75.6654 447.917 74.8542 448.614 73.9492 449.173C73.1805 449.443 72.3688 449.57 71.5541 449.549C67.8781 449.742 64.0003 451.099 61.9561 454.155C61.4551 455.098 60.8457 455.98 60.14 456.782C59.5516 457.236 58.9128 457.621 58.2362 457.929C54.6216 460.03 52.1827 463.769 50.8316 467.727C49.4805 471.685 49.0769 475.896 48.6997 480.055C48.4189 483.111 49.0243 485.686 49.5156 488.619C50.0069 491.552 50.507 494.617 52.7354 496.911C52.4897 497.034 52.2441 497.121 51.9896 497.235C50.7645 497.835 49.8208 498.887 49.3577 500.168C48.8446 501.454 48.7919 502.876 49.2085 504.196C49.6939 505.477 50.5241 506.6 51.6077 507.44C52.6912 508.28 53.9861 508.806 55.3498 508.959C57.1116 509.144 58.8903 508.841 60.491 508.084C61.3324 509.996 62.4626 511.768 63.8424 513.337C59.7891 513.337 55.4902 514.003 54.9287 515.964C54.59 516.164 54.3122 516.452 54.1252 516.798C53.9382 517.143 53.849 517.533 53.8671 517.926C53.9242 519.039 54.0739 520.146 54.3146 521.235L53.911 521.419C51.279 522.724 46.1993 527.47 43.8129 530.027C43.0788 530.807 42.4316 531.664 41.8828 532.583C41.5942 532.955 41.3635 533.369 41.1985 533.809C40.068 536.097 39.3833 538.578 39.1806 541.121C38.9698 542.054 38.8319 543.003 38.7683 543.958C38.7156 544.737 38.8472 547.04 38.9262 548.423H38.6981C37.9353 548.488 37.2243 548.835 36.7036 549.395C36.1829 549.955 35.89 550.689 35.8819 551.453C35.8649 551.724 35.8649 551.996 35.8819 552.267V552.416V552.477C35.8819 552.53 35.8819 552.591 35.8819 552.652V552.757V552.95V553.09V553.344V553.388C36.3644 557.582 37.812 569.569 37.812 569.569C38.0331 571.18 38.7017 572.696 39.7421 573.947L39.8386 574.052C39.979 574.21 40.1194 574.376 40.2685 574.534L40.4703 574.735C40.6194 574.875 40.7774 575.024 40.9441 575.164L41.1897 575.374C41.3652 575.515 41.5582 575.655 41.7512 575.786L42.0144 575.97C42.3039 576.154 42.611 576.338 42.9444 576.513C43.0146 576.653 43.1023 576.775 43.1813 576.907C44.3427 578.85 46.1259 580.346 48.2434 581.153C48.2434 581.153 50.6473 581.871 53.9461 582.721C55.8324 583.202 58.0081 583.728 60.1927 584.183L61.0086 584.349L61.9561 584.533L63.4388 584.805L65.0004 585.05C66.0269 585.199 66.992 585.304 67.8781 585.365C68.1237 585.365 68.3431 585.365 68.58 585.365H69.273C69.273 585.365 69.545 585.365 70.0188 585.435C70.1241 591.162 70.4048 595.943 71.1067 602.597C71.3084 604.559 72.2647 612.947 71.984 611.012C71.8963 610.276 72.3174 625.022 72.3174 625.022C71.7471 626.221 70.7119 628.007 71.054 629.128C71.4576 630.494 73.686 630.424 74.7827 630.293C75.8087 630.113 76.8469 630.01 77.8884 629.986C78.5101 630.042 79.1282 630.132 79.7396 630.258C81.243 630.513 82.7704 630.598 84.2929 630.512L85.2755 630.424C85.8842 630.392 86.4804 630.24 87.0302 629.977C87.3042 629.84 87.5408 629.639 87.7196 629.39C87.8984 629.141 88.014 628.853 88.0567 628.55C88.0578 628.285 88.0056 628.021 87.9032 627.776C87.8007 627.531 87.65 627.309 87.4601 627.123C85.9072 625.459 82.3979 625.608 80.3274 625.013C79.8351 624.889 79.3583 624.709 78.9061 624.479C81.2224 611.959 82.9061 599.332 83.9508 586.644C84.0034 585.978 84.0385 585.313 84.0824 584.647L84.8369 584.437C85.9918 584.081 87.1109 583.618 88.1795 583.054C88.1795 583.929 88.2497 584.761 88.2936 585.602C89.4165 606.38 92.3819 624.724 92.3819 624.724H92.4346C91.9783 625.862 90.5746 628.016 90.9606 629.303C91.3467 630.59 93.5926 630.599 94.6893 630.468C95.7153 630.288 96.7535 630.185 97.795 630.161C98.4167 630.217 99.0348 630.307 99.6462 630.433C101.15 630.688 102.677 630.773 104.2 630.687L105.182 630.599C105.791 630.567 106.387 630.415 106.937 630.153C107.211 630.015 107.447 629.814 107.626 629.565C107.805 629.317 107.921 629.028 107.963 628.725C107.964 628.46 107.912 628.197 107.81 627.951C107.707 627.706 107.557 627.484 107.367 627.298C105.814 625.634 102.305 625.783 100.234 625.188C99.3082 625.036 98.4678 624.557 97.8652 623.839C98.7426 617.299 99.5234 610.127 100.12 602.921C100.173 602.326 100.216 601.722 100.269 601.117V601.074C100.769 594.638 101.146 588.237 101.146 582.309C101.146 579.761 101.146 577.345 101.146 575.129V574.184C101.146 572.818 101.146 571.557 101.146 570.331L101.752 570.094L103.34 574.262C103.682 574.332 103.998 574.376 104.305 574.429C104.332 575.068 104.493 575.694 104.779 576.268C105.525 577.389 106.429 578.398 107.463 579.262C107.615 579.389 107.727 579.556 107.788 579.744C107.809 580.027 107.732 580.308 107.569 580.541C107.043 581.526 106.724 582.607 106.63 583.719C106.63 584.253 106.709 584.954 107.244 585.059C107.407 585.073 107.57 585.05 107.723 584.99C107.875 584.931 108.011 584.838 108.121 584.717C108.941 583.984 109.46 582.973 109.578 581.88C109.578 582.204 109.578 582.528 109.578 582.861C109.559 583.163 109.62 583.465 109.753 583.736C109.824 583.863 109.939 583.96 110.077 584.007C110.215 584.054 110.365 584.048 110.499 583.99C110.664 583.864 110.774 583.679 110.806 583.474C111.287 581.883 111.483 580.22 111.385 578.562C111.604 579.21 111.824 579.849 112.052 580.488C112.438 579.689 112.495 578.771 112.21 577.931C111.798 576.092 111.192 574.302 110.402 572.59C110.654 572.128 110.801 571.617 110.832 571.093L107.068 557.372L107.121 557.249L107.016 557.197L105.463 551.532C105.463 551.532 105.059 535.517 102.778 532.067C102.141 530.238 101.233 528.514 100.085 526.953C98.6987 525.202 95.8649 524.081 92.996 524.142C92.996 523.88 93.0399 523.617 93.0662 523.363C96.3913 522.023 104.629 517.015 110.288 505.685C111.166 503.933 110.885 501.823 110.78 499.871V499.389C112.43 498.515 113.685 497.047 114.289 495.282C114.607 494.007 114.512 492.665 114.017 491.447Z" fill="#CFD8F9"/>
<path d="M199.259 212.6L181.774 216.654C181.599 212.977 177.809 211.304 177.028 216.751C176.589 219.833 158.885 213.914 158.885 213.914L162.692 197.277C162.692 197.277 174.492 195.044 175.08 195.429C175.668 195.815 193.259 196.927 193.259 196.927L199.259 212.6Z" fill="#243976"/>
<path d="M203.294 284.347C201.276 284.464 199.251 284.353 197.258 284.015C196.448 283.845 195.627 283.728 194.802 283.664C193.422 283.685 192.045 283.82 190.687 284.067C189.222 284.242 186.301 284.339 185.73 282.517C185.16 280.696 187.108 277.92 187.704 276.388C188.47 274.437 188.837 272.353 188.783 270.259C190.517 270.265 192.247 270.086 193.942 269.725C193.955 271.036 194.087 272.343 194.337 273.63C194.422 274.192 194.606 274.734 194.881 275.232C195.548 276.274 196.846 276.686 198.039 277.027C200.785 277.815 205.435 277.614 207.497 279.82C207.75 280.068 207.95 280.364 208.086 280.69C208.221 281.017 208.29 281.367 208.286 281.72C208.232 282.121 208.079 282.503 207.842 282.831C207.605 283.159 207.29 283.424 206.927 283.603C206.197 283.959 205.404 284.164 204.593 284.207C204.163 284.286 203.733 284.321 203.294 284.347Z" fill="#353C45"/>
<path d="M177.203 284.347C175.188 284.464 173.166 284.353 171.176 284.015C170.366 283.846 169.545 283.729 168.72 283.664C167.336 283.686 165.957 283.82 164.596 284.067C163.131 284.242 160.21 284.339 159.648 282.517C159.087 280.696 161.017 277.92 161.613 276.388C162.387 274.44 162.755 272.354 162.692 270.259C164.426 270.265 166.156 270.086 167.851 269.725C167.867 271.036 168.002 272.343 168.255 273.63C168.332 274.194 168.517 274.738 168.799 275.232C169.457 276.274 170.755 276.686 171.948 277.027C174.694 277.815 179.344 277.614 181.406 279.82C181.659 280.068 181.859 280.364 181.995 280.69C182.13 281.017 182.199 281.367 182.195 281.72C182.144 282.121 181.993 282.503 181.758 282.832C181.522 283.16 181.208 283.425 180.844 283.603C180.114 283.956 179.321 284.162 178.511 284.207C178.072 284.286 177.642 284.321 177.203 284.347Z" fill="#353C45"/>
<path d="M179.256 192.461V192.548C179.256 194.693 179.405 196.926 179.624 199.15C179.738 200.28 179.87 201.409 180.01 202.539C180.01 202.863 180.089 203.187 180.133 203.511C180.133 203.511 180.133 203.555 180.133 203.572C180.774 208.511 181.572 213.528 181.888 218.335C181.94 219.062 181.976 219.78 182.002 220.498C182.055 221.855 182.116 223.195 182.186 224.534C183.669 252.099 187.608 276.423 187.608 276.423C190.863 277.579 194.793 275.924 194.793 275.924C195.951 267.071 197.048 257.326 197.864 247.545C197.925 246.749 197.987 245.943 198.057 245.146V245.085C198.724 236.556 199.171 228.054 199.215 220.191C199.215 216.811 199.215 213.615 199.215 210.673C199.21 210.664 199.208 210.653 199.208 210.643C199.208 210.632 199.21 210.622 199.215 210.612C199.215 210.209 199.215 209.815 199.215 209.421C199.215 206.094 199.162 203.117 199.127 200.604C199.127 198.502 199.066 196.725 199.031 195.35C199.031 195.219 199.031 195.105 199.031 194.982C199.031 193.52 198.969 192.557 198.961 192.189V191.988L179.308 189.799V190.184C179.308 190.736 179.265 191.296 179.265 191.857C179.256 192.058 179.256 192.259 179.256 192.461Z" fill="#243976"/>
<path d="M158.173 221.295C158.209 229.995 158.703 238.687 159.656 247.336C159.928 249.962 161.191 261.056 160.884 258.491C160.77 257.51 161.323 277.08 161.323 277.08C164.193 277.592 167.137 277.508 169.973 276.835C173.002 259.985 175.16 242.99 176.439 225.918C176.527 224.692 176.606 223.458 176.676 222.232C176.676 221.987 176.676 221.741 176.676 221.505C176.738 220.446 176.799 219.395 176.869 218.37C177.229 213.178 177.676 208.406 177.852 203.573C177.852 203.231 177.852 202.89 177.852 202.548C177.887 201.433 177.904 200.312 177.904 199.186C177.904 197.005 177.817 194.808 177.633 192.496H158.515C158.515 192.496 158.515 192.785 158.515 193.372C158.515 193.958 158.515 194.72 158.445 195.736C158.445 196.039 158.445 196.363 158.445 196.708C158.375 199.475 158.287 203.503 158.244 208.397C158.244 209.019 158.244 209.658 158.244 210.315C158.138 213.607 158.138 217.328 158.173 221.295Z" fill="#243976"/>
<g style="mix-blend-mode:multiply" opacity="0.4">
<path d="M158.164 210.236C165.42 211.339 165.516 207.022 165.516 207.022C168.446 206.541 167.271 204.071 167.271 204.071C167.731 204.126 168.195 203.996 168.56 203.711C168.924 203.425 169.161 203.007 169.218 202.548C171.504 203.189 173.863 203.531 176.237 203.563H176.395C177.465 203.563 178.536 203.563 179.58 203.563H180.115C186.063 203.266 190.274 202.6 190.274 202.6C194.88 201.926 197.609 201.269 199.144 200.604C199.144 198.502 199.083 196.725 199.048 195.35C199.02 195.23 199.005 195.106 199.004 194.982C198.96 193.52 198.934 192.557 198.916 192.189L179.308 190.184L175.412 189.799C175.369 190.473 175.333 191.156 175.325 191.857C175.325 192.058 175.325 192.259 175.325 192.461V192.68H161.928L158.515 193.555C158.515 194.133 158.462 195 158.436 196.103C158.436 196.27 158.436 196.427 158.436 196.602C158.357 199.369 158.269 203.397 158.217 208.292C158.173 208.94 158.173 209.579 158.164 210.236Z" fill="#3C5AAC"/>
</g>
<g style="mix-blend-mode:multiply" opacity="0.4">
<path d="M158.438 195.657C163.976 197.783 169.833 198.967 175.765 199.159C177.098 199.212 178.397 199.159 179.651 199.159C186.31 198.925 192.872 197.496 199.023 194.939C198.97 193.03 198.926 191.97 198.926 191.97L175.414 189.808C175.352 190.683 175.317 191.559 175.317 192.434H158.543C158.543 192.434 158.499 193.608 158.438 195.657Z" fill="#30A2BE"/>
</g>
<path d="M153.945 149.494C153.945 149.494 154.209 157.471 154.928 166.928V167.313C155.875 179.51 155.656 191.988 155.533 204.237C163.763 206.864 172.562 206.925 181.204 206.934C183.66 206.934 186.126 206.934 188.565 206.715C194.542 206.166 200.321 204.29 205.48 201.225C203.426 192.037 202.112 182.699 201.549 173.302C201.132 167.587 200.027 161.942 198.259 156.49C197.163 152.874 195.733 148.741 192.75 146.211C189.767 143.68 184.52 144.398 180.914 144.459C177.233 144.499 173.557 144.75 169.904 145.212C168.939 145.335 168.018 145.466 167.149 145.606C163.978 146.099 160.853 146.852 157.806 147.857C156.473 148.287 155.181 148.835 153.945 149.494Z" fill="#14336C"/>
<g style="mix-blend-mode:multiply" opacity="0.27">
<path d="M167.174 145.581C168.49 147.683 172.727 153.252 180.439 152.866C184.483 152.721 188.314 151.017 191.125 148.112C191.955 147.267 192.677 146.323 193.274 145.301L193.546 144.811C192.537 144.811 191.511 144.811 190.467 144.898C187.305 144.536 184.122 144.381 180.939 144.434C177.258 144.483 173.582 144.735 169.929 145.187C168.964 145.336 168.042 145.467 167.174 145.581Z" fill="#3C5AAC"/>
</g>
<path d="M169.93 145.212C171.097 146.964 174.448 151.114 180.352 150.816C182.383 150.692 184.355 150.094 186.112 149.07C187.869 148.047 189.361 146.627 190.468 144.924C187.306 144.561 184.123 144.406 180.94 144.459C177.259 144.508 173.583 144.76 169.93 145.212Z" fill="#E6A07A"/>
<path d="M171.413 145.808C171.405 145.846 171.405 145.884 171.413 145.922C171.764 146.999 173.281 147.796 174.527 148.356C176.209 149.075 178.023 149.436 179.852 149.416C183.362 149.416 187.933 148.111 188.178 145.257C188.178 144.792 188.257 144.381 188.301 143.882C188.424 142.656 188.547 141.439 188.635 140.213C188.635 139.942 188.635 139.661 188.678 139.337C188.678 138.856 188.678 138.383 188.731 137.91C188.741 137.785 188.741 137.659 188.731 137.534C188.731 137.464 188.784 137.358 188.819 137.218C188.849 137.154 188.865 137.084 188.865 137.013C188.865 136.941 188.849 136.871 188.819 136.807C188.701 136.692 188.551 136.615 188.389 136.588C188.242 136.545 188.092 136.51 187.941 136.483C187.599 136.43 187.252 136.413 186.906 136.43C186.4 136.476 185.896 136.549 185.397 136.649H185.301C184.158 136.799 183.006 136.869 181.853 136.859C179.805 136.928 177.755 136.893 175.711 136.754C174.471 136.601 173.224 136.513 171.974 136.492C171.765 137.53 171.651 138.585 171.632 139.644C171.632 139.889 171.632 140.134 171.588 140.379C171.527 141.465 171.474 142.603 171.448 143.567C171.389 144.312 171.377 145.061 171.413 145.808Z" fill="#E6A07A"/>
<g style="mix-blend-mode:multiply" opacity="0.39">
<path d="M171.412 143.62C174.044 144.679 180.019 145.879 182.703 145.756C184.727 145.694 186.688 145.043 188.345 143.882C188.467 142.656 188.59 141.439 188.678 140.213C188.678 139.942 188.678 139.662 188.722 139.338C188.624 139.259 188.51 139.202 188.388 139.171C188.242 139.125 188.092 139.087 187.941 139.058L186.239 139.408L185.3 139.259C184.159 139.433 183.006 139.515 181.852 139.504C179.805 139.58 177.754 139.539 175.711 139.382C174.472 139.205 173.224 139.103 171.974 139.075C171.825 139.245 171.709 139.441 171.631 139.653C171.631 139.898 171.631 140.143 171.588 140.389C171.474 141.518 171.412 142.656 171.412 143.62Z" fill="#E6A07A"/>
</g>
<g style="mix-blend-mode:multiply" opacity="0.4">
<path d="M182.203 224.534C183.686 252.098 187.704 276.414 187.704 276.414C190.959 277.57 194.81 275.924 194.81 275.924C195.96 267.071 197.065 257.326 197.881 247.545C196.942 254.594 194.731 268.35 191.74 268.192C188.748 268.035 184.195 238.561 182.203 224.534Z" fill="#3C5AAC"/>
</g>
<g style="mix-blend-mode:multiply" opacity="0.4">
<path d="M160.008 250.759C160.815 257.326 161.315 268.805 161.333 277.08C164.202 277.592 167.147 277.508 169.983 276.835C173.012 259.984 175.17 242.99 176.449 225.918C174.001 241.302 169.553 265.399 165.649 265.951C163.886 266.196 161.394 255.286 160.008 250.759Z" fill="#3C5AAC"/>
</g>
<g style="mix-blend-mode:multiply" opacity="0.15">
<path d="M156.812 183.661C157.541 188.862 158.313 193.678 158.883 196.637C158.883 196.637 166.244 200.411 179.009 200.411H180.097C186.588 200.271 193.033 199.282 199.266 197.469C200.524 192.728 201.476 187.911 202.118 183.048C199.135 187.426 192.467 194.168 180.097 193.757C166.849 193.328 159.725 187.067 156.812 183.661Z" fill="#3C5AAC"/>
</g>
<path d="M166.193 150.992L159.113 148.365C156.743 148.261 154.413 149.003 152.541 150.458C146.207 155.493 138.636 168.583 137.758 175.851C137.276 179.791 140.68 185.237 145.839 181.77C148.567 179.94 152.34 172.935 155.138 170.387C161.473 164.398 166.307 158.715 166.193 150.992Z" fill="white"/>
<path d="M137.891 175.474C137.083 176.244 137.32 190.849 154.683 200.814C156.642 199.198 157.986 196.96 158.49 194.474C158.49 194.474 150.428 180.228 147.085 178.643C144.095 177.381 141.024 176.322 137.891 175.474Z" fill="white"/>
<path d="M157.77 195.096C158.023 194.771 158.359 194.52 158.743 194.369C159.007 194.282 160.393 194.098 163.727 195.122C164.315 195.306 166.543 196.497 166.271 197.951C166.078 198.993 162.446 197.951 161.542 197.889C162.305 198.029 165.929 198.52 165.683 200.087C165.438 201.654 161.498 200.507 160.709 200.376C160.709 200.376 164.639 201.374 164.604 202.81C164.569 204.246 160.875 203.502 160.875 203.502C160.875 203.502 163.806 204.255 163.358 205.673C163.139 206.348 161.007 206.164 160.542 206.102C159.803 206.014 159.083 205.808 158.41 205.49C156.95 204.721 155.827 203.439 155.26 201.891C155.128 201.519 154.941 201.168 154.708 200.849C154.313 200.323 155.243 198.931 155.471 198.537C156.045 197.569 156.669 196.631 157.34 195.726C157.454 195.49 157.612 195.28 157.77 195.096Z" fill="#FFBF94"/>
<path d="M201.004 108.218C201.653 108.665 202.329 109.094 203.031 109.532C205.013 110.714 207.163 111.59 209.365 111.134C212.444 110.504 215.787 107.728 216.638 104.672C217.045 103.015 216.931 101.272 216.313 99.6813C216.027 98.9311 215.68 98.205 215.278 97.5097C214.726 96.4916 214.005 95.5739 213.146 94.7954C209.382 91.5731 205.04 93.5257 201.267 95.5922L201.004 108.218Z" fill="#FFBF94"/>
<g style="mix-blend-mode:multiply" opacity="0.31">
<path d="M206.69 102.833C208.682 101.23 209.252 98.77 209.208 96.327C209.207 96.2735 209.224 96.2212 209.256 96.1786C209.289 96.1359 209.335 96.1055 209.387 96.0923C209.438 96.0791 209.493 96.0838 209.542 96.1058C209.591 96.1278 209.631 96.1656 209.656 96.2132C210.708 98.6649 209.656 101.379 207.901 103.218C208.65 103.715 209.357 104.271 210.015 104.882C210.801 105.485 211.408 106.29 211.77 107.211C211.818 107.347 211.821 107.496 211.778 107.634C211.735 107.772 211.648 107.893 211.531 107.979C211.414 108.064 211.273 108.11 211.128 108.108C210.983 108.107 210.842 108.06 210.726 107.973C210.059 107.348 209.47 106.645 208.971 105.88C208.305 105.069 207.546 104.34 206.708 103.708C206.639 103.658 206.584 103.593 206.545 103.518C206.505 103.443 206.484 103.36 206.483 103.275C206.481 103.19 206.499 103.106 206.535 103.03C206.571 102.953 206.624 102.886 206.69 102.833Z" fill="#DD664A"/>
</g>
<g style="mix-blend-mode:multiply" opacity="0.25">
<path d="M202.996 109.532C204.979 110.714 207.128 111.59 209.33 111.134C212.41 110.504 215.752 107.728 216.603 104.672C217.01 103.015 216.897 101.272 216.279 99.6813C216.003 98.9322 215.669 98.2061 215.279 97.5098C215.34 99.4098 214.735 107.054 202.996 109.532Z" fill="#995049"/>
</g>
<path d="M145.154 121.256L145.33 121.685C148.322 128.821 155.033 134.609 161.727 137.945C168.176 141.159 180.02 144.311 187.354 142.323C190.653 141.448 203.085 135.021 211.349 118.472C212.516 116.151 212.139 113.358 212.007 110.766C212.007 110.101 211.928 109.444 211.893 108.779C211.09 95.9813 208.958 83.3016 205.532 70.9435L205.155 69.9103C205.111 64.105 199.479 59.9633 194.074 57.7918C187.889 55.3443 181.279 54.1445 174.626 54.2617C167.973 54.379 161.409 55.8109 155.314 58.4748C150.006 60.8214 145.005 64.2188 141.733 68.9821C138.074 74.3409 136.846 81.0568 137.101 87.5363C137.355 94.0158 138.987 100.355 140.61 106.633C141.778 111.608 143.296 116.495 145.154 121.256Z" fill="#FFBF94"/>
<path d="M138.547 122.946C141.478 123.228 144.42 122.529 146.908 120.958C147.522 120.586 148.109 120.171 148.663 119.715L143.337 107.798C141.135 104.882 137.389 105.898 134.064 107.404C132.433 108.191 131.174 109.583 130.555 111.283C129.871 112.989 129.8 114.88 130.353 116.633C131.001 118.338 132.11 119.831 133.556 120.945C135.002 122.06 136.73 122.752 138.547 122.946Z" fill="#FFBF94"/>
<g style="mix-blend-mode:multiply" opacity="0.31">
<path d="M139.503 114.934C137.082 114.058 134.687 112.106 134.468 109.461C134.464 109.428 134.472 109.394 134.489 109.364C134.507 109.335 134.534 109.312 134.565 109.3C134.597 109.287 134.632 109.285 134.665 109.293C134.698 109.302 134.727 109.321 134.748 109.348C136.222 111.563 137.731 113.481 140.469 114.102C140.561 114.119 140.648 114.159 140.721 114.219C140.794 114.279 140.851 114.357 140.885 114.445C140.919 114.532 140.93 114.627 140.917 114.721C140.904 114.814 140.868 114.903 140.811 114.978C140.208 115.762 139.807 116.682 139.644 117.657C139.645 118.432 139.506 119.2 139.231 119.925C139.161 120.048 138.968 120.153 138.837 120.021C137.547 118.734 138.538 116.388 139.503 114.934Z" fill="#DD664A"/>
</g>
<g style="mix-blend-mode:multiply" opacity="0.25">
<path d="M144.723 109.838C145.459 107.437 145.982 104.976 146.284 102.483C146.398 101.608 147.539 92.0459 147.109 91.9759C150.311 92.7552 153.671 92.4837 156.944 92.0547C165.188 90.9793 173.28 88.9608 181.062 86.0392C185.922 84.2092 190.809 81.9239 194.274 78.0537C198.943 84.9483 205.173 90.6478 212.461 94.6903C211.707 85.6452 206.39 77.6947 201.196 70.2344C200.152 68.7284 198.924 67.0998 197.117 66.732C196.308 66.6402 195.489 66.6846 194.695 66.8633C185.536 68.3169 176.21 68.527 167.024 69.9017C161.322 70.7773 155.689 72.047 150.057 73.3341C149.121 73.4913 148.213 73.7864 147.363 74.2097C146.417 74.8449 145.594 75.6459 144.933 76.5739C142.986 79.0081 140.985 81.5473 140.222 84.5682C139.722 86.5733 140.02 88.8149 139.915 90.8901C139.583 95.2426 139.929 99.6201 140.941 103.867C141.755 106.688 142.778 109.445 144.003 112.115C144.258 111.371 144.503 110.6 144.723 109.838Z" fill="#995049"/>
</g>
<g style="mix-blend-mode:multiply" opacity="0.25">
<path d="M138.547 122.946C141.478 123.228 144.42 122.529 146.908 120.958C134.432 122.508 130.555 111.326 130.555 111.326C129.871 113.033 129.8 114.923 130.353 116.676C131.007 118.373 132.119 119.857 133.565 120.963C135.011 122.069 136.735 122.755 138.547 122.946Z" fill="#995049"/>
</g>
<path d="M130.96 100.399C131.284 101.152 131.618 101.896 131.969 102.64C134.504 107.955 139.259 109.724 144.409 112.211C143.935 104.155 143.833 96.0936 144.102 88.0263C144.102 89.1033 150.2 89.7775 151.077 89.8739C153.582 89.9502 156.088 89.7357 158.543 89.2347C165.158 88.0964 171.492 85.7322 177.704 83.2718C185.6 80.1458 193.864 76.4245 198.242 69.2094C197.365 70.6104 199.119 75.2074 199.637 76.6346C200.589 79.3134 201.856 81.8704 203.41 84.2524C206.445 89.007 209.963 93.1749 212.06 98.5074C216.113 89.5937 216.728 79.5241 216.447 69.7348C216.245 62.0907 212.937 52.0037 203.287 52.389C204.006 47.9234 201.05 43.5015 197.146 41.1724C188.565 36.0501 177.695 36.4353 168.194 38.3529C157.977 40.3435 148.379 44.7247 140.189 51.1368C125.678 62.9138 123.897 83.9898 130.96 100.399Z" fill="#3D2023"/>
<path d="M212.007 98.376L212.06 98.5074C216.113 89.5937 216.727 79.5241 216.446 69.7348C216.244 62.0907 212.937 52.0037 203.286 52.389C204.006 47.9234 201.049 43.5015 197.145 41.1724C188.565 36.0501 177.695 36.4353 168.193 38.3529C157.977 40.3435 148.379 44.7247 140.189 51.1368C125.555 62.9138 123.774 83.9898 130.836 100.399C131.161 101.152 131.494 101.896 131.845 102.64C134.126 107.43 138.215 109.339 142.759 111.484C138.291 105.508 135.091 98.6848 133.354 91.4325C130.433 78.4471 133.354 63.6493 144.303 55.0596C146.648 53.3565 149.176 51.9203 151.84 50.7778C155.025 49.1276 158.382 47.8299 161.85 46.9076C167.026 45.7256 172.589 45.9357 177.844 46.3385C183.366 46.7478 188.789 48.0305 193.908 50.1387C195.339 50.7064 196.674 51.4921 197.864 52.4678C198.154 52.7217 200.496 56.3993 199.68 56.4868C203.321 56.0665 207.524 57.0735 209.822 59.9893C212.199 63.1733 213.666 66.9407 214.069 70.8906C214.683 75.8904 214.016 80.9601 213.279 85.9424C212.564 90.0521 212.139 94.2069 212.007 98.376Z" fill="#543037"/>
<path d="M194.872 87.6154C194.877 87.4877 194.911 87.3627 194.97 87.2492C195.029 87.1358 195.112 87.0366 195.214 86.9587C195.383 86.8647 195.573 86.8136 195.766 86.8099C197.458 86.6575 199.163 86.8677 200.767 87.4265C202.371 87.9852 203.837 88.8796 205.066 90.0496C205.838 90.8464 206.909 92.3437 205.671 93.2281C204.277 94.2263 202.162 93.2281 200.837 92.6414C198.837 91.7658 194.696 90.575 194.854 87.7555C194.863 87.7117 194.863 87.6592 194.872 87.6154Z" fill="#3D2023"/>
<path d="M153.576 98.8409C153.953 97.0459 156.208 95.5836 157.682 94.8131C159.583 93.7959 161.733 93.3374 163.885 93.4909C164.184 93.5223 164.479 93.5899 164.762 93.6923C165.173 93.7283 165.565 93.8869 165.885 94.1476C167.394 95.5486 164.016 97.4662 163.165 97.9565C161.182 99.1035 159.077 100.531 156.822 101.03C155.366 101.354 153.164 100.802 153.576 98.8409Z" fill="#3D2023"/>
<path d="M177.22 117.561C177.624 115.469 181.721 115.223 183.432 115.153C185.73 115.066 188.353 115.328 190.02 117.062C190.035 117.08 190.045 117.101 190.048 117.123C190.051 117.146 190.048 117.169 190.039 117.19C190.03 117.211 190.015 117.229 189.996 117.242C189.977 117.255 189.955 117.262 189.933 117.264C187.722 117.377 185.546 116.791 183.344 117.018C182.11 117.143 180.9 117.438 179.747 117.894C178.869 118.244 178.457 118.621 177.571 118.192C177.455 118.135 177.359 118.044 177.296 117.932C177.234 117.819 177.207 117.69 177.22 117.561Z" fill="#DD664A"/>
<path d="M193.241 108.105C193.745 109.386 194.619 110.489 195.751 111.274C196.884 112.06 198.224 112.493 199.603 112.519C200.982 112.544 202.338 112.161 203.498 111.418C204.659 110.675 205.573 109.605 206.125 108.343C206.677 107.082 206.841 105.685 206.598 104.331C206.355 102.976 205.714 101.723 204.758 100.732C203.802 99.7398 202.572 99.0533 201.225 98.7588C199.878 98.4644 198.473 98.5751 197.189 99.0771C196.336 99.4107 195.556 99.9089 194.896 100.543C194.235 101.178 193.707 101.936 193.34 102.774C192.974 103.613 192.776 104.515 192.759 105.43C192.742 106.344 192.906 107.253 193.241 108.105Z" fill="white"/>
<path d="M194.538 108.104C194.928 109.104 195.606 109.967 196.487 110.582C197.368 111.198 198.412 111.538 199.487 111.561C200.562 111.583 201.619 111.287 202.525 110.709C203.431 110.131 204.145 109.297 204.576 108.314C205.007 107.331 205.136 106.242 204.946 105.186C204.757 104.13 204.257 103.153 203.511 102.381C202.765 101.608 201.806 101.074 200.755 100.846C199.704 100.617 198.609 100.706 197.609 101.099C196.273 101.625 195.201 102.657 194.625 103.969C194.05 105.282 194.019 106.769 194.538 108.104Z" fill="black"/>
<path d="M197.575 108.864C197.69 109.154 197.889 109.404 198.146 109.582C198.404 109.759 198.708 109.856 199.021 109.861C199.334 109.866 199.641 109.777 199.903 109.607C200.166 109.438 200.372 109.194 200.495 108.907C200.619 108.62 200.654 108.303 200.596 107.996C200.539 107.689 200.391 107.406 200.173 107.183C199.954 106.959 199.673 106.806 199.367 106.742C199.061 106.678 198.743 106.707 198.453 106.824C198.066 106.979 197.757 107.281 197.593 107.663C197.429 108.046 197.422 108.477 197.575 108.864Z" fill="white"/>
<path d="M169.375 116.797C171.571 113.644 170.79 109.312 167.632 107.121C164.473 104.93 160.132 105.709 157.937 108.861C155.741 112.014 156.522 116.346 159.68 118.537C162.839 120.729 167.18 119.949 169.375 116.797Z" fill="white"/>
<path d="M169.395 113.34C169.354 114.411 168.996 115.447 168.366 116.315C167.735 117.183 166.861 117.845 165.854 118.217C164.847 118.59 163.752 118.656 162.707 118.407C161.662 118.158 160.715 117.605 159.985 116.819C159.255 116.033 158.774 115.048 158.605 113.99C158.436 112.931 158.585 111.846 159.033 110.872C159.482 109.898 160.209 109.078 161.125 108.517C162.04 107.956 163.101 107.678 164.174 107.719C165.613 107.776 166.97 108.399 167.948 109.453C168.927 110.507 169.447 111.905 169.395 113.34Z" fill="black"/>
<path d="M167.236 114.67C167.229 114.983 167.129 115.286 166.948 115.542C166.768 115.797 166.515 115.994 166.222 116.106C165.93 116.217 165.61 116.24 165.305 116.17C164.999 116.1 164.721 115.941 164.507 115.713C164.292 115.485 164.15 115.199 164.099 114.89C164.048 114.582 164.09 114.265 164.22 113.98C164.35 113.696 164.562 113.456 164.829 113.292C165.095 113.128 165.405 113.047 165.718 113.059C166.133 113.073 166.526 113.25 166.81 113.552C167.095 113.854 167.248 114.256 167.236 114.67Z" fill="white"/>
<path d="M176.587 128.427C176.706 128.592 176.835 128.75 176.973 128.9L177.061 128.987H177.105L177.35 129.32L177.526 129.6C177.53 129.664 177.549 129.725 177.583 129.778C177.617 129.832 177.664 129.876 177.719 129.907L177.965 130.345C178.015 130.422 178.092 130.477 178.181 130.502C178.27 130.526 178.364 130.517 178.447 130.476C178.53 130.434 178.594 130.365 178.63 130.28C178.665 130.195 178.669 130.1 178.64 130.012C178.613 129.887 178.578 129.764 178.535 129.644C179.424 128.719 180.513 128.009 181.72 127.569C183.913 126.798 186.536 126.965 188.835 127.166C189.08 127.166 189.423 127.166 189.466 126.903C189.51 126.641 189.335 126.571 189.177 126.474C188.177 125.87 186.703 125.897 185.562 125.818C184.255 125.722 182.942 125.904 181.711 126.352C180.334 126.835 179.098 127.65 178.114 128.725C178.008 128.523 177.894 128.339 177.772 128.147C177.691 128.006 177.6 127.871 177.5 127.744C177.46 127.681 177.408 127.627 177.346 127.585C177.285 127.543 177.216 127.514 177.143 127.499C177.07 127.485 176.995 127.485 176.922 127.5C176.849 127.515 176.78 127.544 176.719 127.586C176.651 127.63 176.593 127.687 176.549 127.755C176.505 127.822 176.476 127.898 176.464 127.977C176.451 128.057 176.456 128.138 176.477 128.215C176.499 128.293 176.536 128.365 176.587 128.427Z" fill="#DD664A"/>
<path d="M151.287 80.33C149.756 80.331 148.226 80.2374 146.707 80.0498C146.592 80.0366 146.487 79.9785 146.414 79.8883C146.342 79.7981 146.309 79.683 146.321 79.5682C146.327 79.5105 146.345 79.4547 146.374 79.404C146.402 79.3534 146.44 79.3088 146.486 79.273C146.531 79.2371 146.584 79.2107 146.64 79.1952C146.696 79.1798 146.755 79.1756 146.812 79.1829C153.138 79.971 159.095 78.9027 164.622 77.7469C170.426 76.6714 176.051 74.7942 181.335 72.1693C185.581 69.9715 188.924 67.5898 191.424 63.1067L192.916 60.4186C192.975 60.3194 193.069 60.2467 193.181 60.2157C193.292 60.1847 193.411 60.1978 193.512 60.2522C193.563 60.2797 193.608 60.3169 193.644 60.3618C193.681 60.4066 193.708 60.4582 193.724 60.5135C193.74 60.5688 193.746 60.6268 193.739 60.6842C193.733 60.7415 193.716 60.7971 193.688 60.8476L192.188 63.527C189.424 68.4829 185.529 70.9784 181.739 72.9486C176.382 75.6088 170.68 77.5126 164.797 78.605C160.366 79.644 155.838 80.2221 151.287 80.33Z" fill="#543037"/>
<path d="M151.874 71.7489C151.758 71.7489 151.646 71.7028 151.564 71.6207C151.482 71.5386 151.436 71.4272 151.436 71.3111C151.436 71.195 151.482 71.0836 151.564 71.0015C151.646 70.9194 151.758 70.8733 151.874 70.8733L160.718 69.9977C163.492 69.6505 166.23 69.0646 168.903 68.2465L170.728 67.7474C174.12 66.832 177.351 65.4027 180.308 63.5094C181.256 62.8965 182.221 62.3449 183.16 61.8107C186.248 60.0595 189.17 58.3783 191.012 54.9284C191.037 54.8737 191.072 54.8246 191.117 54.7841C191.161 54.7437 191.213 54.7128 191.27 54.6934C191.327 54.674 191.388 54.6665 191.447 54.6713C191.507 54.6762 191.566 54.6933 191.619 54.7215C191.672 54.7498 191.718 54.7887 191.756 54.8357C191.793 54.8828 191.82 54.9369 191.836 54.9949C191.851 55.0529 191.855 55.1135 191.846 55.1729C191.837 55.2322 191.816 55.2891 191.784 55.34C189.828 59.0088 186.801 60.7425 183.59 62.5725C182.669 63.0979 181.712 63.6495 180.782 64.2449C177.756 66.2013 174.444 67.6782 170.965 68.623L169.14 69.1308C166.419 69.9732 163.631 70.5797 160.805 70.9434L151.962 71.819L151.874 71.7489Z" fill="#543037"/>
<path d="M159.182 64.6745C159.095 64.674 159.011 64.648 158.939 64.5997C158.867 64.5514 158.811 64.483 158.778 64.403C158.734 64.296 158.733 64.1759 158.775 64.068C158.818 63.9602 158.901 63.8731 159.006 63.8251C161.718 62.757 164.493 61.8563 167.315 61.1283C169.069 60.6292 170.929 60.1213 172.702 59.5171C178.176 57.6783 181.984 55.2354 184.353 52.0482C184.422 51.9553 184.526 51.8939 184.641 51.8774C184.757 51.861 184.874 51.8909 184.967 51.9606C185.06 52.0303 185.121 52.134 185.138 52.2489C185.154 52.3639 185.124 52.4806 185.054 52.5735C182.58 55.9009 178.632 58.4489 172.982 60.349C171.228 60.9531 169.341 61.4697 167.552 61.9688C164.766 62.6923 162.026 63.5841 159.349 64.6395C159.295 64.6594 159.239 64.6712 159.182 64.6745Z" fill="#543037"/>
<path d="M136.32 87.5273C136.263 87.5284 136.206 87.5182 136.153 87.4972C136.1 87.4761 136.051 87.4447 136.01 87.4047C135.97 87.3648 135.937 87.3171 135.915 87.2645C135.893 87.2118 135.881 87.1553 135.881 87.0982C135.802 81.109 135.715 74.3143 138.698 68.5265C140.751 64.5425 144.339 60.9525 149.656 57.5639C157.701 52.424 166.018 49.911 173.686 50.2963C173.743 50.2992 173.8 50.3133 173.852 50.338C173.904 50.3627 173.951 50.3973 173.989 50.44C174.028 50.4827 174.058 50.5326 174.077 50.5868C174.097 50.641 174.105 50.6985 174.102 50.756C174.099 50.8135 174.085 50.8699 174.061 50.9219C174.036 50.9739 174.001 51.0205 173.958 51.0592C173.916 51.0978 173.866 51.1276 173.811 51.147C173.757 51.1663 173.699 51.1748 173.642 51.1719C164.167 50.6991 155.63 54.7882 150.121 58.2994C144.944 61.6092 141.461 65.0854 139.479 68.9293C136.601 74.5245 136.68 81.1878 136.759 87.0807C136.76 87.1389 136.749 87.1968 136.728 87.2509C136.706 87.3051 136.674 87.3544 136.633 87.396C136.593 87.4375 136.544 87.4706 136.49 87.4931C136.436 87.5157 136.378 87.5273 136.32 87.5273Z" fill="#543037"/>
<path d="M207.936 80.8733H207.857C207.8 80.8639 207.746 80.8431 207.697 80.8123C207.648 80.7814 207.606 80.7411 207.574 80.6937C207.541 80.6463 207.518 80.5928 207.506 80.5364C207.495 80.4801 207.495 80.4219 207.506 80.3655C208.13 77.571 208.372 74.7051 208.225 71.8458C207.927 68.1332 206.023 63.0897 201.637 61.0495C201.584 61.0251 201.537 60.9905 201.498 60.9476C201.458 60.9048 201.428 60.8547 201.409 60.8001C201.389 60.7455 201.38 60.6876 201.383 60.6297C201.386 60.5718 201.401 60.5151 201.426 60.4629C201.45 60.4106 201.484 60.3636 201.526 60.3246C201.568 60.2856 201.617 60.2554 201.671 60.2358C201.725 60.2162 201.783 60.2076 201.84 60.2105C201.897 60.2134 201.953 60.2278 202.005 60.2527C206.734 62.4505 208.787 67.8355 209.103 71.7757C209.259 74.7143 209.011 77.6604 208.366 80.5318C208.345 80.6299 208.291 80.7177 208.213 80.7801C208.134 80.8425 208.036 80.8754 207.936 80.8733Z" fill="#543037"/>
<path d="M204.672 79.174C204.579 79.1741 204.489 79.1443 204.415 79.089C204.341 79.0338 204.286 78.9561 204.26 78.8675C203.892 77.4386 203.738 75.9633 203.803 74.4895C203.838 73.3407 203.762 72.1912 203.575 71.0571C203.267 69.5491 202.558 68.1518 201.522 67.0117C201.452 66.9247 201.418 66.8143 201.427 66.703C201.436 66.5917 201.487 66.488 201.57 66.4131C201.653 66.3381 201.761 66.2977 201.873 66.2999C201.985 66.3021 202.092 66.3469 202.172 66.4251C203.313 67.681 204.095 69.2205 204.435 70.8819C204.634 72.0707 204.717 73.276 204.681 74.4807C204.615 75.871 204.754 77.2636 205.093 78.6136C205.111 78.6688 205.117 78.7269 205.112 78.7846C205.107 78.8423 205.091 78.8984 205.064 78.9497C205.037 79.001 205 79.0465 204.955 79.0835C204.911 79.1205 204.859 79.1483 204.804 79.1652L204.672 79.174Z" fill="#543037"/>
<path d="M191.223 199.527C191.175 197.686 191.349 195.845 191.74 194.046C194.012 190.386 197.881 182.549 197.881 182.549L207.181 186.857C205.121 191.373 202.526 195.627 199.452 199.527C198.151 200.695 196.684 201.665 195.1 202.408" fill="#44A2EB"/>
<path d="M193.793 195.49C191.828 199.395 186.283 205.831 186.283 205.831L186.827 213.011C191.202 208.556 194.718 203.335 197.197 197.609L193.793 195.49Z" fill="#FF6551"/>
<path d="M197.82 146.675C195.574 143.917 190.503 142.227 185.949 143.234C180.571 144.416 171.289 150.852 171.289 150.852L179.65 161.237C179.65 161.237 184.195 151.929 190.301 151.15C196.407 150.37 199.723 153.776 203.364 161.841C202.645 154.845 199.618 148.89 197.82 146.675Z" fill="#4BB2F7"/>
<path d="M201.874 154.879C202.14 156.09 202.339 157.315 202.47 158.548C198.829 150.501 195.408 147.086 189.407 147.848C183.406 148.61 178.756 157.935 178.756 157.935L179.633 161.236C179.633 161.236 184.178 151.928 190.284 151.149C196.39 150.37 199.706 153.776 203.347 161.84C203.104 159.475 202.609 157.141 201.874 154.879Z" fill="#3E8CE1"/>
<path d="M171.939 213.046C171.474 206.173 166.737 174.423 161.595 164.949C155.744 154.153 146.304 148.129 133.907 148.96C125.625 149.512 122.107 152.463 120.686 154.363C121.419 153.147 122.277 152.011 123.247 150.974C126.415 147.586 133.17 141.29 136.635 139.591L137.171 139.346L142.654 137.595C147.672 136.486 152.877 136.531 157.876 137.726L158.314 142.761C158.716 143.041 159.17 143.237 159.65 143.334C160.13 143.432 160.625 143.431 161.104 143.33C162.461 142.984 163.797 142.56 165.105 142.061C165.105 142.061 165.105 141.745 165.026 141.185L166.184 141.097C177.177 148.05 182.95 165.326 182.95 165.326L191.179 213.186C187.882 217.872 183.106 221.319 177.615 222.976C173.684 224.088 169.621 224.677 165.535 224.727C169.658 223.51 172.404 219.92 171.939 213.046Z" fill="#49B3F7"/>
<path d="M182.948 165.334C181.124 160.223 178.681 155.354 175.675 150.834C170.323 154.336 164.656 157.673 159.348 161.271C160.164 162.449 160.914 163.671 161.594 164.931C166.735 174.405 171.472 206.155 171.937 213.029C172.402 219.902 169.656 223.51 165.533 224.762C169.62 224.712 173.682 224.123 177.614 223.011C183.105 221.353 187.88 217.907 191.177 213.221L182.948 165.334Z" fill="#3E8CE1"/>
<path d="M161.596 164.949C166.737 174.423 171.475 206.173 171.94 213.047C172.405 219.92 169.659 223.51 165.535 224.762C162.762 224.853 159.986 224.756 157.227 224.473C164.956 224.158 166.333 218.055 166.123 212.714C165.886 206.97 163.07 187.374 159.446 174.292C155.823 161.211 145.611 153.987 133.241 153.566C122.651 153.199 118.484 159.503 117.098 165.685C117.374 162.317 118.285 159.031 119.782 156.001C120.063 155.44 120.353 154.906 120.66 154.39C122.081 152.498 125.599 149.539 133.881 148.987C146.304 148.129 155.744 154.153 161.596 164.949Z" fill="#FF6551"/>
<path d="M165.026 141.203C165.079 141.728 165.105 142.079 165.105 142.079C163.797 142.578 162.461 143.002 161.104 143.348C160.625 143.449 160.13 143.45 159.65 143.353C159.17 143.255 158.716 143.059 158.315 142.779L157.876 140.371L157.621 137.447C157.621 137.447 156.595 134.259 158.946 133.471C160.194 132.99 161.558 132.898 162.859 133.209C164.07 134.811 164.798 138.821 165.026 141.203Z" fill="#49B3F7"/>
<path d="M158.631 129.819C162.912 131.282 162.859 133.164 162.859 133.164C161.559 132.854 160.194 132.946 158.946 133.427C156.595 134.215 157.683 138.19 157.683 138.19C156.16 137.663 154.691 136.992 153.296 136.185C150.129 134.521 144.944 134.74 143.646 135.204C143.251 135.345 142.768 135.528 142.312 135.686C141.145 136.08 139.821 136.352 138.873 135.528C137.54 134.364 138.048 132.324 138.048 132.324C139.242 127.867 154.358 128.348 158.631 129.819Z" fill="#FF6551"/>
<path d="M148.381 178.154C149.209 178.352 149.987 178.718 150.668 179.229C151.348 179.739 151.917 180.384 152.338 181.122C152.338 190.99 142.529 190.57 142.529 190.57C142.529 190.57 125.457 189.554 119.14 188.906C113.113 188.293 112.753 180.15 112.727 179.458C112.729 179.444 112.729 179.429 112.727 179.415C112.734 178.401 113.12 177.427 113.81 176.684C114.5 175.94 115.443 175.481 116.455 175.396H116.754C119.745 175.623 144.293 177.322 148.381 178.154Z" fill="#FF6551"/>
<path d="M142.653 137.569L137.17 139.321C138.935 138.558 140.772 137.971 142.653 137.569Z" fill="#4BB2F7"/>
<path d="M137.995 132.324C137.995 132.324 137.486 134.364 138.819 135.529C139.767 136.352 141.092 136.081 142.259 135.687L142.653 137.569C140.772 137.971 138.935 138.557 137.17 139.32C136.854 137.88 136.657 136.415 136.582 134.942C136.554 134.419 136.671 133.897 136.92 133.435C137.169 132.973 137.541 132.589 137.995 132.324Z" fill="#44A2EB"/>
<path d="M120.686 154.337C120.361 154.854 120.072 155.388 119.809 155.949C120.013 155.368 120.31 154.824 120.686 154.337Z" fill="#4BB2F7"/>
<path d="M112.727 179.458C112.727 180.185 113.113 188.293 119.14 188.906C125.457 189.554 142.53 190.57 142.53 190.57C142.53 190.57 152.303 190.99 152.338 181.122C153.053 182.275 153.572 183.538 153.874 184.861C153.874 184.861 156.865 201.243 156.576 209.378C156.286 217.512 144.214 217.162 144.214 217.162C138.446 216.55 132.717 215.614 127.054 214.36C125.398 214.026 123.795 213.469 122.29 212.705C120.488 211.841 118.926 210.55 117.741 208.944C116.556 207.338 115.783 205.467 115.491 203.494C115.491 203.494 113.087 183.635 112.753 180.535C112.719 180.177 112.71 179.817 112.727 179.458Z" fill="#4BB2F7"/>
<path d="M112.728 179.458C112.703 179.817 112.703 180.176 112.728 180.535C112.798 181.174 112.956 182.514 113.158 184.239H113.675C113.116 182.703 112.796 181.091 112.728 179.458Z" fill="#44A2EB"/>
<path d="M153.864 184.861C153.562 183.539 153.043 182.276 152.329 181.122C152.329 186.253 149.697 188.6 147.109 189.677C147.876 194.584 148.272 199.543 148.293 204.51C148.004 212.644 135.941 212.276 135.941 212.276C130.169 211.679 124.437 210.752 118.771 209.501L118.043 209.325C119.21 210.735 120.652 211.894 122.28 212.732C123.786 213.496 125.389 214.053 127.044 214.387C132.707 215.641 138.437 216.576 144.205 217.188C144.205 217.188 156.268 217.556 156.558 209.413C156.847 201.27 153.864 184.861 153.864 184.861Z" fill="#3E8CE1"/>
<path d="M159.447 174.283C163.07 187.365 165.886 206.961 166.123 212.705C166.334 218.046 164.956 224.149 157.227 224.464C156.61 224.499 155.992 224.499 155.376 224.464C145.971 223.816 129.301 218.86 129.301 218.86C126.306 217.715 123.818 215.542 122.283 212.731C123.788 213.496 125.391 214.052 127.047 214.386C132.71 215.64 138.439 216.576 144.207 217.188C144.207 217.188 156.271 217.556 156.56 209.412C156.85 201.269 153.858 184.895 153.858 184.895C153.556 183.573 153.037 182.31 152.323 181.157C151.901 180.418 151.333 179.774 150.652 179.263C149.972 178.753 149.194 178.387 148.366 178.188C144.277 177.356 119.73 175.658 116.782 175.456V175.351C116.668 173.504 116.501 170.457 116.571 169.423C116.651 168.156 116.83 166.897 117.107 165.658C118.493 159.476 122.66 153.172 133.249 153.54C145.611 153.978 155.832 161.21 159.447 174.283Z" fill="#49B3F7"/>
<path d="M166.147 212.705C165.911 206.961 163.094 187.365 159.471 174.283C157.278 166.359 152.663 160.589 146.601 157.165C149.395 160.476 151.42 164.363 152.531 168.548C156.155 181.63 158.971 201.226 159.208 206.97C159.418 212.311 158.041 218.405 150.312 218.729C149.695 218.764 149.077 218.764 148.46 218.729C139.687 218.151 124.632 213.8 122.641 213.213C124.189 215.787 126.554 217.771 129.361 218.852C129.361 218.852 146.03 223.808 155.4 224.429C156.017 224.464 156.635 224.464 157.251 224.429C164.954 224.149 166.332 218.046 166.147 212.705Z" fill="#3E8CE1"/>
<path d="M209.216 203.038C211.421 206.487 213.004 210.295 213.892 214.29C214.082 214.841 214.161 215.424 214.125 216.005C214.089 216.586 213.938 217.155 213.682 217.678L212.804 215.13C212.932 217.329 212.677 219.533 212.05 221.645C211.999 221.917 211.849 222.16 211.629 222.328C211.451 222.401 211.253 222.407 211.072 222.344C210.891 222.281 210.739 222.154 210.646 221.986C210.474 221.642 210.396 221.259 210.418 220.874L210.304 217.836C210.495 218.836 210.424 219.868 210.096 220.832C209.769 221.795 209.196 222.658 208.435 223.335C208.293 223.49 208.117 223.612 207.921 223.691C207.725 223.77 207.514 223.804 207.303 223.79C206.601 223.65 206.426 222.722 206.496 222.039C206.619 220.563 207.04 219.128 207.733 217.818C207.954 217.511 208.057 217.135 208.023 216.759C207.944 216.512 207.794 216.293 207.593 216.129C206.382 214.894 204.856 213.712 204.084 212.153C202.838 209.772 203.627 206.646 204.18 204.212C204.54 202.346 208.014 201.156 209.216 203.038Z" fill="#FFBF94"/>
<path d="M187.511 157.472C187.511 157.472 186.274 151.491 190.819 150.046C195.363 148.602 197.837 149.39 201.119 153.102C204.4 156.815 204.952 179.274 204.952 179.274C204.952 179.274 206.856 187.155 199.96 188.328C193.065 189.502 191.038 180.351 191.038 180.351L187.511 157.472Z" fill="#243976"/>
<path d="M202.119 209.501L192.205 183.574C192.205 183.574 190.319 177.444 196.522 175.693C198.124 175.132 199.879 175.193 201.439 175.863C202.999 176.533 204.25 177.763 204.944 179.309L212.059 205.263C212.059 205.263 212.068 211.611 202.119 209.501Z" fill="#243976"/>
</svg>
