<svg width="321" height="2310" viewBox="0 0 321 2310" fill="none" xmlns="http://www.w3.org/2000/svg">
<path d="M158.106 2095.63L172.595 2104.85C188.565 2076.85 173.741 2054.48 164.898 2046.13L156.047 2062.31C156.047 2062.31 166.959 2073.05 158.106 2095.63Z" fill="white"/>
<path d="M111.604 1158.87L137.721 1136.12C92.6927 1089.25 40.9564 1105.14 19.7659 1117.48L46.0066 1143.83C46.0066 1143.83 72.9899 1128.86 111.604 1158.87Z" fill="white"/>
<path d="M200.907 1409.27L195.056 1443.41C259.575 1451.25 289.614 1406.24 298.234 1383.28L261.24 1379.45C261.24 1379.45 249.801 1408.11 200.907 1409.27Z" fill="white"/>
<path d="M139.125 1372.23L155.359 1341.63C96.5294 1314 53.9179 1347.37 38.552 1366.48L72.4926 1381.69C72.4926 1381.69 92.3214 1358.04 139.125 1372.23Z" fill="white"/>
<path d="M142.797 153.225L70.4786 155.632C81.6009 290.956 186.372 333.459 236.971 341.428L229.227 264.117C229.227 264.117 165.762 252.783 142.797 153.225Z" fill="white"/>
</svg>
