<svg width="320" height="2310" viewBox="0 0 320 2310" fill="none" xmlns="http://www.w3.org/2000/svg">
<path d="M182.219 1751.64L198.458 1746.04C186.476 1716.11 159.735 1713.79 147.698 1715.52L154.859 1732.52C154.859 1732.52 170.05 1730.66 182.219 1751.64Z" fill="white"/>
<path d="M234.844 1206.42L260.961 1183.67C215.933 1136.8 164.197 1152.69 143.006 1165.02L169.247 1191.38C169.247 1191.38 196.23 1176.4 234.844 1206.42Z" fill="white"/>
<path d="M60.9927 1092.48L82.1663 1119.89C131.605 1077.7 118.79 1025.11 107.724 1003.23L79.8682 1027.88C79.8682 1027.88 93.2283 1055.69 60.9927 1092.48Z" fill="white"/>
<path d="M105.797 465.225L33.4786 467.632C44.6009 602.956 149.372 645.459 199.971 653.428L192.227 576.117C192.227 576.117 128.762 564.783 105.797 465.225Z" fill="white"/>
</svg>
