<svg width="453" height="1094" viewBox="0 0 453 1094" fill="none" xmlns="http://www.w3.org/2000/svg">
<path d="M62.303 122.956C62.1987 122.909 62.1068 122.838 62.0321 122.743C61.2251 121.687 60.4327 120.616 59.6326 119.563C56.5496 115.422 53.6376 111.515 49.9898 108.283C49.9043 108.208 49.8356 108.11 49.7875 107.994C49.7394 107.878 49.713 107.747 49.7096 107.608C49.7062 107.47 49.7261 107.326 49.7679 107.186C49.8098 107.045 49.8729 106.911 49.9536 106.79C50.0343 106.669 50.1311 106.564 50.2383 106.481C50.3456 106.399 50.4613 106.339 50.5788 106.307C50.6963 106.275 50.8133 106.27 50.9232 106.294C51.033 106.317 51.1336 106.367 51.219 106.443C54.8364 109.863 58.1419 113.714 61.1002 117.953L63.4858 121.128C63.6077 121.294 63.6698 121.518 63.6619 121.763C63.6539 122.007 63.5764 122.259 63.4421 122.474C63.3078 122.69 63.1248 122.858 62.9233 122.95C62.7218 123.041 62.5139 123.052 62.3338 122.979L62.303 122.956Z" fill="#49B3F7"/>
<path d="M45.4049 100.072C45.1493 100.033 44.9094 99.9398 44.7249 99.8082C44.5404 99.6766 44.4222 99.5144 44.3901 99.3484C43.5295 94.9062 43.4361 90.4884 44.1117 86.1778C44.2406 85.3632 44.3704 84.5423 44.5774 83.753C44.6275 83.5692 44.7896 83.4157 45.0298 83.3246C45.2701 83.2335 45.5697 83.2119 45.8661 83.2643C46.163 83.3213 46.43 83.4495 46.6087 83.6208C46.7874 83.7922 46.8634 83.9928 46.82 84.1789C46.637 84.9461 46.4912 85.7386 46.3653 86.5342C45.7072 90.7364 45.7975 95.0429 46.6345 99.3733C46.6543 99.4695 46.6446 99.5645 46.6062 99.6529C46.5678 99.7412 46.5013 99.8211 46.4105 99.888C46.3198 99.9549 46.2066 100.007 46.0775 100.043C45.9484 100.078 45.8059 100.095 45.6583 100.093C45.5742 100.086 45.4901 100.072 45.4079 100.053L45.4049 100.072ZM48.2651 77.3781C48.1877 77.3722 48.1103 77.36 48.0348 77.3417C47.7475 77.2559 47.5084 77.104 47.3701 76.9195C47.2318 76.735 47.2056 76.5329 47.2972 76.3577C50.0661 71.0543 54.2716 66.9232 59.7908 64.0937C60.0125 63.9964 60.2961 63.9633 60.5842 64.0011C60.8723 64.0388 61.1433 64.1447 61.3424 64.2971C61.5415 64.4496 61.6537 64.6372 61.6564 64.8221C61.659 65.007 61.5519 65.1753 61.3567 65.2929C56.1149 67.9915 52.0935 71.9317 49.4538 77.003C49.3756 77.1539 49.2144 77.2749 48.9975 77.3455C48.7806 77.4162 48.5212 77.4322 48.2631 77.3908" fill="#49B3F7"/>
<path d="M58.9873 277.341C58.7885 277.5 58.5413 277.586 58.2865 277.586C58.0318 277.586 57.7847 277.499 57.5863 277.339C52.275 273.071 47.46 268.223 43.2315 262.883C42.4331 261.874 41.6286 260.856 40.9053 259.812C40.7381 259.568 40.6721 259.268 40.7211 258.976C40.7702 258.684 40.9304 258.422 41.1684 258.246C41.4117 258.074 41.7132 258.005 42.0073 258.054C42.3013 258.104 42.5639 258.267 42.7377 258.509C43.4519 259.509 44.216 260.507 44.9958 261.494C49.1183 266.698 53.8116 271.425 58.9879 275.587C59.1037 275.679 59.2001 275.792 59.2717 275.921C59.3433 276.05 59.3886 276.192 59.405 276.338C59.4215 276.485 59.4087 276.633 59.3675 276.775C59.3262 276.916 59.2573 277.048 59.1647 277.163C59.1057 277.222 59.0399 277.274 58.9687 277.317L58.9873 277.341ZM36.2988 249.785C36.245 249.839 36.1844 249.887 36.1184 249.927C35.85 250.059 35.54 250.079 35.2566 249.983C34.9731 249.887 34.7394 249.683 34.6069 249.415C30.5915 241.31 28.7186 233.372 29.0522 225.843C29.0832 225.559 29.2212 225.297 29.4384 225.11C29.6555 224.924 29.9355 224.827 30.2217 224.839C30.5078 224.851 30.7787 224.971 30.9794 225.175C31.1802 225.379 31.2958 225.652 31.3029 225.937C30.9982 233.101 32.7783 240.68 36.6229 248.424C36.7375 248.654 36.7691 248.917 36.7123 249.168C36.6555 249.418 36.5138 249.642 36.3111 249.8" fill="#49B3F7"/>
<path d="M46.0563 175.164C46.0626 175.234 46.059 175.304 46.0456 175.373C45.4148 177.924 44.6185 180.431 43.6615 182.879C43.6085 183.016 43.5291 183.141 43.4276 183.247C43.3262 183.354 43.2047 183.439 43.0702 183.498C42.7987 183.618 42.4904 183.626 42.2133 183.519C41.9362 183.412 41.7129 183.2 41.5926 182.929C41.4723 182.658 41.4648 182.35 41.5718 182.074C42.513 179.717 43.3045 177.303 43.9417 174.846C43.9874 174.556 44.1461 174.295 44.3833 174.121C44.6205 173.946 44.917 173.872 45.2086 173.915C45.5002 173.957 45.7632 174.113 45.9406 174.347C46.118 174.582 46.1954 174.877 46.1561 175.169L46.0563 175.164ZM38.9679 193.492C38.9583 193.635 38.924 193.775 38.8667 193.906C35.73 200.675 33.0558 206.809 32.0946 213.289C31.9539 214.28 31.8233 215.272 31.7125 216.265C31.6802 216.559 31.5319 216.829 31.3001 217.015C31.0683 217.201 30.772 217.287 30.4765 217.255C30.181 217.223 29.9104 217.075 29.7243 216.843C29.5382 216.612 29.4518 216.316 29.4841 216.021C29.5948 215.029 29.7155 214.036 29.8662 213.046C30.8731 206.258 33.6152 199.969 36.82 193.043C36.9246 192.8 37.1124 192.602 37.3498 192.484C37.5873 192.366 37.8591 192.336 38.1166 192.399C38.3742 192.463 38.6007 192.616 38.7559 192.83C38.9111 193.045 38.9848 193.308 38.9638 193.572L38.9679 193.492Z" fill="#49B3F7"/>
<path d="M260.756 42.3882C260.637 42.1546 260.598 41.8874 260.646 41.631C260.693 41.3745 260.825 41.144 261.018 40.9776C266.193 36.5262 271.845 32.6967 277.868 29.561C279.007 28.9694 280.155 28.3731 281.313 27.8642C281.584 27.7472 281.89 27.7438 282.167 27.8546C282.445 27.9653 282.671 28.1818 282.8 28.4585C282.924 28.7397 282.935 29.0579 282.832 29.3437C282.729 29.6294 282.52 29.8595 282.25 29.9837C281.136 30.4927 280.015 31.0522 278.902 31.6301C273.031 34.6873 267.521 38.4198 262.475 42.7576C262.364 42.8549 262.234 42.9282 262.095 42.9732C261.955 43.0181 261.807 43.034 261.661 43.0197C261.514 43.0055 261.371 42.9614 261.24 42.8901C261.109 42.8189 260.992 42.7217 260.897 42.6044C260.85 42.5325 260.812 42.4553 260.782 42.3745L260.756 42.3882ZM292.005 25.3338C291.961 25.2681 291.926 25.197 291.899 25.1223C291.82 24.8242 291.857 24.5077 292.004 24.2424C292.151 23.9772 292.395 23.7848 292.682 23.7076C301.379 21.3682 309.512 21.1513 316.833 23.0705C317.106 23.1615 317.337 23.3556 317.479 23.6135C317.621 23.8714 317.664 24.1737 317.599 24.4594C317.534 24.745 317.366 24.9925 317.129 25.1518C316.891 25.3111 316.602 25.3703 316.321 25.3173C309.353 23.5041 301.589 23.7029 293.279 25.9463C293.031 26.0133 292.768 25.9899 292.533 25.88C292.298 25.7701 292.105 25.5804 291.987 25.3429" fill="#49B3F7"/>
<path d="M362.51 50.475C362.44 50.4679 362.372 50.4506 362.307 50.4235C359.935 49.2808 357.638 47.9763 355.431 46.5184C355.308 46.4374 355.201 46.3314 355.117 46.2066C355.033 46.0817 354.974 45.9404 354.943 45.7907C354.879 45.4883 354.933 45.17 355.093 44.9059C355.253 44.6418 355.505 44.4535 355.794 44.3825C356.084 44.3114 356.386 44.3633 356.636 44.5269C358.757 45.951 360.963 47.2323 363.241 48.3633C363.517 48.4666 363.741 48.6802 363.864 48.9578C363.988 49.2353 364.001 49.5545 363.902 49.8459C363.802 50.1373 363.597 50.3775 363.332 50.5143C363.067 50.6511 362.762 50.6735 362.485 50.5766L362.51 50.475ZM345.973 39.6375C345.835 39.5999 345.705 39.5376 345.587 39.4532C339.583 34.9175 334.11 30.9804 327.955 28.7364C327.012 28.3998 326.067 28.0732 325.117 27.767C324.835 27.6767 324.6 27.4718 324.464 27.1976C324.329 26.9234 324.303 26.6022 324.394 26.3048C324.484 26.0073 324.683 25.758 324.946 25.6115C325.21 25.4651 325.517 25.4336 325.799 25.524C326.749 25.8302 327.697 26.1466 328.637 26.4934C335.083 28.8438 340.696 32.8811 346.84 37.5171C347.057 37.6717 347.214 37.9031 347.282 38.17C347.351 38.437 347.326 38.7221 347.212 38.9744C347.099 39.2268 346.904 39.43 346.663 39.5479C346.422 39.6657 346.15 39.6906 345.896 39.6179L345.973 39.6375Z" fill="#49B3F7"/>
<path d="M66.5115 131.209C66.5335 131.275 66.5456 131.345 66.5473 131.415C66.4737 134.047 66.2216 136.677 65.7926 139.286C65.7691 139.432 65.716 139.573 65.6364 139.7C65.5567 139.828 65.4519 139.94 65.3281 140.03C65.0781 140.211 64.7655 140.292 64.4592 140.254C64.1529 140.216 63.8779 140.063 63.6948 139.828C63.5117 139.593 63.4354 139.295 63.4827 139.001C63.9159 136.483 64.1839 133.946 64.2851 131.404C64.2669 131.111 64.3704 130.819 64.5733 130.593C64.7761 130.367 65.0619 130.224 65.3686 130.196C65.6753 130.167 65.9781 130.256 66.2113 130.442C66.4446 130.629 66.5894 130.897 66.6144 131.19L66.5115 131.209Z" fill="#49B3F7"/>
<path d="M68.5186 468.599C68.5158 470.234 68.6629 471.866 68.9582 473.475C68.9834 473.62 69.0375 473.759 69.1173 473.883C69.1971 474.008 69.3011 474.115 69.4231 474.199C69.545 474.282 69.6825 474.341 69.8275 474.37C69.9724 474.4 70.1219 474.401 70.267 474.372C70.4122 474.346 70.5508 474.291 70.6747 474.211C70.7986 474.131 70.9054 474.027 70.989 473.906C71.0726 473.784 71.1312 473.647 71.1617 473.503C71.1921 473.359 71.1936 473.21 71.1662 473.066C70.8995 471.592 70.7658 470.097 70.7666 468.599C70.7666 462.617 72.6548 456.794 74.9427 450.313C74.9919 450.174 75.0132 450.027 75.0055 449.88C74.9977 449.733 74.961 449.589 74.8974 449.456C74.8339 449.323 74.7447 449.204 74.6351 449.106C74.5254 449.007 74.3974 448.931 74.2583 448.882C74.1193 448.833 73.9719 448.812 73.8245 448.82C73.6772 448.827 73.5329 448.864 73.3998 448.927C73.2666 448.991 73.1473 449.08 73.0486 449.189C72.95 449.299 72.8739 449.426 72.8247 449.565C70.4668 456.255 68.5186 462.298 68.5186 468.599ZM76.6611 438.628C76.6635 438.864 76.7399 439.094 76.8796 439.285C77.0193 439.477 77.2154 439.62 77.4404 439.694C77.7239 439.786 78.0322 439.762 78.2979 439.627C78.5637 439.493 78.7654 439.259 78.8591 438.977C80.9671 432.546 83.4848 424.021 84.2341 415.446C84.2594 415.153 84.1691 414.862 83.9824 414.635C83.7958 414.408 83.5276 414.262 83.235 414.23C82.9422 414.202 82.6504 414.291 82.4237 414.478C82.197 414.665 82.054 414.935 82.0261 415.227C81.2968 423.622 78.8191 431.937 76.751 438.259C76.7103 438.37 76.69 438.489 76.6911 438.608L76.6611 438.628ZM77.0308 388.247C77.0313 388.423 77.0724 388.597 77.1507 388.755C79.5402 393.381 81.1151 398.383 81.8064 403.541C81.8697 403.815 82.033 404.055 82.2643 404.214C82.4956 404.374 82.7781 404.441 83.0568 404.404C83.3354 404.366 83.59 404.227 83.7708 404.012C83.9516 403.797 84.0455 403.523 84.0343 403.242C83.311 397.834 81.6619 392.589 79.1588 387.738C79.0202 387.474 78.7835 387.275 78.4996 387.184C78.2156 387.093 77.907 387.116 77.6402 387.249C77.4563 387.343 77.302 387.486 77.1945 387.662C77.0869 387.838 77.0302 388.04 77.0308 388.247Z" fill="#49B3F7"/>
<path d="M141.42 36.5611C139.807 36.2743 138.171 36.1354 136.533 36.1463C136.385 36.1458 136.239 36.1748 136.102 36.2317C135.965 36.2886 135.842 36.3721 135.738 36.4775C135.634 36.5829 135.553 36.7079 135.498 36.8452C135.444 36.9825 135.417 37.1293 135.42 37.277C135.421 37.4243 135.451 37.57 135.509 37.7057C135.566 37.8414 135.65 37.9644 135.755 38.0677C135.86 38.1709 135.985 38.2523 136.122 38.3073C136.259 38.3622 136.405 38.3895 136.553 38.3877C138.053 38.3816 139.552 38.5098 141.029 38.7708C146.932 39.8099 152.348 42.6775 158.345 46.0521C158.473 46.1246 158.615 46.1711 158.761 46.189C158.908 46.2069 159.056 46.1959 159.198 46.1565C159.34 46.1171 159.473 46.0501 159.59 45.9595C159.706 45.8688 159.803 45.7561 159.876 45.6279C159.948 45.4998 159.995 45.3586 160.013 45.2124C160.031 45.0663 160.02 44.918 159.98 44.7761C159.941 44.6343 159.874 44.5015 159.783 44.3855C159.692 44.2695 159.579 44.1725 159.451 44.1C153.26 40.6202 147.637 37.6557 141.42 36.5611ZM169.576 49.7711C169.342 49.7324 169.102 49.7675 168.889 49.8716C168.676 49.9757 168.501 50.1436 168.388 50.3518C168.248 50.6146 168.219 50.9218 168.305 51.2064C168.392 51.491 168.587 51.7299 168.85 51.871C174.828 55.0603 182.802 59.0159 191.131 61.2419C191.416 61.3176 191.719 61.2793 191.975 61.1353C192.232 60.9914 192.422 60.753 192.505 60.4711C192.583 60.1881 192.546 59.8857 192.401 59.6303C192.256 59.375 192.015 59.1877 191.731 59.1096C183.575 56.9344 175.801 53.0545 169.924 49.9235C169.821 49.8641 169.708 49.8236 169.59 49.804L169.576 49.7711ZM219.218 58.8857C219.044 58.8556 218.865 58.8657 218.696 58.9152C213.716 60.4606 208.508 61.1398 203.299 60.9233C203.018 60.9381 202.753 61.057 202.555 61.2566C202.358 61.4562 202.242 61.7222 202.23 62.0026C202.219 62.283 202.313 62.5575 202.493 62.7726C202.674 62.9876 202.928 63.1276 203.207 63.1653C208.669 63.3938 214.129 62.6836 219.35 61.0658C219.634 60.9754 219.872 60.7773 220.011 60.514C220.151 60.2507 220.181 59.9433 220.096 59.6579C220.035 59.4608 219.921 59.2844 219.766 59.1481C219.611 59.0118 219.422 58.921 219.218 58.8857Z" fill="#49B3F7"/>
<path d="M74.037 400.095C74.0038 400.36 74.0773 400.626 74.2413 400.837C74.4052 401.047 74.6462 401.184 74.9112 401.217C75.1761 401.25 75.4434 401.177 75.6542 401.013C75.865 400.849 76.002 400.609 76.0351 400.344L78.6927 389.965L89.2429 397.642C89.3471 397.735 89.4696 397.805 89.6025 397.847C89.7354 397.89 89.8757 397.904 90.0144 397.889C90.1531 397.874 90.2871 397.83 90.4079 397.76C90.5286 397.691 90.6334 397.596 90.7154 397.484C90.7974 397.371 90.8549 397.243 90.8841 397.106C90.9133 396.97 90.9136 396.83 90.885 396.693C90.8564 396.557 90.7996 396.428 90.7181 396.315C90.6366 396.202 90.5322 396.107 90.4118 396.037L78.6727 387.482C78.5414 387.388 78.3892 387.327 78.2291 387.305C78.069 387.282 77.9058 387.299 77.7535 387.353C77.6004 387.408 77.463 387.499 77.3534 387.619C77.2437 387.739 77.165 387.884 77.1241 388.041L74.0769 399.876C74.0626 399.958 74.0626 400.043 74.0769 400.125" fill="#49B3F7"/>
<path d="M208.048 53.8844C207.793 53.806 207.517 53.8319 207.281 53.9565C207.045 54.0811 206.869 54.2942 206.79 54.5489C206.711 54.8036 206.737 55.0791 206.862 55.3147C206.987 55.5503 207.2 55.7268 207.455 55.8053L217.234 60.2205L207.827 69.2577C207.718 69.3441 207.628 69.4524 207.563 69.5756C207.498 69.6988 207.459 69.8343 207.45 69.9732C207.44 70.1122 207.46 70.2515 207.508 70.3823C207.556 70.5131 207.631 70.6325 207.728 70.7327C207.825 70.8329 207.942 70.9117 208.071 70.9641C208.2 71.0164 208.339 71.0412 208.478 71.0367C208.618 71.0323 208.755 70.9988 208.88 70.9383C209.006 70.8778 209.118 70.7917 209.208 70.6856L219.687 60.6321C219.803 60.5195 219.89 60.3804 219.94 60.227C219.99 60.0735 220.002 59.9102 219.975 59.7511C219.947 59.5911 219.881 59.4402 219.782 59.3115C219.682 59.1829 219.553 59.0804 219.405 59.0129L208.258 53.9618C208.179 53.9334 208.096 53.9187 208.012 53.9185" fill="#49B3F7"/>
<path d="M28.5331 98.2235C28.1722 96.6904 27.2896 95.3299 26.0359 94.3742C25.4678 93.8397 24.7713 93.4607 24.0136 93.2738C23.2559 93.0869 22.4626 93.0984 21.7107 93.3071C20.252 93.9404 19.0636 95.0668 18.3544 96.4883C18.2957 96.5922 18.2608 96.7078 18.2521 96.8267C18.2435 96.9457 18.2614 97.0651 18.3044 97.1764C17.9736 98.1044 17.8798 99.1002 18.0315 100.074C18.1833 101.047 18.5758 101.967 19.1735 102.751C21.2612 105.463 24.8971 104.526 27.0647 102.422C27.653 101.909 28.0976 101.253 28.355 100.517C28.6125 99.7805 28.6738 98.9903 28.5331 98.2235ZM26.1258 101.026C24.8372 102.432 22.3599 103.658 20.7417 102.023C20.1276 101.372 19.742 100.539 19.643 99.6495C19.5231 98.8916 19.5231 97.5454 20.4021 97.2063C20.5259 97.1554 20.6367 97.0775 20.7265 96.9784C20.8162 96.8792 20.8827 96.7613 20.921 96.6332C20.9592 96.5052 20.9684 96.3702 20.9478 96.2382C20.9271 96.1061 20.8772 95.9803 20.8017 95.87C21.1019 95.5657 21.4372 95.2979 21.8006 95.0722C22.2787 94.8183 22.8241 94.7193 23.3611 94.789C23.8981 94.8587 24.4001 95.0936 24.7972 95.4611C26.5853 96.7077 27.7939 99.1808 26.1258 100.996" fill="#49B3F7"/>
<path d="M24.8065 83.235C24.6846 83.2114 24.5586 83.2201 24.4412 83.2604C24.3237 83.3006 24.2189 83.3709 24.1373 83.4643C23.7378 83.8622 23.4257 84.3388 23.2208 84.8637C23.0159 85.3886 22.9227 85.9503 22.9472 86.5131C22.9716 87.076 23.1131 87.6275 23.3627 88.1328C23.6123 88.638 23.9645 89.0858 24.397 89.4477C26.2649 90.9536 29.2316 90.445 30.9397 88.8993C35.0152 85.2294 28.0829 79.6549 24.8065 83.1851V83.235ZM29.4713 87.9619C28.9058 88.3963 28.2227 88.6513 27.5104 88.694C26.7981 88.7366 26.0893 88.565 25.4758 88.2012C24.9823 87.8351 24.6532 87.2897 24.5597 86.683C24.4662 86.0764 24.6159 85.4574 24.9763 84.9602C25.1312 84.9849 25.2899 84.963 25.4322 84.8973C25.5745 84.8316 25.694 84.725 25.7754 84.5912C27.5335 81.8887 32.6378 85.7879 29.4613 87.9619" fill="#49B3F7"/>
<path d="M17.3546 86.4663C17.1814 85.7347 16.7589 85.086 16.1594 84.6312C15.5598 84.1764 14.8206 83.9438 14.0682 83.9732C12.6998 84.1028 11.3512 85.7582 12.3401 87.0347C12.445 87.1782 12.5914 87.2861 12.7597 87.3438C13.0494 88.6103 13.7586 89.817 15.2369 89.7771C16.7153 89.7372 17.6742 87.8724 17.3546 86.4663ZM15.0971 88.1217C14.318 88.0319 14.278 86.7156 14.238 86.1272C14.2335 85.9503 14.1663 85.7806 14.0483 85.6485C14.2181 85.5897 14.3997 85.5726 14.5777 85.5987C14.8717 85.6846 15.1367 85.8489 15.3443 86.0737C15.552 86.2986 15.6944 86.5756 15.7564 86.8751C15.8463 87.3039 15.6765 88.1516 15.0971 88.0918" fill="#49B3F7"/>
<path d="M314.953 61.0311C312.173 59.1589 308.002 59.6713 306.512 62.923C306.434 63.1192 306.434 63.3377 306.512 63.5339C305.854 64.4798 305.434 65.5684 305.287 66.7084C305.14 67.8485 305.271 69.0069 305.668 70.0866C306.228 71.3489 307.181 72.3996 308.388 73.0842C309.595 73.7689 310.991 74.0514 312.371 73.8902C313.771 73.6769 315.072 73.0445 316.099 72.0778C317.127 71.111 317.832 69.856 318.122 68.4805C318.375 67.0719 318.215 65.6206 317.66 64.2998C317.106 62.9789 316.18 61.8443 314.993 61.0311H314.953ZM315.132 70.7567C314.677 71.2338 314.129 71.6138 313.521 71.8736C312.914 72.1333 312.259 72.2673 311.597 72.2673C310.935 72.2673 310.28 72.1333 309.672 71.8736C309.064 71.6138 308.516 71.2338 308.061 70.7567C305.767 68.3327 307.118 64.9331 309.054 62.7752C309.135 62.6884 309.195 62.5853 309.231 62.4729C309.267 62.3606 309.278 62.2418 309.263 62.1248C311.031 60.9719 313.672 61.5927 315.162 63.2974C316.083 64.32 316.587 65.6457 316.578 67.0168C316.569 68.388 316.047 69.7069 315.112 70.7173" fill="#49B3F7"/>
<path d="M329.159 75.1015C328.689 74.6436 328.112 74.3043 327.478 74.1127C326.845 73.9211 326.174 73.883 325.522 74.0015C324.635 74.2513 323.835 74.7346 323.208 75.3988C323.117 75.3418 323.016 75.3034 322.909 75.2859C322.803 75.2685 322.694 75.2724 322.589 75.2974C322.484 75.3224 322.386 75.368 322.299 75.4315C322.213 75.4949 322.141 75.5748 322.087 75.6664C321.357 76.8095 321.087 78.1774 321.328 79.5049C321.569 80.8324 322.304 82.0249 323.39 82.8511C324.391 83.6365 325.662 84.0139 326.939 83.9051C328.217 83.7962 329.402 83.2095 330.25 82.2664C332.049 80.0367 331.261 76.8556 329.159 75.1015ZM328.927 81.2655C328.322 81.8929 327.49 82.2614 326.611 82.2911C325.731 82.3208 324.875 82.0093 324.229 81.4241C323.699 80.9833 323.305 80.4073 323.089 79.7601C322.873 79.1129 322.845 78.4197 323.006 77.7574C323.104 77.7477 323.199 77.719 323.286 77.6731C323.373 77.6272 323.449 77.5649 323.511 77.4898C324.734 76.0925 326.209 74.7844 327.987 76.261C329.422 77.4502 330.23 79.6799 328.927 81.2655Z" fill="#49B3F7"/>
<path d="M314.339 82.0469C313.868 81.4371 313.236 80.97 312.514 80.6981C311.792 80.4261 311.009 80.3599 310.251 80.5069C310.196 80.3473 310.095 80.2077 309.96 80.106C309.826 80.0042 309.664 79.9449 309.495 79.9357C306.235 79.7215 305.652 83.8624 306.715 86.1368C306.97 86.729 307.348 87.261 307.822 87.6983C308.297 88.1356 308.859 88.4684 309.471 88.6752C310.083 88.882 310.731 88.9581 311.375 88.8985C312.018 88.839 312.641 88.6451 313.205 88.3296C313.716 88.0116 314.156 87.5901 314.494 87.0923C314.832 86.5945 315.062 86.0315 315.169 85.4395C315.276 84.8475 315.257 84.2398 315.114 83.6554C314.971 83.0711 314.707 82.5232 314.339 82.0469ZM312.643 86.6671C312.324 86.9116 311.957 87.0854 311.565 87.1772C311.174 87.2689 310.768 87.2765 310.373 87.1993C309.979 87.1221 309.605 86.962 309.277 86.7295C308.95 86.4971 308.676 86.1977 308.473 85.8512C307.999 85.0009 307.805 84.0229 307.921 83.0566C308.069 83.1749 308.257 83.2332 308.446 83.22C308.635 83.2067 308.813 83.123 308.943 82.9853C309.184 82.7198 309.475 82.5054 309.8 82.3545C310.126 82.2037 310.478 82.1196 310.836 82.1073C311.195 82.0949 311.552 82.1545 311.887 82.2825C312.222 82.4106 312.527 82.6045 312.786 82.8527C313.036 83.1093 313.231 83.4146 313.358 83.7495C313.485 84.0845 313.542 84.442 313.525 84.7998C313.507 85.1576 313.417 85.508 313.258 85.8292C313.099 86.1505 312.876 86.4357 312.602 86.6671" fill="#49B3F7"/>
<path d="M255.14 606.373L253.163 608.44L251.691 609.946L213.156 584.424C213.156 584.424 214.5 582.608 216.239 580.309C219.361 576.195 223.768 570.534 224.045 571.016C224.47 571.749 255.189 606.373 255.189 606.373" fill="#864FF1"/>
<path d="M250.211 616.277C250.736 615.868 268.492 607.475 269.334 607.969C270.177 608.464 270.325 609.99 270.117 610.119C269.909 610.248 251.608 618.652 250.796 617.889C250.569 617.713 250.394 617.471 250.29 617.191C250.187 616.911 250.159 616.605 250.211 616.309" fill="#864FF1"/>
<g style="mix-blend-mode:multiply" opacity="0.36">
<g style="mix-blend-mode:multiply" opacity="0.36">
<g style="mix-blend-mode:multiply" opacity="0.36">
<path d="M253.506 608.041L252.021 609.531L213.156 584.281C213.156 584.281 214.512 582.484 216.265 580.21L253.506 608.041Z" fill="#2D7F75"/>
</g>
</g>
</g>
<path d="M274.204 619.362C273.952 620.113 245.923 631.537 245.54 630.897C245.54 630.897 244.694 629.589 244.019 628.249C243.343 626.91 242.9 625.743 243.384 625.48C244.391 624.942 271.16 613.751 272.047 613.944C272.491 614.035 273.055 615.192 273.539 616.43C273.954 617.352 274.181 618.349 274.204 619.362Z" fill="#864FF1"/>
<path d="M245.266 618.655C240.397 620.041 233.823 618.724 230.22 614.933C226.617 611.141 227.065 605.23 229.11 600.715C230.456 597.963 232.345 595.523 234.661 593.547C235.635 592.696 233.931 589.122 232.762 590.151C228.039 594.339 224.884 600.28 225.186 606.725C225.278 610.038 226.348 613.247 228.259 615.933C230.17 618.619 232.831 620.658 235.898 621.784C239.355 623.075 243.113 623.282 246.687 622.378C247.934 622.031 246.6 618.269 245.227 618.655" fill="#FFC652"/>
<path d="M244.182 609.765L255.562 597.958L257.192 599.468L245.822 610.945L244.182 609.765Z" fill="#FFC652"/>
<g style="mix-blend-mode:multiply" opacity="0.36">
<g style="mix-blend-mode:multiply" opacity="0.36">
<g style="mix-blend-mode:multiply" opacity="0.36">
<path d="M274.206 619.609C273.956 620.344 246.243 631.524 245.864 630.898C245.864 630.898 245.027 629.617 244.359 628.307L244.708 628.178C247.917 627.036 271.615 618.517 273.548 616.739C273.959 617.642 274.183 618.618 274.206 619.609Z" fill="#2D7F75"/>
</g>
</g>
</g>
<path d="M238.692 592.341C238.088 593.733 236.981 594.845 235.592 595.455C234.203 596.064 232.635 596.126 231.202 595.627C229.77 595.128 228.579 594.105 227.868 592.764C227.158 591.424 226.98 589.864 227.371 588.397C227.448 588.136 227.54 587.879 227.647 587.628C228.135 586.481 228.968 585.513 230.03 584.861C231.093 584.208 232.332 583.903 233.576 583.987C234.82 584.072 236.006 584.542 236.971 585.332C237.935 586.123 238.63 587.194 238.958 588.397C239.324 589.703 239.23 591.096 238.692 592.341Z" fill="#FFCD69"/>
<path d="M239.177 588.475C238.83 589.708 238.098 590.804 237.084 591.608C236.07 592.411 234.824 592.882 233.523 592.954C232.222 593.026 230.931 592.696 229.831 592.009C228.731 591.322 227.879 590.314 227.393 589.127C227.311 588.906 227.229 588.695 227.168 588.475C227.248 588.209 227.344 587.948 227.454 587.692C227.959 586.524 228.823 585.54 229.924 584.876C231.025 584.212 232.31 583.902 233.599 583.988C234.888 584.074 236.118 584.552 237.118 585.356C238.117 586.16 238.837 587.25 239.177 588.475Z" fill="#FFC652"/>
<path d="M250.733 625.533C249.722 625.938 248.614 626.035 247.548 625.811C246.483 625.587 245.508 625.052 244.747 624.274C243.986 623.497 243.473 622.511 243.273 621.442C243.073 620.374 243.196 619.27 243.625 618.27C244.054 617.271 244.77 616.421 245.683 615.829C246.596 615.236 247.664 614.927 248.753 614.941C249.842 614.955 250.902 615.291 251.8 615.907C252.697 616.523 253.391 617.39 253.794 618.4C253.856 618.544 253.909 618.691 253.952 618.842C254.351 620.157 254.242 621.574 253.646 622.812C253.05 624.051 252.01 625.022 250.733 625.533Z" fill="#FFCD69"/>
<path d="M253.187 618.933C252.874 620.05 252.245 621.033 251.39 621.749C250.534 622.464 249.493 622.876 248.411 622.927C247.329 622.977 246.259 622.665 245.348 622.033C244.438 621.4 243.733 620.479 243.33 619.396L243.18 618.933C243.495 617.817 244.124 616.834 244.98 616.12C245.837 615.406 246.878 614.995 247.96 614.946C249.042 614.896 250.112 615.209 251.021 615.843C251.931 616.476 252.635 617.398 253.038 618.481C253.096 618.628 253.146 618.779 253.187 618.933Z" fill="#FFC652"/>
<path d="M421.933 596.056C421.621 594.122 420.94 592.265 419.925 590.586C418.022 587.117 415.352 584.123 412.115 581.831C410.086 580.534 407.946 579.418 405.72 578.497C395.139 573.805 382.54 575.502 375.603 585.485C369.73 593.96 369.409 607.356 375.031 616.06C376.624 618.719 379.015 620.813 381.867 622.05C383.354 622.573 384.91 622.876 386.485 622.948C390.501 623.228 395.018 622.439 397.127 619.085C398.452 616.969 398.472 614.323 399.024 611.888C399.576 609.452 401.102 606.837 403.602 606.577C404.963 606.604 406.306 606.892 407.557 607.426C409.311 607.934 411.159 608.03 412.956 607.708C414.754 607.386 416.452 606.654 417.917 605.569C419.349 604.451 420.469 602.987 421.172 601.316C421.875 599.646 422.137 597.825 421.933 596.026" fill="#C6C6C6"/>
<path d="M401.461 593.707C402.257 593.998 403.122 594.074 403.96 593.927C404.799 593.781 405.58 593.417 406.22 592.876C406.883 592.306 407.387 591.586 407.687 590.782C407.987 589.977 408.073 589.113 407.938 588.268C407.817 587.627 407.579 587.012 407.233 586.452C407.073 586.073 406.884 585.706 406.668 585.354C406.225 584.587 405.562 583.958 404.758 583.544C403.954 583.129 403.042 582.945 402.133 583.014C401.763 583.079 401.403 583.193 401.066 583.353C400.574 583.416 400.099 583.569 399.668 583.804C399.551 583.88 399.47 583.995 399.44 584.127C399.41 584.259 399.434 584.397 399.508 584.512C399.147 584.911 398.843 585.352 398.601 585.826C397.182 588.648 398.323 592.588 401.535 593.707" fill="#FFC652"/>
<path d="M387.717 598.995C392.207 599.196 394.047 593.512 392.411 590.111C391.545 588.326 389.998 586.949 388.106 586.278C386.183 585.614 383.944 586.107 383.125 588.099C383.1 588.205 383.1 588.315 383.125 588.421C382.845 588.594 382.587 588.8 382.358 589.035C381.854 589.552 381.474 590.174 381.246 590.855C381.018 591.535 380.947 592.258 381.039 592.968C381.15 593.692 381.43 594.381 381.857 594.981C382.052 595.27 382.302 595.52 382.594 595.715C382.693 596.072 382.848 596.411 383.054 596.721C383.641 597.391 384.362 597.937 385.17 598.324C385.979 598.711 386.859 598.933 387.758 598.975" fill="#E76166"/>
<path d="M417.835 605.55C416.373 606.636 414.678 607.369 412.884 607.691C411.09 608.014 409.245 607.917 407.495 607.409C406.246 606.875 404.906 606.586 403.547 606.559C401.052 606.809 399.539 609.437 398.978 611.876C398.417 614.314 398.407 616.962 397.085 619.081C394.98 622.438 390.422 623.228 386.464 622.948C384.892 622.876 383.339 622.573 381.855 622.049C379.008 620.811 376.622 618.714 375.032 616.053C371.024 609.817 370.022 601.203 371.946 593.688C372.491 597.082 373.71 600.334 375.533 603.252C377.124 605.915 379.514 608.013 382.366 609.247C383.846 609.772 385.396 610.075 386.965 610.147C390.973 610.427 395.481 609.637 397.586 606.28C398.918 604.161 398.938 601.523 399.479 599.084C400.02 596.646 401.553 594.018 404.048 593.758C405.427 593.779 406.788 594.067 408.056 594.608C409.804 595.118 411.648 595.216 413.441 594.893C415.234 594.571 416.927 593.837 418.386 592.749C419.045 592.238 419.64 591.651 420.159 591C421.053 592.543 421.654 594.237 421.933 595.997C422.137 597.798 421.875 599.621 421.174 601.293C420.472 602.965 419.354 604.43 417.925 605.55" fill="#B7B7B7"/>
<path d="M385.257 616.995C386.76 617.049 388.38 616.659 389.16 615.107C389.612 614.665 389.892 614.047 389.941 613.381C390.058 612.564 390.001 611.727 389.775 610.939C389.542 610.153 389.16 609.431 388.655 608.823C388.15 608.215 387.534 607.733 386.848 607.411C386.125 607.11 385.356 606.971 384.585 607.005C383.814 607.038 383.057 607.243 382.359 607.607C380.904 608.301 379.255 609.419 379.031 611.33C378.611 614.955 382.583 616.919 385.237 616.995" fill="#864FF1"/>
<path d="M409.507 585.991C409.201 585.22 408.74 584.517 408.149 583.921C407.558 583.325 406.85 582.85 406.066 582.523C405.1 582.122 404.019 582.064 403.014 582.36C402.998 582.317 402.973 582.278 402.94 582.244C402.907 582.211 402.868 582.185 402.825 582.167C402.14 581.976 401.417 581.948 400.719 582.087C400.021 582.225 399.367 582.524 398.815 582.96C397.622 583.801 396.738 584.987 396.29 586.347C395.881 587.685 395.905 589.112 396.358 590.436C396.812 591.761 397.672 592.921 398.826 593.76C400.035 594.568 401.47 595 402.94 595C404.41 595 405.845 594.568 407.055 593.76C408.31 592.911 409.237 591.683 409.691 590.269C410.144 588.855 410.098 587.336 409.56 585.95L409.507 585.991ZM406.676 592.428C405.771 593.137 404.666 593.567 403.505 593.663C402.344 593.759 401.179 593.517 400.162 592.967C399.192 592.401 398.42 591.566 397.947 590.57C397.474 589.574 397.322 588.464 397.51 587.384C397.757 586.171 398.453 585.086 399.468 584.333C399.95 583.975 400.472 583.672 401.025 583.428C401.214 583.346 401.407 583.275 401.604 583.214L401.478 583.326C401.288 583.54 401.551 583.926 401.825 583.794C402.387 583.528 402.999 583.373 403.624 583.34C404.249 583.307 404.874 583.395 405.463 583.6C406.052 583.805 406.592 584.122 407.052 584.533C407.512 584.944 407.881 585.439 408.139 585.991C408.676 587.065 408.826 588.283 408.565 589.449C408.304 590.616 407.646 591.664 406.697 592.428" fill="white"/>
<path d="M392.587 596.028C393.122 595.407 393.519 594.686 393.754 593.909C393.989 593.132 394.056 592.317 393.953 591.513C393.678 589.951 393.05 588.467 392.115 587.168C391.66 586.551 391.071 586.038 390.389 585.667C389.708 585.296 388.95 585.075 388.171 585.021C387.395 584.949 386.613 585.063 385.891 585.35C385.645 585.47 385.408 585.607 385.183 585.76C382.441 586.169 380.305 588.956 380.048 591.533C379.873 592.973 380.178 594.429 380.917 595.688C381.657 596.946 382.792 597.941 384.156 598.525C385.656 599.092 387.308 599.153 388.848 598.699C390.387 598.244 391.726 597.3 392.649 596.018L392.587 596.028ZM381.599 592.442C381.59 591.203 382.03 590.001 382.841 589.046C383.803 588.074 384.951 587.294 386.22 586.749C386.328 586.699 386.415 586.614 386.467 586.509C386.852 586.434 387.244 586.394 387.637 586.389C388.686 586.378 389.697 586.769 390.451 587.478C391.288 588.445 391.891 589.581 392.218 590.804C392.453 591.409 392.545 592.058 392.489 592.703C392.432 593.348 392.227 593.972 391.889 594.53C391.286 595.647 390.317 596.537 389.137 597.059C387.956 597.582 386.63 597.708 385.368 597.416C384.267 597.095 383.304 596.434 382.624 595.533C381.944 594.632 381.584 593.54 381.599 592.422" fill="white"/>
<path d="M389.299 607.839C388.293 606.801 386.964 606.162 385.547 606.032C384.999 605.97 384.445 605.998 383.905 606.114C381.327 605.826 378.56 608.404 378.033 610.868C377.954 611.599 378.018 612.339 378.219 613.044C378.421 613.749 378.757 614.406 379.207 614.976C379.975 616.268 381.164 617.236 382.561 617.707C384.023 618.098 385.558 618.098 387.02 617.707C387.726 617.562 388.392 617.256 388.967 616.809C389.542 616.363 390.013 615.789 390.344 615.13C390.914 613.941 391.12 612.602 390.933 611.29C390.746 609.979 390.176 608.757 389.299 607.788V607.839ZM387.498 616.321C386.366 616.721 385.16 616.844 383.975 616.68C382.745 616.546 381.618 615.915 380.839 614.924C380.021 614.023 379.505 612.875 379.366 611.649C379.456 611.036 379.67 610.449 379.994 609.927C380.318 609.405 380.745 608.96 381.247 608.619C381.881 608.141 382.546 607.709 383.238 607.325C384.011 607.129 384.815 607.096 385.6 607.231C386.385 607.365 387.136 607.663 387.806 608.106C388.616 608.737 389.224 609.602 389.556 610.592C389.887 611.581 389.926 612.649 389.668 613.661C389.542 614.25 389.281 614.799 388.907 615.262C388.533 615.725 388.057 616.088 387.518 616.321" fill="white"/>
<path d="M422.797 577.273L421.974 576.879L420.299 578C418.14 577.54 416.093 576.615 414.288 575.283C413.721 574.689 413.295 573.962 413.044 573.162C412.278 571 412.173 568.646 411.647 566.414C411.12 564.182 409.991 561.909 408 561L411.426 561.364C412.383 561.465 413.408 561.576 414.393 561.727C415.826 561.925 417.23 562.305 418.576 562.859C419.726 563.295 420.774 563.984 421.652 564.881C422.53 565.778 423.217 566.862 423.668 568.061C424.5 570.717 423.601 574.616 422.806 577.283" fill="#FFC652"/>
<path d="M440.419 606.709C440.057 606.91 439.646 607.01 439.23 606.999C438.814 606.989 438.409 606.867 438.057 606.649C434.976 605.257 432.706 602.545 430.991 599.591C430.744 599.167 430.508 598.734 430.282 598.3C428.817 595.39 427.514 592.405 426.379 589.357C425.249 586.473 424.13 583.6 423 580.726L423.801 580.363L424.623 580C427.601 584.033 430.878 587.29 433.959 591.202C437.04 595.114 439.731 599.46 440.83 604.309C440.992 604.711 441.039 605.149 440.967 605.575C440.895 606.002 440.705 606.4 440.419 606.729" fill="#C6C6C6"/>
<path d="M440.426 606.709C440.068 606.91 439.661 607.01 439.25 606.999C438.839 606.989 438.438 606.867 438.091 606.649C435.046 605.257 432.802 602.545 431.106 599.591C431.586 598.836 431.817 597.951 431.766 597.06C431.735 594.362 431.008 591.717 429.655 589.377C428.152 586.745 426.355 584.265 424.792 581.664L424 580.363L424.812 580C427.756 584.033 430.995 587.29 434.04 591.202C437.086 595.114 439.746 599.46 440.832 604.309C440.992 604.711 441.039 605.149 440.967 605.575C440.896 606.002 440.709 606.4 440.426 606.729" fill="#B7B7B7"/>
<path d="M414.566 574.854C413.974 574.278 413.529 573.573 413.267 572.796C412.467 570.7 412.357 568.417 411.808 566.252C411.258 564.086 410.079 561.882 408 561L411.578 561.353C412.577 561.451 413.646 561.558 414.666 561.705C415.045 561.764 415.755 563.107 415.945 563.42C416.323 564.05 416.657 564.705 416.944 565.38C419.942 572.463 415.715 575.834 414.616 574.825" fill="#E76166"/>
<path d="M422.799 580.608C423.166 580.883 423.605 581.02 424.049 580.998C424.494 580.976 424.92 580.797 425.262 580.488C425.605 580.178 425.845 579.756 425.946 579.285C426.048 578.814 426.005 578.319 425.824 577.877C425.638 577.452 425.361 577.083 425.016 576.799C424.699 576.5 424.328 576.276 423.927 576.142C423.525 576.009 423.103 575.969 422.686 576.024C422.271 576.091 421.885 576.298 421.583 576.615C421.281 576.932 421.077 577.343 421 577.792C421.008 578.341 421.152 578.877 421.416 579.344C421.681 579.812 422.057 580.193 422.504 580.448C422.741 580.665 423.021 580.82 423.323 580.901C423.625 580.981 423.939 580.984 424.242 580.911L422.799 580.608Z" fill="#B7B7B7"/>
<path d="M136 614.365C123.085 622.309 110.14 629.052 97.2254 636.967L96.9292 637.106L94.9545 638C84.6462 620.989 75.3648 605.576 65.0565 588.565L64 586.638L95.3198 567.472L103.999 562.149L104.246 562C114.524 578.972 136 614.365 136 614.365Z" fill="#FFC652"/>
<path d="M66.5403 590.366C66.0469 589.545 64.7639 589.92 64.1224 590.315C63.2557 590.853 62.5941 591.678 62.2473 592.655C62.0469 593.131 61.9663 593.652 62.0128 594.168C62.0594 594.685 62.2316 595.181 62.5138 595.612C63.2631 596.443 64.3031 596.935 65.4054 596.979C67.922 597.202 70.0439 595.572 72.0473 594.255C72.5253 594.011 72.9454 593.662 73.2779 593.233C73.6104 592.805 73.8473 592.306 73.9717 591.774C74.1023 590.578 73.777 589.376 73.0638 588.421C72.3828 587.408 70.7742 588.421 71.4749 589.373C71.9776 589.962 72.2392 590.728 72.2052 591.51C72.0769 592.341 71.1097 592.766 70.5077 593.202C69.126 594.214 67.6457 595.349 65.889 595.43C65.208 595.43 64.1125 595.339 63.698 594.67C63.2835 594.002 63.698 593.06 64.1421 592.523C64.6195 591.964 65.2041 591.512 65.8594 591.196C66.0469 591.085 66.7476 590.7 66.5403 590.366Z" fill="#864FF1"/>
<path d="M70.5462 599.615C68.642 599.944 66.6116 601.349 67.0639 603.354C67.5584 605.533 70.1359 606.308 72.2716 605.892C73.4424 605.61 74.5476 605.134 75.5329 604.487C76.6341 603.898 77.582 603.095 78.3103 602.133C78.6305 601.724 78.8467 601.253 78.943 600.757C79.0393 600.26 79.0133 599.75 78.8669 599.263C78.7205 598.777 78.4574 598.327 78.0971 597.947C77.7367 597.567 77.2883 597.266 76.7849 597.067C75.6697 596.641 75.1226 598.375 76.2799 598.762C77.8264 599.276 76.9637 601.145 76.2062 601.891C75.1035 602.973 73.7314 603.79 72.2085 604.274C70.925 604.652 69.0523 604.516 68.621 603.063C68.1897 601.61 69.9045 600.971 70.9039 600.409C70.9989 600.354 71.0698 600.27 71.1039 600.172C71.1381 600.074 71.1332 599.968 71.0903 599.872C71.0474 599.777 70.9692 599.699 70.8696 599.652C70.77 599.605 70.6554 599.591 70.5462 599.615Z" fill="#864FF1"/>
<path d="M77.5469 609.323C77.0533 608.503 75.77 608.878 75.1284 609.323C74.2545 609.852 73.5903 610.679 73.2528 611.66C73.0487 612.134 72.966 612.653 73.0127 613.168C73.0593 613.684 73.2337 614.178 73.5194 614.605C73.8886 615.019 74.3345 615.354 74.8309 615.59C75.3274 615.827 75.8647 615.959 76.4117 615.981C78.9288 616.194 81.0512 614.565 83.0452 613.249C83.5254 613.008 83.9472 612.661 84.2801 612.232C84.6131 611.803 84.8488 611.304 84.9701 610.77C85.1045 609.576 84.7825 608.376 84.0718 607.421C83.3907 606.409 81.7816 607.421 82.4726 608.372C82.979 608.959 83.2443 609.724 83.213 610.507C83.0748 611.337 82.1173 611.772 81.5052 612.207C80.1233 613.219 78.6426 614.342 76.8953 614.423C76.2044 614.423 75.1185 614.342 74.7039 613.674C74.2893 613.006 74.7039 612.055 75.1481 611.519C75.6282 610.963 76.2123 610.513 76.8657 610.193C77.0533 610.082 77.7542 609.708 77.5469 609.363" fill="#864FF1"/>
<path d="M82.2417 617.618C80.5055 617.958 78.6439 619.356 79.0586 621.365C79.512 623.549 81.8655 624.278 83.8235 623.909C84.8977 623.628 85.9114 623.151 86.8137 622.501C87.8249 621.917 88.6946 621.115 89.3601 620.152C89.6557 619.742 89.8559 619.27 89.9459 618.772C90.0359 618.273 90.0134 617.761 89.88 617.272C89.7466 616.784 89.5058 616.332 89.1754 615.95C88.845 615.567 88.4334 615.265 87.9711 615.065C86.9487 614.647 86.4375 616.375 87.5081 616.763C88.926 617.278 88.1255 619.152 87.431 619.909C86.4182 620.991 85.1608 621.81 83.7657 622.297C82.5985 622.666 80.872 622.54 80.4862 621.084C80.1004 619.627 81.6533 618.977 82.5793 618.414C82.6692 618.36 82.7365 618.274 82.7689 618.174C82.8012 618.074 82.7963 617.965 82.7552 617.868C82.714 617.771 82.6393 617.692 82.5449 617.646C82.4505 617.6 82.3428 617.59 82.2417 617.618Z" fill="#864FF1"/>
<path d="M87.5469 627.608C85.6423 627.947 83.6115 629.353 84.064 631.351C84.5585 633.533 87.126 634.309 89.2621 633.892C90.4339 633.612 91.5398 633.135 92.5241 632.486C93.6272 631.903 94.576 631.101 95.302 630.139C95.6245 629.73 95.8429 629.26 95.941 628.763C96.0392 628.265 96.0146 627.754 95.869 627.267C95.7234 626.78 95.4607 626.329 95.1002 625.948C94.7397 625.567 94.2908 625.266 93.7868 625.067C92.6714 624.641 92.1137 626.367 93.2817 626.755C94.8285 627.269 93.9551 629.14 93.1975 629.897C92.0927 630.977 90.7209 631.795 89.199 632.282C87.9257 632.651 86.0422 632.524 85.6213 631.07C85.2004 629.615 86.8945 628.966 87.9047 628.403C87.9997 628.348 88.0706 628.264 88.1047 628.166C88.1389 628.068 88.134 627.961 88.0911 627.866C88.0482 627.771 87.97 627.692 87.8703 627.645C87.7707 627.598 87.6561 627.585 87.5469 627.608Z" fill="#864FF1"/>
<path d="M93.516 626.176C93.3526 626.176 93.1783 625.946 93.0257 625.873C92.8732 625.8 92.4265 625.737 92.1541 625.612C91.8533 625.467 91.6226 625.217 91.5108 624.913C91.399 624.609 91.4148 624.275 91.5548 623.982C92.3938 622.519 93.7339 624.149 94.5184 624.703C94.6819 624.828 95.0305 624.776 94.9979 624.515C94.9653 623.998 94.7828 623.5 94.4709 623.077C94.159 622.655 93.7302 622.324 93.2328 622.122C92.7595 621.971 92.2496 621.96 91.7696 622.09C91.2896 622.221 90.8616 622.487 90.5415 622.854C89.1142 624.483 90.7049 627.607 93.0257 626.897C93.1164 626.872 93.1991 626.825 93.2658 626.761C93.3325 626.697 93.3811 626.618 93.4071 626.531C93.4113 626.482 93.4286 626.436 93.4572 626.395C93.4858 626.355 93.5249 626.323 93.5705 626.301C93.5814 626.291 93.5888 626.278 93.5919 626.263C93.5949 626.249 93.5934 626.234 93.5875 626.221C93.5817 626.207 93.5717 626.196 93.559 626.188C93.5462 626.18 93.5313 626.176 93.516 626.176Z" fill="#864FF1"/>
<path d="M87.9314 616.063C87.2417 615.799 85.8724 615.781 86.2322 614.715C86.592 613.649 88.3112 613.968 88.741 614.906C88.741 614.988 88.9509 615.025 88.9709 614.906C89.0489 614.52 88.9689 614.122 88.746 613.786C88.5231 613.45 88.1728 613.201 87.7615 613.085C87.2869 612.952 86.7761 612.976 86.319 613.152C85.8619 613.329 85.4878 613.647 85.2627 614.05C85.032 614.435 84.9499 614.88 85.0297 615.313C85.1094 615.745 85.3463 616.141 85.7024 616.436C86.3421 616.974 87.6215 617.347 88.1213 616.5C88.1442 616.463 88.1574 616.421 88.1599 616.378C88.1625 616.335 88.1543 616.293 88.136 616.253C88.1177 616.214 88.0898 616.178 88.0543 616.15C88.0188 616.122 87.9768 616.102 87.9314 616.09" fill="#864FF1"/>
<path d="M82.8933 607.64C82.1276 607.291 80.8516 606.633 81.0704 605.66C81.135 605.432 81.2917 605.236 81.5076 605.113C81.7234 604.991 81.9816 604.951 82.2279 605.003C82.7182 605.161 83.1425 605.459 83.4401 605.857C83.6771 606.13 84.0417 605.857 83.9961 605.558C83.9168 605.179 83.7176 604.831 83.4245 604.559C83.1314 604.287 82.7578 604.103 82.3522 604.033C81.9466 603.962 81.5276 604.007 81.1496 604.162C80.7715 604.316 80.4518 604.574 80.2318 604.901C80.048 605.245 79.9711 605.631 80.0097 606.014C80.0484 606.397 80.2012 606.763 80.4506 607.069C80.7172 607.397 81.0714 607.655 81.4777 607.815C81.884 607.976 82.3281 608.033 82.7657 607.982C82.9571 607.982 83.0664 607.709 82.8659 607.615" fill="#864FF1"/>
<path d="M76.0181 597.672C75.5357 597.494 74.9527 597.609 74.5809 597.18C74.4776 597.056 74.4004 596.911 74.3543 596.754C74.3081 596.598 74.2941 596.432 74.313 596.27C74.332 596.107 74.3835 595.95 74.4643 595.809C74.545 595.668 74.6532 595.547 74.7819 595.452C75.8774 594.635 76.8925 595.745 77.5861 596.552C77.7268 596.719 77.9881 596.552 77.9981 596.363C78.0886 593.965 74.8522 593.222 73.5155 594.929C73.1813 595.378 73 595.931 73 596.499C73 597.068 73.1813 597.62 73.5155 598.07C73.8102 598.529 74.2671 598.848 74.7866 598.958C75.3062 599.068 75.8463 598.96 76.2895 598.656C76.3552 598.583 76.4018 598.494 76.425 598.397C76.4482 598.3 76.4472 598.198 76.422 598.102C76.3968 598.005 76.3483 597.917 76.2811 597.845C76.2139 597.774 76.1303 597.721 76.0382 597.693" fill="#864FF1"/>
<path d="M72.1308 589.218C71.7455 588.542 69.6904 588.022 70.4611 586.931C70.797 586.443 71.7554 585.819 72.3383 586.09C72.6708 586.352 72.9304 586.704 73.0902 587.108C73.25 587.511 73.3043 587.953 73.2473 588.386C73.2342 588.437 73.2409 588.492 73.2659 588.537C73.2909 588.583 73.3322 588.617 73.3807 588.63C73.4292 588.644 73.4809 588.637 73.5244 588.611C73.5679 588.584 73.5998 588.541 73.6129 588.49C73.9262 587.948 74.0551 587.311 73.9784 586.682C73.8268 586.157 73.5096 585.703 73.0793 585.393C72.5879 585.081 72.0115 584.949 71.4409 585.018C70.8703 585.088 70.3379 585.355 69.9275 585.778C69.7035 585.906 69.5066 586.081 69.3487 586.292C69.1907 586.503 69.0751 586.745 69.0087 587.004C68.9594 587.608 69.121 588.21 69.4632 588.698C69.9572 589.477 71.212 590.485 72.0617 589.737C72.1246 589.668 72.1652 589.579 72.1776 589.484C72.19 589.389 72.1737 589.292 72.1308 589.207" fill="#864FF1"/>
<g style="mix-blend-mode:multiply">
<g style="mix-blend-mode:multiply">
<g style="mix-blend-mode:multiply">
<path d="M136.114 614.269C123.169 622.247 110.195 629.018 97.2512 636.966L96.9544 637.106C98.8187 635.505 100.602 633.811 102.298 632.03C104.593 629.624 106.587 626.945 108.236 624.052C110.923 619.64 112.38 614.579 112.452 609.403C112.452 603.29 110.265 597.346 108.295 591.652C107.184 588.579 105.831 585.602 104.248 582.747C102.635 579.755 100.745 576.933 99.0721 573.981C98.231 572.505 97.3997 570.989 96.608 569.513C96.222 568.775 95.7371 567.978 95.3809 567.16L104.08 561.815L104.327 561.665C114.629 578.708 136.153 614.249 136.153 614.249" fill="#FFC652"/>
</g>
</g>
</g>
<path d="M129.793 620.96L115.77 598.251C111.103 590.685 106.596 583.01 101.748 575.592L97.6617 569.355C96.9506 568.272 96.2295 567.198 95.4883 566.134C95.1277 565.622 94.7671 565.149 94.4166 564.607C94.2401 564.346 94.0353 564.105 93.8056 563.888L93.6854 563.72C93.5747 563.562 93.4224 563.436 93.2447 563.356L93.0644 563.198C92.976 563.119 92.87 563.061 92.7548 563.029C92.6397 562.997 92.5185 562.991 92.4009 563.013C92.2833 563.035 92.1726 563.084 92.0774 563.155C91.9822 563.227 91.9052 563.319 91.8525 563.425C91.5626 563.467 91.2857 563.571 91.0412 563.73C90.4904 564.035 89.9195 564.291 89.3586 564.567C89.1952 564.668 89.0765 564.825 89.0263 565.008C88.9761 565.19 88.9982 565.385 89.0882 565.553C89.4988 566.232 89.9094 566.912 90.3802 567.523C90.5938 567.872 90.8385 568.202 91.1114 568.508C91.3197 568.692 91.5563 568.841 91.8125 568.951C91.8557 568.975 91.9042 568.987 91.9536 568.987C92.0029 568.987 92.0515 568.975 92.0946 568.951C92.1377 568.927 92.1739 568.893 92.1999 568.852C92.2259 568.811 92.2408 568.764 92.2431 568.715C92.2457 568.446 92.212 568.178 92.143 567.917C91.9779 567.555 91.7906 567.203 91.5821 566.863C91.3417 566.41 91.0813 565.966 90.8209 565.523C91.2698 565.334 91.6882 565.082 92.0629 564.774C92.1298 564.99 92.2135 565.201 92.3133 565.405C92.5737 565.907 92.8541 566.39 93.1346 566.902C93.6754 567.887 94.2163 568.873 94.7872 569.858L98.0824 575.473C100.326 579.316 102.636 583.115 105.013 586.872C109.771 594.389 114.458 601.956 119.156 609.532L127.168 622.438L127.249 622.546C126.968 622.733 126.247 623.236 126.017 623.167C125.786 623.098 125.496 622.457 125.386 622.28C125.108 621.822 124.857 621.348 124.634 620.861C124.264 620.054 122.842 620.635 123.162 621.472C123.603 622.605 124.294 624.763 125.706 624.999C126.455 625.014 127.191 624.808 127.819 624.408C128.175 624.279 128.496 624.071 128.759 623.802C129.021 623.532 129.217 623.207 129.332 622.851C129.491 622.757 129.629 622.632 129.738 622.483C129.847 622.335 129.925 622.167 129.966 621.988C130.007 621.81 130.011 621.625 129.978 621.445C129.945 621.265 129.875 621.093 129.773 620.94" fill="#864FF1"/>
<path d="M107.03 560.593C108.225 563.278 109.58 565.885 111.087 568.398C112.54 570.997 114.072 573.555 115.564 576.124C118.49 581.231 121.582 586.297 124.674 591.314C126.43 594.173 128.273 596.952 130.097 599.762C130.164 599.874 130.272 599.954 130.396 599.985C130.52 600.017 130.651 599.997 130.761 599.93C130.871 599.863 130.951 599.754 130.984 599.627C131.016 599.5 130.999 599.364 130.936 599.25C125.308 588.796 119.232 578.602 113.126 568.449C111.473 565.549 109.629 562.77 107.605 560.131C107.312 559.77 106.883 560.231 107.03 560.593Z" fill="#C6C6C6"/>
<path d="M101.092 638C104.597 636.424 107.97 634.541 111.174 632.369C114.525 630.272 117.77 627.994 120.896 625.541C120.949 625.495 120.984 625.43 120.996 625.359C121.007 625.287 120.995 625.214 120.96 625.151C120.925 625.089 120.87 625.041 120.805 625.017C120.74 624.993 120.669 624.994 120.604 625.02C117.11 626.825 113.706 628.817 110.406 630.989C107.1 632.984 103.961 635.272 101.024 637.826C100.965 637.826 101.024 638 101.101 637.969" fill="#C6C6C6"/>
<path d="M96.0083 576.41C101.59 587.02 107.69 597.338 114.285 607.323C116.12 610.188 117.973 613.052 119.779 615.946C119.856 616.075 120.06 615.946 119.983 615.827C117.003 610.634 114.159 605.341 111.247 600.138C108.335 594.934 105.239 589.78 102.094 584.686C100.298 581.772 98.4349 578.947 96.4936 576.132C96.4758 576.102 96.4522 576.075 96.4242 576.054C96.3963 576.033 96.3645 576.017 96.3307 576.008C96.2969 576 96.2618 575.998 96.2273 576.003C96.1928 576.008 96.1596 576.02 96.1296 576.038C96.0997 576.056 96.0735 576.081 96.0527 576.109C96.0318 576.138 96.0167 576.17 96.0081 576.205C95.9996 576.239 95.9977 576.275 96.0028 576.31C96.0078 576.345 96.0196 576.379 96.0374 576.41" fill="white"/>
<path d="M61.0654 849.92C59.657 850.828 57.8989 849.422 56.92 848.474C55.5992 847.267 54.6762 845.689 54.273 843.947C54.0858 842.952 54.1544 841.927 54.4723 840.966C54.7903 840.005 55.3472 839.14 56.0909 838.452C58.0288 836.637 61.0854 835.57 63.6925 836.458L61.0654 849.92Z" fill="#C6C6C6"/>
<path d="M82.0537 844.067C81.2546 842.072 79.8861 839.958 77.8184 839.14C77.6531 839.061 77.4723 839.019 77.2888 839.018C77.1054 839.016 76.9239 839.056 76.7576 839.133C76.5913 839.21 76.4443 839.324 76.3272 839.465C76.21 839.605 76.1257 839.771 76.0803 839.948C75.3611 842.321 74.7418 844.735 73.8727 847.058C72.9465 849.322 71.9029 851.535 70.7462 853.69C70.2867 854.627 69.6374 855.804 70.1569 856.801C70.157 856.869 70.1769 856.935 70.2142 856.992C70.2514 857.049 70.3044 857.093 70.3666 857.12C71.1658 858.118 72.744 857.858 73.8228 857.649C74.4686 857.537 75.0882 857.307 75.6508 856.971C76.6014 856.754 77.5209 856.419 78.3877 855.974C80.4136 854.954 81.9667 853.193 82.7229 851.057C83.3069 848.723 83.0706 846.258 82.0537 844.077" fill="#FFC652"/>
<path d="M84.9707 832.349L71.8553 866.734C66.4313 864.988 61.0373 859.494 59.6089 853.989C58.7393 850.575 58.8083 846.989 59.8086 843.611C60.8089 840.232 62.7034 837.186 65.2926 834.792C67.6589 832.757 70.5181 831.377 73.5852 830.789C76.6523 830.201 79.8202 830.426 82.7732 831.441C83.5284 831.686 84.2632 831.989 84.9707 832.349Z" fill="#C6C6C6"/>
<path d="M84.8995 832.479L71.824 866.774C66.4 865.029 61.006 859.534 59.5776 854.029C58.7081 850.615 58.777 847.029 59.7773 843.651C60.7776 840.272 62.6721 837.226 65.2613 834.832C67.1717 833.172 69.4214 831.947 71.854 831.242C71.0349 833.187 69.8562 834.972 68.9472 836.897C68.0414 838.842 67.3449 840.878 66.8695 842.97C65.9988 846.67 65.7925 850.496 66.2602 854.268C66.42 855.475 66.5898 858.676 68.4977 858.188C70.4056 857.699 71.5743 855.545 72.4933 854.109C74.7708 850.389 76.0993 846.131 77.6076 842.082C78.4367 839.838 79.2258 837.575 80.0949 835.351C80.5698 833.815 81.5083 832.464 82.7819 831.482C83.532 831.758 84.26 832.092 84.9595 832.479" fill="#AAAAAA"/>
<path d="M32.8962 881.971C37.2913 888.952 42.7553 895.254 47.7997 901.756C52.8441 908.258 57.9384 914.82 62.7831 921.552C63.4223 922.439 64.8608 921.502 64.2115 920.624C59.2703 913.903 54.2259 907.254 49.0783 900.679C44.0039 894.217 39.0893 887.486 33.2858 881.652C33.096 881.463 32.7963 881.732 32.9262 881.951" fill="#999999"/>
<path d="M36.8726 880.834C39.0002 884.195 41.5874 887.276 43.9447 890.487C46.3021 893.699 48.7095 897.139 51.0768 900.46C53.4442 903.781 55.8615 907.082 58.4587 910.243C59.7173 911.778 61.0058 913.294 62.3343 914.76C63.5969 916.283 65.0091 917.676 66.5497 918.919C67.2789 919.447 68.5475 918.639 67.8782 917.802C66.6695 916.316 65.1912 915.02 63.8826 913.593C62.5741 912.167 61.1956 910.452 59.8871 908.827C57.3399 905.556 54.8926 902.175 52.4953 898.854C50.0979 895.534 47.6506 892.103 45.0735 888.882C42.7061 885.89 40.2289 882.839 37.0824 880.645C36.9225 880.525 36.7427 880.774 36.8326 880.924" fill="#999999"/>
<path d="M32.0294 871.092C32.9484 866.105 33.6476 861.039 34.6565 856.043C35.1626 853.524 35.6786 851.001 36.2047 848.474L36.9539 844.924C37.2739 843.734 37.4714 842.514 37.5433 841.284C37.5292 841.128 37.4654 840.98 37.3612 840.862C37.257 840.744 37.1179 840.663 36.9641 840.629C36.8102 840.596 36.6498 840.612 36.506 840.676C36.3623 840.74 36.2427 840.848 36.1648 840.985C35.7598 842.072 35.4685 843.198 35.2958 844.346C35.0261 845.592 34.7563 846.839 34.4966 848.085C33.9472 850.678 33.4078 853.271 32.8984 855.864C31.7751 860.838 30.9875 865.882 30.541 870.962C30.541 871.81 31.8795 871.959 32.0294 871.092Z" fill="#999999"/>
<path d="M34.4858 871.929C35.3649 871.481 35.4248 870.074 35.6346 869.227C35.9842 867.91 36.2938 866.594 36.5735 865.238C37.1429 862.515 37.6723 859.783 38.1917 857.041C39.1906 851.656 40.0597 846.231 40.9686 840.816C41.1085 839.988 39.8599 839.689 39.6901 840.526C38.5813 845.891 37.6024 851.297 36.6934 856.692C36.2139 859.444 35.6945 862.176 35.1851 864.919C34.9353 866.185 34.7056 867.462 34.4759 868.748C34.316 869.646 33.7067 871.052 34.316 871.86C34.3263 871.877 34.3399 871.892 34.3561 871.904C34.3723 871.916 34.3907 871.924 34.4103 871.929C34.4299 871.934 34.4502 871.934 34.47 871.931C34.4899 871.928 34.5088 871.92 34.5258 871.909" fill="#999999"/>
<path d="M44.6449 836.707C45.9948 837.612 47.4067 838.422 48.8702 839.13C50.3685 839.988 51.8669 840.845 53.3053 841.783C55.1233 842.97 56.7415 839.699 54.8336 838.652C53.3005 837.781 51.7084 837.017 50.0689 836.368C48.5342 835.654 46.8954 835.19 45.2142 834.992C45.0255 835.014 44.8471 835.089 44.6998 835.209C44.5525 835.329 44.4425 835.488 44.3827 835.668C44.323 835.848 44.3159 836.042 44.3623 836.226C44.4087 836.41 44.5068 836.577 44.6449 836.707Z" fill="#AAAAAA"/>
<path d="M95.3988 832.1C94.5453 832.493 93.7571 833.014 93.0614 833.645C92.2922 834.224 91.603 834.922 90.8738 835.56C90.1446 836.198 89.4653 836.807 88.7661 837.455C88.0131 838.076 87.3418 838.79 86.7683 839.579C86.7324 839.655 86.7192 839.74 86.7305 839.824C86.7417 839.908 86.7768 839.986 86.8316 840.05C86.8864 840.114 86.9586 840.162 87.0395 840.186C87.1204 840.21 87.2066 840.211 87.2878 840.187C88.1176 839.766 88.8897 839.24 89.5852 838.622C90.3643 838.003 91.1335 837.375 91.9026 836.747C92.6718 836.119 93.381 835.6 94.0403 834.952C94.8122 834.347 95.486 833.627 96.038 832.818C96.0797 832.728 96.0948 832.628 96.0815 832.53C96.0683 832.432 96.0272 832.34 95.9631 832.264C95.8991 832.189 95.8147 832.133 95.72 832.104C95.6253 832.075 95.5243 832.073 95.4287 832.1" fill="#FFC652"/>
<path d="M98.5941 839.868C97.2589 840.138 95.9746 840.616 94.7883 841.284C93.4997 841.843 92.1812 842.331 90.7927 842.77C90.6099 842.828 90.4578 842.957 90.3697 843.127C90.2817 843.297 90.265 843.495 90.3232 843.678C90.3815 843.86 90.51 844.012 90.6805 844.1C90.851 844.188 91.0494 844.205 91.2322 844.146C92.6401 843.786 94.0272 843.35 95.3876 842.84C96.731 842.47 97.967 841.786 98.9936 840.845C99.0757 840.761 99.1305 840.654 99.1509 840.538C99.1713 840.422 99.1563 840.302 99.1078 840.195C99.0594 840.087 98.9798 839.997 98.8793 839.935C98.7788 839.873 98.662 839.843 98.5441 839.848" fill="#FFC652"/>
<path d="M97.8957 853.34C95.6482 851.595 92.6815 850.747 89.9545 850.109C89.1454 849.92 88.9057 851.106 89.6748 851.346C92.28 852.329 94.9501 853.132 97.666 853.749C97.8857 853.749 98.0855 853.49 97.8757 853.34" fill="#FFC652"/>
<path d="M89.2554 863.034C88.8337 862.258 88.3493 861.518 87.807 860.82C87.3175 860.182 86.8081 859.334 85.9291 859.155C85.8263 859.134 85.7201 859.136 85.6184 859.162C85.5167 859.187 85.422 859.235 85.3414 859.302C85.2609 859.369 85.1964 859.454 85.1529 859.549C85.1094 859.644 85.0879 859.748 85.09 859.853C85.2135 860.624 85.5608 861.341 86.0889 861.917C86.5584 862.605 86.9779 863.333 87.4374 864.031C87.8969 864.729 88.2565 865.378 88.666 866.026C89.0714 866.794 89.5183 867.54 90.0045 868.26C90.3142 868.668 91.0634 868.519 91.0034 867.94C90.7336 866.198 90.1263 864.525 89.2154 863.014" fill="#FFC652"/>
<path d="M77.457 863.802C77.457 865.387 77.457 866.963 77.6468 868.549C77.8366 870.134 78.2462 871.69 78.386 873.285C78.386 873.357 78.4144 873.425 78.465 873.476C78.5156 873.526 78.5842 873.555 78.6557 873.555C78.7272 873.555 78.7958 873.526 78.8464 873.476C78.897 873.425 78.9254 873.357 78.9254 873.285C78.9254 871.69 79.255 870.104 79.2451 868.509C79.2103 866.919 79.0702 865.333 78.8255 863.762C78.7992 863.595 78.7121 863.443 78.581 863.336C78.4498 863.229 78.2838 863.174 78.1145 863.181C77.9452 863.189 77.7846 863.258 77.6634 863.376C77.5421 863.494 77.4686 863.653 77.457 863.822" fill="#FFC652"/>
<path d="M34.0973 840.926C32.9317 840.304 32.022 839.294 31.5271 838.07C31.0323 836.847 30.9839 835.489 31.3903 834.234C31.8514 832.999 32.6118 831.897 33.6036 831.027C34.5954 830.157 35.7878 829.546 37.074 829.248C37.7253 829.074 38.3979 828.994 39.0718 829.009C40.0557 829.078 41.0058 829.396 41.8337 829.931C42.6616 830.467 43.3403 831.202 43.8066 832.07C44.2996 833.043 44.5669 834.115 44.5886 835.206C44.6104 836.296 44.3861 837.378 43.9323 838.37C43.4786 839.362 42.807 840.24 41.9673 840.938C41.1277 841.635 40.1415 842.136 39.0818 842.401C37.9035 842.642 36.6791 842.507 35.582 842.015C34.485 841.523 33.5707 840.699 32.9686 839.659L34.0973 840.926Z" fill="#C6C6C6"/>
<path d="M40.7689 835.221C40.6379 834.88 40.4321 834.574 40.1667 834.323C39.9013 834.072 39.5831 833.884 39.2354 833.772C38.8876 833.66 38.5192 833.627 38.1571 833.676C37.7951 833.725 37.4485 833.854 37.143 834.054C36.8581 834.239 36.6234 834.492 36.4596 834.789C36.2958 835.087 36.208 835.42 36.204 835.759C35.5747 837.285 37.3627 838.681 38.8011 838.522C39.1686 838.473 39.5203 838.342 39.8304 838.139C40.1404 837.936 40.4009 837.666 40.5927 837.349C40.7844 837.033 40.9025 836.677 40.9382 836.309C40.9738 835.94 40.9263 835.569 40.7989 835.221H40.7689ZM38.1319 836.158C38.1319 836.158 38.1319 836.158 38.1319 836.108V836.158Z" fill="#AAAAAA"/>
<path d="M28.3228 883.058C25.6457 881.852 24.4271 878.391 25.3261 875.599C25.8378 874.218 26.6854 872.985 27.7926 872.012C28.8998 871.039 30.2319 870.356 31.6691 870.025C32.3975 869.825 33.1515 869.735 33.9066 869.755C35.0017 869.832 36.0597 870.183 36.982 870.778C37.9042 871.373 38.6606 872.191 39.1807 873.156C39.7298 874.242 40.0275 875.437 40.0517 876.653C40.076 877.869 39.8262 879.075 39.3208 880.182C38.8154 881.288 38.0674 882.268 37.132 883.047C36.1966 883.826 35.0977 884.386 33.9166 884.684C32.6018 884.952 31.2358 884.799 30.0129 884.248C28.7899 883.697 27.7721 882.774 27.1041 881.612L28.3228 883.058Z" fill="#C6C6C6"/>
<path d="M35.7648 876.706C35.6195 876.332 35.3927 875.994 35.1008 875.718C34.8089 875.441 34.4592 875.233 34.0769 875.108C33.6946 874.983 33.2893 874.945 32.8902 874.995C32.4911 875.046 32.1083 875.184 31.7692 875.4C31.4597 875.609 31.2066 875.892 31.0324 876.222C30.8582 876.553 30.7682 876.921 30.7703 877.295C30.0611 879 32.0589 880.546 33.6571 880.376C34.0633 880.318 34.4514 880.17 34.793 879.943C35.1347 879.716 35.4212 879.416 35.6318 879.064C35.8424 878.712 35.9716 878.318 36.0102 877.91C36.0488 877.502 35.9956 877.091 35.8547 876.706H35.7648ZM32.858 877.703C32.8533 877.687 32.8533 877.67 32.858 877.654V877.703Z" fill="#AAAAAA"/>
<path d="M53.085 925.331C54.4258 925.199 55.7466 924.911 57.0207 924.474C58.3692 924.105 59.7077 923.716 61.0162 923.327C63.7132 922.569 66.3803 921.711 69.0074 920.894L76.8087 918.5L80.8043 917.264C82.2313 916.951 83.6022 916.423 84.8698 915.698C85.1382 915.516 85.3401 915.252 85.4453 914.945C85.5504 914.639 85.553 914.307 85.4528 913.999C85.3526 913.69 85.1549 913.423 84.8894 913.237C84.6239 913.051 84.3051 912.955 83.9808 912.966C82.6073 913.102 81.2613 913.438 79.9852 913.963L75.9896 915.269L67.9985 917.872C65.4113 918.72 62.8142 919.527 60.2471 920.425L56.2515 921.811C54.8882 922.21 53.5746 922.762 52.3359 923.456C52.1137 923.558 51.9366 923.738 51.8383 923.962C51.7399 924.185 51.7271 924.437 51.8022 924.669C51.8773 924.901 52.0351 925.098 52.2458 925.222C52.4564 925.346 52.7053 925.388 52.9452 925.341" fill="#AAAAAA"/>
<path d="M53.2142 924.374C53.104 923.415 52.8339 922.481 52.4151 921.611C52.2053 922.04 51.9956 922.459 51.7758 922.878C57.02 921.412 62.2542 919.886 67.4584 918.281L75.03 915.917L79.0256 914.671C80.3022 914.311 81.6161 914.101 82.9412 914.042C83.2481 914.022 83.5373 913.892 83.7568 913.677C83.9763 913.462 84.1116 913.176 84.1381 912.87C84.1646 912.564 84.0807 912.259 83.9015 912.009C83.7224 911.76 83.4597 911.582 83.161 911.509C80.7237 910.801 77.8169 912.058 75.5195 912.806L67.3086 915.458C61.9046 917.204 56.5405 919.058 51.1965 920.973C51.0699 921.013 50.9524 921.077 50.851 921.162C50.7496 921.248 50.6662 921.353 50.6058 921.47C50.5453 921.588 50.509 921.717 50.499 921.849C50.4889 921.981 50.5053 922.114 50.5472 922.24C50.9367 923.287 51.4961 924.593 52.7048 924.832C52.7722 924.846 52.8417 924.844 52.9083 924.827C52.9749 924.81 53.0368 924.778 53.0896 924.734C53.1423 924.69 53.1844 924.635 53.2129 924.573C53.2414 924.51 53.2555 924.442 53.2542 924.374" fill="#AAAAAA"/>
<path d="M71.5136 714.073C71.5635 715.913 71.0513 717.725 70.0453 719.268C69.3388 720.346 68.4131 721.263 67.3283 721.961L66.3294 722.629C65.0708 722.18 43.9842 710.034 33.0963 703.891C30.3393 702.325 28.2317 701.148 27.2727 700.65L27.043 700.54L29.4004 697.11L29.4603 697.03C30.6989 695.225 31.9875 693.22 31.7777 691.046C36.7722 693.799 66.5392 711.33 71.5536 714.073" fill="#FF6551"/>
<g style="mix-blend-mode:multiply" opacity="0.36">
<g style="mix-blend-mode:multiply" opacity="0.36">
<g style="mix-blend-mode:multiply" opacity="0.36">
<path d="M70.0462 719.268C69.3396 720.346 68.4139 721.263 67.3292 721.96L66.2803 722.629C65.0317 722.18 43.9451 710.034 33.0572 703.891C31.1593 702.734 29.2115 701.657 27.2336 700.65L27.0039 700.54L29.3613 697.109L30.5999 696.192C33.9063 698.246 61.9951 714.401 70.0462 719.268Z" fill="#FF6551"/>
</g>
</g>
</g>
<path d="M31.6494 691.026C31.6494 691.026 32.918 693.16 31.3297 696.421C30.4826 698.28 28.9882 699.768 27.1244 700.61C25.4363 698.356 23.5384 696.202 21.6904 694.018C20.5617 692.692 19.4529 691.345 18.4141 689.969C20.4118 690.129 22.4096 690.209 24.4074 690.308C26.8301 690.405 29.245 690.645 31.6394 691.026" fill="#FFC652"/>
<path d="M24.4174 690.308C24.4908 691.152 24.2546 691.993 23.753 692.675C23.2513 693.358 22.5183 693.835 21.6904 694.018C20.5617 692.692 19.4529 691.345 18.4141 689.969C20.4118 690.129 22.4096 690.209 24.4074 690.308" fill="#FF6551"/>
<path d="M83.3721 709.116C83.5478 710.245 83.3302 711.399 82.7556 712.386C82.1811 713.374 81.2845 714.134 80.2157 714.541L79.6962 714.731C78.5974 714.282 62.775 705.197 52.1668 699.184C47.9415 696.78 44.5452 694.876 43.2467 694.198L43.0469 694.098L44.6351 691.824C45.4642 690.627 46.3133 689.291 45.7639 687.636C50.7583 690.338 83.3721 709.186 83.3721 709.186" fill="#864FF1"/>
<g style="mix-blend-mode:multiply" opacity="0.36">
<g style="mix-blend-mode:multiply" opacity="0.36">
<g style="mix-blend-mode:multiply" opacity="0.36">
<path d="M82.4232 712.906C81.8574 713.649 81.0918 714.216 80.2157 714.541L79.6962 714.731C78.5974 714.282 62.775 705.197 52.1668 699.184C49.26 697.399 46.2733 695.734 43.2467 694.198L43.0469 694.098L44.6351 691.824L45.634 691.296C48.6307 693.031 72.8838 707.252 82.4931 712.926" fill="#2D7F75"/>
</g>
</g>
</g>
<path d="M45.6626 687.536C46.102 688.091 46.3892 688.751 46.496 689.45C46.6029 690.149 46.5256 690.864 46.272 691.525C45.997 692.181 45.5673 692.761 45.0195 693.216C44.4716 693.671 43.8219 693.987 43.1255 694.138C41.2076 692.233 39.1299 690.378 37.0722 688.503C35.8136 687.357 34.575 686.21 33.4062 685.043C35.2842 685.422 37.1121 685.741 38.9401 686.04C41.1676 686.439 43.3752 686.868 45.6626 687.496" fill="#FFC652"/>
<path d="M38.9401 686.08C39.0515 686.367 39.0871 686.678 39.0434 686.983C38.9997 687.287 38.8782 687.576 38.6906 687.82C38.503 688.065 38.2556 688.257 37.9722 688.378C37.6888 688.499 37.3788 688.546 37.0722 688.513C35.8136 687.366 34.575 686.22 33.4062 685.053C35.2842 685.432 37.1121 685.751 38.9401 686.05" fill="#864FF1"/>
<path d="M59.3221 1058.64L51.6006 1051.35C51.4842 1051.24 51.3386 1051.17 51.182 1051.14C51.0254 1051.12 50.8647 1051.14 50.72 1051.2C50.5752 1051.27 50.4527 1051.37 50.3678 1051.51C50.2828 1051.64 50.2391 1051.8 50.2421 1051.96L50.5418 1061.14L44.3686 1065.45C44.2441 1065.54 44.1468 1065.66 44.088 1065.8C44.0293 1065.94 44.0113 1066.09 44.0364 1066.24C44.0614 1066.39 44.1284 1066.53 44.2296 1066.65C44.3308 1066.76 44.4621 1066.84 44.6084 1066.88L51.2311 1068.75L53.5984 1078.38C53.6355 1078.54 53.7161 1078.67 53.8305 1078.78C53.945 1078.89 54.0882 1078.96 54.2428 1078.99C54.3975 1079.02 54.5568 1079 54.7013 1078.94C54.8458 1078.87 54.9694 1078.77 55.0568 1078.64L59.8115 1071.52L69.3409 1071.28C69.5037 1071.28 69.6612 1071.22 69.7931 1071.13C69.9249 1071.03 70.0249 1070.9 70.0799 1070.75C70.1349 1070.6 70.1425 1070.43 70.1015 1070.27C70.0606 1070.11 69.973 1069.97 69.8504 1069.87L64.2865 1064.99L68.7516 1057.15C68.8299 1057.01 68.8645 1056.85 68.8509 1056.69C68.8373 1056.53 68.7763 1056.38 68.6754 1056.25C68.5746 1056.13 68.4387 1056.04 68.285 1055.99C68.1313 1055.94 67.9668 1055.94 67.8126 1055.98L59.3221 1058.64Z" fill="#FF6551"/>
<path d="M95.0215 1062.7L92.8239 1058.71C92.7492 1058.57 92.6369 1058.46 92.5004 1058.39C92.364 1058.31 92.2091 1058.28 92.0544 1058.29C91.8996 1058.3 91.7514 1058.36 91.6275 1058.45C91.5036 1058.54 91.4092 1058.67 91.3555 1058.82L89.7373 1063.13L85.522 1064.07C85.3634 1064.11 85.2193 1064.19 85.1084 1064.31C84.9975 1064.43 84.9249 1064.58 84.9001 1064.74C84.8753 1064.9 84.8994 1065.06 84.9694 1065.21C85.0393 1065.35 85.1518 1065.48 85.2922 1065.56L88.5786 1067.49L87.7795 1072.05C87.7526 1072.21 87.7721 1072.37 87.8356 1072.51C87.8991 1072.66 88.0039 1072.78 88.1368 1072.87C88.2698 1072.95 88.4251 1073 88.5836 1073C88.742 1072.99 88.8966 1072.95 89.0281 1072.86L92.3744 1070.61L96.7795 1072.29C96.9255 1072.34 97.0817 1072.34 97.2301 1072.3C97.3784 1072.26 97.5127 1072.18 97.6174 1072.07C97.7221 1071.96 97.7928 1071.82 97.8213 1071.67C97.8498 1071.52 97.8349 1071.36 97.7784 1071.22L96.1502 1067.4L99.7162 1064.54C99.8425 1064.44 99.9357 1064.3 99.984 1064.15C100.032 1064 100.033 1063.83 99.9873 1063.68C99.9411 1063.52 99.8497 1063.39 99.7249 1063.28C99.6 1063.18 99.4474 1063.12 99.2867 1063.1L95.0215 1062.7Z" fill="#864FF1"/>
<path d="M85.4317 1034.08L83.5039 1027.09C83.4627 1026.95 83.3799 1026.81 83.2651 1026.71C83.1503 1026.61 83.0085 1026.54 82.8562 1026.51C82.704 1026.49 82.5477 1026.51 82.4058 1026.57C82.2639 1026.63 82.1424 1026.73 82.0555 1026.86L77.97 1032.92L70.9778 1032.82C70.8165 1032.82 70.6586 1032.87 70.5244 1032.95C70.3902 1033.04 70.2858 1033.17 70.2246 1033.32C70.1634 1033.47 70.1482 1033.63 70.1809 1033.79C70.2137 1033.95 70.2929 1034.09 70.4084 1034.2L74.9434 1038.57L71.9467 1045.37C71.8874 1045.52 71.8704 1045.67 71.8977 1045.83C71.925 1045.98 71.9953 1046.12 72.1005 1046.23C72.2056 1046.35 72.3411 1046.43 72.4909 1046.47C72.6407 1046.5 72.7985 1046.5 72.9456 1046.45L79.0888 1044.16L85.3119 1048.41C85.4443 1048.49 85.599 1048.54 85.7572 1048.54C85.9155 1048.54 86.0706 1048.49 86.2037 1048.41C86.3369 1048.32 86.4424 1048.2 86.5075 1048.06C86.5726 1047.91 86.5944 1047.75 86.5705 1047.6L85.4617 1040.97L92.1143 1037.82C92.2601 1037.76 92.3819 1037.64 92.4641 1037.51C92.5462 1037.37 92.5849 1037.21 92.5753 1037.05C92.5656 1036.89 92.508 1036.73 92.4098 1036.6C92.3117 1036.48 92.1775 1036.38 92.0244 1036.33L85.4317 1034.08Z" fill="#FFC652"/>
</svg>
