<svg width="280" height="240" viewBox="0 0 280 240" fill="none" xmlns="http://www.w3.org/2000/svg">
<path d="M224.578 196.042C213.208 203.172 196.428 200.472 181.788 202.192C169.388 203.612 158.088 208.312 146.348 211.852C134.698 215.342 122.038 217.592 110.168 214.122C102.028 211.742 95.0182 206.852 87.3382 203.422C78.1182 199.262 68.0582 197.282 58.5682 193.882C49.1482 190.442 39.8682 185.052 35.4682 176.562C30.2682 166.302 33.0582 154.322 31.0582 143.152C28.8282 130.532 20.6982 119.352 17.2982 106.882C14.9382 98.0521 17.3382 87.9121 20.1582 79.6521C23.1182 70.9321 31.3582 61.5821 39.2582 57.1121C41.8282 55.6721 44.3582 54.2421 46.7682 52.6021C47.8182 51.8821 53.3582 48.8821 53.3282 47.5921C59.4782 42.3521 63.0582 35.3221 68.2982 29.6121C73.7082 23.7921 81.7382 20.7521 90.1982 19.9421C97.8382 19.2021 105.678 19.3221 113.528 20.2021C121.888 21.0521 129.828 22.4021 137.478 20.2421C139.048 19.7621 140.578 19.1421 142.128 18.6121C152.538 14.9621 166.778 16.6521 177.068 21.8221C181.028 23.7821 184.478 26.7021 187.838 29.6421C192.028 33.1121 195.838 37.1021 199.158 41.4921C202.268 45.7221 203.768 50.7921 207.608 54.7221C210.208 57.3421 212.828 60.2121 215.408 62.7221C219.428 66.5821 224.978 68.2421 228.908 72.3821C232.878 76.5221 235.288 81.7121 237.218 86.7621C239.688 93.2221 241.628 99.9421 242.288 106.972C243.978 118.912 240.198 128.492 236.258 138.822C234.878 142.252 233.508 145.782 233.578 149.682C233.688 151.542 233.928 153.422 234.298 155.312C235.198 160.822 234.958 165.952 235.098 171.332C235.288 180.772 232.968 190.572 224.578 196.042Z" fill="#EFF2FD"/>
</svg>
