<svg width="280" height="240" viewBox="0 0 280 240" fill="none" xmlns="http://www.w3.org/2000/svg">
<path d="M206.397 214.595C194.017 221.745 178.487 218.675 164.227 220.205C152.237 221.475 140.757 226.165 129.227 229.585C118.237 232.795 107.327 234.405 98.0474 230.145C91.6174 227.245 86.3374 221.915 80.2674 218.065C72.8674 213.475 64.5274 211.055 56.6474 207.335C48.6974 203.675 40.6974 198.305 36.7174 190.295C31.7874 180.755 33.9974 169.635 31.8174 159.345C29.3174 147.755 21.1774 137.825 17.4674 126.585C14.9374 118.655 17.0974 109.235 19.6974 101.445C22.4374 93.1851 30.3174 83.6851 37.9674 78.5451C40.4474 76.8551 42.8974 75.1451 45.2374 73.2351C46.2574 72.3851 51.6374 68.6251 51.5974 67.3651C57.5474 61.1251 60.9374 53.3351 65.9674 46.3351C71.1274 38.9651 78.9174 33.7251 87.2074 30.7151C94.7074 27.9351 102.457 26.0751 110.377 25.1951C119.027 24.4051 127.747 24.8251 136.317 21.4251C138.147 20.7351 139.927 19.8951 141.767 19.1951C154.387 14.6251 171.937 16.5251 184.387 22.5451C189.117 24.8351 193.127 28.2451 196.977 31.6851C201.717 35.7551 205.867 40.4451 209.317 45.6151C212.437 50.6051 213.497 56.5551 217.397 61.2251C220.007 64.3551 222.567 67.8051 225.127 70.8251C229.067 75.4951 235.097 77.7151 238.827 82.8051C242.567 87.9151 244.347 94.1851 245.577 100.255C247.157 108.025 248.027 115.995 247.197 123.895C245.847 136.505 238.987 145.905 231.947 156.195C229.597 159.615 227.237 163.165 226.307 167.175C225.947 169.085 225.707 171.025 225.617 172.985C225.137 178.675 223.607 183.925 222.417 189.435C220.307 199.125 215.747 209.125 206.397 214.595Z" fill="#EFF2FD"/>
</svg>
