<svg width="280" height="240" viewBox="0 0 280 240" fill="none" xmlns="http://www.w3.org/2000/svg">
<path d="M210.942 207.383C199.322 211.703 184.252 206.123 170.602 204.933C159.092 203.933 148.352 205.883 137.382 206.823C126.542 208.193 114.902 209.283 104.322 205.943C97.0425 203.653 90.8725 199.383 84.0025 196.293C75.7025 192.623 66.5325 190.763 57.8925 187.873C49.2825 185.083 40.7525 180.953 36.6725 174.573C31.7725 167.033 34.2625 157.723 32.2425 149.323C29.9025 139.783 22.1225 132.353 18.4325 122.903C15.3525 115.393 16.1825 105.063 17.6825 96.4629C19.2925 87.4029 26.0925 76.8929 33.4425 71.3229C35.8625 69.5329 38.2725 67.7629 40.5625 65.8029C41.5725 64.9429 47.0025 61.2029 46.8525 59.9329C52.8325 53.8429 56.0625 46.2629 61.2925 39.6829C66.8125 32.8829 75.4825 28.4829 84.8225 26.3329C93.2925 24.3629 102.052 23.2829 110.912 23.0929C120.452 22.9629 129.742 23.7529 138.802 20.8829C140.702 20.2829 142.552 19.5429 144.442 18.9229C157.302 14.7529 174.862 16.6029 187.272 22.3529C191.992 24.5529 195.982 27.8329 199.812 31.1629C204.542 35.1229 208.682 39.7129 212.122 44.7729C215.242 49.6929 216.292 55.5229 220.212 60.2029C222.832 63.3629 225.412 66.8429 227.992 69.9229C231.962 74.7029 238.042 77.2028 241.792 82.4428C245.562 87.7328 247.352 94.0728 248.602 100.193C250.192 108.033 251.072 116.043 250.242 123.843C248.902 136.303 242.062 145.053 235.082 154.573C232.762 157.703 230.432 160.943 229.552 164.773C229.202 166.613 228.992 168.483 228.912 170.383C228.502 175.873 227.042 180.793 225.952 185.993C224.042 195.033 219.812 203.853 210.942 207.383Z" fill="#EFF2FD"/>
</svg>
