<svg width="280" height="480" viewBox="0 0 280 480" fill="none" xmlns="http://www.w3.org/2000/svg">
<path d="M248.78 306.401L248.764 307.427L247.969 361.287L247.936 363.526L246.815 439.307H39.9552L38.8587 420.565L34.8494 351.977L32.1836 306.401H248.78Z" fill="#5B5B5C"/>
<path d="M240.775 433.541H45.5782L38.8262 317.699L242.649 317.345L240.775 433.541Z" fill="#545554"/>
<path d="M141.095 315.513C143.357 315.513 145.19 313.7 145.19 311.463C145.19 309.226 143.357 307.413 141.095 307.413C138.833 307.413 137 309.226 137 311.463C137 313.7 138.833 315.513 141.095 315.513Z" fill="#3F4040"/>
<path d="M241.056 433.541H45.8577L38.8262 317.699L242.649 317.345L241.056 433.541Z" fill="#49B3F7"/>
<path d="M242.519 326.794L242.574 322.825H39.1367L39.3777 326.794H242.519Z" fill="#3A77BA"/>
<path d="M39.2463 324.621H242.55L242.649 317.345L38.8262 317.699L39.2463 324.621Z" fill="#864FF1"/>
<path d="M234.561 323.41C235.796 323.41 236.797 322.421 236.797 321.2C236.797 319.979 235.796 318.989 234.561 318.989C233.327 318.989 232.326 319.979 232.326 321.2C232.326 322.421 233.327 323.41 234.561 323.41Z" fill="white"/>
<path d="M227.061 323.41C228.296 323.41 229.297 322.421 229.297 321.2C229.297 319.979 228.296 318.989 227.061 318.989C225.827 318.989 224.826 319.979 224.826 321.2C224.826 322.421 225.827 323.41 227.061 323.41Z" fill="white"/>
<path d="M219.329 323.41C220.563 323.41 221.564 322.421 221.564 321.2C221.564 319.979 220.563 318.989 219.329 318.989C218.094 318.989 217.094 319.979 217.094 321.2C217.094 322.421 218.094 323.41 219.329 323.41Z" fill="white"/>
<path d="M164.874 313.252H151.719C151.239 313.252 150.779 313.063 150.44 312.728C150.101 312.392 149.91 311.937 149.91 311.463C149.91 311.228 149.957 310.995 150.048 310.778C150.139 310.561 150.272 310.364 150.44 310.198C150.608 310.032 150.807 309.9 151.027 309.81C151.246 309.72 151.481 309.674 151.719 309.674H164.874C165.112 309.674 165.347 309.72 165.567 309.81C165.786 309.9 165.986 310.032 166.153 310.198C166.321 310.364 166.455 310.561 166.546 310.778C166.636 310.995 166.683 311.228 166.683 311.463V311.463C166.683 311.937 166.493 312.392 166.153 312.728C165.814 313.063 165.354 313.252 164.874 313.252V313.252Z" fill="#545554"/>
<path d="M129.888 313.252H116.733C116.253 313.252 115.793 313.063 115.454 312.728C115.114 312.392 114.924 311.937 114.924 311.463C114.924 311.228 114.971 310.995 115.062 310.778C115.152 310.561 115.286 310.364 115.454 310.198C115.622 310.032 115.821 309.9 116.04 309.81C116.26 309.72 116.495 309.674 116.733 309.674H129.888C130.126 309.674 130.361 309.72 130.58 309.81C130.8 309.9 130.999 310.032 131.167 310.198C131.335 310.364 131.468 310.561 131.559 310.778C131.65 310.995 131.697 311.228 131.697 311.463C131.697 311.937 131.506 312.392 131.167 312.728C130.828 313.063 130.368 313.252 129.888 313.252V313.252Z" fill="#545554"/>
<g style="mix-blend-mode:screen" opacity="0.28">
<path d="M200.181 306.402C152.187 334.257 72.4903 347.184 34.8507 351.977L32.1855 306.402H200.181Z" fill="#EBF7FD"/>
</g>
<path d="M45.5938 429.183L45.858 433.54H241.056L241.116 429.183H45.5938Z" fill="#864FF1"/>
<path d="M239.53 432.746C240.05 432.743 240.568 432.671 241.069 432.533L241.115 429.184H45.5938L45.81 432.746L239.53 432.746Z" fill="#864FF1"/>
<path d="M216.548 376.578V429.17H208.668L208.518 424.089L208.38 419.473L208.263 415.569L208.133 411.171L208.131 411.168L207.094 376.578H216.548Z" fill="#FF6551"/>
<path d="M228.624 372.115L226.443 419.473L226.329 421.938L226.23 424.089L225.998 429.169H216.547V372.115H228.624Z" fill="#864FF1"/>
<path d="M219.367 424.089H208.517L208.379 419.474H219.064C219.172 421.118 219.272 422.668 219.367 424.089Z" fill="#F7A845"/>
<path d="M229.321 424.089H216.547V419.474H229.018C229.126 421.118 229.227 422.668 229.321 424.089Z" fill="#2435A1"/>
<path d="M210.025 411.87V379.214C210.025 378.82 210.184 378.441 210.466 378.163C210.748 377.884 211.13 377.727 211.529 377.727H213.251C213.65 377.727 214.032 377.884 214.314 378.163C214.596 378.441 214.755 378.82 214.755 379.214V411.87C214.755 412.264 214.596 412.642 214.314 412.921C214.032 413.2 213.65 413.356 213.251 413.356H211.529C211.13 413.356 210.748 413.2 210.466 412.921C210.184 412.642 210.025 412.264 210.025 411.87V411.87Z" fill="#FF8D7E"/>
<path d="M218.684 375.331V415.978C218.684 416.978 219.503 417.788 220.514 417.788H222.494C223.505 417.788 224.324 416.978 224.324 415.978V375.331C224.324 374.331 223.505 373.521 222.494 373.521H220.514C219.503 373.521 218.684 374.331 218.684 375.331Z" fill="#A880F5"/>
<g style="mix-blend-mode:multiply" opacity="0.25">
<path d="M226.23 416.604V415.232C226.23 415.232 226.257 415.777 226.23 416.604Z" fill="#471E44"/>
</g>
<path d="M241.055 429.167V429.17H226L226.069 424.106L226.099 421.905L226.134 419.456L226.793 372.116L226.891 365.095H241.768L240.961 419.144L240.964 419.456L241.009 424.106L241.055 429.167Z" fill="#2435A1"/>
<path d="M241.009 424.106H226.07L226.135 419.457H240.966L241.009 424.106Z" fill="#F7A845"/>
<path d="M230.092 415.656V369.665C230.092 369.099 230.319 368.557 230.723 368.157C231.128 367.757 231.676 367.532 232.248 367.532H234.831C235.403 367.532 235.951 367.757 236.356 368.157C236.76 368.557 236.987 369.099 236.987 369.665V415.656C236.987 415.936 236.931 416.213 236.823 416.472C236.715 416.731 236.556 416.966 236.356 417.164C236.155 417.362 235.918 417.519 235.656 417.626C235.395 417.733 235.114 417.788 234.831 417.788H232.248C231.676 417.788 231.128 417.563 230.723 417.164C230.319 416.764 230.092 416.221 230.092 415.656V415.656Z" fill="#525FB5"/>
<g style="mix-blend-mode:multiply" opacity="0.23">
<path d="M215.717 376.578V429.197L216.547 429.17V376.578H215.717Z" fill="#471E44"/>
</g>
<path d="M225.516 372.115V429.166L226 429.169L226.792 372.115H225.516Z" fill="#243976"/>
<g style="mix-blend-mode:multiply" opacity="0.15">
<path d="M247.936 363.525L246.816 439.307H109.588C154.042 426.464 211.155 403.313 247.936 363.525Z" fill="#29ABE2"/>
</g>
<path d="M141.095 75.5121C143.357 75.5121 145.19 73.6989 145.19 71.4621C145.19 69.2254 143.357 67.4121 141.095 67.4121C138.833 67.4121 137 69.2254 137 71.4621C137 73.6989 138.833 75.5121 141.095 75.5121Z" fill="#3F4040"/>
<path d="M164.874 73.2517H151.719C151.239 73.2517 150.779 73.0632 150.44 72.7277C150.101 72.3922 149.91 71.9372 149.91 71.4627C149.91 71.2278 149.957 70.9952 150.048 70.7782C150.139 70.5611 150.272 70.3639 150.44 70.1978C150.608 70.0317 150.807 69.8999 151.027 69.81C151.246 69.7201 151.481 69.6738 151.719 69.6738H164.874C165.112 69.6738 165.347 69.7201 165.567 69.81C165.786 69.8999 165.986 70.0317 166.153 70.1978C166.321 70.3639 166.455 70.5611 166.546 70.7782C166.636 70.9952 166.683 71.2278 166.683 71.4627V71.4627C166.683 71.9372 166.493 72.3922 166.153 72.7277C165.814 73.0632 165.354 73.2517 164.874 73.2517V73.2517Z" fill="#545554"/>
<path d="M129.888 73.2517H116.733C116.253 73.2517 115.793 73.0632 115.454 72.7277C115.114 72.3922 114.924 71.9372 114.924 71.4627C114.924 71.2278 114.971 70.9952 115.062 70.7782C115.152 70.5611 115.286 70.3639 115.454 70.1978C115.622 70.0317 115.821 69.8999 116.04 69.81C116.26 69.7201 116.495 69.6738 116.733 69.6738H129.888C130.126 69.6738 130.361 69.7201 130.58 69.81C130.8 69.8999 130.999 70.0317 131.167 70.1978C131.335 70.3639 131.468 70.5611 131.559 70.7782C131.65 70.9952 131.697 71.2278 131.697 71.4627C131.697 71.9372 131.506 72.3922 131.167 72.7277C130.828 73.0632 130.368 73.2517 129.888 73.2517V73.2517Z" fill="#545554"/>
<path d="M85.6187 123.924C86.7919 124.838 88.0674 125.616 89.4202 126.242C90.6071 126.67 91.7175 127.282 92.7094 128.056C93.4109 128.778 93.9688 129.624 94.3541 130.55C97.6677 137.531 97.0857 147.726 102.869 153.352C106.542 156.927 113.254 158.352 118.205 158.538C124.543 158.777 130.708 160.712 137.027 160.836C143.656 160.967 149.932 157.844 155.303 153.998C156.781 152.823 158.385 151.81 160.085 150.977C166.06 148.416 173.853 151.252 178.975 147.276C182.97 144.174 183.382 138.371 186.158 134.165C189.565 129.001 196.115 126.801 200.371 122.296C206.594 115.709 206.771 105.376 204.106 96.7547C202.518 91.6193 201.675 87.964 204.459 83.217C206.657 79.4674 210.679 75.6479 211.512 71.297C211.845 69.5319 211.912 67.7278 211.712 65.9432C211.171 61.207 208.991 56.8012 205.542 53.4719C200.836 48.9612 194.053 46.5214 190.625 40.999C186.146 33.7782 191.406 24.904 187.307 17.3707C184.406 12.0386 178.208 9.27458 172.188 8.16438C166.037 7.0378 159.713 7.2447 153.651 8.77082C147.667 10.2822 141.702 12.0891 135.487 10.8418C129.517 9.64322 123.841 6.46932 117.59 7.0764C110.736 7.74086 105.198 12.91 101.196 18.4535C97.4848 23.5889 94.5242 29.2212 90.1723 33.889C86.069 38.2925 81.7814 42.7704 79.3147 48.3273C75.5878 56.714 77.8292 63.8096 80.7642 71.8484C83.3376 78.8963 78.7134 84.3014 76.5175 90.6752C74.2804 97.1681 75.5517 106.903 77.9343 113.235C79.4625 117.424 82.1198 121.121 85.6187 123.924V123.924Z" fill="#732C15"/>
<path d="M101.339 108.767C99.7923 107.482 98.3416 106.088 96.7573 104.848C96.151 104.373 96.8975 103.451 97.5435 103.798C99.3353 104.76 101.157 105.621 102.86 106.735C104.44 107.781 105.96 108.914 107.412 110.128C110.16 112.395 113.04 115.127 113.811 118.732C114.55 122.19 113.04 125.354 111.611 128.416C110.671 130.127 110.101 132.013 109.938 133.954C109.901 134.823 109.974 135.694 110.156 136.545C110.398 137.278 110.708 137.986 111.082 138.662C111.24 139.026 110.798 139.396 110.454 139.298C109.809 139.033 109.23 138.635 108.753 138.131C108.275 137.627 107.912 137.029 107.687 136.376C107.156 134.94 107.071 133.38 107.445 131.897C108.192 128.31 110.749 125.292 111.191 121.629C111.664 117.72 108.607 114.764 105.842 112.447C104.355 111.202 102.83 110.006 101.339 108.767Z" fill="#7F391F"/>
<path d="M187.532 126.11C187.41 126.176 187.289 126.244 187.168 126.313C184.061 128.115 181.674 130.919 180.408 134.254C180.203 134.97 179.877 135.648 179.442 136.256C179.217 136.556 178.902 136.776 178.542 136.886C178.181 136.996 177.795 136.99 177.439 136.867C176.404 136.383 176.518 134.888 176.938 133.834C178.74 129.319 182.97 126.212 187.291 123.909C191.661 121.457 195.295 117.902 197.822 113.608C198.878 112.028 199.673 110.291 200.175 108.463C200.713 105.991 200.827 103.448 200.51 100.939C200.123 98.7978 199.619 96.6794 199 94.5926C198.984 94.524 199.064 94.4373 199.134 94.4877C201.767 96.3803 202.859 99.786 203.176 102.881C203.637 107.179 202.771 111.513 200.693 115.315C198.616 119.116 195.423 122.207 191.536 124.18C190.218 124.856 188.833 125.404 187.532 126.11Z" fill="#7F391F"/>
<path d="M176.592 118.424C176.345 117.399 176.321 116.334 176.521 115.3C176.721 114.265 177.141 113.285 177.753 112.423C180.162 109.073 184.827 107.436 186.187 103.34C186.196 103.309 186.215 103.283 186.24 103.263C186.266 103.244 186.297 103.234 186.329 103.233C186.361 103.233 186.392 103.243 186.418 103.261C186.444 103.28 186.463 103.306 186.473 103.336C187.815 107.005 184.135 109.702 181.757 111.802C180.141 113.229 178.913 114.733 178.91 116.975C178.907 119.47 180.286 121.456 180.741 123.82C180.777 123.962 180.765 124.112 180.709 124.247C180.652 124.382 180.553 124.495 180.426 124.571C180.299 124.646 180.151 124.679 180.004 124.665C179.857 124.651 179.718 124.591 179.608 124.493C177.895 123.14 177.006 120.487 176.592 118.424Z" fill="#7F391F"/>
<path d="M162.889 117.347C162.713 115.5 163.03 113.639 163.808 111.951C164.137 111.152 165.193 111.76 165.103 112.463C164.948 114.056 165.135 115.663 165.652 117.179C166.06 118.497 166.901 119.812 167.035 121.171C167.033 121.358 166.983 121.543 166.888 121.705C166.793 121.868 166.658 122.004 166.494 122.1C166.331 122.195 166.145 122.248 165.955 122.251C165.765 122.255 165.578 122.21 165.411 122.121C163.816 121.293 163.105 118.992 162.889 117.347Z" fill="#7F391F"/>
<path d="M86.7703 157.603C84.3017 159.494 81.7351 161.256 79.0809 162.882C78.1026 163.484 77.113 164.065 76.1121 164.625C75.4593 164.996 74.7959 165.359 74.1271 165.712C72.1566 166.899 69.9586 167.668 67.6721 167.971C65.7886 168.029 63.9095 167.758 62.1206 167.172C51.2623 164.108 41.3957 158.306 33.4884 150.334C32.6186 149.455 31.7185 148.396 31.8181 147.171C31.9498 145.604 33.7535 144.621 35.3365 144.751C36.9054 145.025 38.3855 145.665 39.6535 146.619C44.5639 149.669 49.8323 152.114 55.3419 153.902C58.4069 155.032 61.6625 155.572 64.9328 155.492C66.3292 155.394 67.7086 155.131 69.0417 154.709C70.2471 154.33 71.4216 153.861 72.5547 153.305C74.9856 152.07 77.3315 150.677 79.5771 149.136L86.7703 157.603Z" fill="#FFBF94"/>
<path d="M86.7703 157.603C84.3018 159.494 81.7352 161.256 79.081 162.882C76.1227 160.287 73.8775 156.992 72.5547 153.306C74.9857 152.07 77.3316 150.678 79.5771 149.137L86.7703 157.603Z" fill="#F49B73"/>
<path d="M171.378 180.343C172.704 182.462 174.201 184.473 175.854 186.354C177.29 188.018 178.833 189.589 180.472 191.057C183.291 190.949 192.644 191.454 195.515 191.057C190.932 187.06 186.571 179.333 182.644 174.719C182.117 174.105 181.601 173.484 181.095 172.857C179.933 171.482 178.908 169.999 178.033 168.43C177.564 167.557 177.195 166.636 176.933 165.683L163.318 164.589C164.263 166.738 165.294 169.022 166.416 171.328C167.898 174.422 169.554 177.432 171.378 180.343V180.343Z" fill="#FFBF94"/>
<path d="M166.416 171.328C167.897 174.423 169.554 177.432 171.377 180.343C177.768 179.954 181.064 176.943 182.643 174.719C182.117 174.105 181.601 173.484 181.094 172.857C179.933 171.482 178.908 169.999 178.033 168.43L169.726 168.722C168.574 169.529 167.469 170.399 166.416 171.328Z" fill="#F49B73"/>
<path d="M161.368 131.253C154.079 128.82 148.32 127.901 141.032 125.468C138.279 124.549 140.798 125.967 137.909 125.666C135.459 125.481 132.995 125.539 130.557 125.841C123.616 126.499 116.709 127.434 109.837 128.645C107.714 128.888 105.661 129.545 103.797 130.579C101.645 131.957 93.5941 134.27 76.4952 149.847C74.1565 150.929 84.5679 163.789 89.8685 166.228C96.4865 169.274 110.63 154.222 115.509 146.631C115.651 146.25 115.929 145.934 116.29 145.742C116.651 145.55 117.071 145.494 117.47 145.586C128.632 146.459 139.794 147.333 150.955 148.206C151.402 148.195 151.84 148.325 152.207 148.576C152.495 148.882 152.685 149.264 152.754 149.677C155.37 159.267 160.172 168.138 166.79 175.61C167.119 176.049 167.56 176.395 168.068 176.612C168.561 176.733 169.077 176.732 169.57 176.608C175.177 175.63 180.496 173.437 185.144 170.185C185.52 169.981 185.805 169.645 185.942 169.244C185.97 168.813 185.834 168.387 185.562 168.049C180.106 159.304 175.516 150.06 171.854 140.444C171.684 139.997 171.513 139.545 171.334 139.095C170.735 137.583 169.805 136.219 168.612 135.102C167.419 133.985 165.992 133.141 164.433 132.631L161.368 131.253Z" fill="#FFC652"/>
<path d="M126.336 105.302C126.356 106.246 126.376 107.193 126.396 108.137C126.411 108.844 126.426 109.55 126.441 110.255C126.458 111.202 126.478 112.15 126.498 113.098C126.516 113.98 126.536 114.865 126.553 115.75L126.568 116.519C126.603 118.193 126.637 119.866 126.671 121.539L126.768 126.246C126.743 126.722 126.828 127.198 127.016 127.638C127.279 128.059 127.651 128.403 128.093 128.636C130.422 130.035 133.082 130.801 135.806 130.858C138.53 130.914 141.221 130.259 143.607 128.958C143.92 128.786 144.173 128.523 144.331 128.206C144.49 127.888 144.547 127.531 144.494 127.18C144.261 125.663 144.113 124.134 144.049 122.6C143.992 121.228 144.003 119.855 144.082 118.482C144.102 118.153 144.124 117.822 144.152 117.493C144.229 116.541 144.337 115.592 144.482 114.648C144.662 113.437 144.898 112.237 145.192 111.049C145.207 110.985 145.224 110.918 145.239 110.854L144.732 110.705L139.613 109.205L137.716 108.646L126.336 105.302Z" fill="#FFAF79"/>
<path d="M15.8288 132.683C16.0869 132.495 16.399 132.394 16.7196 132.393C18.9581 132.255 25.7794 137.763 26.5665 137.024C24.76 135.578 23.7417 134.448 21.9354 133.001C21.0275 132.274 19.3119 130.534 20.2434 129.837C20.4623 129.71 20.7077 129.635 20.9607 129.617C21.2137 129.598 21.4676 129.637 21.7029 129.731C24.8364 130.635 26.4803 134.148 29.4261 135.538C29.299 133.948 29.4439 132.347 29.8545 130.804C30.0034 130.245 30.259 129.62 30.816 129.445C31.1441 129.392 31.4805 129.46 31.7616 129.635C32.0427 129.811 32.249 130.082 32.3413 130.398C32.5049 131.036 32.5794 131.692 32.5626 132.349C32.7818 135.119 34.9508 137.275 36.6349 139.499C38.3189 141.724 41.399 145.667 39.783 147.94L38.0233 150.87C35.0677 152.83 32.7149 153.201 29.7918 151.193C27.7283 149.776 26.1527 147.445 23.6865 146.971C22.589 146.76 21.736 146.393 20.6621 146.085C19.5882 145.777 17.9953 144.764 18.5048 143.779C20.3324 143.896 22.4664 144.417 24.2941 144.534C22.8846 143.263 20.9435 142.795 19.166 142.11C17.3885 141.426 14.4371 139.041 15.0936 137.791C15.2855 137.425 15.8193 137.444 16.2279 137.525C17.986 137.87 24.4779 140.879 24.5522 140.352C21.7806 138.851 19.1178 137.162 16.5832 135.296C15.7961 134.614 15.0294 133.351 15.8288 132.683Z" fill="#FFBF94"/>
<path d="M110.022 145.423C109.343 148.696 108.403 151.91 107.209 155.035C106.295 156.927 105.525 158.883 104.903 160.887C103.956 164.727 104.865 168.754 105.854 172.584C106.934 176.77 110.909 184.535 112.604 185.542C113.588 186.126 115.924 185.956 117.071 186.014C121.07 186.218 125.032 186.474 129.034 186.435C133.183 186.395 137.329 186.244 141.472 185.983C144.081 185.818 146.686 185.609 149.288 185.357C149.769 185.351 150.242 185.235 150.67 185.018C151.098 184.8 151.469 184.488 151.754 184.105C153.898 181.446 156.353 178.532 157.183 175.148C157.385 174.321 157.49 173.494 157.731 172.657L158.588 169.68L160.301 163.728C161.031 161.189 161.762 158.649 162.493 156.11L159.277 143.789L143.677 137.728C143.677 137.728 108.854 138.279 109.133 139.105C109.274 140.847 109.274 142.598 109.133 144.34L110.022 145.423Z" fill="#FFC652"/>
<path d="M105.548 156.003C106.67 152.283 107.98 148.692 109.372 145.067C109.376 145.053 109.386 145.041 109.4 145.033C109.413 145.026 109.429 145.024 109.443 145.028C109.458 145.032 109.471 145.042 109.478 145.055C109.486 145.068 109.489 145.083 109.485 145.098C108.859 148.359 108.256 151.582 107.389 154.794C106.559 157.865 105.564 160.686 105.611 163.885C105.74 167.015 106.331 170.11 107.368 173.07C108.412 176.314 110.187 179.575 110.897 182.857C110.943 183.071 110.875 183.402 110.662 183.348C110.581 183.315 110.517 183.252 110.483 183.174C108.911 180.583 107.553 177.871 106.423 175.064C106.107 174.267 105.805 173.465 105.527 172.656C104.984 171.113 104.555 169.534 104.244 167.93C103.2 162.959 104.552 159.307 105.548 156.003Z" fill="#F7A845"/>
<path d="M153.002 181.538C153.086 181.413 153.174 181.291 153.259 181.17C153.859 180.313 154.364 179.388 154.925 178.519C155.577 177.461 156.122 176.343 156.552 175.179C157.755 172.483 158.533 169.622 158.861 166.693C159.032 163.87 158.144 161.051 157.825 158.257C157.488 155.178 157.471 152.073 157.775 148.99C157.776 148.95 157.793 148.912 157.823 148.884C157.852 148.856 157.891 148.841 157.932 148.841C157.972 148.841 158.011 148.856 158.04 148.884C158.07 148.912 158.087 148.95 158.088 148.99C158.37 152.447 158.8 155.963 159.332 159.392C159.469 160.27 159.626 161.138 159.768 162.003C159.843 162.022 159.911 162.06 159.967 162.113C160.023 162.166 160.064 162.232 160.086 162.306C161.515 166.911 163.844 171.195 166.942 174.913C168.098 176.255 169.523 175.705 171.051 175.378C172.294 175.112 173.538 174.82 174.77 174.51C177.312 173.869 179.7 172.827 182.201 172.08C182.236 172.07 182.271 172.121 182.239 172.145C179.833 173.819 177.202 175.151 174.423 176.103C172.339 176.918 168.61 178.567 166.634 176.785C165.782 175.903 165.018 174.942 164.352 173.916C163.449 172.741 162.612 171.519 161.844 170.254C161.207 169.191 160.644 168.086 160.158 166.947C160.133 167.425 160.082 167.901 160.003 168.373C159.445 171.214 158.506 173.968 157.212 176.564C156.811 177.417 156.361 178.248 155.866 179.052C155.338 179.902 154.56 180.618 153.972 181.44C153.704 181.91 153.318 182.304 152.851 182.582C152.76 182.626 152.662 182.653 152.561 182.662C152.596 182.253 152.749 181.863 153.002 181.538V181.538Z" fill="#F7A845"/>
<path d="M116.823 179.703C118.058 179.888 119.268 180.514 120.505 180.787C121.749 181.061 123.026 181.253 124.288 181.436C127.181 181.842 130.103 182.027 133.025 181.988C138.742 181.955 144.425 181.107 149.897 179.469C150.032 179.428 150.129 179.641 149.995 179.699C147.33 180.951 144.546 181.94 141.684 182.652C138.674 183.336 135.608 183.746 132.523 183.878C129.504 183.985 126.481 183.809 123.495 183.353C121.242 183.021 117.606 182.512 116.27 180.414C116.019 180.02 116.432 179.644 116.823 179.703Z" fill="#F7A845"/>
<path d="M115.967 175.834C117.985 176.006 119.983 176.359 121.937 176.888C124.139 177.343 126.368 177.664 128.61 177.85C133.057 178.158 137.526 177.922 141.915 177.148C141.919 177.147 141.923 177.147 141.926 177.149C141.929 177.151 141.931 177.154 141.932 177.157C141.933 177.161 141.932 177.164 141.931 177.168C141.929 177.171 141.926 177.173 141.923 177.174C137.587 178.764 132.982 179.51 128.361 179.371C124.351 179.292 119.038 178.822 115.787 176.264C115.61 176.125 115.761 175.83 115.967 175.834Z" fill="#F7A845"/>
<path d="M126.498 113.099C126.516 113.981 126.536 114.866 126.553 115.751L126.568 116.52C126.603 118.193 126.637 119.867 126.67 121.54C131.629 126.515 140.585 124.925 144.049 122.6C143.992 121.229 144.002 119.856 144.082 118.482C144.102 118.154 144.124 117.822 144.152 117.494C144.229 116.542 144.337 115.593 144.481 114.648C143.747 114.189 143.204 113.86 143.204 113.86C143.204 113.86 140.945 113.739 138 113.591C134.179 113.4 129.2 113.165 126.498 113.099Z" fill="#F59D75"/>
<path d="M124.115 127.339C124.147 127.134 124.405 127.083 124.561 127.16C125.309 127.526 125.714 128.368 126.277 128.962C126.998 129.71 127.822 130.355 128.725 130.877C130.804 132.12 133.126 132.912 135.538 133.2C137.828 133.516 140.162 133.205 142.287 132.302C144.098 131.347 145.721 130.081 147.082 128.562C147.092 128.554 147.104 128.548 147.116 128.547C147.129 128.545 147.142 128.548 147.153 128.554C147.164 128.561 147.173 128.57 147.178 128.582C147.183 128.594 147.184 128.607 147.181 128.619C146.007 133.282 139.545 135.306 135.292 134.863C132.651 134.614 130.113 133.719 127.908 132.26C126.505 131.297 123.815 129.27 124.115 127.339Z" fill="#F7A845"/>
<path d="M29.8539 130.804C29.875 130.512 29.9756 130.232 30.1449 129.993C30.3142 129.754 30.546 129.565 30.8154 129.445C31.1435 129.392 31.48 129.46 31.7611 129.635C32.0422 129.811 32.2484 130.082 32.3408 130.398C32.5044 131.036 32.5789 131.692 32.5621 132.349C32.7813 135.119 34.9503 137.275 36.6344 139.5C38.3184 141.724 41.3985 145.667 39.7825 147.94L38.0228 150.87C35.0672 152.83 34.4367 152.464 31.5136 150.457C30.5923 149.824 32.5899 146.245 31.9896 143.337C31.1336 139.19 28.9779 136.743 29.8539 130.804Z" fill="#FFBF94"/>
<path d="M177.839 71.8961C177.673 81.3199 175.48 90.6008 171.406 99.1213C170.208 101.8 168.623 104.293 166.702 106.523C164.653 108.651 162.314 110.487 159.752 111.976C153.797 115.665 147.385 118.576 140.675 120.639C138.505 121.454 136.175 121.764 133.865 121.545C131.138 121.11 113.106 113.063 107.998 99.8092C106.867 96.8751 104.689 90.3126 105.291 87.2295C107.078 78.0769 108.867 68.9199 111.106 59.8648C112.893 52.6335 115.144 45.155 120.363 39.7898C122.619 37.6068 125.118 35.6842 127.813 34.0589C130.329 32.315 133.054 30.8851 135.925 29.8018C141.284 27.9831 147.133 28.4325 152.756 29.1233C156.779 29.6176 160.898 30.2614 164.402 32.2769C167.151 33.9759 169.517 36.2182 171.349 38.8632C177.165 46.7955 180.017 56.4777 179.419 66.2578L177.839 71.8961Z" fill="#FFBF94"/>
<path d="M174.243 82.7611C174.243 82.7611 169.388 79.6845 169.741 75.8629C166.914 75.9156 164.169 74.9278 162.037 73.0913C159.905 71.2547 158.54 68.7004 158.205 65.9242C154.071 66.9219 149.713 66.4159 145.925 64.4988C140.077 61.27 140.17 53.5122 140.17 53.5122C140.17 53.5122 139.629 55.6682 135.225 57.4756C130.82 59.2831 127.385 55.3781 127.385 55.3781C127.842 57.0834 127.759 58.8865 127.146 60.5435C126.533 62.2004 125.421 63.6314 123.96 64.6429C122.607 65.8002 120.915 66.4996 119.132 66.6389C117.348 66.7783 115.567 66.3502 114.047 65.4173C114.047 65.4173 113.343 70.6301 109.097 71.1742C104.85 71.7183 104.955 57.9433 104.955 57.9433C104.955 57.9433 124.145 49.1272 124.337 48.787C124.529 48.4468 147.583 39.9792 147.927 40.1692C148.271 40.3591 167.227 51.9404 168.259 52.5102C169.291 53.0799 177.857 73.8739 178.505 75.124C179.153 76.3742 174.243 82.7611 174.243 82.7611Z" fill="#F49B73"/>
<path d="M168.795 80.8172C168.555 79.7074 167.988 78.6927 167.166 77.9012C165.857 76.3998 164.243 75.1872 162.429 74.3421C160.604 73.4995 158.548 73.2757 156.58 73.7052C155.591 73.9451 154.497 74.6079 154.526 75.615C154.555 75.9062 154.656 76.186 154.819 76.4302C154.982 76.6744 155.202 76.8758 155.462 77.0169C155.982 77.2938 156.538 77.4981 157.115 77.6241C159.794 78.3768 162.308 79.6135 164.53 81.2717C165.173 81.85 165.936 82.2812 166.766 82.5346C167.185 82.6462 167.63 82.5988 168.015 82.4017C168.4 82.2047 168.696 81.8722 168.845 81.4699C169.038 80.6041 168.275 79.845 167.585 79.2791L168.795 80.8172Z" fill="#692E12"/>
<path d="M126.83 71.7099C125.607 71.4961 124.369 71.3805 123.127 71.3644C121.62 71.5391 120.178 72.0744 118.926 72.9238C118.295 73.4107 117.531 73.6988 116.732 73.7505C116.47 73.7231 116.215 73.6422 115.985 73.513C115.756 73.3838 115.555 73.2091 115.397 72.9997C115.239 72.7903 115.126 72.5508 115.066 72.2963C115.006 72.0418 114.999 71.7777 115.047 71.5206C115.317 70.7566 115.862 70.1174 116.577 69.7244C120.207 67.2666 127.34 64.752 130.218 68.9562C130.899 69.9518 131.239 72.1475 126.83 71.7099Z" fill="#692E12"/>
<path d="M141.316 99.1366C140.583 98.2704 139.578 97.6712 138.461 97.434C138.316 97.4008 138.17 97.3756 138.023 97.35C137.919 97.3325 137.813 97.3211 137.708 97.3159C137.412 97.2946 137.115 97.2945 136.819 97.3156C136.244 97.3674 135.681 97.5123 135.153 97.7443C134.939 97.803 134.711 97.7761 134.518 97.6694C134.325 97.5627 134.182 97.3849 134.121 97.1746C134.066 96.9639 134.095 96.7404 134.202 96.5504C134.31 96.3604 134.487 96.2185 134.697 96.1539C136.022 95.6232 137.48 95.5104 138.873 95.831C140.265 96.1515 141.523 96.8898 142.475 97.9447C142.629 98.0997 142.717 98.3071 142.722 98.5245C142.726 98.7418 142.646 98.9526 142.498 99.1135C142.344 99.27 142.133 99.3601 141.912 99.3644C141.691 99.3688 141.477 99.287 141.316 99.1366L141.316 99.1366Z" fill="#DD664A"/>
<path d="M178.397 85.996C176.023 85.019 174.138 83.1521 173.152 80.8037C172.167 78.4553 172.162 75.8165 173.138 73.4645C171.532 74.2184 169.73 74.4664 167.976 74.1749C166.222 73.8834 164.601 73.0665 163.332 71.8346C162.063 70.6027 161.206 69.0152 160.879 67.2865C160.551 65.5579 160.768 63.7714 161.5 62.1686C160.022 63.2809 158.252 63.9494 156.401 64.0944C151.731 64.5194 147.097 61.9286 144.397 58.137C141.81 54.2198 140.618 49.562 141.007 44.8996C141.162 49.3913 138.816 52.7174 135.071 53.9946C133.166 54.5568 131.149 54.6327 129.206 54.2153C127.264 53.7979 125.461 52.9008 123.964 51.6076C126.723 54.3941 126.221 59.467 123.253 62.036C120.286 64.605 115.549 64.6286 112.243 62.5019C112.659 63.6855 112.747 64.9572 112.499 66.1858C112.252 67.4144 111.677 68.5555 110.835 69.4912C109.124 71.3404 107.034 72.8068 104.704 73.7923C102.191 70.9466 101.375 67.0034 101.199 63.2296C100.766 52.8772 104.397 42.7601 111.333 34.9946C113.884 32.271 116.662 29.7633 119.636 27.4978C121.48 25.9394 123.498 24.5936 125.649 23.4862C130.057 21.394 135.133 21.2404 140.018 21.4358C144.247 21.5271 148.453 22.0843 152.558 23.0973C158.767 24.7536 164.431 27.9384 170.017 31.0911C173.685 33.1618 177.5 35.3673 179.76 38.8968C181.568 41.7194 182.192 45.1085 183.505 48.1871C184.582 50.7157 186.132 53.0498 186.949 55.6721C188.636 61.0877 187.003 66.9115 185.318 72.3279C184.154 76.0699 182.964 79.8038 181.747 83.5295C181.397 84.6025 180.664 85.9155 179.544 85.7043L178.397 85.996Z" fill="#732C15"/>
<path d="M173.899 83.9682C174.109 83.4015 174.513 82.9255 175.041 82.6232C175.569 82.3209 176.187 82.2114 176.789 82.3137C177.621 82.5299 178.351 83.0271 178.851 83.7194C180.057 85.3373 180.627 87.3333 180.456 89.336C180.278 91.3225 179.739 93.2609 178.864 95.058C178.482 96.0043 177.946 96.8824 177.277 97.6572C176.604 98.3768 175.745 98.9013 174.792 99.1742C173.84 99.4471 172.83 99.4581 171.872 99.2061C170.914 98.9541 170.043 98.4486 169.354 97.744C168.664 97.0393 168.182 96.1621 167.959 95.2067L173.899 83.9682Z" fill="#FFBF94"/>
<path d="M174.732 86.2047C174.732 86.2047 178.444 86.0231 177.207 91.8107C175.971 97.5983 171.383 95.7345 171.383 95.7345C172.583 94.4656 173.501 92.962 174.078 91.3206C174.655 89.6792 174.878 87.9364 174.732 86.2047V86.2047Z" fill="#F49B73"/>
<path d="M109.647 73.1327C109.493 72.4417 109.197 71.7893 108.777 71.216C108.358 70.6426 107.824 70.1604 107.208 69.7993C106.751 69.5186 106.233 69.3481 105.696 69.3015C104.264 69.2166 103.033 70.3127 102.241 71.496C101.254 73.0631 100.654 74.8376 100.488 76.6762C100.323 78.5149 100.596 80.3663 101.287 82.0813C101.552 82.8437 101.973 83.5438 102.524 84.138C103.282 84.8342 104.287 85.2083 105.321 85.1798C106.356 85.1514 107.338 84.7228 108.056 83.986L109.647 73.1327Z" fill="#FFBF94"/>
<path d="M105.812 82.7985C105.812 82.7985 101.451 83.4461 102.512 77.6246C103.742 70.8835 107.789 73.9625 107.789 73.9625C106.457 76.7201 105.781 79.7426 105.812 82.7985V82.7985Z" fill="#F49B73"/>
<path d="M170.062 99.8914C170.192 100.344 170.454 100.749 170.817 101.054C171.179 101.359 171.625 101.552 172.098 101.606C172.57 101.661 173.049 101.576 173.473 101.362C173.897 101.147 174.247 100.814 174.479 100.403C174.711 99.9915 174.814 99.5217 174.776 99.0525C174.738 98.5832 174.56 98.1357 174.265 97.7664C173.97 97.3971 173.571 97.1227 173.118 96.9778C172.665 96.8329 172.179 96.8241 171.721 96.9525C171.107 97.1247 170.587 97.531 170.276 98.0822C169.965 98.6333 169.888 99.2841 170.062 99.8914V99.8914Z" fill="#EECAB9"/>
<path d="M102.972 86.4266C103.102 86.8795 103.365 87.2842 103.727 87.5894C104.089 87.8946 104.535 88.0867 105.008 88.1414C105.481 88.1961 105.959 88.111 106.383 87.8967C106.807 87.6824 107.157 87.3487 107.389 86.9377C107.621 86.5267 107.724 86.0568 107.686 85.5876C107.648 85.1184 107.471 84.6708 107.175 84.3015C106.88 83.9323 106.481 83.6578 106.028 83.513C105.575 83.3681 105.089 83.3593 104.631 83.4877C104.327 83.5729 104.043 83.7166 103.795 83.9104C103.547 84.1042 103.34 84.3444 103.186 84.6174C103.032 84.8903 102.934 85.1905 102.897 85.5009C102.86 85.8114 102.886 86.1259 102.972 86.4266V86.4266Z" fill="#EECAB9"/>
<path d="M171.254 98.8593C171.321 99.0932 171.457 99.3022 171.644 99.4599C171.831 99.6175 172.061 99.7167 172.305 99.745C172.55 99.7732 172.797 99.7293 173.016 99.6186C173.235 99.5079 173.415 99.3356 173.535 99.1233C173.655 98.911 173.708 98.6684 173.689 98.4261C173.669 98.1837 173.577 97.9526 173.425 97.7618C173.273 97.5711 173.066 97.4294 172.832 97.3546C172.599 97.2798 172.347 97.2752 172.111 97.3415C171.954 97.3855 171.807 97.4597 171.679 97.5598C171.551 97.6599 171.444 97.784 171.365 97.9249C171.285 98.0659 171.234 98.2209 171.215 98.3813C171.196 98.5416 171.21 98.704 171.254 98.8593Z" fill="white"/>
<path d="M103.969 85.6904C104.036 85.9243 104.172 86.1333 104.359 86.2909C104.546 86.4485 104.776 86.5478 105.02 86.576C105.264 86.6043 105.512 86.5603 105.731 86.4496C105.949 86.3389 106.13 86.1666 106.25 85.9543C106.37 85.742 106.423 85.4994 106.404 85.2571C106.384 85.0147 106.292 84.7836 106.14 84.5929C105.987 84.4022 105.781 84.2604 105.547 84.1856C105.313 84.1108 105.062 84.1063 104.826 84.1726C104.509 84.2615 104.24 84.4714 104.08 84.756C103.919 85.0407 103.879 85.3768 103.969 85.6904V85.6904Z" fill="white"/>
<path d="M84.4974 76.7535C86.5377 75.2544 88.0198 73.1304 88.7132 70.712C90.1671 65.3589 87.304 59.7041 87.9886 54.203C89.1797 44.6195 99.953 39.5547 105.391 31.5353C108.652 26.7267 110.71 20.1276 116.339 18.541C121.355 17.1291 126.25 20.6018 131.066 22.5735C136.391 24.7371 142.283 25.1278 147.852 23.6865C152.838 22.3832 157.781 19.6031 162.826 20.6572C168.208 21.7858 171.711 26.9148 173.867 31.9229C176.023 36.9284 177.551 42.4307 181.399 46.3202C187.592 52.5821 197.83 52.7905 205.047 57.8662C207.948 59.9326 210.246 62.7185 211.711 65.9433C211.171 61.207 208.991 56.8012 205.542 53.472C200.835 48.9612 194.052 46.5214 190.625 40.999C186.146 33.7783 191.406 24.9041 187.307 17.3707C184.406 12.0386 178.208 9.2746 172.188 8.1644C166.037 7.03782 159.713 7.24472 153.651 8.77084C147.667 10.2822 141.702 12.0891 135.487 10.8418C129.517 9.64322 123.841 6.46932 117.59 7.0764C110.735 7.74086 105.198 12.91 101.196 18.4535C97.4847 23.5889 94.5241 29.2212 90.1722 33.889C86.0689 38.2925 81.7813 42.7704 79.3146 48.3273C77.3171 53.0556 76.7436 58.254 77.6631 63.297C78.5826 68.3401 80.9558 73.0129 84.4974 76.7535V76.7535Z" fill="#7F391F"/>
<path d="M149.535 27.5371C151.871 26.1465 154.633 25.6254 157.323 26.0673C160.091 26.5163 162.655 27.7926 164.668 29.7245C169.166 33.9588 170.703 40.0257 173.425 45.337C174.662 48.0074 176.535 50.3418 178.883 52.1407C181.188 53.6987 183.766 54.8178 186.486 55.4403C189.507 56.197 192.534 56.5826 195.263 58.1863C197.675 59.5937 199.704 61.5612 201.174 63.9184C203.017 66.9124 202.665 69.9863 200.807 72.893C199.183 75.433 196.779 77.3828 193.693 77.6119C193.571 77.6101 193.451 77.5733 193.349 77.5059C193.248 77.4385 193.168 77.3434 193.119 77.232C193.071 77.1206 193.056 76.9978 193.077 76.8783C193.097 76.7588 193.152 76.6478 193.235 76.5586C195.138 75.1232 196.776 73.3728 198.075 71.3848C198.742 70.3667 199.114 69.187 199.15 67.9743C198.899 66.6842 198.245 65.5044 197.281 64.6012C195.731 62.8389 193.737 61.514 191.501 60.7614C188.912 59.9154 186.16 59.7318 183.551 58.948C178.517 57.4978 174.209 54.246 171.467 49.8262C168.633 45.1728 167.489 39.7266 164.596 35.1065C163.195 32.7231 161.097 30.816 158.577 29.6372C155.886 28.5304 152.929 28.2168 150.062 28.7341C149.366 28.8703 148.838 27.9208 149.535 27.5371Z" fill="#7F391F"/>
<path d="M95.8684 62.1015C96.7948 60.3097 97.3198 58.3416 97.4077 56.331C97.3837 54.3959 97.038 52.4794 97.1024 50.5402C97.094 48.5976 97.6731 46.6968 98.7652 45.0821C100.111 43.2178 102.115 42.2198 103.936 40.8984C107.363 38.4123 108.83 33.8666 111.402 30.6304C114.237 27.0634 118.258 25.0552 122.857 26.1724C125.245 26.8933 127.55 27.8594 129.735 29.0549C130.888 29.6359 132.11 30.0728 133.372 30.3556C134.618 30.6054 135.876 30.4906 137.116 30.6847C137.145 30.6894 137.149 30.7264 137.133 30.7455C135.978 32.1231 133.791 32.1063 132.151 31.9129C129.985 31.578 127.867 30.9853 125.845 30.1477C123.89 29.4221 121.706 28.6572 119.588 29.0136C117.489 29.5232 115.677 30.8314 114.547 32.6539C112.011 36.1937 110.842 40.5591 107.486 43.5353C105.899 44.942 103.793 45.6846 102.273 47.1218C101.106 48.4673 100.429 50.161 100.35 51.932C99.9049 55.3684 100.53 61.3244 96.5679 62.9766C96.0205 63.2049 95.6915 62.5176 95.8684 62.1015Z" fill="#7F391F"/>
<path d="M120.092 46.9385C120.36 42.5184 124.418 39.5228 128.443 38.3146C130.808 37.6045 133.151 37.8267 135.581 37.8943C136.924 37.982 138.273 37.8518 139.574 37.5087C140.795 37.1373 141.897 36.5665 143.07 36.0915C143.153 36.058 143.203 36.1605 143.176 36.2241C141.154 40.9272 135.208 39.7083 131.211 40.2972C126.696 40.9623 123.871 44.1418 120.92 47.2647C120.853 47.3306 120.767 47.3757 120.675 47.3944C120.582 47.4131 120.486 47.4046 120.398 47.37C120.31 47.3353 120.234 47.276 120.18 47.1994C120.125 47.1227 120.095 47.032 120.092 46.9385Z" fill="#7F391F"/>
<path d="M146.581 48.9043C146.733 46.9664 147.183 45.0627 147.914 43.2585C148.656 41.3448 150.056 39.1205 149.573 36.9934C149.558 36.932 149.563 36.8672 149.587 36.8086C149.611 36.75 149.654 36.7007 149.709 36.6681C149.764 36.6355 149.828 36.6212 149.892 36.6274C149.956 36.6336 150.016 36.6599 150.063 36.7025C152.284 38.7844 150.735 41.8395 150.139 44.3177C149.466 47.1155 149.239 50.255 150.803 52.8146C152.315 55.2886 155.132 55.7298 157.857 55.6201C159.286 55.6306 160.677 55.1638 161.805 54.2951C162.563 53.4644 163.083 52.4482 163.311 51.352C163.358 51.184 163.448 51.0309 163.573 50.9074C163.697 50.7838 163.852 50.6939 164.022 50.6464C164.191 50.5988 164.37 50.5951 164.542 50.6357C164.714 50.6763 164.872 50.7598 165.001 50.8781C167.813 53.45 164.918 57.718 162.235 58.9875C160.379 59.7469 158.367 60.0589 156.364 59.8977C154.362 59.7364 152.428 59.1066 150.72 58.0601C149.299 57.0083 148.174 55.6154 147.449 54.0133C146.725 52.4111 146.426 50.6527 146.581 48.9043Z" fill="#7F391F"/>
<path d="M166.077 65.4026C165.957 64.0999 166.217 62.7904 166.827 61.6297C167.413 60.503 168.357 59.5986 169.515 59.0568C169.545 59.041 169.59 59.0741 169.567 59.1059C167.719 61.6329 167.158 65.5402 169.626 67.872C170.161 68.3978 170.831 68.7689 171.564 68.9448C172.296 69.1207 173.064 69.0948 173.783 68.8699C174.355 68.6778 175.287 68.1674 175.424 67.5139C175.589 66.7252 174.739 66.1324 174.13 65.8088C174.029 65.7518 173.945 65.6698 173.886 65.5711C173.827 65.4724 173.795 65.3602 173.793 65.2455C173.791 65.1308 173.819 65.0175 173.874 64.9168C173.93 64.816 174.01 64.7311 174.109 64.6705C176.588 63.5099 178.734 66.176 178.01 68.5502C177.155 71.3548 173.402 72.2053 170.87 71.4509C169.549 71.035 168.386 70.2358 167.531 69.157C166.677 68.0783 166.17 66.7701 166.077 65.4026V65.4026Z" fill="#7F391F"/>
<path d="M178.84 78.4423C178.75 77.0656 179.002 75.6881 179.575 74.4301C180.147 73.172 181.022 72.0716 182.123 71.225C182.212 71.1516 182.374 71.2404 182.3 71.3546C181.432 72.7468 180.947 74.3394 180.893 75.9743C180.839 77.6092 181.218 79.2297 181.993 80.6749C182.815 82.0778 184.06 83.1918 185.554 83.8614C187.049 84.5331 188.746 84.6593 190.162 85.5285C192.627 87.0412 193.435 90.3036 193.507 92.99C193.578 95.6451 192.839 98.3787 190.383 99.7812C189.876 100.07 189.244 99.3695 189.717 98.9598C192.056 96.9355 191.822 93.231 190.858 90.5774C190.617 89.7958 190.188 89.0838 189.607 88.5027C189.026 87.9216 188.311 87.4886 187.523 87.2411C186.006 86.884 184.549 86.3125 183.196 85.5443C181.984 84.7528 180.965 83.7053 180.212 82.4772C179.458 81.2491 178.99 79.871 178.84 78.4423V78.4423Z" fill="#7F391F"/>
<path d="M111.017 51.2376C111.166 51.2768 111.303 51.3537 111.413 51.4607C111.523 51.5677 111.603 51.7012 111.645 51.848C111.687 51.9949 111.69 52.15 111.653 52.2982C111.616 52.4464 111.541 52.5825 111.435 52.6933C109.814 54.0027 110.845 55.8014 112.646 56.2219C113.542 56.3743 114.464 56.2325 115.271 55.8182C116.078 55.404 116.726 54.74 117.115 53.9276C117.951 52.2252 115.935 50.419 115.718 48.6908C115.541 47.1916 115.948 45.6821 116.857 44.4698C116.867 44.4572 116.882 44.4712 116.881 44.4828C116.633 46.1819 116.958 47.9145 117.806 49.4125C118.51 50.6382 119.535 51.6947 119.567 53.1875C119.623 55.7418 117.119 58.1082 114.8 58.7799C113.629 59.1386 112.367 59.0628 111.249 58.5666C110.131 58.0704 109.234 57.188 108.727 56.0848C107.904 54.1247 108.22 50.894 111.017 51.2376Z" fill="#7F391F"/>
<path d="M90.5462 77.9754C90.3576 75.8826 90.9947 73.7989 92.324 72.16C93.8592 70.3324 95.8397 68.9216 98.0788 68.0605C100.5 67.0145 102.793 66.2892 104.004 63.7638C104.019 63.7361 104.042 63.7129 104.07 63.6966C104.098 63.6804 104.129 63.6715 104.162 63.6709C104.194 63.6704 104.226 63.6781 104.254 63.6934C104.282 63.7086 104.306 63.7309 104.323 63.7581C106.151 67.8356 99.4133 69.5756 97.0328 71.0251C96.0188 71.5569 95.1312 72.2965 94.4291 73.1946C93.727 74.0926 93.2266 75.1283 92.9614 76.2327C92.5813 78.5224 94.0785 80.9804 95.4531 82.7073C95.9559 83.339 94.9661 83.942 94.422 83.5239C93.4192 82.8661 92.5309 82.0518 91.7917 81.1126C91.1191 80.1856 90.691 79.1073 90.5462 77.9754V77.9754Z" fill="#7F391F"/>
<path d="M80.1503 97.1847C80.5172 95.2377 81.0851 93.3331 81.8449 91.5007C82.2659 90.4914 82.7102 89.4881 83.1917 88.5056C83.69 87.4889 84.3517 86.6575 84.9313 85.7129C84.9472 85.6866 84.972 85.6669 85.0014 85.6571C85.0307 85.6474 85.0625 85.6482 85.0912 85.6596C85.1199 85.671 85.1436 85.6921 85.158 85.7192C85.1724 85.7462 85.1765 85.7775 85.1697 85.8073C85.0273 86.5923 85.0493 87.3593 84.8597 88.159C84.6412 89.0798 84.3998 89.9951 84.1811 90.9158C83.7631 92.6754 83.3321 94.4457 83.0413 96.2311C82.3315 99.966 82.5621 103.816 83.7129 107.442C86.0192 114.214 91.6862 118.492 98.6096 120.001C98.8981 120.084 99.1475 120.265 99.3128 120.513C99.4782 120.761 99.5489 121.06 99.5121 121.354C99.4753 121.649 99.3335 121.922 99.1121 122.122C98.8907 122.323 98.6042 122.439 98.304 122.45C90.3927 122.463 83.7682 116.479 81.1028 109.414C79.6808 105.496 79.3518 101.272 80.1503 97.1847Z" fill="#7F391F"/>
<path d="M128.206 100.709C128.206 100.709 128.121 101.407 128.109 102.482C128.04 104.804 128.441 107.117 129.288 109.284C129.728 110.452 130.472 111.482 131.446 112.272C132.42 113.061 133.589 113.58 134.832 113.777C136.14 113.97 137.477 113.814 138.703 113.323C139.929 112.832 140.999 112.024 141.803 110.985C143.306 109.166 144.463 107.093 145.22 104.866C145.616 103.76 145.796 103.009 145.796 103.009C139.841 104.304 133.616 103.49 128.206 100.709V100.709Z" fill="#9F2236"/>
<path d="M128.206 100.709C128.206 100.709 128.121 101.407 128.109 102.482C130.087 104.439 132.552 105.847 135.255 106.562C139.381 107.608 143.45 105.821 145.22 104.866C145.616 103.76 145.796 103.009 145.796 103.009C139.841 104.304 133.616 103.49 128.206 100.709V100.709Z" fill="white"/>
<path d="M129.289 109.285C129.728 110.452 130.473 111.483 131.447 112.273C132.421 113.062 133.59 113.581 134.833 113.778C136.141 113.971 137.478 113.815 138.704 113.324C139.93 112.833 141 112.025 141.803 110.986C140.863 110.399 139.805 110.022 138.702 109.882C137.599 109.742 136.479 109.842 135.419 110.175C135.419 110.175 133.205 108.327 129.289 109.285Z" fill="#FF6551"/>
<path d="M125.079 90.5819C128.435 89.1009 129.942 85.2093 128.445 81.8897C126.947 78.5701 123.012 77.0796 119.656 78.5606C116.299 80.0416 114.792 83.9332 116.29 87.2528C117.787 90.5724 121.722 92.0629 125.079 90.5819Z" fill="white"/>
<path d="M126.832 88.3464C128.494 85.9323 127.862 82.6433 125.421 81.0003C122.98 79.3573 119.654 79.9824 117.993 82.3965C116.331 84.8106 116.963 88.0995 119.404 89.7425C121.845 91.3856 125.171 90.7605 126.832 88.3464Z" fill="black"/>
<path d="M125.477 85.5592C125.636 85.8649 125.699 86.2104 125.66 86.5519C125.62 86.8934 125.479 87.2157 125.255 87.478C125.03 87.7403 124.732 87.9307 124.397 88.0253C124.063 88.1199 123.708 88.1144 123.377 88.0094C123.046 87.9045 122.754 87.7048 122.538 87.4357C122.322 87.1665 122.191 86.84 122.162 86.4974C122.134 86.1548 122.208 85.8115 122.377 85.511C122.546 85.2104 122.801 84.966 123.11 84.8087C123.315 84.7043 123.539 84.6409 123.769 84.6221C123.999 84.6033 124.231 84.6295 124.45 84.6992C124.67 84.7689 124.874 84.8807 125.05 85.0283C125.226 85.1758 125.371 85.3563 125.477 85.5592V85.5592Z" fill="white"/>
<path d="M162.989 91.6319C163.29 88.0092 160.565 84.8308 156.902 84.5328C153.238 84.2348 150.025 86.93 149.723 90.5528C149.422 94.1755 152.147 97.3539 155.81 97.6519C159.474 97.9499 162.687 95.2546 162.989 91.6319Z" fill="white"/>
<path d="M157.976 96.6111C160.738 95.5789 162.131 92.5277 161.088 89.796C160.044 87.0644 156.959 85.6867 154.197 86.7189C151.434 87.7511 150.041 90.8023 151.085 93.534C152.129 96.2656 155.214 97.6433 157.976 96.6111Z" fill="black"/>
<path d="M152.065 91.8817C152.081 92.1941 152.191 92.4947 152.38 92.7455C152.569 92.9963 152.829 93.186 153.127 93.2906C153.425 93.3953 153.747 93.4102 154.054 93.3335C154.361 93.2567 154.637 93.0918 154.849 92.8595C155.061 92.6272 155.198 92.338 155.244 92.0285C155.29 91.719 155.242 91.403 155.106 91.1206C154.97 90.8381 154.752 90.6019 154.48 90.4418C154.209 90.2816 153.895 90.2047 153.579 90.2209C153.156 90.2425 152.758 90.4296 152.474 90.7411C152.19 91.0525 152.043 91.4628 152.065 91.8817Z" fill="white"/>
<path d="M181.065 183.699L180.637 184.94L179.79 187.403L131.058 188.547L82.3255 187.403L81.0508 183.699C88.6553 183.576 96.2212 182.6 103.603 180.789C114.716 177.88 126.155 177.557 131.058 182.406C135.96 177.557 147.4 177.88 158.513 180.789C165.894 182.6 173.46 183.576 181.065 183.699V183.699Z" fill="#FFEBDD"/>
<path d="M180.41 189.194H81.7031V186.931H83.1276H180.41V189.194Z" fill="#FF6551"/>
<path d="M181.064 183.699L180.635 184.94C174.324 185.214 163.741 184.022 152.301 181.113C140.862 178.204 131.383 183.699 131.057 183.699V182.406C135.959 177.557 147.399 177.88 158.511 180.789C165.893 182.6 173.459 183.576 181.064 183.699V183.699Z" fill="#F5C6B1"/>
<path d="M81.0508 183.699L81.479 184.94C87.7903 185.214 98.3735 184.022 109.813 181.113C121.252 178.204 130.731 183.699 131.058 183.699V182.406C126.155 177.557 114.716 177.88 103.603 180.789C96.2212 182.6 88.6553 183.576 81.0508 183.699V183.699Z" fill="#F5C6B1"/>
</svg>
