<svg width="280" height="480" viewBox="0 0 280 480" fill="none" xmlns="http://www.w3.org/2000/svg">
<path d="M167.253 426.907C120.093 428.391 72.9342 429.875 25.775 431.36C18.1343 431.6 11.7269 425.142 11.5179 416.933C10.5699 375.511 10.5369 334.099 11.419 292.695C11.615 284.487 18.0121 278.018 25.6531 278.246C72.8146 279.655 119.976 281.064 167.138 282.473C170.809 282.589 174.286 284.156 176.808 286.83C179.33 289.504 180.694 293.07 180.601 296.747C179.788 335.379 179.818 374.001 180.693 412.611C180.792 416.288 179.434 419.856 176.916 422.534C174.398 425.213 170.924 426.785 167.253 426.907V426.907Z" fill="#243976"/>
<path d="M163.409 423.261C116.247 424.67 69.0858 426.079 21.9242 427.489C14.2831 427.717 7.8857 421.238 7.68947 413.017C6.80608 371.532 6.83907 330.058 7.78846 288.595C7.9978 280.374 14.4054 273.906 22.0462 274.146C69.2054 275.63 116.365 277.115 163.524 278.599C167.198 278.724 170.673 280.3 173.191 282.983C175.71 285.665 177.066 289.236 176.964 292.917C176.088 331.609 176.057 370.292 176.872 408.965C176.968 412.646 175.606 416.215 173.083 418.893C170.561 421.572 167.083 423.142 163.409 423.261Z" fill="#864FF1"/>
<path d="M83.5501 276.082L22.0469 274.146C14.4061 273.906 7.99848 280.374 7.78915 288.595C7.38529 306.003 7.12224 323.411 7 340.819C11.728 301.842 45.6594 276.467 83.5501 276.082Z" fill="#9768F3"/>
<path d="M163.524 278.599C150.864 278.2 138.204 277.802 125.544 277.403C137.559 282.413 148.046 290.504 155.948 300.862C181.098 334.199 141.578 371.871 112.663 384.265C80.0041 398.264 38.5494 400.55 7.13477 381.542C7.24747 392.034 7.43247 402.525 7.68975 413.017C7.88598 421.238 14.2834 427.716 21.9245 427.488C69.086 426.079 116.248 424.67 163.409 423.261C167.083 423.142 170.561 421.571 173.084 418.893C175.606 416.214 176.968 412.645 176.872 408.965C176.057 370.271 176.088 331.588 176.964 292.917C177.066 289.236 175.71 285.665 173.192 282.982C170.674 280.3 167.198 278.724 163.524 278.599V278.599Z" fill="#602A9F"/>
<path d="M160.868 418.926C115.314 420.202 69.7602 421.478 24.2065 422.754C17.9509 422.929 12.7248 417.627 12.5698 410.91C11.8808 377.389 11.7766 343.873 12.2572 310.361C65.3751 311.26 118.493 312.159 171.611 313.057C171.161 344.452 171.259 375.839 171.904 407.22C171.983 410.236 170.866 413.16 168.798 415.354C166.73 417.547 163.879 418.832 160.868 418.926V418.926Z" fill="white"/>
<path d="M125.298 305.333C104.825 304.927 84.3524 304.522 63.8794 304.116C63.0804 304.08 62.2965 303.886 61.5723 303.546C60.8481 303.206 60.198 302.727 59.6591 302.135C59.1202 301.543 58.7031 300.85 58.4316 300.097C58.1601 299.343 58.0396 298.544 58.077 297.744V297.744C58.0753 296.943 58.2313 296.149 58.5361 295.409C58.8409 294.668 59.2884 293.995 59.8532 293.428C60.4179 292.86 61.0888 292.41 61.8274 292.103C62.566 291.796 63.3578 291.637 64.1576 291.637C84.6282 292.146 105.099 292.656 125.57 293.166C127.16 293.223 128.662 293.91 129.748 295.075C130.833 296.24 131.413 297.789 131.36 299.382V299.382C131.342 300.975 130.694 302.497 129.557 303.612C128.421 304.728 126.889 305.347 125.298 305.333V305.333Z" fill="white"/>
<path d="M171.21 294.302C171.187 295.037 170.948 295.749 170.521 296.348C170.095 296.948 169.501 297.407 168.814 297.668C168.128 297.93 167.379 297.982 166.663 297.817C165.947 297.653 165.296 297.28 164.791 296.745C164.287 296.211 163.952 295.538 163.828 294.813C163.705 294.088 163.799 293.342 164.098 292.671C164.397 291.999 164.888 291.431 165.51 291.038C166.131 290.646 166.854 290.446 167.589 290.465C168.577 290.494 169.513 290.914 170.192 291.633C170.87 292.353 171.237 293.312 171.21 294.302Z" fill="white"/>
<path d="M158.739 293.992C158.712 294.726 158.47 295.436 158.041 296.033C157.612 296.629 157.017 297.085 156.33 297.344C155.643 297.602 154.896 297.651 154.181 297.485C153.466 297.319 152.817 296.944 152.314 296.409C151.811 295.873 151.478 295.201 151.356 294.476C151.234 293.751 151.329 293.007 151.629 292.336C151.929 291.665 152.42 291.098 153.041 290.707C153.662 290.315 154.385 290.116 155.118 290.135C156.109 290.166 157.046 290.59 157.725 291.313C158.404 292.036 158.768 293 158.739 293.992V293.992Z" fill="white"/>
<path d="M145.881 293.671C145.851 294.405 145.605 295.113 145.174 295.706C144.743 296.3 144.146 296.753 143.459 297.009C142.772 297.264 142.025 297.31 141.311 297.142C140.598 296.973 139.95 296.597 139.45 296.061C138.949 295.525 138.618 294.852 138.498 294.128C138.377 293.404 138.474 292.66 138.774 291.991C139.074 291.321 139.566 290.755 140.186 290.365C140.806 289.974 141.528 289.775 142.261 289.794C143.254 289.828 144.193 290.256 144.872 290.983C145.55 291.71 145.913 292.676 145.881 293.671V293.671Z" fill="white"/>
<path d="M150.785 395.859L36.9135 397.927C36.5016 371.436 36.4443 344.95 36.7417 318.469C74.7016 318.993 112.662 319.518 150.621 320.043C150.338 345.322 150.392 370.594 150.785 395.859Z" fill="#FF6551"/>
<path d="M148.95 410.086C112.42 410.968 75.8904 411.85 39.3604 412.732C38.7769 412.729 38.2187 412.493 37.8085 412.077C37.3983 411.662 37.1697 411.1 37.1729 410.515C37.1426 409.932 37.3449 409.36 37.7354 408.925C38.126 408.491 38.6727 408.23 39.2554 408.199C75.7869 407.384 112.318 406.568 148.85 405.753C149.42 405.744 149.97 405.962 150.379 406.359C150.788 406.756 151.024 407.3 151.033 407.87C151.05 408.441 150.84 408.995 150.45 409.41C150.059 409.826 149.52 410.069 148.95 410.086Z" fill="#BFBFBF"/>
<path d="M39.255 408.2C38.6784 408.247 38.1415 408.513 37.7544 408.943C37.3672 409.374 37.1591 409.937 37.1725 410.516C37.1859 411.095 37.4199 411.647 37.8265 412.06C38.2332 412.472 38.7818 412.713 39.36 412.733C53.3532 412.395 67.3464 412.057 81.3395 411.719C81.2966 409.937 81.276 409.045 81.2363 407.263L39.255 408.2Z" fill="#2435A1"/>
<path d="M93.3745 380.871C87.7446 380.845 82.3545 378.585 78.3858 374.586C76.1982 372.439 74.459 369.878 73.2694 367.052C72.0799 364.226 71.4638 361.191 71.4571 358.123C71.4504 355.056 72.0532 352.018 73.2303 349.187C74.4075 346.356 76.1355 343.787 78.3137 341.631C80.2811 339.631 82.624 338.04 85.2076 336.95C87.7913 335.86 90.5646 335.292 93.3681 335.279C93.4169 335.279 93.4651 335.279 93.5139 335.28C105.381 335.363 115.429 345.781 115.456 358.028C115.482 370.274 105.479 380.734 93.6123 380.869C93.5334 380.87 93.4534 380.871 93.3745 380.871ZM93.3686 338.24C90.9523 338.254 88.5625 338.746 86.3367 339.688C84.1109 340.63 82.093 342.004 80.3992 343.73C78.4979 345.61 76.9893 347.851 75.9617 350.321C74.934 352.791 74.4077 355.441 74.4136 358.117C74.4194 360.793 74.9573 363.441 75.9958 365.907C77.0342 368.372 78.5525 370.606 80.4621 372.478C83.8791 375.929 88.5228 377.882 93.3755 377.91C93.4432 377.91 93.511 377.909 93.5787 377.909C103.858 377.792 112.522 368.69 112.499 358.034C112.476 347.377 103.772 338.314 93.4934 338.24H93.3686Z" fill="white"/>
<path d="M88.9355 350.484C88.9292 357.089 88.9373 360.392 88.9757 366.997C94.8014 363.977 97.7167 362.476 103.552 359.492C97.6987 355.911 94.7753 354.109 88.9355 350.484Z" fill="white"/>
<path d="M87.0432 409.357C87.0247 410.372 86.7085 411.36 86.1341 412.197C85.5597 413.033 84.7523 413.683 83.8124 414.063C82.8725 414.444 81.8415 414.54 80.8477 414.339C79.8539 414.138 78.941 413.648 78.2227 412.931C77.5044 412.215 77.0123 411.302 76.8076 410.308C76.603 409.313 76.6947 408.28 77.0715 407.337C77.4483 406.395 78.0935 405.584 78.9268 405.005C79.7602 404.427 80.745 404.106 81.7586 404.084C83.1569 404.084 84.4983 404.638 85.4889 405.627C86.4794 406.615 87.0384 407.956 87.0432 409.357Z" fill="#FF6551"/>
<path d="M84.4094 409.418C84.4003 409.915 84.2454 410.399 83.964 410.809C83.6826 411.219 83.2871 411.537 82.8266 411.724C82.3662 411.91 81.8611 411.957 81.3741 411.859C80.8872 411.76 80.4399 411.521 80.0879 411.17C79.7359 410.819 79.4946 410.372 79.3942 409.885C79.2937 409.397 79.3384 408.891 79.5228 408.429C79.7072 407.967 80.0231 407.57 80.4313 407.286C80.8394 407.002 81.3218 406.845 81.8184 406.834C82.5039 406.833 83.1616 407.105 83.6474 407.589C84.1331 408.074 84.4072 408.731 84.4094 409.418V409.418Z" fill="white"/>
<g style="mix-blend-mode:multiply" opacity="0.35">
<path d="M125.42 319.873C123.974 319.872 122.541 320.157 121.204 320.711C119.868 321.266 118.654 322.08 117.633 323.106C116.611 324.132 115.802 325.35 115.251 326.69C114.701 328.03 114.421 329.466 114.426 330.914C114.214 363.467 114.577 396.007 115.514 428.536C132.761 427.993 150.007 427.45 167.253 426.907C170.924 426.785 174.398 425.213 176.917 422.535C179.435 419.856 180.793 416.289 180.694 412.611C179.998 381.945 179.817 351.284 180.153 320.625C161.909 320.375 143.665 320.124 125.42 319.873Z" fill="#3F4D88"/>
</g>
<path d="M262.625 208.517C219.889 207.845 177.153 207.172 134.418 206.5C131.534 206.452 128.787 205.26 126.78 203.186C124.772 201.112 123.667 198.325 123.708 195.437C124.142 158.414 124.154 121.393 123.746 84.3753C123.707 81.487 124.814 78.7011 126.823 76.6286C128.832 74.5561 131.579 73.3662 134.463 73.3196C177.199 72.6763 219.935 72.033 262.671 71.3896C264.124 71.3926 265.561 71.6824 266.901 72.2424C268.242 72.8025 269.459 73.6218 270.482 74.6534C271.506 75.6851 272.317 76.9088 272.868 78.2547C273.419 79.6005 273.699 81.0419 273.693 82.4964C274.115 120.806 274.102 159.114 273.654 197.418C273.659 198.872 273.378 200.314 272.826 201.659C272.274 203.004 271.462 204.228 270.438 205.259C269.414 206.29 268.196 207.108 266.855 207.667C265.515 208.226 264.077 208.515 262.625 208.517V208.517Z" fill="#243976"/>
<path d="M259.742 205.444C217.005 204.8 174.269 204.157 131.533 203.514C128.651 203.468 125.903 202.28 123.894 200.208C121.885 198.137 120.778 195.353 120.816 192.465C121.224 155.467 121.212 118.472 120.778 81.4789C120.739 78.5916 121.844 75.8063 123.851 73.7338C125.859 71.6614 128.605 70.4709 131.488 70.4234C174.224 69.751 216.959 69.0786 259.695 68.4062C261.147 68.4077 262.584 68.6959 263.925 69.2544C265.265 69.8129 266.482 70.6307 267.507 71.661C268.531 72.6913 269.343 73.9138 269.895 75.2586C270.447 76.6034 270.729 78.0441 270.724 79.4981C271.172 117.783 271.185 156.065 270.763 194.344C270.769 195.798 270.488 197.239 269.937 198.584C269.385 199.929 268.575 201.152 267.551 202.183C266.527 203.214 265.311 204.033 263.97 204.592C262.63 205.152 261.193 205.441 259.742 205.444V205.444Z" fill="#49B3F7"/>
<path d="M259.694 68.4062L232.046 68.8413C245.869 72.9651 255.785 85.3031 258.055 98.5157C263.592 130.749 201.007 168.317 174.883 174.718C157.567 178.961 138.116 181.569 121.001 174.655C120.942 181.779 120.905 185.341 120.815 192.465C120.778 195.353 121.885 198.137 123.894 200.208C125.903 202.28 128.65 203.468 131.533 203.514C174.269 204.157 217.005 204.8 259.741 205.444C261.193 205.441 262.63 205.152 263.97 204.592C265.31 204.033 266.527 203.214 267.55 202.183C268.574 201.152 269.385 199.929 269.936 198.584C270.487 197.239 270.768 195.798 270.763 194.344C271.185 156.059 271.172 117.777 270.724 79.4981C270.728 78.0441 270.446 76.6034 269.894 75.2586C269.342 73.9138 268.531 72.6913 267.506 71.661C266.482 70.6308 265.264 69.813 263.924 69.2545C262.584 68.696 261.146 68.4077 259.694 68.4062V68.4062Z" fill="#378FDD"/>
<path d="M216.99 69.0781C188.489 69.5265 159.989 69.9749 131.488 70.4233C128.605 70.4708 125.859 71.6613 123.851 73.7337C121.844 75.8062 120.739 78.5914 120.778 81.4788C120.986 98.9914 121.11 116.504 121.151 134.016C139.484 98.3338 179.828 78.4982 216.99 69.0781Z" fill="#6CC1F9"/>
<path d="M257.896 201.874C216.424 201.283 174.952 200.691 133.48 200.1C131.119 200.064 128.869 199.091 127.224 197.396C125.578 195.7 124.671 193.419 124.702 191.055C125.039 159.801 125.081 128.548 124.826 97.2962C172.231 96.8444 219.637 96.3924 267.042 95.9404C267.304 128.225 267.261 160.508 266.913 192.788C266.918 193.978 266.688 195.157 266.237 196.258C265.786 197.359 265.123 198.36 264.286 199.204C263.448 200.048 262.453 200.718 261.356 201.176C260.26 201.634 259.084 201.871 257.896 201.874V201.874Z" fill="white"/>
<path d="M264.225 80.4895C264.213 81.0855 264.027 81.665 263.689 82.1556C263.351 82.6462 262.876 83.0263 262.324 83.2483C261.771 83.4704 261.166 83.5246 260.583 83.4043C260 83.2839 259.465 82.9943 259.046 82.5716C258.626 82.1489 258.34 81.6117 258.223 81.0272C258.106 80.4427 258.164 79.8366 258.389 79.2847C258.614 78.7327 258.996 78.2593 259.488 77.9236C259.979 77.5878 260.559 77.4045 261.154 77.3965C261.559 77.3976 261.959 77.4785 262.332 77.6345C262.705 77.7906 263.044 78.0187 263.329 78.306C263.614 78.5932 263.84 78.9338 263.994 79.3085C264.147 79.6831 264.226 80.0844 264.225 80.4895Z" fill="white"/>
<path d="M254.062 80.622C254.052 81.2183 253.867 81.7984 253.53 82.2899C253.193 82.7814 252.718 83.1625 252.166 83.3856C251.614 83.6087 251.008 83.664 250.425 83.5444C249.841 83.4248 249.306 83.1358 248.886 82.7133C248.466 82.2909 248.179 81.7538 248.061 81.1691C247.944 80.5844 248.001 79.9781 248.226 79.4258C248.451 78.8735 248.833 78.3997 249.325 78.0636C249.817 77.7276 250.396 77.5441 250.992 77.5361C251.396 77.5368 251.796 77.6171 252.169 77.7725C252.542 77.928 252.88 78.1555 253.165 78.442C253.45 78.7286 253.676 79.0686 253.83 79.4426C253.984 79.8167 254.063 80.2174 254.062 80.622V80.622Z" fill="white"/>
<path d="M243.585 80.7582C243.577 81.3548 243.393 81.9356 243.056 82.428C242.72 82.9204 242.246 83.3026 241.694 83.5268C241.142 83.751 240.536 83.8072 239.952 83.6884C239.369 83.5697 238.833 83.2812 238.412 82.8591C237.991 82.4369 237.703 81.8999 237.585 81.3151C237.467 80.7302 237.524 80.1236 237.749 79.5709C237.973 79.0182 238.355 78.544 238.847 78.2077C239.339 77.8713 239.919 77.6877 240.515 77.6797C240.919 77.6798 241.318 77.7596 241.691 77.9144C242.063 78.0692 242.402 78.296 242.687 78.5819C242.972 78.8678 243.198 79.2071 243.352 79.5805C243.507 79.954 243.586 80.3541 243.585 80.7582V80.7582Z" fill="white"/>
<path d="M224.203 90.9295L166.038 91.5553C164.749 91.5627 163.51 91.0575 162.593 90.1507C161.676 89.244 161.156 88.0098 161.147 86.7192V86.7192C161.126 85.4288 161.616 84.1826 162.511 83.2543C163.407 82.326 164.633 81.7915 165.922 81.7683L224.085 81.0117C224.728 81.0112 225.365 81.1377 225.959 81.3838C226.553 81.6299 227.093 81.9908 227.547 82.446C228.002 82.9012 228.363 83.4417 228.609 84.0366C228.855 84.6315 228.982 85.2691 228.982 85.913V85.913C228.997 86.5568 228.886 87.1973 228.654 87.7978C228.422 88.3984 228.074 88.9473 227.63 89.4132C227.186 89.8791 226.655 90.2528 226.067 90.513C225.479 90.7731 224.845 90.9147 224.203 90.9295Z" fill="white"/>
<path d="M146.528 127.299C145.365 127.295 144.25 126.83 143.428 126.006C142.607 125.181 142.144 124.065 142.141 122.9C142.127 118.931 142.117 116.947 142.094 112.977C142.086 111.81 142.54 110.688 143.357 109.856C144.174 109.024 145.287 108.55 146.452 108.538L156.31 108.471H156.34C156.913 108.47 157.48 108.582 158.009 108.801C158.538 109.021 159.018 109.343 159.423 109.749C159.834 110.157 160.16 110.644 160.384 111.179C160.607 111.714 160.723 112.289 160.724 112.869C160.747 116.854 160.757 118.848 160.771 122.833C160.775 123.416 160.664 123.995 160.443 124.535C160.222 125.075 159.897 125.566 159.485 125.978C159.081 126.388 158.601 126.713 158.071 126.935C157.541 127.157 156.973 127.272 156.399 127.272L146.54 127.299H146.528ZM156.34 109.893H156.32L146.461 109.96C145.672 109.969 144.919 110.29 144.367 110.855C143.814 111.419 143.508 112.179 143.514 112.969C143.537 116.939 143.547 118.925 143.561 122.894C143.562 123.683 143.874 124.439 144.43 124.998C144.986 125.557 145.74 125.873 146.528 125.877L146.536 125.876L156.395 125.849C156.783 125.849 157.167 125.771 157.524 125.622C157.882 125.472 158.206 125.252 158.478 124.976C158.757 124.695 158.978 124.362 159.128 123.995C159.278 123.628 159.354 123.235 159.351 122.839C159.337 118.854 159.327 116.862 159.304 112.877C159.303 112.483 159.225 112.092 159.073 111.729C158.921 111.365 158.699 111.035 158.42 110.757C158.147 110.483 157.823 110.265 157.466 110.117C157.109 109.969 156.726 109.893 156.34 109.893Z" fill="#FF6551"/>
<path d="M176.433 127.217C175.266 127.209 174.15 126.74 173.328 125.911C172.506 125.082 172.045 123.961 172.045 122.793C172.031 118.796 172.022 116.798 171.998 112.801C171.987 111.631 172.439 110.504 173.256 109.667C174.073 108.83 175.188 108.352 176.356 108.337L186.214 108.27C187.379 108.281 188.495 108.742 189.328 109.557C190.159 110.389 190.626 111.517 190.629 112.693C190.652 116.706 190.661 118.713 190.676 122.725C190.685 123.902 190.228 125.034 189.405 125.874C189.002 126.29 188.52 126.621 187.988 126.847C187.455 127.073 186.882 127.19 186.304 127.191L176.445 127.217H176.433ZM186.244 109.692H186.224L176.366 109.759C175.574 109.772 174.819 110.098 174.266 110.666C173.714 111.235 173.409 112 173.419 112.794C173.442 116.791 173.451 118.79 173.465 122.787C173.463 123.579 173.774 124.34 174.33 124.903C174.886 125.467 175.642 125.787 176.433 125.795L176.441 125.794L186.3 125.767C186.69 125.767 187.076 125.688 187.435 125.535C187.794 125.383 188.119 125.16 188.39 124.879C188.951 124.306 189.262 123.534 189.256 122.731C189.241 118.719 189.232 116.713 189.208 112.701C189.207 111.899 188.889 111.13 188.323 110.562C188.051 110.286 187.727 110.067 187.371 109.918C187.014 109.768 186.631 109.692 186.244 109.692V109.692Z" fill="#FF6551"/>
<path d="M206.337 127.136C205.167 127.125 204.049 126.651 203.226 125.817C202.404 124.983 201.945 123.857 201.948 122.685C201.934 118.661 201.924 116.65 201.901 112.626C201.886 111.452 202.337 110.321 203.153 109.479C203.97 108.637 205.087 108.154 206.258 108.136L216.116 108.068H216.146C216.721 108.068 217.29 108.182 217.82 108.405C218.35 108.627 218.83 108.954 219.232 109.365C220.063 110.204 220.529 111.336 220.531 112.517C220.555 116.557 220.564 118.578 220.578 122.618C220.588 123.799 220.132 124.936 219.31 125.783C218.908 126.201 218.426 126.534 217.893 126.762C217.36 126.99 216.786 127.108 216.207 127.109L206.348 127.136L206.337 127.136ZM216.146 109.491H216.126L206.268 109.558C205.473 109.574 204.716 109.905 204.163 110.478C203.611 111.052 203.308 111.821 203.321 112.618C203.344 116.642 203.354 118.655 203.368 122.679C203.363 123.475 203.672 124.241 204.228 124.809C204.785 125.377 205.543 125.702 206.337 125.713H206.345L216.203 125.685C216.593 125.685 216.979 125.605 217.338 125.451C217.697 125.298 218.021 125.073 218.292 124.791C218.854 124.211 219.165 123.432 219.158 122.624C219.144 118.584 219.134 116.565 219.111 112.525C219.11 111.716 218.791 110.94 218.223 110.366C217.953 110.089 217.63 109.869 217.273 109.718C216.916 109.568 216.533 109.491 216.146 109.491V109.491Z" fill="#FF6551"/>
<path d="M236.24 127.054C235.067 127.039 233.947 126.561 233.125 125.722C232.303 124.883 231.846 123.753 231.853 122.578C231.838 118.526 231.829 116.501 231.805 112.45C231.787 111.273 232.236 110.136 233.053 109.29C233.869 108.443 234.988 107.955 236.163 107.933L246.021 107.867L246.051 107.866C246.626 107.866 247.196 107.982 247.727 108.206C248.257 108.43 248.737 108.759 249.139 109.172C249.969 110.018 250.434 111.156 250.436 112.342C250.46 116.409 250.469 118.443 250.483 122.51C250.489 123.109 250.375 123.702 250.15 124.257C249.925 124.811 249.592 125.315 249.17 125.739C248.771 126.146 248.294 126.469 247.769 126.69C247.244 126.911 246.68 127.025 246.111 127.027L236.253 127.054L236.24 127.054ZM246.05 109.289H246.031L236.173 109.355C235.374 109.375 234.615 109.711 234.063 110.289C233.51 110.868 233.209 111.642 233.225 112.442C233.249 116.494 233.259 118.52 233.273 122.572C233.264 123.371 233.571 124.141 234.127 124.714C234.683 125.288 235.443 125.617 236.24 125.632L236.249 125.631L246.108 125.603C246.491 125.602 246.869 125.525 247.222 125.376C247.575 125.227 247.895 125.009 248.163 124.735C248.452 124.444 248.681 124.097 248.835 123.716C248.99 123.335 249.067 122.928 249.063 122.516C249.049 118.449 249.039 116.417 249.015 112.349C249.015 111.534 248.696 110.752 248.126 110.17C247.856 109.892 247.534 109.67 247.177 109.518C246.821 109.367 246.437 109.289 246.05 109.289V109.289Z" fill="#FF6551"/>
<path d="M151.098 124.699L149.943 123.544C145.917 119.513 143.901 117.503 139.865 113.489L141.866 111.47C145.5 115.083 147.498 117.075 150.796 120.376C154.75 115.127 157.024 112.093 161.249 106.431L163.525 108.133C158.958 114.254 156.668 117.306 152.081 123.395L151.098 124.699Z" fill="#2435A1"/>
<path d="M142.851 154.47L142.84 157.315L249.762 157.746L249.774 154.9L142.851 154.47Z" fill="#BFBFBF"/>
<path d="M142.796 165.484L142.777 168.33L249.699 169.033L249.718 166.187L142.796 165.484Z" fill="#BFBFBF"/>
<path d="M142.713 176.5L142.688 179.346L249.607 180.319L249.633 177.473L142.713 176.5Z" fill="#BFBFBF"/>
<path d="M142.603 187.514L142.57 190.359L249.487 191.603L249.52 188.757L142.603 187.514Z" fill="#BFBFBF"/>
<path d="M148.627 141.777C148.181 143.252 147.958 143.989 147.511 145.463C146.538 145.462 146.051 145.461 145.078 145.459C146.742 140.259 147.57 137.657 149.218 132.448C150.421 132.446 151.023 132.445 152.226 132.443C153.912 137.652 154.751 140.259 156.421 145.478C155.402 145.476 154.892 145.475 153.873 145.474C153.407 143.996 153.175 143.257 152.708 141.78C151.076 141.778 150.259 141.778 148.627 141.777ZM152.326 139.982C151.92 138.698 151.717 138.056 151.31 136.773C151.061 135.981 150.85 135.093 150.657 134.339L150.619 134.339C150.428 135.093 150.218 136 150.008 136.774C149.61 138.057 149.41 138.698 149.011 139.981L152.326 139.982Z" fill="#49B3F7"/>
<path d="M184.877 132.397C184.878 133.184 184.878 133.577 184.879 134.364C182.625 134.366 181.499 134.367 179.246 134.369C179.247 135.497 179.247 136.061 179.247 137.189C179.775 137.126 180.306 137.093 180.838 137.092C182.073 137.066 183.288 137.411 184.325 138.083C184.83 138.44 185.239 138.917 185.513 139.471C185.787 140.026 185.919 140.64 185.895 141.258C185.917 141.801 185.824 142.341 185.622 142.844C185.42 143.348 185.114 143.803 184.724 144.179C183.312 145.248 181.563 145.771 179.797 145.651C178.83 145.653 177.864 145.593 176.904 145.471C176.913 140.246 176.913 137.634 176.906 132.408L184.877 132.397ZM179.244 143.763C179.657 143.823 180.073 143.85 180.49 143.843C181.321 143.876 182.132 143.583 182.751 143.028C182.971 142.801 183.143 142.533 183.258 142.239C183.374 141.945 183.43 141.631 183.423 141.315C183.436 140.969 183.365 140.625 183.214 140.313C183.064 140.001 182.84 139.73 182.562 139.524C181.931 139.093 181.179 138.875 180.416 138.901C180.052 138.901 179.631 138.94 179.247 138.978C179.247 140.892 179.247 141.849 179.244 143.763Z" fill="#49B3F7"/>
<path d="M206.818 132.562C207.956 132.359 209.11 132.259 210.267 132.264C211.549 132.169 212.831 132.461 213.946 133.102C214.363 133.369 214.705 133.737 214.94 134.172C215.175 134.608 215.296 135.096 215.29 135.591C215.277 136.23 215.062 136.85 214.677 137.36C214.292 137.87 213.756 138.246 213.145 138.434V138.493C213.887 138.653 214.55 139.064 215.025 139.657C215.499 140.25 215.755 140.989 215.75 141.748C215.757 142.268 215.65 142.783 215.438 143.257C215.226 143.73 214.913 144.152 214.521 144.493C213.607 145.296 212.085 145.704 209.709 145.701C208.742 145.702 207.776 145.641 206.816 145.519C206.825 140.337 206.825 137.745 206.818 132.562ZM209.16 137.769L210.367 137.768C212.015 137.768 212.915 136.984 212.915 135.866C212.914 134.612 211.994 134.045 210.499 134.046C210.049 134.031 209.6 134.064 209.158 134.145C209.159 135.595 209.159 136.319 209.16 137.769V137.769ZM209.156 143.82C209.569 143.875 209.986 143.895 210.402 143.88C211.915 143.882 213.277 143.315 213.278 141.688C213.279 140.139 211.957 139.512 210.328 139.511L209.159 139.511C209.159 141.234 209.158 142.096 209.156 143.82V143.82Z" fill="#49B3F7"/>
<path d="M246.062 132.313C246.063 133.111 246.064 133.51 246.065 134.308C244.057 134.309 243.053 134.31 241.045 134.312C241.049 138.833 241.048 141.094 241.041 145.614L238.684 145.61C238.692 140.296 238.692 137.638 238.685 132.324C241.636 132.32 243.111 132.318 246.062 132.313Z" fill="#49B3F7"/>
</svg>
