<svg width="280" height="720" viewBox="0 0 280 720" fill="none" xmlns="http://www.w3.org/2000/svg">
<path d="M73.4229 582.729L84.6931 588.056L194.223 605.262L209.929 570.372C197.067 575.529 163.473 577.455 134.492 578.812C103.089 580.283 70.0566 579.987 70.0566 579.987L73.4229 582.729Z" fill="#B57D92"/>
<path d="M190.744 508.622L190.078 513.666L181.072 581.882L172.884 643.927L88.7693 643.952L87.0053 593.048L86.9933 592.637L83.6758 497L190.744 508.622Z" fill="#FFD7BD"/>
<path d="M190.092 513.539L190.079 513.666L181.073 581.882L87.0062 593.047L85.668 593.206L86.9942 592.637L106.153 584.401L104.866 583.718L101.492 521.882L190.092 513.539Z" fill="#ECB891"/>
<path d="M106.154 524.896L110.708 656.352L194.828 656.327L209.203 514.187L106.154 524.896Z" fill="#FFEBDD"/>
<path d="M193.831 529.012L118.184 535.719C117.777 535.755 117.4 535.946 117.131 536.252C116.862 536.559 116.722 536.957 116.74 537.364C116.758 537.771 116.932 538.156 117.227 538.437C117.522 538.719 117.914 538.877 118.322 538.877C118.369 538.877 118.416 538.876 118.464 538.871L194.112 532.165C194.319 532.146 194.521 532.087 194.706 531.991C194.89 531.895 195.054 531.763 195.188 531.604C195.321 531.445 195.422 531.261 195.484 531.062C195.547 530.864 195.569 530.655 195.551 530.448C195.533 530.241 195.473 530.04 195.377 529.856C195.281 529.672 195.149 529.508 194.989 529.375C194.83 529.241 194.645 529.141 194.446 529.079C194.248 529.016 194.039 528.994 193.831 529.012H193.831Z" fill="#F4C6B1"/>
<path d="M192.553 551.958L116.829 557.748C116.421 557.78 116.04 557.968 115.767 558.273C115.495 558.578 115.351 558.977 115.366 559.386C115.382 559.794 115.555 560.181 115.85 560.465C116.145 560.749 116.539 560.908 116.949 560.909C116.989 560.909 117.03 560.907 117.072 560.904L192.795 555.114C193.003 555.098 193.205 555.041 193.391 554.947C193.577 554.853 193.742 554.724 193.878 554.566C194.013 554.408 194.116 554.225 194.181 554.028C194.246 553.83 194.271 553.622 194.255 553.415C194.239 553.208 194.183 553.006 194.088 552.82C193.994 552.635 193.864 552.47 193.706 552.334C193.548 552.199 193.365 552.096 193.167 552.032C192.969 551.967 192.761 551.942 192.553 551.958L192.553 551.958Z" fill="#F4C6B1"/>
<path d="M156.279 545.911L192.777 542.676C192.984 542.658 193.187 542.599 193.372 542.503C193.556 542.407 193.721 542.275 193.855 542.116C193.989 541.957 194.09 541.772 194.152 541.574C194.215 541.375 194.237 541.166 194.219 540.959C194.201 540.752 194.141 540.55 194.045 540.366C193.948 540.181 193.816 540.018 193.656 539.884C193.496 539.751 193.311 539.651 193.112 539.588C192.913 539.526 192.704 539.504 192.496 539.523L155.998 542.759C155.591 542.795 155.214 542.986 154.946 543.293C154.677 543.599 154.536 543.997 154.554 544.404C154.572 544.811 154.747 545.196 155.041 545.478C155.336 545.759 155.728 545.917 156.136 545.918C156.183 545.918 156.231 545.916 156.279 545.911Z" fill="#F4C6B1"/>
<path d="M116.986 549.388C117.033 549.388 117.081 549.386 117.128 549.382L149.507 546.511C149.715 546.493 149.917 546.434 150.101 546.338C150.286 546.242 150.449 546.11 150.583 545.951C150.717 545.791 150.818 545.607 150.88 545.409C150.942 545.211 150.965 545.002 150.946 544.795C150.928 544.588 150.869 544.387 150.773 544.202C150.676 544.018 150.544 543.855 150.385 543.721C150.225 543.588 150.04 543.487 149.842 543.425C149.643 543.363 149.434 543.34 149.227 543.359L116.848 546.229C116.441 546.265 116.064 546.457 115.795 546.763C115.526 547.07 115.386 547.468 115.404 547.875C115.422 548.282 115.596 548.666 115.891 548.948C116.186 549.23 116.578 549.388 116.986 549.388H116.986Z" fill="#F4C6B1"/>
<path d="M192.506 562.937L141.683 567.081C141.275 567.114 140.896 567.304 140.625 567.609C140.354 567.915 140.211 568.314 140.228 568.722C140.244 569.13 140.418 569.516 140.713 569.799C141.008 570.082 141.401 570.24 141.811 570.241C141.854 570.241 141.897 570.239 141.941 570.236L192.764 566.092C193.183 566.058 193.571 565.859 193.844 565.539C194.116 565.219 194.249 564.804 194.215 564.385C194.181 563.967 193.982 563.579 193.661 563.308C193.34 563.036 192.925 562.903 192.506 562.937Z" fill="#F4C6B1"/>
<path d="M135.211 568.017L116.848 569.645C116.441 569.681 116.064 569.872 115.795 570.179C115.526 570.485 115.386 570.883 115.404 571.29C115.422 571.697 115.596 572.082 115.891 572.364C116.186 572.646 116.578 572.803 116.986 572.804C117.033 572.804 117.081 572.802 117.128 572.798L135.491 571.169C135.908 571.129 136.291 570.926 136.559 570.605C136.826 570.284 136.955 569.87 136.918 569.454C136.881 569.038 136.681 568.654 136.361 568.384C136.041 568.115 135.628 567.983 135.211 568.017V568.017Z" fill="#F4C6B1"/>
<path d="M209.927 570.372L205.938 611.194L200.641 665.372L76.8508 665.739L76.2963 658.764L70.0547 579.984C151.042 598.628 209.927 570.372 209.927 570.372Z" fill="#FFC652"/>
<path d="M208.471 585.27L200.641 665.372L76.8506 665.739L74.1543 631.826C74.1543 631.826 181.415 641.064 208.471 585.27Z" fill="#F7A845"/>
<path d="M88.4325 611.764C88.2539 611.764 88.0788 611.714 87.9273 611.62C87.7757 611.525 87.6537 611.391 87.5752 611.23C87.4966 611.07 87.4645 610.891 87.4827 610.714C87.5009 610.537 87.5685 610.368 87.6779 610.227C89.1742 608.303 90.5226 606.27 91.7117 604.143C90.6037 604.235 89.4894 604.071 88.455 603.664C87.4205 603.257 86.4937 602.618 85.7462 601.797C84.8681 600.77 84.3397 599.492 84.2371 598.146C84.1346 596.8 84.4632 595.457 85.1756 594.31C85.8612 593.347 86.753 592.55 87.7861 591.975C90.2072 590.467 93.0855 589.864 95.9096 590.274C97.3435 590.497 98.7078 591.043 99.8997 591.87C101.092 592.696 102.08 593.782 102.79 595.045C105.021 599.275 103.164 604.356 100.176 607.19C97.4436 609.78 93.5205 611.318 88.5171 611.761C88.4884 611.763 88.4599 611.764 88.4325 611.764ZM96.7611 593.649C96.8529 593.649 96.9442 593.663 97.0321 593.689C97.1524 593.725 97.2645 593.783 97.362 593.862C97.4595 593.941 97.5404 594.038 97.6003 594.148C97.6601 594.258 97.6976 594.378 97.7106 594.503C97.7236 594.627 97.7118 594.753 97.676 594.873C96.1192 600.134 93.7056 605.104 90.5321 609.583C93.6233 609.182 96.5237 607.867 98.8607 605.808C101.691 603.123 102.655 598.878 101.101 595.934C100.53 594.929 99.7391 594.067 98.7865 593.413C97.8339 592.758 96.7448 592.328 95.6013 592.155C93.2236 591.818 90.8031 592.332 88.7694 593.607C87.9789 594.041 87.2935 594.643 86.7618 595.37C86.2829 596.17 86.0668 597.1 86.1437 598.029C86.2206 598.958 86.5867 599.839 87.1907 600.55C87.8494 601.258 88.6869 601.775 89.6152 602.048C90.5435 602.321 91.5283 602.34 92.4663 602.102C92.5752 602.073 92.6887 602.065 92.8007 602.078C94.0372 599.589 95.0562 596.997 95.8462 594.332C95.9045 594.135 96.0252 593.962 96.1901 593.839C96.355 593.716 96.5553 593.649 96.7611 593.649Z" fill="white"/>
<path d="M105.896 611.185C105.345 611.188 104.799 611.075 104.294 610.854C103.7 610.61 103.198 610.185 102.858 609.641V609.639C102.534 608.921 102.385 608.136 102.424 607.349C102.463 606.562 102.688 605.796 103.08 605.112C103.473 604.429 104.023 603.848 104.684 603.418C105.345 602.987 106.1 602.719 106.885 602.636H106.893C107.492 602.619 108.083 602.778 108.592 603.094C109.101 603.409 109.507 603.867 109.757 604.41C110.118 605.253 110.255 606.174 110.156 607.085C110.057 607.996 109.726 608.866 109.193 609.612C108.798 610.106 108.297 610.504 107.726 610.777C107.155 611.049 106.529 611.189 105.896 611.185ZM104.502 608.672C104.641 608.871 104.837 609.024 105.065 609.111C105.515 609.289 106.011 609.32 106.48 609.201C106.95 609.083 107.37 608.819 107.681 608.448C107.998 607.985 108.197 607.451 108.26 606.893C108.323 606.336 108.248 605.771 108.042 605.249C107.947 605.026 107.784 604.839 107.578 604.712C107.371 604.585 107.13 604.526 106.888 604.542H106.885C106.425 604.594 105.987 604.763 105.61 605.03C105.233 605.298 104.931 605.657 104.73 606.073C104.475 606.451 104.32 606.888 104.28 607.343C104.24 607.797 104.316 608.255 104.502 608.672V608.672Z" fill="white"/>
<path d="M180.365 612.139C180.127 612.139 179.898 612.05 179.722 611.89C179.546 611.73 179.437 611.51 179.415 611.273C179.363 610.706 179.354 610.138 179.358 609.57C178.833 610.46 178.042 611.164 177.096 611.582C176.661 611.741 176.198 611.804 175.736 611.767C175.275 611.73 174.828 611.594 174.424 611.368C174.078 611.187 173.768 610.945 173.508 610.654C173.159 610.956 172.746 611.176 172.301 611.298C171.856 611.421 171.389 611.443 170.934 611.363C170.517 611.267 170.131 611.065 169.815 610.778C169.498 610.49 169.261 610.127 169.125 609.721C168.622 610.266 167.99 610.675 167.286 610.909C166.583 611.144 165.831 611.197 165.101 611.064C164.41 610.901 163.784 610.533 163.305 610.009C163 610.462 162.578 610.825 162.083 611.057C161.588 611.29 161.04 611.384 160.496 611.33C159.954 611.281 159.435 611.09 158.99 610.779C158.545 610.467 158.189 610.045 157.957 609.554C157.584 608.75 157.466 607.852 157.62 606.98C156.569 607.378 155.424 607.459 154.327 607.213C154.319 607.319 154.311 607.425 154.306 607.532L154.413 609.842C154.425 610.086 154.342 610.326 154.181 610.511C154.02 610.696 153.794 610.812 153.55 610.836C153.306 610.859 153.062 610.787 152.869 610.636C152.677 610.484 152.55 610.264 152.515 610.022C152.485 609.818 152.46 609.613 152.442 609.409C152.086 609.799 151.651 610.107 151.165 610.314C150.736 610.524 150.259 610.616 149.783 610.58C149.307 610.544 148.85 610.381 148.458 610.11C148.114 609.856 147.829 609.532 147.621 609.159C147.366 609.47 147.052 609.728 146.697 609.916C146.342 610.105 145.952 610.221 145.551 610.257C145.248 610.269 144.945 610.23 144.655 610.142C144.195 610.045 143.766 609.836 143.406 609.535C143.046 609.234 142.765 608.849 142.589 608.414C142.109 609.022 141.506 609.523 140.819 609.884C140.382 610.146 139.877 610.276 139.368 610.258C138.858 610.24 138.364 610.075 137.946 609.783C137.755 609.644 137.583 609.481 137.434 609.297C137.02 609.898 136.464 610.388 135.815 610.723C135.167 611.059 134.445 611.23 133.715 611.221C133.329 611.215 132.952 611.109 132.619 610.916C132.286 610.722 132.009 610.446 131.813 610.115C131.76 610.014 131.716 609.909 131.681 609.801C130.808 610.558 129.671 610.942 128.516 610.869C127.997 610.851 127.491 610.705 127.043 610.444C126.595 610.182 126.219 609.813 125.949 609.37C125.824 609.155 125.724 608.926 125.651 608.688L125.559 608.852C125.23 609.534 124.763 610.14 124.187 610.632C123.793 610.959 123.309 611.158 122.798 611.2C122.288 611.243 121.777 611.127 121.335 610.869C120.942 610.575 120.631 610.185 120.433 609.736C120.235 609.288 120.155 608.796 120.202 608.308C120.133 608.398 120.062 608.486 119.991 608.572C119.125 609.643 118.079 610.013 117.195 609.566C116.906 609.399 116.66 609.165 116.478 608.885C116.297 608.604 116.184 608.285 116.15 607.952C115.412 609.3 114.195 610.322 112.739 610.818C112.33 610.971 111.887 611.008 111.458 610.927C111.029 610.845 110.631 610.648 110.306 610.357C110.074 610.112 109.917 609.807 109.855 609.476C109.792 609.145 109.826 608.804 109.953 608.492C110.053 608.218 110.233 607.981 110.468 607.809C110.703 607.637 110.985 607.539 111.276 607.527C111.452 607.521 111.626 607.564 111.78 607.651C111.933 607.738 112.059 607.865 112.144 608.02C112.229 608.174 112.269 608.348 112.261 608.524C112.253 608.7 112.196 608.87 112.096 609.015C112.131 609.008 112.17 608.998 112.209 608.987C113.326 608.536 114.229 607.678 114.735 606.587C115.032 606.047 115.284 605.481 115.535 604.916C115.86 604.143 116.235 603.391 116.657 602.666C116.778 602.468 116.966 602.32 117.188 602.251C117.41 602.182 117.649 602.196 117.861 602.29C118.073 602.384 118.244 602.552 118.341 602.763C118.438 602.973 118.454 603.212 118.388 603.434C118 604.734 117.871 606.097 118.008 607.446C118.018 607.589 118.047 607.73 118.094 607.865C118.098 607.783 118.288 607.644 118.506 607.375C119.8 605.777 120.907 604.036 121.805 602.187C121.893 602.005 122.036 601.856 122.214 601.761C122.392 601.665 122.596 601.629 122.796 601.657C122.997 601.685 123.183 601.775 123.328 601.916C123.473 602.056 123.57 602.239 123.605 602.437C123.681 603.223 123.482 604.01 123.043 604.666C122.436 605.776 122.116 607.02 122.112 608.285C122.116 608.888 122.25 609.189 122.374 609.27C122.486 609.302 122.605 609.305 122.718 609.279C122.832 609.253 122.937 609.198 123.024 609.121C123.387 608.781 123.681 608.375 123.891 607.925L125.262 605.463C125.792 604.175 126.804 603.144 128.082 602.586C128.092 602.582 128.101 602.576 128.11 602.57C128.751 602.214 129.469 602.018 130.202 602C130.936 601.982 131.662 602.142 132.32 602.467C132.445 602.412 132.582 602.389 132.719 602.399C132.966 602.41 133.2 602.515 133.37 602.694C133.54 602.873 133.635 603.111 133.633 603.358C133.633 603.432 133.632 603.509 133.632 603.588C133.697 603.723 133.73 603.872 133.727 604.023C133.724 604.174 133.685 604.322 133.614 604.455C133.599 604.967 133.556 605.477 133.486 605.984C133.456 606.948 133.451 607.915 133.472 608.875C133.47 608.994 133.48 609.112 133.503 609.229C133.608 609.286 133.725 609.318 133.844 609.321C134.948 609.409 135.96 608.324 136.487 607.231C136.551 607.097 136.612 606.96 136.671 606.822C136.676 606.655 136.691 606.488 136.716 606.323C136.984 605.042 137.523 603.832 138.299 602.776C138.433 602.565 138.645 602.415 138.889 602.358C139.133 602.301 139.389 602.343 139.603 602.473C139.817 602.603 139.971 602.812 140.032 603.054C140.093 603.297 140.056 603.553 139.929 603.769C139.542 604.49 139.228 605.248 138.992 606.032C138.862 606.411 138.733 606.791 138.589 607.164C138.592 607.366 138.636 607.565 138.718 607.75C138.799 607.934 138.918 608.101 139.065 608.239C139.142 608.295 139.384 608.47 139.964 608.179C141.326 607.499 142.277 605.43 143.04 603.767C143.207 603.405 143.365 603.06 143.519 602.746C143.574 602.634 143.651 602.533 143.745 602.45C143.839 602.367 143.948 602.303 144.067 602.263C144.186 602.222 144.312 602.205 144.437 602.213C144.562 602.221 144.685 602.253 144.797 602.308C144.91 602.363 145.011 602.44 145.094 602.534C145.177 602.628 145.24 602.738 145.281 602.856C145.322 602.975 145.338 603.1 145.33 603.225C145.322 603.35 145.29 603.473 145.234 603.585V603.585C144.965 604.24 144.774 604.924 144.666 605.623C144.585 606.028 144.506 606.422 144.41 606.785C144.139 607.813 144.465 608.112 145.161 608.305C145.26 608.331 145.361 608.347 145.463 608.354C145.778 608.341 146.362 607.886 147.057 606.689C147.059 606.627 147.064 606.565 147.069 606.504C147.324 604.915 147.945 603.406 148.884 602.098C149.003 601.904 149.188 601.759 149.405 601.69C149.621 601.62 149.856 601.63 150.066 601.718C150.276 601.806 150.448 601.965 150.55 602.168C150.652 602.371 150.679 602.604 150.624 602.825C150.259 604.296 149.723 605.719 149.026 607.065C149.008 607.1 148.99 607.135 148.972 607.169C148.984 607.696 149.2 608.197 149.576 608.566C149.661 608.626 149.888 608.786 150.414 608.563C151.406 608.138 151.79 606.877 152.234 605.414C152.521 604.058 153.143 602.797 154.045 601.744C154.207 601.586 154.421 601.49 154.647 601.475C154.873 601.459 155.097 601.524 155.28 601.658C155.462 601.793 155.59 601.987 155.642 602.208C155.694 602.428 155.665 602.659 155.562 602.861C155.158 603.645 154.847 604.474 154.634 605.331C155.116 605.458 155.618 605.487 156.11 605.417C156.603 605.346 157.077 605.178 157.503 604.922C157.929 604.665 158.3 604.326 158.592 603.924C158.884 603.522 159.093 603.065 159.205 602.581C159.234 602.46 159.286 602.344 159.359 602.243C159.432 602.141 159.524 602.055 159.631 601.988C159.737 601.922 159.855 601.878 159.979 601.857C160.103 601.837 160.229 601.841 160.351 601.869C160.474 601.898 160.589 601.95 160.691 602.023C160.793 602.095 160.879 602.187 160.946 602.294C161.012 602.4 161.056 602.518 161.077 602.642C161.097 602.765 161.093 602.891 161.065 603.013V603.013L161.059 603.038C160.86 603.771 160.593 604.483 160.261 605.166C159.673 606.477 159.164 607.61 159.693 608.759C159.783 608.943 159.919 609.101 160.087 609.219C160.255 609.337 160.45 609.41 160.655 609.432C161.725 609.483 162.215 608.182 162.409 607.352C162.427 607.22 162.455 607.091 162.492 606.963C162.559 606.728 162.715 606.528 162.927 606.404C163.138 606.28 163.389 606.242 163.628 606.298C163.867 606.354 164.075 606.5 164.209 606.705C164.343 606.91 164.393 607.158 164.348 607.399C164.331 607.492 164.313 607.585 164.293 607.676C164.281 607.94 164.35 608.202 164.49 608.427C164.601 608.618 164.75 608.785 164.927 608.919C165.103 609.052 165.304 609.15 165.519 609.205C165.983 609.266 166.456 609.201 166.886 609.015C167.316 608.83 167.688 608.531 167.962 608.152C168.094 607.962 168.2 607.754 168.276 607.535C167.954 607.532 167.633 607.49 167.321 607.409C166.943 607.313 166.589 607.139 166.283 606.898C165.976 606.656 165.723 606.354 165.541 606.009C165.337 605.587 165.254 605.117 165.303 604.651C165.334 604.063 165.526 603.495 165.86 603.01C166.194 602.525 166.655 602.141 167.193 601.901C167.66 601.634 168.206 601.542 168.735 601.64C169.264 601.739 169.74 602.022 170.079 602.439C170.179 602.571 170.266 602.714 170.337 602.864C170.524 602.88 170.702 602.949 170.85 603.065C170.997 603.181 171.107 603.338 171.166 603.516V603.517C171.297 603.931 171.339 604.368 171.292 604.799C171.244 605.231 171.106 605.647 170.888 606.023C170.743 606.86 170.71 607.712 170.787 608.558C170.833 608.875 170.965 609.419 171.344 609.502C171.733 609.601 172.408 609.275 172.892 608.527C172.993 608.371 173.137 608.247 173.307 608.172C173.477 608.097 173.666 608.073 173.849 608.104C174.033 608.134 174.204 608.217 174.34 608.343C174.477 608.469 174.574 608.632 174.62 608.812C174.668 608.995 174.754 609.166 174.871 609.315C174.989 609.463 175.136 609.586 175.303 609.675C175.468 609.78 175.654 609.846 175.848 609.867C176.042 609.889 176.238 609.866 176.422 609.799C177.32 609.274 178.004 608.45 178.354 607.472C178.176 607.51 177.995 607.532 177.813 607.539C177.274 607.547 176.743 607.406 176.279 607.131C175.815 606.856 175.436 606.459 175.184 605.983C174.891 605.511 174.734 604.969 174.729 604.414C174.724 603.859 174.871 603.314 175.155 602.837C175.46 602.409 175.864 602.061 176.334 601.823C176.803 601.585 177.323 601.464 177.849 601.471C178.579 601.475 179.289 601.712 179.875 602.147C179.977 602.045 180.1 601.968 180.237 601.921C180.373 601.875 180.518 601.861 180.661 601.879C180.785 601.894 180.906 601.933 181.015 601.995C181.124 602.056 181.22 602.138 181.297 602.237C181.375 602.335 181.432 602.448 181.466 602.568C181.499 602.689 181.509 602.814 181.494 602.939C181.289 604.354 181.21 605.786 181.259 607.215C181.289 607.807 181.281 608.401 181.274 608.996C181.251 609.697 181.265 610.4 181.317 611.1C181.34 611.351 181.262 611.602 181.1 611.796C180.938 611.99 180.705 612.112 180.453 612.136C180.423 612.138 180.394 612.139 180.365 612.139ZM128.925 604.305C128.453 604.64 128.067 605.082 127.798 605.594C127.529 606.107 127.386 606.675 127.379 607.254C127.343 607.651 127.418 608.051 127.598 608.407C127.711 608.58 127.866 608.721 128.047 608.819C128.229 608.917 128.433 608.967 128.639 608.967C129.032 608.994 129.426 608.926 129.787 608.769C130.148 608.612 130.466 608.37 130.714 608.065C131.195 607.397 131.494 606.617 131.583 605.8C131.598 605.347 131.619 604.894 131.645 604.442C130.802 604.048 129.839 603.995 128.957 604.293L128.925 604.305ZM177.809 603.377C177.609 603.364 177.408 603.401 177.226 603.485C177.044 603.57 176.886 603.698 176.766 603.859C176.673 604.044 176.631 604.249 176.644 604.455C176.656 604.661 176.723 604.86 176.838 605.032C176.924 605.2 177.052 605.344 177.209 605.45C177.366 605.555 177.547 605.619 177.736 605.636C178.345 605.611 178.822 605.086 179.147 604.378C179.11 604.221 179.049 604.071 178.967 603.932C178.838 603.752 178.667 603.607 178.468 603.51C178.269 603.413 178.049 603.367 177.828 603.377L177.809 603.377ZM168.403 603.54C168.234 603.555 168.069 603.598 167.914 603.666C167.707 603.774 167.532 603.936 167.408 604.134C167.284 604.332 167.214 604.56 167.207 604.793C167.188 604.912 167.2 605.033 167.243 605.146C167.309 605.253 167.395 605.347 167.497 605.42C167.6 605.494 167.716 605.547 167.838 605.575C168.137 605.66 168.455 605.646 168.745 605.534C168.89 604.885 168.826 604.207 168.562 603.596C168.541 603.575 168.516 603.56 168.489 603.55C168.461 603.54 168.432 603.537 168.403 603.54V603.54Z" fill="white"/>
<path d="M112.551 643.898C112.373 643.898 112.199 643.849 112.048 643.755C111.897 643.662 111.775 643.529 111.696 643.37C110.945 641.627 110.872 639.668 111.49 637.875L111.702 637.107C112.266 635.067 112.826 633.044 113.374 630.987C113.497 630.522 113.634 630.009 113.804 629.481C113.974 628.014 114.121 626.549 114.245 625.084C114.267 624.833 114.388 624.6 114.581 624.438C114.774 624.275 115.024 624.196 115.275 624.217C115.527 624.238 115.76 624.358 115.924 624.55C116.087 624.742 116.167 624.991 116.147 625.243C116.136 625.383 116.123 625.522 116.111 625.662C116.522 625.336 117.003 625.107 117.516 624.994C118.029 624.88 118.561 624.885 119.072 625.008C119.462 625.101 119.823 625.29 120.122 625.557C120.421 625.825 120.648 626.162 120.784 626.539C121.175 627.781 121.108 629.121 120.594 630.317C120.346 630.944 120.22 631.612 120.222 632.286L119.588 633.189L120.301 632.555C120.538 632.822 120.678 632.792 120.748 632.78C121.028 632.657 121.279 632.477 121.485 632.252C121.691 632.026 121.848 631.76 121.945 631.471C122.508 629.727 123.429 628.12 124.648 626.751C125.01 626.212 125.495 625.767 126.063 625.452C126.545 625.204 127.076 625.068 127.618 625.052C128.16 625.036 128.699 625.141 129.194 625.361C129.712 625.583 130.161 625.939 130.493 626.393C130.568 626.042 130.655 625.693 130.761 625.349C130.826 625.145 130.958 624.968 131.135 624.847C131.312 624.726 131.525 624.668 131.739 624.681C131.954 624.696 132.157 624.782 132.316 624.927C132.475 625.072 132.581 625.266 132.615 625.478C132.743 626.605 132.527 627.744 131.995 628.746C131.86 629.521 131.64 630.278 131.34 631.004C131.321 631.334 131.383 631.663 131.519 631.963C131.655 632.264 131.862 632.527 132.122 632.731C132.319 632.863 132.55 632.938 132.787 632.948C133.024 632.958 133.26 632.903 133.468 632.788C134.397 632.224 135.077 631.33 135.372 630.286L135.527 629.916C135.571 629.806 135.617 629.694 135.666 629.579C135.71 628.837 135.914 628.113 136.264 627.456C136.613 626.799 137.101 626.226 137.692 625.774C138.026 625.518 138.421 625.352 138.838 625.292C139.254 625.232 139.68 625.28 140.073 625.431C140.654 625.71 141.122 626.182 141.395 626.765C141.495 626.953 141.528 627.17 141.49 627.38C141.452 627.589 141.344 627.78 141.185 627.922C141.025 628.063 140.822 628.147 140.609 628.16C140.396 628.173 140.185 628.114 140.009 627.993C139.492 627.637 139.24 627.714 139.16 627.739C138.545 627.921 137.962 629.078 137.557 630.011C137.552 630.535 137.701 631.05 137.985 631.492C138.257 631.865 138.62 632.164 139.039 632.359C139.458 632.555 139.919 632.641 140.381 632.61C140.732 632.611 141.077 632.519 141.381 632.344C141.685 632.17 141.938 631.918 142.114 631.615C142.451 630.837 142.619 629.997 142.605 629.151C142.592 628.304 142.398 627.469 142.037 626.703C141.755 626.143 141.434 625.604 141.076 625.089C140.369 624.14 139.845 623.069 139.531 621.929C139.363 621.275 139.394 620.585 139.62 619.949C139.844 619.437 140.194 618.991 140.638 618.651C141.082 618.312 141.605 618.09 142.158 618.007C142.957 617.885 143.768 617.881 144.568 617.996C145.763 618.115 146.965 618.165 148.166 618.144C148.667 618.161 149.167 618.093 149.646 617.943C149.795 617.896 149.933 617.816 150.048 617.71C150.163 617.604 150.253 617.474 150.312 617.329C150.376 617.085 150.534 616.876 150.752 616.749C150.97 616.621 151.23 616.585 151.475 616.649C151.719 616.712 151.929 616.87 152.057 617.087C152.185 617.304 152.222 617.563 152.159 617.807C152.028 618.246 151.795 618.648 151.479 618.98C151.163 619.312 150.773 619.565 150.34 619.718C149.652 619.955 148.927 620.067 148.2 620.049C146.989 620.058 145.792 620.023 144.62 619.915C143.927 619.803 143.221 619.791 142.524 619.878C142.29 619.906 142.065 619.989 141.87 620.121C141.674 620.253 141.513 620.429 141.4 620.636C141.316 620.924 141.314 621.23 141.395 621.52C141.667 622.43 142.1 623.285 142.673 624.043C143.079 624.632 143.443 625.249 143.763 625.889C144.266 626.935 144.526 628.081 144.525 629.242C144.523 630.402 144.259 631.548 143.753 632.592C143.419 633.165 142.942 633.643 142.369 633.979C141.797 634.315 141.147 634.499 140.483 634.513C139.693 634.562 138.903 634.409 138.189 634.067C137.476 633.726 136.861 633.207 136.406 632.561L136.386 632.53C135.9 633.388 135.166 634.079 134.28 634.513C133.772 634.768 133.206 634.883 132.64 634.848C132.073 634.812 131.526 634.627 131.054 634.311C130.645 634.034 130.3 633.674 130.041 633.254C129.592 633.863 128.96 634.315 128.237 634.544C127.773 634.658 127.29 634.668 126.822 634.572C126.354 634.476 125.913 634.278 125.531 633.991C124.711 633.441 124.136 632.596 123.925 631.633C123.863 631.792 123.801 631.956 123.74 632.123C123.537 632.725 123.191 633.269 122.733 633.709C122.274 634.15 121.716 634.473 121.106 634.652C120.693 634.727 120.269 634.689 119.876 634.543C119.483 634.397 119.137 634.149 118.874 633.823C118.694 633.622 118.553 633.389 118.458 633.136C118.379 632.906 118.331 632.665 118.317 632.422C118.292 631.507 118.447 630.596 118.774 629.74C119.147 628.942 119.223 628.038 118.989 627.189C118.958 627.102 118.904 627.024 118.833 626.965C118.762 626.905 118.676 626.866 118.585 626.851C118.364 626.804 118.136 626.806 117.917 626.856C117.697 626.906 117.491 627.004 117.313 627.142C116.525 627.897 115.959 628.853 115.676 629.906C115.154 634.353 114.419 638.788 113.484 643.145C113.439 643.359 113.321 643.55 113.151 643.687C112.981 643.824 112.769 643.899 112.551 643.899L112.551 643.898ZM126.115 627.98C125.79 628.568 125.626 629.231 125.639 629.903C125.657 631.21 125.947 631.981 126.584 632.4C127.251 632.84 127.606 632.742 127.719 632.71C128.477 632.497 129.142 631.193 129.453 630.538C129.536 629.838 129.726 629.154 130.017 628.512C129.814 628.513 129.615 628.45 129.45 628.332C129.284 628.214 129.16 628.047 129.095 627.854C129.041 627.709 128.951 627.58 128.832 627.48C128.714 627.381 128.571 627.313 128.419 627.285C128.063 627.203 127.693 627.203 127.337 627.284C126.981 627.365 126.648 627.524 126.363 627.751C126.279 627.824 126.197 627.9 126.115 627.98V627.98Z" fill="white"/>
<path d="M149.196 634.56C148.862 634.56 148.531 634.514 148.21 634.424C147.676 634.263 147.181 633.995 146.755 633.636C146.33 633.276 145.983 632.833 145.736 632.334C145.57 632.001 145.457 631.644 145.402 631.276C145.339 630.546 145.434 629.811 145.68 629.121C145.926 628.431 146.319 627.802 146.83 627.276C147.254 626.747 147.806 626.333 148.433 626.073C149.061 625.814 149.744 625.717 150.419 625.792C151.09 625.902 151.698 626.252 152.128 626.778C152.559 627.303 152.783 627.968 152.757 628.646C152.87 629.475 152.883 630.314 152.794 631.146C152.683 632.138 152.216 633.056 151.48 633.732C150.842 634.272 150.032 634.565 149.196 634.56V634.56ZM149.867 627.648C149.556 627.682 149.254 627.777 148.98 627.928C148.706 628.079 148.464 628.283 148.27 628.528C147.945 628.849 147.69 629.234 147.521 629.658C147.353 630.083 147.274 630.537 147.29 630.993L147.291 630.997C147.316 631.167 147.368 631.331 147.445 631.484C147.572 631.747 147.751 631.98 147.972 632.17C148.192 632.36 148.45 632.503 148.728 632.59C148.985 632.663 149.256 632.674 149.517 632.622C149.779 632.57 150.025 632.456 150.234 632.29C150.618 631.913 150.856 631.413 150.905 630.878C150.968 630.196 150.952 629.51 150.858 628.832C150.759 627.841 150.58 627.758 150.076 627.667C150.007 627.654 149.937 627.648 149.867 627.648Z" fill="white"/>
<path d="M164.841 634.277C164.467 634.278 164.095 634.211 163.744 634.08C161.704 633.317 162.354 631.153 162.667 630.112L162.801 629.646C162.855 629.437 162.922 629.234 162.989 629.034C163.161 628.522 163.222 628.292 163.132 628.081C163.002 627.77 162.925 627.712 162.91 627.703C162.862 627.67 162.807 627.648 162.749 627.64C162.691 627.631 162.632 627.636 162.576 627.654C162.027 627.932 161.59 628.389 161.337 628.95C160.846 630.187 160.432 631.454 160.098 632.742C160.035 632.975 159.885 633.176 159.68 633.303C159.474 633.43 159.228 633.475 158.991 633.428C158.753 633.381 158.543 633.246 158.402 633.05C158.26 632.854 158.199 632.612 158.229 632.373C158.814 627.913 158.069 627.417 158.062 627.413C157.91 627.446 157.769 627.515 157.65 627.613C157.531 627.712 157.437 627.837 157.375 627.98C156.853 629.109 156.472 630.298 156.242 631.52C156.108 632.09 155.976 632.648 155.827 633.17C155.76 633.396 155.613 633.59 155.413 633.715C155.213 633.84 154.974 633.887 154.741 633.848C154.509 633.807 154.299 633.681 154.154 633.495C154.009 633.309 153.938 633.076 153.956 632.84C153.971 632.646 154.31 628.06 154.797 625.725C154.846 625.494 154.978 625.289 155.169 625.15C155.361 625.011 155.597 624.947 155.832 624.972C156.067 624.997 156.285 625.108 156.443 625.284C156.601 625.46 156.688 625.688 156.687 625.924C156.893 625.783 157.12 625.676 157.359 625.606C157.69 625.496 158.043 625.472 158.385 625.536C158.727 625.6 159.047 625.751 159.315 625.973C159.705 626.333 159.981 626.797 160.111 627.311C160.579 626.62 161.258 626.098 162.047 625.824C162.357 625.731 162.683 625.706 163.003 625.749C163.323 625.793 163.631 625.904 163.904 626.076C164.361 626.382 164.707 626.825 164.892 627.342C165.163 628.09 165.13 628.914 164.799 629.638C164.747 629.795 164.693 629.953 164.651 630.116C164.609 630.283 164.554 630.467 164.496 630.661C164.113 631.933 164.164 632.203 164.413 632.296C164.571 632.353 164.739 632.379 164.907 632.37C165.075 632.361 165.24 632.318 165.391 632.244C166.179 631.853 166.319 630.993 166.483 629.622C166.528 628.615 166.798 627.631 167.273 626.741C167.285 626.723 167.296 626.704 167.309 626.686C167.523 626.188 167.843 625.742 168.248 625.381C168.652 625.019 169.13 624.75 169.65 624.591C170.18 624.469 170.73 624.456 171.266 624.555C171.801 624.653 172.311 624.861 172.762 625.164C172.816 624.95 172.944 624.76 173.124 624.63C173.303 624.5 173.523 624.438 173.744 624.454C173.997 624.469 174.233 624.584 174.401 624.774C174.569 624.963 174.655 625.211 174.639 625.463C174.617 625.818 174.592 626.188 174.557 626.568C174.582 626.602 174.606 626.637 174.629 626.673C174.757 626.867 174.809 627.1 174.776 627.33C174.744 627.56 174.628 627.769 174.452 627.92C174.432 627.937 174.411 627.953 174.388 627.97C174.335 628.308 174.269 628.651 174.189 628.992C174.114 629.643 174.138 630.301 174.259 630.945L174.316 631.232C174.346 631.506 174.425 631.773 174.549 632.019C174.807 632.106 175.083 632.133 175.353 632.097C175.624 632.061 175.883 631.963 176.11 631.812C176.641 631.465 177.038 630.947 177.234 630.344C177.317 630.105 177.491 629.909 177.719 629.799C177.947 629.689 178.21 629.673 178.449 629.756C178.689 629.839 178.885 630.013 178.996 630.241C179.106 630.469 179.122 630.731 179.039 630.969C178.699 631.992 178.014 632.865 177.102 633.44C176.582 633.771 175.985 633.966 175.369 634.004C174.753 634.043 174.137 633.925 173.579 633.66C173.123 633.377 172.788 632.935 172.64 632.42C172.264 632.896 171.775 633.271 171.217 633.513C170.766 633.687 170.281 633.758 169.799 633.719C169.317 633.681 168.85 633.534 168.433 633.289C168.129 633.131 167.86 632.913 167.643 632.648C167.317 633.212 166.828 633.666 166.241 633.951C165.806 634.166 165.327 634.278 164.841 634.277ZM168.983 627.621C168.933 627.744 168.892 627.87 168.86 627.998C168.522 629.345 168.65 631.254 169.315 631.6C169.485 631.717 169.68 631.791 169.885 631.818C170.089 631.844 170.297 631.82 170.491 631.75C171.338 631.18 171.925 630.3 172.125 629.301C172.19 629.095 172.249 628.886 172.301 628.675C172.348 628.211 172.417 627.754 172.486 627.301C172.305 627.155 172.115 627.018 171.919 626.891C171.612 626.772 171.282 626.721 170.952 626.741C170.579 626.729 170.207 626.802 169.866 626.955C169.525 627.107 169.223 627.335 168.983 627.621L168.983 627.621Z" fill="white"/>
<path d="M33.832 440.379L36.2259 410.363L243.755 407.302L246.149 410.363V443.44H36.2259L33.832 440.379ZM229.509 428.147C230.528 428.147 231.524 427.845 232.371 427.28C233.218 426.715 233.878 425.912 234.268 424.973C234.658 424.034 234.76 423 234.561 422.003C234.362 421.006 233.872 420.09 233.152 419.371C232.431 418.652 231.513 418.162 230.514 417.964C229.515 417.766 228.48 417.868 227.538 418.257C226.597 418.646 225.793 419.305 225.227 420.15C224.661 420.995 224.359 421.989 224.359 423.006C224.359 423.681 224.492 424.349 224.751 424.973C225.01 425.597 225.389 426.164 225.867 426.641C226.346 427.118 226.913 427.497 227.538 427.755C228.163 428.014 228.833 428.147 229.509 428.147V428.147Z" fill="#2435A1"/>
<path d="M33.832 407.302H243.755V440.379H33.832V407.302ZM227.506 430.146C228.525 430.146 229.521 429.844 230.368 429.28C231.215 428.715 231.875 427.912 232.265 426.973C232.655 426.033 232.757 425 232.558 424.002C232.359 423.005 231.868 422.089 231.148 421.37C230.428 420.651 229.51 420.162 228.511 419.964C227.512 419.765 226.476 419.867 225.535 420.256C224.594 420.645 223.789 421.304 223.223 422.149C222.658 422.995 222.355 423.989 222.355 425.005C222.355 425.68 222.489 426.349 222.748 426.973C223.006 427.596 223.386 428.163 223.864 428.64C224.342 429.118 224.91 429.496 225.535 429.755C226.16 430.013 226.83 430.146 227.506 430.146V430.146Z" fill="#49B3F7"/>
<path d="M232.514 426.165C232.254 427.296 231.617 428.306 230.707 429.029C229.797 429.752 228.669 430.146 227.506 430.146C226.343 430.146 225.215 429.752 224.305 429.029C223.395 428.306 222.759 427.296 222.499 426.165H33.832V440.379H243.755V426.165H232.514Z" fill="#378FDD"/>
<path d="M207.082 407.302H203.613V423.84H207.082V407.302Z" fill="white"/>
<path d="M177.043 407.302H173.574V423.84H177.043V407.302Z" fill="white"/>
<path d="M147.004 407.302H143.535V423.84H147.004V407.302Z" fill="white"/>
<path d="M116.964 407.302H113.496V423.84H116.964V407.302Z" fill="white"/>
<path d="M86.9254 407.302H83.457V423.84H86.9254V407.302Z" fill="white"/>
<path d="M56.8864 407.302H53.418V423.84H56.8864V407.302Z" fill="white"/>
<path d="M192.156 407.302H188.688V418.372H192.156V407.302Z" fill="white"/>
<path d="M162.117 407.302H158.648V418.372H162.117V407.302Z" fill="white"/>
<path d="M132.078 407.302H128.609V418.372H132.078V407.302Z" fill="white"/>
<path d="M102.039 407.302H98.5703V418.372H102.039V407.302Z" fill="white"/>
<path d="M71.9996 407.302H68.5312V418.372H71.9996V407.302Z" fill="white"/>
<path d="M215.391 53.2842H188.688V185.784H215.391V53.2842Z" fill="#E94B36"/>
<path d="M208.038 53.2842H196.4V185.784H208.038V53.2842Z" fill="#FF6551"/>
<path d="M215.392 53.2842H208.039V185.784H215.392V53.2842Z" fill="#E94B36"/>
<path d="M215.391 185.783H188.688L200.082 214.267C200.273 214.743 200.603 215.15 201.029 215.434C201.455 215.719 201.958 215.868 202.471 215.861C202.984 215.855 203.483 215.694 203.902 215.399C204.321 215.104 204.641 214.689 204.82 214.21L215.391 185.783Z" fill="#FFBF94"/>
<path d="M208.959 203.08H195.607L200.083 214.268C200.273 214.743 200.603 215.15 201.029 215.434C201.456 215.719 201.959 215.868 202.471 215.861C202.984 215.855 203.483 215.694 203.903 215.399C204.322 215.104 204.642 214.69 204.82 214.21L208.959 203.08Z" fill="#5B5B5C"/>
<path d="M215.391 53.2842H188.688V59.516H215.391V53.2842Z" fill="#2435A1"/>
<path d="M194.525 42H209.553C211.102 42 212.586 42.6138 213.681 43.7065C214.776 44.7991 215.391 46.2811 215.391 47.8263V53.2841H188.688V47.8263C188.688 46.2811 189.303 44.7991 190.397 43.7065C191.492 42.6138 192.977 42 194.525 42V42Z" fill="#F7A845"/>
</svg>
