<svg width="44" height="228" viewBox="0 0 44 228" fill="none" xmlns="http://www.w3.org/2000/svg">
<path d="M21.304 17.7214L8.54479 17.0175C8.18814 40.4023 25.8872 49.311 34.6494 51.4593L34.6088 38.0781C34.6088 38.0781 23.6412 35.1539 21.304 17.7214Z" fill="#49B3F7"/>
<g clip-path="url(#clip0_367_2141)">
<path d="M6.64349 111.394L8.0036 123.605C31.1162 119.978 37.0501 101.694 37.7576 93.0252L24.5714 95.3328C24.5714 95.3328 23.454 106.223 6.64349 111.394Z" fill="#49B3F7"/>
</g>
<g clip-path="url(#clip1_367_2141)">
<path d="M34.0048 181.733L43.223 173.606C27.3977 156.785 9.1598 162.434 1.68519 166.834L10.9083 176.294C10.9083 176.294 20.4257 170.953 34.0048 181.733Z" fill="#49B3F7"/>
</g>
<defs>
<clipPath id="clip0_367_2141">
<rect width="44" height="76" fill="white" transform="translate(0 76)"/>
</clipPath>
<clipPath id="clip1_367_2141">
<rect width="44" height="76" fill="white" transform="translate(0 152)"/>
</clipPath>
</defs>
</svg>
