<svg width="511" height="900" viewBox="0 0 511 900" fill="none" xmlns="http://www.w3.org/2000/svg">
<path d="M261.822 780.6C204.177 780.781 146.545 781.661 88.9251 783.24C87.4791 783.285 86.0387 783.042 84.6878 782.525C83.3369 782.007 82.1025 781.227 81.0565 780.228C80.0105 779.229 79.1739 778.033 78.5954 776.707C78.0169 775.382 77.7081 773.956 77.6869 772.51C75.8325 686.992 70.3051 601.732 60.1923 516.784C59.4527 510.726 64.2561 505.229 70.9614 504.55C134.587 498.452 198.331 495.266 262.193 494.99C268.943 495.006 274.361 500.131 274.298 506.386C273.435 594.018 272.953 681.652 272.851 769.288C272.889 772.249 271.748 775.104 269.68 777.225C267.611 779.346 264.785 780.56 261.822 780.6Z" fill="#0E2663"/>
<path d="M256.586 776.119C198.914 776.359 141.255 777.324 83.6102 779.012C82.1651 779.061 80.7247 778.822 79.3729 778.309C78.0212 777.796 76.7851 777.019 75.7367 776.024C74.6883 775.029 73.8486 773.835 73.2664 772.513C72.6842 771.19 72.3712 769.765 72.3456 768.32C70.4736 682.979 64.3246 597.785 53.9216 513.059C53.1492 507.014 57.9374 501.503 64.6579 500.795C128.436 494.422 192.345 490.992 256.385 490.504C263.154 490.498 268.606 495.607 268.564 501.863C267.992 589.506 267.676 677.15 267.616 764.795C267.654 767.758 266.513 770.614 264.445 772.737C262.377 774.86 259.551 776.077 256.586 776.119Z" fill="#2435A1"/>
<path d="M256.386 490.504C255.051 490.505 254.384 490.506 253.05 490.51C265.574 563.507 274.63 652.361 238.229 720.169C210.009 772.739 119.523 779.237 71.9824 753.221C72.1446 759.259 72.2173 762.279 72.3463 768.32C72.3718 769.765 72.6848 771.19 73.267 772.513C73.8491 773.835 74.6889 775.029 75.7373 776.024C76.7857 777.019 78.0217 777.796 79.3735 778.309C80.7252 778.822 82.1656 779.061 83.6108 779.012C141.261 777.383 198.919 776.419 256.587 776.119C259.552 776.077 262.378 774.86 264.446 772.737C266.514 770.614 267.654 767.758 267.617 764.795C267.692 677.15 268.008 589.506 268.565 501.863C268.607 495.607 263.155 490.498 256.386 490.504Z" fill="#182E89"/>
<path d="M185.498 491.961C145.126 493.805 104.846 496.75 64.6578 500.795C57.9374 501.503 53.1492 507.014 53.9216 513.059C59.1442 555.019 63.3114 597.074 66.4232 639.223C65.6001 603.379 62.5001 557.593 87.3475 528.412C110.481 501.243 151.431 492.61 185.498 491.961Z" fill="#3847A9"/>
<path d="M125.658 540.452C150.522 538.906 175.397 537.706 200.285 536.852" stroke="#FFC652" stroke-width="3.41827" stroke-miterlimit="10"/>
<path d="M120.016 707.722C152.725 706.548 185.439 705.696 218.158 705.166" stroke="#FFC652" stroke-width="3.41827" stroke-miterlimit="10"/>
<path d="M148.973 725.517C162.627 725.164 176.282 724.841 189.937 724.547" stroke="#FFC652" stroke-width="3.41827" stroke-miterlimit="10"/>
<path fill-rule="evenodd" clip-rule="evenodd" d="M170.159 570.753C169.349 570.812 168.534 570.745 167.744 570.552C167.731 570.573 169.299 571.61 169.309 571.643C168.097 572.228 166.845 572.727 165.562 573.134C165.546 573.17 167.258 573.69 167.258 573.69C167.379 573.88 164.933 580.598 164.933 580.598C164.923 580.598 162.02 573.919 162.02 573.919C162.046 573.869 163.633 573.219 163.633 573.219C163.579 573.117 159.782 572.097 159.789 572.062C160.251 571.627 160.738 571.219 161.247 570.839C161.229 570.818 158.86 571.251 158.86 571.251C158.859 571.238 161.566 569.318 161.566 569.318C161.544 569.309 157.93 569.889 157.93 569.889C157.928 569.879 162.262 567.453 163.005 567.118C163.87 566.902 164.77 566.87 165.648 567.025C166.408 567.295 170.934 569.313 170.934 569.313C170.934 569.319 167.285 569.065 167.285 569.065C168.121 569.814 169.098 570.388 170.159 570.753L170.159 570.753ZM172.2 614.609C172.472 615.077 172.125 616.282 171.869 616.129C171.457 615.882 170.838 614.277 170.133 613.452C169.555 612.776 168.283 611.286 168.283 611.286C169.7 612.255 171.013 613.368 172.2 614.609V614.609ZM168.623 620.543C168.628 618.747 168.356 616.961 167.816 615.248C167.469 614.131 166.724 610.09 166.724 610.09C167.208 611.912 167.806 613.701 168.515 615.447C169.152 616.728 170.127 619.709 168.623 620.543H168.623ZM164.848 615.361C164.586 617.129 164.448 618.913 164.436 620.7C163.944 619.05 163.852 617.307 164.166 615.613C164.768 613.827 165.229 611.995 165.544 610.136C165.404 611.889 165.172 613.633 164.848 615.361V615.361ZM162.427 613.749C161.773 614.704 161.234 616.293 160.872 616.548C160.607 616.735 160.19 615.539 160.429 615.06C161.517 613.733 162.741 612.522 164.08 611.449C164.084 611.451 162.988 613.024 162.427 613.749ZM173.822 617.09C174.31 617.852 172.949 618.609 172.795 618.458C172.716 618.208 172.681 617.945 172.691 617.683C172.746 617.6 173.579 617.476 173.822 617.09ZM160.148 618.936C159.254 618.972 158.979 617.655 159.022 617.652C159.409 617.789 159.784 617.958 160.143 618.158C160.209 618.232 160.136 618.635 160.148 618.936ZM153.74 601.749C153.781 601.939 153.85 602.121 153.945 602.291C153.873 602.498 151.95 603.166 151.475 604.058C150.82 605.29 151.662 606.805 151.475 607.418C151.353 607.818 150.108 607.907 150.108 607.907C151.082 608.102 152.067 608.233 153.057 608.299C152.998 608.943 152.907 609.583 152.783 610.217C152.8 610.264 154.219 609.45 154.239 609.451C154.264 609.452 154.349 609.963 154.365 609.972C154.437 610.008 155.059 609.389 155.059 609.389C155.082 609.394 155.253 610.127 155.125 610.315C154.822 610.567 154.485 610.776 154.124 610.935C153.215 611.428 152.249 611.808 151.247 612.066C150.829 612.141 150.398 612.081 150.016 611.896C149.634 611.71 149.321 611.409 149.121 611.034C148.815 610.222 147.833 610.468 147.556 610.505C147.483 610.515 146.983 610.356 146.842 610.614C146.678 610.434 146.532 610.239 146.403 610.033C146.299 609.652 146.161 609.282 145.99 608.926C145.759 608.622 145.359 608.129 145.167 607.838C145.056 607.669 145.297 607.413 145.3 607.406C145.312 607.378 144.934 607.226 144.931 607.223C144.882 607.164 144.841 606.426 144.346 606.299C142.692 603.355 141.861 601.885 140.192 598.948C140.181 598.947 140.168 598.946 140.157 598.946L139.984 598.604L139.975 598.565C139.784 598.23 139.689 598.063 139.499 597.729C139.554 597.664 139.594 597.586 139.613 597.503C139.631 597.419 139.63 597.332 139.608 597.25C139.585 597.167 139.543 597.091 139.485 597.028C139.427 596.965 139.354 596.918 139.273 596.889L139.269 596.814C139.278 596.756 139.284 596.697 139.286 596.639C139.41 596.594 139.538 596.562 139.669 596.543C140.857 595.879 141.961 595.074 142.957 594.146C142.959 594.148 140.914 595.877 140.19 596.616C139.519 597.301 139.835 597.98 139.975 598.565C140.062 598.718 140.105 598.795 140.192 598.948C140.84 598.975 141.874 599.28 142.494 598.677C142.689 598.487 146.085 594.089 146.085 594.089C146.091 594.094 144.01 597.004 143.205 598.442C142.61 599.504 143.669 600.739 143.763 600.793C143.931 600.89 145.469 600.9 145.944 600.034C146.409 599.187 148.349 595.382 148.349 595.382C148.356 595.385 146.685 599.372 146.597 599.677C146.267 600.821 147.518 601.67 147.677 601.705C147.86 601.745 149.367 601.514 149.706 600.455C149.937 599.735 150.756 596.495 150.756 596.495C150.77 596.499 150.581 598.233 150.479 599.341C150.377 600.45 151.8 600.968 152.026 600.975C152.25 600.981 153.521 600.567 153.638 599.572C153.742 598.697 153.678 596.535 153.678 596.535C153.8 596.644 153.934 596.739 154.078 596.818C154.233 596.803 155.255 595.92 155.428 595.828C155.465 595.809 155.621 595.919 155.694 595.992C156.591 596.882 155.659 600.885 155.659 600.885C155.665 600.902 156.681 600.689 156.681 600.689C156.732 600.745 155.073 602.164 153.739 601.748L153.74 601.748L153.74 601.749ZM197.575 582.441C196.44 582.123 195.261 581.986 194.083 582.037C194.08 582.022 197.871 578.683 197.613 578.333C197.356 577.984 194.364 578.502 194.364 578.502C194.354 578.478 197.256 574.904 196.74 574.326C196.437 573.988 193.168 575.187 193.168 575.187C193.166 575.184 195.66 569.011 195.007 568.885C194.709 568.827 190.317 573.311 190.317 573.311C191.431 571.772 192.426 570.149 193.294 568.458C193.818 566.969 192.353 563.411 191.877 563.616C191.291 563.868 187.042 572.805 186.464 572.859C186.395 572.865 185.941 572.403 185.875 572.45C185.474 572.741 183.513 576.366 183.275 576.315C183.248 576.31 182.907 575.624 182.885 575.624C182.539 575.625 178.798 579.818 177.862 581.265C177.679 581.484 177.543 581.74 177.465 582.015C177.386 582.289 177.366 582.578 177.407 582.861C177.447 583.144 177.546 583.415 177.698 583.658C177.849 583.9 178.05 584.108 178.288 584.268C178.736 584.654 179.578 585.399 178.912 586.433C177.838 588.102 174.437 586.807 174.463 586.748C174.869 585.682 175.191 584.585 175.426 583.468C175.261 583.495 174.092 584.618 173.172 584.283C172.687 584.082 172.224 583.83 171.791 583.533C171.809 583.497 174.06 581.785 174.06 581.785C173.894 581.721 171.916 581.894 171.689 581.676C171.332 581.296 171.079 580.832 170.953 580.326C170.828 579.821 170.834 579.292 170.971 578.789C171.139 577.661 172.73 575.174 173.063 575.186C173.13 575.189 173.421 575.524 173.779 575.46C173.998 575.421 174.373 575.173 174.65 575.073C174.996 574.958 175.363 574.913 175.727 574.943C176.091 574.972 176.445 575.074 176.769 575.244C177.04 575.401 177.263 575.628 177.416 575.901C177.569 576.174 177.646 576.483 177.638 576.796C177.359 575.956 177.021 575.137 176.629 574.344C176.63 574.334 178.979 575.359 179.231 575.504C179.583 575.68 179.97 575.774 180.363 575.777C180.757 575.78 181.146 575.693 181.5 575.522C181.834 575.297 182.101 574.985 182.271 574.62C182.441 574.255 182.509 573.85 182.467 573.45C182.4 573.477 182.026 574.326 181.406 574.419C180.502 574.47 179.599 574.295 178.779 573.91C178.021 573.732 177.247 573.626 176.469 573.595C176.459 573.561 180.124 573.842 180.395 573.876C180.543 573.895 181.036 573.23 181.129 572.566C181.377 570.781 178.592 570.163 178.362 569.926C178.283 569.844 177.667 569.472 177.636 569.45C177.571 569.322 177.514 569.19 177.464 569.055C177.506 569.041 177.549 569.031 177.593 569.024C179.004 568.978 180.354 568.438 181.407 567.498C182.763 566.018 180.747 562.951 181.198 562.775C182.057 562.873 182.888 563.142 183.642 563.567C183.778 563.841 183.868 564.136 183.909 564.439C184.216 565.972 182.665 566.382 183.155 568.065C183.37 568.804 183.977 569.068 184.22 569.991L183.768 571.214C183.805 571.307 185.796 570.047 185.336 569.046C185.144 568.627 184.636 567.761 184.636 567.761C185.36 568.181 186.207 568.339 187.034 568.207C187.524 568.04 187.305 569.23 187.305 569.23C187.675 568.805 187.968 568.318 188.17 567.791C188.169 567.648 188.135 567.507 188.071 567.379C188.006 567.251 187.913 567.139 187.799 567.053C187.684 566.967 187.551 566.908 187.411 566.881C187.27 566.855 187.124 566.861 186.986 566.9C186.703 566.958 186.057 567.357 185.987 566.783C185.866 565.794 187.548 565.675 187.121 564.075C186.905 563.266 185.367 563.129 184.396 562.71C184.102 562.502 183.844 562.248 183.632 561.957C182.738 560.721 181.86 560.376 181.376 560.655C180.803 560.985 180.478 561.241 179.991 561.512C179.604 561.658 179.247 561.877 178.941 562.156C178.316 562.948 178.99 564.16 179.364 564.882C179.8 565.508 180.014 566.262 179.973 567.023C179.742 567.904 178.158 568.647 177.32 568.759C177.273 568.765 177.217 568.788 177.165 568.79L177.15 568.438C177.394 567.951 177.601 567.447 177.77 566.93C178.328 565.301 177.102 564.842 175.991 564.434C175.811 564.344 175.604 564.325 175.412 564.381L175.386 564.382L175.37 564.659L175.186 564.616L175.198 564.289L175.119 564.292C175.19 564.233 175.246 564.158 175.283 564.074C175.32 563.99 175.338 563.898 175.334 563.806C175.328 563.642 175.266 563.485 175.158 563.36L175.342 563.353L175.26 563.281C175.186 563.193 175.103 563.112 175.014 563.039C174.975 562.997 174.946 562.947 174.929 562.892C174.985 562.92 175.039 562.952 175.091 562.986C175.19 563.036 175.274 563.111 175.336 563.203L175.444 563.274C175.419 562.681 175.406 562.385 175.381 561.792L175.281 561.897C175.197 561.948 175.12 562.011 175.053 562.082C175.009 562.128 174.957 562.164 174.899 562.189C174.916 562.134 174.941 562.083 174.972 562.035C175.032 561.955 175.174 561.851 175.198 561.799L175.272 561.696C174.653 561.721 174.344 561.733 173.725 561.758L173.807 561.855C173.901 561.913 173.985 561.986 174.054 562.072C174.088 562.121 174.164 562.218 174.164 562.218C174.107 562.194 174.052 562.163 174.003 562.124C173.918 562.047 173.817 561.991 173.707 561.96L173.624 561.863C173.65 562.455 173.662 562.752 173.688 563.344L173.763 563.266C173.843 563.173 173.937 563.093 174.042 563.028C174.09 563 174.195 562.921 174.195 562.921C174.195 562.922 174.118 563.05 174.097 563.076C174.021 563.169 173.947 563.258 173.871 563.336L173.796 563.415L174.032 563.406C173.973 563.465 173.93 563.538 173.906 563.618C173.882 563.698 173.878 563.782 173.894 563.864C173.897 563.954 173.919 564.042 173.958 564.123C173.998 564.203 174.054 564.275 174.123 564.332L174.097 564.333L174.137 564.658L173.93 564.717L173.892 564.442L173.866 564.443C173.67 564.402 173.465 564.437 173.294 564.541C172.21 565.053 170.993 565.659 171.703 567.171C171.919 567.675 172.177 568.161 172.473 568.623L172.483 568.849C170.743 568.346 169.137 567.459 167.785 566.255C167.726 566.171 167.647 566.085 167.618 566.036C167.611 565.654 167.607 565.463 167.6 565.082C168.053 564.227 168.434 563.336 168.738 562.419C169.522 560.099 167.754 559.448 166.076 558.891C165.82 558.774 165.53 558.752 165.258 558.827L165.196 559.182C165.017 559.18 164.928 559.179 164.749 559.177L164.752 558.7C164.675 558.72 164.596 558.732 164.517 558.735C164.514 558.727 164.991 558.211 164.974 557.86C164.967 557.722 164.926 557.588 164.856 557.469C164.787 557.35 164.689 557.249 164.573 557.175L164.94 557.158C164.695 556.92 164.471 556.661 164.271 556.385C164.58 556.542 164.871 556.731 165.142 556.948C165.105 556.196 165.087 555.82 165.05 555.068C164.873 555.227 164.239 555.662 164.235 555.658C164.4 555.374 164.599 555.112 164.829 554.877C164.04 554.913 163.645 554.931 162.856 554.968C163.076 555.197 163.282 555.439 163.472 555.693C163.178 555.545 162.896 555.373 162.63 555.18C162.667 555.931 162.686 556.307 162.724 557.059C162.925 556.874 163.507 556.419 163.508 556.42C163.355 556.712 163.175 556.99 162.97 557.249L163.311 557.233C163.206 557.319 163.123 557.429 163.069 557.554C163.016 557.679 162.994 557.815 163.005 557.951C163.023 558.327 163.545 558.78 163.545 558.78C163.457 558.785 163.369 558.781 163.282 558.767C163.302 558.957 163.311 559.052 163.331 559.242C163.153 559.26 163.064 559.269 162.886 559.287L162.843 558.938C162.701 558.905 162.554 558.9 162.411 558.924C162.268 558.948 162.13 559 162.007 559.077C160.454 559.774 158.807 560.624 159.724 562.826C160.085 563.726 160.55 564.581 161.11 565.373C161.13 565.773 161.14 565.974 161.159 566.375C161.108 566.402 161.074 566.479 161.011 566.558C159.729 567.819 158.225 568.834 156.576 569.553L156.565 569.328C156.822 568.845 157.033 568.339 157.195 567.817C157.734 566.187 156.478 565.742 155.364 565.346C155.184 565.258 154.977 565.241 154.785 565.299L154.758 565.3L154.747 565.577L154.561 565.536C154.565 565.405 154.567 565.34 154.57 565.209L154.544 565.21C154.65 565.071 154.706 564.901 154.702 564.726C154.704 564.644 154.689 564.562 154.658 564.486C154.627 564.41 154.58 564.341 154.521 564.283L154.757 564.271C154.59 564.131 154.433 563.979 154.287 563.818C154.469 563.929 154.643 564.055 154.806 564.194C154.774 563.603 154.759 563.308 154.728 562.717C154.578 562.862 154.418 562.995 154.25 563.117C154.379 562.943 154.519 562.776 154.67 562.62C154.051 562.65 153.742 562.666 153.124 562.697C153.275 562.841 153.542 563.153 153.542 563.153C153.357 563.056 153.183 562.938 153.024 562.802C153.056 563.393 153.072 563.688 153.103 564.279C153.253 564.127 153.412 563.985 153.58 563.853C153.476 564.032 153.353 564.198 153.212 564.348L153.422 564.338C153.327 564.471 153.28 564.633 153.289 564.796C153.292 564.889 153.317 564.979 153.362 565.06C153.408 565.141 153.472 565.209 153.55 565.26L153.471 565.264L153.515 565.588L153.308 565.648L153.267 565.374L153.241 565.375C153.044 565.336 152.839 565.373 152.669 565.479C151.591 566 150.381 566.615 151.106 568.117C151.328 568.617 151.59 569.099 151.89 569.557L151.909 569.907C151.856 569.905 151.803 569.9 151.751 569.89C150.907 569.852 149.271 569.231 148.947 568.403C148.831 567.652 148.974 566.884 149.352 566.225C149.668 565.503 150.187 564.166 149.516 563.483C149.173 563.236 148.789 563.052 148.381 562.941C147.872 562.716 147.541 562.493 146.921 562.216C146.417 561.99 145.543 562.344 144.799 563.709C144.62 564.019 144.387 564.294 144.111 564.523C143.193 565.021 141.658 565.304 141.527 566.119C141.269 567.724 142.951 567.697 142.937 568.697C142.928 569.279 142.248 568.927 141.953 568.901C141.811 568.872 141.664 568.877 141.524 568.914C141.385 568.952 141.255 569.021 141.147 569.117C141.038 569.213 140.953 569.332 140.899 569.466C140.844 569.6 140.821 569.745 140.832 569.89C140.85 570.189 141.827 571.238 141.827 571.238C141.838 571.224 141.498 570.078 142.002 570.201C142.838 570.28 143.673 570.047 144.348 569.548C144.376 569.556 143.93 570.456 143.769 570.882C143.386 571.895 145.531 572.893 145.531 572.893C145.545 572.841 144.968 571.72 144.968 571.72C145.1 570.811 145.696 570.497 145.85 569.718C146.188 568.02 144.485 567.811 144.759 566.192C144.779 565.889 144.841 565.59 144.944 565.305C145.661 564.826 146.461 564.486 147.302 564.301C147.821 564.455 146.05 567.654 147.539 569.002C148.675 569.841 150.068 570.257 151.478 570.18C151.523 570.181 151.567 570.188 151.61 570.198C151.612 570.204 151.486 570.597 151.475 570.606C151.41 570.659 150.868 571.081 150.823 571.141C150.573 571.47 147.873 572.255 148.283 574.003C148.401 574.514 148.716 574.957 149.159 575.237C149.496 575.157 153.043 574.617 153.043 574.617C152.264 574.722 151.495 574.894 150.746 575.132C149.972 575.585 149.097 575.836 148.2 575.863C147.549 575.825 147.062 575.004 147.031 574.995C147.021 575.398 147.123 575.796 147.326 576.144C147.529 576.493 147.825 576.778 148.181 576.967C148.545 577.102 148.935 577.153 149.322 577.116C149.709 577.08 150.082 576.956 150.414 576.754C150.652 576.588 152.9 575.377 152.9 575.377C152.902 575.39 152.116 577.899 152.116 577.899C152.081 577.592 152.128 577.281 152.25 576.998C152.373 576.715 152.568 576.468 152.816 576.284C153.124 576.089 153.468 575.957 153.828 575.897C154.188 575.836 154.556 575.848 154.912 575.932C155.197 576.008 155.6 576.21 155.815 576.24C156.157 576.288 156.454 575.912 156.502 575.906C156.87 575.861 158.604 578.197 158.909 579.308C159.098 579.794 159.156 580.321 159.075 580.836C158.994 581.351 158.779 581.836 158.45 582.241C157.683 582.447 156.892 582.551 156.098 582.55C156.864 583.123 157.67 583.64 158.512 584.096C158.109 584.432 157.669 584.721 157.201 584.958C156.314 585.369 154.973 584.345 154.885 584.338C154.584 584.314 156.089 587.447 156.128 587.517C156.251 587.741 152.914 589.141 151.693 587.575C150.921 586.585 151.709 585.79 152.104 585.374C152.324 585.194 152.504 584.969 152.633 584.716C152.762 584.462 152.836 584.184 152.851 583.901C152.866 583.617 152.822 583.333 152.721 583.067C152.62 582.801 152.465 582.559 152.265 582.356C150.548 580.512 148.709 578.786 146.759 577.19C146.638 577.42 146.537 577.66 146.459 577.908C146.231 578.007 143.82 574.47 143.493 574.304C143.429 574.272 143.003 574.762 142.944 574.76C142.13 574.722 137.191 566.25 136.697 566.091C136.106 565.901 135.097 569.596 135.74 571.003C136.75 572.606 137.89 574.125 139.148 575.542C137.525 574.134 135.831 572.81 134.073 571.575C133.351 571.791 136.478 577.644 136.478 577.644C136.478 577.645 133.087 576.783 132.844 577.101C132.351 577.745 135.582 581.023 135.582 581.023C135.575 581.043 132.529 580.81 132.332 581.133C132.078 581.549 136.123 584.497 136.123 584.497C136.122 584.505 132.892 584.808 132.73 585.187C132.481 585.77 136.653 587.871 136.653 587.871C136.654 587.882 133.614 589.196 133.633 589.514C133.657 589.932 137.135 590.898 137.135 590.898C137.136 590.902 136.073 591.691 136.013 591.684C136.001 591.683 135.881 591.601 135.828 591.619C135.765 591.642 135.733 591.775 135.763 591.848L135.766 591.898C135.654 592.004 135.572 592.138 135.528 592.286C135.454 592.492 135.15 592.884 135.179 592.98C135.184 592.996 135.28 593.033 135.286 593.049C135.335 593.178 135.377 593.31 135.412 593.443C135.412 593.477 135.294 593.649 135.274 593.751C134.884 593.632 134.689 593.572 134.299 593.453C134.274 593.802 134.321 594.152 134.437 594.481C134.554 594.811 134.737 595.113 134.976 595.368C135.331 595.698 135.716 595.653 135.62 595.784C136.046 596.001 136.259 596.109 136.684 596.327C136.767 596.467 136.901 596.569 137.058 596.612C137.215 596.655 137.382 596.635 137.525 596.557L137.529 596.632C137.551 597.032 138.164 597.356 138.219 597.447C138.25 597.596 138.32 597.734 138.421 597.847C138.522 597.96 138.652 598.045 138.796 598.092C140.535 601.636 141.399 603.41 143.119 606.961C142.986 607.394 143.487 607.854 143.499 607.894C143.506 607.919 143.365 608.327 143.365 608.327C143.384 608.335 143.74 608.166 143.86 608.453C143.942 608.647 144.068 609.487 144.209 609.813C144.403 610.157 144.616 610.489 144.847 610.809C144.993 611.183 145.089 611.574 145.134 611.973C145.076 612.263 144.286 612.968 144.389 613.586C144.463 614.031 144.976 614.168 145.036 614.256C145.184 614.473 145.989 615.283 146.116 615.409C146.407 615.72 146.738 615.991 147.101 616.215C147.428 616.344 147.737 616.515 148.02 616.724C148.155 617.141 148.363 617.53 148.635 617.874C148.847 618.059 149.069 618.233 149.299 618.395C149.521 618.542 149.96 618.719 150.179 618.606C150.327 618.53 150.321 617.906 150.32 617.748C150.319 617.645 150.264 617.133 150.261 616.999C150.201 616.647 150.091 616.306 149.935 615.986C149.841 615.738 149.778 615.48 149.747 615.217C149.814 614.995 150.922 614.439 151.141 614.278C152.391 613.223 153.903 612.524 155.516 612.255C156.069 612.193 156.624 612.161 157.18 612.159C157.859 612.187 158.823 612.368 159.352 611.917C159.426 611.861 159.484 611.787 159.521 611.702C159.558 611.617 159.572 611.524 159.562 611.432C159.479 611.041 158.999 610.655 158.823 610.308C158.774 610.212 158.625 609.89 158.625 609.89C159.029 609.864 159.43 609.814 159.826 609.739C160.219 609.319 160.53 608.83 160.743 608.296C160.649 608.238 158.829 608.99 158.607 607.632C158.414 606.445 159.466 605.367 161.177 605.742C162.342 605.998 164.135 608.342 162.64 609.448C161.964 610.151 161.399 610.952 160.965 611.825C161.027 611.843 162.957 610.942 162.957 610.942C162.984 611.032 160.697 612.047 159.44 612.816C158.326 613.498 157.472 614.662 156.597 614.742C155.895 614.807 156.128 613.358 156.128 613.358C156.107 613.284 154.546 613.807 154.331 614.513C154.28 614.873 154.309 615.239 154.417 615.585C154.525 615.932 154.708 616.251 154.954 616.518C154.955 616.632 153.542 617.876 153.909 619.045C154.177 619.809 154.507 620.55 154.896 621.26C155.378 621.046 155.757 620.652 155.951 620.162C156.029 619.835 156.127 619.512 156.243 619.197C156.285 619.216 156.685 621.056 157.744 621.517C158.471 621.834 160.373 620.996 160.433 621.008C160.598 621.04 162.072 622.762 163.284 622.703C163.805 622.575 164.312 622.396 164.797 622.168C164.989 622.228 166.181 623.949 166.675 623.931C167.176 623.912 168.316 622.083 168.446 622.032C168.949 622.217 169.467 622.358 169.994 622.453C171.181 622.423 172.673 620.559 172.713 620.547C172.897 620.494 174.731 621.226 175.432 620.855C176.455 620.315 176.758 618.422 176.758 618.422C176.923 618.72 177.054 619.037 177.147 619.365C177.279 619.88 178.254 620.384 178.254 620.384C178.626 619.66 178.902 618.89 179.075 618.094C179.327 616.894 177.869 615.645 177.869 615.645C177.863 615.555 178.698 614.532 178.315 613.593C178.033 612.903 176.434 612.575 176.434 612.575C176.413 612.673 176.788 613.994 176.072 613.996C175.179 613.998 174.253 612.884 173.091 612.29C171.779 611.618 169.441 610.69 169.441 610.69C169.452 610.638 171.495 611.418 171.495 611.418C171.044 610.547 170.412 609.782 169.641 609.175C168.07 608.208 169.674 605.713 170.835 605.361C172.48 604.862 173.641 605.85 173.52 607.047C173.38 608.421 171.42 607.857 171.391 607.878C171.627 608.42 171.998 608.891 172.469 609.246C172.991 609.295 173.516 609.276 174.033 609.19C174.026 609.3 174.012 609.41 173.993 609.518C173.985 610.649 173.255 610.937 173.519 611.32C173.763 611.675 175.898 611.554 176.453 611.619C177.407 611.732 178.279 612.049 179.217 612.205C180.278 612.275 181.331 612.443 182.362 612.706C182.953 612.928 183.725 613.518 184.263 613.678C185.008 613.9 185.046 614.157 185.609 614.14C186.121 614.124 186.324 613.672 186.974 613.494C187.419 613.373 187.962 613.513 188.405 613.377C188.717 613.28 188.889 612.938 189.182 612.75C189.531 612.526 190.048 612.477 190.396 612.186C190.572 612.039 190.551 611.636 190.588 611.548C191.001 610.81 191.497 610.122 192.065 609.495C192.135 609.435 192.392 609.284 192.388 609.109L192.386 609.033C192.478 608.967 192.553 608.878 192.604 608.776C192.655 608.674 192.68 608.56 192.677 608.446C192.672 608.318 192.639 608.193 192.583 608.077C192.527 607.962 192.448 607.859 192.351 607.776L192.348 607.7C192.344 607.549 192.226 607.44 192.184 607.352C191.669 606.261 190.588 604.552 189.009 604.196L189.007 604.121L188.981 604.122C188.979 604.046 188.903 604.036 188.875 604.024C188.651 603.804 188.469 603.545 188.337 603.26C188.654 603.445 188.96 603.645 189.256 603.861C189.231 603.026 189.218 602.609 189.193 601.773C188.992 601.931 188.326 602.441 188.312 602.429C188.472 602.101 188.679 601.798 188.928 601.53C188.063 601.556 187.631 601.569 186.766 601.596C187.021 601.857 187.246 602.146 187.437 602.456C187.12 602.272 186.813 602.072 186.517 601.855C186.543 602.69 186.556 603.108 186.582 603.942C186.783 603.785 187.449 603.275 187.462 603.286C187.303 603.615 187.095 603.918 186.847 604.186L186.925 604.209C185.316 604.611 184.309 606.571 183.815 607.578C183.771 607.668 183.643 607.784 183.648 607.935L183.65 608.01C183.58 608.098 183.535 608.203 183.521 608.314C183.506 608.426 183.522 608.539 183.567 608.642C183.626 608.856 183.738 609.051 183.893 609.21L183.895 609.285C183.903 609.511 184.171 609.598 184.241 609.652C184.323 609.716 184.406 610.05 184.515 610.222L184.539 610.196C184.467 610.429 184.338 610.641 184.164 610.813C183.991 610.986 183.778 611.113 183.544 611.184C182.134 611.211 180.732 610.966 179.416 610.462C178.733 610.321 178.106 609.984 177.612 609.492C177.43 609.182 177.338 608.829 177.346 608.47C177.38 608.462 178.052 609.016 178.083 608.998C178.121 608.823 178.15 608.646 178.168 608.467C178.255 608.458 179.705 609.12 179.705 609.12C179.714 609.089 179.257 607.223 179.257 607.223C179.333 607.208 182.166 606.599 182.166 606.599C182.096 606.541 180.929 606.613 180.765 606.217C180.511 605.603 181.214 604.008 180.499 602.856C179.951 601.974 177.883 601.317 177.869 601.285C177.858 601.26 178.039 600.732 178.03 600.726C177.853 600.585 175.01 599.903 175.01 599.903C175.02 599.892 176.046 600.017 176.046 600.017C176.067 599.939 174.79 596.095 175.609 595.129C175.676 595.05 175.825 594.929 175.86 594.944C176.058 595.029 177.202 595.828 177.313 595.823C177.364 595.82 177.513 595.639 177.664 595.508C177.664 595.508 177.792 597.685 177.953 598.541C178.136 599.512 179.453 599.832 179.622 599.816C179.893 599.79 181.25 599.157 181.057 598.057C180.865 596.956 180.547 595.231 180.547 595.231C180.564 595.225 181.626 598.418 181.919 599.109C182.352 600.134 183.914 600.234 184.043 600.197C184.406 599.993 184.692 599.675 184.857 599.292C185.022 598.909 185.056 598.483 184.955 598.079C184.848 597.808 182.854 593.92 182.854 593.92C182.862 593.915 185.122 597.596 185.634 598.384C186.178 599.219 187.748 599.049 187.87 598.969C188.159 598.647 188.344 598.245 188.399 597.816C188.455 597.388 188.38 596.952 188.183 596.567C187.281 595.232 185.027 592.439 185.027 592.439C185.044 592.426 188.751 596.542 188.988 596.744C189.367 596.936 189.783 597.043 190.207 597.056C190.631 597.07 191.053 596.989 191.442 596.821C191.62 596.447 191.685 596.029 191.626 595.619C191.568 595.209 191.391 594.825 191.116 594.515C190.344 593.831 188.151 592.264 188.151 592.264C189.215 593.094 190.363 593.811 191.577 594.401C192.002 594.524 192.451 594.543 192.885 594.456C193.319 594.369 193.725 594.178 194.069 593.9C194.225 593.508 191.056 590.84 191.056 590.84C191.056 590.839 195.739 590.855 195.831 590.45C195.915 590.081 193.679 588.546 193.679 588.546C193.681 588.531 197.064 587.268 197.051 586.864C197.039 586.487 193.847 585.469 193.847 585.469C193.846 585.453 197.434 583.856 197.576 582.441L197.575 582.441Z" fill="#FFC652"/>
<path fill-rule="evenodd" clip-rule="evenodd" d="M166.066 605.444C165.896 604.86 165.539 604.348 165.05 603.986C164.561 603.624 163.966 603.433 163.358 603.442C162.339 603.483 161.829 603.504 160.811 603.547C159.139 603.617 158.303 602.75 158.221 600.895C157.945 594.831 157.802 591.798 157.506 585.734C160.586 585.594 162.127 585.526 165.208 585.396C168.289 585.267 169.83 585.204 172.912 585.085C173.154 591.164 173.271 594.203 173.497 600.282C173.566 602.141 172.775 603.075 171.103 603.138C170.084 603.176 169.575 603.195 168.556 603.235C167.955 603.276 167.384 603.515 166.933 603.914C166.483 604.314 166.177 604.852 166.066 605.444V605.444Z" fill="#2435A1"/>
<path d="M111.451 686.83C108.54 686.965 107.084 687.034 104.173 687.174C103.712 688.377 103.482 688.978 103.021 690.179C102.787 690.698 102.65 691.256 102.617 691.824C102.627 691.972 102.672 692.115 102.749 692.242C102.825 692.369 102.931 692.475 103.057 692.553C103.612 692.817 104.226 692.932 104.839 692.889C104.847 693.093 104.851 693.195 104.859 693.398C102.495 693.509 101.313 693.566 98.9489 693.68C98.9406 693.477 98.9363 693.375 98.9277 693.172C99.4715 693.1 99.9878 692.89 100.428 692.563C101.079 691.742 101.571 690.808 101.882 689.807C104.267 683.543 105.457 680.408 107.834 674.132L108.321 674.107C111.226 680.186 112.666 683.232 115.52 689.337C115.864 690.222 116.383 691.028 117.046 691.708C117.573 692.089 118.213 692.282 118.862 692.258L118.881 692.769C115.919 692.896 114.438 692.961 111.476 693.094L111.456 692.584C111.988 692.583 112.509 692.431 112.958 692.144C113.076 692.05 113.171 691.93 113.234 691.793C113.298 691.656 113.328 691.506 113.322 691.355C113.227 690.692 113.014 690.052 112.694 689.464C112.198 688.41 111.949 687.883 111.451 686.83ZM111.021 685.829C109.623 682.869 108.921 681.391 107.51 678.437C106.331 681.518 105.741 683.058 104.56 686.137C107.144 686.011 108.437 685.95 111.021 685.829Z" fill="#FFC652"/>
<path d="M132.448 673.422C132.598 675.178 132.673 676.057 132.82 677.813L132.292 677.835C132.223 677.265 132.061 676.71 131.814 676.192C131.541 675.702 131.125 675.306 130.622 675.058C130.023 674.806 129.371 674.703 128.723 674.758C127.66 674.804 127.129 674.828 126.066 674.874C126.291 680.601 126.398 683.465 126.601 689.193C126.539 689.935 126.695 690.679 127.051 691.333C127.271 691.532 127.532 691.681 127.815 691.77C128.098 691.859 128.397 691.885 128.691 691.848L129.342 691.822L129.359 692.334C126.175 692.461 124.583 692.526 121.4 692.661L121.381 692.15L122.046 692.122C122.367 692.14 122.688 692.077 122.979 691.939C123.269 691.801 123.52 691.593 123.709 691.333C123.953 690.686 124.033 689.989 123.942 689.304C123.735 683.579 123.626 680.717 123.397 674.993C122.49 675.034 122.036 675.055 121.129 675.096C120.496 675.095 119.866 675.189 119.261 675.375C118.759 675.594 118.34 675.967 118.064 676.44C117.712 677.062 117.53 677.767 117.536 678.482C117.325 678.492 117.219 678.497 117.008 678.507C117.025 676.748 117.033 675.869 117.048 674.111C123.208 673.82 126.288 673.682 132.448 673.422Z" fill="#FFC652"/>
<path d="M149.855 672.735C149.996 674.498 150.066 675.379 150.205 677.142L149.676 677.161C149.61 676.589 149.452 676.031 149.206 675.51C148.937 675.017 148.523 674.618 148.02 674.366C147.423 674.11 146.771 674.003 146.123 674.055C145.06 674.095 144.529 674.115 143.466 674.156C143.663 679.902 143.756 682.775 143.933 688.523C143.868 689.267 144.021 690.014 144.374 690.672C144.593 690.872 144.852 691.023 145.135 691.114C145.417 691.205 145.716 691.233 146.011 691.198L146.662 691.175C146.668 691.38 146.671 691.483 146.677 691.688C143.493 691.799 141.901 691.856 138.717 691.975C138.711 691.77 138.708 691.667 138.701 691.462L139.366 691.437C139.687 691.457 140.008 691.395 140.3 691.259C140.591 691.122 140.843 690.914 141.033 690.654C141.279 690.006 141.362 689.307 141.274 688.62C141.093 682.875 140.997 680.003 140.796 674.26C139.889 674.296 139.435 674.314 138.528 674.35C137.895 674.346 137.265 674.436 136.659 674.62C136.155 674.837 135.734 675.209 135.457 675.681C135.101 676.305 134.916 677.01 134.919 677.728C134.708 677.737 134.602 677.741 134.391 677.75C134.416 675.985 134.428 675.103 134.452 673.339C140.613 673.082 143.693 672.961 149.855 672.735Z" fill="#FFC652"/>
<path d="M156.758 673.518C156.848 676.498 156.892 677.988 156.978 680.968C158.633 680.913 159.46 680.886 161.115 680.833C161.87 680.891 162.622 680.696 163.254 680.279C163.791 679.645 164.058 678.827 163.997 677.999L164.511 677.983C164.583 680.61 164.618 681.924 164.686 684.551C164.48 684.558 164.378 684.561 164.172 684.567C164.103 683.966 163.957 683.376 163.738 682.811C163.549 682.478 163.253 682.218 162.899 682.072C162.336 681.872 161.737 681.796 161.143 681.848C159.489 681.901 158.662 681.928 157.007 681.982C157.078 684.467 157.113 685.71 157.181 688.195C157.164 688.706 157.215 689.216 157.333 689.714C157.415 689.895 157.556 690.042 157.733 690.132C158.07 690.255 158.432 690.298 158.789 690.258C160.063 690.219 160.7 690.199 161.974 690.16C162.752 690.168 163.529 690.07 164.281 689.869C164.803 689.677 165.27 689.363 165.644 688.951C166.337 688.155 166.908 687.26 167.339 686.297L167.893 686.281C167.292 688.193 166.991 689.149 166.389 691.06C160.602 691.227 157.709 691.317 151.922 691.509L151.908 690.995C152.173 690.987 152.306 690.982 152.572 690.973C153.012 690.956 153.441 690.832 153.823 690.613C154.1 690.468 154.309 690.222 154.407 689.926C154.528 689.326 154.565 688.711 154.515 688.1C154.378 683.205 154.306 680.757 154.156 675.862C154.223 675.104 154.074 674.343 153.726 673.666C153.496 673.468 153.227 673.322 152.936 673.236C152.645 673.151 152.339 673.128 152.039 673.169C151.772 673.179 151.639 673.183 151.372 673.193C151.365 672.988 151.362 672.885 151.355 672.68C157.172 672.47 160.08 672.371 165.897 672.188C166.027 673.839 166.091 674.664 166.219 676.315C166.002 676.322 165.893 676.325 165.676 676.332C165.556 675.623 165.318 674.938 164.974 674.307C164.712 673.927 164.336 673.641 163.9 673.49C163.256 673.336 162.592 673.287 161.932 673.345C159.863 673.413 158.828 673.447 156.758 673.518Z" fill="#FFC652"/>
<path d="M185.331 671.208C185.56 673.776 185.674 675.06 185.9 677.629C185.728 677.633 185.642 677.635 185.47 677.639C185.059 676.046 184.168 674.616 182.919 673.544C181.805 672.716 180.436 672.303 179.049 672.376C177.848 672.394 176.678 672.758 175.678 673.424C174.602 674.195 173.795 675.283 173.369 676.536C172.785 678.211 172.533 679.984 172.628 681.756C172.629 683.278 172.944 684.783 173.552 686.177C174.075 687.359 174.959 688.346 176.076 688.997C177.223 689.646 178.528 689.961 179.845 689.905C180.972 689.9 182.078 689.601 183.055 689.038C184.269 688.189 185.295 687.098 186.068 685.834L186.503 686.103C185.764 687.612 184.655 688.91 183.279 689.877C181.947 690.715 180.405 691.159 178.832 691.158C177.436 691.257 176.038 691.008 174.762 690.433C173.487 689.858 172.375 688.976 171.525 687.865C170.195 686.129 169.471 684.005 169.464 681.819C169.4 680.008 169.789 678.21 170.596 676.588C171.35 675.038 172.524 673.732 173.985 672.817C175.431 671.909 177.096 671.412 178.803 671.378C180.208 671.35 181.6 671.658 182.862 672.276C183.12 672.427 183.407 672.524 183.704 672.56C183.825 672.559 183.945 672.534 184.056 672.486C184.168 672.437 184.268 672.367 184.352 672.279C184.611 671.979 184.781 671.612 184.844 671.22L185.331 671.208Z" fill="#FFC652"/>
<path d="M203.682 671.239C203.795 673.016 203.851 673.904 203.963 675.68L203.435 675.69C203.378 675.113 203.227 674.549 202.99 674.02C202.729 673.52 202.322 673.111 201.823 672.847C201.23 672.578 200.58 672.459 199.931 672.5C198.868 672.521 198.336 672.532 197.273 672.554C197.379 678.343 197.429 681.238 197.525 687.027C197.449 687.775 197.591 688.529 197.935 689.198C198.15 689.403 198.407 689.559 198.689 689.655C198.97 689.751 199.269 689.785 199.565 689.754L200.216 689.742L200.224 690.26C197.039 690.318 195.447 690.35 192.263 690.416L192.254 689.9C192.52 689.894 192.653 689.891 192.919 689.886C193.24 689.911 193.562 689.854 193.855 689.721C194.148 689.588 194.403 689.383 194.595 689.125C194.851 688.475 194.944 687.773 194.866 687.08C194.765 681.292 194.713 678.398 194.602 672.611C193.695 672.631 193.241 672.641 192.334 672.661C191.701 672.645 191.069 672.725 190.46 672.899C189.953 673.109 189.526 673.477 189.243 673.947C188.877 674.57 188.681 675.277 188.673 676L188.145 676.012C188.197 674.235 188.223 673.346 188.275 671.569C194.437 671.421 197.519 671.355 203.682 671.239Z" fill="#FFC652"/>
<path d="M216.378 683.648C213.465 683.689 212.009 683.71 209.096 683.757C208.602 684.963 208.356 685.565 207.862 686.771C207.614 687.292 207.462 687.853 207.413 688.428C207.419 688.578 207.46 688.725 207.533 688.856C207.606 688.987 207.709 689.099 207.833 689.183C208.379 689.468 208.989 689.605 209.604 689.582L209.611 690.099C207.246 690.136 206.064 690.156 203.699 690.197L203.691 689.679C204.237 689.623 204.759 689.426 205.206 689.108C205.88 688.292 206.398 687.359 206.734 686.356C209.29 680.071 210.571 676.928 213.141 670.642L213.628 670.635C216.342 676.905 217.69 680.044 220.372 686.325C220.691 687.232 221.187 688.066 221.832 688.778C222.345 689.18 222.979 689.397 223.631 689.394C223.633 689.602 223.634 689.705 223.636 689.913C220.673 689.945 219.192 689.964 216.229 690.004L216.223 689.486C216.755 689.502 217.28 689.363 217.735 689.088C217.857 688.995 217.955 688.876 218.022 688.739C218.089 688.602 218.123 688.451 218.121 688.299C218.043 687.625 217.849 686.969 217.546 686.361C217.079 685.276 216.845 684.733 216.378 683.648ZM215.977 682.619C214.664 679.57 214.006 678.046 212.685 675C211.414 678.086 210.78 679.63 209.512 682.716C212.098 682.675 213.391 682.655 215.977 682.619Z" fill="#FFC652"/>
<path d="M237.756 670.796C237.85 672.577 237.898 673.467 237.992 675.248C237.78 675.249 237.675 675.25 237.463 675.251C237.412 674.673 237.267 674.106 237.036 673.574C236.78 673.07 236.377 672.655 235.88 672.385C235.29 672.109 234.642 671.982 233.992 672.015C232.928 672.024 232.397 672.029 231.334 672.039C231.381 677.841 231.404 680.742 231.447 686.545C231.364 687.294 231.499 688.051 231.837 688.725C232.05 688.933 232.306 689.092 232.586 689.191C232.866 689.29 233.165 689.328 233.461 689.3L234.112 689.295L234.116 689.813C230.931 689.838 229.339 689.853 226.155 689.886L226.15 689.367C226.416 689.365 226.549 689.363 226.815 689.361C227.136 689.389 227.459 689.336 227.753 689.205C228.047 689.075 228.304 688.872 228.498 688.616C228.76 687.967 228.859 687.265 228.787 686.569C228.74 680.768 228.715 677.867 228.663 672.065C227.755 672.074 227.302 672.079 226.394 672.089C225.761 672.066 225.129 672.139 224.518 672.306C224.008 672.511 223.578 672.875 223.29 673.343C222.918 673.963 222.715 674.67 222.701 675.394L222.172 675.4C222.242 673.619 222.277 672.728 222.347 670.947C228.51 670.87 231.592 670.84 237.756 670.796Z" fill="#FFC652"/>
<path d="M433.292 386.011C375.758 385.212 318.223 384.708 260.686 384.498C257.726 384.453 254.904 383.236 252.842 381.113C250.779 378.991 249.644 376.137 249.687 373.178C249.617 285.529 249.394 197.881 249.02 110.232C249.044 108.712 249.369 107.212 249.976 105.818C250.582 104.424 251.459 103.164 252.554 102.109C253.65 101.055 254.944 100.227 256.361 99.6738C257.778 99.1206 259.29 98.8527 260.811 98.8855C322.745 99.2947 384.544 102.187 446.208 107.562C452.715 108.154 457.456 113.568 456.836 119.62C448.384 204.582 444.533 289.767 444.314 375.138C444.322 376.58 444.042 378.009 443.489 379.341C442.936 380.673 442.122 381.882 441.095 382.895C440.068 383.908 438.849 384.706 437.508 385.241C436.168 385.776 434.735 386.038 433.292 386.011Z" fill="#FFEBDD"/>
<path d="M426.006 255.841C425.727 262.942 412.328 266.867 409.522 273.13C406.712 279.402 412.744 291.999 407.865 297.054C403.176 301.913 390.268 296.424 384.058 299.846C378.162 303.097 376.09 317.061 369.195 318.718C362.684 320.282 354.411 308.838 347.278 308.703C340.144 308.569 331.638 319.747 325.164 317.946C318.308 316.038 316.55 301.893 310.747 298.377C304.635 294.673 291.602 299.713 287.052 294.586C282.319 289.254 288.729 276.715 286.148 270.21C283.57 263.714 270.348 259.049 270.367 251.789C270.387 244.529 283.702 240.004 286.386 233.552C289.075 227.089 282.728 214.443 287.631 209.193C292.345 204.145 305.565 209.491 311.905 205.983C317.925 202.651 320.141 188.574 327.274 186.948C334.008 185.412 342.34 196.976 349.662 197.224C356.984 197.473 366.055 186.555 372.67 188.55C379.677 190.663 380.996 204.743 386.807 208.423C392.929 212.299 406.436 207.884 410.854 213.134C415.448 218.595 408.436 230.62 410.81 237.115C413.181 243.6 426.286 248.741 426.006 255.841Z" fill="#FFF7F2"/>
<path d="M340.234 138.34C378.323 139.927 416.36 142.271 454.345 145.37C453.365 156.067 452.467 166.772 451.652 177.485C414.156 174.801 376.631 172.741 339.078 171.306C339.428 160.316 339.813 149.328 340.234 138.34Z" fill="#FFE0CC"/>
<path d="M340.005 144.478C377.99 146.03 415.925 148.32 453.81 151.347C453.099 159.407 452.761 163.438 452.12 171.504C414.539 168.74 376.925 166.628 339.279 165.168C339.555 156.892 339.7 152.753 340.005 144.478Z" fill="#FFF7F2"/>
<path d="M249.637 324.205C314.685 324.303 379.715 325.36 444.726 327.376C444.534 338.148 444.412 348.922 444.359 359.697C379.469 358.318 314.574 357.537 249.674 357.355C249.664 346.305 249.652 335.255 249.637 324.205Z" fill="#FFE0CC"/>
<path d="M249.645 330.376C314.656 330.474 379.651 331.478 444.629 333.39C444.507 341.502 444.461 345.559 444.399 353.676C379.494 352.197 314.584 351.365 249.668 351.182C249.66 342.859 249.655 338.698 249.645 330.376Z" fill="#FFF7F2"/>
<path d="M249.121 133.736C287.312 133.764 325.478 134.599 363.62 136.242C363.363 141.441 363.238 144.041 362.997 149.24C325.066 147.687 287.125 146.892 249.174 146.856C249.154 141.608 249.143 138.984 249.121 133.736Z" fill="white"/>
<path d="M249.174 146.855C287.137 146.884 325.077 147.679 362.996 149.24C362.755 154.44 362.638 157.04 362.411 162.241C324.692 160.767 286.963 160.012 249.224 159.975C249.205 154.727 249.195 152.103 249.174 146.855Z" fill="#49B3F7"/>
<path d="M249.225 159.975C286.974 160.004 324.702 160.759 362.411 162.241C362.185 167.441 362.076 170.041 361.865 175.243C324.34 173.858 286.809 173.142 249.272 173.094C249.254 167.846 249.244 165.222 249.225 159.975Z" fill="#FF6551"/>
<path d="M332.352 131.346C331.872 145.385 331.424 159.425 331.007 173.466C330.984 174.501 331.374 175.504 332.09 176.253C332.806 177.002 333.79 177.436 334.826 177.461C339.369 177.6 341.64 177.675 346.182 177.834C347.101 177.865 347.971 178.257 348.604 178.924C349.277 179.636 349.614 179.992 350.287 180.705C351.008 180.043 351.369 179.712 352.092 179.051C352.77 178.432 353.666 178.106 354.584 178.142C359.067 178.314 361.309 178.405 365.791 178.596C366.823 178.649 367.834 178.291 368.601 177.6C369.369 176.909 369.831 175.942 369.885 174.911C370.522 160.952 371.205 146.998 371.936 133.046C358.742 132.401 345.548 131.834 332.352 131.346Z" fill="#FF2C4B"/>
<path fill-rule="evenodd" clip-rule="evenodd" d="M354.767 144.018C354.311 144.013 353.86 143.936 353.428 143.791C353.42 143.801 354.244 144.46 354.248 144.479C353.543 144.752 352.819 144.974 352.082 145.142C352.071 145.162 353.002 145.536 353.002 145.536C353.062 145.649 351.366 149.323 351.366 149.323C351.36 149.323 350.065 145.416 350.065 145.416C350.081 145.389 351 145.098 351 145.098C350.975 145.038 348.905 144.281 348.911 144.259C349.191 144.036 349.483 143.829 349.786 143.64C349.777 143.627 348.434 143.756 348.434 143.756C348.434 143.749 350.041 142.797 350.041 142.797C350.03 142.791 347.983 142.942 347.983 142.942C347.983 142.936 350.524 141.778 350.956 141.625C351.448 141.546 351.952 141.572 352.434 141.701C352.845 141.889 355.27 143.244 355.27 143.244L353.246 142.93C353.674 143.391 354.192 143.761 354.767 144.018H354.767ZM353.92 168.835C354.053 169.111 353.808 169.776 353.67 169.679C353.447 169.522 353.165 168.591 352.803 168.095C352.505 167.688 351.852 166.793 351.852 166.793C352.61 167.401 353.303 168.085 353.919 168.836V168.835L353.92 168.835ZM351.654 172.033C351.731 171.019 351.652 169.999 351.42 169.009C351.27 168.363 351.024 166.05 351.024 166.05C351.219 167.1 351.48 168.135 351.806 169.152C352.111 169.902 352.538 171.625 351.654 172.033ZM349.741 168.945C349.518 169.933 349.365 170.935 349.283 171.944C349.075 170.991 349.096 170.002 349.345 169.059C349.761 168.075 350.1 167.061 350.357 166.025C350.203 167.008 349.997 167.983 349.741 168.945V168.945ZM348.444 167.929C348.034 168.441 347.662 169.315 347.447 169.444C347.29 169.538 347.106 168.844 347.261 168.583C347.932 167.881 348.674 167.25 349.476 166.702C349.478 166.704 348.792 167.544 348.444 167.929H348.444ZM354.732 170.303C354.976 170.754 354.177 171.123 354.096 171.032C354.062 170.887 354.053 170.738 354.069 170.59C354.104 170.545 354.579 170.511 354.732 170.303ZM346.937 170.763C346.431 170.744 346.332 169.987 346.356 169.988C346.569 170.082 346.773 170.194 346.967 170.323C347.001 170.367 346.943 170.592 346.937 170.763ZM344.088 160.754C344.102 160.864 344.133 160.97 344.178 161.071C344.13 161.184 343.016 161.474 342.707 161.958C342.282 162.625 342.687 163.521 342.554 163.86C342.467 164.081 341.762 164.074 341.762 164.074C342.301 164.229 342.85 164.348 343.405 164.431C343.343 164.792 343.262 165.151 343.164 165.504C343.172 165.532 344.008 165.135 344.019 165.136C344.033 165.138 344.057 165.431 344.066 165.436C344.105 165.46 344.483 165.138 344.483 165.138C344.496 165.142 344.56 165.564 344.479 165.665C344.297 165.794 344.098 165.897 343.888 165.971C343.353 166.209 342.792 166.381 342.216 166.482C341.977 166.505 341.736 166.452 341.529 166.329C341.322 166.207 341.159 166.022 341.064 165.801C340.928 165.327 340.364 165.421 340.206 165.43C340.165 165.433 339.891 165.32 339.799 165.459C339.715 165.349 339.642 165.232 339.578 165.11C339.537 164.889 339.477 164.673 339.397 164.463C339.28 164.28 339.079 163.982 338.983 163.808C338.928 163.707 339.076 163.573 339.078 163.569C339.086 163.554 338.88 163.45 338.879 163.449C338.854 163.413 338.865 162.992 338.592 162.898C337.798 161.151 337.401 160.278 336.605 158.531L336.586 158.528L336.505 158.326L336.502 158.303C336.411 158.104 336.366 158.005 336.275 157.806C336.31 157.772 336.335 157.73 336.35 157.683C336.365 157.637 336.368 157.588 336.36 157.54C336.351 157.492 336.331 157.447 336.302 157.408C336.272 157.37 336.234 157.339 336.189 157.319L336.191 157.276C336.199 157.243 336.205 157.21 336.209 157.177C336.28 157.158 336.354 157.146 336.428 157.141C337.129 156.822 337.788 156.418 338.391 155.94C338.392 155.942 337.16 156.824 336.717 157.208C336.307 157.564 336.451 157.965 336.502 158.303C336.543 158.395 336.564 158.44 336.605 158.532C336.968 158.578 337.534 158.8 337.911 158.488C338.031 158.389 340.15 156.058 340.15 156.058C340.153 156.061 338.844 157.611 338.322 158.388C337.937 158.962 338.473 159.713 338.524 159.748C338.614 159.811 339.478 159.889 339.786 159.421C340.087 158.962 341.358 156.899 341.358 156.899C341.362 156.901 340.233 159.08 340.169 159.249C340.116 159.477 340.137 159.717 340.228 159.932C340.32 160.148 340.479 160.329 340.681 160.449C340.918 160.467 341.155 160.42 341.367 160.312C341.579 160.204 341.757 160.039 341.88 159.836C342.044 159.438 342.657 157.642 342.657 157.642C342.664 157.645 342.476 158.618 342.367 159.241C342.257 159.864 343.034 160.224 343.16 160.237C343.286 160.251 344.019 160.076 344.132 159.518C344.23 159.028 344.296 157.802 344.296 157.802C344.38 157.876 344.481 157.981 344.508 157.98C344.595 157.979 345.21 157.527 345.312 157.483C345.334 157.474 345.416 157.543 345.454 157.588C345.916 158.134 345.207 160.354 345.207 160.354C345.209 160.364 345.791 160.29 345.791 160.29C345.563 160.495 345.29 160.643 344.994 160.724C344.698 160.804 344.388 160.815 344.087 160.754L344.088 160.755V160.754ZM369.563 151.821C368.94 151.594 368.286 151.467 367.623 151.445C367.622 151.437 369.893 149.726 369.764 149.518C369.635 149.312 367.937 149.473 367.937 149.473C367.932 149.459 369.717 147.58 369.453 147.233C369.298 147.03 367.416 147.56 367.416 147.56C367.416 147.558 369.087 144.202 368.73 144.103C367.747 144.809 366.804 145.569 365.907 146.381C366.601 145.566 367.231 144.699 367.793 143.788C368.154 142.975 367.5 140.915 367.228 141.007C366.89 141.121 364.097 145.951 363.775 145.955C363.736 145.955 363.504 145.675 363.465 145.699C363.226 145.844 361.961 147.793 361.831 147.755C361.816 147.75 361.657 147.349 361.645 147.348C360.521 148.22 359.491 149.208 358.573 150.295C358.46 150.41 358.372 150.548 358.316 150.699C358.259 150.85 358.235 151.011 358.244 151.172C358.253 151.333 358.296 151.49 358.37 151.634C358.444 151.777 358.547 151.903 358.673 152.005C358.906 152.242 359.345 152.699 358.924 153.252C358.246 154.143 356.398 153.263 356.415 153.23C356.692 152.647 356.923 152.044 357.106 151.425C357.013 151.433 356.305 152.013 355.806 151.782C355.543 151.647 355.296 151.484 355.067 151.296C355.079 151.277 356.419 150.415 356.419 150.415C356.33 150.372 355.214 150.379 355.097 150.245C354.915 150.014 354.795 149.74 354.749 149.45C354.702 149.159 354.731 148.862 354.832 148.585C355.103 147.835 355.565 147.168 356.174 146.652C356.211 146.657 356.358 146.859 356.561 146.839C356.686 146.827 356.907 146.705 357.067 146.662C357.266 146.613 357.473 146.605 357.675 146.638C357.877 146.672 358.071 146.746 358.243 146.856C358.387 146.957 358.502 147.096 358.574 147.256C358.647 147.417 358.675 147.594 358.656 147.769C358.54 147.284 358.39 146.807 358.208 146.343C358.209 146.337 359.474 147.022 359.608 147.115C359.796 147.23 360.009 147.3 360.228 147.32C360.448 147.34 360.67 147.308 360.876 147.228C361.073 147.116 361.237 146.953 361.349 146.755C361.461 146.558 361.518 146.334 361.513 146.107C361.474 146.119 361.225 146.58 360.875 146.603C360.367 146.591 359.87 146.452 359.43 146.198C359.015 146.062 358.587 145.967 358.154 145.914C358.15 145.894 360.186 146.221 360.335 146.252C360.416 146.269 360.724 145.918 360.807 145.549C361.03 144.555 359.504 144.08 359.387 143.936C359.346 143.887 359.021 143.648 359.005 143.635C358.974 143.56 358.949 143.483 358.928 143.404C358.952 143.399 358.976 143.395 359.001 143.393C359.792 143.431 360.572 143.189 361.203 142.711C362.03 141.941 361.056 140.123 361.314 140.045C361.789 140.141 362.239 140.331 362.638 140.604C362.701 140.764 362.737 140.934 362.746 141.106C362.843 141.982 361.958 142.141 362.151 143.11C362.236 143.536 362.563 143.711 362.655 144.241C362.531 144.508 362.469 144.642 362.345 144.909C362.362 144.962 363.532 144.345 363.323 143.761C363.235 143.517 362.993 143.007 362.993 143.007C363.377 143.276 363.842 143.403 364.31 143.367C364.592 143.295 364.413 143.954 364.413 143.954C364.64 143.731 364.826 143.471 364.964 143.185C364.97 143.104 364.958 143.024 364.929 142.949C364.899 142.874 364.852 142.807 364.792 142.754C364.732 142.7 364.661 142.661 364.583 142.639C364.506 142.618 364.424 142.615 364.345 142.63C364.185 142.649 363.805 142.845 363.793 142.519C363.772 141.958 364.716 141.968 364.554 141.049C364.472 140.585 363.62 140.436 363.1 140.157C362.946 140.026 362.814 139.872 362.711 139.699C362.272 138.962 361.8 138.728 361.517 138.862C361.182 139.02 360.988 139.149 360.704 139.279C360.48 139.343 360.271 139.449 360.087 139.591C359.7 140.008 360.016 140.721 360.19 141.145C360.403 141.519 360.486 141.952 360.426 142.378C360.254 142.862 359.335 143.207 358.861 143.231C358.832 143.236 358.803 143.239 358.773 143.241L358.782 143.043C358.942 142.78 359.082 142.506 359.201 142.223C359.591 141.332 358.928 141.016 358.331 140.734C358.235 140.675 358.12 140.655 358.01 140.677L357.996 140.677L357.974 140.832L357.873 140.799C357.882 140.726 357.887 140.689 357.896 140.616L357.852 140.614C357.894 140.583 357.929 140.544 357.954 140.498C357.979 140.453 357.993 140.402 357.996 140.35C358.001 140.258 357.974 140.166 357.92 140.091L358.023 140.096L357.98 140.051C357.943 139.998 357.901 139.949 357.855 139.903C357.835 139.878 357.821 139.848 357.815 139.816C357.845 139.835 357.873 139.855 357.901 139.877C357.953 139.91 357.997 139.956 358.027 140.011L358.083 140.056C358.098 139.721 358.106 139.554 358.122 139.219L358.061 139.273C358.011 139.298 357.965 139.329 357.924 139.366C357.898 139.39 357.867 139.408 357.833 139.419C357.845 139.389 357.862 139.361 357.881 139.336C357.919 139.294 358.003 139.242 358.019 139.214L358.066 139.16C357.72 139.144 357.546 139.136 357.2 139.121L357.242 139.179C357.291 139.216 357.334 139.262 357.368 139.313C357.385 139.343 357.423 139.401 357.423 139.401C357.391 139.385 357.363 139.364 357.337 139.34C357.294 139.293 357.24 139.256 357.18 139.234L357.139 139.175L357.101 140.012L357.146 139.971C357.196 139.923 357.252 139.882 357.314 139.851C357.342 139.837 357.404 139.798 357.404 139.798C357.405 139.798 357.355 139.867 357.342 139.881C357.295 139.929 357.249 139.976 357.203 140.016L357.158 140.057L357.289 140.063C357.254 140.094 357.226 140.133 357.209 140.177C357.191 140.22 357.185 140.268 357.19 140.314C357.187 140.365 357.195 140.416 357.213 140.463C357.231 140.51 357.259 140.553 357.295 140.589L357.28 140.588L357.286 140.773L357.168 140.797L357.16 140.64L357.146 140.639C357.038 140.607 356.922 140.617 356.822 140.668C356.193 140.904 355.483 141.188 355.804 142.073C355.9 142.367 356.02 142.653 356.163 142.927L356.157 143.055C355.21 142.689 354.358 142.112 353.665 141.37C353.636 141.32 353.596 141.267 353.583 141.238C353.598 141.023 353.605 140.915 353.621 140.699C353.916 140.239 354.173 139.756 354.389 139.253C354.943 137.984 353.99 137.531 353.087 137.135C352.951 137.057 352.79 137.03 352.636 137.059L352.582 137.256L352.334 137.231C352.344 137.124 352.35 137.07 352.36 136.962C352.317 136.97 352.272 136.973 352.227 136.971C352.227 136.966 352.519 136.699 352.527 136.5C352.531 136.422 352.515 136.345 352.482 136.274C352.45 136.204 352.401 136.142 352.34 136.094L352.545 136.103C352.421 135.956 352.31 135.799 352.213 135.633C352.377 135.737 352.529 135.858 352.668 135.994C352.687 135.568 352.696 135.355 352.715 134.929C352.608 135.01 352.233 135.224 352.231 135.221C352.337 135.07 352.462 134.932 352.602 134.811C352.162 134.792 351.941 134.782 351.501 134.764C351.611 134.904 351.713 135.051 351.805 135.203C351.649 135.105 351.502 134.994 351.364 134.872C351.345 135.298 351.336 135.511 351.317 135.937C351.439 135.842 351.787 135.614 351.787 135.615C351.687 135.772 351.572 135.92 351.444 136.056L351.635 136.064C351.572 136.107 351.52 136.165 351.483 136.233C351.447 136.301 351.428 136.377 351.427 136.453C351.418 136.667 351.685 136.948 351.685 136.948C351.635 136.946 351.586 136.94 351.539 136.928L351.541 137.198L351.291 137.202L351.285 137.002C351.208 136.977 351.127 136.967 351.045 136.973C350.964 136.98 350.885 137.002 350.813 137.039C349.914 137.354 348.951 137.753 349.347 139.042C349.501 139.567 349.716 140.072 349.988 140.548L349.964 141.116C349.934 141.129 349.911 141.171 349.872 141.212C349.094 141.86 348.204 142.359 347.245 142.685L347.25 142.557C347.419 142.297 347.562 142.022 347.68 141.735C348.064 140.841 347.386 140.527 346.787 140.248C346.691 140.189 346.576 140.17 346.466 140.192L346.451 140.192L346.431 140.348L346.329 140.315L346.351 140.131L346.337 140.131C346.403 140.057 346.443 139.964 346.45 139.865C346.456 139.819 346.452 139.772 346.438 139.727C346.425 139.683 346.403 139.641 346.373 139.605L346.505 139.611C346.419 139.523 346.34 139.429 346.266 139.331C346.362 139.403 346.453 139.483 346.536 139.569C346.549 139.234 346.556 139.066 346.57 138.731C346.479 138.805 346.383 138.873 346.283 138.933C346.364 138.841 346.451 138.754 346.543 138.673C346.197 138.659 346.024 138.652 345.678 138.639C345.754 138.728 345.887 138.917 345.887 138.917C345.789 138.853 345.698 138.778 345.617 138.693L345.583 139.532C345.674 139.454 345.77 139.381 345.871 139.315C345.804 139.411 345.726 139.498 345.64 139.577L345.757 139.581C345.697 139.652 345.663 139.741 345.659 139.834C345.656 139.886 345.665 139.938 345.686 139.986C345.707 140.034 345.739 140.076 345.78 140.109L345.736 140.107L345.743 140.292L345.625 140.316L345.616 140.159L345.602 140.159C345.494 140.127 345.378 140.137 345.278 140.189C344.651 140.428 343.942 140.715 344.268 141.602C344.365 141.896 344.487 142.181 344.63 142.455L344.623 142.654C344.593 142.65 344.564 142.645 344.535 142.637C344.066 142.573 343.186 142.14 343.049 141.655C343.024 141.224 343.143 140.797 343.39 140.443C343.604 140.05 343.964 139.321 343.626 138.9C343.449 138.743 343.245 138.62 343.024 138.536C342.752 138.382 342.58 138.239 342.25 138.051C341.981 137.897 341.476 138.052 340.988 138.786C340.872 138.952 340.727 139.096 340.561 139.212C340.024 139.446 339.152 139.528 339.035 139.982C338.804 140.879 339.743 140.95 339.682 141.515C339.646 141.845 339.285 141.61 339.122 141.581C339.044 141.558 338.961 141.554 338.88 141.568C338.8 141.582 338.724 141.615 338.658 141.664C338.593 141.713 338.539 141.776 338.502 141.849C338.465 141.921 338.445 142.002 338.444 142.083C338.564 142.377 338.727 142.652 338.927 142.898C338.934 142.891 338.805 142.225 339.08 142.32C339.543 142.407 340.023 142.318 340.423 142.07C340.438 142.076 340.142 142.563 340.03 142.796C339.763 143.35 340.907 144.024 340.907 144.024C340.918 143.995 340.655 143.331 340.655 143.331C340.776 142.823 341.125 142.676 341.252 142.242C341.531 141.298 340.592 141.093 340.832 140.19C340.859 140.02 340.91 139.854 340.983 139.697C341.407 139.465 341.87 139.313 342.35 139.25C342.63 139.363 341.473 141.084 342.232 141.923C342.82 142.454 343.576 142.76 344.368 142.787C344.393 142.79 344.417 142.796 344.441 142.804C344.442 142.807 344.35 143.023 344.344 143.028C344.305 143.054 343.981 143.266 343.953 143.297C343.796 143.47 342.248 143.781 342.387 144.791C342.426 145.084 342.578 145.351 342.812 145.533C343.004 145.504 345.014 145.374 345.014 145.374C344.573 145.395 344.135 145.454 343.704 145.552C343.25 145.769 342.747 145.868 342.244 145.839C341.883 145.785 341.652 145.296 341.636 145.29C341.609 145.516 341.645 145.746 341.741 145.953C341.836 146.16 341.987 146.336 342.177 146.463C342.374 146.558 342.589 146.606 342.808 146.604C343.026 146.602 343.241 146.551 343.436 146.453C343.577 146.371 344.895 145.796 344.895 145.796C344.896 145.804 344.329 147.184 344.329 147.184C344.325 147.009 344.367 146.836 344.45 146.682C344.533 146.528 344.654 146.398 344.802 146.305C344.984 146.21 345.183 146.152 345.387 146.136C345.591 146.119 345.797 146.144 345.991 146.208C346.147 146.265 346.362 146.399 346.48 146.427C346.669 146.47 346.855 146.272 346.882 146.271C347.446 146.836 347.852 147.539 348.058 148.31C348.14 148.593 348.146 148.894 348.076 149.18C348.006 149.467 347.861 149.731 347.657 149.945C347.218 150.024 346.77 150.045 346.326 150.007C346.726 150.367 347.153 150.697 347.602 150.995C347.36 151.166 347.099 151.309 346.826 151.421C346.309 151.611 345.607 150.968 345.558 150.96C345.392 150.932 346.082 152.774 346.1 152.816C346.159 152.949 344.219 153.582 343.612 152.638C343.228 152.041 343.708 151.629 343.95 151.412C344.082 151.32 344.194 151.202 344.279 151.065C344.363 150.927 344.419 150.774 344.441 150.615C344.463 150.455 344.453 150.293 344.409 150.138C344.366 149.982 344.291 149.838 344.189 149.713C343.321 148.587 342.38 147.52 341.371 146.519C341.291 146.643 341.222 146.774 341.166 146.91C341.035 146.955 339.87 144.831 339.696 144.721C339.662 144.699 339.398 144.955 339.365 144.951C338.914 144.889 336.61 139.83 336.345 139.715C336.028 139.578 335.261 141.62 335.544 142.452C336.021 143.412 336.576 144.332 337.204 145.202C336.374 144.321 335.499 143.482 334.583 142.69C334.169 142.774 335.601 146.258 335.601 146.258C335.601 146.259 333.752 145.596 333.599 145.763C333.288 146.104 334.923 148.131 334.923 148.131C334.918 148.141 333.227 147.854 333.099 148.027C332.934 148.251 335.045 150.13 335.045 150.13C335.044 150.134 333.221 150.144 333.11 150.351C332.939 150.67 335.169 152.072 335.169 152.072C335.169 152.078 333.399 152.671 333.393 152.854C333.385 153.094 335.286 153.814 335.286 153.814C335.287 153.816 334.65 154.211 334.617 154.205C334.611 154.203 334.548 154.151 334.517 154.159C334.481 154.168 334.456 154.242 334.469 154.285L334.468 154.314C334.4 154.369 334.347 154.441 334.315 154.523C334.263 154.636 334.073 154.844 334.085 154.9C334.087 154.909 334.139 154.934 334.142 154.944C334.163 155.02 334.18 155.096 334.192 155.174C334.191 155.193 334.116 155.285 334.099 155.342L333.567 155.125C333.535 155.321 333.544 155.522 333.593 155.715C333.642 155.908 333.73 156.088 333.852 156.246C334.034 156.451 334.253 156.444 334.192 156.513C334.421 156.657 334.535 156.73 334.763 156.874C334.802 156.957 334.872 157.021 334.958 157.054C335.044 157.086 335.14 157.083 335.224 157.046L335.222 157.088C335.215 157.316 335.543 157.53 335.57 157.584C335.58 157.67 335.612 157.751 335.664 157.82C335.715 157.889 335.783 157.944 335.862 157.978C336.667 160.074 337.068 161.121 337.871 163.216C337.776 163.455 338.036 163.739 338.041 163.763C338.044 163.777 337.946 164.002 337.946 164.002C337.956 164.007 338.165 163.928 338.219 164.096C338.256 164.21 338.288 164.693 338.353 164.884C338.446 165.088 338.551 165.286 338.667 165.478C338.732 165.697 338.768 165.923 338.775 166.151C338.729 166.313 338.252 166.677 338.282 167.032C338.303 167.288 338.587 167.389 338.617 167.442C338.69 167.571 339.108 168.068 339.174 168.144C339.324 168.334 339.499 168.502 339.693 168.646C339.872 168.734 340.039 168.845 340.189 168.976C340.247 169.218 340.347 169.448 340.486 169.655C340.597 169.77 340.714 169.878 340.837 169.98C340.956 170.073 341.196 170.193 341.324 170.139C341.411 170.102 341.436 169.748 341.442 169.659C341.446 169.6 341.437 169.308 341.442 169.232C341.423 169.03 341.376 168.832 341.302 168.643C341.26 168.499 341.236 168.35 341.23 168.2C341.278 168.076 341.927 167.811 342.058 167.73C342.809 167.189 343.692 166.861 344.614 166.78C344.928 166.77 345.242 166.776 345.556 166.8C345.937 166.845 346.472 166.991 346.79 166.759C346.834 166.731 346.87 166.691 346.895 166.645C346.919 166.599 346.932 166.547 346.93 166.494C346.9 166.269 346.647 166.03 346.563 165.826C346.539 165.769 346.47 165.581 346.47 165.581C346.698 165.584 346.926 165.574 347.153 165.549C347.393 165.329 347.59 165.066 347.733 164.774C347.683 164.737 346.624 165.081 346.56 164.303C346.504 163.623 347.145 163.062 348.091 163.35C348.735 163.546 349.642 164.95 348.751 165.509C348.339 165.876 347.986 166.304 347.703 166.778C347.738 166.791 348.864 166.367 348.864 166.367C348.876 166.419 347.543 166.892 346.801 167.271C346.143 167.608 345.611 168.229 345.113 168.235C344.715 168.241 344.91 167.431 344.91 167.431C344.901 167.389 343.998 167.615 343.846 168.005C343.801 168.207 343.802 168.415 343.848 168.616C343.893 168.817 343.983 169.005 344.11 169.168C344.105 169.233 343.254 169.874 343.41 170.552C343.529 170.996 343.684 171.43 343.873 171.849C344.154 171.749 344.385 171.542 344.515 171.274C344.573 171.092 344.642 170.914 344.722 170.74C344.744 170.753 344.892 171.812 345.47 172.119C345.867 172.329 346.976 171.937 347.01 171.946C347.102 171.972 347.862 173.008 348.549 173.026C348.849 172.976 349.142 172.897 349.426 172.789C349.532 172.831 350.134 173.853 350.414 173.863C350.698 173.874 351.417 172.889 351.493 172.866C351.769 172.991 352.056 173.092 352.35 173.168C353.022 173.201 353.941 172.212 353.964 172.207C354.069 172.184 355.076 172.673 355.487 172.493C356.086 172.231 356.334 171.177 356.334 171.177C356.415 171.352 356.476 171.536 356.515 171.724C356.569 172.02 357.099 172.345 357.099 172.345C357.338 171.952 357.525 171.529 357.656 171.088C357.846 170.422 357.075 169.658 357.075 169.658C357.075 169.607 357.588 169.066 357.411 168.521C357.281 168.12 356.392 167.868 356.392 167.868C356.376 167.923 356.533 168.683 356.129 168.653C355.625 168.617 355.149 167.951 354.519 167.566C353.808 167.131 352.529 166.507 352.529 166.507C352.538 166.478 353.656 167.006 353.656 167.006C353.439 166.495 353.116 166.036 352.707 165.661C351.863 165.047 352.876 163.709 353.545 163.561C354.492 163.351 355.103 163.959 354.983 164.628C354.846 165.397 353.766 164.994 353.749 165.005C353.858 165.32 354.047 165.602 354.298 165.823C354.589 165.873 354.887 165.884 355.182 165.858C355.172 165.92 355.16 165.981 355.145 166.042C355.092 166.679 354.669 166.81 354.801 167.037C354.924 167.248 356.133 167.27 356.443 167.33C356.976 167.434 357.454 167.65 357.977 167.777C358.573 167.861 359.159 167.999 359.73 168.19C360.054 168.34 360.465 168.703 360.762 168.816C361.174 168.972 361.185 169.118 361.503 169.131C361.792 169.143 361.925 168.897 362.299 168.824C362.555 168.774 362.856 168.875 363.111 168.816C363.291 168.775 363.402 168.589 363.574 168.495C363.816 168.422 364.052 168.333 364.282 168.228C364.387 168.152 364.391 167.925 364.416 167.877C364.679 167.479 364.986 167.112 365.332 166.783C365.373 166.752 365.524 166.678 365.529 166.579L365.531 166.537C365.586 166.503 365.631 166.457 365.664 166.401C365.697 166.346 365.716 166.283 365.719 166.219C365.721 166.146 365.708 166.075 365.68 166.007C365.653 165.94 365.613 165.88 365.562 165.829L365.564 165.786C365.567 165.701 365.505 165.635 365.485 165.584C365.358 165.168 365.144 164.783 364.858 164.455C364.573 164.127 364.221 163.863 363.826 163.679L363.828 163.637L363.814 163.636C363.815 163.594 363.773 163.585 363.758 163.577C363.641 163.444 363.549 163.29 363.487 163.125C363.657 163.242 363.821 163.367 363.979 163.501C364 163.031 364.01 162.795 364.031 162.325C363.911 162.405 363.515 162.664 363.508 162.657C363.611 162.479 363.741 162.317 363.892 162.177C363.404 162.155 363.16 162.144 362.673 162.123C362.805 162.281 362.919 162.453 363.014 162.635C362.843 162.518 362.679 162.393 362.522 162.259C362.501 162.729 362.491 162.964 362.471 163.435C362.59 163.355 362.986 163.096 362.994 163.103C362.89 163.281 362.76 163.443 362.609 163.583L362.652 163.599C361.73 163.758 361.081 164.819 360.761 165.364C360.732 165.413 360.655 165.473 360.651 165.558L360.65 165.601C360.606 165.647 360.577 165.704 360.564 165.767C360.551 165.829 360.556 165.893 360.577 165.953C360.601 166.076 360.656 166.19 360.737 166.286L360.735 166.329C360.73 166.456 360.877 166.516 360.915 166.549C360.965 166.657 361.008 166.768 361.046 166.881L361.061 166.868C361.01 166.996 360.929 167.11 360.824 167.2C360.719 167.289 360.593 167.352 360.459 167.382C359.663 167.339 358.883 167.143 358.161 166.803C357.782 166.695 357.443 166.479 357.185 166.181C357.096 165.999 357.059 165.796 357.079 165.594C357.098 165.591 357.453 165.931 357.472 165.922C357.501 165.825 357.524 165.727 357.542 165.627C357.591 165.626 358.38 166.06 358.38 166.06C358.387 166.042 358.208 164.973 358.208 164.973C358.251 164.967 359.872 164.744 359.872 164.744C359.835 164.709 359.175 164.7 359.1 164.47C358.983 164.114 359.445 163.246 359.092 162.566C358.821 162.046 357.687 161.589 357.68 161.569C357.675 161.554 357.799 161.265 357.795 161.261C357.701 161.174 356.132 160.666 356.132 160.666C356.138 160.661 356.709 160.775 356.709 160.775C356.725 160.733 356.176 158.511 356.68 158.003C356.721 157.961 356.81 157.9 356.829 157.91C356.936 157.966 357.543 158.466 357.606 158.468C357.635 158.469 357.726 158.374 357.817 158.306C357.817 158.306 357.793 159.538 357.846 160.027C357.907 160.582 358.634 160.819 358.729 160.817C358.883 160.814 359.673 160.516 359.613 159.889C359.552 159.261 359.449 158.276 359.449 158.276C359.459 158.274 359.917 160.116 360.052 160.518C360.251 161.114 361.126 161.236 361.199 161.221C361.413 161.122 361.587 160.955 361.696 160.747C361.805 160.538 361.843 160.3 361.803 160.068C361.754 159.912 360.802 157.638 360.802 157.638C360.807 157.636 361.918 159.804 362.172 160.269C362.442 160.762 363.332 160.732 363.405 160.693C363.581 160.524 363.701 160.306 363.751 160.067C363.8 159.829 363.777 159.581 363.682 159.356C363.232 158.567 362.088 156.899 362.088 156.899C362.098 156.893 364.003 159.366 364.128 159.489C364.332 159.613 364.562 159.691 364.799 159.716C365.037 159.741 365.278 159.714 365.504 159.636C365.62 159.434 365.674 159.201 365.658 158.969C365.643 158.736 365.559 158.512 365.418 158.327C365.014 157.91 363.849 156.935 363.849 156.935C364.411 157.448 365.026 157.899 365.682 158.282C365.916 158.369 366.167 158.399 366.415 158.368C366.662 158.338 366.898 158.247 367.103 158.106C367.208 157.891 365.542 156.259 365.542 156.259C366.438 156.365 367.345 156.36 368.24 156.242C368.303 156.039 367.113 155.083 367.113 155.083C367.115 155.074 369.067 154.509 369.077 154.281C369.087 154.068 367.341 153.362 367.341 153.362C367.341 153.353 369.422 152.609 369.563 151.821L369.563 151.821Z" fill="#FFC652"/>
<path d="M291.31 250.234C288.41 250.205 286.96 250.193 284.06 250.171C283.545 251.366 283.287 251.963 282.773 253.158C282.515 253.675 282.353 254.233 282.294 254.807C282.297 254.957 282.335 255.105 282.405 255.238C282.475 255.371 282.575 255.485 282.698 255.573C283.234 255.87 283.84 256.022 284.453 256.012L284.45 256.531C282.095 256.513 280.918 256.505 278.562 256.492L278.565 255.974C279.109 255.93 279.633 255.745 280.084 255.437C280.771 254.634 281.305 253.712 281.658 252.717C284.324 246.484 285.663 243.369 288.356 237.146C288.55 237.147 288.647 237.148 288.841 237.15C291.406 243.491 292.684 246.661 295.236 253.003C295.535 253.916 296.013 254.761 296.642 255.488C297.145 255.901 297.772 256.133 298.423 256.145C298.421 256.352 298.42 256.456 298.418 256.663C295.467 256.629 293.992 256.614 291.041 256.586C291.043 256.379 291.043 256.275 291.045 256.068C291.574 256.096 292.1 255.97 292.558 255.704C292.681 255.614 292.781 255.497 292.85 255.362C292.919 255.226 292.956 255.077 292.957 254.925C292.892 254.248 292.711 253.588 292.421 252.974C291.977 251.878 291.755 251.33 291.31 250.234ZM290.931 249.195C289.685 246.114 289.06 244.574 287.81 241.494C286.481 244.551 285.818 246.08 284.495 249.139C287.069 249.159 288.357 249.17 290.931 249.195Z" fill="#2435A1"/>
<path d="M312.845 237.905C312.902 239.684 312.931 240.573 312.989 242.352L312.463 242.343C312.424 241.765 312.291 241.196 312.072 240.659C311.827 240.15 311.435 239.727 310.946 239.446C310.365 239.156 309.723 239.013 309.074 239.03C308.016 239.014 307.487 239.005 306.429 238.99C306.356 244.784 306.321 247.681 306.257 253.476C306.16 254.222 306.281 254.981 306.605 255.661C306.813 255.873 307.064 256.037 307.341 256.143C307.619 256.248 307.916 256.292 308.212 256.272L308.86 256.281C308.858 256.488 308.856 256.591 308.854 256.798C305.683 256.752 304.097 256.731 300.926 256.692C300.928 256.485 300.929 256.382 300.931 256.175L301.593 256.183C301.912 256.218 302.234 256.172 302.53 256.049C302.825 255.925 303.084 255.728 303.283 255.477C303.555 254.834 303.667 254.135 303.608 253.439C303.669 247.644 303.701 244.746 303.77 238.951C302.867 238.938 302.416 238.931 301.512 238.919C300.884 238.88 300.253 238.938 299.641 239.09C299.129 239.283 298.693 239.636 298.398 240.096C298.014 240.708 297.797 241.41 297.769 242.131C297.558 242.129 297.453 242.128 297.242 242.125C297.348 240.347 297.402 239.457 297.509 237.679C303.643 237.754 306.711 237.8 312.845 237.905Z" fill="#2435A1"/>
<path d="M330.175 238.25C330.224 240.026 330.249 240.915 330.3 242.691L329.774 242.679C329.736 242.101 329.607 241.533 329.389 240.996C329.147 240.486 328.757 240.062 328.269 239.778C327.69 239.486 327.048 239.34 326.399 239.353C325.341 239.331 324.812 239.32 323.754 239.298C323.654 245.083 323.607 247.976 323.519 253.761C323.42 254.507 323.538 255.265 323.859 255.946C324.066 256.158 324.316 256.323 324.593 256.43C324.87 256.537 325.167 256.582 325.463 256.563C325.723 256.568 325.852 256.57 326.112 256.575C326.108 256.782 326.107 256.885 326.104 257.092C322.932 257.03 321.347 257.001 318.175 256.947C318.178 256.74 318.179 256.636 318.182 256.43L318.845 256.441C319.163 256.479 319.485 256.434 319.781 256.312C320.077 256.19 320.338 255.995 320.537 255.745C320.812 255.104 320.926 254.407 320.87 253.712C320.955 247.925 321 245.031 321.095 239.245C320.192 239.227 319.741 239.218 318.837 239.201C318.209 239.159 317.578 239.213 316.965 239.362C316.453 239.551 316.015 239.901 315.718 240.359C315.331 240.969 315.111 241.668 315.079 242.389L314.553 242.38C314.667 240.604 314.724 239.716 314.84 237.94C320.974 238.05 324.041 238.112 330.175 238.25Z" fill="#2435A1"/>
<path d="M336.997 239.443C336.935 242.431 336.905 243.926 336.847 246.914C338.495 246.953 339.318 246.973 340.966 247.014C341.712 247.116 342.47 246.963 343.119 246.581C343.685 245.976 343.99 245.173 343.969 244.345L344.481 244.359C344.423 246.988 344.395 248.303 344.341 250.932L343.829 250.919C343.788 250.314 343.671 249.716 343.48 249.14C343.308 248.797 343.026 248.52 342.68 248.354C342.132 248.123 341.54 248.013 340.945 248.032C339.298 247.991 338.474 247.971 336.827 247.932C336.779 250.424 336.755 251.67 336.71 254.163C336.67 254.674 336.697 255.188 336.792 255.692C336.865 255.877 336.998 256.033 337.171 256.133C337.5 256.274 337.858 256.336 338.216 256.316C339.484 256.346 340.119 256.36 341.388 256.391C342.161 256.441 342.937 256.385 343.696 256.225C344.223 256.061 344.702 255.772 345.092 255.381C345.818 254.623 346.427 253.76 346.899 252.822L347.451 252.837C346.765 254.713 346.423 255.651 345.74 257.529C339.976 257.385 337.094 257.318 331.33 257.197C331.334 256.991 331.335 256.888 331.339 256.681L332 256.695C332.438 256.701 332.871 256.601 333.261 256.402C333.543 256.271 333.762 256.035 333.872 255.745C334.02 255.149 334.084 254.535 334.063 253.921C334.15 249.008 334.196 246.551 334.293 241.638C334.398 240.881 334.288 240.11 333.977 239.412C333.76 239.201 333.5 239.039 333.216 238.936C332.931 238.833 332.627 238.792 332.326 238.815C332.06 238.809 331.927 238.805 331.661 238.799C331.665 238.593 331.667 238.49 331.671 238.284C337.462 238.418 340.357 238.491 346.148 238.65C346.192 240.306 346.215 241.135 346.26 242.791C346.044 242.785 345.936 242.782 345.72 242.776C345.635 242.06 345.433 241.363 345.122 240.712C344.882 240.319 344.523 240.011 344.097 239.834C343.466 239.642 342.808 239.554 342.148 239.574C340.088 239.52 339.058 239.493 336.997 239.443Z" fill="#2435A1"/>
<path d="M365.511 238.81C365.61 241.375 365.66 242.658 365.762 245.223L365.333 245.209C364.999 243.599 364.184 242.129 362.997 240.992C361.933 240.106 360.594 239.616 359.208 239.606C358.016 239.554 356.834 239.848 355.805 240.454C354.696 241.16 353.838 242.199 353.355 243.422C352.692 245.061 352.356 246.815 352.368 248.584C352.298 250.104 352.541 251.622 353.082 253.044C353.549 254.251 354.382 255.282 355.466 255.991C356.574 256.699 357.859 257.082 359.175 257.098C360.294 257.153 361.408 256.915 362.406 256.407C363.652 255.628 364.721 254.599 365.547 253.384C365.715 253.501 365.799 253.559 365.968 253.675C365.165 255.135 364.003 256.366 362.593 257.253C361.228 258.017 359.674 258.377 358.112 258.291C356.714 258.313 355.331 257.989 354.089 257.348C352.846 256.707 351.781 255.768 350.99 254.616C349.746 252.814 349.124 250.656 349.218 248.47C349.239 246.663 349.713 244.891 350.596 243.314C351.42 241.814 352.653 240.578 354.152 239.751C355.637 238.93 357.318 238.532 359.013 238.599C360.414 238.654 361.782 239.041 363.003 239.728C363.252 239.893 363.532 240.006 363.826 240.06C363.946 240.066 364.066 240.048 364.179 240.006C364.293 239.965 364.396 239.9 364.484 239.818C364.757 239.534 364.944 239.179 365.026 238.794L365.511 238.81Z" fill="#2435A1"/>
<path d="M383.754 239.901C383.778 241.664 383.791 242.545 383.818 244.308L383.291 244.288C383.262 243.713 383.14 243.147 382.93 242.611C382.694 242.101 382.309 241.674 381.826 241.385C381.25 241.086 380.611 240.931 379.962 240.933C378.904 240.894 378.375 240.874 377.317 240.835C377.138 246.575 377.053 249.445 376.894 255.185C376.785 255.925 376.894 256.68 377.207 257.358C377.412 257.573 377.661 257.74 377.936 257.85C378.212 257.96 378.508 258.01 378.804 257.995L379.453 258.017L379.439 258.53C376.267 258.421 374.681 258.368 371.51 258.266C371.515 258.061 371.518 257.958 371.523 257.753L372.185 257.774C372.502 257.817 372.825 257.778 373.122 257.661C373.42 257.545 373.683 257.355 373.887 257.109C374.17 256.477 374.292 255.786 374.245 255.096C374.401 249.352 374.484 246.481 374.659 240.738C373.756 240.706 373.304 240.69 372.401 240.658C371.773 240.605 371.141 240.649 370.527 240.786C370.012 240.965 369.57 241.306 369.265 241.756C368.87 242.355 368.64 243.046 368.598 243.761C368.388 243.754 368.283 243.751 368.072 243.744C368.211 241.982 368.28 241.101 368.42 239.34C374.554 239.55 377.62 239.663 383.754 239.901Z" fill="#2435A1"/>
<path d="M395.802 252.854C392.901 252.738 391.452 252.682 388.552 252.572C388.007 253.736 387.735 254.318 387.191 255.483C386.921 255.985 386.745 256.532 386.673 257.097C386.672 257.246 386.707 257.393 386.774 257.527C386.841 257.66 386.938 257.776 387.058 257.865C387.588 258.174 388.19 258.342 388.804 258.351C388.798 258.556 388.795 258.658 388.789 258.862C386.433 258.776 385.256 258.733 382.9 258.65L382.915 258.138C383.459 258.112 383.987 257.944 384.447 257.653C385.152 256.882 385.708 255.987 386.086 255.013C388.905 248.937 390.324 245.905 393.187 239.853L393.672 239.873C396.064 246.21 397.261 249.376 399.66 255.702C399.94 256.614 400.398 257.461 401.008 258.193C401.503 258.616 402.124 258.861 402.774 258.892C402.768 259.096 402.764 259.198 402.758 259.402C399.807 259.283 398.331 259.225 395.38 259.111C395.386 258.907 395.39 258.804 395.396 258.6C395.923 258.644 396.452 258.535 396.918 258.286C397.043 258.202 397.145 258.089 397.218 257.957C397.29 257.826 397.331 257.679 397.335 257.529C397.286 256.859 397.121 256.203 396.845 255.59C396.428 254.495 396.219 253.948 395.802 252.854ZM395.448 251.818C394.278 248.742 393.693 247.203 392.524 244.125C391.114 247.098 390.411 248.587 389.012 251.566C391.586 251.664 392.873 251.715 395.448 251.818Z" fill="#2435A1"/>
<path d="M417.658 241.386C417.668 243.136 417.674 244.011 417.686 245.761L417.16 245.736C417.135 245.165 417.017 244.602 416.812 244.069C416.579 243.559 416.198 243.131 415.718 242.84C415.144 242.537 414.506 242.377 413.857 242.373C412.799 242.323 412.27 242.298 411.212 242.249C410.984 247.946 410.877 250.795 410.675 256.495C410.561 257.228 410.665 257.979 410.972 258.655C411.176 258.87 411.424 259.039 411.699 259.151C411.974 259.262 412.269 259.314 412.566 259.302C412.825 259.313 412.955 259.319 413.214 259.33C413.207 259.534 413.203 259.636 413.196 259.839C410.024 259.702 408.439 259.635 405.267 259.505C405.274 259.301 405.277 259.199 405.284 258.995L405.946 259.022C406.262 259.068 406.584 259.032 406.883 258.919C407.181 258.806 407.446 258.62 407.653 258.377C407.94 257.752 408.068 257.067 408.026 256.381C408.225 250.678 408.33 247.827 408.554 242.126C407.652 242.085 407.2 242.064 406.297 242.023C405.67 241.965 405.037 242.002 404.421 242.132C403.906 242.304 403.461 242.638 403.151 243.083C402.751 243.673 402.516 244.358 402.468 245.068L401.941 245.045C402.094 243.297 402.171 242.422 402.327 240.674C408.459 240.945 411.526 241.088 417.658 241.386Z" fill="#2435A1"/>
<path d="M298.906 271.853C331.516 272.324 364.117 273.091 396.707 274.153" stroke="#2435A1" stroke-width="3.69351" stroke-miterlimit="10"/>
<path d="M327.078 291.18C340.695 291.424 354.311 291.711 367.925 292.041" stroke="#2435A1" stroke-width="3.69351" stroke-miterlimit="10"/>
<g style="mix-blend-mode:multiply">
<path d="M260.811 98.8855C259.29 98.8527 257.778 99.1206 256.361 99.6738C254.944 100.227 253.65 101.055 252.555 102.109C251.459 103.164 250.582 104.424 249.976 105.818C249.369 107.212 249.044 108.712 249.02 110.232C249.354 185.516 249.565 260.8 249.652 336.084C256.723 336.071 260.259 336.069 267.331 336.078C270.293 336.041 273.119 334.829 275.188 332.71C277.256 330.591 278.397 327.738 278.36 324.778C278.503 249.516 278.992 174.258 279.826 99.0014C272.22 98.9191 268.417 98.8959 260.811 98.8855Z" fill="#C4C4DA"/>
</g>
<path d="M445.604 113.614C446.275 113.652 446.932 113.823 447.537 114.117C448.141 114.41 448.682 114.821 449.127 115.324C449.572 115.828 449.913 116.415 450.129 117.05C450.346 117.686 450.435 118.359 450.39 119.029C442.199 204.161 438.459 289.502 438.239 375.017C438.242 375.666 438.115 376.309 437.866 376.908C437.617 377.507 437.251 378.051 436.789 378.506C436.327 378.962 435.778 379.32 435.175 379.561C434.572 379.802 433.927 379.92 433.278 379.908C375.749 379.027 318.217 378.479 260.682 378.263C259.351 378.241 258.083 377.693 257.156 376.739C256.229 375.784 255.718 374.501 255.736 373.171C255.68 285.519 255.601 197.866 255.499 110.214C255.526 108.836 256.1 107.525 257.095 106.57C258.089 105.615 259.422 105.093 260.801 105.12C322.532 105.522 384.133 108.354 445.604 113.614L445.604 113.614ZM446.208 107.562C384.501 102.255 322.702 99.3629 260.811 98.8855C259.29 98.8527 257.778 99.1206 256.361 99.6738C254.944 100.227 253.65 101.055 252.554 102.109C251.459 103.164 250.582 104.424 249.976 105.818C249.369 107.212 249.044 108.712 249.02 110.232C249.409 197.881 249.632 285.529 249.687 373.178C249.644 376.137 250.779 378.991 252.842 381.113C254.904 383.236 257.726 384.453 260.686 384.498C318.225 384.652 375.76 385.156 433.292 386.011C434.735 386.038 436.168 385.776 437.508 385.241C438.849 384.706 440.068 383.908 441.095 382.895C442.122 381.882 442.936 380.673 443.489 379.341C444.042 378.009 444.322 376.58 444.314 375.138C444.533 289.767 448.384 204.582 456.836 119.62C457.456 113.568 452.715 108.154 446.208 107.562L446.208 107.562Z" fill="#FFC652"/>
</svg>
