<svg width="90" height="90" viewBox="0 0 90 90" fill="none" xmlns="http://www.w3.org/2000/svg">
<path d="M23.3508 69.4226C23.3285 69.4026 23.3055 69.3835 23.2816 69.3653C22.5679 68.773 21.8543 68.1379 21.1978 67.4814C20.7806 67.0687 20.1091 67.0687 19.692 67.4814C19.2745 67.8994 19.2745 68.5762 19.692 68.9942C20.4056 69.7079 21.1193 70.3715 21.9185 71.0138C22.3579 71.4093 23.0348 71.3737 23.4303 70.9342C23.8257 70.4948 23.7902 69.8181 23.3508 69.4226Z" fill="#49B3F7"/>
<path d="M12.1466 37.6871C11.5886 37.4921 10.978 37.7867 10.783 38.3447C10.7541 38.4275 10.7354 38.5137 10.7276 38.6009C10.5135 39.5786 10.3493 40.5705 10.228 41.5625C10.1517 42.1427 10.5552 42.6766 11.1343 42.7614H11.2699C11.8117 42.7617 12.2683 42.3573 12.3332 41.8194C12.4474 40.8917 12.6044 39.9568 12.8042 39.0505C12.9992 38.4925 12.7047 37.8819 12.1466 37.6871Z" fill="#49B3F7"/>
<path d="M18.0284 63.7489C17.4789 62.9925 16.958 62.2075 16.4799 61.4082C16.1776 60.9001 15.5207 60.7331 15.0126 61.0354C15.0117 61.0359 15.0107 61.0364 15.0098 61.0371C14.5017 61.3394 14.3347 61.9962 14.6369 62.5044C14.6374 62.5052 14.638 62.5063 14.6387 62.5072C15.1525 63.3636 15.7091 64.2056 16.3014 65.012C16.6666 65.477 17.3396 65.5576 17.8045 65.1924C18.2468 64.8449 18.3447 64.2142 18.0284 63.7489Z" fill="#49B3F7"/>
<path d="M14.2961 56.9985C13.9535 56.135 13.6395 55.243 13.3755 54.3438C13.2108 53.7761 12.6169 53.4493 12.0492 53.6139C12.0392 53.6168 12.0294 53.6198 12.0196 53.623C11.4578 53.7947 11.1393 54.3871 11.306 54.9504C11.5914 55.9066 11.9197 56.8629 12.2908 57.8049C12.5134 58.3586 13.1428 58.627 13.6966 58.4043C14.2504 58.1817 14.5187 57.5522 14.2961 56.9985Z" fill="#49B3F7"/>
<path d="M14.9347 30.3481C14.4067 30.0821 13.7628 30.2946 13.4968 30.8226C13.0472 31.7147 12.6333 32.6353 12.2693 33.5701C12.0547 34.1178 12.3225 34.7362 12.8688 34.9545C13.4185 35.1722 14.0406 34.9032 14.2582 34.3535C14.2589 34.3517 14.2597 34.3497 14.2604 34.348C14.6029 33.4773 14.974 32.6138 15.4093 31.786C15.6753 31.258 15.4628 30.6143 14.9347 30.3481Z" fill="#49B3F7"/>
<path d="M12.3703 49.5509C12.3701 49.55 12.3701 49.549 12.37 49.5481C12.2558 48.6204 12.1773 47.6784 12.1416 46.7507C12.12 46.1594 11.6232 45.6979 11.0319 45.7195C10.4407 45.7411 9.97914 46.2379 10.0007 46.8292C10.0007 47.8282 10.1149 48.8345 10.2434 49.8264C10.3165 50.3452 10.7545 50.7347 11.2781 50.747H11.4423C12.0289 50.6729 12.4444 50.1374 12.3703 49.5509Z" fill="#49B3F7"/>
<path d="M40.7676 13.8421C40.7105 13.2509 40.1849 12.8181 39.5937 12.8752C38.6017 12.9751 37.6026 13.1178 36.6178 13.3105C36.0266 13.3656 35.5922 13.8896 35.6473 14.4808C35.7024 15.0721 36.2264 15.5065 36.8176 15.4514L36.8105 15.4228H37.0175C37.938 15.2444 38.8729 15.1088 39.8006 15.0161C40.3918 14.959 40.8247 14.4334 40.7676 13.8421Z" fill="#49B3F7"/>
<path d="M19.5856 23.872C19.1403 23.4779 18.4597 23.5194 18.0656 23.9647C17.409 24.714 16.781 25.5062 16.1959 26.3197C15.849 26.7984 15.9559 27.4678 16.4347 27.8146C16.6165 27.9462 16.8349 28.0174 17.0593 28.0181V28.0324C17.4038 28.0337 17.7278 27.869 17.93 27.59C18.4795 26.8335 19.0646 26.0913 19.6783 25.392C20.0724 24.9467 20.0309 24.2662 19.5856 23.872Z" fill="#49B3F7"/>
<path d="M47.822 13.0533C46.8372 12.9034 45.831 12.7964 44.8319 12.7393C44.2407 12.7038 43.7328 13.1542 43.6973 13.7455C43.6618 14.3367 44.1122 14.8446 44.7035 14.8801C45.6455 14.9515 46.5803 15.0514 47.5009 15.1941H47.665C48.2563 15.2375 48.7706 14.7934 48.814 14.2022C48.8573 13.6111 48.4133 13.0966 47.822 13.0533Z" fill="#49B3F7"/>
<path d="M25.6627 18.7718C25.3278 18.3171 24.6973 18.2006 24.2221 18.5058C23.4014 19.0696 22.595 19.6833 21.8243 20.3184C21.369 20.6968 21.3067 21.3725 21.6851 21.8278C22.0635 22.283 22.7391 22.3453 23.1944 21.9669C23.9081 21.3675 24.6645 20.7966 25.4352 20.2685C25.9114 19.9181 26.0131 19.248 25.6627 18.7718Z" fill="#49B3F7"/>
<path d="M29.2538 17.906C29.2503 17.906 29.2469 17.9053 29.2433 17.9053C29.2396 17.9053 29.236 17.906 29.2324 17.906H29.2538Z" fill="#49B3F7"/>
<path d="M33.0284 15.3986C32.8719 14.8286 32.2828 14.4932 31.7126 14.6498C31.6625 14.6636 31.6134 14.6811 31.5658 14.7019C30.6309 15.0445 29.6961 15.4156 28.7969 15.8651C28.2608 16.1146 28.0285 16.7513 28.2779 17.2872C28.4528 17.6631 28.8292 17.9033 29.2431 17.9054C29.3976 17.9024 29.5498 17.8665 29.6889 17.7991C30.531 17.3994 31.4016 17.0355 32.2794 16.7144C32.8498 16.5577 33.185 15.9686 33.0284 15.3986Z" fill="#49B3F7"/>
<path d="M45.9712 77.3193C45.9337 76.728 45.4242 76.2792 44.8329 76.3166C43.8981 76.388 42.9561 76.4094 42.0212 76.3809C41.43 76.3652 40.938 76.8315 40.9223 77.4228C40.9066 78.014 41.3729 78.506 41.9642 78.5217H42.8705C43.5841 78.5217 44.2977 78.5217 44.9685 78.4575C45.5597 78.4202 46.0086 77.9105 45.9712 77.3193Z" fill="#49B3F7"/>
<path d="M73.9881 52.5206C73.4147 52.3748 72.8315 52.7215 72.6858 53.2949C72.4574 54.2012 72.1791 55.1003 71.8651 55.9781C71.679 56.5294 71.9673 57.1285 72.5145 57.3268C73.0709 57.5265 73.6839 57.2371 73.8836 56.6807C73.8839 56.6796 73.8843 56.6785 73.8846 56.6775C74.22 55.7355 74.5126 54.7721 74.7624 53.8229C74.9083 53.2496 74.5615 52.6665 73.9881 52.5206Z" fill="#49B3F7"/>
<path d="M75.3548 40.2638C75.1907 39.279 74.9837 38.287 74.734 37.3236C74.5631 36.7577 73.9656 36.4375 73.3997 36.6086C72.8632 36.7706 72.5426 37.319 72.6645 37.866C72.9 38.7652 73.0926 39.6929 73.2496 40.6135C73.3419 41.1178 73.7788 41.4859 74.2915 41.4912H74.4699C75.0531 41.3965 75.4492 40.8472 75.3548 40.2638Z" fill="#49B3F7"/>
<path d="M79.9037 27.9774C79.8533 27.8681 79.7845 27.7683 79.7001 27.6827L77.809 25.7131C77.5382 25.4426 77.1401 25.3438 76.7742 25.4562L73.3631 26.4909L69.3668 22.252L78.3371 17.2566C78.8598 17.0159 79.0883 16.397 78.8475 15.8745C78.7972 15.7651 78.7283 15.6654 78.6439 15.5798L76.1248 13.0607C75.8503 12.7968 75.4535 12.7037 75.0901 12.818L63.722 16.2577L59.897 12.1972C58.9221 11.07 57.3352 10.6934 55.9577 11.2623H55.8935C54.855 11.6898 54.0302 12.5146 53.6028 13.5531C53.495 13.8242 53.4185 14.1067 53.3744 14.3951L52.9391 14.2453C52.3755 14.064 51.7716 14.3739 51.5904 14.9375C51.4091 15.5011 51.719 16.105 52.2826 16.2863C52.8321 16.4647 53.3816 16.6645 53.931 16.8714C54.0964 17.1301 54.2904 17.3695 54.5091 17.5851L58.5411 21.4101L57.385 25.228C46.0779 17.1624 30.3733 19.7902 22.3078 31.0972C14.2422 42.4043 16.8699 58.1087 28.177 66.1743C39.484 74.2399 55.1886 71.6121 63.2542 60.3051C69.6861 51.2882 69.4617 39.125 62.7015 30.3517L64.5284 27.0547L68.7673 31.051L67.7469 34.4265C67.6239 34.7974 67.7206 35.2059 67.9966 35.4826C67.9966 35.4826 70.0876 37.5521 70.1375 37.6235C70.6319 37.91 71.265 37.7416 71.5517 37.2473C71.5562 37.2396 71.5607 37.2317 71.5648 37.2239L74.355 32.1072L79.3932 29.3597C79.916 29.1189 80.1445 28.5 79.9037 27.9774ZM26.6206 29.3881C30.9228 25.0878 36.7583 22.6745 42.8413 22.68C43.3171 22.68 43.7927 22.6943 44.2685 22.7228C48.3148 26.4551 47.1231 29.8591 44.4113 32.9277C42.811 34.6249 41.0942 36.2082 39.2732 37.6662C36.6399 39.9069 34.185 41.9979 33.2573 44.0888C32.1583 46.5722 32.9647 48.8201 37.4035 50.7826C39.6228 51.7674 40.8289 52.531 41.2999 53.109C41.3068 53.1174 41.3136 53.1233 41.3206 53.1285C41.3059 53.1329 41.2911 53.1378 41.2713 53.1447C40.1966 53.554 39.0527 53.7502 37.903 53.7228C32.5223 53.9511 28.6901 50.5114 25.7143 47.8496C23.5734 45.9442 21.7965 44.36 19.9482 44.3457C20.2536 38.7082 22.6298 33.3817 26.6206 29.3881ZM65.8629 45.6445H65.87C65.8668 55.5907 59.4729 64.4086 50.0204 67.5029C49.7549 65.8303 50.0643 64.1171 50.8981 62.6431C52.0289 60.8271 53.4797 59.2314 55.1799 57.9331C61.7667 52.4382 62.1377 49.3696 62.4232 47.0075C62.6016 45.516 62.7372 44.4028 65.6845 42.7829C65.8028 43.7322 65.8623 44.6879 65.8629 45.6445ZM64.5355 37.9231C64.8545 38.8215 65.1166 39.7392 65.3205 40.6705C60.8318 42.9541 60.632 44.5812 60.3608 46.8006C60.1182 48.7987 59.8042 51.4106 53.8525 56.3774C51.9463 57.8359 50.3255 59.6334 49.0713 61.6797C47.9778 63.6125 47.5989 65.8683 48.0008 68.0524C35.6214 70.8823 23.2919 63.1408 20.462 50.7616C20.1383 49.3457 19.9496 47.9024 19.8982 46.4509C21.0329 46.4509 22.5029 47.7997 24.3084 49.4053C27.5768 52.324 31.7587 56.0492 37.9886 55.828C39.4566 55.8533 40.914 55.5764 42.2704 55.0144C42.8422 54.7616 43.275 54.2715 43.455 53.6728C43.607 53.005 43.4142 52.3055 42.9412 51.8102C42.2704 50.9896 40.8003 50.019 38.2741 48.8915C35.2554 47.557 34.5989 46.2582 35.1912 44.9309C35.9048 43.261 38.2027 41.3627 40.6433 39.2219C42.5451 37.6849 44.336 36.0157 46.0027 34.2265C48.9856 30.8296 50.5199 27.1259 47.487 23.0725C50.8576 23.7615 54.029 25.2034 56.7641 27.29L55.1228 32.7064C55.0017 33.0775 55.098 33.4852 55.3726 33.7626C55.3726 33.7626 58.0344 36.403 58.12 36.453C58.6144 36.7395 59.2476 36.5711 59.5343 36.0767C59.5387 36.0691 59.543 36.0612 59.5473 36.0534L61.6239 32.2997C62.8498 34.0306 63.8296 35.9231 64.5355 37.9231ZM74.1053 29.9518L73.1847 30.4086C72.9786 30.5108 72.8127 30.679 72.7137 30.8867L72.257 31.8144L70.48 35.0257L69.9591 34.4548L70.9939 31.0366C71.1145 30.636 70.9821 30.2025 70.6584 29.9376L65.0279 24.6353C64.6203 24.2348 63.9652 24.2407 63.5646 24.6484C63.555 24.6582 63.5457 24.668 63.5365 24.6781C63.4651 24.7566 58.3983 33.8839 58.3983 33.8839L57.2922 32.7778L60.7462 21.3955C60.87 20.9928 60.7373 20.5553 60.4108 20.2893L55.9292 16.0718C55.4332 15.6517 55.2684 14.9575 55.5224 14.3591C55.7501 13.8407 56.1658 13.4276 56.6856 13.203H56.7213C57.3124 12.9748 57.983 13.1468 58.3912 13.6312L62.673 18.1556C62.9418 18.4443 63.3515 18.555 63.7291 18.441L75.1472 14.9942L76.2533 16.1004L67.1902 21.0815C66.6885 21.3551 66.5037 21.9838 66.7776 22.4853C66.7819 22.4932 66.7861 22.5009 66.7906 22.5087C66.8334 22.5872 72.2927 28.3961 72.2927 28.3961C72.5631 28.6823 72.9726 28.7902 73.3488 28.6745L76.7814 27.6397L77.3166 28.1749L74.1053 29.9518Z" fill="#49B3F7"/>
<path d="M71.3492 60.0438C71.3336 60.0347 71.3178 60.0257 71.3017 60.0175C70.7902 59.7501 70.1588 59.9364 69.8745 60.4386C69.4249 61.2592 68.9325 62.0656 68.4044 62.8364C68.0635 63.3211 68.1801 63.9905 68.6649 64.3314C69.1496 64.6723 69.819 64.5557 70.1599 64.0709C70.7165 63.2431 71.2446 62.3796 71.7299 61.509C72.0294 60.9991 71.8589 60.3431 71.3492 60.0438Z" fill="#49B3F7"/>
<path d="M74.7333 44.4171C74.1422 44.4091 73.6564 44.8817 73.6482 45.4727C73.648 45.4872 73.648 45.5016 73.6485 45.5161V45.6374C73.6485 46.5722 73.6057 47.5142 73.5201 48.4491C73.4666 49.0378 73.9003 49.5586 74.489 49.6121C74.4896 49.6121 74.4901 49.6123 74.4906 49.6123H74.5905C75.1552 49.6176 75.6267 49.1834 75.6681 48.6204C75.7609 47.6284 75.8037 46.6222 75.8037 45.6231V45.4804C75.7998 44.892 75.3216 44.4171 74.7333 44.4171Z" fill="#49B3F7"/>
<path d="M37.1467 75.8451C36.219 75.6881 35.2984 75.4883 34.4064 75.2171C33.8487 75.0211 33.2377 75.3142 33.0414 75.8719C32.8452 76.4296 33.1385 77.0406 33.6962 77.2369C33.737 77.2513 33.779 77.2631 33.8212 77.2726C34.7775 77.5437 35.7623 77.7792 36.7471 77.9862H36.9469C37.5382 78.0413 38.0621 77.6069 38.1173 77.0156C38.1724 76.4244 37.738 75.9004 37.1467 75.8451Z" fill="#49B3F7"/>
<path d="M53.7104 75.5201C53.5168 74.9945 52.9507 74.7069 52.4121 74.8607V74.8892C51.5272 75.1818 50.6138 75.4316 49.7075 75.6028C49.1302 75.7329 48.7675 76.3065 48.8975 76.8838C49.0276 77.4611 49.6012 77.8238 50.1785 77.6938C51.149 77.4725 52.1267 77.2014 53.0758 76.8945C53.6307 76.69 53.9147 76.0747 53.7104 75.5201Z" fill="#49B3F7"/>
<path d="M29.8039 73.5114C28.9546 73.0903 28.1197 72.6336 27.3133 72.1769C26.8029 71.8773 26.1463 72.0482 25.8468 72.5587C25.5472 73.0691 25.7182 73.7256 26.2286 74.0252C27.0921 74.5318 27.9841 75.0028 28.8904 75.4524C29.4263 75.7047 30.0654 75.4745 30.3177 74.9386C30.5699 74.4027 30.34 73.7636 29.8039 73.5114Z" fill="#49B3F7"/>
<path d="M66.8007 66.6257C66.3718 66.234 65.7086 66.2558 65.3065 66.6751H65.3136C64.6714 67.3887 63.9934 68.0167 63.3012 68.6376C62.8598 69.0317 62.8215 69.7091 63.2156 70.1504C63.6097 70.5918 64.2871 70.6302 64.7285 70.2361C65.4421 69.5724 66.1985 68.8659 66.8694 68.138C67.2681 67.7013 67.2372 67.0242 66.8007 66.6257Z" fill="#49B3F7"/>
<path d="M60.8954 71.9656C60.5921 71.4582 59.9348 71.2928 59.4273 71.5961C59.4101 71.6063 59.3934 71.617 59.377 71.6283V71.5997C58.592 72.0992 57.7713 72.5702 56.9435 73.027C56.4174 73.2969 56.2097 73.9424 56.4796 74.4685C56.7496 74.9946 57.395 75.2023 57.9212 74.9324C58.8061 74.4756 59.6838 73.969 60.5259 73.4337C61.0333 73.1303 61.1989 72.473 60.8954 71.9656Z" fill="#49B3F7"/>
</svg>
