<svg width="90" height="90" viewBox="0 0 90 90" fill="none" xmlns="http://www.w3.org/2000/svg">
<path d="M74.921 46.7237C74.7066 45.6065 73.7295 44.7987 72.592 44.7981H70.301L70.1325 43.7884C69.9644 42.7743 69.1654 41.982 68.15 41.8225C67.9245 41.7869 67.6967 41.7631 67.4725 41.7323C67.861 39.9185 67.5382 38.0247 66.5708 36.442C67.0819 35.1161 66.9865 33.6328 66.3098 32.3833C65.633 31.1339 64.4428 30.2436 63.053 29.9474C62.1645 25.1921 58.0276 21.7355 53.1901 21.7064C53.0715 21.7064 52.9659 21.7218 52.8532 21.7253C52.0802 20.5114 50.8058 19.7058 49.3777 19.5281C47.9496 19.3505 46.5167 19.8195 45.4699 20.807C44.1512 19.9498 42.6126 19.4929 41.0398 19.4913C38.5056 19.5016 36.1172 20.6779 34.5642 22.6804C32.8397 22.1776 30.9802 22.4863 29.5107 23.5195C28.0413 24.5526 27.1216 26.198 27.0113 27.9909C25.2 28.7523 24.0214 30.5251 24.0203 32.4899C24.024 32.8305 24.0637 33.1697 24.1389 33.502C22.5371 35.9168 22.1185 38.9283 23.0011 41.6884C22.6831 41.7323 22.358 41.7715 22.0519 41.8165C21.0312 41.9705 20.2251 42.7633 20.054 43.7813L19.8855 44.7945H17.5886C16.453 44.7953 15.4771 45.6005 15.2608 46.7154L10.0653 73.3889C9.86243 74.4336 10.1376 75.5142 10.8153 76.3346C11.4931 77.1549 12.5024 77.629 13.5665 77.6269H38.3086C39.2909 79.2476 42.276 79.9998 45.0903 79.9998C47.8749 79.9998 50.8315 79.2654 51.8423 77.6269H76.614C77.6779 77.629 78.687 77.155 79.3647 76.3349C80.0424 75.5148 80.3177 74.4346 80.1152 73.3901L74.921 46.7237ZM27.6081 34.6374C26.6447 34.0582 26.185 32.9084 26.4834 31.8247C26.7818 30.741 27.7654 29.9886 28.8894 29.9842C29.6761 29.9818 30.4164 30.3557 30.8814 30.9903C31.1341 31.3306 31.5491 31.5104 31.9702 31.4618C32.3913 31.4132 32.7544 31.1436 32.9229 30.7547C33.0914 30.3657 33.0395 29.9164 32.7869 29.576C31.9812 28.4993 30.7603 27.8105 29.4221 27.6777C29.7759 26.0161 31.2411 24.8266 32.9399 24.8219C33.0847 24.8293 33.2289 24.8451 33.3718 24.8694C33.2763 25.1126 33.1932 25.3605 33.1226 25.6121C32.975 26.2402 33.3562 26.8711 33.9809 27.0324C34.6056 27.1937 35.2447 26.8263 35.4196 26.2053C35.5545 25.6839 35.7618 25.1839 36.0354 24.7199C37.0878 22.9568 38.9864 21.8733 41.0398 21.8641C42.1573 21.8691 43.2492 22.1989 44.1826 22.8133C44.0048 23.3129 43.9106 23.8384 43.9038 24.3687C43.9038 25.024 44.435 25.5552 45.0903 25.5552C45.7455 25.5552 46.2767 25.024 46.2767 24.3687C46.2767 22.9904 47.3941 21.873 48.7724 21.873C50.1507 21.873 51.2681 22.9904 51.2681 24.3687C51.2681 25.024 51.7993 25.5552 52.4545 25.5552C53.1098 25.5552 53.641 25.024 53.641 24.3687C53.641 24.2774 53.6184 24.1908 53.6137 24.0994C57.0109 24.309 59.8676 26.7238 60.6398 30.0387C60.0863 30.1999 59.5663 30.4591 59.1045 30.804C58.7654 31.0583 58.5878 31.4742 58.6385 31.8951C58.6892 32.3159 58.9605 32.6777 59.3503 32.8442C59.7401 33.0107 60.1892 32.9566 60.5283 32.7023C61.4763 32.0003 62.786 32.0563 63.6708 32.8366C64.5555 33.6169 64.7747 34.9093 64.1967 35.9377C63.9385 36.3918 63.546 36.7549 63.0732 36.977C62.5773 37.2171 62.312 37.7669 62.4325 38.3045C62.553 38.842 63.0277 39.2259 63.5786 39.2313C63.7526 39.2315 63.9244 39.193 64.0816 39.1186C64.3961 38.9662 64.6932 38.7804 64.9679 38.5645C65.5812 40.3081 65.1966 42.2472 63.9642 43.6247L63.9357 43.6543C62.39 45.3287 59.9244 45.7813 57.8849 44.7648C57.6851 44.6593 57.4932 44.5396 57.3106 44.4065C58.1845 43.1814 58.3052 41.5721 57.6238 40.2303C57.4331 39.8515 57.0548 39.6033 56.6314 39.5792C56.2081 39.555 55.804 39.7585 55.5713 40.1131C55.3387 40.4676 55.3129 40.9193 55.5037 41.2981C55.8938 42.0822 55.6505 43.0339 54.9318 43.5345C54.5098 43.8155 53.9884 43.9044 53.4971 43.779C53.0059 43.6537 52.5907 43.326 52.3549 42.8772C52.1652 42.4981 51.7876 42.2489 51.3644 42.2236C50.9412 42.1983 50.5367 42.4007 50.3031 42.7545C50.0696 43.1084 50.0426 43.5599 50.2323 43.9391C50.9281 45.3437 52.3618 46.2307 53.9293 46.2265C54.4396 46.2231 54.9447 46.1237 55.4182 45.9335C55.842 46.3045 56.3089 46.6232 56.8088 46.8826C58.4997 47.7591 60.466 47.9409 62.2889 47.3893C61.1165 48.9902 59.3617 50.0661 57.4032 50.385C56.7938 50.4842 56.3624 51.0341 56.411 51.6495C56.4597 52.2649 56.9721 52.7402 57.5894 52.7425C57.6526 52.7425 57.7156 52.7377 57.7781 52.7282C58.5005 52.6032 59.2066 52.397 59.8828 52.1137C60.2483 52.7599 60.545 53.4427 60.7679 54.1508C60.8087 54.2744 60.8296 54.4038 60.8296 54.534C60.8293 55.0468 60.523 55.5099 60.0513 55.711C59.5056 55.922 58.886 55.7555 58.5196 55.2993C57.6008 54.2203 56.3976 53.4207 55.0469 52.9916C52.483 52.1326 51.4935 51.365 51.0735 50.5298C51.6891 50.453 52.2974 50.326 52.8923 50.1501C53.2975 50.0255 53.6055 49.6941 53.7002 49.2809C53.7949 48.8677 53.6619 48.4353 53.3514 48.1467C53.0408 47.858 52.5999 47.757 52.1947 47.8816C51.529 48.0859 50.8417 48.2121 50.1469 48.2577C48.8082 48.3624 47.4633 48.1595 46.215 47.6645C45.7463 47.4817 45.2133 47.6144 44.885 47.9955C43.1576 49.9798 40.2011 50.3171 38.0712 48.7728C35.9413 47.2286 35.3426 44.3137 36.6915 42.055C36.91 41.6903 36.9173 41.2367 36.7107 40.8651C36.504 40.4935 36.1149 40.2603 35.6897 40.2534C35.2646 40.2466 34.8681 40.467 34.6496 40.8318C34.3665 41.3136 34.1389 41.8258 33.9709 42.3587C33.0366 42.3096 32.2999 41.5454 32.285 40.6099V40.5803C32.2844 40.2672 32.1587 39.9674 31.9359 39.7474C31.7131 39.5275 31.4116 39.4058 31.0986 39.4092C30.4405 39.4158 29.9108 39.9518 29.9121 40.6099C29.9174 42.714 31.5042 44.4776 33.596 44.7043C33.6003 45.1021 33.6364 45.4988 33.704 45.8908C31.0549 46.464 28.3073 45.5118 26.5811 43.4222C24.8548 41.3327 24.4381 38.4548 25.5009 35.9614C25.7664 36.23 26.0627 36.4662 26.3836 36.665C26.9441 36.9933 27.6644 36.8099 27.9996 36.2535C28.3348 35.6971 28.1603 34.9747 27.6081 34.6326V34.6374ZM22.3877 44.1681C22.9347 44.0874 23.4994 44.0162 24.0606 43.9426C26.2542 47.4481 30.4497 49.1503 34.4657 48.164C35.5448 50.212 37.5165 51.6402 39.7988 52.0271C42.0812 52.4139 44.4134 51.7151 46.1071 50.1371C46.9133 50.3775 47.7438 50.528 48.5832 50.5855C49.1562 52.7591 50.8125 54.076 54.2923 55.2423C55.2304 55.5364 56.0673 56.0876 56.7079 56.8333C57.4201 57.6803 58.4678 58.1724 59.5744 58.1799C60.0583 58.1798 60.5373 58.0821 60.9827 57.8928C62.3275 57.3181 63.2 55.9966 63.2001 54.534C63.2012 54.1526 63.1403 53.7735 63.0198 53.4116C62.753 52.5733 62.4016 51.7644 61.971 50.9972C63.9885 49.5469 65.3939 47.3975 65.9135 44.9677C66.1662 44.6675 66.3947 44.3478 66.5969 44.0115C66.9944 44.0625 67.3918 44.1076 67.7916 44.174L72.0747 69.9364C63.7026 67.1408 54.6488 67.1408 46.2767 69.9364V55.0845C46.2767 54.4293 45.7455 53.8981 45.0903 53.8981C44.435 53.8981 43.9038 54.4293 43.9038 55.0845V69.9411C35.5327 67.143 26.4791 67.1396 18.1058 69.9316L22.3877 44.1681ZM12.6423 74.8174C12.4181 74.5466 12.3267 74.1898 12.3931 73.8445L17.5886 47.171H19.4869L15.7638 69.5461C15.6329 70.3605 15.9327 71.1847 16.5564 71.7245C17.1801 72.2643 18.0388 72.4429 18.826 72.1966C25.1509 70.1474 31.8893 69.7199 38.4225 70.9532L38.0689 75.254H13.5665C13.2086 75.2543 12.8694 75.094 12.6423 74.8174ZM45.0903 77.6269C42.2321 77.6269 40.5925 76.7822 40.3516 76.4061L40.7598 71.4823C42.0643 71.8072 43.341 72.2352 44.5777 72.7625C44.7377 72.8396 44.9127 72.8801 45.0903 72.8811C45.2683 72.8809 45.4439 72.8403 45.604 72.7625C46.84 72.2321 48.1163 71.8013 49.4208 71.474L49.8289 76.4049C49.5881 76.7822 47.9484 77.6269 45.0903 77.6269ZM77.5383 74.8174C77.3111 75.094 76.972 75.2543 76.614 75.254H52.1152L51.7593 70.9449C58.2961 69.7141 65.0373 70.1453 71.364 72.1989C72.1511 72.4421 73.0079 72.2609 73.6292 71.7201C74.2505 71.1792 74.5479 70.3555 74.4156 69.5425L70.6961 47.1721H72.5944L77.791 73.8433C77.8568 74.1895 77.7641 74.5469 77.5383 74.8174Z" fill="#49B3F7"/>
<path d="M41.158 36.9148C40.6723 37.3542 40.6346 38.1041 41.0738 38.59C42.0802 39.7013 43.4104 40.4682 44.8763 40.7826C44.2124 41.7182 43.1357 42.2733 41.9885 42.2716C41.3333 42.2716 40.8021 42.8028 40.8021 43.458C40.8021 44.1133 41.3333 44.6444 41.9885 44.6444C44.4446 44.6542 46.6484 43.1373 47.5162 40.8395C50.4663 40.3506 52.8019 38.0798 53.3736 35.1446C53.462 34.7248 53.3167 34.29 52.9939 34.0074C52.671 33.7249 52.2208 33.6387 51.8164 33.782C51.412 33.9253 51.1164 34.2757 51.0434 34.6985C50.8108 35.9222 50.1048 37.0047 49.0787 37.7109C47.1048 39.0403 44.4574 38.7386 42.8333 36.999C42.3938 36.5133 41.644 36.4756 41.158 36.9148V36.9148Z" fill="#49B3F7"/>
<path d="M37.0224 35.6265C37.6776 35.6265 38.2088 35.0953 38.2088 34.4401C38.2088 33.6219 38.5338 32.8373 39.1123 32.2588C39.6908 31.6803 40.4754 31.3553 41.2936 31.3553C41.9488 31.3553 42.48 30.8241 42.48 30.1689C42.48 29.5136 41.9488 28.9824 41.2936 28.9824C38.2808 28.9857 35.8392 31.4272 35.8359 34.4401C35.8359 34.7547 35.9609 35.0565 36.1834 35.279C36.4059 35.5015 36.7077 35.6265 37.0224 35.6265V35.6265Z" fill="#49B3F7"/>
<path d="M46.2772 12.3729V11.1864C46.2772 10.5312 45.746 10 45.0907 10C44.4355 10 43.9043 10.5312 43.9043 11.1864V12.3729C43.9043 13.0281 44.4355 13.5593 45.0907 13.5593C45.746 13.5593 46.2772 13.0281 46.2772 12.3729Z" fill="#49B3F7"/>
<path d="M64.5604 18.5136L63.374 19.7C63.0655 19.9979 62.9418 20.4391 63.0504 20.8539C63.159 21.2687 63.4829 21.5926 63.8978 21.7012C64.3126 21.8098 64.7537 21.6861 65.0516 21.3777L66.238 20.1912C66.5465 19.8933 66.6702 19.4522 66.5616 19.0374C66.453 18.6226 66.129 18.2986 65.7142 18.1901C65.2994 18.0815 64.8583 18.2052 64.5604 18.5136Z" fill="#49B3F7"/>
<path d="M25.9695 21.7253C26.4493 21.7252 26.8818 21.4361 27.0654 20.9929C27.249 20.5496 27.1475 20.0394 26.8083 19.7L25.6219 18.5136C25.324 18.2052 24.8829 18.0815 24.4681 18.1901C24.0533 18.2986 23.7293 18.6226 23.6207 19.0374C23.5122 19.4522 23.6358 19.8933 23.9443 20.1912L25.1307 21.3777C25.3532 21.6002 25.6549 21.7252 25.9695 21.7253Z" fill="#49B3F7"/>
<path d="M35.1018 16.733C35.2577 16.7327 35.412 16.7021 35.5562 16.6429C35.847 16.5224 36.078 16.2913 36.1984 16.0005C36.3188 15.7097 36.3186 15.3829 36.1981 15.0922L34.8348 11.8034C34.6787 11.4028 34.318 11.1181 33.8922 11.0591C33.4663 11.0001 33.0418 11.1761 32.7827 11.5192C32.5236 11.8623 32.4703 12.3187 32.6435 12.7122L34.0055 16.001C34.1893 16.4443 34.622 16.7332 35.1018 16.733V16.733Z" fill="#49B3F7"/>
<path d="M56.8943 11.1617C56.2892 10.9114 55.5956 11.1987 55.3448 11.8036L53.9816 15.0924C53.8606 15.3833 53.8603 15.7103 53.9807 16.0014C54.1011 16.2925 54.3323 16.5238 54.6234 16.6443C54.7676 16.7035 54.922 16.7341 55.0778 16.7344C55.5577 16.7345 55.9903 16.4456 56.1741 16.0024L57.5362 12.7136C57.6571 12.4227 57.6574 12.0957 57.537 11.8045C57.4166 11.5134 57.1854 11.2822 56.8943 11.1617V11.1617Z" fill="#49B3F7"/>
<path d="M69.2058 30.8602C69.3618 30.8599 69.5162 30.8289 69.6602 30.7688L72.9478 29.4068C73.3395 29.2447 73.6149 28.8859 73.6703 28.4656C73.7258 28.0454 73.5528 27.6275 73.2165 27.3694C72.8803 27.1113 72.4319 27.0521 72.0402 27.2143L68.7514 28.5763C68.2266 28.7919 67.9278 29.3488 68.0386 29.9053C68.1493 30.4617 68.6384 30.8619 69.2058 30.8602Z" fill="#49B3F7"/>
<path d="M20.5206 30.7682C21.1261 31.0191 21.8203 30.7317 22.0713 30.1263C22.3223 29.5208 22.0349 28.8266 21.4294 28.5756L18.1406 27.2136C17.5352 26.9629 16.8412 27.2506 16.5905 27.856C16.3399 28.4615 16.6275 29.1555 17.233 29.4061L20.5206 30.7682Z" fill="#49B3F7"/>
</svg>
