<svg width="90" height="90" viewBox="0 0 90 90" fill="none" xmlns="http://www.w3.org/2000/svg">
<path d="M33.1321 43.578C32.9656 43.3715 32.874 43.1116 32.874 42.8462V39.5261C35.2448 37.9487 36.8935 35.3681 37.2046 32.3942H37.3284C38.2737 32.3942 39.1672 31.981 39.7799 31.2605C40.3924 30.5403 40.6558 29.5867 40.5024 28.6441C40.3834 27.9132 39.9966 27.2701 39.4498 26.7955V22.6012C39.4498 18.4099 36.04 15 31.8486 15H24.1769C23.2505 15 22.3718 15.4102 21.7668 16.0996C18.2804 16.2149 15.4798 19.0872 15.4798 22.6012V26.7955C14.9329 27.2701 14.546 27.9131 14.4272 28.6441C14.2738 29.5867 14.5371 30.5403 15.1496 31.2605C15.7624 31.981 16.656 32.3942 17.6012 32.3942H17.725C18.0359 35.3681 19.6847 37.9485 22.0556 39.5261V42.8462C22.0556 43.3708 21.7022 43.8336 21.196 43.9715L13.986 45.9378C11.6391 46.5779 10 48.7239 10 51.1565V55.4798C10 56.4416 10.4248 57.3056 11.0959 57.8956V70.8232C11.0959 71.3896 11.555 71.8486 12.1213 71.8486C12.6876 71.8486 13.1467 71.3896 13.1467 70.8232V58.6953C13.1702 58.6959 13.1936 58.6971 13.2173 58.6971H16.5756V73.0151C16.5756 73.5815 17.0347 74.0405 17.601 74.0405C18.1673 74.0405 18.6264 73.5815 18.6264 73.0151V53.288C18.6264 52.7215 18.1673 52.2626 17.601 52.2626C17.0347 52.2626 16.5756 52.7215 16.5756 53.288V56.6463H13.2173C12.574 56.6463 12.0508 56.123 12.0508 55.4798V51.1565C12.0508 49.6462 13.0684 48.3138 14.5257 47.9164L19.4171 46.5824L25.3248 49.9583C25.9849 50.3355 26.7247 50.524 27.4647 50.524C28.2046 50.524 28.9448 50.3354 29.6048 49.9583L31.0725 49.1195C31.5641 48.8386 31.735 48.2121 31.454 47.7206C31.1731 47.2287 30.5466 47.058 30.055 47.339L28.5873 48.1777C27.895 48.5733 27.0347 48.5733 26.3424 48.1777L22.1715 45.7943C23.3297 45.2896 24.1064 44.1365 24.1064 42.8461V40.5657C25.1546 40.9499 26.2851 41.1618 27.4647 41.1618C28.6443 41.1618 29.7749 40.9498 30.8232 40.5657V42.8461C30.8232 43.5778 31.076 44.2946 31.5351 44.8644C31.7377 45.1159 32.0347 45.2466 32.3344 45.2466C32.5601 45.2466 32.7875 45.1723 32.977 45.0197C33.4179 44.6646 33.4873 44.019 33.1321 43.578V43.578ZM17.5306 22.6012C17.5306 20.145 19.5289 18.1467 21.985 18.1467H22.2891C22.6541 18.1467 22.9917 17.9526 23.1753 17.637C23.389 17.2698 23.7635 17.0506 24.1771 17.0506H31.8487C34.9092 17.0506 37.3991 19.5406 37.3991 22.601V25.9677C37.3366 25.9643 37.2744 25.9594 37.2111 25.9594H36.2325C35.5892 25.9594 35.066 25.436 35.066 24.7929C35.066 24.2915 34.7037 23.8639 34.2092 23.7814L23.2141 21.9491C22.378 21.8097 21.5279 22.044 20.8812 22.5919C20.2345 23.1397 19.8636 23.94 19.8636 24.793C19.8636 25.4363 19.3402 25.9595 18.6971 25.9595H17.7185C17.6553 25.9595 17.5931 25.9644 17.5305 25.9679V22.6012H17.5306ZM19.7225 31.3688C19.7225 30.8025 19.2634 30.3434 18.6971 30.3434H17.6012C17.2584 30.3434 16.9342 30.1934 16.7118 29.9319C16.4865 29.6669 16.3939 29.3265 16.4513 28.9733C16.5393 28.4334 17.0957 28.0104 17.7185 28.0104H18.6971C20.4712 28.0104 21.9144 26.5672 21.9144 24.7876C21.9144 24.4542 22.0976 24.2492 22.2068 24.1567C22.316 24.0643 22.5486 23.9175 22.8771 23.972L33.1402 25.6825C33.5271 27.0252 34.7669 28.0103 36.2325 28.0103H37.2111C37.8339 28.0103 38.3903 28.4333 38.4782 28.9733C38.5357 29.3263 38.4432 29.6668 38.2178 29.9317C37.9954 30.1933 37.6712 30.3433 37.3284 30.3433H36.2325C35.6662 30.3433 35.2071 30.8024 35.2071 31.3687C35.2071 35.6377 31.7339 39.1109 27.4649 39.1109C23.1957 39.1112 19.7225 35.6378 19.7225 31.3688V31.3688Z" fill="#49B3F7"/>
<path d="M25.2031 30.2727V29.1768C25.2031 28.6105 24.744 28.1514 24.1777 28.1514C23.6114 28.1514 23.1523 28.6105 23.1523 29.1768V30.2727C23.1523 30.839 23.6114 31.2981 24.1777 31.2981C24.744 31.2981 25.2031 30.839 25.2031 30.2727Z" fill="#49B3F7"/>
<path d="M30.752 28.1514C30.1857 28.1514 29.7266 28.6105 29.7266 29.1768V30.2727C29.7266 30.839 30.1857 31.2981 30.752 31.2981C31.3182 31.2981 31.7773 30.839 31.7773 30.2727V29.1768C31.7773 28.6105 31.3182 28.1514 30.752 28.1514Z" fill="#49B3F7"/>
<path d="M28.7967 33.5422C27.9351 33.998 26.9919 33.9982 26.1302 33.5422C25.6295 33.2772 25.0091 33.4682 24.7443 33.9689C24.4794 34.4694 24.6704 35.09 25.1711 35.3548C25.9005 35.7408 26.6719 35.9366 27.4636 35.9366C28.2553 35.9366 29.0267 35.7408 29.7561 35.3548C30.2566 35.09 30.4477 34.4694 30.1829 33.9689C29.9178 33.4684 29.2973 33.2772 28.7967 33.5422V33.5422Z" fill="#49B3F7"/>
<path d="M76.0128 50.3217L72.416 49.3407C73.4157 48.9782 74.3788 48.5621 75.2962 48.0902C76.2183 47.6158 76.6556 46.5138 76.3136 45.527C75.9949 44.6074 75.6149 43.1159 75.6149 41.2325V31.3689C75.6149 24.1561 69.7468 18.2881 62.534 18.2881C55.3211 18.2882 49.4531 24.1565 49.4531 31.3693V39.0406C49.4531 39.6071 49.9122 40.066 50.4785 40.066C51.0448 40.066 51.5039 39.6071 51.5039 39.0406V37.655C51.8714 37.7979 52.2661 37.8741 52.6704 37.8741H52.7943C53.3087 42.7937 57.4806 46.6418 62.5341 46.6418C63.7137 46.6418 64.8442 46.4297 65.8924 46.0458V47.2302C65.8924 48.6771 66.8673 49.9534 68.2631 50.3341L70.7699 51.0177C69.4618 54.3695 66.1872 56.6466 62.534 56.6466C61.8705 56.6466 61.2093 56.5729 60.5688 56.4276C60.0164 56.3022 59.4672 56.6484 59.3418 57.2007C59.2165 57.7529 59.5626 58.3022 60.1149 58.4276C60.904 58.6067 61.7179 58.6975 62.5338 58.6975C67.1073 58.6975 71.1997 55.8003 72.7574 51.56L75.473 52.3006C76.9304 52.6976 77.948 54.0301 77.948 55.5404V59.8637C77.948 60.507 77.4247 61.0302 76.7815 61.0302H73.4232V58.7678C73.4232 58.2015 72.9641 57.7424 72.3978 57.7424C71.8315 57.7424 71.3724 58.2015 71.3724 58.7678V73.0151C71.3724 73.5815 71.8315 74.0405 72.3978 74.0405C72.9641 74.0405 73.4232 73.5815 73.4232 73.0151V63.081H76.7815C76.8052 63.081 76.8286 63.0797 76.8521 63.0792V70.8232C76.8521 71.3896 77.3112 71.8486 77.8775 71.8486C78.4438 71.8486 78.9029 71.3896 78.9029 70.8232V62.2795C79.574 61.6895 79.9988 60.8255 79.9988 59.8637V55.5404C79.9988 53.1078 78.3597 50.9617 76.0128 50.3217ZM51.504 31.3692C51.504 25.2871 56.4522 20.3389 62.5342 20.3387C68.6162 20.3387 73.5643 25.2867 73.5643 31.3688V31.692C73.1657 31.5309 72.7319 31.4393 72.2804 31.4393H71.3017C70.6585 31.4393 70.1352 30.916 70.1352 30.2729C70.1352 29.7716 69.7729 29.3438 69.2784 29.2614L58.2836 27.429C57.4473 27.2895 56.5974 27.5238 55.9507 28.0717C55.304 28.6195 54.9331 29.4197 54.9331 30.2729C54.9331 30.9161 54.4097 31.4393 53.7666 31.4393H52.788C52.3364 31.4393 51.9026 31.5309 51.504 31.692V31.3692ZM54.7919 36.8486C54.7919 36.2823 54.3328 35.8232 53.7665 35.8232H52.6705C52.3278 35.8232 52.0037 35.6732 51.7812 35.4117C51.5559 35.1467 51.4633 34.8063 51.5207 34.4533C51.6086 33.9133 52.1651 33.4903 52.7878 33.4903H53.7665C55.5405 33.4903 56.9837 32.0469 56.9837 30.2675C56.9837 29.9342 57.1669 29.7291 57.2762 29.6367C57.3853 29.5441 57.6173 29.3972 57.9465 29.452L68.2096 31.1625C68.5965 32.5052 69.8362 33.4903 71.3019 33.4903H72.2805C72.9032 33.4903 73.4597 33.9133 73.5476 34.4533C73.605 34.8063 73.5126 35.1467 73.2871 35.4117C73.0647 35.6734 72.7405 35.8232 72.3978 35.8232H71.3019C70.7356 35.8232 70.2765 36.2823 70.2765 36.8486C70.2765 41.1178 66.8033 44.5909 62.5342 44.5909C58.2651 44.5909 54.7919 41.1177 54.7919 36.8486V36.8486ZM72.2739 37.874H72.3978C72.8022 37.874 73.1968 37.7979 73.5643 37.6548V41.2324C73.5643 43.4011 74.0057 45.1301 74.376 46.1984C74.3857 46.2266 74.3743 46.2581 74.3581 46.2665C72.6204 47.1606 70.7026 47.8441 68.6573 48.3039C68.2306 48.1238 67.9434 47.7023 67.9434 47.2298V45.0057C70.3142 43.4285 71.9629 40.8479 72.2739 37.874V37.874Z" fill="#49B3F7"/>
<path d="M60.2734 35.7532V34.6572C60.2734 34.0909 59.8143 33.6318 59.248 33.6318C58.6818 33.6318 58.2227 34.0909 58.2227 34.6572V35.7532C58.2227 36.3195 58.6818 36.7786 59.248 36.7786C59.8143 36.7786 60.2734 36.3195 60.2734 35.7532Z" fill="#49B3F7"/>
<path d="M65.8223 33.6318C65.256 33.6318 64.7969 34.0909 64.7969 34.6572V35.7532C64.7969 36.3195 65.256 36.7786 65.8223 36.7786C66.3886 36.7786 66.8477 36.3195 66.8477 35.7532V34.6572C66.8477 34.0909 66.3886 33.6318 65.8223 33.6318Z" fill="#49B3F7"/>
<path d="M63.8691 39.0216C63.0072 39.4777 62.0642 39.4777 61.2024 39.0216C60.7017 38.7567 60.0813 38.9479 59.8165 39.4485C59.5517 39.9491 59.7428 40.5696 60.2433 40.8344C60.9729 41.2203 61.7442 41.4161 62.5358 41.4161C63.3274 41.4161 64.0987 41.2203 64.8282 40.8344C65.3287 40.5696 65.5199 39.9491 65.255 39.4485C64.9901 38.9479 64.3695 38.7568 63.8691 39.0216Z" fill="#49B3F7"/>
<path d="M45.0005 41.3027C38.3921 41.3027 33.0156 46.6791 33.0156 53.2876V55.4795C33.0156 55.4885 33.0167 55.4973 33.017 55.5063C33.0244 56.258 33.2903 56.9856 33.7814 57.5631C34.3942 58.2836 35.2878 58.6968 36.2329 58.6968H36.3626C36.5929 60.6776 37.4893 62.5013 38.9443 63.9132C39.4763 64.4294 40.062 64.8679 40.6873 65.2266V66.8903C40.6873 67.4095 40.3533 67.8586 39.8559 68.0077L36.0895 69.1377C34.2509 69.6893 33.0156 71.3496 33.0156 73.2691V74.1107C33.0156 74.677 33.4747 75.1361 34.041 75.1361C34.6073 75.1361 35.0664 74.677 35.0664 74.1107V73.2691C35.0664 72.2622 35.7143 71.3914 36.6787 71.102L38.5679 70.5351C40.3518 72.0919 42.6171 72.9441 45.0004 72.9441C47.3856 72.9441 49.6481 72.0917 51.4319 70.5347L53.3223 71.1018C54.2867 71.3911 54.9346 72.262 54.9346 73.269V74.1106C54.9346 74.6769 55.3937 75.136 55.96 75.136C56.5263 75.136 56.9854 74.6769 56.9854 74.1106V73.269C56.9854 71.3494 55.7502 69.6891 53.9117 69.1376L50.1451 68.0076C49.6479 67.8584 49.3137 67.4093 49.3137 66.8902V65.1648C50.2184 64.6209 51.0215 63.9117 51.6861 63.0803H53.7682C55.5422 63.0803 56.9854 61.6369 56.9854 59.863V53.2872C56.9854 46.6791 51.609 41.3027 45.0005 41.3027V41.3027ZM49.0302 69.7625C47.8273 70.4981 46.4425 70.8936 45.0005 70.8936C43.5596 70.8936 42.1744 70.4978 40.9713 69.7623C42.0467 69.2239 42.7381 68.1302 42.7381 66.8906V66.0714C43.4663 66.2661 44.2237 66.3686 44.9974 66.3686C45.0871 66.3686 45.1772 66.3673 45.2674 66.3645C45.955 66.3439 46.6228 66.2359 47.2631 66.0544V66.8905C47.2629 68.1304 47.9546 69.224 49.0302 69.7625V69.7625ZM45.2057 64.3147C43.3893 64.3695 41.6732 63.704 40.3723 62.4415C39.0709 61.1786 38.3541 59.4846 38.3541 57.6714C38.3541 57.1051 37.895 56.646 37.3287 56.646H36.2328C35.89 56.646 35.5658 56.496 35.3434 56.2345C35.1179 55.9694 35.0255 55.6291 35.0829 55.2761C35.1709 54.736 35.7273 54.313 36.3501 54.313H37.3287C39.1028 54.313 40.546 52.8697 40.546 51.0958V50.4243C40.546 50.4127 40.546 50.3882 40.5752 50.3672C40.6045 50.3461 40.6277 50.3537 40.6388 50.3575L48.4959 52.9765C50.3804 53.6047 51.6466 55.3614 51.6466 57.3498C51.6468 61.0836 48.7574 64.2081 45.2057 64.3147ZM54.9346 59.8634C54.9346 60.5067 54.4113 61.0299 53.7682 61.0299H52.9249C53.4195 59.9007 53.6976 58.6536 53.6976 57.3478C53.6976 54.4772 51.8679 51.9386 49.1446 51.0308L41.2875 48.4118C40.6426 48.1968 39.9281 48.3057 39.3763 48.7033C38.8245 49.1009 38.4953 49.7443 38.4953 50.4242V51.0956C38.4953 51.7388 37.9719 52.2621 37.3288 52.2621H36.3502C35.9116 52.2621 35.4895 52.3482 35.1004 52.5008C35.5032 47.3899 39.7878 43.3534 45.0005 43.3534C50.4782 43.3534 54.9346 47.8099 54.9346 53.2875V59.8634Z" fill="#49B3F7"/>
<path d="M42.7477 55.4805C42.7477 54.9142 42.2886 54.4551 41.7223 54.4551H41.7113C41.145 54.4551 40.6914 54.9142 40.6914 55.4805C40.6914 56.0468 41.156 56.5059 41.7223 56.5059C42.2886 56.5059 42.7477 56.0468 42.7477 55.4805V55.4805Z" fill="#49B3F7"/>
<path d="M48.2984 54.4551H48.2875C47.7212 54.4551 47.2676 54.9142 47.2676 55.4805C47.2676 56.0468 47.7321 56.5059 48.2984 56.5059C48.8647 56.5059 49.3238 56.0468 49.3238 55.4805C49.3238 54.9142 48.8649 54.4551 48.2984 54.4551V54.4551Z" fill="#49B3F7"/>
<path d="M46.506 59.3446C46.0839 59.725 45.5491 59.9343 45.0004 59.9343C44.4518 59.9343 43.9169 59.7248 43.4949 59.3446C43.0742 58.9656 42.4259 58.9994 42.0467 59.4201C41.6678 59.8409 41.7015 60.4892 42.1222 60.8682C42.9217 61.5884 43.9438 61.985 45.0004 61.985C46.057 61.985 47.0792 61.5884 47.8786 60.8682C48.2994 60.4892 48.3332 59.8407 47.9541 59.4201C47.5752 58.9995 46.9268 58.9655 46.506 59.3446Z" fill="#49B3F7"/>
</svg>
