<svg width="90" height="90" viewBox="0 0 90 90" fill="none" xmlns="http://www.w3.org/2000/svg">
<path d="M27.6105 40.8486C27.2937 40.8486 26.99 40.7229 26.7669 40.4963C26.3173 40.0419 15.7461 29.2785 15.7461 22.5763C15.7461 15.6415 21.0685 10 27.6105 10C34.1525 10 39.4749 15.6415 39.4749 22.5763C39.4749 29.2773 28.9037 40.0419 28.4541 40.4963C28.231 40.7229 27.9273 40.8486 27.6105 40.8486V40.8486ZM27.6105 12.3741C22.3771 12.3741 18.119 16.9502 18.119 22.5775C18.119 26.9258 24.3419 34.4632 27.6105 37.9502C30.8791 34.4608 37.102 26.921 37.102 22.5775C37.102 16.9502 32.8439 12.3741 27.6105 12.3741V12.3741Z" fill="#49B3F7"/>
<path d="M27.6099 27.798C24.3389 27.798 21.6777 25.1368 21.6777 21.8658C21.6777 18.5948 24.3389 15.9336 27.6099 15.9336C30.881 15.9336 33.5421 18.5948 33.5421 21.8658C33.5421 25.1368 30.881 27.798 27.6099 27.798V27.798ZM27.6099 18.3065C25.6476 18.3065 24.0506 19.9034 24.0506 21.8658C24.0506 23.8282 25.6476 25.4251 27.6099 25.4251C29.5723 25.4251 31.1693 23.8282 31.1693 21.8658C31.1693 19.9034 29.5723 18.3065 27.6099 18.3065V18.3065Z" fill="#49B3F7"/>
<path d="M69.1341 53.8995C68.8031 53.8995 68.4875 53.7619 68.2621 53.5187C67.3805 52.5624 59.6426 44.0212 59.6426 38.4758C59.6426 32.5875 63.9007 27.7979 69.1341 27.7979C74.3675 27.7979 78.6256 32.5875 78.6256 38.4758C78.6256 44.0212 70.8888 52.5624 70.0061 53.5187C69.7807 53.7619 69.4651 53.8995 69.1341 53.8995ZM69.1341 30.1707C65.2094 30.1707 62.0155 33.8973 62.0155 38.4758C62.0155 41.9545 66.5583 47.9424 69.1341 50.9275C71.7099 47.9401 76.2527 41.9509 76.2527 38.4758C76.2527 33.8973 73.0588 30.1707 69.1341 30.1707Z" fill="#49B3F7"/>
<path d="M43.0339 80.0014C25.3702 80.0014 11 65.6312 11 47.9675C11 40.6839 13.5176 33.5511 18.0878 27.8799C18.3346 27.5738 18.7119 27.4112 19.1069 27.4421C19.4985 27.4741 19.8485 27.6983 20.043 28.04C22.3198 32.0502 25.9776 36.179 27.6161 37.9444C30.8859 34.4527 37.1029 26.9188 37.1029 22.5777C37.1029 21.0472 36.7837 19.5594 36.1549 18.157C36.0066 17.8272 36.0173 17.4451 36.1846 17.1236C36.3519 16.8021 36.658 16.5731 37.0151 16.5055C39.0142 16.1258 41.0395 15.9336 43.0351 15.9336C53.051 15.9336 62.3064 20.4955 68.4285 28.4494C68.6752 28.7709 68.7417 29.1933 68.6053 29.5741C68.4688 29.9538 68.1485 30.2397 67.7546 30.3299C64.4314 31.0951 62.0181 34.5204 62.0181 38.476C62.0181 41.9522 66.5563 47.9355 69.132 50.9229C70.0337 49.8705 71.5037 48.0814 72.8729 46.0799C73.1624 45.6575 73.6903 45.4677 74.1803 45.61C74.6727 45.7512 75.018 46.1926 75.0381 46.7039C75.0547 47.1239 75.069 47.5451 75.069 47.9675C75.0678 65.6312 60.6976 80.0014 43.0339 80.0014V80.0014ZM18.8969 30.7333C15.2771 35.7768 13.3729 41.6995 13.3729 47.9675C13.3729 64.3226 26.6788 77.6285 43.0339 77.6285C58.5525 77.6285 71.3258 65.6502 72.5917 50.4531C71.1869 52.2327 70.0764 53.4429 70.0076 53.5177C69.7834 53.7609 69.4666 53.8997 69.1356 53.8997C68.8046 53.8997 68.489 53.7621 68.2636 53.5188C67.382 52.5626 59.6441 44.0214 59.6441 38.476C59.6441 34.1122 62.0229 30.2373 65.5015 28.6119C59.8517 22.0426 51.7542 18.3065 43.0339 18.3065C41.6517 18.3065 40.2541 18.4061 38.86 18.6043C39.2681 19.8868 39.4746 21.218 39.4746 22.5777C39.4746 29.2787 28.9034 40.0433 28.4537 40.4977C28.2307 40.7231 27.9269 40.85 27.6102 40.85C27.2934 40.85 26.9897 40.7231 26.7666 40.4965C26.5578 40.2853 22.0742 35.7199 18.8969 30.7333V30.7333Z" fill="#49B3F7"/>
<path d="M69.1344 42.0345C66.5171 42.0345 64.3887 39.906 64.3887 37.2887C64.3887 34.6714 66.5171 32.543 69.1344 32.543C71.7517 32.543 73.8802 34.6714 73.8802 37.2887C73.8802 39.906 71.7505 42.0345 69.1344 42.0345ZM69.1344 34.9158C67.8258 34.9158 66.7616 35.9801 66.7616 37.2887C66.7616 38.5974 67.8258 39.6616 69.1344 39.6616C70.4431 39.6616 71.5073 38.5974 71.5073 37.2887C71.5073 35.9801 70.4431 34.9158 69.1344 34.9158Z" fill="#49B3F7"/>
<path d="M62.6442 51.4668C62.6324 51.4668 62.6086 51.4668 62.5968 51.4668C60.9832 51.4063 59.3578 51.2995 57.7917 51.1453C57.1866 51.0859 56.7239 50.577 56.7239 49.9588C56.7239 49.9232 56.7239 49.8758 56.7358 49.8402C56.7951 49.1876 57.3646 48.7249 58.029 48.7831C59.5595 48.9373 61.1256 49.0453 62.6917 49.1046C63.0002 49.1164 63.2968 49.247 63.5103 49.4724C63.7358 49.7097 63.8425 50.0063 63.8307 50.3278C63.807 50.9685 63.2849 51.4668 62.6442 51.4668V51.4668ZM52.0375 50.2922C51.9663 50.2922 51.8951 50.2922 51.812 50.2673C50.1747 49.9469 48.5849 49.5673 47.1019 49.1414C46.5917 48.999 46.2358 48.5232 46.2358 48.0024C46.2358 47.8944 46.2476 47.777 46.2832 47.6808C46.4612 47.0639 47.1375 46.6842 47.7544 46.8622C49.1781 47.2786 50.6968 47.6334 52.2629 47.9419C52.9036 48.0724 53.3307 48.6893 53.2002 49.33C53.0934 49.8888 52.6069 50.2922 52.0375 50.2922ZM41.8578 47.1588C41.6798 47.1588 41.5137 47.1244 41.3595 47.052C39.7578 46.3046 38.3103 45.4871 37.0646 44.608C37.0646 44.608 37.0527 44.608 37.0527 44.5961C36.7442 44.3814 36.5544 44.0147 36.5544 43.6339C36.5544 43.3847 36.6256 43.1475 36.768 42.9458C37.1358 42.4249 37.9069 42.2932 38.4171 42.6622C39.5561 43.469 40.8849 44.2164 42.3561 44.8927C42.9493 45.1644 43.2103 45.8644 42.9375 46.4576C42.7476 46.8871 42.3205 47.1588 41.8578 47.1588V47.1588ZM33.6358 40.599C33.2205 40.599 32.829 40.3842 32.6154 40.0176C31.6544 38.4041 31.168 36.6956 31.168 34.9159V34.9041C31.1798 34.2503 31.7019 33.7295 32.3544 33.7295C33.007 33.7295 33.5408 34.2634 33.5408 34.9159C33.5408 36.2792 33.9086 37.5498 34.6561 38.7956C34.9883 39.3651 34.8103 40.0888 34.2409 40.4329C34.0629 40.5397 33.8493 40.599 33.6358 40.599Z" fill="#49B3F7"/>
</svg>
