<svg width="90" height="90" viewBox="0 0 90 90" fill="none" xmlns="http://www.w3.org/2000/svg">
<path d="M71.299 15.494C70.8782 15.1153 70.2299 15.1493 69.851 15.5704C69.4721 15.9914 69.5063 16.6397 69.9274 17.0185L69.9285 17.0195L56.9779 29.9701L51.0714 24.0634C54.2173 20.5983 55.9965 16.3221 56.063 12.075C59.6375 11.9078 63.0663 12.7339 65.9849 14.2699C66.4865 14.5339 67.1061 14.341 67.3699 13.84C67.6337 13.3388 67.4411 12.7188 66.9402 12.4551C58.5866 8.0589 48.4072 9.70713 41.833 16.2751C36.6345 21.4735 34.2986 29.2016 36.2267 36.7312C23.2421 35.225 12 45.4227 12 58.2925C12 63.8066 14.0737 69.0632 17.8212 73.0859C18.2069 73.5001 18.8558 73.5234 19.2704 73.1371C19.6846 72.7512 19.7077 72.1025 19.3216 71.688C19.0008 71.3436 18.6937 70.9892 18.4003 70.6257H22.5782C23.8663 70.6257 25.0146 71.4489 25.4173 72.6885L26.7101 76.667C25.3659 76.155 24.0756 75.4937 22.8613 74.6886C22.3892 74.3755 21.753 74.5049 21.44 74.9767C21.1271 75.4487 21.256 76.0849 21.728 76.3978C25.266 78.7433 29.4359 80.0001 33.7077 80.0001C47.8527 80.0001 58.364 66.5553 54.6901 52.7158C61.3387 53.425 67.684 50.9994 72.1226 46.5649C80.7838 37.896 80.4383 23.7176 71.299 15.494ZM54.0046 12.2811C53.874 15.8858 52.2891 19.6224 49.6175 22.6097L44.0342 17.0264C46.7691 14.5648 50.2061 12.8688 54.0046 12.2811ZM42.5841 18.4767L48.1674 24.06C45.1811 26.7306 41.4464 28.3154 37.839 28.445C38.427 24.6473 40.1227 21.211 42.5841 18.4767ZM37.6327 30.5027C41.8806 30.4364 46.1565 28.6582 49.6206 25.5133L55.5275 31.4202L42.584 44.3638C39.1822 40.5846 37.3915 35.6507 37.6327 30.5027ZM46.7082 52.9903L41.8767 54.56C41.5386 54.0115 41.0914 53.5217 40.5454 53.1249L36.6679 50.3078C36.0761 49.8778 35.4157 49.595 34.7332 49.4525V44.2873C35.4157 44.1447 36.0761 43.8618 36.6679 43.4317L38.4426 42.1424C40.4684 45.6309 43.4637 48.5172 47.0809 50.4101C47.0154 50.6858 46.559 51.6178 46.7082 52.9903ZM40.4246 58.1217L38.9434 62.68C38.5425 63.9138 37.4017 64.7427 36.1042 64.7427H31.3113C30.014 64.7427 28.873 63.9138 28.472 62.68L26.9909 58.1217C26.59 56.888 27.0259 55.5466 28.0755 54.784L31.9529 51.9667C32.9968 51.2083 34.4176 51.2077 35.4623 51.9667L39.3399 54.784C40.3896 55.5466 40.8254 56.8879 40.4246 58.1217ZM36.9072 38.8967C37.085 39.3728 37.279 39.8409 37.4891 40.3003L35.4623 41.7727C34.4148 42.5339 33.0019 42.5347 31.953 41.7727L28.5731 39.317C31.2841 38.5827 34.1193 38.4403 36.9072 38.8967ZM26.2679 40.099C26.761 40.5928 26.8348 40.5645 30.7477 43.4317C31.3396 43.8618 32 44.1447 32.6824 44.2871V49.4524C32 49.5948 31.3396 49.8777 30.7477 50.3077L26.8704 53.1248C26.3242 53.5216 25.877 54.0114 25.5389 54.56L20.7075 52.9903C20.783 52.2971 20.7154 51.5809 20.4892 50.885C18.9946 46.3469 19.0233 46.2237 18.7081 45.6032C20.7354 43.2104 23.3236 41.3074 26.2679 40.099ZM17.2509 47.5548L18.5388 51.5187C18.9353 52.7389 18.5123 54.0877 17.4542 54.8564L14.0752 57.3114C14.2525 53.724 15.3967 50.3871 17.2509 47.5548ZM24.6479 69.0181C24.0119 68.7321 23.31 68.5751 22.5783 68.5751C17.7214 68.5945 17.6783 68.5285 16.9912 68.6383C15.3307 65.9608 14.3377 62.9198 14.1047 59.7469C14.7268 59.4307 14.7395 59.3396 18.6598 56.5153C19.2518 56.0852 19.7274 55.5456 20.0738 54.9405L24.8429 56.49C24.7377 57.2327 24.7973 58.0057 25.041 58.7553L26.522 63.3136C26.7373 63.9763 27.0797 64.5692 27.5162 65.0703L24.6479 69.0181ZM38.3818 77.3867C36.8831 77.7536 35.318 77.9497 33.7077 77.9497C32.1188 77.9497 30.5521 77.7573 29.0339 77.3871C28.9257 76.6991 28.8452 76.6651 27.3676 72.055C27.1415 71.359 26.7752 70.7401 26.3068 70.2236L29.1512 66.3089C29.8108 66.6214 30.5448 66.7936 31.3114 66.7936H36.1044C36.8711 66.7936 37.6051 66.6214 38.2646 66.3089L41.1088 70.2236C40.6403 70.7401 40.274 71.3592 40.0479 72.055C38.5691 76.669 38.4894 76.702 38.3818 77.3867ZM40.7078 76.6603L41.9983 72.6886C42.3971 71.4613 43.5367 70.6258 44.8376 70.6258H49.0022C46.8358 73.3069 43.9806 75.4088 40.7078 76.6603ZM50.4156 68.637C49.734 68.5293 49.6855 68.5942 44.8376 68.5751C44.1059 68.5751 43.404 68.7322 42.768 69.0181L39.8997 65.0703C40.3362 64.5692 40.6786 63.9762 40.8938 63.3135L42.3749 58.7553C42.6184 58.0057 42.678 57.2325 42.573 56.49L47.3421 54.9405C47.6885 55.5456 48.164 56.0852 48.756 56.5152C52.7048 59.36 52.6895 59.4308 53.3112 59.7467C53.0727 62.991 52.043 66.018 50.4156 68.637ZM49.9612 54.8563C48.9208 54.1003 48.4746 52.7564 48.8768 51.5187L48.955 51.2778C50.0762 51.7325 51.2443 52.0945 52.45 52.3551C52.9585 53.9607 53.2566 55.6216 53.3397 57.311L49.9612 54.8563ZM57.8951 50.7654C52.7553 51.0063 47.8192 49.221 44.0342 45.8141L56.9777 32.8705L62.8844 38.7771C59.7397 42.2413 57.9613 46.5175 57.8951 50.7654ZM59.9533 50.5591C60.0836 46.9538 61.6679 43.2172 64.3379 40.2307L69.9214 45.8141C67.1871 48.2753 63.751 49.9711 59.9533 50.5591ZM71.3716 44.364L65.7882 38.7805C68.7758 36.1093 72.5122 34.5249 76.117 34.3939C75.5293 38.1923 73.8333 41.6291 71.3716 44.364ZM76.323 32.3352C72.0774 32.4017 67.8 34.1809 64.3346 37.3268L58.428 31.4202L71.3779 18.4703C74.728 22.2002 76.565 27.1611 76.323 32.3352Z" fill="#49B3F7"/>
</svg>
