<svg width="170" height="220" viewBox="0 0 170 220" fill="none" xmlns="http://www.w3.org/2000/svg">
<g style="mix-blend-mode:multiply" opacity="0.95">
<path d="M130.342 184L63.1836 188.169V204.199L129.052 198.75C129.052 198.75 133.597 194.045 130.342 184Z" fill="#F8CC90"/>
</g>
<path d="M130.922 180.463L57.0117 185.053V202.693L129.472 196.693C129.472 196.693 134.452 191.523 130.922 180.463Z" fill="#FF6551"/>
<g style="mix-blend-mode:multiply" opacity="0.95">
<path d="M130.922 180.463L57.0117 185.053V202.693L129.472 196.693C129.472 196.693 134.452 191.523 130.922 180.463Z" fill="#F8CC90"/>
</g>
<path d="M81.3516 188.473C81.3516 188.473 84.5016 193.203 81.3516 197.643L121.622 194.323C122.683 191.637 122.683 188.648 121.622 185.963L81.3516 188.473Z" fill="#FF6551"/>
<path d="M27.8613 181.523L84.8013 178.103L130.921 180.463L57.0413 185.053L27.8613 181.523Z" fill="#FF6551"/>
<path d="M29.2715 182.692C29.2715 182.692 31.7415 191.162 29.9815 197.052L56.3115 201.522C56.3115 201.522 59.6315 201.052 60.2115 196.102C60.7915 191.152 56.3115 185.002 56.3115 185.002L29.2715 182.692Z" fill="#FFEBDD"/>
<g style="mix-blend-mode:multiply" opacity="0.41">
<path d="M56.3125 185.002L29.3125 182.732C29.3125 182.732 29.6625 184.002 30.0125 186.002L51.7425 188.422C52.7451 188.525 53.6883 188.947 54.4335 189.625C55.1787 190.304 55.6866 191.204 55.8825 192.192C55.8825 192.192 55.8825 192.272 55.8825 192.312C55.9846 193.056 55.9083 193.813 55.6598 194.521C55.4114 195.23 54.998 195.869 54.4538 196.385C53.9095 196.902 53.2501 197.282 52.53 197.494C51.8099 197.705 51.0498 197.743 50.3125 197.602L30.4925 194.072C30.4142 195.088 30.2332 196.093 29.9525 197.072L56.2825 201.542C56.2825 201.542 59.6025 201.072 60.1825 196.122C60.7625 191.172 56.3125 185.002 56.3125 185.002Z" fill="#E79E82"/>
</g>
<g style="mix-blend-mode:multiply" opacity="0.41">
<path d="M30.3633 188.252C30.4333 188.792 30.4933 189.352 30.5333 189.922L50.6833 191.582L30.3633 188.252Z" fill="#E79E82"/>
</g>
<g style="mix-blend-mode:multiply" opacity="0.41">
<path d="M45.4416 194.003L30.6016 191.683C30.6016 192.083 30.6016 192.493 30.6016 192.903L45.4416 194.003Z" fill="#E79E82"/>
</g>
<path d="M27.862 183.522L55.012 186.932C56.8975 188.6 58.0744 190.926 58.302 193.432C58.277 194.666 58.0068 195.882 57.5072 197.01C57.0076 198.138 56.2886 199.155 55.392 200.002L28.332 195.642L28.452 198.232L56.312 202.702C56.312 202.702 61.392 200.942 61.312 194.002C61.232 187.062 57.012 185.052 57.012 185.052L27.832 181.522L27.862 183.522Z" fill="#FF6551"/>
<path d="M126.572 164.191C126.572 164.191 123.632 173.281 126.572 180.341L117.272 183.521C117.272 183.521 109.742 178.931 115.742 167.631L126.572 164.191Z" fill="#FFEBDD"/>
<g style="mix-blend-mode:multiply" opacity="0.41">
<path d="M117.272 183.522L126.572 180.342C126.185 179.406 125.891 178.435 125.692 177.442L118.012 180.002C118.012 180.002 117.072 179.532 116.362 176.222C116.202 175.146 116.266 174.049 116.55 172.999C116.834 171.95 117.331 170.97 118.012 170.122L125.812 167.282C125.999 166.248 126.246 165.227 126.552 164.222L115.722 167.662C109.742 178.932 117.272 183.522 117.272 183.522Z" fill="#E79E82"/>
</g>
<g style="mix-blend-mode:multiply" opacity="0.41">
<path d="M125.362 170.721C125.362 170.191 125.462 169.721 125.522 169.201L119.092 172.321L125.362 170.721Z" fill="#E79E82"/>
</g>
<g style="mix-blend-mode:multiply" opacity="0.41">
<path d="M120.012 176.192L125.392 175.302C125.332 174.662 125.292 174.032 125.282 173.412L120.012 176.192Z" fill="#E79E82"/>
</g>
<path d="M34.1028 164.192C34.1028 164.192 29.3328 175.402 36.3928 183.192L114.333 185.782C114.333 185.782 110.653 179.782 113.143 167.012L34.1028 164.192Z" fill="#49B3F7"/>
<path d="M40.4435 168.002C40.4435 168.002 37.3735 173.242 41.3235 180.482L100.443 182.172C100.443 182.172 96.9135 178.682 98.8535 169.842L40.4435 168.002Z" fill="#89CEFA"/>
<path d="M128.514 161.322L113.144 167.002C113.144 167.002 109.504 177.422 114.334 185.772L127.804 181.422V178.242L117.274 182.122C117.274 182.122 113.044 179.122 116.214 168.952L128.394 165.192L128.514 161.322Z" fill="#0071BC"/>
<path d="M34.1016 164.192L63.6316 158.502L128.512 161.322L113.142 166.982L34.1016 164.192Z" fill="#0071BC"/>
<path d="M66.632 192.803C66.632 192.803 66.632 196.103 64.932 197.873C63.232 199.643 57.932 202.283 58.332 205.463C58.732 208.643 69.632 206.883 75.802 202.113C81.972 197.343 77.502 194.533 75.802 192.223L66.632 192.803Z" fill="#808080"/>
<path d="M59.5721 150.662C59.5721 150.662 51.6321 166.442 54.8021 176.162C57.9721 185.882 66.452 195.222 66.452 195.222C66.452 195.222 73.682 196.632 75.802 192.222C75.802 192.222 69.452 183.932 74.392 170.522C74.392 170.522 78.452 157.762 72.632 152.142C66.812 146.522 62.3921 147.742 59.5721 150.662Z" fill="#2435A1"/>
<path d="M96.7132 192.803C96.7132 192.803 96.7132 196.103 98.4132 197.873C100.113 199.643 105.363 202.283 105.013 205.463C104.663 208.643 93.7132 206.883 87.5332 202.113C81.3532 197.343 85.8432 194.533 87.5332 192.223L96.7132 192.803Z" fill="#808080"/>
<path d="M103.773 150.662C103.773 150.662 111.713 166.442 108.533 176.162C105.353 185.882 96.8932 195.222 96.8932 195.222C96.8932 195.222 89.6532 196.632 87.5332 192.222C87.5332 192.222 93.8932 183.932 88.9532 170.522C88.9532 170.522 84.8932 157.762 90.7132 152.142C96.5332 146.522 100.953 147.742 103.773 150.662Z" fill="#2435A1"/>
<path d="M114.013 122.673C114.013 122.763 114.013 122.863 114.013 122.963C113.869 123.634 113.566 124.26 113.129 124.789C112.692 125.318 112.135 125.734 111.503 126.003C110.246 126.538 108.931 126.924 107.583 127.153C105.583 127.613 103.663 128.263 101.683 128.713C99.2419 129.211 96.7697 129.545 94.2835 129.713C90.2835 130.073 86.2035 130.423 82.1535 130.423C75.0215 130.256 67.9179 129.467 60.9235 128.063C57.079 127.537 53.316 126.529 49.7235 125.063C47.8435 124.203 45.8935 122.843 45.6035 120.793C45.3135 118.743 46.9935 116.473 48.0335 114.793C49.2203 112.923 50.6086 111.19 52.1735 109.623C55.2604 106.371 59.0123 103.823 63.1735 102.153C64.8035 101.513 66.4435 100.883 68.1135 100.373L68.8435 100.153C69.3735 100.003 69.9035 99.8729 70.4435 99.7529C77.3792 98.3221 84.5728 98.7919 91.2635 101.113C92.5235 101.523 93.7835 101.993 95.0035 102.503C95.5335 102.723 96.0635 102.953 96.5835 103.193C100.435 104.83 103.966 107.135 107.013 110.003C109.874 112.842 112.055 116.292 113.393 120.093C113.766 120.904 113.976 121.781 114.013 122.673Z" fill="#FF6551"/>
<g style="mix-blend-mode:multiply" opacity="0.95">
<path d="M113.403 120.053C111.673 115.083 108.493 110.746 104.273 107.603C99.4133 112.023 92.5233 113.833 86.6833 114.603C77.6833 116.393 65.5133 111.743 61.6833 102.812C58.1246 104.478 54.9066 106.791 52.1933 109.632C50.6168 111.185 49.2151 112.905 48.0133 114.763C47.0133 116.483 45.2933 118.683 45.5833 120.763C45.8733 122.843 47.8233 124.173 49.7033 125.033C53.2958 126.499 57.0588 127.507 60.9033 128.033C67.8977 129.436 75.0014 130.226 82.1333 130.393C86.1333 130.393 90.2233 130.033 94.2633 129.683C96.7495 129.515 99.2217 129.181 101.663 128.683C103.663 128.233 105.583 127.583 107.563 127.113C108.917 126.903 110.239 126.53 111.503 126.003C112.13 125.738 112.685 125.328 113.121 124.806C113.558 124.284 113.863 123.666 114.013 123.003C114.013 122.903 114.013 122.803 114.013 122.713C113.99 121.794 113.782 120.889 113.403 120.053Z" fill="#F8CC90"/>
</g>
<g style="mix-blend-mode:multiply">
<path d="M91.2927 101.083C91.0327 101.523 87.1227 105.083 80.0927 104.363C73.7827 103.693 71.1427 101.053 70.4727 99.7226C77.4084 98.2918 84.602 98.7617 91.2927 101.083Z" fill="#F7A845"/>
</g>
<path d="M88.0826 100.442C88.0826 100.442 86.2826 103.172 80.3726 102.442C74.4626 101.712 73.1426 99.442 73.1426 99.442V97.222V94.002L87.1426 92.862L88.4626 92.752V93.572L88.2626 97.822L88.0826 100.442Z" fill="#EA9573"/>
<g style="mix-blend-mode:multiply" opacity="0.31">
<path d="M88.2026 97.8323C86.3226 99.0923 83.9226 100.322 81.7926 100.242C77.5626 100.082 73.2526 97.2923 73.1426 97.2423V94.0023L87.1426 92.8623L88.4226 93.5723L88.2026 97.8323Z" fill="#DD7258"/>
</g>
<path d="M116.064 58.0019C116.064 58.0019 121.634 55.3919 124.744 59.3319C127.854 63.2719 122.924 73.2419 119.154 74.2219C115.384 75.2019 113.914 74.2219 113.914 74.2219L116.064 58.0019Z" fill="#FFBF94"/>
<path d="M46.3022 57.8623C46.3022 57.8623 40.7322 55.2423 37.6122 59.1623C34.4922 63.0823 39.4022 73.0923 43.1622 74.0723C46.9222 75.0523 48.4022 74.0723 48.4022 74.0723L46.3022 57.8623Z" fill="#FFBF94"/>
<path d="M118.703 43.0019C118.703 43.0019 117.703 57.6519 116.043 69.4319C115.803 71.2019 115.543 72.9019 115.283 74.4319C114.483 79.1619 113.573 82.7619 112.613 83.6619C109.143 87.0019 89.4834 97.5619 81.7834 97.0519C74.0834 96.5419 53.7834 86.7819 50.5234 83.2519C49.5234 82.1319 48.3434 78.1619 47.3034 73.2519C45.0734 62.8919 43.1934 48.4319 43.1934 48.4319C44.0134 24.6619 57.3234 16.6319 83.0134 15.8219C108.703 15.0119 118.703 43.0019 118.703 43.0019Z" fill="#FFBF94"/>
<path opacity="0.27" d="M99.6929 24.0923C99.6929 24.0923 96.6229 7.86227 79.2929 8.09227C72.009 8.22898 64.8463 9.98091 58.3216 13.2216C51.7969 16.4623 46.073 21.111 41.5629 26.8323C37.2086 32.4772 35.2483 39.6078 36.1052 46.6853C36.962 53.7627 40.5673 60.2196 46.1429 64.6623C46.1429 64.6623 50.1429 57.2823 54.0729 51.5023C54.0729 51.5023 76.2229 61.1823 97.0729 43.0723C97.0629 43.0723 102.763 34.1923 99.6929 24.0923Z" fill="#DA8966"/>
<path opacity="0.27" d="M96.0134 33.7918C96.0134 33.7918 95.3534 44.1318 102.153 50.3418C108.953 56.5518 114.213 57.2118 114.213 57.2118C114.213 57.2118 117.943 64.2118 115.313 71.6918C115.313 71.6918 124.813 62.7718 123.313 44.2618C121.813 25.7518 112.813 19.7018 95.9434 19.9218L96.0134 33.7918Z" fill="#DA8966"/>
<path d="M95.3238 52.0517C95.6038 52.4917 96.1038 52.4417 96.5838 52.4917C97.0638 52.5417 97.6838 52.5517 98.2438 52.5717C99.3272 52.5676 100.402 52.7642 101.414 53.1517C102.337 53.575 103.209 54.1017 104.014 54.7217C104.4 55.0254 104.804 55.3059 105.224 55.5617C105.459 55.7096 105.711 55.8304 105.974 55.9217C106.234 55.9917 106.484 55.9217 106.724 56.0417C106.964 56.1617 107.204 55.7917 107.094 55.5617C106.984 55.3317 107.014 55.0117 106.884 54.7517C106.733 54.4672 106.548 54.2019 106.334 53.9617C105.938 53.5063 105.496 53.094 105.014 52.7317C104.025 51.9696 102.912 51.3843 101.724 51.0017C100.481 50.6394 99.1759 50.544 97.8938 50.7217C97.4938 50.7217 94.7538 51.1617 95.3238 52.0517Z" fill="#5F130F"/>
<g style="mix-blend-mode:multiply" opacity="0.44">
<path d="M45.9527 70.3022C43.8366 69.2757 42.1838 67.4909 41.3227 65.3022C40.9927 64.3022 41.0727 62.7822 42.3227 62.6122C43.3827 62.4722 43.8127 63.8522 44.3227 64.6122C44.5727 64.9822 45.2427 64.7622 45.0827 64.2922C44.6527 63.0322 44.2327 61.4422 42.6627 61.2922C41.9063 61.2568 41.1665 61.5217 40.6046 62.0293C40.0427 62.537 39.7041 63.2461 39.6627 64.0022C39.4527 65.8222 40.5527 67.5222 41.5827 68.9222C42.6127 70.3222 44.0127 71.4122 45.8527 71.0022C45.9188 70.9751 45.9767 70.9312 46.0206 70.8748C46.0646 70.8184 46.093 70.7516 46.1031 70.6808C46.1132 70.6101 46.1046 70.5379 46.0783 70.4715C46.0519 70.4051 46.0086 70.3467 45.9527 70.3022Z" fill="#DA8966"/>
</g>
<g style="mix-blend-mode:multiply" opacity="0.44">
<path d="M123.213 63.8318C123.123 62.4618 121.983 61.2318 120.533 61.8318C119.533 62.2218 117.983 64.1118 119.053 65.0918C119.08 65.1166 119.113 65.1352 119.149 65.1463C119.184 65.1574 119.222 65.1606 119.259 65.1559C119.296 65.1511 119.332 65.1385 119.363 65.1188C119.395 65.0991 119.422 65.0728 119.443 65.0418C119.983 64.3318 120.043 63.1618 121.083 62.8918C122.503 62.5318 122.083 64.8918 121.883 65.6218C121.723 66.4713 121.382 67.2763 120.883 67.9818C120.272 68.6269 119.518 69.1201 118.683 69.4218C118.643 69.445 118.61 69.477 118.585 69.5151C118.559 69.5533 118.543 69.5967 118.538 69.6421C118.532 69.6874 118.536 69.7335 118.551 69.7768C118.566 69.82 118.59 69.8594 118.623 69.8918C119.753 71.1318 121.403 69.4718 122.033 68.4718C122.873 67.0744 123.283 65.4607 123.213 63.8318Z" fill="#DA8966"/>
</g>
<path d="M63.6334 52.7527C62.8734 51.9427 61.3634 52.2427 60.3834 52.3827C59.2675 52.5593 58.183 52.8962 57.1634 53.3827C56.1726 53.8394 55.2421 54.4172 54.3934 55.1027C53.6634 55.6827 52.3934 56.7527 52.7434 57.8027C52.7874 57.9472 52.8758 58.0743 52.996 58.1658C53.1163 58.2574 53.2623 58.3087 53.4134 58.3127C54.3034 58.4127 55.2034 57.3127 55.8534 56.8327C56.5917 56.2729 57.394 55.803 58.2434 55.4327C59.067 55.0931 59.9207 54.8319 60.7934 54.6527C61.7034 54.4527 62.9234 54.6527 63.6334 53.9427C63.7849 53.7876 63.8697 53.5794 63.8697 53.3627C63.8697 53.1459 63.7849 52.9377 63.6334 52.7827V52.7527Z" fill="#5F130F"/>
<path d="M91.2238 81.0528C90.7096 83.0521 89.7717 84.9175 88.4738 86.5228C87.5667 87.6203 86.4266 88.502 85.1362 89.104C83.8459 89.7059 82.4377 90.0129 81.0138 90.0028C79.4207 90.0805 77.8344 89.7458 76.4084 89.0311C74.9824 88.3164 73.765 87.2457 72.8738 85.9228C71.807 84.3808 71.0247 82.6604 70.5638 80.8428C70.4946 80.5927 70.5195 80.3258 70.6338 80.0928C70.7446 79.8362 70.9489 79.6314 71.2052 79.5199C71.4615 79.4085 71.7506 79.3988 72.0138 79.4928L72.3738 79.6128C78.014 81.4327 84.0837 81.4327 89.7238 79.6128C89.8469 79.5742 89.9749 79.554 90.1038 79.5528C90.3559 79.5525 90.6017 79.6315 90.8063 79.7787C91.0109 79.9258 91.164 80.1337 91.2439 80.3728C91.3065 80.5962 91.2996 80.8335 91.2238 81.0528Z" fill="#831532"/>
<path d="M91.203 80.3424C88.2021 82.5189 84.6092 83.7293 80.903 83.8124C77.171 83.6726 73.5764 82.3683 70.623 80.0825C70.7357 79.8253 70.9424 79.621 71.2008 79.5113C71.4592 79.4016 71.7498 79.3948 72.013 79.4924L72.373 79.6125C78.0132 81.4324 84.0829 81.4324 89.723 79.6125C89.8461 79.5739 89.9741 79.5536 90.103 79.5525C90.3446 79.5581 90.5789 79.6365 90.7751 79.7774C90.9714 79.9184 91.1206 80.1153 91.203 80.3424Z" fill="white"/>
<path d="M88.473 86.5227C87.5659 87.6202 86.4258 88.502 85.1354 89.1039C83.8451 89.7058 82.4369 90.0129 81.013 90.0028C79.4199 90.0805 77.8336 89.7458 76.4076 89.031C74.9816 88.3163 73.7642 87.2457 72.873 85.9228C78.028 84.6717 83.4294 84.8794 88.473 86.5227Z" fill="#FF6551"/>
<path d="M65.6871 77.6653C66.0884 75.9952 63.8844 74.0336 60.7644 73.284C57.6444 72.5344 54.7899 73.2806 54.3887 74.9507C53.9874 76.6207 56.1914 78.5823 59.3113 79.3319C62.4313 80.0815 65.2859 79.3354 65.6871 77.6653Z" fill="#F2786B"/>
<path d="M103.047 79.4423C106.224 78.9946 108.606 77.2529 108.366 75.5521C108.126 73.8513 105.356 72.8355 102.179 73.2831C99.0016 73.7308 96.62 75.4725 96.8597 77.1733C97.0993 78.8741 99.8694 79.89 103.047 79.4423Z" fill="#F2786B"/>
<g style="mix-blend-mode:multiply" opacity="0.21">
<path d="M80.4431 72.3027C79.3945 72.333 78.3674 72.6069 77.4431 73.1027C77.3719 73.1378 77.3076 73.1852 77.2531 73.2427C77.0731 73.4827 77.3631 73.7927 77.6331 73.9327C79.3882 74.7019 81.3612 74.8154 83.1931 74.2527C83.6455 74.1849 84.0708 73.9947 84.4231 73.7027C84.6231 73.5027 84.7431 73.1427 84.5431 72.9527C84.446 72.8801 84.3328 72.832 84.2131 72.8127C82.4917 72.4527 80.7144 72.4527 78.9931 72.8127L80.4431 72.3027Z" fill="#DA8966"/>
</g>
<path d="M77.3343 73.4926C77.8043 73.3226 78.1943 73.0026 78.6843 72.8526C79.2573 72.6964 79.8509 72.629 80.4443 72.6526C81.0058 72.6374 81.5676 72.6675 82.1243 72.7426C82.689 72.8431 83.213 73.1034 83.6343 73.4926C84.1043 73.8926 84.8843 73.3926 84.5343 72.8026C83.7643 71.5026 81.8543 71.4926 80.5343 71.5126C79.4143 71.5126 77.2143 71.6526 76.9043 73.0626C76.9043 73.3026 77.0643 73.5926 77.3343 73.4926Z" fill="#D88261"/>
<path d="M93.0839 69.0024C92.4612 68.341 91.9943 67.5488 91.7175 66.6836C91.4406 65.8185 91.3608 64.9023 91.4839 64.0024C91.7435 62.1938 92.6932 60.5561 94.1339 59.4324C95.5413 58.3011 97.3375 57.7694 99.1339 57.9524C100.031 58.0589 100.89 58.3775 101.639 58.8818C102.389 59.3861 103.007 60.0616 103.444 60.8524C103.687 61.3558 103.882 61.8816 104.024 62.4224C104.335 63.4346 104.431 64.5009 104.304 65.5524C103.941 67.1732 102.985 68.5999 101.624 69.5524C100.632 70.3801 99.3948 70.8581 98.1039 70.9124C96.7361 70.7821 95.4227 70.3111 94.2839 69.5424C93.4518 69.194 92.7857 68.5387 92.4239 67.7124L93.0839 69.0024Z" fill="white"/>
<path d="M70.2025 68.8327C70.5899 68.0118 70.7908 67.1154 70.7908 66.2077C70.7908 65.3 70.5899 64.4036 70.2025 63.5827C69.4084 61.9343 68.0127 60.6531 66.3025 60.0027C64.6023 59.3453 62.7109 59.3885 61.0425 60.1227C60.2224 60.4985 59.5031 61.0633 58.9434 61.7707C58.3837 62.4782 57.9996 63.3082 57.8225 64.1927C57.7358 64.7482 57.709 65.3115 57.7425 65.8727C57.7402 66.9529 57.9722 68.0208 58.4225 69.0027C59.257 70.4414 60.6031 71.5126 62.1925 72.0027C63.3898 72.4911 64.7146 72.572 65.9625 72.2327C67.2267 71.6984 68.3346 70.852 69.1825 69.7727C69.8754 69.1917 70.3133 68.3625 70.4025 67.4627L70.2025 68.8327Z" fill="white"/>
<path d="M44.1922 55.4529L39.8122 46.0029C39.8122 46.0029 14.3622 50.6729 15.0122 87.0029C16.7343 87.8587 18.5195 88.5808 20.3522 89.1629C20.1707 86.0002 20.8115 82.8444 22.2122 80.0029C22.5187 83.4069 23.0803 86.783 23.8922 90.1029C26.0613 90.6098 28.2757 90.8979 30.5022 90.9629C29.9457 87.3222 30.0371 83.6118 30.7722 80.0029C31.5848 83.668 32.6677 87.2679 34.0122 90.7729C36.0002 90.5608 37.9452 90.0518 39.7822 89.2629C39.7822 89.2629 34.3222 67.7329 44.1922 55.4529Z" fill="#672410"/>
<path d="M122.283 41.6328L118.553 53.8128C121.567 58.5114 123.108 64.0037 122.978 69.5845C122.848 75.1653 121.053 80.5798 117.823 85.1328C117.42 85.8355 117.056 86.56 116.733 87.3028C116.543 87.6628 116.353 88.0128 116.143 88.3728C118.154 89.7598 120.348 90.8603 122.663 91.6428C124.213 88.6972 125.312 85.5352 125.923 82.2628C125.923 82.2628 126.623 88.1328 125.363 92.4328C127.915 93.0592 130.554 93.2619 133.173 93.0328C134.937 89.9934 136.012 86.6035 136.323 83.1028C136.715 86.193 136.832 89.3119 136.673 92.4228C138.456 91.963 140.178 91.2915 141.803 90.4228C141.803 90.4228 159.353 49.3128 122.283 41.6328Z" fill="#672410"/>
<path d="M20.832 73.493H20.782C20.6575 73.4881 20.5354 73.4579 20.4229 73.4044C20.3105 73.3509 20.2101 73.275 20.1278 73.1815C20.0455 73.088 19.9831 72.9788 19.9442 72.8604C19.9054 72.7421 19.8911 72.6171 19.902 72.493C20.382 63.433 27.012 55.003 33.432 50.733C33.6363 50.5953 33.8868 50.5443 34.1287 50.5912C34.3705 50.6381 34.5839 50.779 34.722 50.983C34.8602 51.1889 34.9115 51.441 34.8646 51.6845C34.8178 51.928 34.6767 52.1431 34.472 52.283C28.662 56.193 22.202 64.223 21.762 72.613C21.7492 72.8509 21.6456 73.0748 21.4725 73.2385C21.2995 73.4023 21.0702 73.4934 20.832 73.493Z" fill="#772F1E"/>
<path d="M26.8718 79.7431C26.6269 79.7431 26.3918 79.6465 26.2177 79.4743C26.0436 79.302 25.9444 79.0681 25.9418 78.8231C25.7818 68.0031 28.6918 60.1031 35.3618 53.3731C35.5355 53.1968 35.7722 53.0966 36.0197 53.0948C36.2673 53.0929 36.5054 53.1894 36.6818 53.3631C36.8582 53.5369 36.9583 53.7735 36.9602 54.0211C36.962 54.2686 36.8655 54.5068 36.6918 54.6831C30.4018 61.0331 27.6918 68.4731 27.8018 78.8031C27.8031 78.9253 27.7804 79.0465 27.7348 79.1598C27.6893 79.2731 27.6219 79.3764 27.5365 79.4637C27.4511 79.551 27.3493 79.6206 27.2369 79.6685C27.1246 79.7165 27.0039 79.7418 26.8818 79.7431H26.8718Z" fill="#772F1E"/>
<path d="M34.7626 81.0629C34.5392 81.0606 34.3239 80.9788 34.1553 80.8322C33.9867 80.6856 33.8758 80.4838 33.8426 80.2629C31.7226 65.4229 38.0726 57.9629 38.3426 57.6529C38.4202 57.5529 38.5174 57.4697 38.6282 57.4086C38.7391 57.3475 38.8612 57.3096 38.9872 57.2973C39.1132 57.2851 39.2404 57.2987 39.3609 57.3373C39.4815 57.3759 39.5929 57.4387 39.6883 57.5218C39.7838 57.605 39.8612 57.7068 39.9159 57.8209C39.9707 57.9351 40.0015 58.0592 40.0066 58.1857C40.0117 58.3121 39.9909 58.4383 39.9455 58.5565C39.9001 58.6747 39.831 58.7823 39.7426 58.8729C39.6726 58.9629 33.7426 66.0829 35.6926 79.9929C35.727 80.238 35.6633 80.4868 35.5154 80.6852C35.3675 80.8837 35.1473 81.0158 34.9026 81.0529L34.7626 81.0629Z" fill="#772F1E"/>
<path d="M128.553 78.783H128.403C128.282 78.7648 128.165 78.7225 128.06 78.6585C127.955 78.5945 127.864 78.5102 127.793 78.4105C127.721 78.3107 127.67 78.1976 127.642 78.0778C127.615 77.958 127.612 77.834 127.633 77.713C128.283 73.713 129.233 63.803 123.923 58.973C123.832 58.8906 123.758 58.7909 123.706 58.6798C123.654 58.5686 123.624 58.4482 123.618 58.3255C123.613 58.2028 123.631 58.0801 123.673 57.9647C123.716 57.8493 123.78 57.7433 123.863 57.653C123.945 57.5622 124.044 57.4885 124.154 57.4362C124.264 57.384 124.384 57.3542 124.506 57.3486C124.628 57.343 124.75 57.3618 124.864 57.4037C124.979 57.4457 125.084 57.51 125.173 57.593C130.943 62.843 130.343 72.643 129.473 78.013C129.434 78.2284 129.32 78.4232 129.152 78.5638C128.984 78.7044 128.772 78.7819 128.553 78.783Z" fill="#772F1E"/>
<path d="M134.552 82.2833H134.392C134.271 82.2627 134.155 82.2184 134.052 82.1529C133.948 82.0874 133.858 82.002 133.787 81.9016C133.717 81.8012 133.667 81.6878 133.64 81.5679C133.613 81.4481 133.611 81.3242 133.632 81.2033C135.772 69.1333 133.552 60.0433 126.632 52.6033C126.545 52.5168 126.476 52.414 126.429 52.3007C126.382 52.1875 126.357 52.066 126.357 51.9433C126.357 51.8206 126.382 51.6991 126.429 51.5858C126.476 51.4725 126.545 51.3697 126.632 51.2833C126.821 51.1297 127.059 51.0501 127.302 51.0593C127.545 51.0685 127.776 51.1659 127.952 51.3333C135.292 59.2433 137.662 68.8333 135.422 81.5333C135.381 81.7369 135.273 81.9209 135.115 82.0566C134.958 82.1923 134.76 82.272 134.552 82.2833Z" fill="#772F1E"/>
<path d="M141.302 77.873H141.192C140.952 77.8478 140.73 77.7286 140.577 77.5414C140.423 77.3542 140.35 77.1141 140.372 76.873C141.372 67.593 138.772 51.663 127.312 48.433C127.075 48.3654 126.874 48.2063 126.754 47.9906C126.634 47.7749 126.605 47.5204 126.672 47.283C126.74 47.0457 126.899 46.8449 127.115 46.7249C127.33 46.6048 127.585 46.5754 127.822 46.643C140.382 50.183 143.322 67.193 142.222 77.083C142.191 77.3039 142.08 77.5057 141.911 77.6511C141.742 77.7964 141.525 77.8753 141.302 77.873Z" fill="#772F1E"/>
<path d="M41.6321 64.6622C41.3069 64.6635 40.986 64.5886 40.695 64.4434C40.404 64.2982 40.1512 64.0868 39.9567 63.8262C39.7622 63.5656 39.6315 63.2631 39.5751 62.9428C39.5188 62.6226 39.5383 62.2936 39.6321 61.9822C39.1927 62.28 38.658 62.403 38.1327 62.3272C37.6074 62.2513 37.1293 61.9821 36.7921 61.5722C36.4755 61.1482 36.2589 60.6581 36.1585 60.1386C36.0581 59.6191 36.0764 59.0836 36.2121 58.5722C36.5029 57.5506 36.948 56.5794 37.5321 55.6922C35.8821 55.8522 33.9321 55.8922 32.9021 54.5922C31.8721 53.2922 32.5821 51.0022 34.0121 49.8322C32.9887 49.57 32.0663 49.0096 31.3621 48.2222C30.1121 46.6122 31.1821 43.6722 32.8321 42.7422C35.5521 41.2322 39.6921 43.1922 41.3021 45.5422C41.9048 46.4977 42.3916 47.5216 42.7521 48.5922C43.8921 51.5922 45.6621 55.5022 45.1021 58.8122C44.7621 60.6022 43.8821 64.5122 41.6321 64.6622Z" fill="#FF6551"/>
<path d="M130.922 43.5616C131.046 44.0574 131.072 44.5728 130.997 45.0783C130.922 45.5839 130.748 46.0697 130.485 46.5081C130.222 46.9464 129.876 47.3286 129.465 47.633C129.054 47.9373 128.588 48.1577 128.092 48.2816C128.752 49.3416 130.092 49.9316 130.532 51.0916C130.71 51.7268 130.679 52.4024 130.443 53.0184C130.207 53.6343 129.779 54.1579 129.222 54.5116C128.097 55.2006 126.833 55.631 125.522 55.7716C125.997 57.3527 126.203 59.0023 126.132 60.6516C126.095 61.4781 125.873 62.2858 125.484 63.0159C125.095 63.746 124.547 64.3799 123.882 64.8716C123.201 65.341 122.375 65.5525 121.552 65.4683C120.729 65.384 119.964 65.0094 119.392 64.4116C118.8 63.5621 118.454 62.5654 118.392 61.5316C117.862 58.7648 117.724 55.937 117.982 53.1316C118.19 51.7982 118.494 50.4814 118.892 49.1916C119.712 46.1916 120.822 43.6916 123.632 42.2416C126.082 41.0016 129.842 40.0016 130.922 43.5616Z" fill="#FF6551"/>
<path d="M99.6916 21.0022C99.6916 21.0022 96.6216 4.78222 79.2916 5.00222C72.0059 5.13993 64.8417 6.89434 58.3167 10.1387C51.7917 13.383 46.0688 18.0363 41.5616 23.7622C34.1116 33.0822 32.7916 54.3522 46.3916 65.5422C46.3916 65.5422 49.2416 52.7522 53.1916 46.9722C53.1916 46.9722 76.1916 58.1022 97.0616 39.9722C97.0616 40.0022 102.762 31.1122 99.6916 21.0022Z" fill="#672410"/>
<path d="M96.0122 30.7217C96.0122 30.7217 95.3522 41.0517 102.152 47.2617C108.952 53.4717 114.212 54.1317 114.212 54.1317C114.212 54.1317 117.942 64.2417 115.312 71.6917C119.109 67.967 122.025 63.4407 123.847 58.4438C125.669 53.447 126.35 48.106 125.842 42.8117C124.302 24.3017 112.842 16.6317 95.9922 16.8117L96.0122 30.7217Z" fill="#672410"/>
<path d="M45.9329 64.5323C45.735 64.5323 45.5424 64.4692 45.3829 64.3523C39.0029 59.7323 37.6429 49.6523 39.1229 41.7223C39.1758 41.4844 39.319 41.2763 39.5223 41.142C39.7257 41.0077 39.9733 40.9576 40.2129 41.0023C40.3355 41.0182 40.4537 41.0584 40.5606 41.1206C40.6675 41.1827 40.7609 41.2656 40.8354 41.3643C40.9099 41.463 40.964 41.5756 40.9944 41.6954C41.0249 41.8153 41.0312 41.94 41.0129 42.0623C39.6829 49.1823 40.8329 58.7223 46.5229 62.8423C46.724 62.9885 46.859 63.2084 46.8984 63.4539C46.9378 63.6994 46.8782 63.9506 46.7329 64.1523C46.6416 64.2771 46.5207 64.3773 46.381 64.4436C46.2413 64.51 46.0873 64.5404 45.9329 64.5323Z" fill="#772F1E"/>
<path d="M45.5516 60.3721C45.3371 60.3697 45.1299 60.294 44.9643 60.1575C44.7988 60.0211 44.6849 59.8322 44.6416 59.6221C42.3716 48.7121 43.0316 32.6221 52.3716 23.2721C54.8016 20.8321 57.8216 17.8021 61.7616 16.8621C61.8804 16.8339 62.0037 16.8293 62.1243 16.8487C62.2449 16.8681 62.3605 16.9111 62.4645 16.9751C62.5685 17.0392 62.6588 17.1231 62.7304 17.2221C62.802 17.3211 62.8533 17.4333 62.8816 17.5521C62.9098 17.6709 62.9144 17.7942 62.895 17.9148C62.8756 18.0354 62.8326 18.151 62.7685 18.255C62.7045 18.359 62.6205 18.4494 62.5215 18.5209C62.4225 18.5925 62.3104 18.6439 62.1916 18.6721C58.7716 19.4921 55.9516 22.3121 53.6916 24.5821C44.8716 33.4321 44.2916 48.7821 46.4716 59.2421C46.5221 59.4847 46.4748 59.7374 46.3399 59.9452C46.2051 60.1531 45.9937 60.2993 45.7516 60.3521L45.5516 60.3721Z" fill="#772F1E"/>
<path d="M49.4226 53.1421H49.2126C48.9757 53.0721 48.7732 52.9168 48.6439 52.7064C48.5147 52.4959 48.4679 52.245 48.5126 52.0021C50.2326 44.8121 54.3726 38.6121 57.7126 35.6621C62.0364 31.7195 67.4623 29.1932 73.2626 28.4221C73.5031 28.4023 73.7419 28.4768 73.9285 28.6298C74.1151 28.7828 74.2349 29.0024 74.2626 29.2421C74.285 29.4831 74.2115 29.7233 74.058 29.9105C73.9045 30.0976 73.6834 30.2168 73.4426 30.2421C68.0361 30.9746 62.9796 33.3319 58.9426 37.0021C55.8226 39.7621 51.9426 45.5921 50.3326 52.3921C50.2893 52.6022 50.1754 52.7911 50.0099 52.9275C49.8443 53.0639 49.6371 53.1397 49.4226 53.1421Z" fill="#772F1E"/>
<path d="M56.8917 46.4724C56.7429 46.4737 56.5961 46.4389 56.4637 46.371C56.3313 46.303 56.2174 46.204 56.1317 46.0824C56.06 45.9833 56.0085 45.871 55.9802 45.752C55.952 45.633 55.9475 45.5096 55.967 45.3888C55.9865 45.2681 56.0296 45.1523 56.0939 45.0483C56.1582 44.9442 56.2424 44.8539 56.3417 44.7824C60.7341 41.6291 65.6799 39.3292 70.9217 38.0024C71.0405 37.9722 71.1642 37.9657 71.2855 37.9833C71.4069 38.0008 71.5236 38.0422 71.629 38.1048C71.7344 38.1675 71.8264 38.2503 71.8998 38.3486C71.9732 38.4468 72.0265 38.5586 72.0567 38.6774C72.0869 38.7962 72.0934 38.9199 72.0758 39.0412C72.0582 39.1626 72.0169 39.2793 71.9543 39.3847C71.8916 39.4901 71.8088 39.5821 71.7105 39.6555C71.6123 39.7289 71.5005 39.7822 71.3817 39.8124C66.3672 41.0754 61.6349 43.2702 57.4317 46.2824C57.2772 46.4028 57.0876 46.4695 56.8917 46.4724Z" fill="#772F1E"/>
<path d="M65.7113 46.8217C65.4731 46.822 65.2438 46.7309 65.0708 46.5672C64.8977 46.4035 64.7941 46.1796 64.7813 45.9417C64.7732 45.8182 64.7895 45.6943 64.8294 45.5771C64.8693 45.46 64.9319 45.3518 65.0136 45.2589C65.0954 45.166 65.1947 45.0901 65.3058 45.0357C65.417 44.9813 65.5378 44.9493 65.6613 44.9417C69.1143 44.8284 72.5507 44.4135 75.9313 43.7017C80.2213 42.6761 84.2237 40.6933 87.6388 37.9017C91.0538 35.1101 93.793 31.582 95.6513 27.5817C95.7548 27.3576 95.943 27.1837 96.1746 27.0984C96.4062 27.0131 96.6622 27.0232 96.8863 27.1267C97.1104 27.2301 97.2843 27.4183 97.3696 27.6499C97.4549 27.8815 97.4448 28.1376 97.3413 28.3617C95.3664 32.6238 92.4505 36.3824 88.8131 39.3547C85.1757 42.327 80.9114 44.4356 76.3413 45.5217C72.856 46.2612 69.3123 46.6929 65.7513 46.8117L65.7113 46.8217Z" fill="#772F1E"/>
<path d="M116.272 56.4224C116.094 56.4235 115.919 56.3732 115.768 56.2774C115.617 56.1816 115.497 56.0445 115.422 55.8824C114.102 53.0024 112.172 51.6624 109.732 50.0024C109.032 49.5224 108.292 49.0024 107.542 48.4724C105.542 47.0124 103.212 44.6124 103.102 41.4724C103.097 41.347 103.117 41.2218 103.16 41.1039C103.203 40.986 103.269 40.8778 103.354 40.7854C103.439 40.693 103.541 40.6183 103.655 40.5654C103.769 40.5126 103.892 40.4827 104.017 40.4774C104.143 40.4721 104.268 40.4916 104.386 40.5348C104.504 40.5779 104.612 40.6439 104.704 40.7288C104.797 40.8138 104.872 40.9161 104.924 41.03C104.977 41.1438 105.007 41.267 105.012 41.3924C105.102 43.8124 107.012 45.7724 108.702 46.9824C109.432 47.5224 110.142 47.9824 110.832 48.4724C113.302 50.1424 115.632 51.7224 117.172 55.1124C117.222 55.224 117.25 55.3444 117.253 55.4666C117.257 55.5889 117.236 55.7106 117.193 55.8249C117.149 55.9392 117.083 56.0437 116.999 56.1325C116.915 56.2213 116.814 56.2926 116.702 56.3424C116.569 56.4066 116.42 56.4342 116.272 56.4224Z" fill="#772F1E"/>
<path d="M120.012 65.3619H119.842C119.599 65.3181 119.384 65.1797 119.244 64.9772C119.103 64.7746 119.048 64.5245 119.092 64.2819C120.432 56.7019 119.472 46.4819 112.782 40.5119C112.599 40.3454 112.489 40.1134 112.476 39.8663C112.463 39.6191 112.548 39.3768 112.712 39.1919C112.874 39.0095 113.101 38.898 113.344 38.8811C113.587 38.8643 113.827 38.9436 114.012 39.1019C121.272 45.5719 122.342 56.5119 120.912 64.5919C120.875 64.8048 120.765 64.9982 120.601 65.1387C120.436 65.2792 120.228 65.3581 120.012 65.3619Z" fill="#772F1E"/>
<g style="mix-blend-mode:screen" opacity="0.27">
<path d="M125.792 42.8117C124.332 25.1717 113.862 17.3817 98.2722 16.8717C96.1022 12.0817 90.8922 4.87173 79.2722 5.00173C71.9899 5.14239 64.8296 6.89821 58.3083 10.1424C51.787 13.3867 46.0673 18.0384 41.5622 23.7617C35.0822 31.8617 33.2422 49.0117 41.8222 60.7017C39.2622 53.4517 38.3122 45.2317 40.4522 38.0017C43.4522 28.0017 51.2922 19.6317 60.6022 15.1617C70.8522 10.2417 83.2322 12.6517 91.8922 19.8717C91.408 17.3658 90.4764 14.9675 89.1422 12.7917C92.3209 15.5483 94.8309 18.9919 96.4822 22.8617L97.6822 19.5117C97.9422 20.5117 98.1922 21.4517 98.4422 22.4217C102.358 21.6427 106.404 21.8107 110.242 22.9117L102.932 25.3317C106.152 24.2717 111.392 26.0417 114.032 27.7717C117.339 30.1109 120.018 33.2297 121.832 36.8517C123.699 40.2443 125.067 43.8885 125.892 47.6717C125.957 46.0512 125.923 44.4282 125.792 42.8117Z" fill="#772F1E"/>
</g>
<path d="M26.5605 112.602C26.5605 112.602 33.4405 109.132 31.6805 99.0322C31.6805 99.0322 66.7405 105.872 79.6805 122.952C79.6805 122.952 99.1205 108.952 131.411 102.812C131.411 102.812 130.881 111.352 136.181 115.092L84.3806 144.682L26.5605 112.602Z" fill="#FFEBDD"/>
<g style="mix-blend-mode:multiply" opacity="0.41">
<path d="M65.3405 134.112L113.431 128.112L136.151 115.112C134.312 113.729 132.969 111.79 132.321 109.582L90.5905 120.792C90.5905 120.792 86.0305 125.262 80.6605 125.602C79.2179 125.765 77.7593 125.496 76.4701 124.828C75.1809 124.161 74.1194 123.125 73.4205 121.852L30.0905 109.122C29.217 110.554 28.0047 111.749 26.5605 112.602L65.3405 134.112Z" fill="#E79E82"/>
</g>
<g style="mix-blend-mode:multiply" opacity="0.41">
<path d="M64.2718 116.551C64.2718 116.551 46.1618 107.551 31.8618 104.021C31.7667 104.83 31.5925 105.627 31.3418 106.401C42.5414 109.014 53.5448 112.406 64.2718 116.551Z" fill="#E79E82"/>
</g>
<g style="mix-blend-mode:multiply" opacity="0.41">
<path d="M104.381 114.672C104.381 114.672 121.541 109.672 131.891 108.002C131.69 107.153 131.55 106.291 131.471 105.422C125.271 107.232 112.011 111.262 104.381 114.672Z" fill="#E79E82"/>
</g>
<g style="mix-blend-mode:multiply" opacity="0.41">
<path d="M131.382 102.812C99.0916 109.002 79.6516 123.002 79.6516 123.002C66.7416 105.872 31.6816 99.002 31.6816 99.002C31.8016 99.702 31.8716 100.362 31.9216 101.002C39.4516 102.302 63.7716 107.602 79.9216 123.942C79.9216 123.942 104.742 108.142 131.392 104.102C131.352 103.322 131.382 102.812 131.382 102.812Z" fill="#E79E82"/>
</g>
<path d="M22.1211 112.602L24.1211 109.992L72.1511 123.102C72.1511 123.102 74.5611 127.152 81.0511 127.152C85.3311 127.152 90.3811 122.952 90.3811 122.952L137.741 109.952L139.271 112.562L86.2111 139.082L22.1211 112.602Z" fill="#B695F7"/>
<path d="M30.8009 160.482L22.1309 112.602L71.5009 126.562L75.5009 174.162L30.8009 160.482Z" fill="#864FF1"/>
<path d="M89.3809 126.562L139.271 112.602L131.971 161.892L90.5909 173.072L89.3809 126.562Z" fill="#864FF1"/>
<path d="M71.5 126.562C74.1097 128.423 77.2349 129.423 80.44 129.423C83.6451 129.423 86.7703 128.423 89.38 126.562L90.59 173.073C90.59 173.073 84.38 181.373 75.5 174.163L71.5 126.562Z" fill="#864FF1"/>
<path d="M71.5 126.562C74.1097 128.423 77.2349 129.423 80.44 129.423C83.6451 129.423 86.7703 128.423 89.38 126.562L90.59 173.073C90.59 173.073 89.59 176.813 83.23 177.073C81.02 177.173 78.41 176.503 75.5 174.143L71.5 126.562Z" fill="#864FF1"/>
<g style="mix-blend-mode:multiply" opacity="0.37">
<path d="M71.5 126.562C74.1097 128.423 77.2349 129.423 80.44 129.423C83.6451 129.423 86.7703 128.423 89.38 126.562L90.59 173.073C90.59 173.073 89.59 176.813 83.23 177.073C81.02 177.173 78.41 176.503 75.5 174.143L71.5 126.562Z" fill="#8E487A"/>
</g>
<g style="mix-blend-mode:multiply" opacity="0.13">
<path d="M30.8017 160.482L75.5017 174.162L72.4317 137.572C71.4317 144.322 69.6517 153.572 67.2717 157.052C63.3517 162.692 53.1917 167.282 37.9317 156.342C34.2317 153.692 30.9317 149.672 28.0117 145.122L30.8017 160.482Z" fill="#8E487A"/>
</g>
<g style="mix-blend-mode:multiply" opacity="0.13">
<path d="M125.521 153.732C113.121 162.042 99.081 155.922 89.791 142.072L90.591 173.072L132.011 161.892L135.011 141.652C132.691 146.542 129.631 151.002 125.521 153.732Z" fill="#8E487A"/>
</g>
<g style="mix-blend-mode:multiply" opacity="0.37">
<path d="M72.1816 134.572C72.1816 134.572 81.0616 139.282 89.5916 134.572L89.7116 139.082C89.7116 139.082 83.3116 144.432 72.5516 139.082L72.1816 134.572Z" fill="#8E487A"/>
</g>
<g style="mix-blend-mode:multiply" opacity="0.37">
<path d="M74.6914 164.542C77.1254 165.76 79.8097 166.394 82.5314 166.394C85.2531 166.394 87.9374 165.76 90.3714 164.542L90.5014 169.542C88.2008 170.998 85.5341 171.771 82.8114 171.771C80.0888 171.771 77.422 170.998 75.1214 169.542L74.6914 164.542Z" fill="#8E487A"/>
</g>
<path d="M138.652 127.903C138.652 127.903 136.252 125.353 134.592 125.623C132.932 125.893 134.652 128.423 136.202 129.723C136.202 129.723 130.072 128.123 129.822 129.453C129.572 130.783 135.002 132.753 135.002 132.753C135.002 132.753 129.192 132.093 129.612 133.653C130.032 135.213 134.922 135.853 134.922 135.853C134.922 135.853 129.472 135.613 129.502 136.853C129.532 138.093 134.192 139.183 136.822 137.853C137.821 137.337 138.662 136.559 139.253 135.603C139.845 134.646 140.166 133.547 140.182 132.423C140.268 131.603 140.176 130.775 139.912 129.995C139.648 129.215 139.218 128.501 138.652 127.903Z" fill="#FFBF94"/>
<path d="M23.5925 127.903C23.5925 127.903 25.9925 125.353 27.6525 125.623C29.3125 125.893 27.5925 128.423 26.0425 129.723C26.0425 129.723 32.1725 128.123 32.4225 129.453C32.6725 130.783 27.2425 132.753 27.2425 132.753C27.2425 132.753 33.0525 132.093 32.6325 133.653C32.2125 135.213 27.3225 135.853 27.3225 135.853C27.3225 135.853 32.7725 135.613 32.7425 136.853C32.7125 138.093 28.0525 139.183 25.4225 137.853C24.4233 137.337 23.5829 136.559 22.9911 135.603C22.3994 134.646 22.0784 133.547 22.0625 132.423C21.9764 131.603 22.0686 130.775 22.3327 129.995C22.5968 129.215 23.0266 128.501 23.5925 127.903Z" fill="#FFBF94"/>
<path d="M103.594 66.133C103.512 65.0825 103.131 64.0773 102.497 63.2357C101.863 62.3942 101.001 61.7514 100.014 61.383C97.284 60.493 93.754 61.853 92.864 64.533C92.6976 64.8159 92.5666 65.1182 92.474 65.433C91.044 70.123 96.914 72.093 100.474 70.723C101.43 70.4138 102.256 69.7946 102.821 68.9633C103.387 68.132 103.658 67.1361 103.594 66.133Z" fill="#2D2D2D"/>
<path d="M68.8237 64.3135L68.5837 64.0035C67.904 63.3547 67.0673 62.8936 66.1557 62.6657C65.2441 62.4378 64.2888 62.4508 63.3837 62.7035C62.4251 62.9065 61.5423 63.3737 60.8354 64.0524C60.1285 64.731 59.6257 65.5939 59.3837 66.5435C58.9337 68.5435 59.3137 70.8535 61.2337 71.9835C64.4337 73.8835 70.5737 71.8235 70.4937 67.6035C70.4805 66.9649 70.3235 66.3374 70.0344 65.7679C69.7452 65.1983 69.3314 64.7012 68.8237 64.3135Z" fill="#2D2D2D"/>
<path d="M95.9439 67.4432C95.8582 67.6705 95.8202 67.9129 95.8323 68.1555C95.8443 68.3981 95.9061 68.6356 96.0139 68.8532C96.0771 69.2177 96.2718 69.5463 96.5612 69.7768C96.8506 70.0072 97.2145 70.1233 97.5839 70.1032C98.028 70.0837 98.4529 69.9167 98.7915 69.6288C99.1301 69.3409 99.3632 68.9484 99.4539 68.5132C99.8639 66.4432 96.7239 65.4132 95.9439 67.4432Z" fill="white"/>
<path d="M67.0127 67.9426C67.166 68.1327 67.2773 68.353 67.3394 68.5891C67.4014 68.8252 67.4128 69.0718 67.3727 69.3126C67.4255 69.6869 67.3369 70.0674 67.1243 70.3798C66.9116 70.6923 66.5902 70.9143 66.2227 71.0026C65.787 71.1157 65.3259 71.0785 64.914 70.897C64.5021 70.7156 64.1634 70.4004 63.9527 70.0026C62.9327 68.1826 65.6127 66.2526 67.0127 67.9426Z" fill="white"/>
</svg>
