<svg width="170" height="220" viewBox="0 0 170 220" fill="none" xmlns="http://www.w3.org/2000/svg">
<path d="M128.116 162.673C116.512 160.955 104.731 160.77 93.0787 162.122C74.1685 164.394 94.8305 187.753 94.8305 187.753L128.116 162.673Z" fill="#12296B"/>
<path d="M84.3602 114.725C79.678 114.745 75.0587 115.805 70.8358 117.827C64.2088 121.14 47.8813 136.422 46.0994 150.333C44.3175 164.244 67.5523 166.526 67.5523 166.526L71.8569 162.223C71.8569 162.223 59.3636 158.49 60.1244 148.742C60.8852 138.994 79.0045 131.098 79.0045 131.098L84.3602 114.725Z" fill="#FF6551"/>
<path d="M88.0739 111.751C81.8252 112.204 75.9449 114.877 71.4962 119.288C64.3486 126.593 64.6089 152.584 65.8802 166.876C65.8802 166.876 80.8962 180.887 105.342 174.012C105.342 174.012 109.757 138.123 111.799 132.228C113.841 126.333 111.679 119.358 111.679 119.358C111.679 119.358 108.225 109.41 88.0739 111.751Z" fill="#FFC652"/>
<path d="M106.293 114.014C103.63 116.786 102.859 119.858 101.838 123.391C100.555 127.155 100.008 131.13 100.227 135.101C100.647 141.636 100.116 147.901 94.4003 152.114C89.3049 155.857 79.9249 152.615 75.8005 148.632C73.3779 146.3 72.0365 143.087 70.9053 139.925C69.7669 136.838 69.0922 133.601 68.9031 130.317C68.773 127.835 68.9932 122.591 70.5048 120.509C64.3283 129.066 64.6186 153.315 65.8298 166.946C65.8298 166.946 80.8459 180.957 105.292 174.082C105.292 174.082 109.707 138.193 111.749 132.298C113.791 126.404 111.629 119.428 111.629 119.428C111.629 119.428 110.618 116.336 106.293 114.014Z" fill="#F7A845"/>
<path d="M52.875 164.595C52.875 164.595 44.9566 174.432 50.3123 181.608C55.668 188.784 73.2368 195.369 82.1863 193.738C91.1358 192.107 107.213 175.093 107.213 175.093L105.942 163.354L52.875 164.595Z" fill="#12296B"/>
<path d="M63.4785 86.061C62.988 86.5815 62.4774 87.0619 61.9369 87.6123C60.4052 89.0535 58.6634 90.2444 56.6212 90.2644C55.0757 90.242 53.5604 89.8326 52.2139 89.0739C50.8674 88.3151 49.7325 87.2311 48.913 85.9209C48.2287 84.5253 47.9911 82.9528 48.2323 81.4173C48.3313 80.6976 48.492 79.9878 48.7128 79.2956C49.0128 78.2857 49.4834 77.3346 50.1042 76.4833C52.8171 72.8905 57.1117 73.7912 60.8057 74.9121L63.4785 86.061Z" fill="#FFBF94"/>
<g style="mix-blend-mode:multiply" opacity="0.31">
<path d="M57.3905 82.3682C55.3083 81.3673 54.3272 79.2556 53.8968 77.0739C53.8861 77.0247 53.859 76.9807 53.8198 76.9492C53.7806 76.9176 53.7319 76.9004 53.6816 76.9004C53.6313 76.9004 53.5825 76.9176 53.5433 76.9492C53.5042 76.9807 53.477 77.0247 53.4663 77.0739C53.0058 79.4558 54.4674 81.6676 56.3794 82.9486C55.8263 83.5381 55.3208 84.1706 54.8678 84.8401C54.2957 85.5288 53.9189 86.3583 53.7767 87.2421C53.7578 87.3733 53.7823 87.5071 53.8462 87.6232C53.9102 87.7393 54.0102 87.8315 54.1312 87.8857C54.2522 87.94 54.3875 87.9534 54.5168 87.9239C54.6461 87.8945 54.7623 87.8238 54.8478 87.7225C55.3118 87.0417 55.6885 86.3053 55.969 85.5307C56.4079 84.6799 56.9455 83.8838 57.5707 83.1588C57.619 83.0978 57.653 83.0267 57.6701 82.9508C57.6873 82.875 57.6872 82.7962 57.67 82.7203C57.6527 82.6445 57.6186 82.5735 57.5702 82.5125C57.5219 82.4516 57.4605 82.4022 57.3905 82.3682V82.3682Z" fill="#DD664A"/>
</g>
<g style="mix-blend-mode:multiply" opacity="0.12">
<path d="M61.9369 87.6223C60.4052 89.0635 58.6634 90.2545 56.6212 90.2745C55.0757 90.252 53.5604 89.8427 52.2139 89.0839C50.8674 88.3252 49.7325 87.2412 48.913 85.931C48.2287 84.5353 47.9911 82.9628 48.2323 81.4274C48.3313 80.7077 48.492 79.9978 48.7128 79.3057C49.0331 80.997 51.0352 87.6724 61.9369 87.6223Z" fill="#DD664A"/>
</g>
<path d="M98.9252 112.182C99.4257 115.535 96.4626 117.656 93.4394 118.457C90.9244 119.072 88.2713 118.744 85.9814 117.536C83.6289 116.245 81.3665 113.173 84.4698 111.281C85.5818 110.692 86.8156 110.37 88.0736 110.34C91.1393 110.09 94.2237 110.201 97.2634 110.671C97.7484 110.687 98.2109 110.879 98.5648 111.211C98.7681 111.497 98.8923 111.832 98.9252 112.182V112.182Z" fill="#FF6551"/>
<path d="M97.8441 103.845V110.641C97.8441 110.641 97.4336 114.844 92.3382 116.075C87.2428 117.306 84.9503 113.783 84.9503 113.783L84.8002 112.983L84.0694 110.08L83.0683 106.457C79.985 92.7062 94.6607 104.956 94.6607 104.956L95.6617 104.456L95.892 105.146L97.8441 103.845Z" fill="#EA9573"/>
<g style="mix-blend-mode:multiply" opacity="0.31">
<path d="M97.835 107.288V110.38C96.3447 111.95 94.4441 113.07 92.3491 113.613C89.816 114.02 87.2217 113.804 84.7911 112.983L84.0703 110.08L94.6816 104.956L95.953 105.146L97.835 107.288Z" fill="#DD664A"/>
</g>
<path d="M119.298 85.5306L119.228 85.9509C118.856 88.2363 118.108 90.4444 117.016 92.4861C115.474 95.1583 113.072 97.23 110.719 99.2416C106.699 102.862 102.408 106.171 97.8854 109.14C95.4628 110.641 92.8 111.982 89.9469 112.072C87.6254 112.019 85.338 111.502 83.2198 110.551C76.6956 108.01 70.5225 104.646 64.8502 100.543C62.9284 99.3061 61.2714 97.7004 59.975 95.8188C58.8515 93.7231 58.1476 91.4285 57.9028 89.0634C57.8027 88.4629 57.7126 87.8724 57.6225 87.282C55.8548 75.7523 55.2912 64.0701 55.9407 52.4239L56.0708 51.4231C55.0397 46.269 59.1941 41.4951 63.5688 38.5228C68.582 35.1525 74.2135 32.8088 80.138 31.627C86.0625 30.4451 92.1625 30.4486 98.0856 31.6372C103.251 32.6981 108.347 34.7597 112.181 38.3826C116.475 42.4459 118.858 48.1905 119.889 53.9952C120.92 59.7999 120.69 65.7647 120.459 71.6694C120.399 76.3113 120.011 80.9432 119.298 85.5306V85.5306Z" fill="#FFBF94"/>
<g style="mix-blend-mode:multiply" opacity="0.09">
<path d="M119.227 85.9509C118.854 88.2362 118.107 90.4444 117.014 92.4861C115.473 95.1583 113.07 97.2299 110.718 99.2415C106.697 102.862 102.407 106.171 97.884 109.139C95.4614 110.641 92.7986 111.982 89.9456 112.072C87.624 112.019 85.3366 111.502 83.2184 110.551C76.6942 108.01 70.5212 104.646 64.8488 100.543C62.9271 99.306 61.27 97.7004 59.9736 95.8188C58.8501 93.7231 58.1462 91.4284 57.9014 89.0634C57.8013 88.4629 57.7112 87.8724 57.6211 87.2819C57.9314 87.4621 59.0526 86.9817 59.4631 87.6322C64.2381 95.2183 78.6535 105.286 90.2459 105.537C101.838 105.787 117.685 85.5205 117.685 85.5205L119.227 85.9509Z" fill="#DD664A"/>
</g>
<g style="mix-blend-mode:multiply" opacity="0.31">
<path d="M58.4127 70.0484L58.6529 72.9407C58.6529 72.9407 65.1098 62.5824 64.0487 54.3258C64.0487 54.3258 70.2153 60.1705 81.6975 61.0412C93.1797 61.9119 99.086 57.5384 99.086 57.5384C99.086 57.5384 95.5122 55.3566 94.2609 53.0347C94.2609 53.0347 104.342 55.6268 109.717 51.3234C109.717 51.3234 108.716 57.4583 114.142 63.9835C119.568 70.5088 120.219 73.0508 120.219 73.0508L119.748 53.0347L109.958 37.8125L91.2176 38.8133L65.8506 44.9382L59.664 45.2385C59.664 45.2385 57.5217 51.5135 57.4817 52.7945C57.4416 54.0756 58.4127 70.0484 58.4127 70.0484Z" fill="#DD664A"/>
</g>
<path d="M56.5 77.3942C55.5256 75.1657 54.5779 72.9239 53.6569 70.6688L53.3566 69.9282C50.864 63.6732 48.7317 57.0378 49.5325 50.3825C49.9147 47.3058 51.0342 44.3669 52.796 41.8156C53.3343 41.0241 53.9442 40.2838 54.618 39.6038C56.622 37.4502 59.2968 36.0391 62.2061 35.6006L62.2661 35.8808C60.4642 40.2844 60.5343 45.0182 60.8646 49.812C61.2685 53.6146 61.449 57.4375 61.4052 61.2612C61.1427 66.9639 59.4563 72.5101 56.5 77.3942V77.3942Z" fill="#661E08"/>
<path d="M125.494 85.7612C122.946 86.5782 120.199 86.5254 117.685 85.6111V85.6111C117.062 85.3938 116.453 85.1364 115.863 84.8405L118.406 75.5931C119.787 72.5906 123.191 70.3789 126.415 71.0694C128.025 71.4543 129.425 72.4478 130.319 73.8416C131.25 75.228 131.678 76.8919 131.53 78.5554C131.285 80.1957 130.592 81.7365 129.526 83.0079C128.461 84.2794 127.066 85.2321 125.494 85.7612Z" fill="#FFBF94"/>
<path d="M124.693 65.5742C123.665 68.6918 122.217 71.6548 120.389 74.3813C120.068 70.1679 117.476 66.545 115.634 62.742C115.073 61.6083 114.582 60.442 114.162 59.2492C112.71 55.1597 112.032 50.8363 112.16 46.4989L119.988 39.2931L120.659 38.6826L121.149 38.8728C123.702 39.9937 124.994 43.0061 125.644 45.7683C127.145 52.333 126.816 59.1835 124.693 65.5742V65.5742Z" fill="#661E08"/>
<g style="mix-blend-mode:multiply" opacity="0.32">
<path d="M124.693 65.5748C125.324 59.0095 125.694 48.5611 120.879 50.2324C116.064 51.9038 114.663 56.5175 114.162 59.2397C112.71 55.1502 112.032 50.8268 112.16 46.4894L119.988 39.2836L121.149 38.8633C123.702 39.9842 124.994 42.9966 125.644 45.7588C127.147 52.3267 126.818 59.1809 124.693 65.5748V65.5748Z" fill="#661E08"/>
</g>
<g style="mix-blend-mode:multiply" opacity="0.31">
<path d="M123.111 78.8055C125.113 77.5846 126.835 75.3628 126.525 72.9608C126.525 72.8307 126.305 72.7807 126.255 72.9608C125.374 75.2127 124.403 77.2143 122.09 78.2951C122.012 78.3284 121.943 78.3812 121.891 78.4484C121.838 78.5156 121.804 78.5951 121.791 78.6792C121.778 78.7634 121.787 78.8496 121.816 78.9295C121.846 79.0094 121.895 79.0804 121.96 79.1358C122.644 79.7164 123.177 80.455 123.512 81.2875C123.659 81.978 123.93 82.6359 124.313 83.2291C124.335 83.2564 124.363 83.2783 124.395 83.2934C124.427 83.3085 124.462 83.3163 124.498 83.3163C124.533 83.3163 124.568 83.3085 124.6 83.2934C124.632 83.2783 124.66 83.2564 124.683 83.2291C125.564 81.818 124.232 79.9164 123.111 78.8055Z" fill="#DD664A"/>
</g>
<path d="M124.552 42.2359C120.888 45.0982 116.704 47.5102 112.099 48.1407C107.494 48.7712 102.409 47.31 99.5656 43.637C100.185 46.7941 102.027 49.5786 104.691 51.3833C101.876 52.4023 98.8164 52.5362 95.923 51.767C93.0296 50.9978 90.4407 49.3622 88.5038 47.0798C88.8688 49.1811 89.684 51.1786 90.8935 52.9354C92.1031 54.6923 93.6783 56.1668 95.5112 57.258C91.6819 58.7093 87.5798 59.2994 83.4966 58.9863C79.4133 58.6732 75.4492 57.4646 71.886 55.4465C68.0019 53.2047 64.2779 49.8921 59.7931 50.0122L57.9512 46.6495L54.4975 40.3644C54.3967 39.1121 54.3967 37.8537 54.4975 36.6014C55.7989 22.2799 70.4145 16.8655 80.4151 16.5853C98.7947 16.1049 104.521 20.7787 110.447 19.3875C112.242 18.9837 113.998 18.421 115.693 17.7062C119.708 16.0877 123.219 13.4275 125.864 10C126.244 14.5677 125.209 19.1419 122.899 23.1008C120.588 27.0598 117.115 30.2116 112.95 32.1278C117.614 33.2997 122.533 32.9239 126.965 31.0569C129.901 29.8585 132.539 28.0308 134.693 25.7026C134.563 32.388 129.828 38.1326 124.552 42.2359Z" fill="#661E08"/>
<path d="M56.5008 77.3939C55.5265 75.1654 54.5788 72.9236 53.6578 70.6685L53.3575 69.9279C61.9066 62.632 52.7969 41.8153 52.7969 41.8153C53.3352 41.0238 53.9451 40.2835 54.6188 39.6035C57.2671 42.6409 59.3794 46.1064 60.8655 49.8518C61.2693 53.6543 61.4498 57.4773 61.4061 61.301C61.1369 66.9899 59.4508 72.5216 56.5008 77.3939V77.3939Z" fill="#551107"/>
<path d="M124.553 42.2354C120.889 45.0977 116.705 47.5097 112.1 48.1402C107.495 48.7707 102.409 47.3095 99.5662 43.6366C100.185 46.7937 102.028 49.5781 104.692 51.3828C101.877 52.4019 98.8171 52.5358 95.9237 51.7665C93.0302 50.9973 90.4414 49.3618 88.5044 47.0793C88.8695 49.1806 89.6847 51.1782 90.8942 52.935C92.1038 54.6918 93.679 56.1663 95.5119 57.2575C91.6826 58.7088 87.5805 59.2989 83.4973 58.9858C79.414 58.6727 75.4499 57.4642 71.8867 55.4461C68.3229 53.4445 64.8793 50.442 60.875 50.0517C60.875 49.9817 60.875 49.9216 60.875 49.8516C60.1642 48.0644 59.3105 46.3375 58.3223 44.6874C64.6129 46.605 70.6936 49.1533 76.4716 52.2935C84.7504 57.0173 86.7025 49.9016 80.7662 42.6458C74.8299 35.3899 89.2452 44.177 93.7801 44.7475C98.3149 45.3179 95.9123 37.5016 92.779 35.0597C89.6457 32.6177 106.654 46.1686 117.926 40.394C121.973 38.4917 125.18 35.1684 126.935 31.0565C129.872 29.858 132.51 28.0303 134.664 25.7021C134.564 32.3875 129.829 38.1321 124.553 42.2354Z" fill="#551107"/>
<g style="mix-blend-mode:screen" opacity="0.28">
<path d="M115.693 17.7065C115.623 17.8966 115.553 18.0868 115.473 18.2669C114.436 20.6984 112.797 22.8264 110.712 24.451C108.626 26.0756 106.162 27.1435 103.55 27.5544C99.4455 28.1649 95.251 27.094 91.1466 27.5544C90.1428 27.6021 89.1765 27.9509 88.3737 28.5552C87.2325 29.556 87.0423 31.4075 85.861 32.3983C85.2596 32.8053 84.5641 33.0521 83.8406 33.1151C83.1171 33.1782 82.3894 33.0555 81.7266 32.7586C80.3551 32.2682 79.1338 31.4475 77.7223 30.9972C77.0494 30.7197 76.3136 30.6308 75.5939 30.7402C74.8743 30.8495 74.1981 31.1529 73.638 31.6177C72.0162 33.269 73.1074 36.1413 72.2465 38.293C71.5057 40.1445 69.4335 41.1253 67.4514 41.4356C62.6863 42.2162 57.8712 40.0444 54.4375 36.5216C55.7389 22.2001 70.3545 16.7857 80.3551 16.5055C98.7347 16.0251 104.461 20.6989 110.387 19.3078C112.2 18.9333 113.976 18.3974 115.693 17.7065V17.7065Z" fill="#661E08"/>
</g>
<g style="mix-blend-mode:multiply" opacity="0.12">
<path d="M125.494 85.7614C122.946 86.5784 120.2 86.5255 117.686 85.6113C129.068 84.6105 130.339 73.8418 130.339 73.8418C131.271 75.2281 131.698 76.892 131.55 78.5556C131.304 80.1982 130.607 81.7406 129.538 83.0122C128.47 84.2839 127.07 85.2354 125.494 85.7614Z" fill="#DD664A"/>
</g>
<path d="M69.4438 64.3833C69.3641 64.2104 69.2397 64.0618 69.0834 63.953C68.8891 63.8498 68.6728 63.7949 68.4528 63.7928C67.0813 63.7328 65.6698 64.6535 64.5186 65.304C63.0647 66.0646 61.8176 67.1671 60.8847 68.5166C60.3541 69.3673 59.6934 70.9086 60.9648 71.459C62.3963 72.0495 64.0481 70.7885 65.1492 70.0479C66.6608 68.947 70.0445 67.0454 69.5639 64.7936C69.5368 64.6534 69.4966 64.516 69.4438 64.3833V64.3833Z" fill="#661E08"/>
<path d="M108.316 66.3955C107.625 64.8643 105.382 63.9936 103.891 63.6033C101.629 62.9007 99.1855 63.0831 97.0536 64.1137C96.7624 64.2445 96.5179 64.461 96.3528 64.7342C96.2707 64.9401 96.2487 65.1651 96.2895 65.383C96.3302 65.6009 96.432 65.8028 96.5831 65.9651C96.8918 66.2821 97.2635 66.5309 97.6742 66.6957C99.0097 67.2842 100.384 67.7791 101.789 68.1769C103.078 68.6337 104.427 68.9001 105.793 68.9676C107.214 68.9776 109.096 68.0468 108.316 66.3955Z" fill="#661E08"/>
<path d="M93.5987 98.2212C92.9979 99.2587 92.1679 100.145 91.172 100.813C90.1761 101.481 89.0407 101.912 87.8526 102.074C86.6158 102.294 85.3456 102.237 84.1337 101.907C82.9218 101.576 81.7986 100.98 80.8451 100.163V100.163C79.4079 98.9158 78.2338 97.395 77.3914 95.6891C77.1043 95.1665 76.8534 94.6248 76.6406 94.0678C76.9009 94.0678 88.263 95.8492 95.3005 90.9053C95.3338 91.7814 95.2903 92.6588 95.1704 93.5274C94.9602 95.1801 94.4262 96.7751 93.5987 98.2212V98.2212Z" fill="#AA2626"/>
<path d="M95.1704 93.4874C92.809 95.3485 89.9781 96.5194 86.9917 96.8701C83.7369 97.2068 80.448 96.8031 77.3714 95.6891C77.0911 95.166 76.8469 94.6243 76.6406 94.0678C76.9009 94.0678 88.263 95.8492 95.3005 90.9053C95.3315 91.7681 95.2879 92.632 95.1704 93.4874V93.4874Z" fill="white"/>
<path d="M93.5993 98.2212C92.9985 99.2588 92.1685 100.145 91.1726 100.813C90.1767 101.481 89.0413 101.912 87.8532 102.074C86.6164 102.295 85.3462 102.237 84.1343 101.907C82.9224 101.576 81.7992 100.98 80.8457 100.163V100.163C81.7767 99.6346 82.8071 99.3049 83.8719 99.1947C84.9367 99.0845 86.0128 99.196 87.0323 99.5223C87.0323 99.5223 87.9533 97.5907 93.5993 98.2212Z" fill="#FF6551"/>
<path d="M83.6797 104.426C84.3179 105.036 85.0921 105.484 85.9381 105.735C86.7842 105.985 87.6777 106.031 88.5449 105.867C89.4659 105.677 91.6382 104.717 91.3779 103.496C91.3729 103.46 91.3546 103.428 91.3267 103.406C91.2988 103.383 91.2634 103.373 91.2278 103.375C90.7573 103.486 90.6371 103.786 90.2267 104.106C89.6496 104.58 88.96 104.897 88.2246 105.027C86.7024 105.242 85.1545 104.885 83.8799 104.026C83.6196 103.856 83.3894 104.276 83.5996 104.466L83.6797 104.426Z" fill="#DD664A"/>
<g style="mix-blend-mode:multiply" opacity="0.12">
<path d="M89.5459 83.3787C89.255 82.917 88.8703 82.5217 88.4167 82.2182C87.9632 81.9148 87.4509 81.71 86.9131 81.6173C85.8357 81.4334 84.7299 81.5124 83.6896 81.8474C82.2581 82.2678 80.8566 83.0084 80.4161 84.5396C80.304 84.8638 80.304 85.2162 80.4161 85.5404C80.4857 85.7617 80.6379 85.9477 80.8412 86.0595C81.0445 86.1714 81.2831 86.2005 81.5073 86.1409C81.7257 86.038 81.9253 85.8993 82.0979 85.7306C83.1142 85.0266 84.3552 84.7236 85.5816 84.8799C86.7985 85.0376 88.033 84.9936 89.2355 84.7498C89.3433 84.7216 89.445 84.6741 89.5359 84.6097C89.8762 84.3094 89.7661 83.759 89.5459 83.3787Z" fill="#DD664A"/>
</g>
<path d="M89.2752 86.3711C88.7246 85.1001 86.0918 85.5104 85.0006 85.7006C84.233 85.7602 83.4865 85.9798 82.8089 86.3452C82.1313 86.7106 81.5378 87.2138 81.0664 87.8223C81.0664 87.8223 81.0664 87.9524 81.1565 87.9424C82.568 87.7022 83.8494 87.0317 85.3009 86.8715C86.0981 86.7897 86.9025 86.8133 87.6935 86.9416C88.2841 87.0517 88.6145 87.2318 89.115 86.8315C89.19 86.7843 89.2467 86.7131 89.2758 86.6294C89.3049 86.5457 89.3047 86.4547 89.2752 86.3711V86.3711Z" fill="#DD664A"/>
<path d="M82.1689 188.914C82.1689 188.914 70.2762 192.917 65.5411 193.698C60.8061 194.479 54.0389 197.771 57.2823 201.154C60.5258 204.537 64.46 205.738 70.3863 204.046C76.3126 202.355 86.7838 193.658 86.7838 193.658L82.1689 188.914Z" fill="#FF6551"/>
<path d="M82.1672 188.914C82.1672 188.914 75.9405 191.026 70.705 192.477C70.2645 192.597 69.5537 195.539 69.3735 196.02C69.0997 196.981 68.6101 197.868 67.942 198.612C67.1494 199.434 66.1784 200.063 65.1039 200.45C64.0294 200.837 62.8803 200.972 61.7454 200.844C60.7291 200.669 59.7881 200.195 59.0425 199.483C58.7622 199.192 57.3707 197.271 57.8512 196.86C56.3697 198.121 55.7991 199.613 57.2506 201.114C60.4841 204.467 64.4283 205.698 70.3546 204.006C76.2809 202.315 86.7521 193.618 86.7521 193.618L82.1672 188.914Z" fill="#E1574C"/>
<path d="M78.3438 188.854C78.3438 188.854 105.262 169.268 119.868 164.024C134.474 158.78 137.577 169.268 133.743 176.935C129.909 184.601 115.313 189.635 110.098 190.826C104.882 192.017 87.3634 197.301 87.3634 197.301C87.3634 197.301 80.8364 196.751 78.3438 188.854Z" fill="#243976"/>
<path d="M133.002 164.814C137.126 187.743 99.6966 184.941 80.5762 193.217C82.2053 195.403 84.6219 196.867 87.3134 197.301C87.3134 197.301 104.782 192.026 110.048 190.825C115.313 189.624 129.919 184.61 133.743 176.934C135.845 172.721 135.855 167.657 133.002 164.814Z" fill="#12296B"/>
<path d="M80.3755 188.914C81.0963 189.394 89.9457 190.595 98.0844 192.987C106.223 195.379 107.414 197.991 105.743 200.643C104.816 202.216 103.483 203.511 101.884 204.392C100.285 205.272 98.4778 205.706 96.6529 205.648C92.3383 205.407 80.4956 199.423 77.3223 195.84L80.3755 188.914Z" fill="#FF6551"/>
<path d="M100.817 193.888C102.339 196.75 102.709 199.762 99.0955 200.973C90.9668 203.405 84.1596 198.591 78.1331 193.968L77.3223 195.819C80.4956 199.402 92.3383 205.387 96.6529 205.627C98.4778 205.685 100.285 205.252 101.884 204.371C103.483 203.491 104.816 202.196 105.743 200.623C107.204 198.341 106.473 196.029 100.817 193.888Z" fill="#E1574C"/>
<path d="M39.9329 162.603C39.9329 162.603 32.515 164.504 31.0735 168.468C29.6319 172.431 32.0745 177.935 38.9719 183.67C45.8692 189.405 73.0082 198.302 79.1747 199.473C80.9394 198.121 82.2978 196.309 83.1012 194.237C83.9046 192.164 84.122 189.911 83.7296 187.723C83.7296 187.723 67.212 177.195 59.5538 171.71C51.8957 166.226 45.3186 161.902 39.9329 162.603Z" fill="#243976"/>
<path d="M53.0352 179.957C58.9114 179.116 64.0469 178.295 69.723 178.635C65.969 176.143 62.215 173.631 59.5421 171.69C51.8839 166.185 45.3069 161.902 39.9212 162.603C39.9212 162.603 32.5033 164.504 31.0617 168.467C29.6202 172.43 32.0628 177.935 38.9602 183.67C45.8575 189.404 72.9965 198.301 79.163 199.472C80.5909 198.376 81.7542 196.974 82.5668 195.368C83.3795 193.762 83.8208 191.994 83.858 190.195C73.2968 193.297 56.659 189.885 53.0352 179.957Z" fill="#12296B"/>
<path d="M107.003 163.354H46.9392L36.418 173.241L93.8292 175.683L107.003 163.354Z" fill="#49A4F7"/>
<path d="M84.7202 161.242C83.9781 161.647 83.3028 162.163 82.718 162.773C82.5987 162.879 82.5236 163.025 82.5078 163.184C82.5078 163.584 83.0784 163.674 83.5089 163.614L86.6622 163.124C85.932 163.239 85.2343 163.507 84.6149 163.91C83.9956 164.314 83.4685 164.844 83.0684 165.465C83.8374 165.697 84.65 165.745 85.4409 165.606C84.973 165.976 84.4777 166.311 83.9594 166.606C88.334 169.549 97.1835 166.306 101.038 163.604C102.079 162.991 102.881 162.041 103.31 160.912C104.772 155.748 94.0101 157.909 91.7977 158.53C89.3459 159.171 86.9723 160.08 84.7202 161.242Z" fill="#FFBF94"/>
<path d="M102.229 116.996C102.229 116.996 98.6549 121 102.229 129.526C105.802 138.053 108.736 139.614 108.736 145.539C108.736 151.464 97.834 156.818 97.834 156.818C97.834 156.818 102.129 161.152 99.6359 164.545C99.6359 164.545 114.652 162.843 119.577 152.415C126.755 137.403 111.929 117.327 111.929 117.327C111.929 117.327 107.094 111.222 102.229 116.996Z" fill="#FF6551"/>
<path d="M102.229 116.996C102.031 117.246 101.857 117.514 101.708 117.797C103.71 117.416 106.714 117.726 109.717 121.259C114.962 127.444 119.828 141.215 115.893 148.992C112.7 155.307 103.53 159.45 100.217 160.771C100.436 161.406 100.501 162.084 100.405 162.749C100.31 163.414 100.056 164.047 99.666 164.594C99.666 164.594 114.682 162.893 119.607 152.464C126.785 137.452 111.959 117.376 111.959 117.376C111.959 117.376 107.094 111.221 102.229 116.996Z" fill="#E1574C"/>
<path d="M20.0012 134.41L33.0852 177.245C33.3387 178.27 33.9295 179.181 34.7627 179.831C35.596 180.481 36.6234 180.832 37.6801 180.828L91.8679 180.427L107.244 169.949L106.974 163.354L93.1793 173.242L84.6402 130.908C84.4202 129.829 83.8289 128.862 82.9692 128.174C82.1095 127.487 81.0359 127.122 79.9351 127.145L25.8775 128.335C22.8343 128.406 19.9312 132.299 20.0012 134.41Z" fill="#3E8CE1"/>
<path d="M20.1418 136.001L29.5518 178.035C29.7985 179.063 30.386 179.976 31.2187 180.627C32.0513 181.278 33.0799 181.627 34.1367 181.618L88.9652 181.248C89.347 181.244 89.7233 181.156 90.0668 180.989C90.4102 180.823 90.7122 180.581 90.9509 180.283C91.1895 179.985 91.3588 179.638 91.4465 179.267C91.5342 178.895 91.5381 178.509 91.4578 178.135L82.1579 132.809C81.9379 131.73 81.3467 130.763 80.487 130.076C79.6273 129.388 78.5536 129.024 77.4529 129.046L24.5865 130.207C23.8858 130.223 23.1975 130.396 22.5725 130.713C21.9475 131.03 21.4016 131.483 20.9751 132.039C20.5486 132.595 20.2523 133.24 20.1081 133.926C19.9638 134.611 19.9754 135.321 20.1418 136.001V136.001Z" fill="#49A4F7"/>
<path d="M77.4529 129.016L24.5865 130.207C23.8858 130.223 23.1975 130.396 22.5725 130.713C21.9475 131.03 21.4016 131.483 20.9751 132.04C20.5486 132.596 20.2523 133.24 20.1081 133.926C19.9638 134.612 19.9754 135.321 20.1418 136.002L23.8557 152.625L80.6063 130.157C79.7296 129.405 78.608 128.999 77.4529 129.016Z" fill="#49B3F7"/>
<path d="M84.8011 145.699L27.7402 169.899L29.5622 178.025C29.8088 179.053 30.3964 179.966 31.229 180.617C32.0617 181.267 33.0903 181.617 34.1471 181.608H38.2815L87.1336 157.038L84.8011 145.699Z" fill="#49B3F7"/>
<path d="M54.4168 162.553C59.1494 162.553 62.9859 158.717 62.9859 153.986C62.9859 149.254 59.1494 145.419 54.4168 145.419C49.6842 145.419 45.8477 149.254 45.8477 153.986C45.8477 158.717 49.6842 162.553 54.4168 162.553Z" fill="#6CBFF3"/>
<path d="M71.0798 87.6195C74.5666 86.846 76.766 83.3932 75.9924 79.9073C75.2187 76.4215 71.765 74.2226 68.2782 74.9961C64.7914 75.7695 62.592 79.2223 63.3656 82.7082C64.1393 86.194 67.593 88.3929 71.0798 87.6195Z" fill="white"/>
<path d="M70.1953 87.4844C72.8671 86.8918 74.5524 84.246 73.9596 81.575C73.3668 78.9039 70.7203 77.219 68.0486 77.8117C65.3768 78.4043 63.6915 81.0501 64.2843 83.7211C64.8771 86.3922 67.5236 88.0771 70.1953 87.4844Z" fill="#191818"/>
<path d="M101.777 84.253C105.27 83.4784 107.473 80.0202 106.698 76.529C105.923 73.0377 102.464 70.8355 98.9716 71.6101C95.4794 72.3847 93.2766 75.8429 94.0514 79.3342C94.8262 82.8254 98.2853 85.0277 101.777 84.253Z" fill="white"/>
<path d="M104.554 79.0909C104.592 76.2943 102.356 73.9964 99.5583 73.9583C96.761 73.9203 94.4625 76.1564 94.4244 78.953C94.3863 81.7495 96.6231 84.0475 99.4204 84.0855C102.218 84.1236 104.516 81.8874 104.554 79.0909Z" fill="#191818"/>
<path d="M70.5018 82.9688C71.2482 82.9688 71.8533 82.3639 71.8533 81.6177C71.8533 80.8715 71.2482 80.2666 70.5018 80.2666C69.7555 80.2666 69.1504 80.8715 69.1504 81.6177C69.1504 82.3639 69.7555 82.9688 70.5018 82.9688Z" fill="white"/>
<path d="M102.088 77.4245C102.15 77.7067 102.128 78.0011 102.023 78.2705C101.918 78.5398 101.736 78.7721 101.499 78.9377C101.262 79.1034 100.981 79.1952 100.692 79.2013C100.403 79.2075 100.118 79.1278 99.8747 78.9723C99.631 78.8169 99.4388 78.5926 99.3226 78.328C99.2063 78.0634 99.1712 77.7702 99.2216 77.4856C99.2721 77.201 99.4058 76.9377 99.6059 76.7291C99.8061 76.5205 100.064 76.3759 100.346 76.3136C100.724 76.2302 101.12 76.3003 101.447 76.5086C101.773 76.7169 102.004 77.0464 102.088 77.4245Z" fill="white"/>
</svg>
