<svg width="69" height="69" viewBox="0 0 69 69" fill="none" xmlns="http://www.w3.org/2000/svg">
<path d="M13.2719 58.5983C13.5824 58.8184 14.013 58.7432 14.2337 58.432C14.4532 58.1208 14.3787 57.6903 14.0675 57.4702L11.5655 55.7058C25.5118 55.5623 36.7181 51.4409 44.8829 43.4259C58.5138 30.0427 58.8209 10.2093 58.8223 10.0106C58.825 9.62901 58.5187 9.31851 58.1378 9.31506L58.1323 9.31506C57.7534 9.31506 57.445 9.62073 57.4423 9.99954C57.4409 10.1927 57.1428 29.4548 43.9155 42.4406C36.0522 50.1596 25.231 54.1671 11.7498 54.3272L14.0564 52.765C14.3718 52.5511 14.4546 52.122 14.2413 51.8066C14.1082 51.6093 13.8901 51.5037 13.6693 51.5037C13.5362 51.5037 13.4016 51.5424 13.2829 51.6224L8.23144 55.0434L13.2719 58.5983Z" fill="#BFC8EB"/>
</svg>
