<svg width="66" height="33" viewBox="0 0 66 33" fill="none" xmlns="http://www.w3.org/2000/svg">
<path fill-rule="evenodd" clip-rule="evenodd" d="M21.9698 6.99989C22.5556 7.58567 22.5556 8.53542 21.9698 9.12121L14.9701 16.121L21.9698 23.1207C22.5556 23.7065 22.5556 24.6563 21.9698 25.2421C21.3841 25.8279 20.4343 25.8279 19.8485 25.2421L11.7881 17.1816C11.2023 16.5958 11.2023 15.6461 11.7881 15.0603L19.8485 6.99989C20.4343 6.4141 21.3841 6.4141 21.9698 6.99989Z" fill="url(#paint0_linear_241_1520)"/>
<path fill-rule="evenodd" clip-rule="evenodd" d="M44.0302 25.2418C43.4444 24.656 43.4444 23.7063 44.0302 23.1205L51.0299 16.1207L44.0302 9.12096C43.4444 8.53517 43.4444 7.58542 44.0302 6.99964C44.6159 6.41385 45.5657 6.41385 46.1515 6.99964L54.2119 15.0601C54.7977 15.6458 54.7977 16.5956 54.2119 17.1814L46.1515 25.2418C45.5657 25.8276 44.6159 25.8276 44.0302 25.2418Z" fill="url(#paint1_linear_241_1520)"/>
<defs>
<linearGradient id="paint0_linear_241_1520" x1="11.3488" y1="16.17" x2="23.396" y2="19.6447" gradientUnits="userSpaceOnUse">
<stop stop-color="#4271DF"/>
<stop offset="1" stop-color="#789CF1"/>
</linearGradient>
<linearGradient id="paint1_linear_241_1520" x1="54.6512" y1="16.0717" x2="42.604" y2="12.597" gradientUnits="userSpaceOnUse">
<stop stop-color="#4271DF"/>
<stop offset="1" stop-color="#789CF1"/>
</linearGradient>
</defs>
</svg>
