<svg width="40" height="40" viewBox="0 0 40 40" fill="none" xmlns="http://www.w3.org/2000/svg">
<path fill-rule="evenodd" clip-rule="evenodd" d="M11.3398 8H13.8398V12.3496H18.2V14.8496H13.8398V19.2H11.3398V14.8496H7V12.3496H11.3398V8ZM25.2441 27.209L22.168 30.2852L23.9357 32.0529L27.0119 28.9767L30.0804 32.0453L31.8482 30.2775L28.7796 27.209L31.8482 24.1405L30.0804 22.3727L27.0119 25.4412L23.9357 22.3651L22.168 24.1328L25.2441 27.209ZM28.2695 16.7002H25.7695V19.1902H28.2695V16.7002ZM25.7695 8H28.2695V10.64H25.7695V8ZM32.6099 12.3496H21.4199V14.8496H32.6099V12.3496ZM7 25.96H18.2V28.46H7V25.96Z" fill="#4674E1"/>
</svg>
