<svg width="280" height="240" fill="none" xmlns="http://www.w3.org/2000/svg"><path d="M206.397 214.595c-12.38 7.15-27.91 4.08-42.17 5.61-11.99 1.27-23.47 5.96-35 9.38-10.99 3.21-21.9 4.82-31.18.56-6.43-2.9-11.71-8.23-17.78-12.08-7.4-4.59-15.74-7.01-23.62-10.73-7.95-3.66-15.95-9.03-19.93-17.04-4.93-9.54-2.72-20.66-4.9-30.95-2.5-11.59-10.64-21.52-14.35-32.76-2.53-7.93-.37-17.35 2.23-25.14 2.74-8.26 10.62-17.76 18.27-22.9 2.48-1.69 4.93-3.4 7.27-5.31 1.02-.85 6.4-4.61 6.36-5.87 5.95-6.24 9.34-14.03 14.37-21.03 5.16-7.37 12.95-12.61 21.24-15.62 7.5-2.78 15.25-4.64 23.17-5.52 8.65-.79 17.37-.37 25.94-3.77 1.83-.69 3.61-1.53 5.45-2.23 12.62-4.57 30.17-2.67 42.62 3.35 4.73 2.29 8.74 5.7 12.59 9.14 4.74 4.07 8.89 8.76 12.34 13.93 3.12 4.99 4.18 10.94 8.08 15.61 2.61 3.13 5.17 6.58 7.73 9.6 3.94 4.67 9.97 6.89 13.7 11.98 3.74 5.11 5.52 11.38 6.75 17.45 1.58 7.77 2.45 15.74 1.62 23.64-1.35 12.61-8.21 22.01-15.25 32.3-2.35 3.42-4.71 6.97-5.64 10.98-.36 1.91-.6 3.85-.69 5.81-.48 5.69-2.01 10.94-3.2 16.45-2.11 9.69-6.67 19.69-16.02 25.16z" fill="#EFF2FD"/></svg>