<svg width="66" height="33" fill="none" xmlns="http://www.w3.org/2000/svg"><path fill-rule="evenodd" clip-rule="evenodd" d="M21.97 7a1.5 1.5 0 010 2.121l-7 7 7 7a1.5 1.5 0 01-2.121 2.121l-8.06-8.06a1.5 1.5 0 010-2.122L19.848 7a1.5 1.5 0 012.12 0z" fill="url(#paint0_linear_241_1520)"/><path fill-rule="evenodd" clip-rule="evenodd" d="M44.03 25.242a1.5 1.5 0 010-2.122l7-7-7-6.999A1.5 1.5 0 1146.151 7l8.06 8.06a1.5 1.5 0 010 2.121l-8.06 8.06a1.5 1.5 0 01-2.12 0z" fill="url(#paint1_linear_241_1520)"/><defs><linearGradient id="paint0_linear_241_1520" x1="11.349" y1="16.17" x2="23.396" y2="19.645" gradientUnits="userSpaceOnUse"><stop stop-color="#4271DF"/><stop offset="1" stop-color="#789CF1"/></linearGradient><linearGradient id="paint1_linear_241_1520" x1="54.651" y1="16.072" x2="42.604" y2="12.597" gradientUnits="userSpaceOnUse"><stop stop-color="#4271DF"/><stop offset="1" stop-color="#789CF1"/></linearGradient></defs></svg>