<svg width="24" height="72" fill="none" xmlns="http://www.w3.org/2000/svg"><g clip-path="url(#clip0_283_1532)"><path d="M4 56h4v-4H4v4zm6 12h4v-4h-4v4zm-6 0h4v-4H4v4zm0-6h4v-4H4v4zm6 0h4v-4h-4v4zm6-10v4h4v-4h-4zm-6 4h4v-4h-4v4zm6 6h4v-4h-4v4zm0 6h4v-4h-4v4z" fill="#323232"/></g><g clip-path="url(#clip1_283_1532)"><path d="M12 36c2.21 0 4-1.79 4-4s-1.79-4-4-4-4 1.79-4 4 1.79 4 4 4zm0 2c-2.67 0-8 1.34-8 4v2h16v-2c0-2.66-5.33-4-8-4z" fill="#323232"/></g><g clip-path="url(#clip2_283_1532)"><path d="M6.62 10.79c1.44 2.83 3.76 5.14 6.59 6.59l2.2-2.2c.27-.27.67-.36 1.02-.24 1.12.37 2.33.57 3.57.57.55 0 1 .45 1 1V20c0 .55-.45 1-1 1-9.39 0-17-7.61-17-17 0-.55.45-1 1-1h3.5c.55 0 1 .45 1 1 0 1.25.2 2.45.57 3.57.11.35.03.74-.25 1.02l-2.2 2.2z" fill="#323232"/></g><defs><clipPath id="clip0_283_1532"><path fill="#fff" transform="translate(0 48)" d="M0 0h24v24H0z"/></clipPath><clipPath id="clip1_283_1532"><path fill="#fff" transform="translate(0 24)" d="M0 0h24v24H0z"/></clipPath><clipPath id="clip2_283_1532"><path fill="#fff" d="M0 0h24v24H0z"/></clipPath></defs></svg>