<svg width="44" height="228" fill="none" xmlns="http://www.w3.org/2000/svg"><path d="M21.304 17.721l-12.76-.704C8.189 40.403 25.888 49.311 34.65 51.46l-.04-13.38s-10.97-2.927-13.306-20.36z" fill="#49B3F7"/><g clip-path="url(#clip0_367_2141)"><path d="M6.643 111.394l1.36 12.211c23.113-3.627 29.047-21.911 29.755-30.58L24.57 95.333s-1.117 10.89-17.928 16.061z" fill="#49B3F7"/></g><g clip-path="url(#clip1_367_2141)"><path d="M34.005 181.733l9.218-8.127c-15.825-16.821-34.063-11.172-41.538-6.772l9.223 9.46s9.518-5.341 23.097 5.439z" fill="#49B3F7"/></g><defs><clipPath id="clip0_367_2141"><path fill="#fff" transform="translate(0 76)" d="M0 0h44v76H0z"/></clipPath><clipPath id="clip1_367_2141"><path fill="#fff" transform="translate(0 152)" d="M0 0h44v76H0z"/></clipPath></defs></svg>