<svg width="27" height="81" fill="none" xmlns="http://www.w3.org/2000/svg"><path d="M13.138 19.85a1.766 1.766 0 01-.028-1.068H5.5a.87.87 0 01-.861-.871V2.558a.87.87 0 01.86-.871H13a.43.43 0 01.417.421v2.84c0 .647.528 1.181 1.167 1.181h2.805a.43.43 0 01.417.422v5.961a1.8 1.8 0 01.694-.14c.361 0 .667.112.944.252V6.186c0-.675-.25-1.322-.722-1.8L15.111.731A2.483 2.483 0 0013.332 0H5.5C4.139 0 3 1.125 3 2.53v15.353c0 1.378 1.111 2.53 2.5 2.53h7.972a1.582 1.582 0 01-.334-.562z" fill="#243976"/><path d="M6.5 16.027c0 .45.36.815.805.815h5.75c0-.169.028-.337.083-.534.195-.563.584-.9.945-1.125H7.305a.855.855 0 00-.805.844zm9.443-3.571a.811.811 0 00-.805-.816H7.305a.811.811 0 00-.805.816c0 .45.36.815.805.815h7.805a.817.817 0 00.834-.816zm-.833-4.415H7.305a.811.811 0 00-.805.815c0 .45.36.816.805.816h7.805a.811.811 0 00.806-.816c.027-.45-.334-.815-.806-.815zM7.305 6.13h3.639a.811.811 0 00.805-.816.811.811 0 00-.805-.815h-3.64a.811.811 0 00-.804.815c0 .45.36.815.805.815zM16.916 23c-.195.028-.39.084-.611.084-.417 0-.806-.112-1.111-.365-.306-.225-.473-.506-.611-.76l-1.528 2.812c-.167.281.083.647.389.619l1.388-.113.64 1.266c.166.309.583.309.721 0l1.556-2.868a4.38 4.38 0 01-.833-.675zm7.028 1.771l-1.528-2.812c-.111.282-.306.535-.611.76a1.881 1.881 0 01-1.111.365 2.01 2.01 0 01-.611-.084c-.195.225-.473.506-.861.675l1.555 2.868c.167.281.583.281.722 0l.64-1.265 1.388.112c.361.028.583-.338.417-.619zm-4.334-3.205c.389-.14 1.055.253 1.389 0 .333-.253.166-1.012.416-1.35.25-.337 1-.421 1.14-.815.11-.393-.445-.9-.445-1.321 0-.422.555-.956.444-1.322-.139-.394-.889-.478-1.139-.815-.25-.338-.083-1.097-.416-1.35-.334-.253-1 .14-1.39 0-.388-.112-.694-.844-1.11-.844-.417 0-.722.704-1.111.844s-1.056-.253-1.389 0c-.333.253-.167 1.012-.417 1.35-.25.337-1 .421-1.138.815-.112.393.444.9.444 1.321 0 .422-.556.956-.445 1.322.14.394.89.478 1.14.815.25.338.083 1.097.416 1.35.333.253 1-.14 1.389 0 .388.112.694.843 1.11.843.445-.028.75-.73 1.112-.843zm-1-1.968a.236.236 0 00-.195 0l-.86.506c-.223.14-.5-.084-.445-.337l.194-.985c0-.056 0-.14-.055-.197l-.75-.675c-.195-.168-.084-.506.166-.534l1-.112c.056 0 .14-.056.167-.113l.416-.927a.298.298 0 01.556 0l.417.927a.185.185 0 00.166.113l1 .112c.25.028.361.366.167.534l-.75.675c-.056.057-.084.113-.056.197l.195.985c.055.253-.223.477-.445.337l-.888-.506zM13.75 28A8.744 8.744 0 005 36.75C5 43.313 13.75 53 13.75 53s8.75-9.688 8.75-16.25A8.744 8.744 0 0013.75 28zm0 11.875a3.126 3.126 0 010-6.25 3.126 3.126 0 010 6.25zM18.5 55H9.41A3.405 3.405 0 006 58.41v18.18A3.405 3.405 0 009.41 80h9.09a3.404 3.404 0 003.41-3.41V58.41A3.404 3.404 0 0018.5 55zm-2.273 22.727h-4.545v-1.136h4.545v1.136zm3.694-3.409H7.989V58.41H19.92v15.91z" fill="#243976"/></svg>