<svg width="236" height="67" fill="none" xmlns="http://www.w3.org/2000/svg"><path d="M81.566 27.257c0 .56.124 1.025.435 1.336.31.342.745.497 1.304.497H99.11c.56 0 1.025-.155 1.336-.497.31-.342.466-.777.466-1.336v-11.59c0-.498-.156-.933-.466-1.274-.311-.342-.714-.529-1.273-.529-.56 0-.963.187-1.273.529-.311.341-.435.776-.435 1.274v10.44h-4.503v-10.44c0-.498-.155-.933-.466-1.274-.31-.342-.714-.529-1.273-.529-.559 0-.962.187-1.273.529-.31.341-.435.776-.435 1.274v10.44h-4.502V7.38c0-.497-.156-.932-.466-1.274-.31-.341-.714-.528-1.273-.528-.56 0-.963.187-1.273.528-.31.342-.435.777-.435 1.274v19.877zm24.112.031c0 .528.124.963.435 1.305.279.342.714.497 1.273.497.559 0 .963-.155 1.273-.497.311-.342.466-.777.466-1.305V22.41l5.745 5.841c.993 1.057 1.894 1.119 2.701.249.311-.31.435-.715.373-1.18-.062-.467-.28-.902-.652-1.275l-4.938-4.63 4.41-4.692c.372-.404.59-.839.652-1.274.031-.435-.093-.808-.404-1.118-.807-.746-1.677-.622-2.608.434l-5.279 5.998v-5.096c0-.498-.155-.933-.466-1.274-.31-.342-.714-.529-1.273-.529-.559 0-.963.187-1.273.529-.311.341-.435.776-.435 1.274v11.621zm15.668-5.811c0 2.362.652 4.257 1.956 5.718 1.304 1.491 3.105 2.206 5.465 2.206 2.329 0 4.161-.715 5.466-2.206 1.304-1.492 1.987-3.387 1.987-5.718 0-2.3-.683-4.195-1.987-5.686-1.305-1.492-3.137-2.237-5.466-2.237-2.36 0-4.161.745-5.465 2.206-1.304 1.491-1.956 3.387-1.956 5.717zm3.602 0c0-1.429.31-2.61.994-3.542.652-.932 1.583-1.398 2.825-1.398 1.242 0 2.174.466 2.857 1.367.652.932.994 2.113.994 3.573 0 1.492-.342 2.673-.994 3.574-.683.932-1.615 1.367-2.857 1.367-1.242 0-2.173-.435-2.825-1.367-.684-.901-.994-2.082-.994-3.574zm24.581 13.061c0 .529.125.964.435 1.306.311.341.745.497 1.304.497s.994-.156 1.305-.497c.31-.342.465-.777.465-1.306v-18.87a1.9 1.9 0 00-.465-1.274c-.311-.342-.746-.529-1.305-.529h-6.831c-.497 0-.932.156-1.273.466-.373.311-.559.746-.559 1.337-.187 4.412-.497 7.395-.932 8.918-.279.963-.776 1.43-1.459 1.43-.994 0-1.522.496-1.522 1.428-.031.59.155 1.026.559 1.305.373.311.901.435 1.522.435 1.925 0 3.229-1.118 3.912-3.355.621-1.958.994-4.91 1.118-8.856h3.726v17.566zm17.811-7.25c0 .528.125.963.404 1.305.28.342.714.497 1.273.497.559 0 .963-.155 1.242-.497.28-.31.435-.746.435-1.305v-7.955c0-3.853-2.049-5.78-6.117-5.78-2.236 0-3.944.405-5.062 1.15-.776.498-1.025 1.119-.776 1.834.124.373.341.59.683.714a1.63 1.63 0 001.087 0c.155-.03.403-.093.745-.217l.745-.218c.156-.062.373-.124.621-.186.249-.062.528-.093.777-.124.248 0 .497-.032.776-.032 1.242 0 2.081.28 2.515.84.435.559.652 1.305.652 2.299v.342a23.065 23.065 0 00-3.26-.218c-1.925 0-3.509.435-4.782 1.243-1.273.808-1.894 2.113-1.894 3.853 0 1.399.434 2.517 1.304 3.325.869.84 2.111 1.243 3.664 1.243 2.298 0 3.944-.87 4.968-2.672v.56zm-4.036-.621c-.777 0-1.367-.187-1.802-.56-.434-.373-.652-.9-.652-1.553 0-1.74 1.242-2.61 3.727-2.61 1.18 0 2.08.062 2.763.155v.528c0 1.057-.372 2.02-1.086 2.828-.746.808-1.708 1.212-2.95 1.212zm-74.13 12.988c.497-.186 1.18-.435 2.05-.745.838-.28 1.428-.498 1.738-.653 1.056-.497 1.46-1.18 1.15-2.082-.311-.87-1.15-1.056-2.454-.59l-3.602 1.336c-2.795 1.087-4.69 2.455-5.714 4.102-1.056 1.646-1.552 4.07-1.552 7.27 0 2.922.62 5.19 1.863 6.744 1.242 1.553 3.074 2.33 5.527 2.33 2.205 0 3.975-.683 5.31-2.113 1.304-1.398 1.987-3.17 1.987-5.344 0-2.176-.59-3.916-1.739-5.22-1.18-1.306-2.763-1.99-4.813-1.99-1.055 0-2.08.25-3.074.746a5.322 5.322 0 00-2.329 2.206c.062-1.74.745-3.169 2.08-4.226.684-.528 1.864-1.118 3.572-1.77zm2.701 10.379c0 1.367-.341 2.455-.993 3.2-.653.777-1.553 1.15-2.733 1.15-1.149 0-2.05-.373-2.67-1.119-.653-.745-.963-1.802-.963-3.17 0-1.366.31-2.423.993-3.23.653-.778 1.553-1.181 2.671-1.181 1.18 0 2.08.404 2.733 1.15.62.776.962 1.833.962 3.2zm12.032 7.022c-.466 1.181-.9 2.082-1.304 2.673-.435.59-.963.87-1.615.87-.341 0-.9-.124-1.677-.373-.931-.249-1.521-.062-1.832.621-.403.87-.093 1.616.963 2.175.683.373 1.521.56 2.515.56 1.335 0 2.422-.435 3.261-1.336.838-.902 1.708-2.58 2.639-5.034l4.844-12.834c.466-1.305.249-2.113-.683-2.423-1.118-.373-1.863.093-2.298 1.43l-3.198 9.508-3.633-9.633c-.497-1.274-1.336-1.71-2.453-1.274-.56.217-.87.59-.994 1.118a2.066 2.066 0 00.186 1.492l5.279 12.46zm23.039 0v1.927c0 .497.124.901.373 1.212.248.31.652.466 1.149.466.993 0 1.49-.56 1.49-1.678v-3.107c0-.435-.124-.84-.373-1.15-.248-.31-.621-.466-1.117-.466h-.808V43.633c0-.529-.155-.964-.466-1.305-.31-.311-.745-.498-1.304-.498h-7.018c-1.18 0-1.77.622-1.832 1.803 0 .093-.031.373-.031.839-.031.497-.062.9-.062 1.274-.031.372-.062.87-.093 1.491-.062.622-.093 1.15-.155 1.616l-.156 1.585c-.062.59-.155 1.087-.248 1.522-.124.435-.217.808-.342 1.181-.124.373-.279.653-.434.84-.187.186-.342.279-.528.279h-.156c-.496 0-.838.155-1.086.466-.249.31-.373.684-.373 1.15v3.107c0 1.119.497 1.678 1.491 1.678.496 0 .869-.156 1.117-.466.249-.31.404-.715.404-1.212v-1.927h10.558zm-8.105-2.796c.714-1.927 1.118-5.065 1.242-9.447h4.13v9.447h-5.372zm20.289 2.796c-.466 1.181-.9 2.082-1.304 2.673-.435.59-.963.87-1.615.87-.341 0-.9-.124-1.676-.373-.932-.249-1.522-.062-1.833.621-.403.87-.093 1.616.963 2.175.683.373 1.522.56 2.515.56 1.336 0 2.422-.435 3.261-1.336.838-.902 1.708-2.58 2.639-5.034l4.844-12.834c.466-1.305.249-2.113-.683-2.423-1.118-.373-1.863.093-2.298 1.43l-3.198 9.508-3.633-9.633c-.497-1.274-1.335-1.71-2.453-1.274-.559.217-.87.59-.994 1.118a2.07 2.07 0 00.186 1.492l5.279 12.46zm13.586 0h16.675v1.927c0 .497.124.901.373 1.212.248.31.652.466 1.149.466.994 0 1.49-.56 1.49-1.678v-3.294c0-.435-.124-.839-.372-1.15-.249-.31-.621-.466-1.118-.466h-.59v-10.44c0-.498-.155-.933-.466-1.274-.31-.342-.714-.529-1.273-.529-.559 0-.963.187-1.273.529-.311.341-.435.776-.435 1.274v10.44h-4.503v-10.44c0-.498-.155-.933-.465-1.274-.311-.342-.715-.529-1.274-.529-.558 0-.962.187-1.273.529-.31.341-.434.776-.434 1.274v10.44h-4.503v-10.44c0-.498-.155-.933-.466-1.274-.31-.342-.714-.529-1.273-.529-.559 0-.963.187-1.273.529-.311.341-.435.776-.435 1.274v11.59c0 .56.124 1.026.435 1.336.31.342.745.497 1.304.497zm34.877-6.339c.59 0 1.056-.124 1.367-.373.31-.248.528-.62.683-1.18.093-.373.155-.84.155-1.46 0-1.865-.59-3.357-1.708-4.475-1.118-1.119-2.67-1.71-4.658-1.71-2.235 0-3.974.746-5.278 2.176-1.305 1.46-1.957 3.387-1.957 5.81 0 2.517.59 4.444 1.832 5.811s3.012 2.051 5.341 2.051c2.05 0 3.696-.404 4.907-1.212.372-.248.621-.56.745-.932.124-.373.093-.746-.093-1.056-.373-.653-1.025-.808-1.926-.436-1.304.56-2.391.808-3.291.808-1.211 0-2.174-.341-2.888-1.025-.745-.684-1.118-1.616-1.149-2.797h7.918zm-4.161-6.37c1.025 0 1.801.311 2.329.87.528.59.808 1.337.808 2.269 0 .31-.031.59-.031.777h-6.863c.093-1.243.466-2.207 1.118-2.89.652-.684 1.522-1.026 2.639-1.026zm13.059-2.517c-.559 0-.963.187-1.273.529a1.895 1.895 0 00-.466 1.274v17.836c0 .528.124.963.435 1.305.31.342.745.497 1.304.497s.993-.155 1.304-.497c.311-.342.466-.777.466-1.305V44.938h5.186c1.117 0 1.676-.497 1.676-1.523 0-1.056-.559-1.585-1.676-1.585h-6.956zm10.866 7.613c0 2.362.652 4.258 1.956 5.718 1.304 1.491 3.105 2.206 5.465 2.206 2.329 0 4.161-.715 5.466-2.206 1.304-1.492 1.987-3.387 1.987-5.718 0-2.299-.683-4.194-1.987-5.686-1.305-1.492-3.137-2.237-5.466-2.237-2.36 0-4.161.745-5.465 2.206-1.304 1.491-1.956 3.387-1.956 5.717zm3.602 0c0-1.429.31-2.61.994-3.542.652-.932 1.583-1.398 2.825-1.398 1.243 0 2.174.466 2.857 1.367.652.932.994 2.113.994 3.573 0 1.492-.342 2.673-.994 3.574-.683.932-1.614 1.367-2.857 1.367-1.242 0-2.173-.435-2.825-1.367-.684-.901-.994-2.082-.994-3.574z" fill="#243976"/><path d="M180.106 19.186c0-5.8 4.701-10.5 10.5-10.5H225.5c5.799 0 10.5 4.7 10.5 10.5v.75c0 5.8-4.701 10.5-10.5 10.5h-44.394a1 1 0 01-1-1v-10.25z" fill="#49B3F7"/><path d="M187.352 20.826c0 1.013.285 1.825.854 2.45.57.64 1.356.946 2.386.946 1.017 0 1.817-.306 2.387-.945.569-.64.868-1.452.868-2.45 0-.986-.299-1.798-.868-2.438-.57-.639-1.37-.958-2.387-.958-1.03 0-1.816.32-2.386.945-.569.64-.854 1.452-.854 2.45zm1.573 0c0-.612.135-1.118.434-1.518.284-.4.691-.599 1.233-.599.543 0 .95.2 1.248.586.285.4.434.906.434 1.531 0 .64-.149 1.146-.434 1.532-.298.4-.705.586-1.248.586-.542 0-.949-.186-1.233-.586-.299-.386-.434-.892-.434-1.532zm6.208 2.491c0 .226.054.413.189.56.136.146.326.212.57.212.244 0 .434-.066.569-.213a.79.79 0 00.204-.56V21.6c0-.4.027-.76.081-1.079a4.7 4.7 0 01.244-.879 1.45 1.45 0 01.502-.652 1.42 1.42 0 01.813-.227c.76 0 1.153.506 1.153 1.492v3.063c0 .226.054.413.19.56.135.146.325.212.569.212.244 0 .434-.066.57-.213a.794.794 0 00.203-.56v-3.035c0-.933-.176-1.652-.529-2.131-.352-.48-.949-.72-1.789-.72-.434 0-.828.094-1.18.28a1.96 1.96 0 00-.827.826v-.2a.78.78 0 00-.204-.546c-.135-.146-.325-.226-.569-.226-.244 0-.434.08-.57.226-.135.147-.189.333-.189.546v4.98zm10.776-2.117c.217 0 .393-.054.529-.174.135-.106.203-.28.203-.492a.61.61 0 00-.203-.48.774.774 0 00-.529-.186H202.6a.77.77 0 00-.528.186.608.608 0 00-.204.48c0 .213.068.386.204.492.135.12.311.173.528.173h3.309zm1.618.838c0 1.465.678 2.184 2.047 2.184.57 0 1.017-.093 1.37-.293.433-.24.583-.546.433-.945a.527.527 0 00-.339-.293.773.773 0 00-.488.04c-.271.106-.501.16-.718.16-.285 0-.488-.08-.597-.253-.122-.16-.176-.44-.176-.813v-6.152a.78.78 0 00-.204-.546c-.135-.147-.325-.227-.569-.227-.244 0-.434.08-.57.227-.135.146-.189.333-.189.546v6.365zm4.568 1.279c0 .226.054.413.19.56.135.146.325.212.569.212.244 0 .434-.066.57-.213a.794.794 0 00.203-.56v-4.98c0-.213-.068-.4-.203-.546-.136-.146-.326-.226-.57-.226-.244 0-.434.08-.569.226-.136.147-.19.333-.19.546v4.98zm-.122-7.471c0 .266.068.48.23.613.163.133.38.2.651.2s.488-.067.651-.214c.163-.133.244-.333.244-.6a.754.754 0 00-.244-.585c-.163-.146-.38-.226-.651-.226s-.488.08-.651.226c-.162.146-.23.346-.23.586zm3.287 7.471c0 .226.054.413.189.56.136.146.326.212.57.212.244 0 .434-.066.569-.213a.79.79 0 00.204-.56V21.6c0-.4.027-.76.081-1.079a4.7 4.7 0 01.244-.879 1.45 1.45 0 01.502-.652 1.42 1.42 0 01.814-.227c.759 0 1.152.506 1.152 1.492v3.063c0 .226.054.413.19.56.136.146.325.212.569.212.244 0 .434-.066.57-.213a.794.794 0 00.203-.56v-3.035c0-.933-.176-1.652-.529-2.131-.352-.48-.949-.72-1.789-.72-.434 0-.827.094-1.18.28a1.96 1.96 0 00-.827.826v-.2a.78.78 0 00-.204-.546c-.135-.146-.325-.226-.569-.226-.244 0-.434.08-.57.226-.135.147-.189.333-.189.546v4.98zm12.118-1.945c.258 0 .461-.053.597-.16.136-.106.231-.266.298-.505.041-.16.068-.36.068-.626 0-.8-.257-1.439-.746-1.918-.488-.48-1.166-.732-2.034-.732-.976 0-1.735.32-2.305.932-.569.626-.854 1.451-.854 2.49 0 1.079.258 1.904.8 2.49.543.586 1.315.88 2.332.88.895 0 1.614-.174 2.143-.52a.774.774 0 00.325-.4.525.525 0 00-.041-.452c-.162-.28-.447-.346-.84-.187-.57.24-1.044.346-1.437.346-.529 0-.95-.146-1.262-.439-.325-.293-.488-.692-.501-1.199h3.457zm-1.817-2.73c.448 0 .787.134 1.017.373.231.253.353.573.353.973 0 .133-.014.253-.014.332h-2.996c.04-.532.203-.945.488-1.238.285-.293.664-.44 1.152-.44z" fill="#fff"/><path d="M8.175 45.24l5.722 11.453c20.928-11.78 20.029-31.767 17.576-40.492L19.62 23.154s2.86 11.043-11.445 22.087z" fill="#49B3F7"/><path d="M46.053 5.827l-12.77-.83C32.899 29.023 50.6 38.323 59.368 40.603l-.024-13.749S48.37 23.757 46.053 5.827z" fill="#864FF1"/><path d="M61.5 58.648l7.278-10.53c-20.39-12.69-37.466-2.282-43.93 4.069l11.796 7.051s8.297-7.824 24.856-.59z" fill="#49B3F7"/></svg>