<svg width="90" height="90" fill="none" xmlns="http://www.w3.org/2000/svg"><path d="M23.35 69.423a30.609 30.609 0 01-2.153-1.941 1.07 1.07 0 00-1.505 0 1.07 1.07 0 000 1.512 27.304 27.304 0 002.227 2.02 1.07 1.07 0 001.432-1.591zM12.147 37.687a1.07 1.07 0 00-1.42.914 32.34 32.34 0 00-.499 2.962 1.07 1.07 0 00.906 1.198h.136a1.07 1.07 0 001.063-.942c.114-.927.271-1.862.471-2.769a1.07 1.07 0 00-.657-1.363zm5.881 26.062a31.566 31.566 0 01-1.548-2.34 1.07 1.07 0 00-1.467-.374l-.003.002a1.07 1.07 0 00-.373 1.467l.002.003c.514.857 1.07 1.699 1.662 2.505a1.07 1.07 0 001.727-1.263zm-3.732-6.751a30.631 30.631 0 01-.92-2.654 1.07 1.07 0 00-1.356-.721 1.07 1.07 0 00-.714 1.327c.285.957.614 1.913.985 2.855a1.08 1.08 0 102.005-.806zm.639-26.65a1.07 1.07 0 00-1.438.475c-.45.892-.864 1.812-1.228 2.747a1.07 1.07 0 00.6 1.385 1.07 1.07 0 001.391-.607 25.78 25.78 0 011.15-2.562 1.07 1.07 0 00-.475-1.438zM12.37 49.55v-.002a33.576 33.576 0 01-.228-2.797 1.071 1.071 0 10-2.141.078c0 1 .114 2.005.242 2.997a1.07 1.07 0 001.035.921h.164a1.07 1.07 0 00.928-1.196zm28.398-35.708a1.075 1.075 0 00-1.174-.967c-.992.1-1.991.243-2.976.435a1.075 1.075 0 10.2 2.141l-.008-.028h.207a30.66 30.66 0 012.784-.407 1.075 1.075 0 00.967-1.174zm-21.182 10.03a1.077 1.077 0 00-1.52.093 31.44 31.44 0 00-1.87 2.355 1.07 1.07 0 00.863 1.698v.014a1.07 1.07 0 00.871-.442 30.642 30.642 0 011.748-2.198 1.077 1.077 0 00-.092-1.52zm28.236-10.819a32.145 32.145 0 00-2.99-.314 1.072 1.072 0 10-.129 2.141c.942.071 1.877.171 2.798.314h.164a1.073 1.073 0 10.157-2.14zm-22.159 5.719a1.07 1.07 0 00-1.44-.266 34.622 34.622 0 00-2.399 1.812 1.072 1.072 0 101.37 1.649c.714-.6 1.47-1.17 2.241-1.698a1.07 1.07 0 00.228-1.497zm3.591-.866h-.022.022zm3.774-2.507a1.07 1.07 0 00-1.462-.697c-.935.342-1.87.714-2.77 1.163a1.07 1.07 0 00.447 2.04 1.07 1.07 0 00.446-.106c.842-.4 1.713-.764 2.59-1.085a1.07 1.07 0 00.75-1.315zM45.971 77.32a1.073 1.073 0 00-1.138-1.003c-.935.071-1.877.092-2.812.064a1.07 1.07 0 10-.057 2.14h.907c.713 0 1.427 0 2.097-.064a1.073 1.073 0 001.003-1.138zm28.017-24.8a1.071 1.071 0 00-1.302.775 29.114 29.114 0 01-.82 2.683 1.07 1.07 0 00.648 1.349c.557.2 1.17-.09 1.37-.646v-.003c.336-.942.629-1.906.878-2.855a1.071 1.071 0 00-.774-1.302zm1.367-12.256a34.154 34.154 0 00-.621-2.94 1.07 1.07 0 00-2.07.542c.236.9.429 1.827.586 2.748a1.07 1.07 0 001.041.877h.179a1.07 1.07 0 00.885-1.227z" fill="#49B3F7"/><path d="M79.904 27.977a1.04 1.04 0 00-.204-.294l-1.891-1.97c-.27-.27-.669-.37-1.035-.257l-3.41 1.035-3.997-4.239 8.97-4.995a1.042 1.042 0 00.307-1.677l-2.52-2.52a1.042 1.042 0 00-1.034-.242l-11.368 3.44-3.825-4.06a3.461 3.461 0 00-3.94-.936h-.063a4.21 4.21 0 00-2.291 2.291 3.856 3.856 0 00-.229.842l-.435-.15a1.072 1.072 0 10-.656 2.041c.55.179 1.099.378 1.648.585.165.26.36.498.578.714l4.032 3.825-1.156 3.818c-11.307-8.066-27.012-5.438-35.077 5.87-8.066 11.306-5.438 27.01 5.869 35.076 11.307 8.066 27.012 5.438 35.077-5.869a25.148 25.148 0 00-.552-29.953l1.826-3.297 4.24 3.996-1.021 3.375c-.123.371-.026.78.25 1.057 0 0 2.09 2.07 2.14 2.14a1.035 1.035 0 001.428-.4l2.79-5.116 5.038-2.747c.523-.241.751-.86.51-1.383zM26.62 29.388a22.915 22.915 0 0116.22-6.708c.476 0 .952.014 1.428.043 4.046 3.732 2.854 7.136.142 10.205a50.096 50.096 0 01-5.138 4.738c-2.633 2.24-5.088 4.332-6.016 6.423-1.099 2.483-.292 4.731 4.147 6.694 2.219.984 3.425 1.748 3.896 2.326a.113.113 0 00.02.02 1.14 1.14 0 00-.049.016 8.87 8.87 0 01-3.368.578c-5.38.228-9.213-3.212-12.189-5.873-2.14-1.906-3.917-3.49-5.766-3.504a22.915 22.915 0 016.673-14.958zm39.242 16.256h.007a23.007 23.007 0 01-15.85 21.859 7.487 7.487 0 01.878-4.86 17.694 17.694 0 014.282-4.71c6.587-5.495 6.958-8.563 7.243-10.925.179-1.492.314-2.605 3.261-4.225.119.95.178 1.905.179 2.861zm-1.328-7.72c.32.898.582 1.815.785 2.746-4.488 2.284-4.688 3.911-4.96 6.13-.242 1.999-.556 4.61-6.508 9.577a19.52 19.52 0 00-4.78 5.303A9.464 9.464 0 0048 68.052c-12.38 2.83-24.71-4.911-27.539-17.29a22.993 22.993 0 01-.564-4.311c1.135 0 2.605 1.349 4.41 2.954 3.269 2.919 7.45 6.644 13.68 6.423a10.704 10.704 0 004.282-.814 2.14 2.14 0 001.185-1.341 2.04 2.04 0 00-.514-1.863c-.67-.82-2.14-1.791-4.667-2.919-3.019-1.334-3.675-2.633-3.083-3.96.714-1.67 3.012-3.568 5.452-5.71a51.959 51.959 0 005.36-4.994c2.983-3.397 4.517-7.101 1.484-11.154 3.37.689 6.542 2.13 9.277 4.217l-1.641 5.416c-.121.371-.025.78.25 1.057 0 0 2.661 2.64 2.747 2.69a1.035 1.035 0 001.414-.376l.013-.024 2.077-3.753a22.94 22.94 0 012.911 5.623zm9.57-7.972l-.92.457c-.206.102-.372.27-.471.478l-.457.927-1.777 3.212-.52-.571 1.034-3.418a1.037 1.037 0 00-.336-1.1l-5.63-5.302a1.035 1.035 0 00-1.492.043c-.07.079-5.138 9.206-5.138 9.206l-1.106-1.106 3.454-11.383a1.035 1.035 0 00-.335-1.106l-4.482-4.217a1.484 1.484 0 01-.407-1.713 2.242 2.242 0 011.164-1.156h.035a1.484 1.484 0 011.67.428l4.282 4.525c.269.288.678.399 1.056.285l11.418-3.447 1.106 1.106-9.063 4.981a1.034 1.034 0 00-.4 1.428c.043.078 5.503 5.887 5.503 5.887.27.286.68.394 1.056.278l3.432-1.034.536.535-3.212 1.777zM71.35 60.044a1.07 1.07 0 00-1.475.395c-.45.82-.942 1.627-1.47 2.397a1.073 1.073 0 101.755 1.235 36.205 36.205 0 001.57-2.562 1.07 1.07 0 00-.38-1.465zm3.383-15.627a1.07 1.07 0 00-1.085 1.1v.12a30.9 30.9 0 01-.128 2.812 1.07 1.07 0 00.969 1.163h.102a1.07 1.07 0 001.077-.992 32.2 32.2 0 00.136-2.997v-.143a1.07 1.07 0 00-1.07-1.063zM37.147 75.845a22.108 22.108 0 01-2.74-.628 1.07 1.07 0 10-.586 2.056c.957.27 1.941.506 2.926.713h.2a1.075 1.075 0 10.2-2.14zm16.563-.325a1.07 1.07 0 00-1.298-.66v.03c-.885.292-1.798.542-2.704.713a1.072 1.072 0 00.47 2.09c.971-.22 1.949-.492 2.898-.799a1.07 1.07 0 00.634-1.374zm-23.906-2.009a51.544 51.544 0 01-2.49-1.334 1.071 1.071 0 10-1.085 1.848c.863.507 1.755.978 2.661 1.427a1.073 1.073 0 00.914-1.94zM66.8 66.626a1.07 1.07 0 00-1.493.05h.007c-.643.713-1.32 1.34-2.013 1.962a1.071 1.071 0 101.427 1.598c.714-.664 1.47-1.37 2.141-2.098a1.07 1.07 0 00-.068-1.512zm-5.905 5.34a1.07 1.07 0 00-1.518-.338V71.6c-.785.5-1.606.97-2.434 1.427a1.07 1.07 0 00.978 1.905 33.693 33.693 0 002.605-1.498 1.07 1.07 0 00.37-1.468z" fill="#49B3F7"/></svg>