<svg width="90" height="90" fill="none" xmlns="http://www.w3.org/2000/svg"><path d="M74.921 46.724a2.373 2.373 0 00-2.329-1.926h-2.291l-.169-1.01a2.385 2.385 0 00-1.982-1.965c-.226-.036-.453-.06-.678-.09a7.237 7.237 0 00-.901-5.291 4.856 4.856 0 00-3.518-6.495 10.095 10.095 0 00-9.863-8.24c-.118 0-.224.015-.337.018a4.827 4.827 0 00-7.383-.918 8.143 8.143 0 00-4.43-1.316 8.237 8.237 0 00-6.476 3.19 5.91 5.91 0 00-7.553 5.31 4.883 4.883 0 00-2.99 4.499c.003.34.043.68.118 1.012A9.548 9.548 0 0023 41.688c-.318.044-.643.084-.95.128a2.387 2.387 0 00-1.997 1.965l-.168 1.014h-2.297a2.373 2.373 0 00-2.328 1.92L10.065 73.39a3.56 3.56 0 003.502 4.238h24.742C39.29 79.247 42.276 80 45.09 80c2.785 0 5.741-.735 6.752-2.373h24.772a3.56 3.56 0 003.501-4.237l-5.194-26.666zM27.608 34.637a2.506 2.506 0 011.281-4.653 2.46 2.46 0 011.992 1.006 1.187 1.187 0 001.906-1.414 4.794 4.794 0 00-3.365-1.898 3.607 3.607 0 013.518-2.856c.145.007.289.023.432.047a7.79 7.79 0 00-.25.743 1.186 1.186 0 002.298.593 5.77 5.77 0 01.615-1.485 5.859 5.859 0 015.005-2.856 5.763 5.763 0 013.143.95 4.823 4.823 0 00-.28 1.555 1.186 1.186 0 102.374 0 2.496 2.496 0 014.991 0 1.186 1.186 0 102.373 0c0-.092-.023-.178-.027-.27a7.701 7.701 0 017.026 5.94 4.816 4.816 0 00-1.535.765 1.186 1.186 0 101.423 1.898 2.5 2.5 0 112.545 4.275 1.187 1.187 0 00.506 2.254c.174 0 .345-.038.503-.112.314-.153.611-.339.886-.554a5.067 5.067 0 01-1.004 5.06l-.028.03a5.124 5.124 0 01-6.051 1.11 4.703 4.703 0 01-.574-.358 4.04 4.04 0 00.313-4.177 1.187 1.187 0 10-2.12 1.068c.39.784.147 1.736-.572 2.236a1.79 1.79 0 01-2.577-.657 1.187 1.187 0 00-2.123 1.062 4.113 4.113 0 003.697 2.288 4.067 4.067 0 001.49-.293c.423.37.89.69 1.39.949a7.308 7.308 0 005.48.506 7.562 7.562 0 01-4.886 2.996 1.186 1.186 0 00.375 2.343 9.748 9.748 0 002.105-.614c.365.646.662 1.329.885 2.037.04.123.062.253.062.383 0 .513-.307.976-.779 1.177a1.343 1.343 0 01-1.531-.412 7.573 7.573 0 00-3.473-2.307c-2.564-.86-3.553-1.627-3.973-2.462a11.386 11.386 0 001.818-.38 1.187 1.187 0 00-.697-2.268 8.986 8.986 0 01-2.048.376 8.804 8.804 0 01-3.932-.594 1.186 1.186 0 00-1.33.331 5.08 5.08 0 01-8.194-5.94 1.19 1.19 0 10-2.041-1.223 7.481 7.481 0 00-.68 1.527 1.78 1.78 0 01-1.685-1.75v-.029a1.174 1.174 0 00-1.186-1.17 1.198 1.198 0 00-1.187 1.2 4.129 4.129 0 003.684 4.094c.004.398.04.795.108 1.187a7.25 7.25 0 01-8.203-9.93c.265.269.562.505.883.704a1.187 1.187 0 001.224-2.032v.004zm-5.22 9.531c.547-.08 1.111-.152 1.673-.225a9.58 9.58 0 0010.405 4.221 7.432 7.432 0 0011.641 1.973c.806.24 1.637.391 2.476.449.573 2.173 2.23 3.49 5.71 4.656a5.258 5.258 0 012.415 1.591 3.779 3.779 0 002.866 1.347c.484 0 .963-.098 1.409-.287a3.653 3.653 0 002.217-3.359 3.52 3.52 0 00-.18-1.122 12.969 12.969 0 00-1.049-2.415 10.002 10.002 0 003.943-6.03c.252-.3.48-.62.683-.956.397.051.795.097 1.195.163l4.283 25.762a40.726 40.726 0 00-25.798 0V55.084a1.186 1.186 0 00-2.373 0v14.857a40.734 40.734 0 00-25.798-.01l4.282-25.763zm-9.746 30.65a1.177 1.177 0 01-.249-.974l5.196-26.673h1.898l-3.723 22.375a2.381 2.381 0 003.062 2.65 39.692 39.692 0 0119.596-1.243l-.353 4.301H13.566c-.357 0-.697-.16-.924-.437zm32.448 2.809c-2.858 0-4.498-.845-4.738-1.22l.408-4.925c1.304.325 2.581.753 3.818 1.28.16.078.335.118.512.12a1.19 1.19 0 00.514-.12 25.278 25.278 0 013.817-1.288l.408 4.93c-.24.378-1.88 1.223-4.739 1.223zm32.448-2.81a1.195 1.195 0 01-.924.437H52.115l-.356-4.31A39.704 39.704 0 0171.364 72.2a2.38 2.38 0 003.052-2.656l-3.72-22.37h1.898l5.197 26.67c.066.346-.027.704-.253.974z" fill="#49B3F7"/><path d="M41.158 36.915a1.186 1.186 0 00-.084 1.675 7.154 7.154 0 003.802 2.193 3.534 3.534 0 01-2.887 1.489 1.186 1.186 0 000 2.372 5.884 5.884 0 005.527-3.804 7.16 7.16 0 005.858-5.695 1.187 1.187 0 10-2.33-.447 4.729 4.729 0 01-1.965 3.013 4.843 4.843 0 01-6.246-.712 1.186 1.186 0 00-1.675-.084zm-4.136-1.288c.656 0 1.187-.532 1.187-1.187a3.085 3.085 0 013.085-3.085 1.186 1.186 0 000-2.373 5.464 5.464 0 00-5.458 5.458 1.186 1.186 0 001.186 1.187zm9.255-23.254v-1.187a1.186 1.186 0 00-2.373 0v1.187a1.186 1.186 0 002.373 0zm18.283 6.141L63.374 19.7a1.186 1.186 0 101.678 1.678l1.186-1.187a1.186 1.186 0 10-1.678-1.677zm-38.59 3.211a1.187 1.187 0 00.838-2.025l-1.186-1.186a1.186 1.186 0 10-1.678 1.677l1.187 1.187c.222.222.524.347.838.347zm9.132-4.992a1.187 1.187 0 001.096-1.64l-1.363-3.29a1.186 1.186 0 10-2.191.91L34.005 16c.184.443.617.732 1.097.732zm21.792-5.571a1.187 1.187 0 00-1.55.642l-1.362 3.288a1.186 1.186 0 102.192.91l1.362-3.288a1.187 1.187 0 00-.642-1.552zM69.206 30.86c.156 0 .31-.031.454-.091l3.288-1.362a1.186 1.186 0 10-.908-2.193l-3.289 1.362a1.186 1.186 0 00.455 2.284zm-48.686-.092a1.187 1.187 0 00.91-2.192l-3.29-1.362a1.187 1.187 0 10-.907 2.192l3.288 1.362z" fill="#49B3F7"/></svg>