<svg width="90" height="90" fill="none" xmlns="http://www.w3.org/2000/svg"><path d="M33.132 43.578a1.17 1.17 0 01-.258-.732v-3.32a9.802 9.802 0 004.33-7.132h.124c.946 0 1.84-.413 2.452-1.133a3.23 3.23 0 00.722-2.617 3.119 3.119 0 00-1.052-1.848V22.6c0-4.191-3.41-7.601-7.601-7.601h-7.672c-.927 0-1.805.41-2.41 1.1A6.513 6.513 0 0015.48 22.6v4.195a3.117 3.117 0 00-1.053 1.848 3.23 3.23 0 00.723 2.617 3.214 3.214 0 002.451 1.133h.124a9.801 9.801 0 004.33 7.132v3.32c0 .525-.353.988-.859 1.126l-7.21 1.966A5.421 5.421 0 0010 51.156v4.324a3.21 3.21 0 001.096 2.416v12.927a1.025 1.025 0 102.05 0V58.695l.071.002h3.359v14.318a1.025 1.025 0 102.05 0V53.288a1.025 1.025 0 10-2.05 0v3.358h-3.359a1.168 1.168 0 01-1.166-1.166v-4.323a3.366 3.366 0 012.475-3.24l4.891-1.335 5.908 3.376c.66.378 1.4.566 2.14.566.74 0 1.48-.189 2.14-.566l1.468-.838a1.025 1.025 0 10-1.018-1.781l-1.468.839a2.272 2.272 0 01-2.245 0l-4.17-2.384a3.225 3.225 0 001.934-2.948v-2.28a9.742 9.742 0 006.717 0v2.28c0 .732.253 1.449.712 2.018a1.024 1.024 0 001.442.156c.44-.355.51-1.001.155-1.442zM17.531 22.601a4.46 4.46 0 014.454-4.454h.304c.365 0 .703-.194.886-.51a1.153 1.153 0 011.002-.586h7.672c3.06 0 5.55 2.49 5.55 5.55v3.367c-.062-.004-.125-.009-.188-.009h-.978a1.168 1.168 0 01-1.167-1.166c0-.502-.362-.93-.857-1.012L23.214 21.95a2.875 2.875 0 00-3.35 2.844c0 .643-.524 1.166-1.167 1.166h-.979c-.063 0-.125.005-.188.009V22.6zm2.192 8.768c0-.567-.46-1.026-1.026-1.026h-1.096a1.166 1.166 0 01-1.15-1.37c.088-.54.645-.963 1.267-.963h.98a3.222 3.222 0 003.216-3.222c0-.334.184-.539.293-.631a.818.818 0 01.67-.185l10.263 1.71a3.223 3.223 0 003.093 2.328h.978c.623 0 1.18.423 1.267.963a1.166 1.166 0 01-1.15 1.37h-1.096c-.566 0-1.025.46-1.025 1.026 0 4.269-3.473 7.742-7.742 7.742-4.27 0-7.742-3.473-7.742-7.742z" fill="#49B3F7"/><path d="M25.203 30.273v-1.096a1.025 1.025 0 00-2.05 0v1.096a1.025 1.025 0 002.05 0zm5.549-2.122c-.566 0-1.025.46-1.025 1.026v1.096a1.025 1.025 0 002.05 0v-1.096c0-.567-.459-1.026-1.025-1.026zm-1.955 5.391a2.77 2.77 0 01-2.667 0 1.025 1.025 0 10-.959 1.813c.73.386 1.5.582 2.293.582a4.86 4.86 0 002.292-.582 1.025 1.025 0 10-.96-1.813zm47.216 16.78l-3.597-.981c1-.363 1.963-.779 2.88-1.25a2.114 2.114 0 001.018-2.564 13.214 13.214 0 01-.7-4.294v-9.864c0-7.213-5.867-13.08-13.08-13.08s-13.08 5.867-13.08 13.08v7.672a1.025 1.025 0 102.05 0v-1.386c.367.143.762.22 1.166.22h.124c.515 4.919 4.687 8.767 9.74 8.767 1.18 0 2.31-.212 3.358-.596v1.184c0 1.447.975 2.723 2.371 3.104l2.507.684a8.876 8.876 0 01-8.236 5.629 8.896 8.896 0 01-1.965-.22 1.025 1.025 0 10-.454 2c.789.18 1.603.27 2.419.27 4.573 0 8.666-2.897 10.223-7.137l2.716.74a3.365 3.365 0 012.475 3.24v4.324c0 .643-.523 1.166-1.166 1.166h-3.359v-2.262a1.025 1.025 0 00-2.05 0v14.247a1.025 1.025 0 102.05 0v-9.934h3.358l.071-.002v7.744a1.025 1.025 0 102.05 0V62.28A3.21 3.21 0 0080 59.864V55.54a5.421 5.421 0 00-3.986-5.218zM51.504 31.369c0-6.082 4.948-11.03 11.03-11.03 6.082 0 11.03 4.948 11.03 11.03v.323a3.423 3.423 0 00-1.284-.253h-.978a1.168 1.168 0 01-1.167-1.166c0-.501-.362-.93-.857-1.012L58.284 27.43a2.875 2.875 0 00-3.35 2.844c0 .643-.524 1.166-1.167 1.166h-.979c-.452 0-.885.092-1.284.253v-.323zm3.288 5.48c0-.567-.46-1.026-1.026-1.026H52.67a1.166 1.166 0 01-1.15-1.37c.089-.54.645-.963 1.268-.963h.979a3.222 3.222 0 003.217-3.223c0-.333.183-.538.292-.63a.816.816 0 01.67-.185l10.264 1.71a3.223 3.223 0 003.092 2.328h.978c.623 0 1.18.423 1.268.963a1.166 1.166 0 01-1.15 1.37h-1.096c-.566 0-1.026.46-1.026 1.026 0 4.269-3.473 7.742-7.742 7.742s-7.742-3.473-7.742-7.742zm17.482 1.025h.124c.404 0 .799-.076 1.166-.22v3.578c0 2.17.442 3.898.812 4.966.01.029-.002.06-.018.069-1.738.894-3.655 1.577-5.7 2.037a1.169 1.169 0 01-.715-1.074v-2.224a9.8 9.8 0 004.33-7.132z" fill="#49B3F7"/><path d="M60.273 35.753v-1.096a1.025 1.025 0 00-2.05 0v1.096a1.025 1.025 0 102.05 0zm5.549-2.121c-.566 0-1.025.459-1.025 1.025v1.096a1.025 1.025 0 002.05 0v-1.096c0-.566-.458-1.025-1.025-1.025zm-1.952 5.39a2.77 2.77 0 01-2.668 0 1.025 1.025 0 10-.959 1.812c.73.386 1.501.582 2.293.582a4.86 4.86 0 002.292-.582 1.025 1.025 0 00-.959-1.812zM45 41.303c-6.608 0-11.984 5.376-11.984 11.985v2.192l.001.026a3.218 3.218 0 003.216 3.19h.13a8.618 8.618 0 002.581 5.217 8.76 8.76 0 001.743 1.314v1.663c0 .52-.334.969-.831 1.118l-3.767 1.13a4.287 4.287 0 00-3.073 4.131v.842a1.025 1.025 0 002.05 0v-.842c0-1.007.648-1.878 1.613-2.167l1.889-.567A9.74 9.74 0 0045 72.945a9.733 9.733 0 006.432-2.41l1.89.567a2.249 2.249 0 011.613 2.167v.842a1.025 1.025 0 002.05 0v-.842c0-1.92-1.235-3.58-3.073-4.131l-3.767-1.13a1.16 1.16 0 01-.831-1.118v-1.725a8.948 8.948 0 002.372-2.085h2.082a3.221 3.221 0 003.217-3.217v-6.576c0-6.608-5.376-11.984-11.984-11.984zm4.03 28.46a7.7 7.7 0 01-4.03 1.13 7.703 7.703 0 01-4.029-1.13 3.193 3.193 0 001.767-2.872v-.82a8.736 8.736 0 002.53.294 8.209 8.209 0 001.995-.31v.835c0 1.24.692 2.334 1.767 2.873zm-3.824-5.448a6.597 6.597 0 01-4.834-1.873 6.594 6.594 0 01-2.018-4.77c0-.567-.459-1.026-1.025-1.026h-1.096a1.166 1.166 0 01-1.15-1.37c.088-.54.644-.963 1.267-.963h.979a3.22 3.22 0 003.217-3.217v-.672c0-.011 0-.036.03-.057a.064.064 0 01.063-.01l7.857 2.62a4.603 4.603 0 013.15 4.373c0 3.734-2.889 6.858-6.44 6.965zm9.729-4.452c0 .644-.524 1.167-1.167 1.167h-.843a9.164 9.164 0 00.773-3.682 6.65 6.65 0 00-4.553-6.317l-7.858-2.62a2.127 2.127 0 00-1.91.292 2.126 2.126 0 00-.882 1.721v.672c0 .643-.523 1.166-1.166 1.166h-.979c-.438 0-.86.086-1.25.239.403-5.111 4.688-9.148 9.9-9.148 5.478 0 9.935 4.457 9.935 9.934v6.576z" fill="#49B3F7"/><path d="M42.748 55.48c0-.566-.46-1.025-1.026-1.025h-.01c-.567 0-1.02.46-1.02 1.026a1.03 1.03 0 001.03 1.025c.567 0 1.026-.46 1.026-1.026zm5.55-1.025h-.01c-.567 0-1.02.46-1.02 1.026a1.03 1.03 0 001.03 1.025 1.025 1.025 0 000-2.05zm-1.792 4.89c-.422.38-.957.59-1.506.59-.548 0-1.083-.21-1.505-.59a1.026 1.026 0 00-1.373 1.523A4.3 4.3 0 0045 61.985a4.3 4.3 0 002.879-1.117 1.025 1.025 0 10-1.373-1.523z" fill="#49B3F7"/></svg>