<svg width="90" height="90" fill="none" xmlns="http://www.w3.org/2000/svg"><path d="M71.299 15.494a1.025 1.025 0 10-1.372 1.524l.001.002-12.95 12.95-5.907-5.907c3.146-3.465 4.925-7.74 4.992-11.988a19.404 19.404 0 019.922 2.195 1.025 1.025 0 10.955-1.815c-8.353-4.396-18.533-2.748-25.107 3.82-5.198 5.199-7.534 12.927-5.606 20.456C23.242 35.225 12 45.423 12 58.292a21.646 21.646 0 005.821 14.794 1.025 1.025 0 101.5-1.398 19.85 19.85 0 01-.92-1.062h4.177a2.98 2.98 0 012.84 2.063l1.292 3.978a19.564 19.564 0 01-3.849-1.978 1.026 1.026 0 00-1.133 1.709A21.687 21.687 0 0033.708 80c14.145 0 24.656-13.445 20.982-27.284a21.435 21.435 0 0017.433-6.151c8.66-8.669 8.315-22.847-.824-31.071zm-17.294-3.213c-.131 3.605-1.716 7.341-4.388 10.329l-5.583-5.584a19.312 19.312 0 019.97-4.745zm-11.42 6.196l5.582 5.583c-2.986 2.67-6.72 4.255-10.328 4.385a19.31 19.31 0 014.745-9.968zm-4.952 12.026c4.248-.067 8.523-1.845 11.988-4.99l5.907 5.907-12.944 12.944a19.288 19.288 0 01-4.951-13.861zm9.075 22.487l-4.831 1.57a5.045 5.045 0 00-1.332-1.435l-3.877-2.817a5.034 5.034 0 00-1.935-.855v-5.166a5.034 5.034 0 001.935-.855l1.775-1.29a21.575 21.575 0 008.638 8.268c-.066.276-.522 1.208-.373 2.58zm-6.283 5.132l-1.482 4.558a2.978 2.978 0 01-2.839 2.063h-4.793a2.978 2.978 0 01-2.839-2.063l-1.481-4.558a2.978 2.978 0 011.085-3.338l3.877-2.817a2.99 2.99 0 013.51 0l3.877 2.817a2.978 2.978 0 011.085 3.338zm-3.518-19.225c.178.476.372.944.582 1.403l-2.027 1.473a2.98 2.98 0 01-3.509 0l-3.38-2.456a19.679 19.679 0 018.334-.42zm-10.64 1.202c.494.494.568.466 4.48 3.333.593.43 1.253.713 1.935.855v5.165a5.033 5.033 0 00-1.934.856l-3.878 2.817a5.042 5.042 0 00-1.331 1.435l-4.832-1.57a5.036 5.036 0 00-.218-2.105c-1.494-4.538-1.466-4.661-1.78-5.282a19.749 19.749 0 017.559-5.504zm-9.016 7.456l1.288 3.964a2.981 2.981 0 01-1.085 3.337l-3.379 2.455a19.533 19.533 0 013.176-9.756zm7.397 21.463a5.038 5.038 0 00-2.07-.443c-4.857.02-4.9-.047-5.587.063a19.565 19.565 0 01-2.886-8.891c.622-.316.634-.407 4.555-3.232a5.038 5.038 0 001.414-1.575l4.769 1.55a5.032 5.032 0 00.198 2.265l1.481 4.559c.215.662.558 1.255.994 1.756l-2.868 3.948zm13.734 8.369a19.717 19.717 0 01-9.348 0c-.108-.688-.189-.722-1.666-5.332a5.039 5.039 0 00-1.061-1.831l2.844-3.915c.66.312 1.394.485 2.16.485h4.793a5.04 5.04 0 002.16-.485l2.845 3.915a5.039 5.039 0 00-1.061 1.831c-1.479 4.614-1.559 4.647-1.666 5.332zm2.326-.727l1.29-3.971a2.981 2.981 0 012.84-2.063h4.164a19.748 19.748 0 01-8.294 6.034zm9.708-8.023c-.682-.108-.73-.043-5.578-.062a5.04 5.04 0 00-2.07.443L39.9 65.07a5.04 5.04 0 00.994-1.756l1.48-4.559c.244-.75.304-1.523.199-2.265l4.77-1.55a5.036 5.036 0 001.413 1.575c3.949 2.845 3.934 2.916 4.555 3.232a19.525 19.525 0 01-2.895 8.89zm-.455-13.78a2.984 2.984 0 01-1.084-3.338l.078-.241c1.121.455 2.29.816 3.495 1.077a19.6 19.6 0 01.89 4.956l-3.379-2.455zm7.934-4.092a19.289 19.289 0 01-13.86-4.95L56.977 32.87l5.906 5.906c-3.144 3.464-4.923 7.74-4.989 11.988zm2.058-.206c.13-3.605 1.715-7.342 4.385-10.328l5.583 5.583a19.31 19.31 0 01-9.968 4.745zm11.419-6.195l-5.584-5.583c2.988-2.672 6.724-4.256 10.329-4.387a19.31 19.31 0 01-4.745 9.97zm4.951-12.029c-4.246.067-8.523 1.846-11.988 4.992l-5.907-5.907 12.95-12.95a19.396 19.396 0 014.945 13.865z" fill="#49B3F7"/></svg>