<svg width="320" height="2310" fill="none" xmlns="http://www.w3.org/2000/svg"><path d="M182.219 1751.64l16.239-5.6c-11.982-29.93-38.723-32.25-50.76-30.52l7.161 17s15.191-1.86 27.36 19.12zm52.625-545.22l26.117-22.75c-45.028-46.87-96.764-30.98-117.955-18.65l26.241 26.36s26.983-14.98 65.597 15.04zM60.993 1092.48l21.173 27.41c49.439-42.19 36.624-94.78 25.558-116.66l-27.856 24.65s13.36 27.81-18.875 64.6zm44.804-627.255l-72.318 2.407C44.6 602.956 149.372 645.459 199.97 653.428l-7.744-77.311s-63.465-11.334-86.43-110.892z" fill="#fff"/></svg>