<svg width="213" height="213" fill="none" xmlns="http://www.w3.org/2000/svg"><path d="M167.36 171.076l-.156 1.14a3 3 0 01-3.379 2.565l-84.56-11.597a3 3 0 01-2.563-3.379l.156-1.139 90.502 12.41z" fill="#8F7ECE"/><path d="M84.813 100.649a3 3 0 013.381-2.564l84.558 11.595a3 3 0 012.564 3.38l-7.956 58.017-90.503-12.411 7.956-58.017z" fill="#8F7ECE"/><path opacity=".75" d="M165.025 170.745l7.663-55.883a2.843 2.843 0 00-2.431-3.204L90.064 100.66a2.843 2.843 0 00-3.203 2.433l-7.664 55.883 85.828 11.769z" fill="#fff"/><path fill-rule="evenodd" clip-rule="evenodd" d="M165.494 163.839c-.947 1.049-1.386 3.393-1.677 5.722-.126.997-.3 2.613.578 2.826 1.056.257 1.548-1.549 1.719-2.195.549-2.045.798-4.625.528-6.039-.194-.271-.771-.407-1.148-.314zm-3.912 5.303c-2.074-.949-3.353 3.871-1.483 4.151.813.121 2.301-1.98 2.213-3.208-.035-.44-.371-.778-.73-.943z" fill="#fff"/><path fill-rule="evenodd" clip-rule="evenodd" d="M123.418 106.681c0 18.663 15.129 33.791 33.791 33.791 18.661 0 33.79-15.128 33.79-33.791 0-18.662-15.129-33.79-33.79-33.79-18.662 0-33.791 15.128-33.791 33.79z" fill="#EFAD1B"/><path d="M166.135 130.74c.416-1.454.747-2.887 1.926-3.75.399-.292 1.107-.529 1.719-.667 1.311-.294 2.631-.241 4.029-.244 1.422-.003 2.924-.118 3.82-.771.627-.457.935-1.199 1.121-2.034.207-.916.213-2.01-.139-2.908-.066-.167-.157-.345-.246-.562-.076-.185-.14-.363-.245-.595-.081-.179-.142-.278-.21-.526-.054-.195-.12-.549-.069-.806.163-.841 1.212-1.147 1.225-2.033.003-.213 0-.368-.106-.491-.062-.074-.281-.217-.314-.385-.058-.302.383-.664.42-1.051.072-.744-.673-1.145-.701-1.893-.02-.544.25-.992.631-1.296.054-.044.145-.054.211-.106.056-.045.085-.14.14-.175.136-.086.312-.126.456-.211.491-.288 1.028-.711 1.26-1.191.294-.602.182-1.441-.174-2.068-.077-.135-.218-.281-.316-.42a11.763 11.763 0 00-.946-1.157c-.878-.969-1.862-1.875-2.769-2.838a15.187 15.187 0 01-.982-1.122c-.247-.321-.598-.674-.804-1.087-.026-.05-.037-.17-.071-.245-.29-.644-.201-1.665-.141-2.419.071-.883.219-1.725.071-2.732-.164-1.122-.758-2.244-1.297-3.155a20.19 20.19 0 00-.876-1.368c-1.488-2.108-3.467-4.283-5.362-5.748-.316-.244-.63-.465-.98-.7-.32-.214-.61-.409-.949-.596-.466-.259-.921-.53-1.436-.772-1.719-.804-3.613-1.437-5.678-1.752-.608-.092-1.223-.145-1.858-.21-.619-.063-1.255-.149-1.892-.175-.426-.018-.821.039-1.226.036-2.845-.03-5.4.564-7.466 1.506-.29.132-.563.283-.841.42-.863.427-1.664.835-2.488 1.332-.813.49-1.436 1.054-2.103 1.682a16.89 16.89 0 00-1.226 1.297c-.193.225-.394.463-.525.736-.206.129-.295.364-.421.56-.124.194-.273.367-.386.562-.109.185-.174.4-.28.596-.226.413-.426.8-.631 1.296-.057.139-.147.29-.21.456-.019.05.014.102 0 .14a14.13 14.13 0 00-.456 1.367c-.186.69-.342 1.355-.456 2.139-.062.437-.14.988-.176 1.576a26.23 26.23 0 00-.033 1.648c.016 2.262.4 4.518.947 6.519.063.235.171.464.244.701.919 3.016 2.226 5.334 3.821 7.605.256.364.569.698.841 1.051.274.357.543.718.805 1.087.532.747 1.054 1.5 1.508 2.313.453.815.871 1.687 1.156 2.629.152.505.316 1.045.351 1.577.13 2.018-2.489 10.385-3.889 15.271a33.62 33.62 0 0015.748 3.89c2.084 0 4.125-.19 6.105-.552.88-2.833 1.815-5.864 2.082-6.763.234-.789.501-1.601.737-2.418z" fill="#fff"/><path opacity=".67" d="M157.717 128.637c-.229-1.145-.852-2.001-1.026-3.154-.177-1.162.201-2.133.673-2.838 1.27-1.898 3.817-2.321 6.453-2.805.866-.159 1.888-.409 2.92-.42 1.036-.013 2.362-.026 2.793.525.361.462.235 1.588.352 2.454.081.592.316 1.717.996 1.717.507 0 .684-.583.738-1.017.063-.492.065-1.173.065-1.717 0-1.246.189-2.631-.065-3.4-.513-1.553-2.629-1.636-4.654-1.402-2.724.315-4.765 1.124-7.062 1.893-.54.181-1.104.392-1.701.561-.539.153-1.296.347-1.893.316-.421-.023-1.057-.234-1.187-.736-.131-.491.119-1.106.288-1.508.929-2.219 2.957-2.909 5.392-3.469 1.949-.449 3.979-.571 6.26-.386 2.649.215 5.079.721 7.672.49.575-.051 1.058-.272 1.123-.631.118-.653-.592-1.41-.898-1.821-.431-.58-.792-1.057-1.189-1.508-.882-1.003-1.73-1.927-2.535-2.838-.868-.983-1.782-1.845-3.019-2.314-1.266-.481-2.873-.473-4.589-.561-1.262-.064-3.647-.195-4.591.351-.768.443-1.166 1.528-1.379 2.593-.157.784-.215 1.64-.483 2.348-.541 1.443-1.788 2.243-3.016 3.014-.863.542-1.918 1.127-2.473 2.033-.861 1.411-.736 3.645-.833 5.923-.186 4.356-.294 8.808-1.125 12.443-.37 1.627-1.61 4.452-2.214 6.284a33.689 33.689 0 007.807 1.362c.772-2.694 1.564-6.081 2.143-8.382.265-1.048.496-2.207.257-3.4z" fill="#CAD309"/><path opacity=".29" fill-rule="evenodd" clip-rule="evenodd" d="M162.349 105.82c-.7.278-1.052 1.186-1.365 1.893-.334.751-.663 1.539-1.018 2.138-.707 1.196-1.825 2.325-3.047 3.259-1.114.849-2.379 1.785-3.786 2.524-.631.33-1.457.72-2.313.84-.865.122-1.867-.046-2.525-.595-.956-.8-.795-2.568-.314-3.75.651-1.607 1.718-2.722 2.839-3.82.511-.502 1.255-1.145 1.367-1.963.062-.451-.049-.911-.106-1.297-.065-.454-.135-.902-.033-1.332.289-1.251 1.793-2.002 2.873-2.419 1.221-.471 2.601-.749 3.925-.981 1.341-.235 2.923-.285 4.556-.35 1.683-.067 3.422.222 4.347-.49.808-.624.715-2.004.455-3.156-.265-1.174-.562-2.063-.631-3.504-.038-.812.075-1.783.701-1.542.671.256 1.451.98 2.033 1.611.838.911 1.741 1.815 2.173 3.05.53 1.514.14 3.867.349 5.537.085.665.236 1.456.107 2.033-.182.808-.666 1.635-1.578 1.857-1.156.521-7.867.004-9.009.457z" fill="#8F7ECE"/><path opacity=".41" fill-rule="evenodd" clip-rule="evenodd" d="M176.101 120.717c-.019-.006-.03-.033-.069-.035-.735-.043-.673.981-.843 1.297-.194.364-.934.423-1.542.455-1.399.075-2.369.035-3.89.035-.544 0-1.453-.15-1.683.21-.166.261.017.778.07.947.286.883.912.971 2.138 1.017.527.019 1.095.061 1.613.105 1.145.096 2.373.265 3.258.174.522-.052.95-.275 1.088-.596.173-.403.021-.928.069-1.612.042-.572.202-.93.176-1.296-.026-.359-.127-.624-.385-.701zm-22.634-36.211c1.87 0 3.607.318 5.118.771 1.435.431 2.966 1.049 4.134 1.753 1.151.692 2.366 1.664 2.909 2.978.669 1.62.188 3.65-.526 4.767-.931 1.459-3.243 1.748-5.116 2.173-1.382.314-2.764.674-4.066.982-.709.167-1.357.307-1.963.526-1.772.636-3.389 1.737-4.206 3.364-.402.8-.581 1.612-.947 2.349-.649 1.312-1.82 2.928-3.714 2.943-.979.008-1.745-.36-2.488-.84-1.314-.851-2.211-2.121-2.838-3.787-.609-1.61-.992-3.483-.703-5.747.218-1.693.895-3.623 1.649-4.977.848-1.525 1.645-2.72 2.838-3.82 2.168-2.002 5.591-3.638 9.847-3.435h.072zm9.253 3.015c-.039-.005.088.08.139.105.097.043.009-.09-.139-.105z" fill="#FF5000"/><path fill-rule="evenodd" clip-rule="evenodd" d="M127.64 99.945c.547 1.011.446 2.946.23 4.841-.09.809-.261 2.12-.993 2.121-.883-.001-.928-1.519-.941-2.061-.042-1.72.253-3.806.737-4.868.207-.178.688-.176.967-.032zm2.076 4.936c1.818-.353 1.91 3.697.378 3.562-.665-.062-1.439-2.004-1.135-2.956.113-.342.441-.543.757-.606zm-1.434 10.406c.628-.193 1.236.541 1.534 1.447.237.727.363 2.228-.52 2.225-.388 0-.953-.525-1.217-1.271-.314-.873-.608-2.155.203-2.401zm54.643-22.82c1.91-.089-.484-4.426-1.561-2.882-.563.805.786 2.369 1.561 2.882zm2.948 1.558c-.315-.254-1.096-.606-1.56.066-.606.874.298 2.809.511 3.644.257 1.016.286 3.044 1.425 3.357 1.624.445 1.1-2.557.874-3.582-.118-.545-.288-1.068-.411-1.523-.212-.78-.233-1.472-.839-1.962zm-26.228 65.046c-.232 1.396-.697 3.547-1.041 5.302-.169.877-.206 2.104-1.237 1.833-.748-.197-.639-.957-.549-1.513.221-1.379.507-2.533.791-3.955.141-.703.406-1.474.352-1.955-.061-.539-.524-.829-.678-1.338-.402-1.328-.34-2.738-.3-4.422.015-.623-.217-4.442 1.204-4.045.738.205.517 1.225.464 2.055-.128 2.032-.127 3.553.222 5.464.177.981.206 1.29 1.02.446 1.041-1.079 1.855-2.863 2.607-4.622.383-.897.67-2.392 1.586-2.227 1.31.236.557 1.497.019 2.776-1.121 2.677-2.425 5.373-4.46 6.201zm-30.439-12.868c.543 3.823-1.447 9.779-4.378 11.364-.431.233-1.048.42-1.622.333-1.126-.171-1.826-1.049-2.077-1.789-.907-2.666-.004-7.707 1.657-11.61.472-1.109 1.172-2.942 1.904-3.174.24-.078.6.048.912.061.381.016.611-.027.851.044 1.523.456 2.055 2.04 2.42 3.148 1.002-.297 1.932-2.331 2.955-2.674.409-.137.964.237.937.666-.026.444-.474.769-.78 1.105-.883.972-1.793 1.885-2.779 2.526zm-3.622-3.359c-.768 1.375.444 2.743 1.928 2.543-.193-1.045-.551-2.493-1.928-2.543zm-1.422 2.183c.016-.066-.064-.071-.078.044-.4.918-.711 2.02-1.036 3.157-.599 2.101-.893 4.051-.754 5.893.059.77.196 2.036.947 2.262.997.3 2.019-1.095 2.508-1.806 1.448-2.107 2.265-5.418 2.01-7.725-1.482.304-3.189-.76-3.597-1.825zm21.222 5.201c.421 3.302-1.633 8.27-3.806 10.067-.978.807-2.939 1.346-3.93-.193-1.077-1.672-.648-5.126.317-8.542.388-1.378.968-2.597 1.43-3.84.4-1.081.566-1.896 1.332-2.341.553-.321 1.633-.425 2.404-.044 1.063.526 1.663 2.18 1.98 3.29.699-.06 2.229-2.349 3.061-2.115.319.09.543.432.536.684-.023.71-1.074 1.343-1.563 1.746-.681.562-1.164.868-1.761 1.288zm-2.044-2.376c-.194-.4-.584-1.033-.858-1.175-.964-.499-1.566.365-1.543 1.218.026 1.041 1.732 1.791 2.804 1.333-.075-.363-.171-.901-.403-1.376zm-3.271 1.92c-.352.676-.56 1.806-.789 2.762-.465 1.948-.882 3.518-.745 5.165.055.674.181 1.789.833 1.964.771.209 1.79-1.023 2.269-1.674 1.329-1.804 2.464-4.972 2.333-7.235-1.215.288-3.081-.188-3.849-1.166l-.052.184zm14.943 1.15c-1.172-.323-.921-1.079-1.753-1.299-.973-.255-1.806.888-2.404 1.904-1.19 2.023-2.134 4.784-2.228 7.33-.039 1.042.011 2.732.815 2.955.477.132.876-.404 1.203-.718.396-.385.693-.684.92-1.131-.859-.174-2.247-.033-1.963-1.026.169-.598.925-.473 1.578-.412.876.082 1.838.163 2.35.605.795.686.208 3.12.034 4.525-.112.897-.119 1.944-.974 1.78-.809-.156-.615-1.258-.56-1.754.096-.867.216-1.341.367-2.218-.983 1.319-3.165 2.849-4.568.885-1.72-2.408.112-11.025 3.254-13.478.635-.496 1.797-1.007 3.035-.395.511.253 2.227 1.979.894 2.447zm-20.213-7.57c-.082 1.311-.674 2.587-.982 3.902-.896 3.816-2.157 7.845-2.378 11.339 1.112.664 3.828.288 3.526 1.605-.137.596-.599.608-1.578.412-1.247-.25-2.55-.356-3.14-1.096-.521-.656-.138-2.454.097-3.824.6-3.484 1.516-7.114 2.764-10.829.352-1.053.659-2.571 1.691-1.509zm-22.263 4.726c1.202.887 2.487 2.541 1.366 4.507-.654 1.148-3.317 3.423-4.734 2.63-.953-.533-.314-2.455.009-3.981.793-3.752 1.733-7.458 2.911-11.584.415-1.453.308-2.208 1.658-1.85 3.126.829 4.94 2.746 3.727 5.779-.946 2.363-3.354 3.434-4.937 4.499zm3.56-5.026c.759-1.879-.215-3.216-2.508-3.77-.704 2.526-1.124 4.893-1.86 7.435 1.163-.569 3.596-1.75 4.368-3.665zm-5.982 10.708c.844-.244 2.144-1.009 2.561-1.991.607-1.43-.579-2.146-1.438-2.868-.451 1.661-.743 3.236-1.123 4.859zm10.603-13.635c1.023-.003.509 1.195.264 2.333-.916 4.243-1.856 8.614-2.991 13.021-.211.817-.431 1.404-1.079 1.219-.65-.185-.511-.848-.298-1.745 1.074-4.514 1.993-8.592 3.068-13.065.22-.908.396-1.761 1.036-1.763z" fill="#fff"/><path d="M121.454 135.616a.545.545 0 01-.259-.066c-3.666-1.991-6.128-5.285-6.583-8.809-.231-1.783.125-3.456.978-4.617-.245-3.529 2.246-7.879 4.21-9.957a.54.54 0 11.786.743c-1.597 1.693-3.679 5.188-3.911 8.18a4.624 4.624 0 012.056-.716c1.432-.157 3.495.251 4.643 1.515.707.778.96 1.763.734 2.847-.185.89-.727 1.565-1.567 1.952-1.343.62-3.143.342-4.226-.25-1.157-.633-1.953-1.527-2.381-2.668-.292.816-.383 1.795-.25 2.832.413 3.181 2.664 6.171 6.028 7.997a.54.54 0 01.217.734.536.536 0 01-.475.283zm-4.741-13.155l.007.046c.209 1.324.921 2.328 2.114 2.981.826.451 2.247.682 3.253.217.524-.242.848-.642.962-1.19.154-.741-.007-1.38-.477-1.898-.853-.94-2.518-1.298-3.724-1.166-.879.096-1.597.436-2.135 1.01z" fill="#fff"/><path d="M120.038 116.455l-.024-.001a.54.54 0 01-.516-.565l.115-2.511-2.536 1.09a.54.54 0 11-.427-.994l3.328-1.433a.538.538 0 01.754.522l-.154 3.375a.54.54 0 01-.54.517zm12.256 23.694a.612.612 0 01-.542-.754c.089-.369.154-.752.187-1.14.226-2.559-.875-4.836-2.403-4.969-2.266-.201-3.81-2.967-3.516-6.296.071-.807 1.291-.7 1.218.106-.226 2.561.875 4.835 2.406 4.97 2.263.2 3.808 2.965 3.514 6.297a9.036 9.036 0 01-.217 1.323.612.612 0 01-.647.463z" fill="#fff"/><path d="M125.062 139.013c-.237-3.589 1.791-7.193 4.581-6.946 1.529.135 3.011-1.913 3.236-4.473.071-.805 1.29-.698 1.22.108-.294 3.331-2.3 5.785-4.564 5.585-1.53-.137-3.012 1.912-3.236 4.47-.036.395-.041.79-.015 1.175.052.809-1.166.888-1.222.081z" fill="#fff"/><path d="M127.729 134.853a.27.27 0 00.251.29l2.686.199a.274.274 0 00.29-.252.272.272 0 00-.251-.289l-2.684-.199a.273.273 0 00-.292.251zm-.338 1.812l3.632.267c.15.012.28-.099.29-.25a.27.27 0 00-.25-.29l-3.631-.267a.27.27 0 10-.041.54zm3.92 1.287l-4.354-.321a.27.27 0 00-.29.25.27.27 0 00.25.291l4.354.32c.148.012.279-.1.291-.25a.272.272 0 00-.251-.29zm-2.743-7.21l2.295.169c.15.012.28-.101.29-.25a.27.27 0 00-.251-.291l-2.294-.169a.271.271 0 10-.04.541zm3.105-1.608a.27.27 0 00-.251-.29l-3.104-.229a.27.27 0 10-.04.54l3.106.23a.27.27 0 00.289-.251zm-3.589-1.534l3.72.275a.27.27 0 00.291-.251.27.27 0 00-.25-.291l-3.721-.274a.272.272 0 00-.04.541z" fill="#fff"/><path fill-rule="evenodd" clip-rule="evenodd" d="M88.58 49.053c-.294 1-2.811 7.092-3.871 9.606-.927 2.198-4.292 7.893-4.81 8.536-.294.3-.571.588-.786.798-.387.377-.791.769-1.169 1.126-.356.337-1.534 1.439-1.137 1.866.328.354 1.337-.826 1.71-1.019-.288.606-.581 1.637-.596 2.708-.003.283-.044.877.233.911.378.045.431-.427.503-.64.097-.3.206-.513.241-.777.07.382-.025 1.256.133 1.692.05.14.175.29.316.28.332-.026.32-.492.379-.802.076-.418.16-.691.208-.98-.003-.012-.003-.027-.003-.037l.003.03v.008c.028.32-.043 1.235.096 1.66.055.17.178.354.361.335.385-.044.369-.813.407-1.082.063-.47.138-.796.18-1.197.092.315.007 1.259.15 1.812.058.23.177.483.413.447.296-.044.365-.681.395-.897.15-1.03.325-2.18.627-2.989a8.625 8.625 0 01.85-1.69c1.662-2.141 4.671-6.667 5.828-9.054 1.195-2.464 3.839-7.883 4.444-9.926-.931.107-4.258-.589-5.105-.725z" fill="#FCD2C0"/><path opacity=".13" d="M86.173 59.252c.031-.157-.661-.597-1.319-.942l-.145.348a10.01 10.01 0 01-.2.443c.716.235 1.634.308 1.664.151z" fill="#000"/><path d="M94.97 40.406c-1.846.107-2.953 1.85-3.69 2.95-2.005 2.994-3.154 6.036-4.487 9.357l6.022 2.804c1.062-1.759 2.068-3.545 2.916-5.361.474-1.018.973-2.162 1.343-3.408.345-1.176.603-2.59.313-3.975-.287-1.371-1.176-2.44-2.416-2.367z" fill="#B1BC00"/><path fill-rule="evenodd" clip-rule="evenodd" d="M116.498 99.119l5.855-.137-.268-7.343-5.853.137.266 7.343z" fill="#FCD2C0"/><path fill-rule="evenodd" clip-rule="evenodd" d="M115.566 98.601c-1.441.374-2.769.814-3.825 1.675-.32.257-.78.615-.734 1.055.06.587 1.11.748 1.994.847 1.858.205 3.594.257 5.542.23 1.575-.022 2.998-.166 3.545-1.072.401-.667.51-1.521.637-2.38.125-.857.156-1.705.052-2.725-1.317-.21-3.08-.33-4.799-.3.073-1.012-.511-1.392-1.587-1.486-.369-.032-.991-.003-1.157.179-.336.372.16 3.367.332 3.977z" fill="#FF5000"/><path d="M114.193 95.758a.53.53 0 01.531.06c.621.43.997 2.255.924 2.624a.153.153 0 01-.096.11.178.178 0 01-.156-.02c-.466-.306-1.467-1.533-1.523-2.23-.013-.19.038-.336.159-.438a.635.635 0 01.161-.106zm1.127 2.316c-.075-.592-.387-1.741-.789-2.019-.089-.062-.144-.05-.192-.03a.592.592 0 00-.088.057c-.041.038-.058.105-.052.202.038.466.656 1.338 1.121 1.79z" fill="#4D3D87"/><path d="M112.97 96.673c.147-.066.332-.06.553.019.772.275 1.888 1.41 2.03 1.735a.13.13 0 01-.017.14.159.159 0 01-.141.06c-.569-.035-2.117-.602-2.568-1.174-.123-.153-.166-.304-.124-.446a.491.491 0 01.267-.334zm2.091 1.598c-.356-.41-1.114-1.112-1.652-1.304-.131-.047-.231-.056-.294-.027-.042.021-.076.07-.103.146-.012.052.01.119.074.2.304.381 1.321.823 1.975.985z" fill="#4D3D87"/><path d="M112.992 98.699l2.382-.363.058.292-2.381.362-.059-.291z" fill="#4D3D87"/><path d="M112.857 100.321c1.549.633 3.418.355 4.419-.536.884-.786 1.142-1.977 1.244-3.434.007-.124.021-.27.031-.424-.193 0-.382.001-.572.004.012-.15.007-.284-.012-.408.008.087.015.172.012.257-.068 1.862-.519 4.306-3.262 4.327a4.132 4.132 0 01-1.742-.352 1.414 1.414 0 01-.229-.138 6.64 6.64 0 00-.588.349c.22.154.499.274.699.355zm9.539-1.331c-1.864-.229-2.816.8-3.245 2.096-.099.301-.356 1.019-.204 1.311.159-.005.316-.011.47-.02.13-.211.153-.605.235-.91.407-1.542 1.104-2.138 2.706-1.947.092.01.181.045.27.077.031-.184.057-.371.086-.558a3.516 3.516 0 00-.318-.049z" fill="#fff"/><path d="M121.899 101.578c-.642.69-1.936.808-3.357.829-1.948.028-3.684-.025-5.542-.23-.791-.086-1.713-.227-1.941-.676l10.84.077z" fill="#4D3D87"/><path fill-rule="evenodd" clip-rule="evenodd" d="M114.24 66.09c1.775 10.61.951 16.122 1.487 26.22.368.225 6.11.402 7.392.47 1.879-10.867 1.81-17.315.765-29.386-3.385 1.412-6.694 2.054-9.644 2.696z" fill="#8F7ECE"/><path opacity=".13" fill-rule="evenodd" clip-rule="evenodd" d="M114.24 66.09c1.775 10.61.951 16.122 1.487 26.22.368.225 6.11.402 7.392.47 1.879-10.867 1.81-17.315.765-29.386-3.385 1.412-6.694 2.054-9.644 2.696z" fill="#000"/><path fill-rule="evenodd" clip-rule="evenodd" d="M122.6 73.11c-.099.427.356 1.394.797 1.255.455-.143-.059-1.108-.381-1.391-.121-.042-.318.02-.416.136zm-.083 2.424c-.654-.028-.232.895.067 1.469.202.39.481.829.768.684.402-.2-.356-1.907-.694-2.125a.364.364 0 00-.141-.028z" fill="#fff"/><path fill-rule="evenodd" clip-rule="evenodd" d="M75.007 101.8c-.432.008-.8.26-1.373.537-.035.017-1.192.665-1.267.643-.115-.034-.788-1.64-.88-1.838-1.379-2.99-2.749-6.111-4.391-8.983-.175-.304-.35-.621-.53-.94-.147-.64-.42-1.505-.554-2.027a86.07 86.07 0 01-.349-1.375c-.1-.418-.422-1.789-.974-1.724-.454.053.017 1.343-.01 1.7-.356-.503-1.06-1.222-1.937-1.767-.23-.143-.699-.468-.865-.291-.228.242.135.513.277.67.197.218.32.398.523.555-.352-.14-1.026-.645-1.463-.752-.142-.034-.327-.021-.389.083-.142.242.247.466.474.662.307.264.487.456.703.634a.492.492 0 01.005.005l-.005-.005c-.274-.14-.997-.644-1.416-.761-.17-.047-.382-.053-.456.085-.156.29.487.662.692.823.354.278.584.494.896.722-.307-.092-1.044-.621-1.57-.8-.22-.071-.487-.116-.573.066-.112.23.38.596.54.725.777.617 1.64 1.313 2.154 1.927.437.52.777 1.032 1.06 1.6.907 4.061 1.952 8.625 3.197 12.69.234.759.484 1.604.82 2.454.489 1.243 1.138 2.971 3.087 2.845 1.074-.07 2.228-.612 3.302-1.035 1.084-.429 2.194-.832 3.064-1.394-.533-1.944-1.295-3.771-1.792-5.734z" fill="#FCD2C0"/><path opacity=".13" fill-rule="evenodd" clip-rule="evenodd" d="M75.007 101.8c-.432.008-.8.26-1.373.537-.035.017-1.192.665-1.267.643-.115-.034-.788-1.64-.88-1.838-1.379-2.99-2.749-6.111-4.391-8.983-.175-.304-.35-.621-.53-.94-.147-.64-.42-1.505-.554-2.027a86.07 86.07 0 01-.349-1.375c-.1-.418-.422-1.789-.974-1.724-.454.053.017 1.343-.01 1.7-.356-.503-1.06-1.222-1.937-1.767-.23-.143-.699-.468-.865-.291-.228.242.135.513.277.67.197.218.32.398.523.555-.352-.14-1.026-.645-1.463-.752-.142-.034-.327-.021-.389.083-.142.242.247.466.474.662.307.264.487.456.703.634a.492.492 0 01.005.005l-.005-.005c-.274-.14-.997-.644-1.416-.761-.17-.047-.382-.053-.456.085-.156.29.487.662.692.823.354.278.584.494.896.722-.307-.092-1.044-.621-1.57-.8-.22-.071-.487-.116-.573.066-.112.23.38.596.54.725.777.617 1.64 1.313 2.154 1.927.437.52.777 1.032 1.06 1.6.907 4.061 1.952 8.625 3.197 12.69.234.759.484 1.604.82 2.454.489 1.243 1.138 2.971 3.087 2.845 1.074-.07 2.228-.612 3.302-1.035 1.084-.429 2.194-.832 3.064-1.394-.533-1.944-1.295-3.771-1.792-5.734z" fill="#000"/><path opacity=".13" fill-rule="evenodd" clip-rule="evenodd" d="M61.724 88.962c-.044-.086-.068-.297-.057-.433.067-.791.845-1.626 1.4-1.775-.43.306-1.094.937-1.343 2.208zm2.989-1.218a3.314 3.314 0 00-.69 1.994c-.41-.523.097-1.785.69-1.994z" fill="#fff"/><path opacity=".13" fill-rule="evenodd" clip-rule="evenodd" d="M71.64 101.488c-.316.725-1.209 3.001-.894 3.384.248.307 1.631-1.574 1.622-1.891l-.728-1.493z" fill="#000"/><path fill-rule="evenodd" clip-rule="evenodd" d="M74.144 102.02c.298 1.196.577 2.401 1.204 3.431 2.041-.709 4.053-1.48 5.89-2.595.653-1.365 1.605-2.146 2.567-2.908-.911-.848-2.305-.5-3.342-.255-2.095.496-4.658 1.398-6.319 2.327z" fill="#EFAD1B"/><path fill-rule="evenodd" clip-rule="evenodd" d="M72.292 69.957A46.607 46.607 0 0197.06 84.004c6.42 6.993 10.902 15.179 13.083 25.519 1.118 5.31 1.394 12.204.857 17.907-1.087 11.559-4.985 20.501-10.079 28.522-1.632 2.569-3.988 5.699-6.22 8.257-.65.744-1.696 2.279-2.358 2.466-1.211.343-3.248-.014-4.934 0-10.524.091-22.51.096-33.133-.322-1.741-8.824-2.235-17.858-5.68-24.661-2.631-5.194-6.282-8.691-10.617-12.117-.685-.543-1.38-1.107-2.145-1.608-.674-.442-1.79-.731-2.037-1.716 2.34.102 4.593.92 6.863 1.501 4.52 1.157 9.064 2.178 13.725 3.217 2.276.507 4.492 1.357 6.756 1.716 10.893 1.724 19.052-3.472 23.697-9.651 2.528-3.363 4.214-7.3 4.718-12.331.494-4.945-.748-10.127-2.79-13.939-3.876-7.245-10.885-12.023-20.8-13.081 2.075-4.61 4.233-9.135 6.326-13.726z" fill="#8F7ECE"/><path fill-rule="evenodd" clip-rule="evenodd" d="M25.006 117.137c-.09.006.85-.039 1.18 0 2.98.347 6.114 1.405 9.22 2.145 6.526 1.552 11.045 2.866 17.693 4.825 3.206.945 6.53 1.858 7.293 3.967.744 2.062-.523 4.282-1.826 4.826-1.37.571-3.771.016-5.36-.322-5.253-1.118-9.595-2.531-14.26-4.074-4.433-1.468-9.494-2.532-13.726-4.612-1.781-.875-4.078-2.332-2.895-5.146.389-.925 1.332-1.514 2.681-1.609z" fill="#4D3D87"/><path opacity=".46" fill-rule="evenodd" clip-rule="evenodd" d="M93.2 166.139c-11.476-.029-23.547.02-35.17-.644-.32-6.025.055-13.38 1.502-18.549.979-3.502 2.358-7.554 7.078-6.434 3.082.732 5.748 3.283 7.827 5.362 5.393 5.393 10.488 11.467 15.763 16.941.549.572 1.077 1.185 1.607 1.716.504.504 1.216.893 1.394 1.608z" fill="#fff"/><path d="M92.343 166.782c.662-.188 1.709-1.723 2.36-2.467 2.23-2.557 4.587-5.688 6.219-8.257 5.094-8.02 8.992-16.962 10.078-28.522.537-5.702.262-12.596-.857-17.906-2.181-10.341-6.663-18.527-13.083-25.52a46.603 46.603 0 00-24.768-14.046c-.247.542-.497 1.08-.747 1.62.126.033.238.064.317.095 2.019.766 3.975 1.942 6.007 3.002 1.974 1.031 4.043 2.058 5.897 3.217 11.074 6.924 19.212 17.741 20.48 34.205.911 11.842-1.591 22.536-5.04 30.881-2.695 6.522-6.199 12.068-9.972 17.371-1.139 1.6-3.647 4.469-2.909 6.335l1.085-.009c1.686-.014 3.722.343 4.933.001z" fill="#4D3D87"/><path fill-rule="evenodd" clip-rule="evenodd" d="M102.85 109.804c2.137.478.805-5.035-.852-3.655-.864.719.151 2.854.852 3.655zm2.787 2.612c-.27-.377-1.029-1-1.742-.4-.934.783-.521 3.194-.538 4.18-.023 1.2-.605 3.448.558 4.138 1.659.983 1.986-2.492 2.049-3.692.033-.638.004-1.265.007-1.807.002-.925.188-1.696-.334-2.419zm-35.678 30.313c.534-1.279 2.429-2.65 4.37-3.882.831-.527 2.19-1.36 2.746-.672.667.828-.726 2.019-1.225 2.444-1.581 1.34-3.765 2.643-5.13 2.994-.321-.06-.684-.512-.761-.884zm3.061-5.688c-1.707-1.441 2.026-4.593 3.06-3.052.444.671-.79 2.869-1.916 3.305-.408.153-.845-.004-1.143-.253zm10.86-6.534c-.658-.442-.428-1.57.197-2.534.504-.775 1.818-2.03 2.482-1.2.296.366.23 1.294-.269 2.109-.583.955-1.564 2.2-2.41 1.625z" fill="#fff"/><path fill-rule="evenodd" clip-rule="evenodd" d="M56.85 99.75c-.654 1.389-1.213 2.796-2.036 4.396-1.165 2.267-2.47 4.436-5.897 3.324-1.546-.501-3.969-1.713-4.504-3.002-1.061-2.556 1.43-6.293 2.251-8.364.051-.128-.062-.322.107-.322 3.444 1.24 6.849 2.517 10.08 3.968zm18.123-39.443c-2.103-.016-3.822-.96-5.361-1.716-1.54-.756-3.265-1.31-4.288-2.68.86-2.832 2.58-5.548 4.182-8.578.694-1.316 1.425-2.725 2.25-4.076.97-1.584 1.968-3.222 3.431-3.967.652-.332 1.841-.17 2.683.107 1.904.632 4.971 2.08 5.144 4.076.144 1.617-.971 3.345-1.608 4.61-1.398 2.783-2.698 5.628-4.075 8.364-.719 1.43-1.374 2.864-2.358 3.86z" fill="#4D3D87"/><path fill-rule="evenodd" clip-rule="evenodd" d="M76.588 42.43c-.962 2.244-1.838 3.98-3.01 6.188-.438.827-.967 1.752-1.607 2.895-.277.494-1.175 2.559-2.038 2.467-1.15-.122-.522-1.944 0-3.11.534-1.19 1.061-1.97 1.608-3.002.64-1.21 1.106-2.202 1.61-3.002.617-.981 1.082-1.886 1.714-2.788 1.201-1.713 2.393-1.21 1.723.352z" fill="#fff"/><path fill-rule="evenodd" clip-rule="evenodd" d="M63.607 54.302c1.737-.349 3.85.427 5.361.965 3.365 1.2 8.245 2.689 9.221 6.112.55 1.922-.392 4.474-1.071 6.112-2.198 5.298-4.506 9.77-7.185 14.797-2.446 4.591-4.286 10.14-6.969 15.012-.89 1.613-2.165 3.393-3.54 3.753-1.66.433-3.314-.186-4.61-.643-1.375-.487-2.462-.961-3.861-1.502-2.474-.958-5.712-1.879-6.54-4.29-1.246-3.63 1.597-9.206 2.68-11.687 1.606-3.673 3.038-7.113 4.611-10.293 1.935-3.913 3.167-6.247 5.04-9.973.778-1.549 1.58-3.266 2.679-4.825 1.039-1.468 2.275-3.155 4.184-3.538z" fill="#8F7ECE"/><path opacity=".46" fill-rule="evenodd" clip-rule="evenodd" d="M63.607 54.302c1.737-.349 3.85.427 5.361.965 3.365 1.2 8.245 2.689 9.221 6.112.55 1.922-.392 4.474-1.071 6.112-2.198 5.298-4.506 9.77-7.185 14.797-2.446 4.591-4.286 10.14-6.969 15.012-.89 1.613-2.165 3.393-3.54 3.753-1.66.433-3.314-.186-4.61-.643-1.375-.487-2.462-.961-3.861-1.502-2.474-.958-5.712-1.879-6.54-4.29-1.246-3.63 1.597-9.206 2.68-11.687 1.606-3.673 3.038-7.113 4.611-10.293 1.935-3.913 3.167-6.247 5.04-9.973.778-1.549 1.58-3.266 2.679-4.825 1.039-1.468 2.275-3.155 4.184-3.538z" fill="#fff"/><path fill-rule="evenodd" clip-rule="evenodd" d="M65.195 57.948c.633.795-.037 1.663-.32 2.359-2.176 5.328-4.992 10.248-7.508 15.44-2.132 4.406-3.919 9.021-6.004 13.725-.54 1.223-1.212 3.777-2.68 3.86-2.22.128-1.935-2.947-1.287-4.502 1.976-4.742 4.517-9.023 6.863-13.404 2.52-4.71 4.39-8.902 6.968-13.403.82-1.43 1.93-3.227 2.896-3.967.162-.126.716-.386 1.072-.108zM61.3 90.671c-.966.756-1.694 2.69-2.293 4.635-.254.832-.648 2.185.07 2.499.862.376 1.553-1.09 1.8-1.615.773-1.663 1.372-3.83 1.356-5.075-.129-.26-.6-.464-.933-.444zm-4.137 3.941c-1.625-1.12-3.443 2.8-1.887 3.32.675.226 2.262-1.343 2.37-2.405.036-.383-.2-.72-.483-.915z" fill="#fff"/><path fill-rule="evenodd" clip-rule="evenodd" d="M50.851 162.177c-.116.043 1.101-.382 1.551-.461 4.052-.704 8.586-.535 12.96-.774 9.182-.502 15.637-.537 25.142-.552 4.583-.007 9.308-.102 11.135 2.375 1.782 2.421.982 5.834-.517 7.055-1.578 1.286-4.955 1.491-7.175 1.666-7.343.578-13.603.413-20.338.201-6.4-.202-13.469.372-19.844-.712-2.68-.457-6.27-1.477-5.81-5.639.148-1.366 1.16-2.509 2.896-3.159z" fill="#4D3D87"/><path fill-rule="evenodd" clip-rule="evenodd" d="M55.425 165.215c1.11-.521 3.167-.297 5.169.045.858.146 2.244.408 2.198 1.19-.052.94-1.673.893-2.25.875-1.836-.059-4.038-.501-5.141-1.079-.175-.23-.146-.743.024-1.031z" fill="#8F7ECE"/><path fill-rule="evenodd" clip-rule="evenodd" d="M63.049 164.006c-.267-1.958 4.052-1.81 3.815-.189-.105.705-2.22 1.414-3.218 1.031-.357-.139-.55-.502-.597-.842z" fill="#fff"/><path fill-rule="evenodd" clip-rule="evenodd" d="M94.756 167.458c-.167-.681.653-1.285 1.634-1.547.79-.21 2.395-.252 2.338.686-.024.415-.616.985-1.425 1.223-.952.28-2.333.516-2.547-.362z" fill="#8F7ECE"/><path fill-rule="evenodd" clip-rule="evenodd" d="M86.2 129.854c.269 2.291-1.14 5.497-2.486 7.407-.293.415-.733.766-.942 1.175-.297.585-.447 1.366-.657 2.011a57.877 57.877 0 01-2.125 5.547c5.552.198 11.808 3.467 15.824 6.232-.557 1.695-.925 3.295-1.514 5.005-3.874-.163-8.25-1.097-12.738-2.253-4.73-1.218-10.98-2.856-11.184-6.814-.057-1.11.249-2.503.574-3.83.957-3.901 2.635-8.639 4.133-12.246-1.063.344-2.087.866-3.152 1.317-3.14 1.332-6.455 2.631-9.789 3.657 1.926 5.435 1.338 12.145.158 19.153-1.546.104-3.102.189-4.662.266-.969-4.951-1.965-9.825-2.44-15.202-.15-1.705-.365-3.732.211-5.556 1.251-3.956 4.818-5.934 7.522-7.304 3.056-1.548 6.004-2.895 9.118-4.061a.412.412 0 01.205-.057 817.722 817.722 0 0113.945 5.553z" fill="#CAD309"/><path opacity=".18" d="M79.99 145.994a57.922 57.922 0 002.125-5.548c.21-.645.36-1.426.657-2.01.21-.409.65-.76.942-1.176 1.346-1.909 2.755-5.115 2.487-7.407l-1.305-.529c-.028.22-.05.441-.088.629-.339 1.686-.682 2.941-1.687 4.209-.528.667-1.046.986-1.717 1.848-1.497 1.921-1.763 4.632-2.671 7.409-.559 1.707-1.736 4.419-.772 5.001.438.266.887.07 1.244-.025 1.599-.428 3.269-.366 5.482.249 3.89 1.081 7.419 2.599 10.37 4.384.15.092.297.168.438.231.102-.342.206-.685.32-1.034-4.017-2.764-10.273-6.034-15.825-6.231zm-4.426-14.617c.28-.539.922-1.318.64-1.768-.174-.279-.544-.276-.726-.239-1.292.272-2.58.772-3.875 1.267-3.142 1.199-6.213 2.606-9.135 4.303-.618.358-1.35.702-1.649 1.254-.777 1.432-.164 2.848.022 3.901.666 3.771.728 7.563.492 11.905-.035.64-.112 1.557-.136 2.491-.015.564-.033 1.32.297 1.771.27-.017.539-.032.807-.05 1.18-7.008 1.768-13.718-.158-19.153 3.334-1.026 6.648-2.325 9.79-3.657 1.064-.451 2.088-.973 3.151-1.316-.149.359-.3.732-.451 1.113.008-.006.02-.011.03-.016.285-.468.509-1.049.901-1.806z" fill="#000"/><path fill-rule="evenodd" clip-rule="evenodd" d="M72.001 149.623c-.402-.085-.388-.416-.506-.722-.119-.307-.526-1.427.366-1.117.434.151.907 1.595.14 1.839z" fill="#fff"/><path opacity=".18" fill-rule="evenodd" clip-rule="evenodd" d="M73.902 150.987c-.436.356-1.427-.353-.876-.905.526.034 1.155.318.876.905z" fill="#000"/><path fill-rule="evenodd" clip-rule="evenodd" d="M84.333 131.963c.483.374 0 1.428-.435 2.083-.273.413-.64.791-1.036.525-.063-1.039.936-1.5 1.195-2.513.043-.068.126-.057.165-.132l.111.037zm-1.987 3.243c.044.681-.668 1.832-1.276 1.067.239-.725.66-1.089 1.276-1.067zm-2.712 7.149c.402.607-.343 2.767-1.157 2.403-.503-.226-.12-.786.084-1.394.18-.535.263-1.41 1.073-1.009zm-15.982-7.828c-.209.52-.701.801-1.09 1.064-.356.242-.82.688-1.391.472a.293.293 0 00-.112-.222c.132-.352.474-.778.849-1.082.522-.426 1.331-1.115 1.744-.232z" fill="#fff"/><path opacity=".18" fill-rule="evenodd" clip-rule="evenodd" d="M57.673 135.042c1.08.059-.5 2.201-1.03 2.013-.825-.294.58-2.037 1.03-2.013z" fill="#000"/><path fill-rule="evenodd" clip-rule="evenodd" d="M60.454 137.312c.759-.588.9 1.759.007 1.486-.545-.168-.163-1.03-.007-1.486zm8.508-10.32c-.048.543-.567.592-.923.749-.75.328-1.358.579-2.151.904-.316.129-.74.49-1.095.135.094-.577.936-1.024 1.628-1.383.596-.312 1.814-.849 2.263-.682.113.044.192.182.278.277z" fill="#fff"/><path fill-rule="evenodd" clip-rule="evenodd" d="M56.073 158.908c-1.263.456-2.42.965-3.287 1.845-.261.262-.64.631-.552 1.039.117.541 1.082.615 1.892.641 1.704.055 3.283-.024 5.044-.193 1.422-.139 2.695-.374 3.095-1.261.292-.651.3-1.456.326-2.267.023-.808-.04-1.601-.24-2.545-1.215-.098-2.823-.079-4.376.074-.038-.948-.61-1.26-1.594-1.269-.337-.003-.895.071-1.026.253-.265.37.499 3.129.718 3.683z" fill="#FF5000"/><path d="M57.746 159.89c-.814.903-2.476 1.299-3.945.825a3.512 3.512 0 01-.668-.281 5.54 5.54 0 01.495-.368c.074.044.147.084.22.111a3.7 3.7 0 001.613.201c2.331-.209 2.664-2.162 2.497-4.275a1.51 1.51 0 00-.035-.222c.029.109.046.228.052.361.172-.017.344-.031.517-.045.008.144.013.281.017.397.061 1.365-.046 2.497-.763 3.296zm4.549-1.12c.09.003.191.008.293.022-.005.177-.009.353-.018.526-.085-.023-.17-.048-.252-.052-1.538-.062-2.095.937-2.246 2.015-.04.291-.024.657-.12.863-.138.02-.279.039-.421.056-.166-.263-.01-.95.049-1.239.25-1.238 1.004-2.268 2.715-2.191z" fill="#fff"/><path d="M62.118 161.221c-.508.689-1.666.894-2.95 1.02-1.76.168-3.339.248-5.043.193-.725-.024-1.572-.085-1.826-.487l9.819-.726zm-7.593-4.861a.481.481 0 01.49.017c.608.355 1.14 2.027 1.114 2.378a.134.134 0 01-.076.11.156.156 0 01-.141-.007c-.456-.251-1.49-1.322-1.613-1.969-.035-.176-.002-.316.094-.418a.632.632 0 01.132-.111zm1.267 2.077c-.129-.547-.531-1.594-.925-1.825-.088-.052-.137-.036-.179-.013a.503.503 0 00-.073.059c-.033.038-.043.102-.024.193.082.432.731 1.198 1.201 1.586z" fill="#fff"/><path d="M53.52 157.303c.126-.073.294-.08.502-.023.727.199 1.857 1.174 2.022 1.468a.125.125 0 01-.002.132.14.14 0 01-.12.068c-.518.007-1.982-.405-2.447-.905-.13-.137-.183-.274-.162-.409.025-.155.093-.266.208-.331zm2.061 1.336c-.367-.357-1.126-.956-1.633-1.094-.122-.034-.213-.037-.267-.004-.038.022-.066.07-.078.144-.006.049.023.109.087.179.315.334 1.28.673 1.891.775z" fill="#fff"/><path d="M53.754 159.19l2.118-.514.083.267-2.119.516-.082-.269z" fill="#fff"/><path fill-rule="evenodd" clip-rule="evenodd" d="M95.947 159.301c-.044 1.343.003 2.605.498 3.736.148.34.349.829.76.898.548.093.973-.778 1.297-1.521.681-1.564 1.192-3.06 1.686-4.758.397-1.373.651-2.643-.028-3.343-.496-.512-1.24-.816-1.984-1.14a10.567 10.567 0 00-2.454-.72c-.54 1.094-1.118 2.596-1.55 4.095-.895-.316-1.395.099-1.768 1.01-.127.312-.266.859-.144 1.047.245.384 3.092.694 3.687.696z" fill="#FF5000"/><path d="M97.476 158.111c.54 1.089.294 2.78-.692 3.969-.127.153-.31.364-.508.517a6.072 6.072 0 01-.16-.596 1.2 1.2 0 00.187-.164c.3-.337.599-.806.783-1.424.669-2.243-1.024-3.274-3.049-3.9a1.566 1.566 0 00-.219-.051c.113.015.228.041.355.086.048-.167.099-.332.15-.498.136.046.265.093.376.132 1.29.448 2.3.967 2.777 1.929zm.644-4.643a2.9 2.9 0 01.13-.263c.162.069.323.139.482.211-.053.069-.108.139-.141.215-.628 1.404.094 2.294 1.041 2.832.255.145.601.265.757.431-.033.135-.066.272-.105.411-.305.057-.886-.341-1.132-.502-1.058-.691-1.735-1.774-1.032-3.335z" fill="#fff"/><path d="M100.332 154.539c.452.727.215 1.879-.143 3.117-.494 1.698-1.005 3.194-1.686 4.758-.29.665-.66 1.428-1.128 1.516l2.957-9.391zm-7.324 5.256a.481.481 0 01.197-.449c.555-.432 2.306-.308 2.621-.155.042.021.07.063.073.112a.153.153 0 01-.057.128c-.402.33-1.78.896-2.426.771-.178-.034-.295-.115-.354-.242a.631.631 0 01-.054-.165zm2.398-.409c-.555-.083-1.677-.097-2.038.184-.08.062-.085.114-.077.161a.324.324 0 00.027.09c.023.046.08.077.168.095.433.084 1.386-.236 1.92-.53z" fill="#fff"/><path d="M93.513 161.078c-.023-.143.033-.301.163-.473.454-.603 1.778-1.292 2.113-1.337a.122.122 0 01.122.052c.03.039.036.09.017.138-.184.483-1.11 1.69-1.745 1.938-.177.069-.323.068-.44-.003-.135-.078-.213-.184-.23-.315zm2.003-1.418c-.467.207-1.305.692-1.621 1.111-.077.101-.113.186-.103.246.007.044.041.087.106.127.044.023.11.019.197-.015.428-.169 1.1-.942 1.421-1.469z" fill="#fff"/><path d="M95.352 161.558l.305-2.157.28.022-.305 2.159-.28-.024z" fill="#fff"/><path fill-rule="evenodd" clip-rule="evenodd" d="M86.665 131c.682-.877 2.008-3.567 2.467-4.687.839-2.047 1.345-4.464 1.732-6.672.736-4.214 1.258-8.392.75-11.967-.43-3.03-1.468-6.387-4.432-7.976-1.387-.745-3.047-.485-4.039.098-2.074 1.22-3.338 4.104-4.543 7.366-1.19 3.22-7.026 14.81-7.881 17.708L86.666 131z" fill="#EFAD1B"/><path opacity=".18" d="M86.848 124.207c.835-2.801 1.832-5.84 2.4-8.713.897-4.521 1.385-9.208.741-13.017.456.779.796 1.632 1.056 2.508l.017.058a13.25 13.25 0 01.184.691c.043.172.082.344.118.517l.03.147c.035.168.065.336.096.503l.026.144c.036.21.068.42.098.629.508 3.575-.014 7.753-.75 11.967-.387 2.208-.894 4.625-1.732 6.671-.459 1.121-1.785 3.81-2.467 4.687l-2.687-1.033c.08-.097.156-.196.24-.287 1.236-1.376 2.035-3.478 2.63-5.472z" fill="#000"/><path opacity=".18" fill-rule="evenodd" clip-rule="evenodd" d="M77.795 112.391c-.35.206-.742 1.164-.227 1.282.375.087 1.093-1.109.227-1.282zm-.766 1.945c-.406.368-1.102 1.605-.784 2.199.748.408 1.165-1.758.958-2.141l-.174-.058z" fill="#000"/><path fill-rule="evenodd" clip-rule="evenodd" d="M87.667 120.92c-.352.134-.513.905-.479 1.265l.35.115c.255-.248.761-1.278.129-1.38zm.219 4.854c.628-.077 1.146-1.851.515-1.964-.572-.103-.897 1.636-.515 1.964zm-1.04-2.344c-.558.178-1.465 2.804-.742 3.053.67.231 1.343-2.075 1.287-2.746-.1-.144-.279-.247-.545-.307z" fill="#fff"/><path fill-rule="evenodd" clip-rule="evenodd" d="M84.32 98.54l.05 2.197s-1.017-.777-.95-1.094c.179-.871.9-1.103.9-1.103z" fill="#EFAD1B"/><path opacity=".18" fill-rule="evenodd" clip-rule="evenodd" d="M84.32 98.54l.05 2.197s-1.017-.777-.95-1.094c.179-.871.9-1.103.9-1.103z" fill="#000"/><path fill-rule="evenodd" clip-rule="evenodd" d="M84.32 98.095s-.2 2.225-.12 2.394c.48 1.03 4.44 1.78 4.554-.24 0 0 .121-1.307.21-1.892.215-1.401.418-2.277 1.116-3.307.428-.634.858-1.375 1.106-2.245.633-2.223-.566-4.378-2.095-5.114-.578-.278-1.752-.584-2.539-.464-.768.118-2.061.342-2.73.91-1.004.854-1.031 2.179-1.373 3.99-.186.99-.466 2.031-.562 2.777-.266 2.064.727 2.922 2.434 3.19z" fill="#FCD2C0"/><path fill-rule="evenodd" clip-rule="evenodd" d="M80.784 84.434c-.423 1.022.141 1.836.712 2.362-.216.102-.82-.316-.832 0-.04 1.098.493 1.61 1.377 1.847 1.822.49 4.87-.28 4.773 2.04-.034.811-.477 1.771.018 1.975.499.203.806-.96 1.452-.823.322.069.527.41.513.707-.04.936-.814 1.02-1.41.892-.257.689-.69 1.673-.307 2.202.782.837 2.606 1.434 3.75.207.612-.656 1.262-2.367 1.486-3.37.283-1.275-.245-2.534-1.46-3.002.474-2.606-3.273-3.052-5.8-3.761-1.338-.374-2.558-.883-3.44-1.277-.24-.106-.672-.385-.832.001z" fill="#FF5000"/><path fill-rule="evenodd" clip-rule="evenodd" d="M89.524 87.985c-.144.486-1.252-.102-1.396-.402-.426-.89 1.513 0 1.396.402zm.864 1.127c-.225.209-.621-.439-.604-.64.05-.595.789.467.604.64zm-5.313 2.628c-.218-.357-.463-.553-.7-.653l-.715.13.211.486c.063.034.132.066.209.096.453.176.995-.06.995-.06z" fill="#fff"/><path fill-rule="evenodd" clip-rule="evenodd" d="M83.31 91.144s.504-.292 1.065-.058c.006.05.028.148.02.2-.038.231-.244.4-.495.43-.462-.24-.59-.572-.59-.572z" fill="#4D3D87"/><path d="M85.388 91.398c-.415-.85-1.403-1.04-1.788-.996l-.04-.333c.613-.07 1.674.25 2.129 1.182l-.301.147z" fill="#FF5000"/><path fill-rule="evenodd" clip-rule="evenodd" d="M82.9 90.888c.29.031-.272 1.97-.638 2.691-.378.012-.83-.195-.876-.515-.096-.634 1.24-2.204 1.515-2.176z" fill="#FCD2C0"/><path opacity=".13" fill-rule="evenodd" clip-rule="evenodd" d="M82.9 90.888c.29.031-.272 1.97-.638 2.691-.378.012-.83-.195-.876-.515-.096-.634 1.24-2.204 1.515-2.176z" fill="#000"/><path fill-rule="evenodd" clip-rule="evenodd" d="M83.14 94.333c-.049.72-1.153 1.168-1.28.895-.07-.15-.038-.43.073-.54.442.049.796 0 1.207-.355z" fill="#FCD2C0"/><path fill-rule="evenodd" clip-rule="evenodd" d="M83.14 94.332c-.306.298-1 .228-1.183.184-.063-1.027.696-.13 1.182-.184z" fill="#FCD2C0"/><path opacity=".13" fill-rule="evenodd" clip-rule="evenodd" d="M83.14 94.333c-.049.72-1.153 1.168-1.28.895-.07-.15-.038-.43.073-.54.442.049.796 0 1.207-.355z" fill="#000"/><path opacity=".13" fill-rule="evenodd" clip-rule="evenodd" d="M83.14 94.332c-.306.298-1 .228-1.183.184-.063-1.027.696-.13 1.182-.184z" fill="#000"/><path opacity=".13" d="M85.829 93.74a.993.993 0 11-1.98-.135.993.993 0 011.98.134z" fill="#000"/><path opacity=".13" fill-rule="evenodd" clip-rule="evenodd" d="M84.32 98.095l-.101 1.544c2.266-.229 3.108-2.005 3.108-2.005s-1.574.797-3.008.46z" fill="#000"/><path fill-rule="evenodd" clip-rule="evenodd" d="M88.71 99.226c.707.099 2.24.605 3.715 1.204 1.794.73 3.5 1.596 3.517 2.034.053 1.142-3.28 5.899-3.866 5.879-.662-.021-.996-.666-1.102-1.137-.207-.904-1.125-2.37-3.258-3.971-1.61-1.204-3.347-2.499-3.347-2.499s1.122-2.017 4.34-1.51z" fill="#EFAD1B"/><path opacity=".25" fill-rule="evenodd" clip-rule="evenodd" d="M88.71 99.226c.707.099 2.24.605 3.715 1.204 1.794.73 3.5 1.596 3.517 2.034.053 1.142-3.28 5.899-3.866 5.879-.662-.021-.996-.666-1.102-1.137-.207-.904-1.125-2.37-3.258-3.971-1.61-1.204-3.347-2.499-3.347-2.499s1.122-2.017 4.34-1.51z" fill="#fff"/><path fill-rule="evenodd" clip-rule="evenodd" d="M59.623 92.317c1.684.667 2.587 2.141 3.588 3.447.953 1.242 1.882 2.446 2.707 3.718 1.755 2.703 3.165 5.401 4.55 7.84 2.42-1.231 4.788-2.563 7.192-3.823.386 1.449.926 2.872 1.398 4.296.282.856.854 1.526 1.575 2.007-2.263 1.175-4.568 2.286-7.014 3.094-1.226.405-2.979.992-4.353.847-2.955-.314-4.171-3.074-5.109-4.844-.95-1.789-1.69-3.634-2.354-5.418-.616-1.65-1.318-3.576-2.063-5.51-.499-1.292-1.086-2.76-1.57-4.155-.412-1.183.208-1.991 1.453-1.5z" fill="#FCD2C0"/><path fill-rule="evenodd" clip-rule="evenodd" d="M57.352 91.597c-.265-.11-1.08-.651-1.538-.764-.177-.044-.4-.044-.47.1-.148.303.534.671.752.832.382.279.63.495.964.723-.322-.088-1.108-.616-1.662-.784-.233-.07-.511-.108-.593.082-.106.24.418.606.593.734.831.618 1.755 1.314 2.318 1.935a8.2 8.2 0 011.489 2.279c.092.207.2.69.404.786.1.046.377.001.478-.032.345-.112.699-.367 1.158-.664.174-.113.352-.218.553-.392.162-.14.463-.349.507-.442.07-.148-.027-.53-.09-.756-.18-.658-.506-1.561-.669-2.102a83.844 83.844 0 01-.42-1.412c-.123-.43-.516-1.838-1.087-1.757-.465.069.077 1.39.065 1.759-.39-.51-1.153-1.234-2.088-1.775-.243-.14-.744-.464-.909-.277-.225.256.163.527.316.685.214.22.35.404.566.56-.37-.136-1.091-.639-1.548-.737-.15-.032-.34-.014-.402.096-.138.254.277.475.52.671.333.267.53.462.764.642.01.002.02.007.03.01z" fill="#FCD2C0"/><path opacity=".13" fill-rule="evenodd" clip-rule="evenodd" d="M69.623 105.801c.209-.513-1.283 3.094-.877 3.237.652.229 1.725-1.715 1.725-1.715l-.848-1.522z" fill="#000"/><path fill-rule="evenodd" clip-rule="evenodd" d="M68.651 112.739c-.394-1.537 2.121-.393 2.013-.516.798.908-1.884 1.018-2.013.516zm-1.2-1.568c.251-.118.813.921.59 1.085-.223.165-1.299-.747-.59-1.085z" fill="#fff"/><path fill-rule="evenodd" clip-rule="evenodd" d="M74.225 105.018c.705 2.45 1.891 4.656 3.124 6.839 1.797-.628 3.677-1.436 5.403-2.69 1.662-1.206 3.415-2.753 4.129-5.11.395-1.303.302-2.944-1.377-3.295-.991-.206-2.17.173-3.124.464-2.794.854-5.916 2.33-8.155 3.792z" fill="#EFAD1B"/><path opacity=".18" fill-rule="evenodd" clip-rule="evenodd" d="M74.225 105.018c.705 2.45 1.891 4.656 3.124 6.839 1.797-.628 3.677-1.436 5.403-2.69 1.662-1.206 3.415-2.753 4.129-5.11.395-1.303.302-2.944-1.377-3.295-.991-.206-2.17.173-3.124.464-2.794.854-5.916 2.33-8.155 3.792z" fill="#000"/><path d="M108.72 72.114l-3.956 4.298 5.305 4.883 3.956-4.298-5.305-4.883z" fill="#FCD2C0"/><path fill-rule="evenodd" clip-rule="evenodd" d="M109.062 81.602c-.738 1.293-1.349 2.551-1.48 3.906-.041.405-.112.983.227 1.255.453.363 1.292-.28 1.973-.847 1.427-1.193 2.667-2.404 3.996-3.822 1.075-1.146 1.959-2.266 1.704-3.285-.185-.75-.706-1.417-1.217-2.103a10.468 10.468 0 00-1.863-1.92c-1.058.8-2.363 1.985-3.532 3.24-.654-.754-1.325-.597-2.136.112-.277.243-.687.71-.675.954.027.5 2.459 2.212 3.003 2.51z" fill="#FF5000"/><path d="M106.13 80.626a.532.532 0 01.41-.34c.729-.15 2.261.841 2.469 1.148.026.04.03.097.009.145a.183.183 0 01-.121.098c-.537.123-2.083-.005-2.61-.45-.143-.118-.208-.257-.196-.413a.685.685 0 01.039-.188zm2.394.791c-.464-.356-1.482-.926-1.953-.831-.105.022-.135.07-.154.119a.45.45 0 00-.021.102c-.003.057.032.115.104.178.35.294 1.385.456 2.024.432z" fill="#4D3D87"/><path d="M105.923 82.135c.055-.151.186-.278.396-.384.725-.363 2.289-.382 2.615-.258.048.015.08.058.086.108a.163.163 0 01-.057.143c-.418.383-1.884 1.105-2.594 1.032-.195-.018-.33-.09-.398-.217a.489.489 0 01-.048-.424zm2.56-.397c-.533-.027-1.547.033-2.054.284-.12.061-.197.127-.219.193-.015.045-.007.103.029.175.028.044.09.075.192.084.475.046 1.486-.379 2.052-.736z" fill="#4D3D87"/><path d="M107.35 83.518l1.395-1.961.245.16-1.397 1.961-.243-.16z" fill="#4D3D87"/><path d="M108.386 84.738c1.512-.675 2.616-2.21 2.686-3.544.094-1.75-.437-2.014-1.534-3.268-.08-.09-.174-.2-.275-.313-.132.137-.263.274-.392.413a1.874 1.874 0 00-.293-.274c.066.055.131.11.187.172 1.521 1.619 2.531 3.466.761 5.331a4.137 4.137 0 01-1.453 1.006 1.46 1.46 0 01-.253.068c-.065.22-.123.442-.164.665.259-.05.536-.17.73-.256zm5.675-7.768c-1.45 1.178-1.39 2.574-.786 3.776.141.28.465.96.775 1.054.105-.117.211-.235.309-.352-.055-.239-.313-.528-.471-.796-.682-1.169-.501-2.455.518-3.291.069-.057.153-.098.239-.14a31.748 31.748 0 00-.331-.447c-.09.063-.178.133-.253.195z" fill="#fff"/><path d="M115.522 79.111c.037.938-.776 1.95-1.743 2.983-1.329 1.418-2.569 2.629-3.997 3.822-.611.508-1.346 1.072-1.817.926l7.557-7.73z" fill="#4D3D87"/><path fill-rule="evenodd" clip-rule="evenodd" d="M109.606 72.32c-.006.011-4.231 4.126-4.651 4.6-.261-.194-5.241-4.4-7.398-6.47-1.368-1.312-3.503-3.413-3.202-5.694.332-2.506 4.879-4.112 7.951-4.75 3.216-.67 6.206-.79 9.159-1.089-.58-.608-1.169-1.197-1.738-1.835 2.618-2.623 5.257-5.233 8.087-7.76 1.734.26 3.76 1.076 5.581 2.178 1.756 1.067 3.399 2.372 4.37 4.495.739 1.619.786 3.195.293 4.3-1.493 3.349-7.012 5.01-11.286 5.897-4.443.922-9.24.357-13.149.513 1.487 1.346 5.853 5.485 5.983 5.615z" fill="#8F7ECE"/><path fill-rule="evenodd" clip-rule="evenodd" d="M97.681 68.506c-.305.223-.69-.219-.912-.65-.22-.427-.404-.902-.207-1.033.313-.206.593.4.778.734.154.276.66.715.341.95zm-2.049-1.544c-.376.265-.843-.925-.515-1.084.46-.222.925.792.514 1.084zm.491-1.103c-.325-.05-.59-.794-.675-1.266-.029-.168-.09-.21.087-.265.274-.085.42.393.575.714.163.33.423.662.013.817z" fill="#fff"/><path opacity=".13" d="M101.223 64.825c.277-.233 2.521.97 3.734 1.853-.45 0-.893.009-1.324.026a121.86 121.86 0 00-1.358-.942c-.375-.255-1.162-.843-1.052-.937zm14.552-6.318c.043.26-.974.292-1.448.316-1.03.05-2.049.094-3.049.112l.188-.019c-.369-.386-.74-.766-1.111-1.156 1.293.006 2.809.167 3.975.307.523.063 1.407.219 1.445.44z" fill="#000"/><path fill-rule="evenodd" clip-rule="evenodd" d="M126.602 59.483c.071-.07-.706 1.296-.105 1.449.432.11.623-.976.502-1.352-.074-.093-.263-.139-.397-.097zm.2-2.185c-.189.305.229 1.924.798 1.682.372-.157.024-1.46-.404-1.772-.111-.027-.242.002-.394.09z" fill="#fff"/><path fill-rule="evenodd" clip-rule="evenodd" d="M89.082 33.997c.488-.553 1.218-.93 1.772-.625 1.874 1.03.237 3.275.366 3.457 1.049 1.469 2.843 3.513 3.424 4.344.565.814-2.278 4.133-3.87 2.855 0 0-1.161-1.199-1.731-1.711-.794.5-1.998.895-2.971.505-.53-.217-1.303-.853-1.741-1.518-.245-.371-.476-.936-.741-1.544-.442-1.023-1.285-1.593-1.647-2.627-.212-.61-.023-1.547-.031-1.916-.018-.786.399-1.759 1.315-2.51 1.33-1.088 3.5-1.256 4.829-.195.594.473.81.933 1.026 1.485z" fill="#FCD2C0"/><path opacity=".13" fill-rule="evenodd" clip-rule="evenodd" d="M90.62 39.541c.48.722.711 2.816-.546 3.772l-1.031-.996c1.078-.867 1.336-1.813 1.576-2.776z" fill="#000"/><path d="M94.427 33.768c.162-.585.175-1.288-.3-1.998-.257-.386-.76-.852-1.142-1.004-.492-.192-1.149-.19-1.635-.362-.55-.194-.996-.824-1.464-1.306-.924-.946-2.241-1.173-3.319-.58-.641.357-.908.783-1.281 1.225-.65-.358-1.299-.386-1.987-.007-1.218.671-1.115 1.636-1.63 2.398-.357.535-1.328 1.024-1.763 1.508-.407.453-.778.914-.955 1.483-.23.743.111 1.831.673 2.504 1.092 1.304.655 1.79 1.382 2.876 1.3 1.94 2.659.561 3.232.644-.053-.09-.15-.328-.2-.428-.286-.585-.574-1.43-.948-2.055-.298-.503-.685-.908-.903-1.466 1.596-1.206 1.962-2.635 1.963-4.129.745-.098 1.381-.102 1.928.587.323.411.511.965.87 1.401.257.313.556.508.836.617.107.04.38.15.42.01.052-.19-.36-.26-.57-.393-.68-.426-.944-1.574-1.53-2.154.603.316.767 1.207 1.31 1.674.305.26.726.303 1.115.423.43.134.734.378 1.077.638.001-.525.04-1.153.613-1.433.265-.132.57-.025.737.198.376.5.212 1.624-.522 1.895-.2.35.35.36.899.492 3.386.816 2.697-2.19 2.768-2.434.082-.285.246-.54.326-.824zm-12.418 3.07l-.087-.205c.094-.068.193-.152.276-.228a6.02 6.02 0 001.6-2.49 4.019 4.019 0 01-1.789 2.923z" fill="#FF5000"/><path fill-rule="evenodd" clip-rule="evenodd" d="M87.22 36.51c-.413-.103-.73-.07-.973.028l-.274.58.35.22c.07-.02.142-.045.218-.078.454-.194.678-.75.678-.75z" fill="#fff"/><path fill-rule="evenodd" clip-rule="evenodd" d="M85.525 37.336s.153-.569.723-.797c.04.03.127.086.156.129.139.192.109.461-.052.66-.502.157-.827.008-.827.008z" fill="#4D3D87"/><path d="M87.032 35.98c-.938-.169-1.684.519-1.88.859l-.302-.174c.31-.54 1.21-1.217 2.246-1.027l-.064.343z" fill="#FF5000"/><path opacity=".13" d="M86.041 40.824c.89-.344 1.17-1.32 1.16-1.71l.347-.01c.014.623-.4 1.67-1.382 2.044l-.125-.324z" fill="#000"/><path fill-rule="evenodd" clip-rule="evenodd" d="M84.393 37.9c-.384-.096-.68-.064-.905.027l-.22.537.32.197c.056-.018.115-.039.175-.065.42-.181.63-.696.63-.696z" fill="#fff"/><path fill-rule="evenodd" clip-rule="evenodd" d="M82.818 38.666s.143-.527.67-.74c.04.027.12.08.148.12.129.178.101.427-.047.613-.466.142-.77.007-.77.007z" fill="#4D3D87"/><path d="M84.217 37.419c-.866-.157-1.55.479-1.732.79l-.301-.171c.29-.506 1.132-1.136 2.095-.961l-.062.342z" fill="#FF5000"/><path opacity=".13" fill-rule="evenodd" clip-rule="evenodd" d="M86.194 39.665c-1.753.886-1.355-1.105-1.447-1.98-.005-.052-.044-.13 0-.179.248-.276 1.25 1.44 1.447 2.16zm2.602-2.748a.666.666 0 01-.941.941.665.665 0 01.941-.941z" fill="#000"/><path fill-rule="evenodd" clip-rule="evenodd" d="M87.95 29.439c.401-.326-.816-.89-.803-.38.005.267.55.392.802.38zm.893-.134c-.11-.004-.337.044-.331.265.01.288.516.565.698.713.218.181.55.619.848.505.426-.164-.17-.735-.384-.922-.113-.1-.233-.187-.332-.267-.173-.137-.287-.285-.5-.294zm4.212 2.508c.403-.326-.814-.89-.801-.38.006.267.55.392.801.38z" fill="#fff"/><path d="M116.88 47.639c-2.878-1.388-9.681-4.722-10.122-4.983-1.831-1.088-3.822-2.262-5.907-3.045-2.181-.817-4.577-1.261-7.293-.256-.094.034-.184.072-.276.11.42 1.962-.595 3.77-2.462 4.586.34.937-.131 9.079 2.251 10.356 2.366 1.27 5.712-.31 6.806.06.693.236 5.421 2.604 7.939 3.589 1.361.532 2.151.115 2.58-.179 2.469-1.686 6.047-5.547 7.327-8.595.182-.436.442-1.022-.843-1.643z" fill="#CAD309"/><path fill-rule="evenodd" clip-rule="evenodd" d="M109.443 57.645c.054.457-1.216.308-1.201-.056.015-.375 1.155-.297 1.201.056zm-.746-.952c-.195.261-.875.275-1.332.127-.162-.054-.327-.149-.294-.331.055-.283.544-.185.901-.172.368.013.783-.06.725.376zM99.316 40.22c.473-.494-1.219-1.03-1.118-.363.052.349.789.422 1.118.364zm1.149-.322c-.146.011-.435.114-.39.401.058.377.772.657 1.032.822.318.2.827.72 1.2.52.532-.286-.345-.936-.658-1.147-.165-.112-.338-.206-.483-.293-.249-.151-.423-.327-.701-.303z" fill="#fff"/><path fill-rule="evenodd" clip-rule="evenodd" d="M93.083 51.106c-.258 1.011-2.552 7.19-3.519 9.743-.845 2.23-3.998 8.043-4.495 8.707-.28.31-.548.608-.756.824-.373.39-.763.799-1.127 1.169-.344.35-1.48 1.494-1.068 1.907.344.34 1.306-.874 1.673-1.08-.267.615-.522 1.655-.497 2.727.006.282-.013.877.265.9.38.034.418-.441.48-.658.087-.302.186-.52.212-.785.084.379.021 1.258.194 1.686.056.139.187.284.328.267.33-.036.299-.5.346-.813.062-.422.138-.697.174-.987a.32.32 0 01-.004-.038.162.162 0 00.006.031l-.002.007c.04.318.003 1.236.155 1.656.062.169.193.348.375.32.383-.056.34-.824.367-1.095.045-.473.11-.801.135-1.203.105.311.055 1.258.218 1.805.067.228.193.476.428.432.292-.056.34-.695.364-.91.112-1.037.244-2.192.516-3.01a8.58 8.58 0 01.789-1.722c1.58-2.2 4.422-6.834 5.492-9.26 1.104-2.507 3.546-8.017 4.078-10.082-.927.143-4.276-.432-5.127-.538z" fill="#FCD2C0"/><path d="M96.647 41.073c-1.907.239-2.856 2.15-3.494 3.36-1.415 2.682-2.24 5.358-3.038 8.196l6.954 2.449a50.197 50.197 0 001.48-3.79c.378-1.105.767-2.342 1.005-3.683.225-1.26.333-2.767-.128-4.206-.454-1.424-1.5-2.488-2.78-2.326z" fill="#B1BC00"/><path fill-rule="evenodd" clip-rule="evenodd" d="M94.924 44.706c-.339.22-.782 1.189-.395 1.367.402.182.806-.82.765-1.201-.056-.102-.23-.178-.37-.166zm-1.735 1.6c-.427-.416-.727.446-.887 1.006-.108.378-.196.835.089.915.4.113.968-1.468.875-1.817a.337.337 0 00-.077-.104zm1.579-3.291c-.347.09-1.176 1.515-.602 1.724.375.137 1.033-1.016.947-1.525-.06-.09-.175-.158-.345-.2z" fill="#fff"/><path fill-rule="evenodd" clip-rule="evenodd" d="M119.298 49.655c-2.854 2.97-5.293 6.07-8.003 9.083l-.893-.852c2.216-2.942 4.763-5.78 7.343-8.606 0 0 1.58.347 1.553.375z" fill="#EFAD1B"/><path d="M115.103 55.303l-1.04 1.24a.853.853 0 01-1.2.105l-.729-.61a.856.856 0 01-.105-1.202l1.041-1.24a.852.852 0 011.199-.105l.731.611a.854.854 0 01.103 1.2zm-2.575-.05a.2.2 0 00.024.285l.73.612c.085.071.212.06.283-.025l1.041-1.24a.2.2 0 00-.026-.284l-.728-.612a.2.2 0 00-.283.025l-1.041 1.24z" fill="#fff"/></svg>