<svg width="350" height="350" fill="none" xmlns="http://www.w3.org/2000/svg"><path d="M280.144 296.683c-15.561 9.769-35.681 5.606-53.942 7.732-15.43 1.801-29.807 8.264-44.623 13.066-14.816 4.801-30.956 7.958-45.701 3.078-10.126-3.349-18.674-10.197-28.203-14.99-11.502-5.772-24.284-8.466-36.295-13.118-12.01-4.653-23.854-11.938-29.421-23.526-6.707-13.924-2.858-30.471-5.383-45.714-2.867-17.194-13.738-32.053-18.288-48.88-3.208-11.894.123-25.931 4.007-37.476 4.103-12.191 15.517-25.896 26.51-32.988 3.595-2.318 7.137-4.636 10.52-7.25 1.491-1.155 9.302-6.175 9.302-7.986 8.767-8.44 14.027-19.188 21.654-28.528 7.89-9.7 19.489-15.97 31.622-19.057a149.431 149.431 0 0133.551-4.661c12.142-.202 23.916.927 35.637-3.236 2.455-.875 4.848-1.942 7.294-2.843 16.569-6.052 38.749-3.402 54.24 4.75 5.909 3.104 10.853 7.74 15.614 12.41 5.821 5.71 11.274 11.859 15.359 18.943 3.91 6.795 5.146 14.867 10.135 21.26 3.348 4.286 6.645 8.982 9.959 13.119 5.128 6.376 13.027 9.437 17.901 16.39 4.875 6.952 7.242 15.532 8.855 23.814 2.069 10.591 3.235 21.462 2.121 32.202-1.753 17.176-10.827 29.954-20.084 43.938-3.077 4.662-6.181 9.481-7.364 14.938a56.982 56.982 0 00-.877 7.924c-.57 7.757-2.525 14.867-3.998 22.415-2.586 13.197-8.249 26.832-20.102 34.274z" fill="#EFF2FD"/></svg>