<svg width="700" height="2300" fill="none" xmlns="http://www.w3.org/2000/svg"><path d="M333.979 2176.02l-4.345 11.15-19.902 51.09h-6.488l15.596-54.9c1.438-5.11 2.411-8.51 2.48-8.77l6.072.68 6.587.75z" fill="#864FF1"/><path d="M333.979 2176.01l-4.345 11.15-19.911 51.09h-1.994l19.653-62.98 6.597.74z" fill="#CC9281" opacity=".44"/><path d="M321.31 2174.59l12.669 1.43-4.345 11.15a87.867 87.867 0 01-10.804-3.8c1.439-5.12 2.411-8.52 2.48-8.78z" fill="#CC9281" opacity=".44"/><path d="M373.743 2238.25h-6.29l-6.27-46.71-2.441-18.17.724.11 11.906 1.63c0 .39.258 7.16.595 16.14.704 18.74 1.776 47 1.776 47z" fill="#864FF1"/><path d="M369.616 2238.25h-2.163l-6.27-46.67-2.451-18.17.735.11 5.218 9.09.089.97 4.842 54.67z" fill="#CC9281" opacity=".44"/><path d="M371.372 2175.15c0 .39.258 7.16.595 16.14-3.75.25-7.352.33-10.784.29l-2.441-18.17 12.63 1.74z" fill="#CC9281" opacity=".44"/><path d="M425.718 2238.26h-6.489l-20.02-51.4-4.236-10.84 5.635-.63 7.044-.79c.069.27 1.061 3.77 2.549 9.02l15.517 54.64z" fill="#864FF1"/><path d="M421.144 2238.26h-1.915l-20.02-51.4-4.236-10.84 5.635-.63c3.571 11.21 16.27 49.8 20.536 62.87z" fill="#CC9281" opacity=".44"/><path d="M410.201 2183.61c-3.75 1.25-7.421 2.33-10.992 3.25l-4.236-10.84 12.679-1.42c.069.26 1.061 3.76 2.549 9.01z" fill="#CC9281" opacity=".44"/><path d="M426.632 2122.22a80.189 80.189 0 01-1.984 9.33c-3.135 11.22-4.643 22.38-16.866 29.74-2.351 1.41-5.417 2.41-7.798 3.76a65.906 65.906 0 01-14.941 5.96c-15.556 4.27-33.017 6.13-48.712 1.58a31.8 31.8 0 01-12.352-6.96 51.76 51.76 0 01-11.905-16.78c-1.3-2.82-2.431-5.7-3.453-8.63-.843-2.43-1.607-4.89-2.331-7.37-.724-2.47-1.379-4.84-2.054-7.26-2.976-10.93-5.952-22.13-5.506-33.48a50.822 50.822 0 0127.571-43.31c7.321-3.73 15.536-5.55 23.632-6.58 8.819-1.11 17.857-1.85 26.786-1.11a52.315 52.315 0 0117.481 4.64 56.964 56.964 0 0119.703 15.09c8.661 10.32 12.163 25.16 13.374 38.32.723 7.68.507 15.43-.645 23.06z" fill="#EE4439"/><path d="M426.632 2122.22a79.986 79.986 0 01-1.985 9.33c-3.135 11.22-3.045 21.05-12.074 28.41-2.133 1.74-10.218 3.74-12.599 5.09l-76.005.6a51.76 51.76 0 01-11.905-16.78c-1.3-2.82-2.431-5.7-3.453-8.63l.814-6.31s10.715 9.29 56.817 6.46c46.103-2.84 56.947-17.24 58.435-19.36.437-.67 1.131-.01 1.955 1.19z" fill="#FF6551" opacity=".36"/><path d="M415.818 2151.55c-.318.5-.635.99-.992 1.46a43.47 43.47 0 01-7.114 8.28 47.053 47.053 0 01-12.044 7.35c-15.476 6.91-32.61 9.1-49.287 7.37a51.016 51.016 0 01-9.802-1.82 36.054 36.054 0 01-19.902-15.98c-.515-.87-.992-1.79-1.458-2.77a35.69 35.69 0 01-.605-1.38c-.208-.52 12.471-5.16 50.756-5.02 36.707.13 46.698-.28 50.061 2.17.135.11.265.22.387.34z" fill="#EE4439"/><path d="M415.421 2151.17c-.202.2-.391.42-.565.65-2.084 2.68-11.37 11.92-47.234 13.79-35.865 1.87-48.613-7.83-49.01-7.05l-.377.75-3.026-3.91c-.208-.44-.406-.91-.605-1.38-.208-.52 12.471-5.15 50.756-5.02 36.708.18 46.698-.24 50.061 2.17z" fill="#E02D28"/><path d="M298.284 2159.35s-11.638-21.1-3.433-29.93c8.205-8.84 13.701-2.99 17.183 9.11 3.482 12.1 20.775 37.28 52.651 35.71 39.356-1.94 51.996-18.4 57.809-37.59 5.814-19.19 7.054-22.57 14.187-22.57 7.134 0 12.759 22.64-9.454 48.76-22.213 26.12-69.388 25.64-83.833 23.01-14.445-2.64-33.126-7.17-45.11-26.5z" fill="#FF6551"/><path d="M368.385 2148.99c-.4.73-.893 1.4-1.468 1.99-.271.29-.559.56-.863.82-3.056 2.57-7.669 3.84-13.265 7.95a4.234 4.234 0 00-1.567 2.32 7.572 7.572 0 00-.278 2.07c0 5.88 5.05 15.15 8.403 20.61 1.647 2.69 2.877 4.46 2.877 4.46s-1.984-1.21-4.96-3.17a168.103 168.103 0 01-20.606-15.77c-4.961-4.67-8.691-9.37-8.701-13 0-7.31 8.482-12.92 14.207-15.9 1.65-.86 3.346-1.62 5.079-2.29h12.898l8.78 2.24 1.22.32s.933 2.49-1.756 7.35z" fill="#2435A1"/><path d="M365.826 2150.99s8.612 35.32 13.552 40.49c4.941 5.17 11.062-38.4 9.445-45.44-.952-4.15-22.997 4.95-22.997 4.95z" fill="#3DA6C0"/><path d="M377.95 2172.78c-5.08-.18-10.814-17.48-11.906-20.98-.079-.27-.158-.54-.228-.81-.66-3.08-.757-6.25-.288-9.36 0 0 1.37-.11 3.413-.23 5.348-.3 15.368-.59 17.977 1.15a4.744 4.744 0 011.578 2.11c1.984 4.63-3.503 28.38-10.546 28.12z" fill="#2435A1"/><path d="M375.658 2129.24c-51.639 6.16-65.955-16.77-70.717-32.68-2.431-8.13-.992-14.98.823-22.07 1.707-6.8 3.691-13.8 2.778-22.37-.327-3.03-.684-6.62-.813-10.47-.645-18.36 3.77-42.42 40.983-37.62 0 0 5.645-8.71 21.826-8.09 14.991.56 29.763 12.32 35.557 32.47.457 1.6.863 3.26 1.211 4.97 3.274 16.28 8.809 21.27 13.81 29.15 2.507 3.9 4.47 8.13 5.833 12.57 5.744 18.24.357 47.96-51.291 54.14z" fill="#672410"/><path d="M375.658 2129.24c-51.639 6.16-65.955-16.77-70.717-32.68-2.431-8.13-.992-14.98.823-22.07.655 5.16 3.611 16.11 16.866 18.73 17.501 3.45 17.441-15.19 41.847-18.26 24.405-3.07 27.024 1.08 42.253 1.43 9.266.21 12.897-7.67 14.386-13.91 2.507 3.9 4.47 8.13 5.833 12.57 5.744 18.29.357 48.01-51.291 54.19z" fill="#772F1E" opacity=".28"/><path d="M332.195 2121.17c-.849.12-1.703.19-2.56.2-.78-.01-1.558-.07-2.331-.18-1.561-.2-3.082-.64-4.514-1.3a12.92 12.92 0 01-5.655-4.71 12.851 12.851 0 01-1.766-7.01c.122-2.53.433-5.04.932-7.53a21 21 0 00.358-7.54c-.08-.42.575-.6.704-.21.819 2.44 1.106 5.04.843 7.6-.357 4.36-1.756 9.5.923 13.41a11.23 11.23 0 005.268 4.07c1.22.47 2.478.84 3.76 1.09.714.15 1.439.26 2.163.38.724.11 1.22.29 1.855.38.635.09.794 1.28.02 1.35zm83.157-47.77c.061 4.22-.827 8.4-2.599 12.22a46.033 46.033 0 01-5.278 8.88 46.57 46.57 0 01-3.284 3.84c-.628.66-1.291 1.28-1.985 1.87a7.11 7.11 0 01-1.984 1.4.734.734 0 01-.389.02.633.633 0 01-.325-.22.625.625 0 01-.03-.74c.569-.79 1.214-1.51 1.925-2.18.655-.73 1.329-1.44 1.984-2.17a53.644 53.644 0 003.482-4.39c3.542-4.97 6.439-11.01 6.727-17.23v-1.49a17.916 17.916 0 00-2.867-9.65c-1.588-2.35-4.187-4.84-3.364-7.95.07-.27.427-.12.427.11 0 2.11 1.369 3.71 2.649 5.26a21.336 21.336 0 013.145 4.74c1.099 2.41 1.7 5.03 1.766 7.68z" fill="#772F1E"/><path d="M406.721 2076.39c.045 2.46-.676 4.87-2.063 6.9a32.617 32.617 0 01-4.693 5.02 17.883 17.883 0 00-4.147 5.25 11.684 11.684 0 00-.645 7.74c.1.41-.476.48-.644.19a9.997 9.997 0 01-1.252-4.15 9.935 9.935 0 01.627-4.28c1.646-4.4 6.022-6.82 8.819-10.38a10.935 10.935 0 002.361-6.34v-.45a22.149 22.149 0 00-.377-3.97c-.218-1.34-.426-2.71-.734-3.98-.089-.35.486-.51.606-.18.579 1.4 1.086 2.83 1.517 4.28.383 1.42.592 2.88.625 4.35z" fill="#772F1E"/><path d="M400.581 2074.39a11.69 11.69 0 01-.277 1.59 12.859 12.859 0 01-2.699 5.08c-1.835 2.21-4.117 3.98-6.022 6.11-1.657 1.88-3.165 4.18-3.254 6.77-.01 1.08.227 2.14.691 3.11a7.092 7.092 0 001.988 2.49c.347.28.148.99-.348.87a5.799 5.799 0 01-4.097-5.11c-.24-2.63.518-5.26 2.123-7.36 1.726-2.48 4.127-4.37 6.31-6.42a18.802 18.802 0 004.464-5.63c.235-.5.418-1.03.546-1.57a.3.3 0 01.109-.19c.06-.05.137-.07.213-.06.077.01.146.05.194.11.047.06.069.14.059.21zm-16.062 14.17c-3.632 2.89-2.977 8.47-.327 11.79.278.35-.199.85-.546.57a8.946 8.946 0 01-2.649-3.14 7.449 7.449 0 01-.695-3.98 7.673 7.673 0 013.83-5.96c.387-.12.715.5.387.72zm40.407-2.06c.615 4.71-.415 9.49-2.917 13.52a39.019 39.019 0 01-4.425 6.12c-.863.99-1.756 1.98-2.668 2.91-.753 1-1.79 1.76-2.977 2.17a.66.66 0 01-.555-.19.606.606 0 01-.159-.25.67.67 0 01-.03-.3 6.062 6.062 0 011.984-2.92c.824-.85 1.627-1.69 2.411-2.57a46.242 46.242 0 004.425-5.61c2.421-3.72 4.256-8.25 4.107-12.76-.03-.52.695-.66.804-.12z" fill="#772F1E"/><path d="M332.195 2121.17c-.849.12-1.703.19-2.56.2-.78-.01-1.558-.07-2.331-.18-1.561-.2-3.082-.64-4.514-1.3a12.92 12.92 0 01-5.655-4.71 12.851 12.851 0 01-1.766-7.01c.122-2.53.433-5.04.932-7.53a21 21 0 00.358-7.54c-.08-.42.575-.6.704-.21.819 2.44 1.106 5.04.843 7.6-.357 4.36-1.756 9.5.923 13.41a11.23 11.23 0 005.268 4.07c1.22.47 2.478.84 3.76 1.09.714.15 1.439.26 2.163.38.724.11 1.22.29 1.855.38.635.09.794 1.28.02 1.35zm52.324-32.61c-3.632 2.89-2.977 8.47-.327 11.79.278.35-.199.85-.546.57a8.946 8.946 0 01-2.649-3.14 7.449 7.449 0 01-.695-3.98 7.673 7.673 0 013.83-5.96c.387-.12.715.5.387.72zm13.086-7.5c-1.835 2.21-4.117 3.98-6.022 6.11-1.657 1.88-3.165 4.18-3.254 6.77-.01 1.08.227 2.14.691 3.11a7.092 7.092 0 001.988 2.49c.347.28.148.99-.348.87a5.799 5.799 0 01-4.097-5.11c-.24-2.63.518-5.26 2.123-7.36 1.726-2.48 4.127-4.37 6.31-6.42a18.802 18.802 0 004.464-5.63l.844.09a12.859 12.859 0 01-2.699 5.08z" fill="#772F1E" opacity=".28"/><path d="M400.014 2088.31a17.955 17.955 0 00-4.147 5.24 11.718 11.718 0 00-.645 7.75c.099.4-.476.48-.645.18a9.928 9.928 0 01-.625-8.42c1.647-4.41 6.022-6.82 8.82-10.38a10.935 10.935 0 002.361-6.34h1.637a11.85 11.85 0 01-2.063 6.9 32.767 32.767 0 01-4.693 5.07zm12.739-2.69a46.033 46.033 0 01-5.278 8.88 46.57 46.57 0 01-3.284 3.84c-.628.66-1.291 1.28-1.985 1.87a7.11 7.11 0 01-1.984 1.4.734.734 0 01-.389.02.633.633 0 01-.325-.22.625.625 0 01-.03-.74c.569-.79 1.214-1.52 1.925-2.18.655-.73 1.329-1.44 1.984-2.17a52.138 52.138 0 003.482-4.4c3.542-4.96 6.439-11 6.727-17.22.628-.38 1.222-.82 1.776-1.3.055 4.22-.84 8.4-2.619 12.22zm12.173.88c.615 4.71-.415 9.49-2.917 13.52a39.019 39.019 0 01-4.425 6.12c-.863.99-1.756 1.98-2.668 2.91-.753 1-1.79 1.76-2.977 2.17a.66.66 0 01-.555-.19.606.606 0 01-.159-.25.67.67 0 01-.03-.3 6.062 6.062 0 011.984-2.92c.824-.85 1.627-1.69 2.411-2.57a46.242 46.242 0 004.425-5.61c2.421-3.72 4.256-8.25 4.107-12.76-.03-.52.695-.66.804-.12z" fill="#772F1E" opacity=".28"/><path d="M405.152 2116.58c0 1.24-1.101 2.21-2.242 2.7-2.857 1.22-6.111.72-9.197.51-10.476-.69-20.834 2.12-31.34 2.61-1.984.09-3.968.1-5.953.11l-27.044.11a4.309 4.309 0 01-2.977-.73c-.783-.7-.704-2.3.318-2.51l-1.508-1.25c5.437-7.44 15.626-11.7 23.632-16.25 1.518-.85 3.026-1.72 4.593-2.45l.685-.32c.496-.23.992-.44 1.508-.63a39.179 39.179 0 0120.635-1.65c1.31.22 2.6.5 3.88.83.555.14 1.101.29 1.646.45 9.336 2.72 18.245 8.32 22.819 16.89.307.48.494 1.02.545 1.58z" fill="#FFC652"/><path d="M376.202 2096.83c-.188.47-3.512 4.56-10.516 4.83-6.29.25-9.266-1.98-10.12-3.18a39.183 39.183 0 0120.636-1.65z" fill="#F7A845"/><path d="M372.998 2096.67s-1.369 2.98-7.272 3.05c-5.903.07-7.52-1.88-7.52-1.88l-.328-2.2-.466-3.15 13.572-3.14 1.27-.3.079.82.417 4.21.248 2.59z" fill="#EA9573"/><path d="M388.505 2144.66c-3.681 2.57-9.733 5.4-19.148 6.19-.833.07-1.647.12-2.44.13h-1.092a34.685 34.685 0 01-23.651-9.54c1.65-.86 3.345-1.62 5.079-2.3h12.898l8.78 2.25c5.347-.3 15.367-.6 17.977 1.15a4.768 4.768 0 011.597 2.12z" fill="#2D7F75" opacity=".36"/><path d="M390.44 2118.59c-.506 3.89-1.161 7.75-1.707 11.63l-.119.8c-.198 1.44-.317 2.91-.416 4.36-.189 2.71-.298 5.43-.645 8.13-.089.69-2.51 1.06-2.976 1.18-2.233.55-4.514.99-6.786 1.31-5.04.75-10.12 1.48-15.239 1.08a28.426 28.426 0 01-9.167-2.17 26.065 26.065 0 01-4.207-2.4c-.992-.69-2.549-1.69-2.827-2.98-.109-.52-.367-3.13-.486-3.74-.347-1.63-.734-3.54-1.141-5.56-.992-4.81-1.984-10.18-2.699-13.53l48.415 1.89z" fill="#FFC652"/><path d="M357.292 2112.71a35.418 35.418 0 01-8.859-9.05c-.692-.94-1.23-2-1.594-3.11-.29-1-.234-2.25.648-2.77.299-.14.63-.21.961-.18.331.02.65.13.925.32.545.38 1.019.85 1.401 1.4 3.363 4.28 6.68 8.61 9.95 12.98l-3.432.41z" fill="#243976"/><path d="M369.416 2117.21l-5.794.16c-1.957.01-3.911.14-5.853.39-2.041.28-4.04.82-5.953 1.59a.972.972 0 00-.595.46.828.828 0 00.298.82c.706.59 1.582.94 2.5.99 2.311.26 4.647.21 6.945-.15 3.462-.41 6.944-.99 10.357-1.59l-1.905-2.67z" fill="#EA9573"/><path d="M353.296 2118.26a65.564 65.564 0 012.322-4.89c.249-.58.637-1.09 1.131-1.48.459-.28.98-.44 1.518-.48 1.323-.16 2.665-.1 3.968.18.992.2 1.984.67 2.272 1.61a1.993 1.993 0 01-.407 1.65 5.51 5.51 0 01-1.309 1.17c.488-.2 1.033-.22 1.53-.04a2.1 2.1 0 011.17.99 2.147 2.147 0 01-.627 2.79c.814-.1 1.836.3 1.885 1.13a1.286 1.286 0 01-.635 1.11c-.389.23-.821.38-1.27.44-3.938.76-8.01.42-11.766-1l.218-3.18z" fill="#FFBF94"/><path d="M403.477 2113c-8.879-6.38-27.947.5-36.063 4.21-.208 2.36 1.985 4.97 2.223 5.41 0 0 20.298-.34 27.491-.56 7.192-.22 13.026-4.26 6.349-9.06zm-78.755 5.59c.118-.29.264-.57.437-.83a12.786 12.786 0 016.28-4.12c10.913-1.94 19.425-.35 23.285 1.49.466.22.545 5.57.664 6.46a.741.741 0 01-.41.95.791.791 0 01-.373.05 128.791 128.791 0 01-25.368.53 7.782 7.782 0 01-3.661-.9 2.768 2.768 0 01-.854-3.63z" fill="#FFC652"/><path d="M372.75 2094.08c-1.667 1.5-3.839 3.06-5.952 3.29-4.167.45-8.8-1.68-8.929-1.73l-.467-3.15 13.572-3.14 1.35.52.426 4.21z" fill="#DD7258" opacity=".31"/><path d="M329.395 2114.51c.855-.13 1.7-.31 2.53-.55a26.2 26.2 0 012.927-.35c1.984-.16 3.968-.34 5.953-.37 1.965-.03 3.93.06 5.883.28.992.12 2.034.25 3.046.44.928.3 1.892.49 2.867.55a.262.262 0 00.088-.04.144.144 0 00.051-.08.134.134 0 00-.007-.09c-.013-.03-.035-.06-.063-.07a8.144 8.144 0 00-2.758-.92c-.992-.26-2.063-.5-3.105-.67a31.8 31.8 0 00-6.161-.46c-1.993.07-3.98.25-5.953.54-1.005.13-1.999.33-2.976.6-.873.17-1.692.54-2.381 1.11v.08h.059zm38.971 2.38a27.52 27.52 0 004.147-1.41c1.28-.48 2.55-.99 3.829-1.45a62.689 62.689 0 018.046-2.4 42.31 42.31 0 017.689-.92c1.273-.05 2.548-.03 3.82.06 1.318.04 2.63.2 3.918.49-1.194-.5-2.433-.88-3.7-1.14a23.163 23.163 0 00-3.899-.33c-2.59.03-5.17.32-7.699.88a53.253 53.253 0 00-8.085 2.61c-1.29.51-2.58 1-3.86 1.59a31.614 31.614 0 00-4.246 1.99v.06l.04-.03z" fill="#F7A845"/><path d="M388.732 2130.22l-.119.8c-.198 1.45-.317 2.91-.416 4.36l-6.667 1.98a61.879 61.879 0 01-31.113-.34l-4.563-1.25c-.347-1.63-.734-3.54-1.141-5.56l44.019.01z" fill="#FFC652"/><path d="M394.389 2050.87s5.089-3.38 8.71 0c3.621 3.38.209 13.91-3.353 15.45-3.562 1.54-5.149.75-5.149.75l-.208-16.2zm-68.505 9.92s-5.834-1.78-8.334 2.52 3.75 13.44 7.58 13.92c3.83.47 5.149-.75 5.149-.75l-4.395-15.69z" fill="#FFBF94"/><path d="M394.836 2035.8s1.081 14.56 1.18 26.39v5.13c-.109 4.76-.486 8.42-1.299 9.45-2.927 3.62-20.715 16.82-28.345 17.42-7.629.6-28.959-6.08-32.67-9.07-1.19-1-2.867-4.7-4.593-9.36-3.671-9.87-7.59-23.85-7.59-23.85-2.569-23.53 9.306-33.33 34.436-37.82 25.13-4.48 38.881 21.71 38.881 21.71z" fill="#FFBF94"/><path d="M321.082 2046.7c-.863-2.48.675-5.16 2.292-7.37a70.493 70.493 0 0121.023-18.84c6.677-3.97 14.474-6.88 22.223-6.01a46.04 46.04 0 0110.675 2.98 23.6 23.6 0 014.613 2.09 18.39 18.39 0 013.324 2.98 67.159 67.159 0 0110.555 15.11 7.7 7.7 0 011.131 3.79 6.827 6.827 0 01-1.369 3.39 18.587 18.587 0 01-5.883 5.54l-4.593-10.93a8.635 8.635 0 01-2.696 2.96 8.583 8.583 0 01-3.743 1.42 19.811 19.811 0 00-6.488-8.44c-1.379 3.27-4.485 5.74-7.848 7.4a28.89 28.89 0 00-4.186-9.94l-1.876 9.94c-1.527 0-3.034-.35-4.409-1.01a10.152 10.152 0 01-3.527-2.84 11.128 11.128 0 00-1.717 4.26c-.268 1.53-.214 3.09.159 4.6-2.109.6-4.348.58-6.446-.06a11.378 11.378 0 01-5.38-3.56c-.297 3.59-.602 7.17-.912 10.74a12.263 12.263 0 01-8.384-3.61c-.675 2.77-.506 5.68.486 8.35 0 0-2.351-.21-3.075-1.76-.724-1.55-3.949-11.18-3.949-11.18z" fill="#DA8966" opacity=".28"/><path d="M364.158 2018.89a20.056 20.056 0 00-7.252 9.78 20.047 20.047 0 00-.248 12.18s-6.111-1.41-7.322-7.49c0 0-5.496 6.23-3.303 13.47 0 0-8.116-1.62-8.542-11.43 0 0-5.953 6.46-1.856 17.89 0 0-6.944-3.44-7.877-9.05 0 0-3.333 9.86.357 17.21a9.362 9.362 0 01-5.059-1.49c-2.52-1.67-4.842-5.21-6.479-12.46-3.194-14.17 12.282-34.34 35.597-36.57 23.314-2.22 42.094 10.68 45.924 22.46 1.125 3.39 1.419 7 .858 10.53a22.304 22.304 0 01-4.082 9.75c1.607-2.64-5.953-38.08-30.716-34.78z" fill="#672410"/><path d="M358.783 2020.34s6.25 9.12 7.252 19.5c0 0 5.953-6.3 6.161-9.61 0 0 7.024 4.25 8.691 12.39 0 0 4.306-4.24 3.225-8.36 0 0 6.349 4.18 7.282 15.23 0 0 4.385-3.44 3.869-8.87 0 0-7.977-32.14-36.48-20.28z" fill="#672410"/><path d="M373.228 2048.03c.347.39.823.28 1.299.26.476-.02 1.092-.11 1.647-.17a9.032 9.032 0 013.195.12c.953.29 1.872.68 2.738 1.18.421.24.859.46 1.309.65.252.11.515.19.784.24h.754c.248 0 .437-.31.298-.52-.139-.2-.169-.53-.327-.76a4.37 4.37 0 00-.655-.71 8.555 8.555 0 00-1.469-.99 10.299 10.299 0 00-3.442-1.23 9.038 9.038 0 00-3.8.27c-.387.09-2.976.88-2.331 1.67v-.01zm-31.054 5.24c-.863-.68-2.301-.18-3.244.1-1.071.33-2.09.81-3.026 1.42-.906.59-1.736 1.3-2.47 2.09-.635.68-1.677 1.9-1.23 2.89.063.14.167.25.297.32.129.08.279.11.427.09.893 0 1.607-1.24 2.183-1.81a11.53 11.53 0 012.142-1.72c.764-.45 1.568-.83 2.401-1.13.864-.33 2.084-.35 2.679-1.1a.84.84 0 00.153-.61.826.826 0 00-.312-.54z" fill="#5F130F"/><path d="M327.322 2073.07a9.367 9.367 0 01-5.268-4.29c-.456-.91-.595-2.45.645-2.8.992-.28 1.647 1 2.213 1.63.297.33.922 0 .694-.41-.605-1.19-1.23-2.69-2.808-2.65-.746.08-1.432.45-1.911 1.02a2.877 2.877 0 00-.648 2.07c.059 1.82 1.379 3.34 2.599 4.57 1.22 1.22 2.699 2.23 4.494 1.59.07-.04.128-.09.169-.15a.41.41 0 00.061-.22.36.36 0 00-.067-.21.364.364 0 00-.173-.15zm74.925-17.45c-.288-1.34-1.578-2.39-2.918-1.61-.903.52-2.173 2.6-.992 3.41a.2.2 0 00.103.04.206.206 0 00.21-.06.24.24 0 00.064-.09c.427-.78.328-1.93 1.31-2.34 1.34-.56 1.221 1.86 1.171 2.57-.052.86-.285 1.7-.685 2.47a5.604 5.604 0 01-1.984 1.73.252.252 0 00-.083.11.277.277 0 000 .25c.019.04.047.08.083.11 1.29 1.06 2.669-.82 3.145-1.89.65-1.48.85-3.11.576-4.7z" fill="#DA8966" opacity=".44"/><path d="M373.316 2077.14c-.223 2.04-.88 4.01-1.925 5.78a9.55 9.55 0 01-6.835 4.48 9.21 9.21 0 01-4.658-.3 9.136 9.136 0 01-3.914-2.54 15.862 15.862 0 01-2.976-4.67c-.089-.24-.089-.5 0-.74.074-.26.241-.48.47-.63.229-.14.503-.2.77-.15l.377.06a27.96 27.96 0 0017.024-2.52c.114-.06.239-.09.367-.11.182-.02.367-.01.542.05.174.06.333.16.465.28.131.13.231.29.292.46.061.18.082.36.06.55h-.059z" fill="#831532"/><path d="M373.227 2076.45a18.084 18.084 0 01-9.623 4.88 17.73 17.73 0 01-10.625-2.18c.074-.26.241-.48.47-.63.229-.14.503-.2.77-.15l.377.06a27.96 27.96 0 0017.024-2.52 1.21 1.21 0 011.09.02c.222.11.403.3.517.52z" fill="#fff"/><path d="M371.392 2082.92a9.588 9.588 0 01-2.916 3.01 9.412 9.412 0 01-3.92 1.47c-1.552.3-3.156.2-4.657-.3a9.145 9.145 0 01-3.915-2.54 28.272 28.272 0 0115.408-1.64z" fill="#FF6551"/><path d="M347.741 2077.48c.154-1.7-2.291-3.32-5.461-3.61-3.17-.28-5.865.86-6.02 2.56-.154 1.7 2.291 3.31 5.461 3.6 3.17.29 5.865-.85 6.02-2.55zm36.946-3.63c3.054-.9 5.143-2.95 4.664-4.59-.48-1.64-3.345-2.24-6.4-1.35-3.054.9-5.143 2.96-4.664 4.59.48 1.64 3.345 2.24 6.4 1.35z" fill="#F2786B"/><path d="M395.797 2057.33l.218 4.91v5.08c-.109 4.76-.486 8.42-1.3 9.45-2.927 3.62-20.715 16.83-28.344 17.42-7.629.6-28.96-6.08-32.67-9.07-1.191-1-2.867-4.7-4.593-9.36-1.727-4.65-3.503-10.2-3.503-10.2.854 2.98 4.961 12.87 8.79 17.82 2.56 3.34 25.011 8.76 32.482 8.03 7.47-.74 17.421-9.45 22.818-13.38 5.397-3.93 6.072-20.28 6.102-20.7z" fill="#DA8966" opacity=".21"/><path d="M406.075 2028.41c-21.172-23.4-41.807-20.94-51.074-18.09a56.359 56.359 0 01-11.647 2.29c-24.336 2.21-32.739 17.73-35.636 29.04-.645-18.36 3.77-42.42 40.984-37.61 0 0 5.635-8.72 21.826-8.1 14.981.56 29.743 12.32 35.547 32.47z" fill="#772F1E" opacity=".27"/><path d="M361.481 2070.09a6.62 6.62 0 00-2.848 1.21.601.601 0 00-.158.16c-.149.27.178.54.466.64 1.832.49 3.779.32 5.496-.49.437-.13.829-.38 1.131-.72.169-.22.238-.59 0-.75a.665.665 0 00-.337-.09c-1.744-.11-3.491.15-5.129.75l1.379-.71z" fill="#DA8966" opacity=".21"/><path d="M358.594 2071.66c.436-.24.763-.61 1.23-.83a5.86 5.86 0 011.696-.44c.551-.1 1.108-.15 1.667-.15a2.92 2.92 0 011.587.52c.526.32 1.211-.27.784-.81-.932-1.17-2.817-.9-4.107-.7-1.092.18-3.234.62-3.344 2.05 0 .24.239.5.487.36z" fill="#D88261"/><path d="M367.81 2051.12c-.466-4.72-6.21-4.85-9.713-3.89-2.073.57-5.496.93-7.133 2.3a4.581 4.581 0 00-1.529 2.55c-.216.99-.096 2.03.339 2.95.488.85 1.1 1.61 1.815 2.28a51.935 51.935 0 015.358 6.61c.714.99 1.517 2.2 2.758 2.44.433.06.874.03 1.295-.09a3.33 3.33 0 001.155-.59 8.255 8.255 0 002.768-4.37c.526-1.67.804-3.42 1.429-5.06.625-1.64 1.637-3.34 1.458-5.13z" fill="#F8A37A" opacity=".11"/><path d="M379.377 2191.48c-4.722-4.97-12.788-37.42-13.502-40.29l.179.61c1.081 3.5 6.825 20.8 11.905 20.98 6.498.24 11.677-19.98 10.913-26.74 1.567 7.04-4.564 50.62-9.495 45.44z" fill="#2435A1"/><path d="M385.133 2198.52a11.95 11.95 0 00-.774 6.36c.265 1.07.44 2.17.526 3.27.015.45-.066.89-.237 1.3a3.03 3.03 0 01-.755 1.09c-.522.37-1.124.62-1.756.71-1.425.3-2.883.41-4.336.32-.57 0-1.133-.13-1.646-.38a2.163 2.163 0 01-.993-1.24 3.584 3.584 0 01-.139-1.74c.287-1.13.682-2.23 1.181-3.28.893-2.39 1.865-10.69-.178-15.9a25.878 25.878 0 01-2.421-8.25.514.514 0 01.049-.32.565.565 0 01.356-.3.624.624 0 01.458.07c1.576.99 3.379 1.56 5.237 1.66a10.99 10.99 0 005.378-1.11.404.404 0 01.369.01.436.436 0 01.197.32 7.794 7.794 0 01-.566 2.86 36.69 36.69 0 00-1.279 5.53c.654.71 1.232 1.48 1.726 2.31.573.87.915 1.87.992 2.9a10.308 10.308 0 01-1.389 3.81z" fill="#FFDF5F"/><path d="M385.133 2198.52a11.94 11.94 0 00-.774 6.36c.264 1.07.44 2.17.526 3.27.015.45-.066.89-.237 1.3a3.03 3.03 0 01-.755 1.09c-.522.37-1.124.62-1.756.71-1.425.3-2.883.41-4.336.32-.57 0-1.134-.13-1.647-.38a2.166 2.166 0 01-.992-1.24 13.37 13.37 0 004.405-1 7.276 7.276 0 003.264-4.35c.481-1.8.812-3.63.992-5.48.347-2.5.932-4.95 1.746-7.33.573.87.915 1.87.992 2.9a10.3 10.3 0 01-1.428 3.83z" fill="#F7BF30"/><path d="M359.516 2186.09h-2.242a168.103 168.103 0 01-20.606-15.77 8.856 8.856 0 006.746.68c5.229-1.52 6.945-4.7 7.53-6.81 0 5.88 5.05 15.15 8.403 20.61.1.8.169 1.29.169 1.29z" fill="#243976" opacity=".36"/><path d="M361.769 2191.32a9.482 9.482 0 01-4.038 1.99c-1.578.35-3.244.09-4.762.73-3.443 1.45-5.169 6.15-9.554 5.25a2.313 2.313 0 01-.367-.09c-1.379-.35-6.796-6.32 2.52-8.94 2.073-.6 5.099-.99 6.617-2.71.373-.35.597-.83.625-1.35a2.727 2.727 0 00-.823-1.64c-1.548-1.83-7.739-5.57-5.388-5.96.715-.12 5.606-2.31 6.608-3.78.104-.18.267-.33.464-.42a.967.967 0 01.627-.06c.147.08.272.19.367.33a36.957 36.957 0 012.6 3.72c.545.87 1.071 1.75 1.597 2.63.774 1.28 1.557 2.6 2.44 3.81.883 1.22 1.866 2.08 1.985 3.48a3.794 3.794 0 01-.403 1.69c-.264.52-.645.97-1.115 1.32z" fill="#FFDF5F"/><path d="M361.768 2191.32a9.482 9.482 0 01-4.038 1.99c-1.577.35-3.244.09-4.762.73-3.443 1.45-5.169 6.15-9.554 5.25a14.323 14.323 0 013.986-5.19 14.277 14.277 0 015.885-2.85 14.9 14.9 0 003.483-.85 4.947 4.947 0 001.966-1.77c.483-.75.754-1.63.782-2.52 0-2.7-2.133-5.21-2.252-7.75.545.87 1.071 1.75 1.597 2.63.774 1.28 1.558 2.6 2.441 3.81.883 1.22 1.865 2.08 1.984 3.48.003.59-.132 1.18-.396 1.7-.264.53-.648.99-1.122 1.34z" fill="#F7BF30"/><path d="M350.309 2007.84c-2.47 1.19-4.335 3.77-5.893 5.97a42.954 42.954 0 00-4.236 7.23c-2.213 4.92-3.244 10.5-1.727 15.77.744 2.62 2.074 5.73 4.753 6.84.044.02.092.02.139.02a.281.281 0 00.122-.07.253.253 0 00.046-.27c-.833-2.2-2.192-4.16-2.827-6.47a19.154 19.154 0 01-.576-7.04c.536-5.1 2.788-9.77 5.516-14.05a44.712 44.712 0 012.53-3.58c.903-1.17 1.984-2.22 2.857-3.43a.621.621 0 00.126-.37.617.617 0 00-.446-.58.631.631 0 00-.384.03z" fill="#772F1E" opacity=".27"/><path d="M352.115 2014.51c.347-.63-.615-1.35-1.131-.85-3.185 3.06-3.829 8.07-3.234 12.25.36 2.45 1.117 4.82 2.242 7.02.992 2.03 2.292 4.59 4.316 5.81.089.05.258 0 .218-.14-.526-2.14-2.044-4.04-2.976-6.05a23.12 23.12 0 01-1.985-6.52c-.271-1.99-.187-4.01.248-5.96.516-1.95 1.29-3.82 2.302-5.56zm-6.362-6.46c-2.758.94-5.129 2.98-7.232 4.9a48.518 48.518 0 00-5.873 6.51c-3.612 4.85-6.727 10.35-6.469 16.58.177 3.34 1.39 6.55 3.472 9.17.07.08.166.14.272.16.106.01.214-.01.306-.06a.453.453 0 00.196-.55 19.875 19.875 0 01-2.06-8.08c-.108-2.8.381-5.6 1.435-8.2a45.064 45.064 0 019.524-13.65c2.163-2.21 4.703-4.06 6.737-6.39.178-.2-.09-.45-.308-.39z" fill="#772F1E" opacity=".27"/><path d="M345.943 2005.72c-3.68.1-7.341 2.17-10.327 4.19a35.678 35.678 0 00-8.086 7.55c-5.258 6.69-7.391 15.07-8.264 23.42a35.09 35.09 0 00-.07 7.7c.142 1.3.415 2.59.814 3.84.198.59.44 1.18.724 1.74.327.56.696 1.09 1.101 1.6.338.5.992 0 .834-.51-.159-.51-.199-1.21-.348-1.83-.119-.47-.218-.93-.317-1.4-.218-1.05-.427-2.1-.566-3.15a33.143 33.143 0 01-.129-6.5c.318-4.45 1.12-8.86 2.391-13.14a33.387 33.387 0 0112.035-17.02 34.725 34.725 0 014.96-3.12c1.796-.91 3.671-1.62 5.417-2.62a.416.416 0 00.227-.17.403.403 0 00.045-.29.374.374 0 00-.161-.23c-.082-.06-.182-.08-.28-.06z" fill="#772F1E" opacity=".27"/><path d="M340.487 2005.16c-.869.06-1.731.19-2.58.39-.853.22-1.706.46-2.55.74a53.775 53.775 0 00-5.069 1.91 30.477 30.477 0 00-8.83 5.63c-4.703 4.4-7.441 10.44-8.671 16.69a41.86 41.86 0 00-.724 9.51c.119 3.82.932 7.6.992 11.41a30.696 30.696 0 01-2.123 11.07c-1.22 3.3-2.659 6.62-2.917 10.17-.476 6.69 3.74 13.72 10.467 15.26.198.05.337-.28.149-.38-4.872-2.79-8.751-8.1-8.671-13.91.049-3.37 1.349-6.54 2.559-9.62a38.527 38.527 0 002.748-10.22c.387-3.84-.208-7.56-.565-11.37-.296-3.06-.27-6.13.079-9.18a31.73 31.73 0 016.538-16.38 28.22 28.22 0 018.572-6.91 39.852 39.852 0 015.318-2.4c.863-.31 1.736-.62 2.619-.91.883-.29 1.865-.75 2.807-1.14a.207.207 0 00.047-.23.258.258 0 00-.078-.1.237.237 0 00-.117-.03z" fill="#772F1E" opacity=".27"/><path d="M326.866 2107.67c-.794.28-1.508-.75-.784-1.3a10.956 10.956 0 003.968-6.14c.476-2.29.183-4.68-.833-6.79a16.478 16.478 0 00-4.911-6.03c-4.058-3.16-10.288-4.97-10.705-11-.006-.05.006-.1.035-.13.029-.04.072-.07.119-.07.047-.01.096 0 .134.03.038.03.063.07.069.12.874 3.36 4.405 5.35 7.233 6.87a27.386 27.386 0 017.074 4.97 15.797 15.797 0 013.164 4.69c.338.77.61 1.57.814 2.38 1.161 4.58-.556 10.75-5.377 12.4z" fill="#772F1E" opacity=".27"/><path d="M340.536 2097.36c.328 2.55-.337 5.8-3.294 6.35-.882.16-1.051-.99-.396-1.4 2.291-1.37 1.904-4.57 1.299-6.75a11.745 11.745 0 00-2.549-4.72 9.68 9.68 0 00-1.27-1.17c-1.856-1.42-4.088-2.26-5.953-3.63a8.696 8.696 0 01-3.601-5.03c-.08-.35.446-.47.585-.17 1.052 2.35 3.522 3.78 5.715 4.9 2.192 1.13 4.434 2.17 6.121 3.98.129.14.248.28.367.43a14.115 14.115 0 012.976 7.21zm6.38-.37c0 1.36-.992 3.46-2.59 3.33a.434.434 0 01-.24-.1.473.473 0 01-.159-.2.523.523 0 01-.035-.26c.01-.09.044-.17.096-.24.414-.39.78-.83 1.092-1.3.225-.49.341-1.02.338-1.56a5.311 5.311 0 00-1.708-3.64c-.268-.28.189-.74.467-.48 1.32 1.15 2.759 2.57 2.739 4.45zm-34.208 7.93a6.97 6.97 0 01-1.439-.99c-.432-.44-.833-.91-1.2-1.4-.713-.96-1.34-1.98-1.875-3.04a28.568 28.568 0 01-2.5-6.67 28.296 28.296 0 01-.794-7.19c-.088-2.33.342-4.66 1.26-6.81a.358.358 0 01.207-.18.358.358 0 01.269.01.24.24 0 01.106.09c.024.05.036.1.033.15-.005.08-.005.16 0 .24 0 2.17-.268 4.33-.159 6.49a32.55 32.55 0 001.042 6.64 31.376 31.376 0 002.421 6.26c.516 1 1.101 1.99 1.706 2.99.278.45.566.9.834 1.36.269.51.504 1.04.704 1.59a.418.418 0 01-.151.44.378.378 0 01-.228.08.335.335 0 01-.236-.06zm56.182-81.82a21.995 21.995 0 00-5.377-5.9c-1.081-.89-2.193-1.76-3.284-2.66-.536-.44-1.051-.88-1.548-1.35a8.613 8.613 0 00-1.398-1.31.126.126 0 00-.059-.02c-.021-.01-.042 0-.062 0a.12.12 0 00-.05.04.18.18 0 00-.028.06c-.188 1.07.893 2.12 1.568 2.8.932.94 1.924 1.82 2.926 2.68a26.869 26.869 0 015.378 5.72 9.69 9.69 0 011.488 7.16c-.24 1.2-.616 2.36-1.121 3.46-.583 1-.955 2.1-1.092 3.25 0 .14.189.16.268.07.379-.55.711-1.14.992-1.75.298-.51.615-.99.933-1.54a14.105 14.105 0 001.736-3.3c.289-1.26.325-2.56.107-3.83a9.718 9.718 0 00-1.377-3.58z" fill="#772F1E" opacity=".27"/><path d="M378.832 2022.96c-3.889-4.12-9.137-6.29-13.989-8.95a41.209 41.209 0 01-4.057-2.49c-1.33-.93-2.57-1.99-3.869-2.98-.139-.11-.377.06-.288.23a15.66 15.66 0 005.536 5.33c2.272 1.49 4.702 2.7 7.083 3.98 4.574 2.5 9.475 5.55 11.449 10.64a16.716 16.716 0 01.457 9.44c-.08.38.456.45.615.15 2.718-5.18.873-11.38-2.937-15.35z" fill="#772F1E" opacity=".27"/><path d="M391.72 2032.25a31.363 31.363 0 00-4.604-10.81 23.935 23.935 0 00-8.72-7.49 49.93 49.93 0 00-10.338-3.63 49.32 49.32 0 01-5.695-1.75 34.738 34.738 0 01-5.139-2.81c-.188-.11-.526.06-.387.3 1.627 2.87 5.189 4.24 8.146 5.24 3.412 1.15 6.944 1.88 10.258 3.3a23.752 23.752 0 018.929 6.34 27.08 27.08 0 015.149 10.42 63.533 63.533 0 011.458 7.2c.189 1.28.377 2.55.625 3.82.168 1.19.467 2.36.893 3.49.014.04.04.07.076.09a.24.24 0 00.118.03.215.215 0 00.107-.06.175.175 0 00.046-.11c.428-2.22.485-4.5.169-6.74-.209-2.3-.574-4.58-1.091-6.83z" fill="#772F1E" opacity=".27"/><path d="M397.821 2029.45a30.918 30.918 0 00-5.616-12.92 34.824 34.824 0 00-23.066-13.18 39.013 39.013 0 00-7.937-.29c-2.708.18-5.417.89-8.135.51-.189 0-.318.25-.149.36 1.855 1.14 4.058.85 6.121.68 2.341-.19 4.694-.19 7.034 0 4.649.37 9.187 1.61 13.374 3.67a30.632 30.632 0 0110.164 8 30.725 30.725 0 015.967 11.49c.694 2.82 1.093 5.7 1.191 8.6.119 2.86-.139 5.81.308 8.64 0 .24.406.31.486.06.756-2.52 1.092-5.15.992-7.79a42.988 42.988 0 00-.734-7.83z" fill="#772F1E" opacity=".27"/><path d="M423.039 2078.62a25.799 25.799 0 01-3.601 12.37 20.953 20.953 0 01-9.425 8.65c-.575.26-1.101-.6-.575-1 .842-.58 1.647-1.21 2.41-1.89 6.201-5.59 10.08-13.73 8.701-22.19a26.473 26.473 0 00-1.677-5.86c-2.47-6.06-6.776-11.39-10.327-16.81a47.817 47.817 0 01-5.953-11.6c-1.597-5.04-1.498-10.36-2.748-15.47-1.25-5.11-4.613-8.95-7.768-12.92-2.976-3.7-6.111-7.36-10.209-9.82-8.195-4.97-18.066-3.13-26.668-.42a.394.394 0 01-.319.01.418.418 0 01-.239-.54.43.43 0 01.221-.24 31.383 31.383 0 013.234-1.44c9.029-3.22 19.307-3.3 27.283 2.6 3.969 2.91 7.104 6.77 10.159 10.56a44.85 44.85 0 014.584 6.55 25.165 25.165 0 012.52 7.88c.476 2.79.684 5.62 1.16 8.41a30.65 30.65 0 002.054 6.96 72.209 72.209 0 006.865 11.63 89.418 89.418 0 017.302 11.97 27.983 27.983 0 013.016 12.61z" fill="#772F1E" opacity=".27"/><path d="M313.333 2104.46a.422.422 0 01-.128.48.438.438 0 01-.246.09.448.448 0 01-.251-.08 6.97 6.97 0 01-1.439-.99c-.432-.44-.833-.91-1.2-1.4-.713-.96-1.34-1.98-1.875-3.04a28.568 28.568 0 01-2.5-6.67 28.296 28.296 0 01-.794-7.19c-.088-2.33.342-4.66 1.26-6.81a.358.358 0 01.207-.18.358.358 0 01.269.01c.041.16.09.32.149.48 0 2.17-.268 4.33-.159 6.49a32.55 32.55 0 001.042 6.64 31.376 31.376 0 002.421 6.26c.516 1 1.101 1.99 1.706 2.98.278.46.566.91.833 1.37.268.5.504 1.02.705 1.56zm18.959-9.18c1.111 4.57-.605 10.74-5.427 12.39-.793.28-1.508-.75-.783-1.3a10.967 10.967 0 003.968-6.14c.475-2.29.182-4.68-.833-6.79.749-.13 1.489-.31 2.212-.54.354.77.643 1.57.863 2.38zm5.219-5.12a14.153 14.153 0 012.977 7.2c.327 2.55-.338 5.81-3.294 6.35-.883.16-1.052-.99-.397-1.4 2.292-1.37 1.905-4.57 1.3-6.75a11.747 11.747 0 00-2.55-4.72c.526-.34 1.042-.71 1.557-1.11.179.14.298.28.407.43zm6.666 2.37c1.32 1.15 2.759 2.58 2.739 4.45 0 1.37-.992 3.46-2.59 3.33a.434.434 0 01-.24-.1.473.473 0 01-.159-.2.508.508 0 01.061-.5c.414-.39.78-.83 1.092-1.3a3.67 3.67 0 00.338-1.55 5.314 5.314 0 00-1.708-3.65c-.248-.27.189-.73.467-.48zm78.862-13.91a25.799 25.799 0 01-3.601 12.37 20.958 20.958 0 01-9.425 8.65c-.576.26-1.102-.6-.576-1 .842-.58 1.648-1.21 2.411-1.89 6.201-5.59 10.08-13.73 8.701-22.19a26.473 26.473 0 00-1.677-5.86c.452-.89.85-1.81 1.191-2.75a27.97 27.97 0 012.976 12.67z" fill="#772F1E" opacity=".28"/><path d="M373.405 2064.99a6.062 6.062 0 01-2.292-4.68 7.064 7.064 0 011.984-4.88 6.87 6.87 0 014.743-2.19 5.67 5.67 0 012.591.57c.807.39 1.51.96 2.052 1.68a9.14 9.14 0 011.518 4.49 6.536 6.536 0 01-2.044 4.35 5.825 5.825 0 01-3.264 1.85 8.112 8.112 0 01-3.968-.79 3.504 3.504 0 01-2.084-1.54l.764 1.14zm-22.48 3.15a6.081 6.081 0 00-.734-5.16 6.93 6.93 0 00-4.355-2.98 6.85 6.85 0 00-5.149.87 5.563 5.563 0 00-1.827 1.92 5.695 5.695 0 00-.752 2.55c-.004.56.053 1.11.168 1.66a7.4 7.4 0 001.101 2.91 6.55 6.55 0 004.137 2.44c1.247.32 2.562.21 3.741-.3a8.192 8.192 0 002.807-2.9c.6-.66.911-1.54.863-2.44v1.43z" fill="#fff"/><path d="M383.316 2060.73a5.545 5.545 0 00-1.496-2.69 5.533 5.533 0 00-2.7-1.47c-2.808-.48-6.082 1.36-6.568 4.14-.12.3-.207.61-.258.93-.724 4.82 5.318 5.96 8.612 4.05a4.49 4.49 0 002.41-4.96zm-34.395 3.16a3.23 3.23 0 00-.278-.23 5.337 5.337 0 00-2.573-.97 5.381 5.381 0 00-2.715.43c-.907.34-1.701.93-2.295 1.7a5.223 5.223 0 00-1.068 2.65c-.139 2.07.555 4.25 2.599 5.08 3.413 1.42 9.147-1.5 8.463-5.63a4.205 4.205 0 00-.713-1.77c-.37-.52-.856-.95-1.42-1.26z" fill="#2D2D2D"/><path d="M375.013 2063.22a1.706 1.706 0 00.278 1.37c.114.35.351.64.665.82.314.19.685.25 1.042.18.434-.09.828-.31 1.119-.65.291-.33.463-.75.488-1.19.109-2.03-3.116-2.63-3.592-.53zm-26.41 4.36c.176.17.315.37.409.59.094.23.14.46.137.71.103.35.074.73-.081 1.06-.155.33-.426.6-.763.75a1.96 1.96 0 01-1.286.09 1.976 1.976 0 01-1.075-.71c-1.27-1.67 1.091-3.96 2.659-2.49z" fill="#fff"/><path d="M300.992 2136.18l-1.042 2.3-2.768 6.14-42.293 93.63h-7.987s24.803-66.77 34.595-93.59c2.341-6.41 3.819-10.53 3.889-10.93l15.606 2.45z" fill="#864FF1"/><path d="M285.385 2133.75l15.606 2.43-3.81 8.44h-15.685c2.341-6.37 3.82-10.49 3.889-10.87z" fill="#CC9281" opacity=".44"/><path d="M482.932 2238.26h-7.936l-42.264-93.56-3.849-8.52 2.5-.39 13.115-1.99c.07.38 1.558 4.53 3.909 10.93 9.753 26.85 34.525 93.53 34.525 93.53z" fill="#864FF1"/><path d="M448.368 2144.72h-15.675l-3.849-8.52 15.615-2.43c.07.35 1.558 4.48 3.909 10.95z" fill="#CC9281" opacity=".44"/><path d="M477.566 2238.25h-2.609l-42.264-93.55-3.849-8.52 2.5-.39 5.823 2.69 40.399 99.77z" fill="#CC9281" opacity=".44"/><path d="M312.033 2132.13h-35.527v6.35h35.527v-6.35zm141.305 0h-35.527v6.35h35.527v-6.35z" fill="#CC9281"/><path d="M508.39 2125H220.979v7.12H508.39V2125z" fill="#F7A845"/><path d="M508.39 2126.63H220.979v5.5H508.39v-5.5zm-196.357 5.5h-35.527v6.35h35.527v-6.35zm141.305 0h-35.527v6.35h35.527v-6.35z" fill="#864FF1"/><path d="M299.95 2138.48l-2.768 6.14-42.293 93.63h-3.78l40.141-99.77h8.7z" fill="#CC9281" opacity=".44"/><path d="M220.215 2092.66v10.16h40.815v-9.1l-40.815-1.06z" fill="#FF6551"/><path d="M220.215 2094.7v8.12h40.815v-6.23c-2.074.86-5.953 1.75-13.126 1.84-14.008.16-24.366-.32-27.689-3.73z" fill="#FF6551" opacity=".36"/><path d="M220.215 2101.38v11.8h47.154v-10.13l-47.154-1.67z" fill="#FFC652"/><path d="M220.217 2106.45v6.73h47.154v-6.24c-.992 1.18-3.135 2.48-7.768 2.48-7.123.01-29.406.76-39.386-2.97z" fill="#FFC652"/><path d="M218.311 2111.1v13.9h41.658l.486-5.47.575-6.35-42.719-2.08z" fill="#67D449"/><path d="M218.311 2118.05v6.96h41.668l.486-5.46c0 .07-1.498 2.31-7.867 2.67-6.37.36-32.948 1.04-34.287-4.17z" fill="#2D7F75" opacity=".36"/><path d="M401.005 2121.35l-.278.82-.556 1.63-31.677.75-31.688-.75-.824-2.45c4.945-.08 9.864-.72 14.664-1.91 7.222-1.91 14.663-2.13 17.857 1.07 3.185-3.2 10.626-2.98 17.858-1.07a65.152 65.152 0 0014.644 1.91z" fill="#FFEBDD"/><path d="M400.54 2125h-64.169v-1.49h64.169v1.49z" fill="#243976"/><path d="M401.006 2121.35l-.278.82c-4.107.19-10.982-.6-18.423-2.51-7.441-1.92-13.642 1.69-13.85 1.69v-.84c3.185-3.2 10.625-2.98 17.858-1.07a65 65 0 0014.693 1.91zm-65.063 0l.278.82c4.107.19 10.983-.6 18.423-2.51 7.441-1.92 13.622 1.69 13.81 1.69v-.84c-3.184-3.2-10.625-2.98-17.857-1.07a65.232 65.232 0 01-14.654 1.91z" fill="#fff"/><path opacity=".8" d="M289.31 2114.71c0 1.53-2.332 2.77-5.209 2.77s-5.208-1.24-5.208-2.77c0-.25.062-.5.178-.72.179-.34.434-.64.745-.86a2.572 2.572 0 01-1.242-.8 2.516 2.516 0 01-.574-1.36c.06-.53.284-1.02.64-1.42.356-.39.826-.66 1.344-.78a1.358 1.358 0 01-.531-.49 1.42 1.42 0 01-.223-.69c0-.88.992-1.59 2.262-1.59s2.262.71 2.262 1.59c-.015.25-.093.48-.225.69-.131.21-.314.38-.529.49.518.12.988.39 1.344.78.356.4.58.89.64 1.42-.001.35-.101.7-.287.99 1.57-.01 3.086.58 4.226 1.66.25.31.387.69.387 1.09z" fill="#fff"/><path opacity=".52" d="M289.31 2114.71c0 1.53-2.332 2.77-5.209 2.77s-5.208-1.24-5.208-2.77c0-.25.061-.5.178-.72a7.18 7.18 0 002.682 1.57c.998.31 2.055.4 3.092.26 3.879-.32 4.038-2.22 4.038-2.22.269.31.42.7.427 1.11z" fill="#fff"/><path d="M294.125 2106.32h-1.856v-2.31h-18.324v21.01h18.324v-3.22h1.856c1.517 0 2.972-.61 4.045-1.68a5.76 5.76 0 001.679-4.05v-3.98c.004-.75-.141-1.5-.427-2.2a5.827 5.827 0 00-1.238-1.88 5.723 5.723 0 00-4.059-1.69zm2.42 9.75c0 .64-.255 1.26-.709 1.71-.454.46-1.069.71-1.711.71h-1.856v-8.86h1.856c.642 0 1.257.25 1.711.71.454.45.709 1.07.709 1.71v4.02z" fill="#F9C853"/><path d="M294.125 2106.32h-1.161a17.068 17.068 0 01-5.988 9.54 17.082 17.082 0 01-10.62 3.73c-.806-.01-1.612-.06-2.411-.17v5.6h18.324v-3.22h1.856c1.517 0 2.972-.61 4.045-1.68a5.76 5.76 0 001.679-4.05v-3.98c.004-.75-.141-1.5-.427-2.2a5.827 5.827 0 00-1.238-1.88 5.723 5.723 0 00-4.059-1.69zm2.42 9.75c0 .64-.255 1.26-.709 1.71-.454.46-1.069.71-1.711.71h-1.856v-8.86h1.856c.642 0 1.257.25 1.711.71.454.45.709 1.07.709 1.71v4.02z" fill="#F2704F" opacity=".19"/><path d="M290.146 2104.9a6.478 6.478 0 01-.724 2.91c-1.835 3.68-5.724 6.38-9.534 7.67-1.166.41-2.395.62-3.631.61a8.278 8.278 0 01-2.312-.45v-11.63h16.122c.051.29.077.59.079.89z" fill="#fff" opacity=".24"/><path d="M462.742 2119.51l51.331 1.47 3.503-1.47 16.052-37.38h-57.225l-11.29 30.89-2.371 6.49z" fill="#B7B7B7"/><path d="M517.576 2119.51h-72.424v5.49h72.424v-5.49z" fill="#A0A0A0"/><path d="M445.152 2119.51v5.49h72.424v-5.49l16.052-37.38c-.278.49-18.543 32.63-68.009 30.91h-.506l-2.371 6.49-17.59-.02z" fill="#B7B7B7" opacity=".35"/><path d="M364.178 1785.19c84.397 0 152.814-3.1 152.814-6.94 0-3.83-68.417-6.93-152.814-6.93-84.396 0-152.813 3.1-152.813 6.93 0 3.84 68.417 6.94 152.813 6.94z" fill="#6B6B6B" opacity=".7"/><path d="M586.39 1208.21a78.428 78.428 0 01-3.284 10.2c-4.425 12.2-11.727 30.61-11.727 30.61a69.741 69.741 0 01-30.08-11.03c-.228-.72.099-2.98.764-6.18 2.51-11.93 9.802-36.4 9.802-36.4 6.458-.53 34.525 12.8 34.525 12.8z" fill="#49B3F7"/><path d="M554.632 1206.32c-.139-.26 1.369-7.51 1.885-7.51s22.233 7.9 22.878 8.88c.645.99-1.3 7.05-2.47 6.96-1.171-.09-21.837-7.5-22.293-8.33z" fill="#864FF1"/><path d="M551.269 1214.82c.07-.26 1.3-5.29 2.084-5.29.783 0 11.994 3.98 12.321 4.65.328.66-.783 5.34-1.894 5.34-1.112 0-12.67-4.08-12.511-4.7z" fill="#FFC652"/><path d="M568.155 1220.71c-.427-.74.992-5.03 1.498-5.29.506-.26 7.689 2.14 7.748 2.98.06.83-.714 4.83-1.359 4.7-.645-.13-7.629-1.94-7.887-2.39zm-18.909 1.24s1.111-4.9 1.697-4.77c.585.13 6.647 2.08 6.389 2.67-.258.59-1.042 4.64-1.498 4.64-.457 0-6.717-2.01-6.588-2.54zm9.256 3.66s1.111-4.9 1.696-4.78c.586.13 6.648 2.09 6.39 2.68-.258.58-1.052 4.64-1.498 4.64-.447 0-6.717-2.01-6.588-2.54zm9.178 3.27s1.101-4.89 1.696-4.77c.595.13 6.647 2.09 6.379 2.68-.268.58-1.042 4.64-1.498 4.64-.456 0-6.756-2.01-6.577-2.55zm-20.518.38s1.111-4.9 1.697-4.77c.585.13 6.647 2.09 6.389 2.68-.258.58-1.042 4.64-1.498 4.64-.457 0-6.717-2.01-6.588-2.55zm9.256 3.66s1.101-4.9 1.696-4.77c.596.13 6.648 2.09 6.38 2.67-.268.59-.992 4.64-1.498 4.64s-6.707-2-6.578-2.54zm9.119 3.28s1.111-4.9 1.696-4.77c.586.13 6.647 2.09 6.389 2.68-.258.6-.992 4.63-1.498 4.63s-6.706-2-6.587-2.54zm-20.627 0s1.101-4.9 1.687-4.77c.585.13 6.657 2.09 6.389 2.68-.268.6-1.042 4.63-1.498 4.63-.457 0-6.707-2-6.578-2.54zm9.246 3.66s1.111-4.9 1.697-4.77c.585.13 6.647 2.08 6.389 2.68-.258.6-.992 4.63-1.498 4.63s-6.717-2.01-6.588-2.54zm9.129 3.24s1.111-4.9 1.697-4.77c.585.13 6.647 2.08 6.389 2.68-.258.6-1.042 4.63-1.498 4.63-.457 0-6.717-1.97-6.588-2.54z" fill="#864FF1"/><path d="M576.926 1214.59c-1.18-.13-21.826-7.44-22.292-8.29-.007-.31.026-.62.099-.92 3.284 1.68 20.695 7.82 21.767 7.95 1.071.13 2.411-3.85 2.589-5.88.117.06.222.14.308.24.654.96-1.3 7.03-2.471 6.9z" fill="#2D7F75" opacity=".36"/><path d="M551.269 1214.82c.07-.26 1.3-5.29 2.084-5.29.783 0 11.994 3.98 12.321 4.65.328.66-.783 5.34-1.894 5.34-1.112 0-12.67-4.08-12.511-4.7z" fill="#FFC652"/><path d="M568.155 1220.71c-.427-.74.992-5.03 1.498-5.29.506-.26 7.689 2.14 7.748 2.98.06.83-.714 4.83-1.359 4.7-.645-.13-7.629-1.94-7.887-2.39zm-18.909 1.24s1.111-4.9 1.697-4.77c.585.13 6.647 2.08 6.389 2.67-.258.59-1.042 4.64-1.498 4.64-.457 0-6.717-2.01-6.588-2.54zm9.256 3.66s1.111-4.9 1.696-4.78c.586.13 6.648 2.09 6.39 2.68-.258.58-1.052 4.64-1.498 4.64-.447 0-6.717-2.01-6.588-2.54zm9.176 3.28s1.101-4.9 1.696-4.78c.595.13 6.647 2.09 6.379 2.68-.268.58-1.041 4.64-1.498 4.64-.456 0-6.756-2.01-6.577-2.54zm-20.516.37s1.111-4.9 1.697-4.77c.585.13 6.647 2.09 6.389 2.68-.258.58-1.042 4.64-1.498 4.64-.457 0-6.717-2.01-6.588-2.55zm9.256 3.66s1.101-4.9 1.696-4.77c.596.13 6.648 2.09 6.38 2.67-.268.59-.992 4.64-1.498 4.64s-6.707-2-6.578-2.54zm9.119 3.28s1.111-4.9 1.696-4.77c.586.13 6.647 2.09 6.389 2.68-.258.6-.992 4.63-1.498 4.63s-6.706-2-6.587-2.54zm-20.627 0s1.101-4.9 1.687-4.77c.585.13 6.657 2.09 6.389 2.68-.268.6-1.042 4.63-1.498 4.63-.457 0-6.707-2-6.578-2.54zm9.248 3.66s1.111-4.9 1.697-4.77c.585.13 6.647 2.08 6.389 2.68-.258.6-.992 4.63-1.498 4.63s-6.717-2.01-6.588-2.54zm9.125 3.24s1.111-4.9 1.697-4.77c.585.13 6.647 2.08 6.389 2.68-.258.6-1.042 4.63-1.498 4.63-.457 0-6.717-1.97-6.588-2.54z" fill="#864FF1"/><path d="M563.78 1219.53c-1.102 0-12.67-4.09-12.511-4.71 0-.05.08-.32.179-.69 2.639 1.3 10.784 4.12 11.697 4.12.912 0 1.746-2.91 1.914-4.47.358.18.576.31.615.39.328.65-.783 5.36-1.894 5.36zm12.253 3.52c-.645-.13-7.619-1.89-7.887-2.35a1.89 1.89 0 010-.99c1.746.68 6.736 1.93 7.282 2.04.545.11 1.161-2.6 1.329-3.98.417.24.665.44.685.58.03.78-.754 4.87-1.409 4.7zm-18.701-3.2c-.258.59-1.042 4.64-1.498 4.64-.457 0-6.717-1.99-6.588-2.54 0 0 .07-.28.169-.71 1.87.82 3.805 1.49 5.784 1.99.367 0 .992-2.71 1.309-4.03.556.27.893.5.824.65zm9.256 3.66c-.268.58-1.052 4.64-1.508 4.64-.457 0-6.707-1.99-6.578-2.55 0 0 .059-.27.169-.7 1.867.82 3.798 1.48 5.774 1.99.377 0 .992-2.72 1.319-4.03.546.27.923.5.824.65zm9.117 3.28c-.258.59-1.042 4.64-1.498 4.64-.457 0-6.707-1.99-6.578-2.55 0 0 .059-.27.159-.7 1.87.82 3.805 1.48 5.784 1.99.377 0 .992-2.72 1.309-4.03.556.27.893.5.824.65zm-20.457.41c-.268.59-1.042 4.64-1.498 4.64-.457 0-6.717-1.99-6.588-2.55 0 0 .06-.28.169-.7 1.867.82 3.798 1.48 5.774 1.98.377 0 .992-2.71 1.319-4.02.546.24.883.48.824.65zm9.246 3.62c-.258.59-.992 4.64-1.498 4.64s-6.707-1.98-6.578-2.54c0 0 .059-.28.159-.71 1.871.82 3.805 1.49 5.784 1.99.377 0 .992-2.71 1.309-4.02.556.26.893.49.824.64zm9.138 3.33c-.258.6-.992 4.64-1.498 4.64s-6.706-1.98-6.587-2.54l.168-.7c1.872.82 3.806 1.48 5.784 1.99.377 0 .992-2.71 1.31-3.97.545.15.883.39.823.58zm-20.646 0c-.258.6-1.042 4.64-1.498 4.64-.457 0-6.707-1.98-6.578-2.54 0 0 .06-.28.159-.7 1.872.82 3.806 1.48 5.784 1.99.377 0 .992-2.71 1.309-3.97.556.15.893.39.824.58zm9.258 3.62c-.258.59-.993 4.63-1.498 4.63-.506 0-6.707-1.99-6.588-2.54l.169-.7c1.869.82 3.804 1.49 5.784 1.99.377 0 .992-2.71 1.309-3.98.556.21.893.45.824.6zm9.125 3.28c-.258.59-1.042 4.63-1.498 4.63-.457 0-6.717-1.99-6.588-2.54l.169-.7c1.871.82 3.805 1.48 5.784 1.99.367 0 .992-2.71 1.309-3.98.546.21.883.45.824.6z" fill="#2D7F75" opacity=".36"/><path d="M583.106 1218.41c-4.425 12.2-11.727 30.61-11.727 30.61a69.741 69.741 0 01-30.08-11.03c-.228-.72.099-2.98.764-6.18 0 0 24.009 17.1 41.043-13.4z" fill="#2D7F75" opacity=".36"/><path d="M547.935 1090.62a51.31 51.31 0 01-7.321 17.89 11.086 11.086 0 01-3.155 3.46 3.89 3.89 0 01-2.2.89 3.98 3.98 0 01-2.314-.52 3.97 3.97 0 01-1.6-1.76 3.962 3.962 0 01-.315-2.35c.092-1.16.398-2.29.903-3.33.179-.4.367-.8.565-1.19a56.32 56.32 0 0111.489-15.39l3.175 1.87.773.43z" fill="#FFCD69"/><path d="M547.162 1090.16a51.515 51.515 0 01-6.022 12.8 11.144 11.144 0 01-3.155 3.48c-.649.45-1.407.72-2.195.78a4.515 4.515 0 01-2.289-.43 3.791 3.791 0 01-1.567-1.88c.178-.4.367-.8.565-1.19a56.47 56.47 0 0111.489-15.39l3.174 1.83z" fill="#FFC652"/><path d="M551.309 1087.83a6.857 6.857 0 01-.803 1.64c-.338.63-.616 1.29-.993 1.93a2.13 2.13 0 01-.992 1.11c-.527.15-1.087.12-1.597-.08a9.816 9.816 0 01-3.254-1.49c-.704-.48-2.083-1.33-2.123-2.29.031-.47.185-.91.446-1.29.07-.12.149-.25.209-.37.287-.53.585-1.07.922-1.56a8.187 8.187 0 012.362-2.58c.198-.13.456.14.367.35.111-.02.224 0 .33.03.106.04.2.11.275.19.881.9 1.856 1.71 2.907 2.4.367.24.883.45 1.289.74a1.143 1.143 0 01.655 1.27z" fill="#FFCD69"/><path d="M550.713 1086.61c-.099.18-.209.35-.298.52-.337.63-.615 1.29-.992 1.92a2.15 2.15 0 01-.992 1.12c-.527.15-1.088.12-1.597-.08a9.77 9.77 0 01-3.254-1.49 10.2 10.2 0 01-1.588-1.24c.07-.12.149-.25.209-.37.287-.53.585-1.07.922-1.56a8.196 8.196 0 012.361-2.58c.199-.13.457.14.367.35a.74.74 0 01.331.03c.105.04.2.11.275.19.881.9 1.856 1.71 2.906 2.4.457.29.943.5 1.35.79z" fill="#FFC652"/><path d="M569.416 1075.91a14.017 14.017 0 01-4.416 8.96 13.98 13.98 0 01-9.253 3.75 14 14 0 01-9.394-3.38 14.033 14.033 0 01-4.767-8.78c-.459-3.42.353-6.88 2.281-9.74a14.045 14.045 0 018.17-5.74c3.334-.84 6.863-.43 9.912 1.17a14.005 14.005 0 016.624 7.47 14.1 14.1 0 01.843 6.29z" fill="#864FF1"/><path d="M566.328 1075.44c-.029 1.5-.368 2.99-.995 4.35a11.015 11.015 0 01-2.651 3.6c-1.121 1-2.436 1.76-3.863 2.23-1.428.46-2.936.63-4.432.49a10.854 10.854 0 01-4.259-1.32 10.87 10.87 0 01-3.377-2.92 10.887 10.887 0 01-1.93-4.02 10.995 10.995 0 01-.16-4.47c.089-.99.316-1.96.674-2.89a10.94 10.94 0 015.105-5.61 10.909 10.909 0 0113.828 3.28 10.943 10.943 0 012.06 7.3v-.02z" fill="#49B3F7"/><path d="M552.341 1066.35a7.755 7.755 0 00-3.562 4.26 9.054 9.054 0 00-.168 6.45h.069c.546-1.81.536-3.75 1.35-5.49a6.296 6.296 0 013.105-3.18c2.857-1.16 6.052 0 8.304 1.84.635.53 1.716-.16 1.349-.99-1.647-3.62-7.123-4.68-10.447-2.89z" fill="#fff"/><path d="M568.571 1069.62a20.954 20.954 0 01-11.877 9.11 20.942 20.942 0 01-14.91-1.15 14.04 14.04 0 011.573-10.19 13.974 13.974 0 018.102-6.36 13.968 13.968 0 0110.252.91c3.178 1.6 5.63 4.34 6.86 7.68z" fill="#49B3F7" opacity=".35"/><path d="M666.104 1148.61c-8.254 0-14.028-1.36-17.937-2.9a22.436 22.436 0 01-6.945-4.11c-2.629-1.69-3.968-6.08-3.968-6.08a51.434 51.434 0 013.264-9.19 21.366 21.366 0 015.427-7.42c4.067-3.31 7.53-2.11 7.53-2.11l3.651-13.01c3.658-.24 7.288.77 10.298 2.87l-3.592 12.83c5.248 2.98 6.459 8.69 6.112 14.24a48.25 48.25 0 01-3.84 14.88z" fill="#49B3F7"/><path d="M667.603 1144.7c-.804 2.36-1.498 3.87-1.498 3.87-15.14 0-21.965-4.61-24.138-6.36-.437-.35-.685-.59-.784-.65-2.629-1.69-3.968-6.08-3.968-6.08a51.434 51.434 0 013.264-9.19c2.361-1.26 5.03-1.99 7.441-1a19.25 19.25 0 013.581 2.42 13.462 13.462 0 009.455 2.33c1.352-.33 2.749-.44 4.137-.32a6.691 6.691 0 013.69 2.45c.43.51.822 1.05 1.171 1.61-.32 3.73-1.11 7.4-2.351 10.92z" fill="#FFC652"/><path d="M658.316 1108.29a.08.08 0 00-.037-.04.101.101 0 00-.052-.02.105.105 0 00-.053.02.085.085 0 00-.037.04c-1.577 3.3-2.053 7.01-3.145 10.49-2.341-.12-4.851 1.48-6.528 2.98-1.676 1.5-4.236 4.2-3.571 6.6.035.14.101.26.191.36.09.11.202.19.328.24a.79.79 0 00.4.07.894.894 0 00.391-.11c1.527-1.1 2.152-3.27 3.392-4.69a15.09 15.09 0 014.743-3.58 2.81 2.81 0 001.111-.65c.307-.43.582-.87.823-1.34a20.77 20.77 0 002.044-10.29v-.08z" fill="#fff"/><path d="M647.047 1141.26l-3.512-14.45s1.775-5.37 2.371-7.95a21.366 21.366 0 00-5.427 7.42 51.434 51.434 0 00-3.264 9.19s1.339 4.39 3.968 6.08c.898.8 1.864 1.53 2.887 2.16l.843.48h.07c.284.15.592.31.923.47l.119.06.486.23h.089l.417.19.188.08.496.21.209.09.218.08c3.899 1.53 9.683 2.9 17.937 2.9 0 0 .695-1.51 1.498-3.87-8.611 1.37-16.756-1.65-20.516-3.37z" fill="#FFC652" opacity=".45"/><path d="M646.054 1151.14s-16.865 2.6-27.908-7.85l8.82-9.48 7.451-8.01 4.96-17.62.288-.09c1.2-.36 2.48-.36 3.679.01a6.305 6.305 0 013.057 2.05l-4.96 17.62 2.054 10.39 2.559 12.98z" fill="#49B3F7"/><path d="M646.054 1151.13s-16.865 2.61-27.908-7.84l2.401-2.57 6.419-6.96c1.151 1 2.591 1.6 4.108 1.71 1.309 0 2.668-.45 3.889 0 1.617.61 2.549 2.71 4.266 2.73.695-.09 1.379-.25 2.043-.47.758-.12 1.532.01 2.213.36l1.924 9.74.645 3.3z" fill="#FF6551"/><path d="M646.054 1151.13s-16.865 2.61-27.908-7.84l2.401-2.57s2.044 3.85 11.608 6.34a34.046 34.046 0 0013.254.83l.645 3.24z" fill="#FF6551" opacity=".36"/><path d="M639.864 1119.17c.218-1.33.476-2.66.734-3.98.325-1.21.456-2.47.387-3.72 0-.08-.119-.08-.149 0a11.585 11.585 0 00-1.181 3.49c-.317 1.31-.625 2.62-.992 3.91-.694 2.55-1.151 5.11-2.51 7.41-1.359 2.29-3.184 3.88-4.831 5.79-.893 1.04-1.677 2.2-2.5 3.29-.824 1.09-1.985 2.26-2.342 3.55a1.242 1.242 0 00.434 1.28 1.262 1.262 0 001.342.11c1.161-.65 1.984-2.12 2.808-3.15.823-1.03 1.855-2.22 2.659-3.41a53.98 53.98 0 004.107-6.86 27.62 27.62 0 002.034-7.71z" fill="#fff"/><path d="M609.752 1334.83l-1.845 4.42s-8.155-1-12.976 3.07c-3.473 2.98-5.467 8.44-5.467 8.44l-1.26.85-2.093 1.4-1.369.91c-16.38-3.07-17.451 8.2-17.451 8.2l-4.375.88-1.588-4.35 25.735-19.73 15.388-6.8 7.301 2.71z" fill="#FF8155"/><path d="M609.753 1334.83c-9.474-1.9-21.429 6.96-21.628 15.33-.017.48.009.97.08 1.45l-1.498.99-.596.41c-4.484-2.11-10.099-3.31-14.653-1.46s-8.324 6.42-8.542 11.45c-10.189-10.17-16.935-17.08-24.703-25.16 0 0 9.306-18.88 28.414-12.21l.744.28 1.111-1c.397-10.93 9.633-20.87 20.487-21.96.531-.1 1.081-.03 1.567.21.305.22.556.52.734.85a865.69 865.69 0 0118.483 30.82z" fill="#FFC652"/><path d="M588.205 1351.61l-1.498.99-.248-.33c-1.071-1.39-2.143-2.77-3.194-4.17-2.137-2.84-4.266-5.68-6.39-8.52a525.68 525.68 0 01-6.448-8.8 36.556 36.556 0 01-3.056-4.87l1.111-1c1.31 1.58 2.51 3.28 3.75 4.82 2.233 2.77 4.227 5.62 6.399 8.42 2.173 2.8 9.505 12.97 9.574 13.46zm.396-43.38c-1.547-1.1-4.603.51-6.032 1.32a17.914 17.914 0 00-5.287 4.76 25.104 25.104 0 00-3.433 5.78c-.129.33-1.597 4.86-.258 4.36.694-.27.645-.71.853-1.4.283-.94.638-1.86 1.062-2.75a26.286 26.286 0 013.422-5.29 17.085 17.085 0 014.534-3.92c.906-.52 1.877-.91 2.887-1.17.854-.22 1.697-.17 2.371-.79a.575.575 0 00.163-.48.536.536 0 00-.092-.24.488.488 0 00-.19-.18zm2.511 4.61a13.231 13.231 0 00-5.288 2.54 22.848 22.848 0 00-4.484 4.11 21.2 21.2 0 00-3.165 5.2c-.655 1.53-1.587 3.64-1.161 5.32.019.06.054.11.102.15.047.04.105.07.166.08.061.01.123 0 .18-.03a.372.372 0 00.137-.12c.408-.71.722-1.47.933-2.26.323-.93.701-1.84 1.131-2.73a23.486 23.486 0 012.976-4.54 21.546 21.546 0 013.969-3.69c1.518-1.05 3.284-1.6 4.811-2.58.665-.38.516-1.55-.307-1.45zm6.865 8.11c-1.726-1.19-4.266-.3-5.952.58a23.286 23.286 0 00-4.961 3.71c-2.857 2.69-6.091 6.54-6.746 10.53-.021.1-.007.2.041.29.048.09.125.16.22.2.094.04.199.05.296.02.098-.04.181-.1.237-.18 1.051-1.51 1.815-3.19 2.837-4.72a27.107 27.107 0 013.532-4.22 25.543 25.543 0 014.306-3.42c.817-.54 1.705-.96 2.639-1.26a7.671 7.671 0 013.165 0c.843.13.992-1.12.386-1.53zm1.864 7.1a23.14 23.14 0 00-9.058 5.03 23.021 23.021 0 00-3.323 3.74c-.923 1.32-1.925 2.92-1.895 4.58a.26.26 0 00.151.22c.044.01.091.02.136.01a.274.274 0 00.12-.07 23.78 23.78 0 002.659-3.59 24.015 24.015 0 013.214-3.54 20.99 20.99 0 018.492-4.57c.24-.06.443-.22.566-.44a.928.928 0 00.089-.71.964.964 0 00-.44-.57.976.976 0 00-.711-.09zM581.3 1347.3c-3.304-3.25-9.703-2.58-13.622-1-2.22.86-4.211 2.22-5.813 3.98-1.201 1.37-2.907 3.82-1.985 5.73.119.26.467.19.606 0 .461-.92.875-1.86 1.24-2.82a9.783 9.783 0 011.825-2.4 14.28 14.28 0 015.536-3.26c1.996-.65 4.1-.9 6.191-.73 1.984.15 3.869.8 5.843.99.228.04.337-.33.179-.49zm-7.986-5.81c-3.671-1.62-8.096-.92-11.697.58a16.483 16.483 0 00-4.96 3.24c-.993.92-2.53 2.85-1.28 4.13a.36.36 0 00.516 0c.446-.54.684-1.19 1.16-1.73.598-.64 1.263-1.22 1.985-1.72 1.32-.97 2.752-1.78 4.266-2.41 3.184-1.35 6.548-1.48 9.921-1.68.168-.03.297-.34.089-.41zm-2.322-5.5c-1.677-1.33-4.138-1.43-6.181-1.3-2.294.17-4.535.77-6.598 1.79-2.029 1-3.892 2.3-5.526 3.87-1.25 1.17-2.976 2.74-2.291 4.62.017.07.058.13.116.18.057.04.128.07.201.07.073 0 .144-.03.201-.07a.346.346 0 00.116-.18c.526-1.64 2.243-2.98 3.513-3.97a23.433 23.433 0 014.712-3.12 17.768 17.768 0 015.655-1.68c1.984-.24 3.968.17 5.953.06.138-.04.238-.19.129-.27zm-5.416-5.17c-3.681-2.27-9.117-.25-12.828.99-3.234 1.13-8.095 3.4-8.115 7.47a.625.625 0 001.161.31 19.144 19.144 0 013.154-3.73 19.86 19.86 0 015.11-2.74 34.452 34.452 0 015.516-1.81 28.93 28.93 0 015.952-.35.259.259 0 00.034-.03c.01-.01.017-.02.022-.03a.093.093 0 00.006-.04.068.068 0 00-.012-.04z" fill="#FFEAAE"/><path d="M344.06 1027.42l5.278 2.09a.46.46 0 00.283.03c.095-.03.18-.08.242-.15a.463.463 0 00.101-.27.43.43 0 00-.081-.27l-2.887-4.47a.414.414 0 01-.075-.28c.009-.11.053-.2.125-.27l2.907-3.1a.458.458 0 00.072-.56.465.465 0 00-.231-.19.505.505 0 00-.298 0l-4.186 1.22a.453.453 0 01-.282 0 .517.517 0 01-.224-.18l-2.084-3.21a.44.44 0 00-.203-.16.393.393 0 00-.261-.03.502.502 0 00-.232.12.528.528 0 00-.127.23l-.823 4.23a.447.447 0 01-.108.22.427.427 0 01-.21.12l-3.919 1.16a.484.484 0 00-.223.16.468.468 0 000 .54c.055.07.133.13.223.16l3.185 1.25c.097.04.178.12.229.21.051.09.068.2.049.3l-.873 4.43c-.016.1-.001.2.042.28.044.09.113.16.2.21.086.04.184.06.279.04a.417.417 0 00.252-.13l3.393-3.62c.061-.06.136-.1.219-.12a.69.69 0 01.248.01z" fill="#864FF1"/><path d="M310.725 1018.4l5.278 2.09c.09.03.188.04.281.01a.446.446 0 00.337-.42.456.456 0 00-.073-.27l-2.847-4.45a.47.47 0 010-.56l2.976-3.11a.45.45 0 00.047-.54.504.504 0 00-.218-.19.462.462 0 00-.285-.01l-4.187 1.23a.46.46 0 01-.284-.01.437.437 0 01-.222-.18l-2.083-3.2a.545.545 0 00-.203-.17.465.465 0 00-.261-.02.417.417 0 00-.232.12.438.438 0 00-.128.23l-.873 4.22a.46.46 0 01-.317.35l-3.919 1.15a.504.504 0 00-.228.16.462.462 0 000 .54c.057.07.137.13.228.16l3.185 1.26c.1.04.183.11.234.2.051.09.067.2.044.31l-.864 4.43a.462.462 0 00.242.48c.086.05.184.06.28.05a.479.479 0 00.252-.13l3.363-3.65c.064-.06.142-.1.227-.11.084-.01.171 0 .25.03z" fill="#FFC652"/><path d="M293.492 1044.71l.367 5.67c.007.1.044.19.106.27.062.07.146.12.24.15.094.02.192.01.282-.03.089-.03.165-.1.216-.18l2.787-4.52c.052-.09.13-.15.224-.19a.42.42 0 01.292-.01l4.048 1.31c.095.03.198.03.292 0a.458.458 0 00.306-.46.444.444 0 00-.112-.27l-2.907-3.26a.45.45 0 010-.54l1.984-3.26a.46.46 0 00-.235-.66.463.463 0 00-.261-.01l-4.166 1.06a.516.516 0 01-.247-.01.555.555 0 01-.21-.13l-2.708-3.06a.46.46 0 00-.24-.14.52.52 0 00-.277.02.503.503 0 00-.211.19.453.453 0 00-.066.27l.228 3.42c.008.1-.023.21-.087.29a.415.415 0 01-.26.17l-4.365 1.12a.413.413 0 00-.24.16.44.44 0 000 .54c.06.08.145.14.24.16l4.712 1.53c.077.04.143.09.19.16.048.07.075.15.078.24z" fill="#FF6551"/><path d="M336.828 1065.19a47.809 47.809 0 00-14.366-9.63c-1.19-.52-2.242 1.24-.992 1.77a46.31 46.31 0 0113.949 9.31c.903.92 2.351-.52 1.409-1.45zm8.363-9.13l-2.648-9.55a1.06 1.06 0 00-.484-.63 1.017 1.017 0 00-.381-.12.903.903 0 00-.4.03.841.841 0 00-.359.18.95.95 0 00-.263.3 1.03 1.03 0 00-.098.78l2.649 9.56c.073.26.246.48.484.62.237.13.518.17.781.1.263-.08.487-.25.622-.49s.17-.52.097-.78zm12.163-10.84a79.577 79.577 0 00-6.509 15.91c-.072.26-.037.54.098.78s.359.41.622.48c.263.08.544.04.781-.09.237-.14.411-.36.484-.63a76.825 76.825 0 016.27-15.36c.625-1.21-1.141-2.25-1.746-1.09z" fill="#49B3F7"/><path d="M401.887 1051.5l8.046-13.28c.381-.8.958-1.48 1.677-1.99a5.33 5.33 0 012.807-.5c12.094.16 38.305 2.75 38.305 2.75 1.072-5.45 2.14-10.89 3.205-16.33l2.768-14.06a626.65 626.65 0 00-54.566-5.24c-.76 7.4-1.326 14.8-1.696 22.21-.443 8.8-.625 17.62-.546 26.44z" fill="#FFC652"/><path d="M401.888 1051.5l8.046-13.28c.381-.8.958-1.48 1.677-1.99a5.331 5.331 0 012.808-.5c12.093.16 38.305 2.75 38.305 2.75 1.071-5.45 2.139-10.89 3.204-16.33-.208.27-10.07 13.1-37.372 10.54a24.776 24.776 0 01-16.082-7.66c-.47 8.83-.665 17.65-.586 26.47z" fill="#FFC652"/><path d="M81.648 1074.86c4.127 1.88 8.681 2.2 12.025-1.17.082-.02.16-.06.228-.11 4.534-3.29 3.294-9.73 1.865-14.33a74.676 74.676 0 00-7.272-16.04 88.335 88.335 0 00-24.049-26.2c-4.077-2.92-9.563-4.97-14.157-1.82-4.812 3.26-3.83 8.95-1.984 13.63 4.583 11.81 11.707 22.54 19.366 32.56 3.958 5.16 7.927 10.77 13.978 13.48zM71.628 1062c-6.558-8.75-12.788-17.89-17.58-27.77-1.21-2.38-2.262-4.82-3.254-7.26-.863-2.06-1.726-4.36-1.379-6.63a6.23 6.23 0 012.123-3.55 6.18 6.18 0 013.88-1.42c2.718-.13 5.247 1.16 7.41 2.68a87.984 87.984 0 0121.558 22.03 74.922 74.922 0 018.076 15.43c2.143 5.61 4.227 11.77.695 17.28v.11c-3.324 1.98-7.322 1.34-10.665-.31-4.723-2.31-7.888-6.5-10.864-10.59z" fill="#864FF1"/><path d="M46.211 1059.84c3.374.79 6.823 1.23 10.288 1.3 5.884 0 11.529-1.72 16.955-3.9 2.53-.34 5.07-.63 7.61-.99 5.873-.74 11.905-1.55 17.45-3.69a26.631 26.631 0 007.938-4.46c1.984-1.77 4.087-4.47 4.038-7.3-.05-2.82-2.481-5.37-4.703-6.95a21.142 21.142 0 00-8.592-3.44c-6.428-1.15-13.304-.23-19.713.69a143.62 143.62 0 00-19.127 4.16c-6.31 1.82-12.898 3.83-18.473 7.43-2.312 1.5-5.179 3.59-6.21 6.27-1.033 2.69.396 5.5 2.51 7.25 2.787 2.29 6.607 2.88 10.03 3.63zm-9.772-7.88c-1.051-2.77 2.808-5.13 4.742-6.39 4.822-3.12 10.576-4.84 15.993-6.59 10.913-3.5 22.52-6.09 34-6.3 5.595-.1 13.095 1.09 16.121 6.51 1.607 2.88-1.369 5.97-3.542 7.61a28.137 28.137 0 01-7.193 3.61 89.502 89.502 0 01-17.322 3.98l-.555.08a.215.215 0 00-.219 0c-2.976.46-5.853.84-8.75 1.57h-.119c-.853.2-1.686.43-2.52.68a54.012 54.012 0 01-6.14 1.52c-5.557.86-11.162 0-16.55-1.49-2.718-.76-6.815-1.81-7.946-4.79z" fill="#FF6551"/><path d="M74.011 1080.52c1.756-2.98 2.6-6.66 3.374-10.02.436-2 .702-4.03.793-6.07a127.543 127.543 0 005.358-17.07 83.356 83.356 0 002.688-18.44c.179-5.73-.06-12.06-1.984-17.5-.823-2.28-2.47-4.42-5.01-4.81-2.54-.38-4.425 1.5-6.032 3.1-4.812 4.73-6.895 10.76-8.314 17.21-1.419 6.45-2.867 13.11-4.097 19.71a116.652 116.652 0 00-2.233 17.68c-.116 2.98-.014 5.97.308 8.94.317 2.79.665 5.9 1.984 8.42 2.996 5.94 10.348 3.7 13.165-1.15zm-11.13-1.59c-1.38-4.87-1.37-10.43-1.072-15.44.336-5 .956-9.97 1.855-14.9.992-5.51 1.984-11.02 2.917-16.52.932-5.51 1.756-11.6 4.752-16.57 1.389-2.31 3.432-5.08 5.863-6.37 3.195-1.69 4.832 2.54 5.387 4.89a57.557 57.557 0 011.38 15.39 100.18 100.18 0 01-2.65 17.89c-.932 4.25-2.291 8.38-3.472 12.55a.245.245 0 00-.1.08.28.28 0 00-.059.11c-.119.59-.248 1.18-.377 1.76-.367 1.4-.704 2.79-.992 4.2a84.112 84.112 0 01-3.224 10.13c-.992 2.39-2.302 5.09-4.871 6.03-2.778 1.05-4.604-.62-5.338-3.23z" fill="#FFC652"/><path d="M69.794 1048.89c.829.7 1.894 1.06 2.977 1 2.748-.19 5.625-3.15 4.811-5.97-.813-2.81-4.177-4.97-6.944-3.31-2.5 1.48-3.76 5.64-1.469 7.83.19.17.4.33.625.45z" fill="#49B3F7"/><path d="M91.281 1076.64a3.463 3.463 0 003.056.86c.788-.16 1.49-.6 1.972-1.25.482-.64.709-1.44.637-2.24a3.621 3.621 0 00-1.026-2.15 3.617 3.617 0 00-2.139-1.03 3.29 3.29 0 00-2.394.39c-.72.43-1.25 1.12-1.485 1.92a3.288 3.288 0 001.38 3.5z" fill="#FFC652"/><path d="M94.299 1025.76c.438.22.926.33 1.418.31a2.533 2.533 0 002.275-2.14c.058-.37.033-.75-.072-1.11a2.687 2.687 0 00-1.207-1.66 2.67 2.67 0 00-2.027-.32c-.362.06-.707.2-1.015.4-.309.2-.574.46-.78.76a2.81 2.81 0 00-.428 2.11 2.384 2.384 0 001.835 1.65z" fill="#FF6551"/><path d="M49.803 1062.81c1.478.56 4.355.49 4.643-1.54a.575.575 0 000-.13c.172-.31.286-.65.337-1a2.77 2.77 0 00-.605-2.1 3.082 3.082 0 00-1.587-1.35 3.912 3.912 0 00-2.797.13 3.96 3.96 0 00-2.015 1.94c-.254.81-.184 1.68.194 2.44a3.266 3.266 0 001.83 1.61z" fill="#864FF1"/><path d="M180.442 1266.95a13.06 13.06 0 00-3.254-.82l-4.128-.94a1.081 1.081 0 00-.535.04c-.173.05-.33.15-.457.28-.177-.07-.371-.1-.561-.07-.19.02-.369.1-.52.22a4.066 4.066 0 00-1.568 2.98 4.356 4.356 0 00.821 2.87 4.343 4.343 0 002.473 1.65c2.151.61 4.452.39 6.449-.61 1.597-1.04 3.581-4.41 1.28-5.6z" fill="#A0A0A0"/><path d="M183.388 1262.35c-1.27-1.13-3.086-1.13-4.683-1.18a21.821 21.821 0 01-5.308-1c0-.51-.238-.89-.744-.92-.96-.15-1.943.01-2.807.45a4.587 4.587 0 00-1.994 2.03 4.799 4.799 0 00-.494 2.55c.074.87.389 1.71.91 2.42 2.173 2.81 6.945 2.81 10.12 2.58 1.776-.13 3.68-.21 4.861-1.72 1.181-1.51 1.736-3.79.139-5.21z" fill="#B7B7B7"/><path d="M190.948 1240.06c1.924-2.59 3.254-5.9 2.559-9.16a16.171 16.171 0 00-4.583-7.57 18.241 18.241 0 00-7.709-4.78 15.068 15.068 0 00-7.911-.26 15.14 15.14 0 00-6.971 3.76 15.913 15.913 0 00-4.583 8.85c-.432 3.04.196 6.13 1.776 8.75 1.567 2.75 3.73 5.13 5.129 7.95a16.17 16.17 0 011.498 9.37c-.119.78 0 1.83.992 1.52.416-.2.785-.49 1.084-.85.299-.35.521-.77.652-1.21.019.02.036.05.05.08.96 1.28 2.058 2.45 3.274 3.48 1.081 1 2.133 1.6 3.373.44 1.24-1.16 1.647-3.19 2.034-4.97.655-2.93 1.141-6.18 2.976-8.66 1.836-2.49 4.504-4.25 6.36-6.74zm-29.317-20.33a39.333 39.333 0 00-6.994-5.56c-2.51-1.75-5.07-3.43-7.639-5.08-.992-.64-2.193.99-1.22 1.7 2.44 1.76 4.881 3.49 7.381 5.17a40.326 40.326 0 007.937 4.57c.103.03.215.03.318 0 .103-.04.192-.1.253-.2a.494.494 0 00-.036-.6zm7.778-3.83c-1.984-5.71-5.754-10.8-9.633-15.34-.992-1.15-2.55.56-1.607 1.69 3.75 4.49 6.855 9.42 10.466 13.99.278.36.943.15.774-.34zm8.375-3.21c.203-1.34.236-2.71.1-4.06 0-1.43-.129-2.87-.189-4.31a252.83 252.83 0 01-.218-8.65c0-1.48-2.283-1.38-2.303.1 0 2.98 0 5.91.169 8.86.069 1.45.129 2.9.317 4.32.078 1.35.342 2.69.784 3.97.348.63 1.241.36 1.34-.23zm13.432-10.01c-1.289 2.29-2.53 4.61-3.71 6.95-.556 1.12-1.091 2.23-1.538 3.39a12.339 12.339 0 00-1.081 3.39c0 .47.575.58.853.32.772-.84 1.42-1.78 1.925-2.8.694-1.13 1.319-2.28 1.934-3.44 1.204-2.25 2.408-4.51 3.611-6.77.104-.26.107-.55.009-.81a1.127 1.127 0 00-1.342-.7c-.271.07-.506.23-.661.47zm10.913 8.39c-1.845 1.49-3.621 3.04-5.427 4.58-.893.76-1.746 1.55-2.619 2.33-.993.76-1.904 1.63-2.718 2.58a.614.614 0 00-.01.78c.09.11.216.18.356.21.139.02.284 0 .408-.07a18.398 18.398 0 003.065-2.15c.933-.69 1.885-1.37 2.808-2.09 1.875-1.46 3.75-2.89 5.575-4.41 1.003-.81-.426-2.59-1.438-1.76z" fill="#FFC652"/><path d="M182.276 1239.82c.526-1.18 2.977-4.79.923-5.77-.992-.45-1.984.46-2.788 1-.377.24-.565.5-.992.34-.426-.17-.496-.57-.635-.93a6.169 6.169 0 00-.714-1.47 1.278 1.278 0 00-.376-.43 1.41 1.41 0 00-.522-.23 1.225 1.225 0 00-.571.01c-.188.04-.363.12-.515.24-.941.88-1.759 1.89-2.431 2.98-.873-1.34-1.984-3.09-3.581-2.48-1.826.7-2.074 2.98-1.746 4.6.597 2.49 1.37 4.94 2.311 7.32.837 2.5 1.879 4.92 3.115 7.25.06.11.219 0 .189-.09-.943-3.53-2.213-6.96-3.195-10.47a22.592 22.592 0 01-1.22-5.21c0-1 .526-2.92 1.905-1.68a14.3 14.3 0 011.637 2.26c.054.08.128.15.214.21a.753.753 0 00.584.06.666.666 0 00.253-.17c.754-.88 1.518-1.76 2.252-2.67.06-.09.457-.68.546-.68.089 0 .407.62.457.75.128.38.281.76.456 1.12.154.35.389.65.684.89.295.23.642.39 1.012.47.992.04 1.637-1.13 2.53-1.34.893-.21.486.4.268.9-.218.49-.516 1.08-.764 1.63a60.31 60.31 0 00-1.428 3.32 29.077 29.077 0 00-1.985 6.85c-.02.07-.015.13.013.19.028.06.078.1.139.13.06.02.127.02.186-.01a.27.27 0 00.129-.14c1.369-2.89 2.381-5.88 3.66-8.75z" fill="#fff"/><path d="M184.727 1260.8c-.004-.17-.03-.33-.079-.49a1.434 1.434 0 00-.357-1.4 14.928 14.928 0 00-9.316-3.73c-1.522.06-3.034.27-4.514.63-.89.16-1.709.59-2.345 1.24a4.388 4.388 0 00-1.207 2.36c-.694 3.63 4.157 4.09 6.647 4.39l5.427.64c1.424.32 2.917.08 4.167-.68a3.894 3.894 0 001.577-2.96z" fill="#C6C6C6"/><path d="M42.054 1189.27l-5.953.38-4.345.26a16.51 16.51 0 01-1.776-4.09 76.683 76.683 0 00-4.335-10.26l3.442-1.22h.08c1.785-.67 3.77-1.43 4.762-3.09 2.103 4.54 5.952 13.48 8.125 18.02z" fill="#FF6551"/><path d="M30.427 1174.32c1.428 3.51 4.266 11 5.585 14.55l.129.78-4.345.26a16.674 16.674 0 01-1.776-4.09 76.819 76.819 0 00-4.375-10.26l3.442-1.22 1.34-.02z" fill="#FF6551" opacity=".36"/><path d="M33.84 1171.18s-.199 2.18-2.977 3.68a7.421 7.421 0 01-5.139.81c0-2.47-.268-4.97-.456-7.49-.149-1.53-.268-3.06-.268-4.59 1.35 1.16 2.728 2.24 4.078 3.34a53.216 53.216 0 014.762 4.25z" fill="#FFC652"/><path d="M29.078 1166.95a3.102 3.102 0 01-1.688 1.34 3.07 3.07 0 01-2.152-.11c-.119-1.53-.238-3.06-.238-4.59 1.35 1.18 2.729 2.26 4.078 3.36z" fill="#FF6551"/><path d="M47.291 1195.49l-3.511-2.29-2.59-1.69c-.01-1.49.112-2.98.367-4.45.506-3.67.843-7.4.992-11.11l2.391.43H45c1.25.23 2.629.42 3.75-.63-.328 5.02-1.141 14.72-1.459 19.74z" fill="#864FF1"/><path d="M45.715 1176.96c-.377 3.77-1.3 11.72-1.746 15.49l-.189.74-2.59-1.68c-.01-1.49.112-2.98.367-4.45.506-3.67.844-7.4.993-11.11l2.391.43.774.58z" fill="#2D7F75" opacity=".36"/><path d="M48.732 1175.67a3.553 3.553 0 01-2.976 1.99 3.867 3.867 0 01-3.225-1.55c.824-2.24 1.538-4.58 2.282-6.9.456-1.42.923-2.83 1.429-4.2.377 1.64.803 3.22 1.2 4.8.496 1.88.962 3.81 1.29 5.86z" fill="#FFC652"/><path d="M47.443 1169.77c-.19.19-.425.33-.684.41-.26.07-.534.08-.797.02a1.583 1.583 0 01-.708-.36 1.58 1.58 0 01-.441-.67c.456-1.42.923-2.83 1.429-4.2.377 1.6.804 3.22 1.2 4.8z" fill="#864FF1"/><path d="M55.934 1195.72l-4.673-3.31-3.443-2.49c.169-1.69.525-3.35 1.062-4.96a103.64 103.64 0 002.718-12.5l3.314 1h.08c1.735.51 3.65.99 5.357.05-1.052 5.64-3.364 16.55-4.415 22.21z" fill="#C6C6C6"/><path d="M55.944 1174.24c-.992 4.24-3.245 13.12-4.326 17.32l-.357.82-3.443-2.46c.169-1.69.525-3.35 1.062-4.96a103.64 103.64 0 002.718-12.5l3.314 1 1.032.78z" fill="#B7B7B7"/><path d="M60.348 1173.39a4.836 4.836 0 01-1.998 1.38c-.772.28-1.604.36-2.417.24a6.194 6.194 0 01-4.355-2.48c1.429-2.38 2.728-4.92 4.048-7.41.813-1.53 1.637-3.04 2.51-4.5.337 1.98.734 3.83 1.111 5.73.494 2.32.862 4.67 1.101 7.04z" fill="#FFC652"/><path d="M59.249 1166.39c-.314.18-.663.29-1.023.33-.36.03-.723-.01-1.066-.13a2.42 2.42 0 01-.92-.55 2.61 2.61 0 01-.613-.88c.814-1.53 1.637-3.04 2.51-4.5.338 1.93.735 3.83 1.112 5.73z" fill="#C6C6C6"/><path d="M56.181 1223.99c-5.298.88-20.834.62-22.243.66-.684 0-2.123-1.61-3.502-6.47-1.558-5.43-3.066-14.91-3.403-30.65 0 0 11.816 1.92 29.763 0l1.885-.22s2.798 35.79-2.5 36.68z" fill="#FFC652"/><path d="M56.18 1223.99c-5.297.88-20.834.62-22.242.66-.685 0-2.123-1.61-3.503-6.47 3.602 0 8.255-.37 10.487-1.04 5.784-1.75 9.792-5.97 12.342-11.34 2.649-5.58 4.633-12.05 3.571-18.27l1.885-.22s2.758 35.79-2.54 36.68z" fill="#FFC652"/><path opacity=".62" d="M218.054 1019.29l-.258 1.96-3.502 26.69-3.195 24.27-32.779.01-.684-19.92-.01-.16-1.29-37.41 41.718 4.56z" fill="#FFBF94"/><path d="M217.805 1021.2l-.01.05-3.502 26.69-36.658 4.36-.526.06.516-.22 7.471-3.22-.506-.27-1.31-24.19 34.525-3.26z" fill="#DCBA93" opacity=".54"/><path d="M185.096 1025.65l1.776 51.42 32.779-.01 5.595-55.6-40.15 4.19z" fill="#FFEBDD"/><path d="M172.337 1048.3l4.395 2.08 42.661 6.73 6.121-13.64c-4.961 1.98-18.106 2.77-29.396 3.3-12.243.57-25.11.45-25.11.45l1.329 1.08z" fill="#8E487A" opacity=".65"/><path opacity=".48" d="M219.265 1027.26l-29.486 2.62a.617.617 0 00.06 1.23l29.485-2.62c.163-.02.314-.1.419-.22a.629.629 0 00.142-.45.596.596 0 00-.219-.42.575.575 0 00-.451-.14h.05zm-.507 8.97l-29.505 2.27c-.081 0-.16.02-.232.06a.711.711 0 00-.189.15.617.617 0 00-.144.45c.01.16.079.3.194.41.115.1.265.16.421.16l29.505-2.27c.081 0 .161-.02.234-.06a.7.7 0 00.19-.15.597.597 0 00.141-.45.627.627 0 00-.196-.41.64.64 0 00-.419-.16zm-14.127-2.37l14.217-1.26c.081 0 .161-.03.234-.06a.57.57 0 00.19-.16.556.556 0 00.117-.21.615.615 0 00.024-.24.64.64 0 00-.066-.24.775.775 0 00-.153-.19.582.582 0 00-.214-.11.656.656 0 00-.242-.02l-14.167 1.26a.627.627 0 00-.233.06.604.604 0 00-.32.35.568.568 0 00-.037.23.578.578 0 00.198.43c.059.06.129.1.205.13.075.03.156.04.237.03h.01zm-15.317 1.37h.059l12.62-1.13a.613.613 0 00.578-.45.63.63 0 00.017-.26.646.646 0 00-.218-.42.652.652 0 00-.447-.14l-12.619 1.12a.925.925 0 00-.234.06.602.602 0 00-.319.35.568.568 0 00-.038.23.59.59 0 00.198.43c.06.06.129.1.205.13.076.03.157.04.237.04l-.039.04zm29.435 5.29l-19.842 1.62a.658.658 0 00-.385.23.597.597 0 00-.141.42c.006.15.068.3.174.41.106.11.249.17.401.19h.06l19.842-1.62a.636.636 0 00.233-.07.457.457 0 00.191-.15.556.556 0 00.117-.21.615.615 0 00.024-.24.62.62 0 00-.431-.55.992.992 0 00-.243-.03zm-22.332 1.99l-7.153.64a.594.594 0 00-.384.22.63.63 0 00.033.83c.106.11.248.18.401.19h.059l7.153-.64a.585.585 0 00.419-.22.601.601 0 00.142-.45.638.638 0 00-.219-.42.662.662 0 00-.451-.14v-.01z" fill="#E79E82"/><path d="M225.533 1043.44l-1.557 15.96-2.064 21.2-48.236.14-.218-2.73-2.431-30.81c31.559 7.29 54.506-3.76 54.506-3.76z" fill="#FFC652"/><path d="M223.977 1059.4l-2.064 21.2-48.236.14-.218-2.73s39.148.16 50.518-18.61z" fill="#FFC652"/><path d="M292.768 646.259c-2.361-3.191-6.488-3.34-9.593-5.397-3.78-2.495-5.437-7.146-7.173-11.122l-1.439-3.279a13.274 13.274 0 00-1.647-3.37c-1.379-1.58-3.591-.646-5.228-.109a438.527 438.527 0 00-15.149 5.248 464.224 464.224 0 00-16.866 6.5 1.01 1.01 0 00-.563.552 1 1 0 00.017.789l11.658 23.426a1.06 1.06 0 001.398.477.992.992 0 00.794 0l21.568-9.302a15.985 15.985 0 015.298-1.7c1.756-.119 3.542.089 5.308.07a57.72 57.72 0 0010.913-1.123.995.995 0 00.704-1.66zm-17.55.695a17.835 17.835 0 00-5.079 1.65l-21.827 9.412c-3.624-7.288-7.242-14.557-10.853-21.805a502.462 502.462 0 0127.521-10.198l3.462-1.143c.734-.248 2.242-.994 2.976-.387.277.401.488.844.625 1.312l.715 1.64 1.518 3.468c1.676 3.817 3.303 7.951 6.518 10.724a16.846 16.846 0 005.317 2.823 15.336 15.336 0 013.731 1.779c-2.952.491-5.937.75-8.929.775-1.935.01-3.82-.248-5.695-.069v.019z" fill="#49B3F7"/><path d="M265.535 631.758l-18.136 6.311c-1.24.437-.436 2.316.804 1.888l18.126-6.311c1.25-.437.446-2.315-.794-1.888zm3.74 3.668l-23.612 8.796c-1.23.457-.437 2.346.794 1.888l23.592-8.795c1.26-.467.466-2.306-.774-1.889zm1.637 5.904a108.176 108.176 0 00-21.32 7.066 1.027 1.027 0 00.803 1.888 105.599 105.599 0 0120.834-6.957c1.23-.248.972-2.286-.317-1.997zm193.836 6.956a.87.87 0 01-.635-.268 119.994 119.994 0 00-8.671-8.468 98.353 98.353 0 00-3.908 1.083c-1.836.527-3.721 1.074-6.945 1.849a.883.883 0 01-.992-.408.878.878 0 01.119-.993c3.77-3.976 5.655-6.381 7.837-9.114l.754-.944c-.486-1.471-2.103-6.222-3.254-8.945a.88.88 0 01.229-.994.851.851 0 01.992-.099 54.391 54.391 0 009.058 4.214l6.944-6.252a.868.868 0 011.018-.115.87.87 0 01.411.94l-1.984 9.154a58.431 58.431 0 019.831 3.2.863.863 0 01.36 1.318.863.863 0 01-.419.302 139.407 139.407 0 01-10.774 3.15l.853 10.486a.87.87 0 01-.506.864.9.9 0 01-.318.04zm-9.067-10.555a.812.812 0 01.565.219 128.3 128.3 0 017.441 7.096l-.724-8.776a.87.87 0 01.165-.579.867.867 0 01.499-.335c3.046-.736 6.092-1.59 9.098-2.544a57.199 57.199 0 00-8.185-2.415.927.927 0 01-.546-.378.9.9 0 01-.119-.656l1.617-7.355-5.317 4.791a.87.87 0 01-.863.169 56.32 56.32 0 01-7.709-3.34c1.22 3.23 2.49 7.067 2.56 7.275a.904.904 0 01-.149.815l-1.052 1.302c-1.786 2.237-3.383 4.234-5.952 7.077 1.617-.428 2.837-.786 4.037-1.133 1.379-.398 2.679-.776 4.415-1.213l.219-.02zm26.271 39.099a.715.715 0 01-.416-.417 111.26 111.26 0 00-4.306-9.531c-1.32-.169-2.371-.259-3.482-.368-1.637-.149-3.324-.298-6.142-.686a.739.739 0 01-.421-.207.755.755 0 01-.139-.883.725.725 0 01.342-.321c4.286-2.047 6.538-3.349 9.157-4.85l.893-.527c.07-1.331.268-5.665.199-8.219a.747.747 0 01.493-.719.74.74 0 01.836.242 47.79 47.79 0 005.953 6.232l7.53-2.843a.738.738 0 01.848.232.743.743 0 01.035.881l-4.475 6.719a50.933 50.933 0 016.895 5.675.745.745 0 01-.565 1.282 120.759 120.759 0 01-9.643-.865l-2.6 8.696a.738.738 0 01-.684.527.638.638 0 01-.308-.05zm-3.968-11.34a.828.828 0 01.397.358 112.012 112.012 0 013.74 8.05l2.182-7.285a.737.737 0 01.814-.516c2.679.357 5.397.636 8.105.815a49.139 49.139 0 00-5.813-4.522.747.747 0 01-.318-.468.759.759 0 01.109-.566l3.602-5.407-5.774 2.177a.733.733 0 01-.744-.129 48.987 48.987 0 01-5.149-5.109c0 2.982-.219 6.46-.229 6.639a.718.718 0 01-.367.607l-1.25.725c-2.143 1.232-4.047 2.336-7.004 3.807 1.429.168 2.52.268 3.601.367 1.231.11 2.391.219 3.969.418l.129.039zm143.07 126.83a7.394 7.394 0 00-8.839.228.793.793 0 00-.348.656 6.354 6.354 0 00-2.411 5.606c.1 1.54 1.241 2.236 2.53 2.792a16.918 16.918 0 004.614 1.332c2.877.368 5.575-.835 6.637-3.647a6.136 6.136 0 00.059-3.845 6.117 6.117 0 00-2.242-3.122zm-.248 7.861c-2.064 2.177-5.824.994-8.175-.069-.605-.269-1.419-.547-1.538-1.302a5.26 5.26 0 01.169-1.749 3.51 3.51 0 011.915-2.734.831.831 0 00.545-.814 5.628 5.628 0 016.558.278 4.385 4.385 0 011.646 3.081 4.393 4.393 0 01-1.12 3.309zm12.073-18.078c-1.091-.775-4.315-1.342-5.059.239a.822.822 0 00-.933.328 3.851 3.851 0 00.903 5.148 4.35 4.35 0 005.466-.507 3.34 3.34 0 00.634-4.118 3.337 3.337 0 00-1.011-1.09zm-1.567 4.572c-1.984.875-4.256-.994-3.135-2.982a.707.707 0 00.949-.171.707.707 0 00.132-.326c0-.298 1.33-.228 1.508-.208a2.36 2.36 0 011.538.765c.923 1.073.149 2.385-.992 2.892v.03zm3.96 11.957a4.24 4.24 0 00-4.752-2.564.827.827 0 00-.139 1.46.82.82 0 00.575.12c1.985-.556 4.455 3.34 2.282 3.797a6.474 6.474 0 01-2.976-.318c-.992-.348-2.093-1.879-.605-2.475.992-.378.545-1.988-.437-1.58a2.787 2.787 0 00-1.779 1.836 2.785 2.785 0 00.46 2.517c1.19 1.541 3.968 1.988 5.784 1.6 2.083-.457 2.45-2.683 1.587-4.393zM610.23 593.453a6.433 6.433 0 00-3.301-2.286 6.414 6.414 0 00-4.011.12.837.837 0 00-.546.904 4.08 4.08 0 00-2.976 3.498c-.308 2.763 1.736 4.97 4.117 6.033 2.381 1.064 5.219 1.342 6.885-1.073a6.405 6.405 0 00-.168-7.196zm-1.984 7.096c-.993.686-2.401.289-3.483-.089a6.09 6.09 0 01-2.976-1.988 3.48 3.48 0 01-.595-3.319 2.308 2.308 0 012.54-1.411.864.864 0 00.992-1.163 4.605 4.605 0 014.305 1.987c1.121 1.68 1.092 4.711-.813 5.983h.03zm-5.109-22.987a4.48 4.48 0 00-5.635 1.302.69.69 0 00-.104.674.69.69 0 00.52.439 3.673 3.673 0 00.834 4.582 3.972 3.972 0 003.283.739 3.95 3.95 0 001.562-.728 3.95 3.95 0 001.107-1.323 4.355 4.355 0 00-1.567-5.685zm.367 4.313a2.356 2.356 0 01-2.273 1.924 2.358 2.358 0 01-1.041-.224 2.15 2.15 0 01-.248-3.598.897.897 0 00.219-1.183 2.64 2.64 0 013.276 1.728c.139.438.162.904.067 1.353zm14.008.556c-.863-2.226-3.442-4.114-5.784-3.051a.858.858 0 00-.228.159 2.834 2.834 0 00-.903.487 3.288 3.288 0 00-1.081 2.982 4.593 4.593 0 001.569 2.809 4.572 4.572 0 003.024 1.086c2.242-.069 4.296-2.196 3.403-4.472zm-4.038 2.793a2.92 2.92 0 01-2.351-2.495c-.139-1.848 1.637-1.818 2.976-1.659.085.02.173.02.258 0a4.065 4.065 0 011.697 2.107c.397 1.441-1.409 2.285-2.58 2.047zm-483.43-29.497a.985.985 0 01-.705-.298l-11.19-11.38-13.037 5.625a.982.982 0 01-.6.061.992.992 0 01-.669-1.442l6.478-12.106-8.383-9.819a.995.995 0 01-.119-1.113.993.993 0 01.992-.527l12.629 1.391 8.036-16.16a.991.991 0 011.875.288l2.709 17.184 13.443 4.681a.997.997 0 01.664.994.997.997 0 01-.674.935l-12.322 4.174 1.895 16.409a.994.994 0 01-.556.994.992.992 0 01-.466.109zm-11.667-13.855a1.004 1.004 0 01.704.299l9.653 9.809-1.657-14.371a.995.995 0 01.665-1.064l10.358-3.498-11.29-3.976a.987.987 0 01-.645-.785l-2.332-14.66-6.964 14.044a.995.995 0 01-.992.546l-10.834-1.232 7.203 8.428a.994.994 0 01.119 1.113l-5.437 10.198 11.052-4.771a.982.982 0 01.397-.08zm-4.176 150.405h-.447c-3.899-.189-7.282-3.548-7.242-7.196a6.827 6.827 0 013.121-5.272 6.786 6.786 0 016.086-.631.986.986 0 01.565.549.994.994 0 01-1.379 1.26 4.837 4.837 0 00-6.409 4.114c0 2.584 2.52 5.059 5.348 5.188a5.318 5.318 0 003.283-.701 5.334 5.334 0 002.213-2.529 5.844 5.844 0 00-1.756-6.579.997.997 0 01.612-1.735.985.985 0 01.717.254 7.834 7.834 0 012.322 8.806 7.295 7.295 0 01-2.816 3.343 7.266 7.266 0 01-4.218 1.129zm-14.219 11.856a5.514 5.514 0 01-1.806-.288 5.047 5.047 0 01-1.21-.586 3.606 3.606 0 01-1.806-3.3 7.287 7.287 0 015.239-5.744 4.343 4.343 0 014.801 2.037 4.537 4.537 0 01-.158 5.486 6.515 6.515 0 01-5.06 2.395zm1.478-8.06c-.214.004-.427.03-.635.08a5.277 5.277 0 00-3.69 4.055c-.07.507.406 1.063.912 1.391.236.152.49.276.754.368a4.447 4.447 0 004.663-1.451 2.577 2.577 0 00.06-3.191 2.436 2.436 0 00-2.064-1.252zm16.032 10.068c-.505 0-1.008-.08-1.488-.238a3.976 3.976 0 01-2.639-3.151c-.1-.558-.079-1.13.06-1.679a4.677 4.677 0 014.603-3.449 4.188 4.188 0 014.101 5.109 4.2 4.2 0 01-1.224 2.146 5.076 5.076 0 01-3.413 1.262zm-2.212-3.737a1.99 1.99 0 001.319 1.62 3.115 3.115 0 002.927-.646c.297-.267.511-.614.618-1a2.1 2.1 0 00-.013-1.176 2.075 2.075 0 00-2.103-1.59 2.705 2.705 0 00-2.669 1.987 1.988 1.988 0 000 .855l-.079-.05zm251.102-213.973l19.029-2.445c1.309-.168 1.428 1.879.129 1.988l-19.039 2.455c-1.3.219-1.419-1.829-.119-1.998zm-1.726 4.949l25.061-2.673c1.309-.139 1.428 1.908.119 2.047l-25.051 2.674c-1.309.139-1.478-1.908-.129-2.048zm1.16 6.013a108.458 108.458 0 0122.233-3.19 1.02 1.02 0 01.129 2.038c-7.32.28-14.591 1.319-21.697 3.1-1.27.318-1.945-1.62-.665-1.948z" fill="#49B3F7"/><path d="M372.534 520.136a.994.994 0 01-.973-1.223 44.415 44.415 0 001.221-9.283 32.958 32.958 0 01-10.913-1.987 15.089 15.089 0 01-8.82-8.548 11.67 11.67 0 01.674-9.819c3.264-6.093 11.271-9.939 17.144-11.41 7.847-1.988 15.754-2.177 20.11-1.541h.307c3.879.567 7.937 1.153 11.082 4.095 3.512 3.25 4.593 8.945 2.619 13.915-1.627 4.104-5.179 7.722-10.01 10.177a55.399 55.399 0 01-12.818 4.214c-.992 4.751-4.961 8.14-9.048 11.211a.99.99 0 01-.575.199zm-1.231-40.362c-5.903 1.471-13.105 5.258-15.873 10.416a9.78 9.78 0 00-.556 8.219 13.125 13.125 0 007.709 7.395 32.535 32.535 0 0011.24 1.898.994.994 0 01.992.994 47.081 47.081 0 01-.734 8.011c3.096-2.534 5.764-5.357 6.28-8.945a.995.995 0 01.754-.825c4.385-.994 8.929-2.077 12.947-4.135 4.405-2.236 7.62-5.486 9.078-9.143 1.667-4.224.794-9.055-2.123-11.758-2.738-2.524-6.28-3.041-10.03-3.588h-.298c-4.058-.626-11.836-.407-19.386 1.461zM481.595 99.86a73.014 73.014 0 00-13.413.835c-1.29.199-.744 2.177.546 1.988a70.537 70.537 0 0112.897-.765c1.28.04 1.28-2.018-.03-2.058zm21.042 4.443a51.236 51.236 0 00-13.493-3.19c-1.309-.129-1.299 1.918 0 2.047a49.518 49.518 0 0112.947 3.121c1.231.467 1.756-1.511.546-1.978zm19.167 22.213a35.102 35.102 0 00-9.316-13.029c-.992-.865-2.44.586-1.448 1.451a33.146 33.146 0 018.8 12.125c.496 1.232 2.48.666 1.964-.547zm9.584 27.729c-1.382-4.353-2.764-8.712-4.147-13.079-.397-1.252-2.371-.715-1.984.547 1.376 4.36 2.758 8.719 4.147 13.079.417 1.252 2.391.716 1.984-.547zm41.639 34.031a55.618 55.618 0 01-14.743-8.159c-.992-.805-2.49.636-1.448 1.441a58.397 58.397 0 0015.655 8.696c1.23.457 1.766-1.521.536-1.978zm28.87 6.61a33.035 33.035 0 01-19.604-3.866c-1.16-.636-2.192 1.133-.992 1.769a34.853 34.853 0 0020.636 4.144c1.25-.149 1.26-2.196-.04-2.047zm24.315 2.922a22.238 22.238 0 00-15.983-2.316c-1.279.298-.734 2.276.546 1.988a20.056 20.056 0 0114.445 2.097 1.01 1.01 0 001.379-.388 1.012 1.012 0 00-.387-1.381zm17.799 41.714a39.869 39.869 0 01-7.332 17.144c-.793 1.053.993 2.077 1.766.994a41.23 41.23 0 007.54-17.632c.219-1.252-1.746-1.798-1.974-.506zm-15.497 21.885a32.113 32.113 0 01-13.453 4.82c-1.29.149-1.3 2.206 0 2.047a34.314 34.314 0 0014.484-5.098c1.112-.706.08-2.485-1.031-1.769zm-25.566 8.537a36.802 36.802 0 00-14.702 3.548c-1.181.567-.149 2.326.992 1.769a34.213 34.213 0 0113.661-3.269 1.023 1.023 0 00.765-1.73 1.024 1.024 0 00-.716-.318zm-24.91 6.898l-2.055 1.987c-.992.915.487 2.366 1.439 1.452l2.064-1.988c.953-.915-.496-2.366-1.448-1.451zm-429.83 78.27a1.107 1.107 0 01-1.052-.736 1.127 1.127 0 01.036-.854 1.11 1.11 0 01.629-.577 123.03 123.03 0 0010.913-4.532 1.112 1.112 0 01.992 1.988 125.81 125.81 0 01-11.092 4.621c-.136.054-.28.084-.426.09zm-44.237 7.304a89.123 89.123 0 01-22.55-3.111 1.127 1.127 0 01-.388-.197 1.128 1.128 0 01-.416-.745 1.119 1.119 0 01.975-1.239 1.11 1.11 0 01.433.035 87.058 87.058 0 0021.995 2.981 1.123 1.123 0 010 2.236l-.049.04zm11.31-.308a1.126 1.126 0 01-.742-.334 1.127 1.127 0 01-.053-1.516c.182-.214.437-.352.715-.386 4.147-.308 8.284-.815 12.292-1.521a118.703 118.703 0 009.713-2.107 1.12 1.12 0 011.284.821 1.128 1.128 0 01-.719 1.346 122.29 122.29 0 01-9.921 2.147 125.789 125.789 0 01-12.569 1.54v.01zm-44.02-6.858a1.045 1.045 0 01-.516-.129 42.737 42.737 0 01-5.952-3.727 64.344 64.344 0 01-11.568-10.992 1.117 1.117 0 01-.254-1.311 1.115 1.115 0 01.713-.59 1.109 1.109 0 011.237.5 62.287 62.287 0 0011.171 10.604 40.675 40.675 0 005.635 3.528 1.122 1.122 0 01.567 1.261 1.118 1.118 0 01-1.083.856h.05zm-23.046-24.062a1.132 1.132 0 01-.992-.695 27.191 27.191 0 01-2.113-12.145 1.124 1.124 0 011.635-.999 1.132 1.132 0 01.565.692c.042.148.053.303.032.456a24.732 24.732 0 001.985 11.141 1.115 1.115 0 01-.605 1.461 1.06 1.06 0 01-.507.089zm-6.498-93.793h-.218a1.132 1.132 0 01-.883-1.322c1.736-8.746 5.883-15.425 12.679-20.414a1.11 1.11 0 011.557.239 1.116 1.116 0 01.206.834 1.12 1.12 0 01-.444.736c-6.33 4.641-10.189 10.873-11.806 19.043a1.122 1.122 0 01-1.091.884zm22.71-25.334a1.108 1.108 0 01-1.113-.906 1.117 1.117 0 01.705-1.251 145.784 145.784 0 0119.138-5.536c1.31-.318 2.62-.626 3.968-.993.146-.046.3-.062.453-.046a1.124 1.124 0 01.083 2.222l-3.968.994c-6.4 1.38-12.7 3.2-18.85 5.447a1.23 1.23 0 01-.417.069zm34.455-9.402a1.11 1.11 0 01-.948-1.746c.156-.227.392-.388.66-.45 6.488-1.77 14.882-4.324 21.916-8.419a1.137 1.137 0 011.649 1.303 1.136 1.136 0 01-.538.685c-7.292 4.224-15.874 6.838-22.442 8.637a.99.99 0 01-.297-.01zm31.549-15.803a1.108 1.108 0 01-.764-.308 1.123 1.123 0 010-1.58 28.033 28.033 0 007.202-14.143c.315-1.584.475-3.195.476-4.811 0-.646 0-1.302-.079-1.987a1.118 1.118 0 011.834-.94c.225.192.365.466.388.761.06.705.09 1.431.09 2.137a27.648 27.648 0 01-.516 5.237 30.585 30.585 0 01-7.768 15.247 1.112 1.112 0 01-.863.387zm4.236-33.007a1.113 1.113 0 01-.992-.556c-4.306-7.375-11.548-12.583-16.866-15.664a1.137 1.137 0 01-.326-.288 1.128 1.128 0 01-.217-.826 1.14 1.14 0 01.141-.412c.074-.126.172-.237.288-.326.116-.088.249-.153.39-.191a1.112 1.112 0 01.845.115c5.546 3.21 13.106 8.667 17.659 16.459.077.126.127.266.148.412a1.092 1.092 0 01-.215.83 1.12 1.12 0 01-.329.288c-.159.099-.34.153-.526.159zm43.979 111.117a.86.86 0 01-.268 0 1.113 1.113 0 01-.813-1.352c1.904-7.633 6.657-14.382 11.25-20.872l.208-.298a1.131 1.131 0 01.731-.525 1.126 1.126 0 01.88.181 1.132 1.132 0 01.465.771 1.13 1.13 0 01-.25.865l-.209.298c-4.484 6.361-9.107 12.921-10.913 20.166a1.118 1.118 0 01-1.081.766zm17.858-30.811a1.07 1.07 0 01-.546-.149 1.122 1.122 0 01-.427-1.521c.397-.705.784-1.411 1.141-2.126 2.818-5.546 4.495-12.146 5.12-20.176a1.11 1.11 0 011.2-.994 1.13 1.13 0 01.992 1.202c-.655 8.319-2.401 15.197-5.357 21.011a52.175 52.175 0 01-1.191 2.216 1.1 1.1 0 01-.962.547l.03-.01zm6.607-34.686a1.107 1.107 0 01-.775-.309 1.11 1.11 0 01-.336-.765c-.258-7.543-1.141-15.196-1.925-21.955l-.198-1.709a1.117 1.117 0 01.238-.828 1.139 1.139 0 011.585-.182 1.097 1.097 0 01.409.761l.199 1.71c.783 6.798 1.666 14.501 1.924 22.134a1.101 1.101 0 01-.297.799 1.109 1.109 0 01-.774.354l-.05-.01zM395.579 98.888h-.159a66.532 66.532 0 01-22.768-7.782 1.12 1.12 0 01-.548-.664 1.125 1.125 0 011.599-1.324 64.267 64.267 0 0022.035 7.533 1.122 1.122 0 01.575 1.91 1.118 1.118 0 01-.734.317v.01zm-190.662-9.194h-.129a1.107 1.107 0 01-.753-.409 1.117 1.117 0 01-.239-.823c.194-1.629.526-3.238.992-4.81a1.114 1.114 0 112.143.616 27.988 27.988 0 00-.883 4.442 1.115 1.115 0 01-1.131.984zm158.002-4.502a1.128 1.128 0 01-.585-.16c-4.028-2.474-8.592-5.267-13.662-7.811l-5.764-2.892-1.369-.696a1.124 1.124 0 01-.496-1.5 1.11 1.11 0 01.645-.566 1.095 1.095 0 01.853.068l1.369.686 5.755 2.892c5.158 2.584 9.772 5.407 13.839 7.902a1.11 1.11 0 01-.585 2.067v.01zM211.128 74.458a1.08 1.08 0 01-.655-.219 1.122 1.122 0 01-.248-1.56 46.811 46.811 0 0110.982-10.615 79.04 79.04 0 017.63-4.72 1.124 1.124 0 011.528.456 1.134 1.134 0 01-.457 1.531 80.367 80.367 0 00-7.48 4.572A44.403 44.403 0 00211.981 74a1.111 1.111 0 01-.863.457h.01zm120.262-5.963a1.098 1.098 0 01-.486-.12c-8.433-4.134-15.288-7.285-21.578-9.938a1.11 1.11 0 01-.6-1.457 1.12 1.12 0 01.602-.602 1.112 1.112 0 01.851.001c6.34 2.624 13.235 5.785 21.707 9.939a1.124 1.124 0 01-.496 2.127v.05zM240.216 54.58a1.109 1.109 0 01-1.123-.916 1.114 1.114 0 01.736-1.25 85.197 85.197 0 0123.533-4.97 1.12 1.12 0 011.18 1.044 1.103 1.103 0 01-.992 1.182 82.63 82.63 0 00-22.917 4.83 1.25 1.25 0 01-.427.03l.01.05zm58.405-.258a1.11 1.11 0 01-.347-.06 92.945 92.945 0 00-23.017-4.562 1.122 1.122 0 01-1.042-1.192 1.106 1.106 0 011.191-.994 94.583 94.583 0 0123.572 4.661 1.12 1.12 0 01.705 1.421 1.113 1.113 0 01-1.072.676l.01.05zM557.827 391.02a1.088 1.088 0 01-.824-.358c-5.387-5.804-9.584-15.683-11.538-22.382a1.108 1.108 0 01.087-.854 1.118 1.118 0 01.667-.538 1.132 1.132 0 011.389.766c1.885 6.46 5.953 15.971 11.032 21.487a1.111 1.111 0 01.197 1.228 1.115 1.115 0 01-1.01.651zm-13.245-35.671a1.118 1.118 0 01-1.121-1.103v-.696a60.11 60.11 0 014.96-23.942 1.121 1.121 0 011.834-.326 1.12 1.12 0 01.306.796 1.11 1.11 0 01-.096.424 57.822 57.822 0 00-4.772 23.048v.666a1.12 1.12 0 01-1.101 1.133h-.01z" fill="#49B3F7"/><path d="M177.874 267.062a.984.984 0 01-.772-.376.992.992 0 01-.21-.528 88.707 88.707 0 01.089-17.631.993.993 0 011.974.208 86.408 86.408 0 00-.268 15.028 61.446 61.446 0 0112.6-9.939.992.992 0 01.992 1.709 59.56 59.56 0 00-13.691 11.161.987.987 0 01-.714.368zm-56.383-116.116a.994.994 0 01-.992-.835 28.255 28.255 0 00-6.945-14.281 1 1 0 01-.129-1.163.994.994 0 011.062-.477c2.232.467 4.623.795 6.945 1.113a68.45 68.45 0 0110.714 2.047 1 1 0 01.757.855.989.989 0 01-.545 1.003.998.998 0 01-.787.04 67.644 67.644 0 00-10.348-1.987c-1.438-.199-2.897-.398-4.345-.636a30.383 30.383 0 015.645 13.148.998.998 0 01-.459 1.008.979.979 0 01-.364.135l-.209.03zm357.256-43.362a.992.992 0 01-.466-.109 52.66 52.66 0 00-12.263-4.383.998.998 0 01-.714-.666.995.995 0 01.199-.994c1.984-2.306 4.96-4.164 7.807-5.963 1.508-.994 2.977-1.859 4.177-2.803a.99.99 0 011.556.549.991.991 0 01-.365 1.041c-1.3.994-2.758 1.908-4.306 2.892a46.49 46.49 0 00-6.191 4.413 52.078 52.078 0 0111.022 4.115.996.996 0 01.417 1.341.994.994 0 01-.873.567z" fill="#49B3F7"/></svg>