<svg width="213" height="852" fill="none" xmlns="http://www.w3.org/2000/svg"><path fill-rule="evenodd" clip-rule="evenodd" d="M124.471 129.733c-.114 1.519 1.288 2.378 2.221 3.064 2.973 2.184 6.024 4.239 9.047 6.416 3.913 2.816 8.06 5.577 12.059 8.553 3.778 2.809 8.193 6.054 11.146 10.487 1.47 2.206 2.819 5.58 3.683 8.733.359 1.312.604 2.948.959 4.482.334 1.444.875 3.419 1.972 3.716.689.188 1.859-.31 2.26-.647 2.05-1.732.086-6.206-1.346-9.165-1.897-3.92-4.169-8.165-6.628-10.896-1.681-1.87-3.673-3.419-5.542-4.935-3.828-3.106-7.538-6.016-11.514-8.828-3.882-2.745-7.966-5.187-12.021-7.763-.96-.609-2.009-1.278-3.009-1.899-.948-.588-1.939-1.826-3.287-1.318z" fill="#4D3D87"/><path fill-rule="evenodd" clip-rule="evenodd" d="M169.236 158.866c-1.343.721-2.697-.212-3.702-.791-3.197-1.832-6.316-3.791-9.528-5.672-4.161-2.437-8.363-5.111-12.703-7.565-4.098-2.316-8.853-5.038-14.103-5.944-2.611-.449-6.244-.318-9.475.169-1.344.202-2.94.642-4.485.938-1.458.279-3.482.583-4.198-.297-.451-.556-.471-1.828-.323-2.33.752-2.578 5.639-2.591 8.926-2.48 4.352.146 9.152.506 12.647 1.648 2.389.782 4.612 1.974 6.754 3.069 4.391 2.243 8.555 4.459 12.735 6.955 4.081 2.436 7.967 5.182 11.966 7.847.944.631 1.983 1.321 2.955 1.983.918.628 2.452 1.034 2.534 2.47z" fill="#4D3D87"/><path d="M173.591 155.503c-.419-.834-1.569-1.707-2.482-2.379-2.595-1.906-5.57-3.653-8.152-5.252-3.128-1.937-5.37-3.243-8.865-3.88-1.095-.199-2.221-.161-3.385-.336-.94-.143-1.979-.671-2.91-1.05-.723-.699-1.627-1.435-2.138-2.234-.631-.994-1.051-2.04-1.68-2.962-1.996-2.935-4.096-4.458-7.135-6.533-2.51-1.713-5.311-3.729-8.103-5.328-.985-.562-2.247-1.259-3.181-1.306-1.298-.067-2.022.948-2.239 1.545-.286.789-.01 1.661-.296 2.618-.21.709-.896 1.503-1.371 2.292-1.343 2.234-3.193 4.707-3.588 7.489-.454 3.218 2.141 4.976 3.878 6.369 2.16 1.728 4.37 2.916 7.115 4.021 1.753.705 3.406 1.429 5.354 1.065 1.851-.347 3.515-1.806 4.895-2.958 1.064-.89 2.775-2.71 4.006-2.893 1.406-.209 2.1.467 3.055 1.01.883.654 1.783 1.013 2.16 2.383.332 1.202-.641 3.501-1.023 4.836-.495 1.726-1.155 3.838-.723 5.672.456 1.929 1.789 3.148 3.143 4.464 2.121 2.062 4.102 3.602 6.557 4.878 1.975 1.026 4.636 2.686 7.394.966 2.382-1.485 3.896-4.178 5.394-6.309.53-.757.978-1.704 1.54-2.186.76-.649 1.669-.745 2.274-1.328.46-.44 1.094-1.513.506-2.674zm-33.573-13.498c-1.098 1.275-2.382 2.549-3.952 3.618-1.102.752-2.092 1.498-3.792 1.417-1.085-.054-2.333-.754-3.342-1.296-2.026-1.087-3.917-2.36-5.562-3.89-1.141-1.063-2.197-1.832-2.154-3.899.022-1.068.501-2.138.846-2.822.776-1.543 1.838-3.035 2.92-4.437.432-.557 1.212-1.804 1.961-2.011.035-.009.062-.105.157-.093 1.717.227 3.18 1.119 4.519 1.858 3.281 1.81 6.329 4.111 8.805 7.142.442.543 1.047 1.389 1.049 2.115.002.872-.923 1.681-1.455 2.298zm25.033 21.107c-.486.591-1.27 1.462-2.237 1.917-1.873.877-3.004.221-4.437-.392-2.067-.885-3.996-2.099-5.811-3.51-.904-.704-2.05-1.561-2.537-2.531-.763-1.521-.481-2.73-.241-4.042.344-1.868.988-3.556 1.707-5.078.349-.736.715-1.908 1.515-2.26.665-.294 1.681-.083 2.357.103 3.776 1.036 7.111 2.891 10.095 5.16 1.218.923 2.627 1.9 3.53 3.379.048.082-.027.144-.022.179.114.77-.708 1.987-1.044 2.609-.842 1.559-1.778 3.131-2.875 4.466z" fill="#4D3D87"/><path opacity=".62" d="M140.424 137.592c-2.476-3.031-5.524-5.332-8.805-7.142-1.339-.739-2.802-1.632-4.519-1.858-.095-.013-.122.083-.157.093-.749.207-1.529 1.454-1.961 2.011-1.083 1.402-2.144 2.894-2.92 4.437-.345.684-.823 1.754-.846 2.822-.043 2.066 1.013 2.836 2.154 3.899 1.646 1.53 3.536 2.802 5.563 3.889 1.008.543 2.256 1.243 3.341 1.296 1.699.082 2.69-.665 3.792-1.416 1.571-1.07 2.854-2.343 3.952-3.618.532-.617 1.457-1.426 1.455-2.298-.002-.726-.607-1.573-1.049-2.115zm28.545 18.445c-.005-.035.07-.097.022-.179-.902-1.479-2.312-2.456-3.53-3.379-2.984-2.269-6.319-4.124-10.095-5.16-.676-.186-1.692-.397-2.357-.103-.8.352-1.166 1.524-1.515 2.26-.719 1.522-1.363 3.21-1.707 5.078-.24 1.311-.522 2.521.241 4.042.487.97 1.633 1.827 2.537 2.531 1.815 1.411 3.744 2.626 5.811 3.51 1.432.614 2.564 1.269 4.437.392.967-.455 1.75-1.327 2.237-1.917 1.097-1.335 2.033-2.907 2.875-4.466.335-.622 1.158-1.839 1.044-2.609z" fill="#fff"/><path fill-rule="evenodd" clip-rule="evenodd" d="M136.042 158.564c-.141.109-.27-.143-.384-.191-.607-.254-1.269.411-1.946.978-3.922 3.276-7.32 6.711-10.8 10.201a528.574 528.574 0 00-4.574 4.628c-.316.326-.658.757-1.024 1.206-.365.452-.787.901-.726 1.3.059.372.466.769.79 1.068a36.53 36.53 0 001.9 1.652c.274.223.739.58 1.042.527.451-.079.949-.679 1.304-1.06 1.07-1.145 2.152-2.354 3.191-3.45 2.884-3.043 5.804-6.036 9.049-8.956.775-.695 1.625-1.338 2.517-2.126.347-.308.761-.721 1.198-1.103.637-.559 1.32-.935.875-1.885 1.161-1.568 3.029-3.453 4.291-5.207.211-.295.532-.623.468-.976-.232-1.256-1.616-.353-2.315.083a86.072 86.072 0 00-4.856 3.311z" fill="#892"/><path fill-rule="evenodd" clip-rule="evenodd" d="M132.956 164.578c-.24-1.129-2.099-.041-2.938.474-1.495.92-2.733 2.041-3.798 3.133-1.166 1.197-1.961 2.228-2.642 3.615-.226.46-.534 1.076-.268 1.46.117.166.316.268.808.058.84-.358 1.465-1.174 1.975-1.641 1.816-1.661 3.48-2.772 5.173-4.442.657-.647 1.643-1.637 1.734-2.544.004-.031-.038-.079-.044-.113z" fill="#4D3D87"/><path d="M133.712 159.351a65.95 65.95 0 00-.63.538c.576.673 1.171 1.329 1.763 1.996.63.705 1.21 1.46 1.839 2.176.277-.257.58-.548.895-.824.023-.019.043-.038.066-.056-1.255-1.339-2.522-2.644-3.787-3.955l-.146.125zm-14.734 14.174l-.64.656c-.032.033-.066.072-.1.106 1.312 1.311 2.549 2.8 3.888 4.042.235-.252.469-.506.704-.761a79.028 79.028 0 00-3.852-4.043z" fill="#4D3D87"/><path fill-rule="evenodd" clip-rule="evenodd" d="M113.238 162.991c-.172.042-.053.298-.087.417-.176.635-1.106.742-1.972.924-5.002 1.053-9.802 1.598-14.697 2.171-2.208.26-4.105.479-6.466.728-.451.048-1.002.051-1.582.057-.58.008-1.194.063-1.47-.234-.253-.275-.315-.84-.35-1.278a35.738 35.738 0 01-.121-2.517c-.005-.355.003-.939.233-1.145.339-.305 1.119-.324 1.636-.368 1.563-.129 3.182-.231 4.685-.371 4.177-.383 8.335-.824 12.637-1.565 1.024-.177 2.055-.45 3.228-.66.458-.084 1.037-.153 1.607-.259.834-.155 1.553-.459 2.022.479 1.951.058 4.588-.243 6.747-.148.363.016.818-.032 1.056.238.843.959-.724 1.487-1.5 1.765a87.313 87.313 0 01-5.606 1.766z" fill="#EFAD1B"/><path fill-rule="evenodd" clip-rule="evenodd" d="M106.604 161.692c.74.886-1.265 1.676-2.191 2.014-1.645.604-3.293.886-4.81 1.043-1.661.177-2.964.163-4.475-.16-.5-.108-1.176-.248-1.31-.694-.06-.194-.016-.413.453-.67.8-.436 1.829-.423 2.513-.536 2.427-.398 4.331-1.017 6.69-1.313.912-.116 2.302-.278 3.071.21.025.017.04.082.059.106z" fill="#4D3D87"/><path d="M111.18 164.332c-.272.057-.541.109-.815.163-.17-.87-.319-1.742-.475-2.62-.164-.932-.4-1.855-.572-2.792.373-.057.789-.115 1.202-.192l.085-.018c.274 1.813.516 3.617.763 5.422-.063.011-.126.025-.188.037zm-20.253 2.802l-.912.096-.146.013c-.217-1.842-.621-3.736-.767-5.557.343-.025.687-.051 1.032-.079a80.1 80.1 0 01.793 5.527z" fill="#4D3D87"/><path fill-rule="evenodd" clip-rule="evenodd" d="M22.45 309.067c1.635-1.59 4.74-2.907 6.726-3.912 4.672-2.369 8.364-4.73 13.267-6.546 2.012-.743 4.721-1.305 6.2-.212.931.689 1.808 2.205 2.484 3.474 1.537 2.876 3.6 7.668 4.792 10.26 2.221 4.826 4.341 8.956 6.548 13.776 1.972 4.313 3.917 8.895 6.117 13.716.971 2.13 2.067 4.572 2.876 6.868.761 2.159 1.855 5.041.965 6.525-.618 1.029-2.121 1.826-3.25 2.444-1.355.742-2.412 1.07-3.413 1.55-2.603 1.248-4.366 2.221-6.847 3.242-1.952.8-4.293 1.687-6.747 2.53-2.207.759-4.83 1.641-6.687.579-1.68-.959-3.298-4.076-4.36-6.134-3.318-6.429-5.716-12.885-8.85-19.548-2.313-4.911-4.216-9.009-6.138-13.066-.933-1.962-1.995-4.148-3-6.52-1.418-3.349-3.52-6.491-.846-8.903.05-.046.115-.076.163-.123z" fill="#8F7ECE"/><path fill-rule="evenodd" clip-rule="evenodd" d="M23.873 309.777c.022-.024.02-.143.101-.204 3.623-2.724 6.734-3.718 10.85-5.87 3.596-1.88 8.637-5.553 11.788-3.777 1.697.957 3.184 3.814 4.299 6.051 3.388 6.824 6.125 12.345 9.317 19.323 2.779 6.071 6.053 12.901 8.953 19.343 1.152 2.557 1.915 4.332.436 6.161-.636.784-1.786 1.169-2.784 1.71-4.718 2.565-9.165 4.384-14.202 6.994-2.023 1.049-4.127 2.136-5.67 1.596-1.733-.61-3.453-3.398-4.58-5.587-2.377-4.602-3.558-7.83-5.978-12.677-4.331-8.683-8.815-17.003-12.377-25.42-1.226-2.904-2.372-5.436-.315-7.521.048-.048.115-.074.162-.122z" fill="#fff"/><path opacity=".26" d="M46.96 361.104c1.544.54 3.648-.548 5.67-1.596 5.039-2.61 9.485-4.429 14.203-6.994.998-.541 2.148-.926 2.784-1.71 1.4-1.73.79-3.413-.255-5.759-6.877 3.194-17.738 8.02-26.198 11.9 1.066 1.834 2.426 3.677 3.797 4.159zm-.349-61.178c-3.15-1.776-8.191 1.897-11.787 3.777-4.116 2.152-7.227 3.146-10.85 5.87-.08.061-.079.18-.101.204-.047.048-.114.074-.163.122-1.289 1.306-1.32 2.79-.86 4.429 8.582-4.289 17.098-8.089 25.698-12.486-.604-.835-1.25-1.532-1.937-1.916z" fill="#8F7ECE"/><path fill-rule="evenodd" clip-rule="evenodd" d="M38.16 304.755c.017 1.073-5.232 3.731-6.299 3.465-.527-.13-.532-.783-.286-1.055 1.015-1.126 6.567-3.591 6.585-2.41z" fill="#fff"/><path fill-rule="evenodd" clip-rule="evenodd" d="M41.797 349.626c7.814-4.647 15.269-7.575 22.785-10.79.246.382.358.739.525 1.105-7.585 3.557-15.128 6.91-22.798 10.867-.209-.348-.349-.684-.544-1.029-.081-.053-.039-.26.032-.153zm1.01 2.042c7.655-4.078 15.174-7.511 22.675-10.852.108.286.222.576.378.874-7.487 3.522-15.035 7.341-22.558 11.038-.232-.368-.404-.723-.495-1.06zm1.053 2.01c7.492-3.816 15.058-7.848 22.482-11.052.11.329.315.676.39.997-7.55 4.152-14.794 6.826-22.406 11.266-.217-.35-.323-.676-.466-1.013-.053-.078-.043-.14 0-.198z" fill="#892"/><path fill-rule="evenodd" clip-rule="evenodd" d="M25.362 316.321c1.42-1.079 3.865-2.03 5.953-3.078 4.013-2.016 7.488-3.985 11.742-6.034 1.322-.637 4.66-2.394 5.652-1.959.743.324 1.363 2.073 1.771 2.863 1.184 2.298 2.043 4.051 3.18 6.259.528 1.024 1.167 2.047 1.021 3.046-1.57 1.352-3.769 1.942-5.852 2.876-4.41 1.981-7.903 3.898-11.886 6.014-1.427.759-4.647 3.029-5.852 2.366-.746-.409-1.357-1.969-1.834-2.945-1.037-2.126-1.981-3.98-2.853-5.992a34.604 34.604 0 01-1.102-2.99.505.505 0 01.06-.426z" fill="#FF5000"/><path d="M32.334 323.676c.503-.573 1.41-.96 1.352-1.585-.078-.885-1.052-1.31-1.57-1.883-1.124-1.242-1.158-3.297.178-4.075 1.396-.815 3.158.388 3.5 2.078.178.869-.111 1.896.472 2.56.345.389.944.259 1.55.162.516-.085.936-.097 1.302.012a5.1 5.1 0 00-.323-3.477 5.124 5.124 0 00-6.819-2.447 5.123 5.123 0 00-.017 9.253c.078-.202.203-.4.375-.598z" fill="#fff"/><path d="M36.349 324.285a5.112 5.112 0 002.769-3.34c-.367-.109-.786-.096-1.303-.011-.605.096-1.204.226-1.55-.163-.583-.665-.294-1.691-.472-2.559-.342-1.691-2.104-2.894-3.5-2.078-1.335.777-1.302 2.833-.178 4.074.52.573 1.492.999 1.57 1.884.059.624-.849 1.011-1.351 1.585a2.053 2.053 0 00-.376.597 5.114 5.114 0 004.39.011z" fill="#8F7ECE"/><path fill-rule="evenodd" clip-rule="evenodd" d="M51.37 313.353c-.401-.707-1.158-2.193-1.227-2.318-2.044.961-9.45 4.821-9.45 4.821-.134-.196.58 1.528.972 2.166 0 .001 2.135-1.005 9.705-4.669zm-2.742-5.969c-7.47 3.849-2.366 1.023-9.818 4.949 0 0 .702 1.47 1.113 2.11 0 0 2.31-1.273 9.779-4.909-.368-.711-.723-1.431-1.074-2.15z" fill="#fff"/><g opacity=".58" fill="#8F7ECE"><g opacity=".58"><path opacity=".58" d="M58.95 334.517l-.211.097-.514.245a94.75 94.75 0 01-4.437-8.342c-.05-.106-.098-.213-.147-.319l-.085-.187.084-.2a.262.262 0 00-.032-.272.332.332 0 00-.323-.119c-.3-.665-.591-1.321-.86-1.951a.292.292 0 00-.296-.176.356.356 0 00-.265.151.278.278 0 00-.022.268c.311.729.647 1.487 1.027 2.316l-5.932 14.158-1.004.473a.292.292 0 00-.164.349.306.306 0 00.434.191l.083-.039.302-.144-.302.721a.259.259 0 00.032.272.353.353 0 00.298.126.313.313 0 00.265-.19l.556-1.328 9.205-4.344 1.323-.628c.29.475.58.949.875 1.421a.334.334 0 00.308.148.346.346 0 00.275-.161.243.243 0 00-.014-.258c-.298-.471-.585-.945-.874-1.418l.681-.322a.289.289 0 00.165-.347.303.303 0 00-.431-.191zm-3.403.441a.3.3 0 00.005.238.17.17 0 00.035.051.199.199 0 00.018.056l.31.646-8.13 3.836 4.359-10.399.843-2.019.239-.569a94 94 0 003.873 7.389l.021.039-1.406.571a.294.294 0 00-.167.161zm2.11.169l-1.171.55-.221-.455 1.166-.474.226.379zm2.7-6.657a17.83 17.83 0 01-.8-.76.275.275 0 00-.065-.265.325.325 0 00-.29-.096 17.31 17.31 0 01-.852-.973c-.127-.156-.377-.137-.501.024a.286.286 0 00-.055.215.252.252 0 00-.016.108c.023.498.085 1.007.185 1.513a.289.289 0 00-.116.21.27.27 0 00.078.215.323.323 0 00.149.087c.125.508.287 1.009.481 1.49a.29.29 0 00.293.18.362.362 0 00.264-.151.28.28 0 00.028-.268 10.252 10.252 0 01-.482-1.527l.445-.339c.28.279.536.522.784.74.125.113.311.129.438.028a.31.31 0 00.114-.23.244.244 0 00-.082-.201zm-1.875-.986l.192.209a5.63 5.63 0 01-.146.112 7.797 7.797 0 01-.046-.321z"/><path opacity=".58" d="M55.171 339.585a1.011 1.011 0 00-.262-.594c-.282-.304-.764-.408-1.193-.249-.227.083-.42.238-.532.425a.297.297 0 00.012.339.33.33 0 00.059.175l1.327 1.905c.057.077.159.12.273.111a.316.316 0 00.1-.023.307.307 0 00.203.056.382.382 0 00.181-.061c.482-.303.752-.727.74-1.166-.011-.457-.357-.918-.908-.918zm-1.066-.426l.032.103c.018 0 .034.002.077.007l.018.001.074.023.027.017.024.013c.008.006.018.013.026.021l.011.006c.02.021.04.042.07.079.001.002.001.004.003.005l.003.005.016.028c.01.02.02.039.034.074 0 .003.002.008.005.011l.006.024a.795.795 0 01.011.108v.003l-.008.064c-.003.013-.003.026-.005.034-.01.029-.022.055-.04.095a.437.437 0 00-.043.06.289.289 0 00.079.407c.136.093.363.053.448-.079l.02-.028c.009-.007.02-.018.035-.028l.044-.021.02-.003.051-.01c.016.002.029.004.045.002a.14.14 0 00.034.005l.058.021.027.016c.006.006.013.008.02.012l.014.018.02.019a.179.179 0 01.02.026c.008.013.013.026.022.042.01.021.018.038.021.051l.01.034.008.047.005.053a.569.569 0 01-.075.279c-.07.119-.176.228-.335.339l-1.23-1.764.048-.037a.041.041 0 00.013-.008l.039-.021.085-.032c.013-.001.026-.006.058-.013l-.002-.008c.02.007.037.005.064.002l-.007-.102z"/></g><g opacity=".58"><path opacity=".58" d="M39.42 338.708c-1.066-2.208-2.26-4.874-3.651-8.143.594-.286 1.231-.59 1.875-.896.89-.422 1.792-.851 2.62-1.253.125-.059.271-.114.427-.171.433-.159.881-.323.91-.668a.11.11 0 00-.01-.054.3.3 0 00-.298-.167c-.117.009-.231.071-.334.126-.043.022-.082.045-.117.058-.99.356-1.75.687-2.261.981-.424.246-.924.475-1.405.697-.766.35-1.556.713-2.08 1.154a.1.1 0 00-.032.11c.546 1.49 1.283 3.065 1.994 4.59a95.82 95.82 0 011.375 3.033 55.983 55.983 0 00-.433-.486 32.7 32.7 0 01-.553-.624 9.035 9.035 0 01-.246-.3c-.374-.467-.8-.997-1.444-.983-.046.002-.093.034-.102.08-.11.469-.219 1.14.097 1.582.028.04.08.053.129.039.392-.135.348-.445.316-.67-.011-.085-.024-.167-.016-.238.507.525 1.012 1.139 1.502 1.733a38.154 38.154 0 001.091 1.296c.236.282.535.634.96.615h.004a.109.109 0 00.098-.076c.125-.398-.087-.771-.273-1.1a4.597 4.597 0 01-.143-.265z"/><path opacity=".58" d="M39.086 330.772a.11.11 0 00-.106-.074l-.043.004c-.422.03-.464.371-.493.621a.905.905 0 01-.079.331l-.093-.071c-.177-.132-.376-.281-.646-.26a.778.778 0 00-.288.08c-.052.024-.076.083-.05.132.149.322.397.42.615.507.132.055.258.104.361.201-.006.128-.04.27-.077.417-.082.334-.172.712.068 1.022.022.03.06.045.096.041a.11.11 0 00.045-.012c.37-.198.38-.522.386-.808.005-.153.01-.297.064-.416.055.03.11.066.165.103.167.107.355.231.604.213a.852.852 0 00.297-.085.1.1 0 00.058-.109c-.061-.334-.366-.437-.638-.527-.149-.05-.29-.098-.395-.176.02-.092.05-.179.08-.269.086-.258.174-.526.07-.865zm6.409 2.407c-.229-.068-.341.017-.437.104a.729.729 0 01-.126.103c-.268-.182-.666-.721-.796-1.172a.75.75 0 01-.03-.394c.08.03.188.06.298.052a.347.347 0 00.294-.187.099.099 0 00-.007-.103c-.236-.324-.485-.38-.65-.367a.648.648 0 00-.43.221.834.834 0 00-.21.622c.077.834.96 1.794 1.476 1.954a.093.093 0 00.044.005c.011-.002.024-.003.033-.008.26-.103.554-.221.64-.438a.393.393 0 00-.036-.342.091.091 0 00-.063-.05zm-4.025.215c.015.042.062.069.11.066l.006-.002c.484-.077 1.153-.475 1.357-.806a.098.098 0 00-.008-.115c-.057-.066-.17-.138-.377-.124-.344.026-.805.292-1.007.583-.098.141-.125.279-.082.398zm-2.974 1.772c.268-.02.594-.182.91-.338.125-.062.248-.123.365-.175.116-.05.241-.096.368-.144.51-.193 1.034-.39 1.005-.794a.104.104 0 00-.083-.091c-.363-.077-.879.165-1.412.43-.18.092-.363.182-.543.261a4.258 4.258 0 01-.26.099c-.355.125-.758.268-.727.606a.1.1 0 00.048.075c.088.056.198.08.33.071zm4.578-2.103c-.36.026-.974.376-1.107.699-.05.117-.032.227.05.307a.114.114 0 00.087.032.059.059 0 00.02-.004c.368-.093 1.202-.438 1.27-.867a.099.099 0 00-.031-.091.392.392 0 00-.29-.076zm-1.656 3.519c-.13-.079-.252-.151-.36-.258a2.42 2.42 0 01.002-.45c.018-.316.037-.645-.163-.906-.029-.037-.08-.057-.124-.035-.416.14-.376.463-.347.697.013.095.024.186.013.264a1.34 1.34 0 01-.239-.193c-.156-.146-.331-.313-.593-.294a.564.564 0 00-.16.034.1.1 0 00-.07.112c.062.411.396.62.691.805.15.095.293.185.4.295.02.114.018.241.015.376-.005.281-.012.599.221.825a.104.104 0 00.085.031l.02-.002c.414-.103.361-.401.328-.597a.939.939 0 01-.023-.188c.17.162.378.353.61.336a.435.435 0 00.293-.151.101.101 0 00.017-.113c-.164-.318-.392-.456-.616-.588z"/></g></g><path fill-rule="evenodd" clip-rule="evenodd" d="M55.658 363.9c-.824.439-.358 1.267-.207 1.763.205.68.554 1.411.76 1.977.457 1.256.624 2.579.64 3.85.03 2.388-.39 4.948-1.269 7.4-1.689 4.723-5.712 9.491-4.438 14.526.75 2.964 3.08 5.293 5.592 6.518 2.307 1.126 4.703 1.497 7.343 1.31 2.569-.181 5.258-.676 7.792-2.064 2.832-1.548 5.19-4.038 6.665-6.417 2.741-4.419 3.326-9.65 2.383-14.768-.493-2.664-1.284-5.311-2.945-7.896-3.487-5.425-8.932-9.902-13.35-12.743-4.712-3.031-9.306-4.945-14.193-7.283-3.173-1.519-7.111-3.706-8.556-7.908-.317-.923-.643-2.209-.407-2.879.32-.903 1.497-2.035 2.722-2.859 1.788-1.204 3.854-1.534 5.75-1.609 5.525-.217 11.082 1.078 16.454 1.142 6.934.08 13.942-.434 21.513-6.411.375-.296 1.036-.578.989-1.225-.44-.426-1.031-.071-1.407.133-.522.286-1.063.689-1.51 1.017-6.945 5.055-13.372 5.375-19.883 5.208-5.354-.137-10.846-1.362-16.407-1.084-2.632.13-5.534 1.074-7.825 3.599.938-3.713 5.758-5.756 8.81-6.512 3.45-.858 6.904-1.171 10.086-1.298 3.46-.14 6.546-.019 9.97-.318 1.559-.135 3.332-.384 5.082-.991 2.017-.699 4.942-2.102 6.151-4.143.185-.313.512-.781.236-1.164-2.895 3.321-6.329 4.307-9.465 4.896-3.169.593-6.342.294-9.327.342-3.007.046-6.195.096-9.363.638-3.226.549-6.63 1.106-9.827 3.314-2.378 1.643-3.603 3.766-4.056 5.781-.466 2.057-.137 4.254.941 6.368 2.531 4.973 7.257 6.724 11.065 8.503 7.596 3.544 16.167 7.414 23.08 16.172 2.81 3.56 3.948 7.061 4.421 10.552.47 3.474.12 6.854-1.011 9.864-1.226 3.262-3.82 6.655-7.53 8.701-3.331 1.836-7.002 2.34-10.21 1.925-2.858-.364-7.297-2.401-8.357-6.643-.86-3.443 1.06-6.596 2.58-9.679 2.18-4.423 3.929-9.697 2.818-14.667-.28-1.254-.643-2.537-1.38-3.886-.204-.369-.36-.989-.92-1.052z" fill="#4D3D87"/><path fill-rule="evenodd" clip-rule="evenodd" d="M54.077 365.101a1.618 1.618 0 002.182.675 1.616 1.616 0 00.673-2.181L56 361.827a1.615 1.615 0 00-2.856 1.507l.934 1.767zm32.059-44.071c-1.402 1.204-2.8 2.41-4.241 3.605-.397-.363-.797-.705-1.182-1.11 1.53-1.564 4.312-4.778 7.228-6.022 1.179-.504 2.957-.597 3.363 1.094.371 1.555-1.87 3.862-3.705 3.388-.583-.149-.94-.547-1.463-.955z" fill="#4D3D87"/><path fill-rule="evenodd" clip-rule="evenodd" d="M87.062 320.3c.122-.417 1.343-1.577 1.748-1.074.27.334-.291.756-.598 1.02-.234.2-.668.772-1.045.52-.206-.135-.14-.35-.105-.466zm3.535-.857c.066.461-.59.83-.877.536-.355-.364.756-1.337.877-.536z" fill="#fff"/><path fill-rule="evenodd" clip-rule="evenodd" d="M91.11 325.729c-1.537 1.021-3.078 2.042-4.618 3.104.244.482.464.959.749 1.439 1.92-1.049 5.768-2.855 7.755-5.326.803-1 1.374-2.685-.143-3.532-1.394-.779-4.224.751-4.264 2.646-.014.603.27 1.054.522 1.669z" fill="#4D3D87"/><path fill-rule="evenodd" clip-rule="evenodd" d="M92.062 325.037c.437-.004 1.884-.867 1.511-1.392-.249-.35-.808.075-1.145.299-.257.171-.925.433-.784.865.074.235.3.228.418.228zm1.783-3.172c-.424-.188-.957.344-.753.699.254.441 1.495-.366.753-.699z" fill="#fff"/><path fill-rule="evenodd" clip-rule="evenodd" d="M70.073 465.863c5.624-.546 12.257 1.397 16.972 2.576 10.673 2.666 20.767 5.117 31.066 8.032 4.956 1.402 10.103 2.971 15.154 4.393 10.35 2.92 19.629 5.157 30.459 8.639 4.648 1.493 9.866 2.881 14.849 4.698 4.175 1.52 9.533 3.601 11.821 7.577.52.904 1.341 2.711 1.516 4.092.458 3.62-.923 7.641-1.82 10.911-2.712 9.916-6.431 19.197-9.394 28.793-3.212 10.403-5.417 19.441-7.881 30.307-1.604 7.078-2.347 15.465-11.668 14.394-1.391-.158-2.583-.585-3.94-.908-2.85-.679-5.956-.697-8.485-1.212-5.46-1.112-10.948-2.594-15.761-3.788-10.891-2.705-20.689-5.294-30.912-8.032-15.4-4.124-29.07-9.442-44.857-13.79-5.239-1.444-12.702-2.205-15.154-5.606-.534-.744-1.413-2.517-1.82-3.789-.704-2.209.01-4.702.457-7.424 1.978-12.126 5.322-24.614 8.333-35.462 2.888-10.401 6.351-18.256 9.396-28.187.946-3.087 1.687-6.425 3.03-9.396 1.63-3.601 5.082-6.472 8.64-6.818z" fill="#FF5000"/><path fill-rule="evenodd" clip-rule="evenodd" d="M128.453 487.933c1.964-1.233 3.857-2.56 6.966-2.878 5.362-.551 11.349.641 15.762 1.667 4.434 1.031 8.666 2.729 13.11 4.09a784.404 784.404 0 0013.272 3.943c3.815 1.097 10.664 2.733 11.613 5.454.572 1.636-.151 4.045-.829 5.759-1.94 4.897-3.782 10.345-5.309 15.457-2.03 6.799-4.706 13.496-6.97 20.609-2.144 6.738-4.263 13.758-6.802 20.761-1.15 3.18-2.49 6.395-3.814 10.002-1.292 3.507-2.079 7.821-5.64 8.64-2.079.472-3.68-.434-5.811-1.518-1.827-.933-3.843-1.741-5.14-2.425-3.405-1.789-6.718-3.796-9.792-5.152-7.334-3.234-17.973-4.374-25.551-1.819-4.593 1.553-7.233 3.582-11.449 6.517-6.814-9.053-14.089-14.816-25.552-18.944-3.711-1.336-7.721-2.468-12.277-2.727-5.507-.313-14.665 1.77-17.254-1.819-.567-.782-1.004-2.832-.83-4.849.313-3.639 1.543-7.32 2.322-10.909a290.45 290.45 0 012.49-10.61c1.673-6.52 4.192-12.575 6.306-20.002 2.83-9.954 5.622-20.073 8.625-30.763.72-2.554 2.289-8.94 5.31-8.94 2.34 0 5.058.825 7.47 1.516 6.933 1.981 13.08 4.035 20.57 5.758 7.049 1.619 14.2 3.288 20.076 6.214 3.775 1.874 7.127 3.491 9.128 6.968z" fill="#C0B7E4"/><path fill-rule="evenodd" clip-rule="evenodd" d="M129.778 481.169c1.796-1.236 3.525-2.563 6.366-2.879 4.897-.551 10.365.64 14.396 1.663 4.047 1.033 7.914 2.732 11.972 4.094a698.392 698.392 0 0012.121 3.941c3.485 1.099 9.739 2.735 10.609 5.454.522 1.638-.138 4.047-.758 5.759-1.773 4.898-3.454 10.345-4.85 15.458-1.853 6.798-4.297 13.495-6.364 20.609-1.959 6.739-3.894 13.758-6.213 20.762-1.052 3.178-2.275 6.395-3.485 10-1.178 3.507-1.895 7.821-5.152 8.638-1.895.477-3.359-.433-5.306-1.516-1.67-.933-3.507-1.741-4.697-2.425-3.106-1.789-6.131-3.796-8.939-5.15-6.7-3.234-16.419-4.374-23.337-1.82-4.197 1.55-6.607 3.582-10.456 6.516-6.227-9.053-12.87-14.815-23.338-18.94-3.388-1.338-7.053-2.47-11.214-2.729-5.028-.313-13.395 1.768-15.76-1.82-.518-.783-.918-2.832-.757-4.848.286-3.641 1.409-7.322 2.121-10.911.706-3.557 1.46-7.143 2.275-10.608 1.527-6.522 3.825-12.576 5.757-20.004 2.587-9.953 5.137-20.074 7.88-30.761.656-2.555 2.09-8.94 4.847-8.942 2.138 0 4.622.827 6.82 1.516 6.334 1.981 11.95 4.034 18.793 5.759 6.435 1.622 12.966 3.289 18.335 6.213 3.447 1.876 6.51 3.493 8.334 6.971z" fill="#E2DFF2"/><path fill-rule="evenodd" clip-rule="evenodd" d="M165.69 550.87c-.39.525-.989.074-1.349-.055-1.23-.436-2.45-1.212-3.7-1.75-1.727-.743-3.551-1.352-5.391-2.024-3.525-1.284-7.206-2.667-10.985-3.793-6.775-2.022-14.17-3.356-21.139-5.242-.856-.232-1.882-.388-2.505-1.082.13-.65.795-.573 1.327-.58.992-.014 2.136.313 3.289.532 3.037.572 6.158 1.428 8.905 2.125 4.04 1.026 7.972 2.06 11.795 2.979 6.093 1.461 11.95 2.821 16.306 5.627.679.438 1.36.978 2.012 1.48.563.439 1.52.925 1.435 1.783zm-6.745 15.356c-.393.525-.989.074-1.35-.054-1.23-.439-2.451-1.213-3.7-1.753-1.725-.742-3.55-1.35-5.39-2.022-3.526-1.284-7.206-2.667-10.986-3.794-6.775-2.021-14.171-3.355-21.139-5.24-.854-.233-1.882-.389-2.505-1.081.132-.652.797-.575 1.328-.583.991-.013 2.134.315 3.289.531 3.037.572 6.157 1.429 8.902 2.128 4.042 1.025 7.973 2.059 11.798 2.978 6.092 1.461 11.948 2.823 16.305 5.628.68.437 1.359.976 2.011 1.479.565.437 1.521.926 1.437 1.783zm1.784-3.774c-.39.527-.99.076-1.349-.055-1.23-.435-2.451-1.211-3.702-1.75-1.725-.743-3.547-1.351-5.389-2.022-3.525-1.286-7.204-2.668-10.985-3.795-6.775-2.02-14.17-3.355-21.139-5.24-.856-.233-1.883-.389-2.505-1.082.13-.651.795-.574 1.328-.582.991-.013 2.133.315 3.289.533 3.036.57 6.158 1.429 8.904 2.126 4.04 1.025 7.972 2.059 11.797 2.977 6.091 1.462 11.948 2.822 16.304 5.628.679.438 1.36.978 2.012 1.482.563.436 1.52.922 1.435 1.78zm1.9-8.295c-.967.259-1.985-.234-2.834-.573-5.979-2.383-12.466-4.832-19.157-6.836-5.656-1.695-11.807-3.106-17.653-4.87-.88-.266-1.916-.592-2.793-.931-.767-.296-1.845-.585-1.814-1.64 1.053-.52 2.794-.008 4.398.289 7.201 1.335 14.246 3.336 20.404 5.343 5.545 1.807 10.534 3.895 15.425 6.259.738.356 1.548.791 2.309 1.241.634.374 1.736.734 1.715 1.718zm0 4.462c-.967.258-1.985-.235-2.834-.574-5.979-2.383-12.466-4.832-19.157-6.836-5.656-1.696-11.807-3.106-17.653-4.869-.88-.265-1.916-.591-2.793-.932-.767-.295-1.845-.584-1.814-1.639 1.053-.521 2.794-.01 4.398.289 7.201 1.334 14.246 3.335 20.404 5.343 5.545 1.806 10.534 3.894 15.425 6.258.738.356 1.548.79 2.309 1.241.634.375 1.736.734 1.715 1.719z" fill="#fff"/><path fill-rule="evenodd" clip-rule="evenodd" d="M142.791 483.313c-.404 2.353-.945 4.593-1.517 6.804-2.406-.591-4.747-1.243-7.442-1.55.36-.957.687-2.028 1.158-3.07.377-.831 1.01-2.104 1.786-2.477.709-.342 1.784-.377 2.558-.339 1.174.06 2.322.572 3.457.632zm1.642.32c2.303.527 4.283 1.374 6.432 2.057-.75 2.088-1.537 4.15-2.137 6.365-2.032-.365-3.744-1.046-5.722-1.467.528-2.274.999-4.598 1.427-6.955zm7.913 2.614c1.741.569 3.405 1.219 5.136 1.802-.37 2.158-1.135 3.986-1.638 6.035-1.836-.507-3.612-1.069-5.467-1.556.63-2.115 1.317-4.182 1.969-6.281zm12.975 4.651c-.498 1.952-1.01 3.892-1.471 5.874-2.098-.732-4.25-1.41-6.35-2.137.541-1.966 1.108-3.909 1.553-5.955 2.153.676 4.167 1.489 6.268 2.218zm-24.413.785c-.409 1.502-.846 2.982-1.182 4.543-2.723-.25-4.986-.955-8.015-.906.546-1.787 1.081-3.582 1.665-5.338 2.645.432 5.073 1.083 7.532 1.701zm7.287 1.943a99.406 99.406 0 01-1.447 4.401 74.541 74.541 0 00-5.377-1.404c.423-1.466.818-2.956 1.185-4.468 1.984.391 3.712 1.028 5.639 1.471zm23.217-.578c-.573 1.962-1.28 3.814-1.816 5.809-1.466-.386-2.647-1.052-4.092-1.457.499-1.949.821-4.049 1.381-5.947 1.519.522 2.989 1.092 4.527 1.595zm-21.569 1.052c1.972.398 3.698 1.037 5.552 1.551-.418 1.545-.93 3.011-1.264 4.624-1.958-.492-3.66-1.237-5.647-1.703.316-1.602 1.015-2.891 1.359-4.472zm23.05-.495c1.466.492 4.325 1.391 5.086 2.657 1.041 1.728-.411 3.891-.533 5.755-2.157-.755-4.121-1.697-6.276-2.451.581-1.981 1.264-3.876 1.723-5.961zm-33.704 4.193c-.285 1.927-.923 3.565-1.318 5.401a151.662 151.662 0 00-8.185-.898c.472-1.924.965-3.828 1.654-5.572 2.836.141 5.224.721 7.849 1.069zm17.86-1.596c2.166.691 4.285 1.428 6.437 2.134-.435 1.606-.872 3.211-1.258 4.857-2.232-.678-4.241-1.577-6.441-2.289.302-1.665.845-3.131 1.262-4.702zm-10.751 3.392c-.557 1.653-1.018 3.387-1.591 5.027-1.638-.432-3.365-.777-5.107-1.105.449-1.792.901-3.583 1.408-5.328 1.823.411 3.621.846 5.29 1.406zm18.756-.625c1.426.398 2.628 1.015 4.005 1.46-.459 1.634-.987 3.212-1.514 4.79-1.256-.406-2.43-.888-3.658-1.32.262-1.75.893-3.193 1.167-4.93zm-11.459 2.88c-.381 1.673-.91 3.224-1.339 4.859-1.969-.536-3.854-1.155-5.818-1.694.492-1.658 1.029-3.28 1.509-4.947 1.94.537 3.774 1.179 5.648 1.782zm17.04-.71c2.239.698 4.168 1.704 6.361 2.447-.485 1.612-1.015 3.188-1.427 4.863a100.941 100.941 0 00-6.368-2.602c.443-1.596 1.059-3.052 1.434-4.708zm-8.938 3.705c-.344 1.604-.85 3.077-1.265 4.623a59.43 59.43 0 00-6.524-2.208c.447-1.595.924-3.164 1.344-4.782a67.85 67.85 0 016.445 2.367zm-24.362-.072c-.49 2.157-1.115 4.202-1.711 6.269-2.561-.437-5.113-.883-7.935-1.063.436-2.028.98-3.965 1.467-5.95-.008-.133.056-.202.162-.239 2.836.167 5.392.609 8.017.983zm6.917 1.339c-.607 2.086-1.262 4.13-1.797 6.274-1.694-.35-3.395-.691-5.103-1.028.581-2.081 1.212-4.12 1.712-6.269 1.861.213 3.435.706 5.188 1.023zm19.102-.639c1.298.334 2.348.912 3.652 1.241-.338 1.738-1.006 3.199-1.426 4.865-1.158-.476-2.257-1.007-3.49-1.404.344-1.632.89-3.097 1.264-4.702zm-11.549 2.805c-.576 2.012-1.142 4.031-1.721 6.038-2.041-.467-3.892-1.119-5.982-1.534a336.126 336.126 0 001.8-6.197c2.073.461 3.926 1.139 5.903 1.693zm23.315 1.741c-.401 1.932-1 3.7-1.394 5.639a150.769 150.769 0 01-6.488-3.374c.355-1.72 1.011-3.193 1.426-4.863 2.291.731 4.345 1.694 6.456 2.598zm-15.138 1.018c-.591 2.073-1.27 4.071-1.889 6.122-2.139-.718-4.09-1.62-6.353-2.215.545-2.062 1.148-4.074 1.717-6.115 2.33.583 4.452 1.373 6.525 2.208zm-24.806 1.575c-.506 1.944-1.142 3.781-1.649 5.726-2.626-.428-4.956-1.145-7.611-1.544.509-1.768.915-3.619 1.404-5.405 2.701.326 5.318.735 7.856 1.223zm26.379-.865c1.323.337 2.37.946 3.575 1.4-.628 2.043-1.301 4.047-1.801 6.196a23.649 23.649 0 01-3.581-1.554c.528-2.075 1.301-3.949 1.807-6.042zm-19.636 2.134c-.418 2.068-1.052 3.957-1.465 6.027-1.882-.248-3.476-.773-5.278-1.097a334.598 334.598 0 001.728-5.884c1.734.257 3.295.684 5.015.954zm7.631 2.006c-.498 2.002-1.192 3.841-1.732 5.807a117.42 117.42 0 01-5.718-1.389c.544-1.961 1.008-3.991 1.553-5.953 2.099.382 3.957.997 5.897 1.535zm17.158-1.952c2.216 1.096 4.464 2.164 6.49 3.449-.405 2.028-.912 3.973-1.293 6.019a176.115 176.115 0 01-6.999-3.273c.517-2.134 1.176-4.151 1.802-6.195zm-9.15 4.796c-.459 1.884-1.142 3.585-1.572 5.489-2.248-.581-4.237-1.421-6.515-1.975.588-1.951 1.154-3.92 1.816-5.808 2.134.719 4.242 1.47 6.271 2.294zm-24.566 1.179a293.702 293.702 0 01-1.804 6.118c-2.344-.515-4.662-1.058-7.26-1.324.613-2.106 1.008-4.391 1.707-6.426 2.555.442 4.848 1.142 7.357 1.632zm7.012 1.567c-.408 2.151-.957 4.184-1.367 6.334-1.86-.508-3.75-.989-5.717-1.391.591-2.047 1.168-4.108 1.803-6.118a80.24 80.24 0 005.281 1.175zm19.213-2.039c1.241.496 2.529.952 3.584 1.633-.401 1.806-.894 3.539-1.323 5.323-1.336-.485-2.552-1.088-3.923-1.541.568-1.794 1.077-3.634 1.662-5.415zm-11.934 3.829c-.528 2.174-1.209 4.222-1.794 6.351-1.696-.454-3.33-.971-5.116-1.338.345-2.201.898-4.233 1.367-6.332 1.92.368 3.72.855 5.543 1.319zm17.177-1.491c2.388 1.063 4.691 2.21 7.082 3.27-.369 1.858-.819 3.65-1.228 5.476-2.425-1.11-4.858-2.21-7.177-3.422.387-1.818.86-3.567 1.323-5.324zm-15.443 1.96c2.154.675 4.306 1.354 6.434 2.057-.525 2.178-1.139 4.282-1.618 6.498-2.179-.731-4.36-1.462-6.606-2.126.477-2.243 1.179-4.297 1.79-6.429zm-18.279 3.861c-.546 1.935-1.178 3.8-1.733 5.729-1.85-.554-4.691-1.036-5.516-2.714-.583-1.184-.103-2.838.081-4.188l-.009-.232c2.674.193 4.837.885 7.177 1.405zm26.368-1.175a37.28 37.28 0 013.926 1.619c-.388 2.166-.994 4.151-1.276 6.406-1.51-.422-2.756-1.103-4.266-1.526.489-2.208 1.047-4.357 1.616-6.499zm-18.831 2.954c-.326 2.094-.866 4.011-1.205 6.094-2.208-.462-4.291-1.049-6.414-1.593a348.11 348.11 0 011.815-5.886c2.044.352 3.91.882 5.804 1.385zm24.42-.552c2.451 1.055 4.894 2.117 7.089 3.424-.39 2.017-1.062 3.798-1.296 5.943-2.433-.936-4.648-2.092-7.156-2.958.409-2.172.856-4.316 1.363-6.409zm-17.57 2.358c-.549 1.985-.97 4.074-1.462 6.106-1.654-.442-3.322-.87-4.944-1.344.446-2.019.841-4.081 1.291-6.098 1.784.368 3.417.883 5.115 1.336zm8.349 2.752c-.315 2.028-.859 3.867-1.124 5.937-2.39-.607-4.611-1.379-6.948-2.036.315-2.155.904-4.079 1.377-6.103 2.304.665 4.569 1.365 6.695 2.202zm1.655.629c1.587.346 2.79 1.071 4.266 1.527-.267 1.97-.72 3.784-.96 5.775-1.348-.262-2.899-1.018-4.431-1.365.271-2.064.809-3.909 1.125-5.937zm5.929 2.31c2.435.909 4.796 1.893 6.988 3.04-.35 1.685-.585 3.689-2.319 4.049-1.06.221-2.158-.197-3.108-.49-.933-.29-1.835-.562-2.527-.98.271-1.914.668-3.727.966-5.619z" fill="#8F7ECE"/><g opacity=".94" fill-rule="evenodd" clip-rule="evenodd"><path opacity=".94" d="M125.367 485.9c-.418.561-1.053.081-1.437-.056-1.307-.465-2.605-1.289-3.936-1.863-1.834-.791-3.776-1.437-5.733-2.152-3.75-1.366-7.665-2.837-11.685-4.035-7.207-2.149-15.075-3.569-22.486-5.575-.91-.247-2.005-.412-2.666-1.151.14-.694.848-.61 1.413-.618 1.053-.015 2.27.334 3.498.565 3.23.609 6.549 1.521 9.472 2.263 4.297 1.09 8.479 2.19 12.547 3.167 6.481 1.554 12.71 3.003 17.344 5.987.724.465 1.447 1.04 2.141 1.575.6.464 1.616.983 1.528 1.893zm-3.258 3.5c-1.028.274-2.11-.251-3.013-.61-6.362-2.535-13.262-5.141-20.38-7.274-6.016-1.801-12.56-3.303-18.777-5.179-.936-.282-2.036-.629-2.97-.991-.817-.314-1.963-.619-1.931-1.744 1.12-.554 2.97-.009 4.68.309 7.658 1.419 15.155 3.547 21.704 5.683 5.897 1.922 11.206 4.142 16.406 6.657.787.38 1.649.841 2.457 1.318.674.4 1.846.782 1.824 1.831zm-14.598 43.721c-1.332-.334-2.687-.66-4.054-.988-4.067-.974-8.25-2.076-12.547-3.166-2.921-.743-6.242-1.655-9.473-2.261-1.225-.233-2.443-.58-3.498-.566-.564.006-1.272-.075-1.412.618.662.739 1.756.903 2.666 1.15 7.412 2.006 15.277 3.426 22.485 5.576 1.688.501 3.355 1.053 4.999 1.624a28.43 28.43 0 01.834-1.987zm-1.519 4.092a119.164 119.164 0 00-5.467-1.931c-6.55-2.135-14.045-4.263-21.704-5.683-1.709-.316-3.559-.861-4.68-.308-.032 1.124 1.115 1.431 1.929 1.745.936.362 2.036.709 2.97.99 6.219 1.875 12.765 3.377 18.78 5.179 2.57.771 5.108 1.607 7.605 2.476.152-.84.34-1.659.567-2.468zm-.001 4.839c-1.333-.334-2.686-.657-4.053-.986-4.068-.976-8.251-2.077-12.549-3.169-2.92-.74-6.24-1.652-9.472-2.261-1.226-.231-2.444-.58-3.497-.565-.566.006-1.274-.076-1.412.618.661.739 1.755.904 2.666 1.15 7.41 2.006 15.277 3.427 22.484 5.576 1.688.502 3.355 1.055 5 1.627.247-.662.523-1.324.833-1.99zm-1.518 4.091a121.776 121.776 0 00-5.469-1.929c-6.549-2.135-14.044-4.265-21.704-5.685-1.707-.316-3.559-.859-4.678-.306-.032 1.122 1.114 1.431 1.928 1.744.937.363 2.035.708 2.972.991 6.218 1.875 12.762 3.377 18.778 5.179a185.71 185.71 0 017.605 2.475c.153-.84.339-1.66.568-2.469z" fill="#8F7ECE"/><path opacity=".94" d="M92.787 486.146c.364-1.517 2.467-1.204 4.018-1.079 3.337.27 5.984.782 8.724 1.863.846.334 3.266 1.186 3.038 2.157-.247 1.044-3.495.106-4.02 0-2.924-.599-5.095-1.213-8.036-1.765-1.352-.255-2.816-.34-3.724-1.176zm.49 2.94c2.776-.454 5.471.383 8.232 1.176 1.126.323 5.325 1.19 5.097 2.451-.209 1.154-2.434.519-3.626.292-2.83-.536-4.937-1.06-7.744-1.665-1.094-.236-3.183-.421-3.234-1.371-.04-.791.589-.772 1.275-.883zm-3.269 5.816c.366-1.517 2.467-1.203 4.018-1.077 3.337.268 5.984.78 8.723 1.861.847.336 3.267 1.185 3.039 2.157-.247 1.045-3.493.107-4.018 0-2.925-.598-5.097-1.211-8.038-1.765-1.352-.254-2.815-.341-3.724-1.176zm.49 2.94c2.776-.454 5.47.382 8.232 1.177 1.125.323 5.322 1.19 5.095 2.449-.207 1.157-2.433.521-3.626.294-2.83-.536-4.935-1.059-7.742-1.665-1.095-.236-3.184-.421-3.234-1.373-.042-.79.589-.769 1.275-.882zm-1.464 4.606c3.774-.355 8.7.854 12.057 2.057 1.292.466 2.793 1.131 2.743 1.863-.093 1.378-2.988.437-4.018.196-3.323-.771-5.2-1.319-8.722-1.959-.798-.145-3.987-.318-3.921-1.373.046-.733 1.005-.704 1.86-.784zM76.85 480.806c.12-.028.905-.129 1.47-.098 2.789.149 6.185.965 9.016 1.763 1.182.334 2.218.668 2.157 1.373-.087.996-2.264.659-3.528.49-2.592-.345-4.744-.731-7.253-1.371-.844-.217-2.92-.67-2.94-1.373-.018-.562.631-.678 1.078-.784zm-3.944 5.584c.365-1.519 2.467-1.204 4.018-1.079 3.338.27 5.982.78 8.722 1.863.846.334 3.266 1.185 3.039 2.155-.246 1.045-3.493.109-4.019 0-2.924-.597-5.095-1.209-8.035-1.763-1.353-.254-2.817-.341-3.725-1.176zm.488 2.939c2.777-.455 5.472.383 8.232 1.177 1.126.322 5.324 1.189 5.096 2.45-.207 1.155-2.433.519-3.625.294-2.83-.538-4.936-1.061-7.743-1.667-1.094-.236-3.185-.421-3.235-1.371-.042-.792.588-.771 1.275-.883zm-3.269 5.816c.366-1.517 2.467-1.203 4.018-1.077 3.337.27 5.984.78 8.724 1.861.846.334 3.268 1.185 3.038 2.157-.247 1.045-3.493.107-4.018 0-2.926-.597-5.096-1.211-8.038-1.765-1.352-.254-2.817-.339-3.724-1.176zm.49 2.94c2.777-.454 5.473.384 8.234 1.176 1.126.324 5.323 1.19 5.095 2.452-.207 1.153-2.433.519-3.626.293-2.83-.537-4.935-1.06-7.742-1.666-1.094-.237-3.184-.42-3.234-1.373-.042-.79.589-.769 1.273-.882z" fill="#fff"/><path opacity=".94" d="M68.454 503.617c.856-.257 2.903.093 3.92.294 2.332.462 4.61.667 6.86 1.469.683.246 2.073.975 2.353 1.765.348.99-.026 2.811-.296 4.018-.565 2.541-1.138 4.226-1.861 6.959-.281 1.06-.657 2.594-1.47 2.942-1.091.464-2.87-.087-3.823-.296-1.22-.266-2.35-.562-3.528-.783-1.911-.36-5.7-.628-6.37-2.451-.4-1.084.174-2.585.49-3.822.64-2.51 1.378-4.551 1.96-7.056.303-1.31.572-2.681 1.765-3.039zm19.85 4.784c.858-.256 2.903.092 3.92.296 2.332.461 4.612.665 6.862 1.468.683.246 2.072.973 2.351 1.765.348.988-.024 2.81-.294 4.018-.565 2.539-1.138 4.225-1.861 6.958-.281 1.06-.657 2.594-1.471 2.941-1.092.464-2.869-.085-3.824-.294-1.22-.267-2.35-.564-3.527-.784-1.912-.359-5.7-.628-6.37-2.45-.4-1.085.175-2.586.49-3.823.639-2.511 1.38-4.551 1.959-7.056.305-1.311.572-2.681 1.765-3.039z" fill="#8F7ECE"/></g><path d="M97.424 554.666c1.776-.129 4.384-6.607 4.9-7.684-.193 3.351-.871 9.41.615 9.875 2.627.82 6.123-14.874 7.52-20.347 5.112-19.978 9.907-40.441 15.21-59.824-1.289-.898-2.72-1.667-4.227-2.488a41.24 41.24 0 00-4.355-2.028c-5.923 23.204-12.854 45.983-18.227 69.132-.895 3.857-3.116 13.486-1.436 13.364z" fill="#892"/><path opacity=".37" fill-rule="evenodd" clip-rule="evenodd" d="M120.006 515.712c-2.021-1.609 6.23-26.892 8.105-26.968 1.573-.064-6.294 28.414-8.105 26.968zm-1.895 3.948c2.296-.635-.35 11.039-1.516 14.394-.508 1.456-6.209 24.879-7.587 24.758-2.691-.239 7.514-38.716 9.103-39.152z" fill="#8F7ECE"/><path fill-rule="evenodd" clip-rule="evenodd" d="M79.726 465.283c2.728-.217.912 4.31.233 5.738-.641 1.347-1.498 3.369-2.928 2.927-1.277-.396-.43-3.069 0-4.45.59-1.885.876-4.072 2.695-4.215zm5.969.819c1.091-.155 2.515.092 2.343 1.522-.204 1.693-4.008 1.354-3.748-.584.078-.572.297-.779 1.405-.938zm94.517 27.962c-.017 2.499-.627 4.93-1.363 6.971-.671 1.855-1.405 4.329-3.486 4.85-1.147-1.134-.118-3.909.454-6.366.65-2.798 1.4-7.624 4.395-5.455zm-10.154 14.547c-.357-2.219 2.338-5.351 3.181-3.029.527 1.444-1.684 5.239-3.181 3.029zM67.042 526.477c-.141 2.961-.604 5.099-1.365 7.88-.493 1.802-1.253 5.837-3.336 5.761-3.063-.116-.467-7.283.155-9.093.414-1.216.967-2.093 1.212-2.729.532-1.379.503-2.738 1.97-2.576.808.089.924.333 1.364.757zm3.788 8.336c1.437 1.396-.317 4.656-1.666 4.698-2.61.08-.777-3.087.303-4.396.166-.202.797-.419 1.364-.302zm-8.638 6.819c1.744-.324 8.504.551 7.577 3.487-.487 1.543-3.59.539-5.152.3-1.673-.252-4.506-.265-4.395-2.271.069-1.24 1.295-1.391 1.97-1.516zm16.798-34.446c-.33.358-1.16-.078-1.762-.196-1.888-.376-4.068-.84-5.92-1.214-.968 3.289-2.08 7.204-2.972 10.84-.131.533-.133 1.228-.623 1.578-.416-.3-.345-.953-.358-1.426-.04-1.553.067-3.351-.06-4.893-.444.101-.42.977-1.053.765.048-.63.662-1.192 1.087-1.544.673.514.497 1.556.511 2.408.013.904.074 1.853.05 2.686 1.09-3.481 1.877-7.465 3.045-10.822 1.321-.079 3.112.557 4.622.739.843.103 1.925.408 2.82.692.194.062.689.024.613.387z" fill="#fff"/><path fill-rule="evenodd" clip-rule="evenodd" d="M74.177 508.524c-.22.544-.68.687-1.035 1.006.055.517.709.929.434 1.444-.626-.127-.557-.674-.765-1.053-.552.169-.685 1.026-1.405.915.021-.637.774-.934 1.124-1.378-.024-.533-.53-.774-.36-1.426.593.125.556.634.691 1.036.488-.047.744-.981 1.316-.544zm4.529 4.965c-.268.13-.466-.186-.541-.368-.643.259-.816 1.926-.6 2.451.35.063.468-.127.667.164-.095.465-.543.355-1 .226-.328-.506-.391-2.041.154-2.874.382-.583 1.39-.648 1.32.401zm-2.358-.34c-.416.162-1.298.061-1.762-.196.172-.514 1.742-.352 1.762.196zm-2.54-.23c-.294.432-1.163.03-1.855-.14-.656-.159-1.587-.21-1.728-.66.231-.351.862-.024 1.317.087.857.21 1.904.268 2.266.713zm2.47 1.156c-.33.31-1.288.081-1.707-.103-.045-.52 1.638-.351 1.707.103zm-5.305-.513c.56.189.287.879.562 1.239.401-.174.416-.982 1.053-.765-.026.564-.626.949-.902 1.433.028.55.396.897.248 1.556-.516.093-.507-.54-.56-.926-.408.057-.337.903-.943.635-.053-.527.505-.888.717-1.319-.021-.603-.535-1.225-.175-1.853zM90.083 512c-.167.569-.637.437-1.01.752-1.493 1.264-2.182 4.27-1.53 6.101.141.397.456.763.344 1.182-.74-.015-.998-1.002-1.137-1.656-.514-2.406.843-5.738 2.926-6.573.206.022.327.098.407.194zm7.241 1.725l.17.043c.785.625 1.499 2.383 1.353 3.716-.187 1.699-1 2.902-1.83 3.652-.234.213-.54.766-.84.43-.334-.448.322-.689.497-.881.621-.676 1.362-1.486 1.57-2.986.198-1.408-.462-2.637-.984-3.718l.064-.256z" fill="#fff"/><path fill-rule="evenodd" clip-rule="evenodd" d="M96.59 515.914c-.103.559-.268 1.017-.644 1.118.694.496.827 1.307.255 1.892-.234.242-.628.199-.989.298-.27.077-.533.347-.773.172.134-1.251.717-3.149.97-4.232.598-.139 1.009.402 1.181.752zm-.903.689c.147-.164.312-.297.346-.644-.11-.032-.092-.141-.237-.151-.006.246-.28.653-.109.795zm-.602 2.041c.443.01.83-.076.903-.687-.065-.254-.42-.334-.601-.516l-.302 1.203zm-4.593-4.623c.485.535-.079 1.701.233 2.341-.424.49-.076 1.526-.69 1.655-.558-.174-.009-1.015-.083-1.483l-.687-.172c-.479.053-.371 1.088-.904 1.051-.421-.434.225-1.254.54-1.783.407-.687.791-1.32 1.332-1.673l.259.064zm-1.01 1.847l.514.13c.095-.398.15-.773.087-1.075-.225.273-.455.543-.601.945zm3.543-.666l.257.066c.071.274.074.589-.064.988.203.269.981.191.73.732-.203.148-.698-.193-.902-.045-.205.397.1 1.216-.474 1.161-.4-.175-.093-.774-.064-1.203-.029-.228-.64-.104-.429-.473.026-.322.32-.198.58-.129.127-.357.138-.906.366-1.097z" fill="#fff"/><path d="M135.507 680.003c-1.529-.149-6.643.595-6.793 2.123-.151 1.525 4.72 3.255 6.247 3.409a2.78 2.78 0 10.546-5.532z" fill="#EFAD1B"/><path d="M126.314 681.88l-.001.018a.89.89 0 00.795.972l2.107.206.175-1.785-2.106-.207a.887.887 0 00-.97.796zm52.424 4.8a1.344 1.344 0 001.215 1.464l2.63.247c.739.07 1.393-.47 1.461-1.209a1.34 1.34 0 00-1.207-1.464l-2.636-.249a1.341 1.341 0 00-1.463 1.211z" fill="#FF5000"/><path d="M181.539 684.374l-.547 5.533-15.103-1.492.544-5.53 15.106 1.489zm-16.715-1.65l-.545 5.532-29.314-2.72.544-5.532 29.315 2.72z" fill="#4D3D87"/><path d="M166.434 682.885l-.546 5.53-1.609-.158.546-5.534 1.609.162zm15.296-.423l-.734 7.444-.805-.08.732-7.445.807.081z" fill="#EFAD1B"/><path d="M181.73 682.461l-.114 1.152-15.944-1.577.111-1.149 15.947 1.574z" fill="#EFAD1B"/><path fill-rule="evenodd" clip-rule="evenodd" d="M178.597 686.075c.899-1.057-2.436-1.747-2.702-.747-.312 1.169 1.929 1.181 2.609.84.042-.021.061-.056.093-.093zm-4.098-.246c.604-.948-2.171-1.685-2.252-.526-.059.88 1.836 1.182 2.252.526zm-39.495-.729c.771.177 2.013.285 2.167-.271.198-.721-.638-.764-1.272-.854-.632-.092-1.421-.181-1.539.402-.13.64.343.652.644.723zm3.963-.907c.562.177 1.172.085 1.245-.419.125-.864-1.811-1.156-1.891-.301-.029.325.18.574.646.72z" fill="#fff"/></svg>