<svg width="145" height="370" fill="none" xmlns="http://www.w3.org/2000/svg"><path d="M90.904 327.669a42.423 42.423 0 01-.77 2.941 70.076 70.076 0 01-3.464 8.844c-1.56 3.418-5.905 13.558-7.333 14.672a3.533 3.533 0 01-4.446.089c-.12-7.325-1.265-16.606-1.204-23.931.006-.674-.07-2.262-.193-4.317a926.404 926.404 0 00-.354-5.451.708.708 0 00-.715-.66.705.705 0 00-.694.681 474.36 474.36 0 00-.157 5.129c-.064 2.63-.092 4.971-.049 6.509.138 4.975-.866 12.063-.866 17.044 0 1.022.099 1.978.154 2.99.006.124.046.391.074.693v.006c.048.362.038.73-.031 1.089a.383.383 0 01-.135.218 3.54 3.54 0 01-4.45-.089c-1.424-1.114-5.77-11.254-7.33-14.672a70.416 70.416 0 01-3.463-8.844A49.437 49.437 0 0154.035 310a61.343 61.343 0 011.111-6.15 69.095 69.095 0 011.367-5.027c.233-.75.482-1.498.74-2.242l10.744-1.612 11.263.249 9.099 1.363a74.926 74.926 0 011.541 4.999c.276 1.037.53 2.08.759 3.129a62.82 62.82 0 01.9 5.156 50.698 50.698 0 01-.655 17.804z" fill="#2435A1"/><path d="M70.66 349.219c0 1.022.098 1.979.154 2.991.006.123.046.39.073.692v.006c-.012.369-.024.732-.03 1.089a.385.385 0 01-.135.219 3.538 3.538 0 01-4.45-.089c-1.425-1.114-5.77-11.254-7.33-14.672a70.43 70.43 0 01-3.383-8.587 10.985 10.985 0 008.711 3.966c3.924-.083 6.172-5.273 7.305-9.168-.064 2.63-.092 4.972-.049 6.51.138 4.974-.866 12.063-.866 17.043z" fill="#30A2BE" opacity=".4"/><path d="M70.928 348.114c.031-.338-.049-.933-.98-.268-.93.666-5.7 1.231-7.3-.065-1.003-.812.208 1.943 1.253 4.116l.002.004.007.014c.145.301 2.131 4.579-1.586 5.501-3.312.822 5.597 1.192 5.597 1.192l1.89-.561.759-2.113-.393-1.264a3.87 3.87 0 00.118-.481c.336-1.867.601-5.738.633-6.075z" fill="#FF6551"/><path d="M70.297 358.932a2.718 2.718 0 01-2.409 1.856c-2.644.162-8.195.424-10.173-.098-2.635-.694-2.223-4.861 1.07-6.052 3.293-1.191 8.174.447 9.467 1.389a.691.691 0 00.764.085c.28-.192.499-.463.628-.778.21-.44.375-.9.493-1.373.148-.561.268-1.129.359-1.703a24.797 24.797 0 00.315-3.323c.004-.22.002-.439-.008-.658-.003-.075-.082-.562.014-.574.08-.009.12.183.122.223a73.484 73.484 0 01.09 3.087 65.56 65.56 0 01-.013 1.933 44.92 44.92 0 01-.09 2.047 26.897 26.897 0 01-.2 1.967c-.076.571-.19 1.136-.343 1.691a7.712 7.712 0 01-.086.281z" fill="#F37A7C"/><path d="M90.905 327.668a42.184 42.184 0 01-.77 2.941 70.046 70.046 0 01-3.465 8.845c-1.56 3.418-5.904 13.558-7.332 14.672a3.534 3.534 0 01-4.447.089c-.12-7.325-1.265-16.607-1.203-23.932.006-.674-.071-2.261-.194-4.316 1.084 4.095 3.372 9.725 7.763 10.146 3.955.382 7.403-4.316 9.648-8.445z" fill="#30A2BE" opacity=".4"/><path d="M74.699 348.114c-.032-.338.048-.933.979-.268.93.666 5.7 1.231 7.301-.065 1.003-.812-.209 1.943-1.254 4.116l-.002.004-.007.014c-.144.301-2.131 4.579 1.586 5.501 3.312.822-5.597 1.192-5.597 1.192l-1.889-.561-.76-2.113.393-1.264a3.87 3.87 0 01-.118-.481c-.336-1.867-.6-5.738-.632-6.075z" fill="#FF6551"/><path d="M75.328 358.932a2.72 2.72 0 002.409 1.856c2.644.162 8.196.424 10.174-.098 2.634-.694 2.222-4.861-1.07-6.052-3.294-1.191-8.175.447-9.468 1.389a.692.692 0 01-.764.085 1.748 1.748 0 01-.628-.778c-.21-.44-.375-.9-.493-1.373a17.282 17.282 0 01-.359-1.703 24.682 24.682 0 01-.315-3.323c-.004-.22-.001-.439.008-.658.003-.075.082-.562-.014-.574-.08-.009-.12.183-.122.223a73.484 73.484 0 00-.09 3.087 65.56 65.56 0 00.013 1.933c.016.683.044 1.366.09 2.047.045.658.107 1.315.2 1.967.076.571.19 1.136.343 1.691.026.094.055.188.086.281z" fill="#F37A7C"/><path d="M94.03 264.478a41.79 41.79 0 01.007 10.7l-.003.012c-.013.117-.028.234-.04.354a162.897 162.897 0 01-4.038 20.96c-.15.56-.302 1.097-.455 1.612l-.003.012c-.12.412-.24.809-.359 1.188a77.993 77.993 0 01-9.015 1.858c-15.535 2.233-23.801-1.837-23.801-1.837-.801-3.861-2.447-17.997-3.11-23.864-.182-1.575-.29-2.557-.292-2.578-.614-7.559 1.797-14.399 8.169-14.928.58-.05 20.094-.568 21.857-.295 10.819 1.675 11.084 6.806 11.084 6.806z" fill="#FF6551"/><path d="M84.05 261.17l-.753-3.453s17.749 1.563 25.096 23.339a4.456 4.456 0 01-1.782 4.829 4.434 4.434 0 01-5.139-.086c-2.335-1.471-5.565-7.083-7.959-9.166-5.421-4.717-9.562-9.308-9.464-15.463z" fill="#FF6551"/><path d="M108.275 280.801c.694.616.493 12.333-14.373 20.319a8.883 8.883 0 01-3.258-5.08s6.905-11.425 9.779-12.695a64.758 64.758 0 017.852-2.544z" fill="#FF6551"/><path d="M64.18 257.903a11.12 11.12 0 009.528 4.513 12.152 12.152 0 009.24-4.744 12.239 12.239 0 00-1.813-.796c-2.048-.176-12.645-.427-14.976-.196-.531.052-1.792 1.195-1.98 1.223zm29.851 17.203c-.01.111-.021.225-.037.339a163.63 163.63 0 01-4.038 21.058 140.88 140.88 0 01-.454 1.612l-.003.013c-.12.409-.24.8-.36 1.178a80.284 80.284 0 01-9.015 1.867c-15.534 2.234-23.8-1.836-23.8-1.836-.802-3.861-2.448-17.998-3.111-23.864 1.382 4.005 6.952 17.295 20.254 17.948 15.317.75 20.343-17.478 20.564-18.315z" fill="#DF4C4B"/><path d="M91.258 296.534a1.95 1.95 0 00-.832-.583c-.223-.069-1.412-.213-4.264.608-.503.145-2.416 1.102-2.184 2.262.166.839 2.323.18 3.098.111-.66.111-4.011.93-3.78 2.187.232 1.253 3.949.099 3.949.099s-2.978.787-2.947 1.935c.032 1.149 4.3.123 4.3.123s-2.504.601-2.12 1.74c.18.539 2.01.395 2.407.345a6.172 6.172 0 001.822-.491 5.472 5.472 0 002.702-2.889 3.22 3.22 0 01.467-.831l.025-.031c.34-.423-.457-1.535-.655-1.853a26.444 26.444 0 00-1.597-2.257 7.527 7.527 0 00-.391-.475zm-51.355-33.016l.837-.49a4.036 4.036 0 00.754-4.528c-1.212-2.656.338-3.371.516-4.26.178-.889-1.14-1.495-2.225-.422a2.896 2.896 0 00-.765 1.76c-.03.262-.494.374-.67-.233-.663-2.294-.729-6.598-2.215-6.686-1.532-.091-.68 1.805.374 6.649-.344.328-3.048-7.692-4.387-7-1.388.717 2.726 8.265 2.36 8.264-.118.08-3.774-6.367-4.6-5.717-.797.627 1 3.39 2.827 7.388-.24.105-3.872-3.708-4.336-2.143-.206.695 3.003 2.932 4.595 5.62 1.528 2.58 2.905 3.499 4.046 3.097a30.555 30.555 0 002.889-1.299z" fill="#FFBF94"/><path d="M57.805 259.58c.299.057.59.142.873.255a4.575 4.575 0 012.66 2.952c.684 2.412-.697 4.878-2.023 7.005-4.187 6.716-9.77 14.417-17.813 16.881-3.041.935-6.903-1.554-4.77-6.326 1.128-2.522 6.224-6.509 7.949-9.175a50.34 50.34 0 016.477-8.182c1.773-1.784 4.002-3.903 6.647-3.41z" fill="#FF6551"/><path d="M39.651 286.66c-4.153.092-5.212-5.859-5.507-7.99-.72-5.222.073-15.326.073-15.326a7.503 7.503 0 006.202-.054c.763 2.639 1.43 5.313 1.99 8.002.385 1.844.779 3.767 1.033 5.615a13.625 13.625 0 01-1.924 8.802 2.12 2.12 0 01-1.737.962c-.044-.002-.086-.012-.13-.011z" fill="#FF6551"/><path d="M81.1 257.666s-1.795 2.73-7.706 1.98c-5.912-.751-7.234-2.967-7.234-2.967l-.002-2.243h-.002l-.004-3.214 13.992-1.149 1.314-.108-.037.822-.2 4.262-.122 2.617z" fill="#EA9573"/><path d="M81.22 255.049c-1.874 1.259-4.278 2.494-6.411 2.415-4.227-.156-8.543-2.957-8.651-3.027l-.002-.001-.004-3.214 13.992-1.149 1.277.715-.2 4.261z" fill="#DD7258" opacity=".31"/><path d="M108.096 215.079s5.574-2.619 8.682 1.325c3.108 3.943-1.82 13.95-5.59 14.931-3.769.98-5.243-.007-5.243-.007l2.151-16.249zm-69.795-.09s-5.567-2.634-8.685 1.302c-3.118 3.935 1.784 13.955 5.551 14.945 3.768.99 5.244.007 5.244.007l-2.11-16.254z" fill="#FFBF94"/><path d="M110.735 200.118s-1.039 14.681-2.659 26.496l-.001.005v.003l-.007.05a164.808 164.808 0 01-.767 5.064l-.005.032c-.804 4.736-1.709 8.348-2.676 9.243-3.444 3.188-23.12 13.771-30.82 13.257-7.7-.514-28.004-10.296-31.276-13.83-1.048-1.131-2.175-5.109-3.224-9.998-2.23-10.385-4.105-24.875-4.105-24.875.85-23.86 14.132-31.91 39.857-32.717 25.725-.807 35.683 27.27 35.683 27.27z" fill="#FFBF94"/><g opacity=".27" fill="#DA8966"><path opacity=".27" d="M91.717 181.136s-3.073-16.269-20.408-16.049a49.16 49.16 0 00-20.981 5.147 49.244 49.244 0 00-16.763 13.651 27.257 27.257 0 004.58 37.917s3.982-7.396 7.932-13.189c0 0 22.16 9.695 43.006-8.451 0 0 5.706-8.905 2.634-19.026z"/><path opacity=".27" d="M87.986 190.862s-.658 10.359 6.144 16.586c6.803 6.226 12.069 6.886 12.069 6.886s3.731 7.04 1.098 14.51c0 0 9.501-8.942 7.965-27.487-1.537-18.546-10.414-24.618-27.293-24.398l.017 13.903z"/></g><path d="M87.346 209.16c.284.443.777.396 1.257.446.556.058 1.108.06 1.667.073 1.084 0 2.158.2 3.17.588.911.422 1.77.948 2.56 1.57.386.305.79.588 1.21.846.24.144.493.263.756.357.252.074.504.03.75.12.296.109.478-.248.37-.482-.117-.257-.087-.553-.218-.811a4.43 4.43 0 00-.547-.794 8.625 8.625 0 00-1.32-1.226 10.423 10.423 0 00-3.253-1.734 9.16 9.16 0 00-3.833-.289c-.402.045-3.14.444-2.57 1.336z" fill="#5F130F"/><path d="M37.951 227.452a9.399 9.399 0 01-4.63-5.053c-.33-.968-.245-2.524 1.042-2.692 1.062-.139 1.496 1.244 1.971 1.952.248.37.923.153.76-.32-.432-1.264-.847-2.856-2.421-3.048a2.874 2.874 0 00-2.059.741 2.887 2.887 0 00-.943 1.977c-.21 1.822.89 3.528 1.923 4.927 1.066 1.442 2.375 2.627 4.26 2.247a.403.403 0 00.096-.731zm77.298-6.48c-.093-1.38-1.232-2.613-2.677-2.037-.977.39-2.551 2.286-1.484 3.262.027.027.06.046.096.058a.247.247 0 00.111.011.255.255 0 00.185-.119c.534-.713.603-1.878 1.64-2.146 1.421-.367.953 2.04.795 2.729a5.99 5.99 0 01-1.04 2.369 5.67 5.67 0 01-2.193 1.442.31.31 0 00-.144.221.301.301 0 00.083.251c1.128 1.243 2.775-.424 3.408-1.423a8.29 8.29 0 001.22-4.618z" fill="#DA8966" opacity=".44"/><path d="M55.644 209.865c-.761-.813-2.271-.513-3.253-.376-1.115.169-2.2.498-3.221.977a13.026 13.026 0 00-2.77 1.719c-.733.587-1.954 1.653-1.652 2.71a.726.726 0 00.671.513c.89.099 1.784-1.001 2.437-1.489.74-.559 1.543-1.03 2.393-1.401a14.049 14.049 0 012.553-.782c.907-.197 2.13-.045 2.84-.71a.835.835 0 00.002-1.161z" fill="#5F130F"/><path d="M83.249 238.224a14.506 14.506 0 01-2.757 5.491 9.622 9.622 0 01-7.471 3.478 9.273 9.273 0 01-4.607-.978 9.303 9.303 0 01-3.537-3.114 15.867 15.867 0 01-2.309-5.095 1.074 1.074 0 01.064-.746 1.11 1.11 0 011.35-.597l.369.118a28.149 28.149 0 0017.35-.028 1.212 1.212 0 011.526.766c.08.227.087.474.022.705z" fill="#831532"/><path d="M83.228 237.519a18.21 18.21 0 01-10.308 3.473 17.883 17.883 0 01-10.287-3.732 1.11 1.11 0 011.35-.597l.368.118a28.149 28.149 0 0017.351-.028 1.28 1.28 0 01.383-.062 1.219 1.219 0 011.143.828z" fill="#fff"/><path d="M80.492 243.715a9.628 9.628 0 01-7.472 3.478 9.294 9.294 0 01-8.143-4.093 28.563 28.563 0 0115.615.615z" fill="#FF6551"/><path d="M57.69 234.835c.402-1.675-1.804-3.642-4.928-4.394-3.123-.751-5.981-.003-6.383 1.672-.401 1.675 1.806 3.642 4.929 4.394 3.123.751 5.981.003 6.383-1.672zm37.38 1.782c3.18-.449 5.565-2.196 5.325-3.901-.24-1.706-3.013-2.725-6.194-2.275-3.18.449-5.565 2.196-5.325 3.901.24 1.706 3.013 2.725 6.194 2.275z" fill="#F2786B"/><path d="M72.465 229.463a6.722 6.722 0 00-3.018.797.53.53 0 00-.184.138c-.18.241.108.555.374.695a8.058 8.058 0 005.56.324c.454-.069.88-.261 1.233-.555.202-.2.325-.559.118-.754a.64.64 0 00-.322-.134 12.741 12.741 0 00-5.23.002l1.47-.513z" fill="#DA8966" opacity=".21"/><path d="M69.346 230.653c.47-.175.86-.497 1.354-.648a6.002 6.002 0 011.76-.201 9.909 9.909 0 011.677.098c.565.097 1.09.358 1.51.751.477.399 1.251-.1.901-.695-.763-1.301-2.68-1.313-3.995-1.292-1.121.018-3.323.144-3.635 1.557-.052.238.163.528.428.43z" fill="#D88261"/><path d="M60.76 225.008a6.864 6.864 0 00-2.928-9.245 6.839 6.839 0 00-9.227 2.933 6.864 6.864 0 002.928 9.245 6.839 6.839 0 009.227-2.933z" fill="#fff"/><path d="M60.469 223.108a5.321 5.321 0 01-9.775 1.111 5.344 5.344 0 01.492-5.906 5.32 5.32 0 019.456 2.72 5.35 5.35 0 01-.173 2.075z" fill="#000"/><path d="M58.155 224.198a1.552 1.552 0 01-1.312 1.112 1.545 1.545 0 01-1.528-.789 1.555 1.555 0 01.143-1.717 1.55 1.55 0 011.637-.524 1.54 1.54 0 01.927.739 1.553 1.553 0 01.133 1.179zm26.623-1.077a6.852 6.852 0 005.02 5.724 6.843 6.843 0 007.2-2.457 6.865 6.865 0 00-2.413-10.323 6.835 6.835 0 00-8.456 1.984 6.869 6.869 0 00-1.35 5.072z" fill="#fff"/><path d="M85.831 222.618a5.335 5.335 0 003.906 4.452 5.316 5.316 0 005.6-1.911 5.342 5.342 0 00-1.878-8.029 5.32 5.32 0 00-7.494 3.411 5.346 5.346 0 00-.134 2.077z" fill="#000"/><path d="M87.388 223.244a1.55 1.55 0 002.033 1.263 1.543 1.543 0 001.045-1.367 1.552 1.552 0 00-.861-1.491 1.547 1.547 0 00-2.216 1.595z" fill="#fff"/><path d="M36.198 212.569l-4.389-9.454s-25.455 4.664-24.796 41.026a37.52 37.52 0 005.343 2.163 18.37 18.37 0 011.843-9.146 68.71 68.71 0 001.69 10.125c2.168.506 4.382.793 6.608.855a31.375 31.375 0 01.273-10.949 76.336 76.336 0 003.27 10.787 20.386 20.386 0 005.77-1.519s-5.487-21.576 4.388-33.888zm78.12-13.851l-3.73 12.202a28.12 28.12 0 01-.729 31.396c-.4.706-.765 1.432-1.093 2.174-.193.359-.383.717-.592 1.075a26.598 26.598 0 006.528 3.281 33.693 33.693 0 003.262-9.4s.697 5.88-.564 10.192c2.554.623 5.193.824 7.812.595a24.023 24.023 0 003.15-9.947 52.87 52.87 0 01.356 9.336 23.147 23.147 0 005.13-2.002s17.555-41.207-19.53-48.902z" fill="#672410"/><path d="M25.946 208.612c-6.673 4.499-12.69 12.88-13.126 21.107m15.204-18.579c-5.98 6.046-9.319 13.383-9.161 24.843m12.179-20.598s-6.364 7.297-4.279 21.918m89.821-21.918c5.076 4.624 5.003 13.463 4.004 19.63m-1.229-25.957c7.829 8.446 9.18 18.457 7.235 29.466m-6.989-33.931c11.699 3.305 14.893 19.1 13.739 29.513" stroke="#772F1E" stroke-width="1.864" stroke-linecap="round" stroke-linejoin="round"/><path d="M33.629 221.798a2.07 2.07 0 01-1.658-.846 2.088 2.088 0 01-.316-1.838 2.134 2.134 0 01-2.847-.412 3.502 3.502 0 01-.577-3.024c.29-1.026.736-2.001 1.323-2.89-1.651.162-3.605.203-4.631-1.103-1.112-1.415-.349-3.618 1.044-4.755a5.337 5.337 0 01-2.653-1.605c-1.248-1.615-.18-4.568 1.476-5.493 2.716-1.518 6.86.446 8.475 2.801a14.249 14.249 0 011.448 3.06c1.143 3.015 2.909 6.926 2.352 10.238-.301 1.795-1.184 5.716-3.436 5.867zm89.332-21.151a3.903 3.903 0 01-1.455 4.087 3.89 3.89 0 01-1.376.65c.662 1.063 1.983 1.65 2.439 2.817a3.077 3.077 0 01-.087 1.929 3.075 3.075 0 01-1.216 1.499 8.99 8.99 0 01-3.704 1.258c.472 1.587.678 3.242.61 4.896a5.602 5.602 0 01-2.254 4.227 3.49 3.49 0 01-4.492-.462 5.718 5.718 0 01-.962-2.883 30.424 30.424 0 01-.41-8.423c.214-1.336.518-2.655.908-3.95.827-2.98 1.939-5.515 4.751-6.969 2.408-1.245 6.173-2.261 7.248 1.324z" fill="#FF6551"/><path d="M91.716 178.051s-3.072-16.269-20.408-16.049a49.175 49.175 0 00-20.98 5.147A49.256 49.256 0 0033.564 180.8c-7.461 9.343-8.778 30.669 4.828 41.882 0 0 2.852-12.817 6.802-18.61 0 0 23.041 11.151 43.888-6.995 0 0 5.705-8.905 2.633-19.026z" fill="#672410"/><path d="M87.986 187.777s-.658 10.359 6.144 16.586c6.803 6.226 12.069 6.886 12.069 6.886s3.731 10.125 1.098 17.594a35.75 35.75 0 008.539-13.279 35.805 35.805 0 001.994-15.67c-1.536-18.545-12.982-26.24-29.861-26.02l.017 13.903z" fill="#672410"/><path d="M37.929 220.735c-6.27-4.555-7.196-14.756-5.889-21.756m5.52 17.582c-2.396-11.512-1.231-26.838 7.476-35.589 2.592-2.606 5.377-5.323 8.948-6.176m-12.556 34.523c1.589-6.686 5.423-12.818 8.906-15.903a27.96 27.96 0 0115.048-7.022m-16.487 16.239a41.771 41.771 0 0114.27-6.643m-5.438 6.989a60.475 60.475 0 0010.436-1.271 29.982 29.982 0 0012.099-5.989 30.066 30.066 0 008.257-10.695m7.538 13.482c.096 2.593 1.987 4.776 4.067 6.321 3.403 2.527 6.351 3.738 8.179 7.782m-2.885-15.734c6.715 6.002 8.101 16.184 6.604 24.689" stroke="#772F1E" stroke-width="1.864" stroke-linecap="round" stroke-linejoin="round"/><path d="M117.828 199.895c-1.464-17.676-11.934-25.489-27.527-25.993-2.177-4.804-7.385-12.047-18.994-11.9a49.175 49.175 0 00-20.981 5.147A49.246 49.246 0 0033.564 180.8c-6.49 8.126-8.325 25.314.257 37.031-2.564-7.271-3.516-15.505-1.374-22.735 2.966-10.02 10.85-18.41 20.164-22.893 10.25-4.934 22.641-2.512 31.3 4.721a21.24 21.24 0 00-2.747-7.098 27.824 27.824 0 017.337 10.098l1.209-3.364.759 2.926a24.917 24.917 0 0111.799.489l-7.306 2.42c3.213-1.064 8.457.713 11.103 2.447a24.729 24.729 0 017.804 9.102 40.41 40.41 0 014.056 10.842 38.565 38.565 0 00-.097-4.891z" fill="#772F1E" opacity=".27"/></svg>