<svg width="90" height="90" fill="none" xmlns="http://www.w3.org/2000/svg"><path d="M27.61 40.849c-.316 0-.62-.126-.843-.353-.45-.454-11.02-11.218-11.02-17.92C15.746 15.642 21.068 10 27.61 10c6.543 0 11.865 5.642 11.865 12.576 0 6.701-10.571 17.466-11.02 17.92a1.182 1.182 0 01-.845.353zm0-28.475c-5.233 0-9.491 4.576-9.491 10.204 0 4.348 6.223 11.885 9.491 15.372 3.27-3.49 9.492-11.029 9.492-15.373 0-5.627-4.258-10.203-9.491-10.203z" fill="#49B3F7"/><path d="M27.61 27.798a5.939 5.939 0 01-5.932-5.932 5.939 5.939 0 015.932-5.932 5.939 5.939 0 015.932 5.932 5.939 5.939 0 01-5.932 5.932zm0-9.491a3.564 3.564 0 00-3.56 3.559 3.564 3.564 0 003.56 3.56 3.564 3.564 0 003.56-3.56 3.564 3.564 0 00-3.56-3.56zM69.134 53.9a1.19 1.19 0 01-.872-.381c-.882-.957-8.62-9.498-8.62-15.043 0-5.889 4.259-10.678 9.492-10.678 5.234 0 9.492 4.79 9.492 10.678 0 5.545-7.737 14.086-8.62 15.043-.225.243-.54.38-.872.38zm0-23.73c-3.925 0-7.118 3.727-7.118 8.306 0 3.479 4.542 9.466 7.118 12.452 2.576-2.988 7.119-8.977 7.119-12.452 0-4.579-3.194-8.305-7.119-8.305z" fill="#49B3F7"/><path d="M43.034 80.001C25.37 80.001 11 65.631 11 47.967a32.118 32.118 0 017.088-20.087 1.183 1.183 0 011.955.16c2.277 4.01 5.935 8.139 7.573 9.904 3.27-3.491 9.487-11.025 9.487-15.366 0-1.53-.32-3.019-.948-4.421a1.188 1.188 0 01.86-1.651c2-.38 4.024-.572 6.02-.572 10.016 0 19.271 4.562 25.394 12.515a1.187 1.187 0 01-.674 1.88c-3.324.766-5.737 4.191-5.737 8.147 0 3.476 4.538 9.46 7.114 12.447.902-1.053 2.372-2.842 3.74-4.843a1.186 1.186 0 012.166.624c.017.42.031.841.031 1.264C75.068 65.63 60.698 80 43.034 80zM18.897 30.733c-3.62 5.044-5.524 10.966-5.524 17.235 0 16.355 13.306 29.66 29.66 29.66 15.52 0 28.293-11.978 29.559-27.175a57.727 57.727 0 01-2.584 3.065 1.187 1.187 0 01-1.744 0c-.882-.955-8.62-9.497-8.62-15.042 0-4.364 2.379-8.239 5.857-9.864-5.65-6.57-13.747-10.305-22.467-10.305-1.382 0-2.78.1-4.174.297.408 1.283.615 2.614.615 3.974 0 6.7-10.572 17.465-11.021 17.92a1.187 1.187 0 01-1.687-.002c-.21-.21-4.693-4.776-7.87-9.763z" fill="#49B3F7"/><path d="M69.134 42.035a4.75 4.75 0 01-4.745-4.746 4.75 4.75 0 014.745-4.746 4.75 4.75 0 014.746 4.746 4.751 4.751 0 01-4.746 4.745zm0-7.12a2.375 2.375 0 00-2.372 2.374 2.375 2.375 0 002.372 2.373 2.375 2.375 0 002.373-2.373 2.375 2.375 0 00-2.373-2.373zm-6.49 16.552h-.047a79.992 79.992 0 01-4.805-.322 1.186 1.186 0 01-1.068-1.186c0-.036 0-.083.012-.119.06-.652.629-1.115 1.293-1.057 1.53.154 3.097.262 4.663.322.308.011.605.142.818.367.226.238.333.534.32.856a1.18 1.18 0 01-1.186 1.139zm-10.606-1.175c-.072 0-.143 0-.226-.025-1.637-.32-3.227-.7-4.71-1.126a1.194 1.194 0 01-.866-1.139.96.96 0 01.047-.321c.178-.617.855-.997 1.471-.819 1.424.417 2.943.771 4.509 1.08.64.13 1.068.747.937 1.388a1.183 1.183 0 01-1.163.962zm-10.18-3.133a1.16 1.16 0 01-.498-.107c-1.602-.747-3.05-1.565-4.295-2.444 0 0-.012 0-.012-.012a1.183 1.183 0 01-.499-.962c0-.25.072-.486.214-.688.368-.521 1.139-.653 1.65-.284 1.138.807 2.467 1.554 3.938 2.23.593.272.854.972.581 1.566-.19.43-.616.7-1.08.7zm-8.222-6.56c-.416 0-.807-.215-1.02-.581-.962-1.614-1.448-3.322-1.448-5.102v-.012a1.187 1.187 0 012.373.012c0 1.363.368 2.634 1.115 3.88.332.57.154 1.293-.415 1.637a1.189 1.189 0 01-.605.166z" fill="#49B3F7"/></svg>