<svg width="213" height="213" fill="none" xmlns="http://www.w3.org/2000/svg"><path fill-rule="evenodd" clip-rule="evenodd" d="M40.246 106.615c.037 23.46-1.149 48.39-1.521 72.34-1.472.17-3.214-.096-4.66.116-1.038-23.861-2.179-47.6-2.383-72.462 2.872.031 5.678-.045 8.564.006zm93.729 1.473c.463 23.454 2.181 48.354 3.064 72.291 1.476.138 3.212-.163 4.662.017.528-23.878 1.162-47.635.836-72.498-2.871.094-5.679.077-8.562.19zm32.832-27.92c.368 22.419 1.987 46.212 2.773 69.087 1.474.128 3.211-.167 4.662 0 .622-22.828 1.351-45.538 1.124-69.302-2.87.1-5.676.095-8.559.215z" fill="#EFAD1B"/><path fill-rule="evenodd" clip-rule="evenodd" d="M177.744 79.03c.384.507-.648 1.78-1.185 2.365-4.299 4.704-8.867 9.032-13.417 13.751-2.412 2.501-4.972 5.165-7.811 7.714-1.2 1.076-2.603 2.333-4.001 3.694-1.109 1.077-2.943 3.185-4.203 3.471-.936.211-2.404.015-3.802.006-1.325-.008-2.74-.148-4.003-.216-2.709-.146-5.422-.093-7.701-.204a368.745 368.745 0 00-15.509-.411c-10.121-.062-20.548-.127-30.41-.264-17.184-.238-35.6-.245-54.013-1.429-2.402-.154-5.895-.159-5.68-2.42.186-1.946 3.802-1.891 5.814-2.01 5.29-.314 9.782-.199 15.114-.138 7.901.092 15.32.135 23.02.183 10.091.063 20.622.325 30.826.392 12.843.085 25.457.418 38.436.379 2.539-.007 5.14-.289 7.5-.017.971.112 1.374.329 1.746.938 7.508-7.144 15.816-15.202 23.813-22.382 1.375-1.234 2.659-3.03 4.412-3.46.288-.07.755-.338 1.054.058z" fill="#EFAD1B"/><path opacity=".12" fill-rule="evenodd" clip-rule="evenodd" d="M177.744 79.03c-.3-.396-.766-.128-1.054-.058-.674.166-1.28.534-1.848.996-2.688.083-5.328.087-8.036.2.039 2.357.094 4.733.158 7.117-6.302 5.833-12.644 11.957-18.499 17.53-.372-.609-.775-.827-1.746-.939-2.36-.272-4.961.011-7.5.018-12.979.038-25.593-.295-38.436-.379-10.204-.068-20.735-.33-30.826-.392-7.7-.049-15.119-.092-23.02-.184-5.332-.061-9.825-.175-15.114.138-2.012.12-5.628.064-5.813 2.011-.216 2.26 3.277 2.265 5.68 2.419.225 24.535 1.348 47.991 2.374 71.565 1.446-.211 3.188.054 4.66-.116.364-23.49 1.51-47.919 1.518-70.981 15.536.721 30.938.76 45.46.962 9.862.136 20.289.201 30.41.263 4.877.031 9.97.145 15.509.412.753.037 1.557.055 2.39.069.506 22.988 2.164 47.301 3.028 70.698 1.476.138 3.212-.162 4.662.018.514-23.202 1.123-46.29.859-70.387.256.01.513.02.765.022 1.398.008 2.866.205 3.802-.007 1.26-.285 3.094-2.393 4.203-3.471 1.398-1.36 2.801-2.618 4.001-3.693 2.839-2.549 5.399-5.214 7.811-7.715a327.578 327.578 0 013.935-4.003c.602 19.115 1.843 38.935 2.502 58.113 1.475.128 3.212-.168 4.662 0 .598-21.956 1.286-43.811 1.139-66.59.394-.422.79-.844 1.179-1.27.537-.587 1.568-1.86 1.185-2.366z" fill="#000"/><path fill-rule="evenodd" clip-rule="evenodd" d="M177.341 78.813c.29.164-28.277 27.228-28.697 27.32-.951.205-45.658-.877-60.437-.97-20.874-.131-41.22-.023-61.832-.901-.368-.19 6.03-4.835 8.658-6.927 7.038-5.6 25.8-20.812 26.394-20.964.854-.218 110.449 2.347 115.914 2.442z" fill="#EFAD1B"/><path fill-rule="evenodd" clip-rule="evenodd" d="M133.594 105.055c.986.464 2.813.263 4.595-.04.762-.132 1.994-.362 1.955-1.058-.047-.835-1.488-.794-2.002-.778-1.631.052-3.591.444-4.572.958-.154.206-.127.661.024.918zm4.784 1.702c-.237 1.739 3.602 1.608 3.391.164-.091-.625-1.972-1.255-2.86-.914-.317.124-.492.446-.531.75zm-104.353-4.139c-1.188-1.871 4.244-2.224 4.445-.584.233 1.924-3.316 1.446-4.318.754-.062-.045-.085-.105-.127-.17zm5.11 2.068c-.744-1.634 3.813-2.186 3.68-.333-.1 1.405-3.165 1.463-3.68.333z" fill="#fff"/><path fill-rule="evenodd" clip-rule="evenodd" d="M40.212 53.674c-.061-.91-.29-1.705-.154-2.894.125-1.107.55-2.765 1.505-2.702.957.066 1.165 1.558 1.131 2.41-.074 1.926-.967 3.426-1.52 4.707.392.808.803 1.602 1.246 2.368.135-1.183.243-2.414.521-3.574.215-.896.709-2.252 1.605-2.147 1.011.116.935 1.94.737 3.014-.334 1.812-1.237 3.275-2.079 4.373.463 1.106.9 2.235 1.409 3.307.332-1.98.685-3.738 1.676-5.122.304-.423.747-.885 1.283-.774.685.14.751 1.11.58 2.02-.406 2.154-1.929 4.082-3.004 5.35.266.924.624 1.773.88 2.706.586-1.794 1.099-3.71 2.214-5.061.34-.414.77-.965 1.347-.875.704.11.827 1.143.7 1.926-.384 2.364-2.525 3.902-3.857 5.197.754 2.967 1.924 6.566 2.063 10.33.026.712.104 1.633-.603 1.448-.43-.112-.285-.75-.292-1.226-.018-1.397-.324-2.927-.459-4.014-1.514.368-2.995-.163-4.226-.977-.51-.337-1.632-1.037-1.434-1.684.251-.813 2.27.286 2.712.475 1.021.433 1.819.767 2.686 1.179-.088-1.001-.48-2.182-.713-3.23-1.645.63-3.867.06-5.383-.84-.51-.302-1.602-1.074-1.367-1.784.304-.914 2.48.022 3.172.257 1.165.394 2.196.68 3.186 1.074-.36-1.385-.82-2.69-1.275-3.999-1.412.543-4.066.204-5.454-.685-.43-.276-1.046-.671-.888-1.242.23-.832 2.202-.156 2.929.013 1.185.277 2.083.506 2.956.72-.352-1.132-.844-2.153-1.256-3.238-.987.836-3.041.805-4.665.006-.642-.317-2.3-1.264-2.074-2.248.269-1.172 2.806-.27 3.79.058.895.296 1.741.6 2.384.98a35.185 35.185 0 00-1.935-3.913c-1.727.523-5.121-.188-6.28-1.051-.352-.262-.9-.888-.815-1.396.185-1.125 2.361-.344 3.207-.064 1.158.384 2.125.834 3.114 1.228-.212-.511-.58-1-.964-1.522-.354-.481-.725-1.106-1.19-1.439-.469-.338-1.052-.526-1.538-.775-.978-.504-1.882-1.08-2.597-1.928-.357-.42-.8-.962-.577-1.584.175-.491.75-.699 1.46-.43.98.372 1.69 1.335 2.306 2.112.473.597.987 1.182 1.415 1.845.134.21.21.485.352.692.313.456.778.835 1.104 1.267.362.485.622.96.929 1.356z" fill="#892"/><path d="M60.572 60.205c.322-.27.667-.527 1-.777.642-.48 1.247-.933 1.693-1.458.636-.749.893-1.39.788-1.962-.11-.59-.496-.678-.715-.678-.601 0-1.314.623-1.392.693-.996.893-1.734 2.017-2.393 3.64-.356.328-.715.71-1.06 1.077-.243.257-.475.505-.7.727.026-.572.046-1.21-.008-1.911-.04-.52-.163-2.1-1.05-2.1-.837.014-1.039 1.408-1.03 2.144.02 1.417.352 2.704.86 3.361a7.238 7.238 0 00-.448.637c-.118.18-.232.355-.346.502-.105-.639-.216-1.136-.465-1.763-.454-1.138-1.003-1.628-1.567-1.444-.433.14-.46.873-.405 1.463.1 1.076.578 2.746 1.497 3.272-.16.246-.298.511-.432.768l-.102.195c-.163-.527-.383-1-.645-1.537l-.094-.207c-.262-.586-.679-1.494-1.345-1.379a.571.571 0 00-.386.244c-.199.295-.128.771-.044 1.154.288 1.304.89 2.386 1.792 3.216-.431.99-.825 2.108-1.251 3.563l-.12-.243a8.647 8.647 0 00-.507-.93l-.072-.118c-.28-.449-.773-1.225-1.399-1.107a.605.605 0 00-.433.315c-.236.419-.131 1.156.02 1.544.31.803 1.205 2.064 1.728 2.303.127.058.258.08.373.09-.3 1.362-.5 3.146-.55 4.943l-.006.13c-.01.446-.028 1.002.03 1.445l.009.07c.017.179.045.477.324.57l.05.017.052-.011c.457-.094.442-.567.433-.85a1.397 1.397 0 01-.001-.201l.042-.67c.048-.803.357-3.727.357-3.727.088-.585.178-1.186.317-1.73 1.018.167 2.065.003 3.353-.531.466-.192 1.557-.644 1.403-1.444-.053-.274-.265-.6-.977-.6-.516 0-1.123.165-1.487.263l-.099.026a9.242 9.242 0 00-1.813.677c.28-1.079.595-2.006.954-2.82a4.26 4.26 0 001.541.394 9.4 9.4 0 00.533.013c.622 0 2.125-.054 2.62-.56a.582.582 0 00.18-.425c-.012-.774-1.36-.901-2.373-.93-.619-.018-1.072.028-1.513.072l-.365.035c.165-.377.36-.727.55-1.07.067-.119.133-.24.197-.36.61.44 1.486.713 2.499.774.126.008.264.012.409.012.512 0 1.757-.055 2.218-.568a.656.656 0 00.173-.52c-.08-.742-1.617-.938-2.633-.861a11.26 11.26 0 01-.889.028l-.738-.003a18 18 0 00-.343.002c.29-.512.634-.974 1.036-1.49.602.337 1.522.535 2.512.535.71 0 1.4-.104 1.95-.291l.042-.015c.519-.176 1.303-.444 1.235-1.079-.074-.689-1.22-.709-1.904-.72l-.176-.004a9.936 9.936 0 00-2.595.269c.169-.171.341-.354.52-.543.46-.489.983-1.04 1.581-1.546z" fill="#892"/><path fill-rule="evenodd" clip-rule="evenodd" d="M58.22 78.26c-.03-.68-.016-1.597-.44-1.83-.156-.087-.457-.117-.803-.127V76.3l-.23-.001h-.004l-15.28-.063v.002a6.34 6.34 0 00-.845.033c-.875.1-.83.796-.809 1.734.02.832-.092 1.793.393 2.099.402.248 1.426.184 1.426.184.278 3.132.673 6.33.988 9.542.093.953.113 2.59.565 2.99.43.378 11.341.457 11.768.09.29-.246.3-.735.362-1.38.37-3.792.763-7.616 1.16-11.229.608-.03 1.075.031 1.382-.172.415-.272.39-1.229.367-1.87z" fill="#FF5000"/><path opacity=".2" fill-rule="evenodd" clip-rule="evenodd" d="M56.472 80.3l-14.754.955-.091-.968 14.845.014z" fill="#000"/><path fill-rule="evenodd" clip-rule="evenodd" d="M108.87 71.853c4.962.13 10.407.046 15.153.19.561 2.167.534 4.57 2.145 5.62 1.334.868 3.505.607 4.862 1.515.836.559 1.204 1.485 1.516 2.588-10.559-.328-21.552-.537-32.263-.504.108-.73.427-1.678 1.011-2.084 1.21-.842 3.518-.354 4.925-1.074 1.909-.977 1.888-3.616 2.525-6.06.054-.052.038-.174.126-.19z" fill="#8F7ECE"/><path opacity=".2" d="M124.023 72.043c-4.746-.145-10.191-.061-15.153-.19-.088.016-.072.138-.126.19-.348 1.335-.501 2.726-.879 3.877h17.039c-.413-1.14-.537-2.552-.881-3.877z" fill="#000"/><path fill-rule="evenodd" clip-rule="evenodd" d="M106.508 79.506c-.376-.565 1.368-.792 1.154-.16-.112.331-.843.274-1.154.16zm-1.065-.515c.138.035.404.186.309.46-.123.355-.867.504-1.151.62-.343.14-.931.557-1.258.297-.469-.371.5-.851.841-1.004.18-.08.365-.14.521-.201.268-.104.471-.243.738-.172z" fill="#fff"/><path fill-rule="evenodd" clip-rule="evenodd" d="M134.692 27.973c1.056-.05 2.7-.045 4.294 0 3.285.096 6.913-.23 7.891 2.275.483 1.24.558 3.094.632 4.924.07 1.77-.074 3.637-.127 5.365-.237 7.57-1.01 13.332-1.01 21.087 0 1.707-.11 3.515-.253 5.242-.2 2.406-.207 4.872-1.894 5.681-.762.367-2.156.207-3.473.253-1.268.044-2.579-.09-3.662-.126l-7.322-.254c-5.37-.179-9.954-.061-15.027-.061-4.79 0-9.865.266-14.964.125-4.345-.121-10.284.497-13.637-1.2-2.667-1.349-2.885-4.722-3.03-8.775-.281-7.929.452-15.23.631-22.73.044-1.793.04-3.869.127-5.745.098-2.166.342-4.345 1.262-5.114.93-.775 3.425-.82 5.556-.82 2.227 0 4.364.081 6.251.126 12.373.298 25.238-.252 37.628-.253.043 0 .085.002.127 0z" fill="#8F7ECE"/><path fill-rule="evenodd" clip-rule="evenodd" d="M85.27 64.923c-.617.284-.568-1.476.023-1.163.308.162.138.875-.022 1.163zm-.675.971c.058-.132.247-.37.503-.233.334.177.365.935.433 1.233.083.362.406 1.006.097 1.29-.438.406-.763-.627-.86-.987-.05-.19-.082-.383-.117-.548-.06-.28-.166-.502-.056-.755zm13.146 4.084c.472-.136 1.271.085 2.043.348.332.112.864.303.796.61-.081.37-.72.248-.948.204-.723-.14-1.568-.455-1.967-.755-.056-.102-.01-.304.076-.407zm3.726-.415c.02-.793 1.721-.459 1.523.169-.087.272-.967.418-1.339.203-.134-.077-.186-.234-.184-.372zm1.749 1.159c-.022-.28.34-.468.746-.509.327-.032.966.054.883.42-.036.164-.306.352-.643.394-.395.052-.956.056-.986-.305zm25.676-4.377c.446.21 1.269.12 2.075-.018.344-.058.899-.163.882-.477-.02-.376-.672-.358-.903-.351-.737.024-1.621.2-2.064.433-.069.093-.057.299.01.413zm2.16.768c-.106.784 1.626.726 1.531.074-.042-.282-.891-.566-1.291-.41-.144.053-.221.2-.24.336z" fill="#fff"/><path opacity=".2" fill-rule="evenodd" clip-rule="evenodd" d="M136.542 70.883c.445-.209 1.27-.118 2.074.02.344.056.9.161.882.476-.021.377-.672.36-.904.351-.735-.023-1.619-.2-2.062-.433-.071-.092-.059-.298.01-.414zm3.058-.483c-.106-.786 1.627-.727 1.532-.076-.042.283-.892.566-1.291.413-.143-.056-.222-.201-.241-.338zm3.331.572c-.068-.274.262-.516.655-.62.318-.085.962-.101.939.275-.011.166-.248.394-.573.49-.38.113-.935.206-1.021-.145z" fill="#000"/><path opacity=".52" fill-rule="evenodd" clip-rule="evenodd" d="M91.05 30.816c1.807-.14 4.017.215 6.057.322 2.054.11 4.152 0 6.253 0 4.145 0 8.362-.193 12.565-.193 3.464 0 8.986-.13 12.374-.13 1.975 0 4.133.065 6.316.065 2 0 4.29-.134 5.994.323 1.155.31 2.904 1.273 3.479 2.706.793 1.974.481 5.304.387 7.927-.097 2.747-.258 5.424-.258 8.25 0 2.635-.14 5.532-.257 8.314-.128 3.015-.116 5.946-2.191 6.83-1.584.675-4.469-.027-6.509-.128-6.988-.349-13.456-.58-20.817-.58-4.344 0-9.036.064-14.178.064-3.57 0-6.8.13-10.119-.321-1.128-.156-2.178-.458-2.641-.904-1.191-1.144-.968-4.574-.968-7.152 0-5.587.141-10.115-.128-15.92-.061-1.319-.132-2.73 0-3.995.237-2.254.536-4.127 2.061-4.963.69-.376 1.877-.46 2.58-.515z" fill="#fff"/><path fill-rule="evenodd" clip-rule="evenodd" d="M132.074 31.023c.444.208 1.268.118 2.073-.019.344-.059.9-.164.883-.476-.021-.378-.672-.36-.904-.353-.735.024-1.619.201-2.063.434-.071.092-.058.298.011.414zm2.159.768c-.107.784 1.625.726 1.531.075-.042-.283-.891-.567-1.291-.413-.143.056-.221.201-.24.338zm4.41-.867c-.066.274.262.515.656.622.317.084.961.1.937-.276-.008-.167-.245-.395-.571-.492-.382-.112-.936-.205-1.022.146zm-39.117.584c-.446.208-1.27.119-2.076-.019-.343-.059-.899-.163-.881-.477.021-.377.671-.36.903-.35.737.023 1.621.2 2.063.431.07.093.06.299-.01.415zm-2.161.768c.107.786-1.626.726-1.53.074.041-.282.89-.567 1.29-.413.144.056.22.202.24.338zm-4.411-.866c.068.273-.262.515-.656.619-.316.084-.962.102-.938-.275.01-.167.246-.394.573-.492.38-.111.934-.205 1.021.148zm-3.363 30.506c.444-.208 1.269-.12 2.073.02.344.057.9.163.883.477-.022.376-.673.357-.903.35-.737-.024-1.62-.2-2.064-.432-.07-.094-.058-.299.011-.415zm3.059-.486c-.107-.784 1.625-.725 1.53-.075-.042.284-.89.567-1.29.413-.144-.056-.222-.201-.24-.339zm3.33.574c-.069-.274.26-.516.655-.62.316-.084.96-.101.939.274-.011.168-.247.397-.572.492-.381.112-.937.206-1.022-.146zm23.627-8.743c0-.387-.489-.749-.929-1.116-1.102-.914-2.419-2.056-3.477-2.951-.265-.224-.495-.432-.845-.702-.306-.236-.665-.44-.916-.289-.293.175-.277.649-.278.934-.003 1.015.192 2.02.27 3.024.076.966.077 1.953.209 3.01.039.3.066.808.351 1.022.341.257 1.36-.35 1.811-.577.521-.262 3.803-1.596 3.804-2.355z" fill="#fff"/><path fill-rule="evenodd" clip-rule="evenodd" d="M118.832 56.134a.95.95 0 01-.374 1.29l-.238.128a.948.948 0 01-1.288-.374l-1.155-2.102a.952.952 0 01.375-1.29l.238-.128a.949.949 0 011.289.374l1.153 2.102zm20.043 2.38c-.702.42-1.332 1.087-2.055 1.441.785 1.822-2.189 3.103-2.922 1.077-1.8.05-3.632.007-5.44.032-1.185 2.3-4.365-.729-1.859-2.067.083-1.496-.069-2.923.185-4.471-2.502-.73-.685-4.536 1.356-3.094.73-.175 1.269-.99 1.966-1.276-.234-.75-.259-1.489.276-2.084.773-.858 2.629-.186 2.602 1.086 1.84.158 3.548-.131 5.397.05 1.165-2.791 4.755.74 2.192 2.037-.135 1.583-.124 3.12-.191 4.682 1.595.873.283 3.732-1.507 2.587zm.712-7.802c1.059.406 1.771-1.55.306-1.748-1.293-.175-1.004 1.48-.306 1.748zm-1.518-.927c-1.7.161-3.469.09-5.233.041-.277.688-.774.638-1.16.966a11.918 11.918 0 01-.181 1.71c.93.035 1.842.004 2.762.004.548-.94 1.314-1.144 2.32-.552.588-.493 1.222-.84 1.8-1.365-.11-.265.047-.612-.308-.804zm1.826 1.73c-.331-.105-.658-.207-1.03-.45-.575.544-1.223.838-1.802 1.365.436.788-.178 1.983-.999 2.436.105.636-.149 1.379.104 1.97.684-.096 1.403-.082 2.134-.015.327-.832.867-.956 1.414-1.042-.058-1.386.079-2.83.179-4.263zm-8.737-1.535c.774.308 1.733-1.29.383-1.494-.998-.153-1.16 1.185-.383 1.494zm3.933 3.934c.861.603 2.095-.952.883-1.436-1.155-.46-1.458 1.037-.883 1.436zm-4.41-3.447c-.621.613-1.329.934-1.933 1.611a.48.48 0 01.114.382c.722.187 1.378.148 2.006.021.023-.582.051-1.163.225-1.79-.138-.077-.275-.15-.412-.224zm.876 2.707c-.248.834-.022 1.523-.2 2.336.868.316.939.87 1.295 1.339.887-.036 1.759-.118 2.679-.04.052-.728.211-1.488-.014-2.134-.925-.07-1.165-.94-1.333-1.466-.801.02-1.605.019-2.427-.035zm7.63 4.763c.816.553 1.892-1.013.585-1.277-.949-.192-1.172.88-.585 1.277zm-8.346-4.619c-.671-.17-1.258-.055-1.881-.06-.372 1.066-1.058 1.083-1.637 1.452a30.89 30.89 0 01-.091 4.1c.295.214.482.069.787.317.543-.49 1.071-1.037 1.637-1.454-.277-.781.215-1.938 1.073-2.184a8.412 8.412 0 01.112-2.17zm5.306 4.145c-.112.746-.325 1.525.269 2.06.605-.596 1.3-.885 1.889-1.53-.061-.984-1.458-.287-2.158-.53zm-9.839-5.002c-.458 1.031 1.164 1.971 1.81.978.374-.575.239-1.243-.581-1.484-.563-.165-.973-.073-1.229.506zm6.116 5.008c-.53 1.078-1.345 1.204-2.365.636-.49.667-1.098.943-1.599 1.58.172.202.101.476.272.678 1.688-.044 3.378-.083 5.104-.003.343-1.011.962-1.093 1.511-1.416-.01-.503.101-1.042-.036-1.508-.962.009-1.904.094-2.887.032zm-2.116-.611c-.249 1.094 1.864 1.156 1.471-.162-.559-.684-1.331-.447-1.471.162zm4.711 4.46c.784.388 1.988-1.2.465-1.448-1.095-.18-1.022 1.174-.465 1.448zm-8.579-1.238c-.391.863 1.076 1.629 1.487.592.212-.536-.129-.89-.639-.983-.583-.106-.737.145-.848.391z" fill="#fff"/><path d="M93.44 39.581c-.375.012-.376.595 0 .584l1.268-.042c.404 4.67.584 9.357.534 14.045-.003.294-.014.59-.018.885l-.273.264c-.224.214.017.525.258.486a147.324 147.324 0 01-.105 3.29c-.017.376.567.376.584 0 .055-1.262.092-2.526.116-3.79l13.915-13.472 2.354-2.28 1.619-.055c.375-.012.376-.595 0-.583-.331.011-.662.024-.993.033l1.106-1.071c.271-.261-.143-.674-.413-.414l-1.563 1.513-13.873.458-2.714.09c-.078-.858-.162-1.717-.255-2.573-.04-.37-.622-.374-.584 0 .096.864.177 1.727.255 2.592l-1.218.04zm17.767-.003l-12.17 11.783-3.219 3.116a144.87 144.87 0 00-.381-12.623l-.022-.244a.37.37 0 00.089.019l2.217.056a.296.296 0 00.292-.292.262.262 0 00-.019-.09.25.25 0 00.018-.087v-1.202l11.165-.368 2.03-.068zm-13.779.455v1.061l-1.924-.049a.25.25 0 00-.132.035l-.08-.976c.712-.025 1.424-.048 2.136-.07zm-7.706 7.813a15.9 15.9 0 01.349-2.462c.33-.085.665-.17.998-.253.178.533.368 1.063.58 1.584.061.147.195.247.359.204.14-.036.265-.214.204-.358a25.204 25.204 0 01-.584-1.596.292.292 0 00.11-.312.292.292 0 00-.28-.207 26.182 26.182 0 01-.517-1.921c-.073-.324-.523-.239-.565.042a.296.296 0 00-.082.114c-.29.725-.525 1.468-.71 2.223l-.086.022c-.147.037-.252.21-.202.36a.3.3 0 00.164.182 16.64 16.64 0 00-.32 2.377c-.024.375.558.374.582 0zm.871-4.302c.092.345.188.69.294 1.03l-.661.169c.106-.404.23-.805.367-1.2z" fill="#fff"/><path d="M102.121 34.481l.518 3.353c.024.156.219.243.359.204l.011-.005c.001.009-.002.02.001.03.046.164.203.228.358.204.638-.1 1.275-.435 1.538-1.052.254-.6.076-1.33-.555-1.598-.03-.012-.06-.022-.092-.033.146-.309.178-.676.084-.998-.161-.55-.663-.893-1.224-.93a1.307 1.307 0 00-.835.233c-.111.082-.175.225-.12.356a.361.361 0 00-.043.236zm.617-.183c0-.002.002-.002.003-.002a1.341 1.341 0 01.192-.052h.005c.003-.002 0 0 .004 0a1.299 1.299 0 01.243.004c.025.005.05.01.076.017a.457.457 0 01.064.02l.039.012a.495.495 0 00.045.02 2.033 2.033 0 01.132.078c.007.003.01.007.015.01l.006.004c.035.035.07.067.1.102.004.004.008.012.016.017v.004l.036.055c.011.02.022.04.031.06a.558.558 0 00.015.03c.013.046.029.09.039.138l.007.036v.007c.002.018.005.036.005.055a1.45 1.45 0 010 .132c-.001.016-.005.03-.005.045v.005a1.37 1.37 0 01-.057.21l-.002.002a.485.485 0 01-.052.096c-.012.025-.03.047-.045.071l-.017.021a1.04 1.04 0 01-.129.121c-.002 0-.005.007-.007.01a.55.55 0 00-.091.052c-.13.088-.188.255-.105.4.075.126.269.191.4.103a.626.626 0 01.072-.042c.004 0 .056-.021.066-.024a.336.336 0 01.044-.005l.081-.001.016.001.034.007.075.02.034.013a.08.08 0 00.018.007c.022.015.046.026.068.04.014.007.026.017.038.026l.008.006a.9.9 0 01.074.075l.012.01c.003.003.002.004.006.014.019.032.038.061.053.095-.016-.036.019.062.021.073a.778.778 0 01.019.088c-.007-.05.002.06.002.072 0 .036-.002.07-.007.105-.002.02-.006.038-.01.058a1.026 1.026 0 01-.053.172 1 1 0 01-.316.393c-.237.18-.525.27-.84.319-.006 0-.008.005-.013.007-.002-.011.002-.022-.001-.032-.171-1.117-.343-2.234-.517-3.353a.062.062 0 00.016-.01c.005-.001.023-.011.037-.017zm4.011 18.408c.315.183.693.247 1.047.15a.294.294 0 00.203-.359.296.296 0 00-.359-.203.915.915 0 01-.09.02c-.008-.001-.068.005-.076.005a.912.912 0 01-.11-.003l-.004-.001-.053-.01a.77.77 0 01-.106-.03l-.052-.017c-.004-.003-.004-.002-.007-.006a1.226 1.226 0 01-.191-.11c-.008-.004-.008-.004-.012-.009l-.039-.032c-.028-.024-.053-.051-.078-.077a.889.889 0 01-.054-.063c.033.042-.03-.043-.035-.052-.021-.032-.036-.065-.054-.096-.005-.013-.009-.016-.009-.021a.63.63 0 01-.043-.142l-.008-.036-.001-.022v-.114c.001-.018.002-.027.001-.03.003-.012.006-.023.007-.033a1.03 1.03 0 01.031-.11l.013-.04c.004-.005.005-.008.011-.02a.852.852 0 01.228-.3l.041-.036.013-.008c.031-.02.062-.043.096-.062a.87.87 0 01.101-.051c-.047.021.052-.018.063-.022a.694.694 0 01.347-.026c.155.03.315-.044.358-.203.041-.144-.046-.328-.203-.36-.674-.136-1.345.266-1.602.894-.253.623.066 1.308.626 1.635zm10.718-9.062c.113-.604.249-1.203.394-1.799.01-.005.023-.005.034-.014.042-.026.087-.05.132-.074.018-.008.034-.017.054-.025a.228.228 0 01.032-.016c.028-.012.024-.01-.013.005.026-.023.093-.034.126-.045.045-.014.092-.026.138-.037l.065-.014c.015-.002.064-.02.077-.013l.076-.005c.096-.006.19-.003.286.007.146.015.284-.138.278-.279-.007-.164-.122-.262-.278-.278a1.984 1.984 0 00-.835.104c.161-.601.344-1.196.54-1.788l1.133 3.751c.103.343.642.197.537-.147l-1.371-4.54c-.098-.325-.58-.207-.542.1a.255.255 0 00-.114.14 32.712 32.712 0 00-1.287 4.82c-.065.349.472.499.538.147zm1.741-6.159a.732.732 0 01.091-.002c.017 0 .108.015.039 0 .029.007.059.012.088.02l.06.025a.434.434 0 01.059.03c.009.005.051.038.053.038l.05.047.025.028.001.001c.018.028.032.054.049.084l.005.01a.186.186 0 00.012.032c.009.032.015.062.023.094l.003.045c.001.031-.002.063-.003.096.004-.067-.006.028-.011.044-.004.025-.013.048-.022.072-.005.004-.026.052-.031.06-.112.195.034.4.241.42l.812.073c.145.014.285-.137.279-.277-.009-.164-.124-.267-.279-.28l-.442-.04a1.014 1.014 0 00-.154-.713 1.061 1.061 0 00-.948-.463c-.144.013-.286.117-.278.278.007.14.123.292.278.278zm3.802 3.909c.299-.095.604-.162.911-.205l.074.64c.018.15.115.278.28.278.137 0 .294-.128.278-.279l-.08-.69c.171-.008.344-.007.517.002.151.01.28-.133.28-.278 0-.157-.129-.272-.28-.28a6.683 6.683 0 00-.582 0l-.093-.81c-.018-.151-.116-.28-.279-.28-.138 0-.295.128-.278.28.031.287.066.575.098.862a5.997 5.997 0 00-.993.222.283.283 0 00-.195.343c.039.141.2.24.342.195zm4.664-2.474a.26.26 0 00.081.025c.146 1.007.292 2.014.44 3.02.017.125.153.198.275.198a.238.238 0 00.122.158c.638.298 1.449.173 1.848-.445.179-.279.241-.624.174-.948a1.07 1.07 0 00-.547-.72 1.243 1.243 0 00-.305-.111 1.42 1.42 0 00.177-1.236 1.25 1.25 0 00-.578-.704 1.473 1.473 0 00-.918-.144 1.333 1.333 0 00-.868.525c-.09.117-.023.316.099.382zm.627-.288a.755.755 0 01.045-.02c.049-.015.1-.033.151-.046.009-.001.095-.02.055-.01-.038.009.004 0 .014-.002a1.08 1.08 0 01.221-.002l.026.003h.002c.026.006.053.01.08.018a.73.73 0 01.127.038c.043.021.086.043.128.07.017.012.075.063.026.017.024.02.048.042.07.063l.049.053c0 .002 0 .001.002.002l.016.022.043.07a.927.927 0 00.019.037l.009.017c-.005-.008.018.049.02.058a.73.73 0 01.023.078l.014.07.003.003.003.045a1.132 1.132 0 01-.006.218v.004a.78.78 0 01-.01.051c-.013.06-.035.118-.055.177.023-.068-.013.026-.022.045a1.09 1.09 0 01-.042.07c-.011.02-.076.096-.027.043-.02.023-.039.047-.061.069a.772.772 0 01-.067.063c.002-.004.004-.004.009-.006-.003.002-.007.002-.009.006-.008.007-.022.014-.016.01-.009.007-.018.014-.026.018a.304.304 0 00-.136.257c-.085.086-.114.23-.046.334.083.13.244.176.381.1l.037-.02.005-.002.048-.013c.011-.005.059-.012.058-.012.018-.002.036-.004.055-.004.023 0 .05.005.074.003.007 0 .014.002.019.003l.084.021.049.019a.945.945 0 01.116.063l.026.02.002.001a.89.89 0 01.063.06l.027.03.004.003.029.045c.013.022.023.044.035.068.004.017.011.032.017.05l.019.077.003.025v.003c.003.056.001.11-.003.166a.961.961 0 01-.03.12l-.024.069c-.003.003-.019.043-.027.055a.606.606 0 01-.043.07c-.004.01-.019.028-.025.037a1.394 1.394 0 01-.119.123c0 .002-.003.003-.007.005l.009-.005c-.004.002-.007.003-.01.006h.001l-.011.007c-.004.003-.007.007-.011.008a1.369 1.369 0 01-.155.085l-.001.002c-.02.005-.039.014-.06.018a.852.852 0 01-.096.027l-.048.008-.011.004c-.001 0 0-.002-.003 0-.072.002-.142.008-.214.003a.234.234 0 00-.038-.003h-.006l-.008-.002a1.529 1.529 0 01-.208-.053c-.012-.004-.024-.01-.035-.013-.005-.001-.006-.003-.008-.004a.37.37 0 00-.161-.036l-.44-3.014a.209.209 0 00-.069-.12l.015-.011a.753.753 0 01.063-.035z" fill="#fff"/><path d="M129.141 39.966l.015-.01h.001a.055.055 0 00-.016.01zm.926-2.949l.025.001c.017.005.043.009.055.013l.004.001c.012.01.05.026.056.03.004.004.012.007.017.012.013.01.023.02.036.033a.44.44 0 01.04.054c.002.007.007.014.009.02a.74.74 0 00.021.06v.08l-.002.011a.201.201 0 01-.005.026c-.003.024-.009.045-.014.067a4.038 4.038 0 00-.034.219c-.026.236.06.512.285.625.256.13.58.024.671-.258a.28.28 0 00-.194-.343.296.296 0 00-.208.027l.001-.025.002-.014a.135.135 0 01.008-.037c.02-.117.05-.236.047-.355a.838.838 0 00-.82-.806c-.146 0-.287.13-.28.28a.284.284 0 00.28.28zm4.685 1.963h-.385a.293.293 0 00-.196.08.223.223 0 00-.058.09.221.221 0 00-.025.108.284.284 0 00.083.197c.053.05.121.08.196.08h.385c.073 0 .146-.03.197-.08a.223.223 0 00.059-.09.211.211 0 00.022-.107.276.276 0 00-.081-.199.292.292 0 00-.197-.08zm0 1.091h-.578a.288.288 0 00-.197.082.282.282 0 00-.082.197.283.283 0 00.279.279h.577a.278.278 0 00.279-.28.281.281 0 00-.278-.278zm3.739.965c.539.206 1.167.16 1.67-.126.31-.18.03-.663-.283-.483-.632.364-1.518.157-1.879-.49-.37-.662-.142-1.526.531-1.882.352-.186.806-.23 1.175-.072.138.056.298.039.381-.101.069-.117.04-.323-.1-.382-.971-.412-2.166.003-2.577 1.003a1.99 1.99 0 00-.001 1.48 1.86 1.86 0 001.083 1.053zm-3.641 2.129a71.109 71.109 0 00-11.305 3.59c-.328.135-.185.674.147.538a71.174 71.174 0 0111.306-3.59c.349-.079.201-.616-.148-.538z" fill="#fff"/><path fill-rule="evenodd" clip-rule="evenodd" d="M174.324 49.97c5.053-.36 7.113 3.577 9.705 6.419.728.796 2.197 2.042 1.944 3.363-.183.962-1.653 1.158-2.855.773-1.145-.367-2.121-1.15-3.073-1.892-.884-.686-1.83-1.393-2.822-2.135-.976-.73-1.907-1.334-3.199-1.768-1.245-.418-3.057-.605-3.26-1.706-.217-1.174.802-2.23 1.451-2.58.558-.304 1.34-.421 2.109-.475z" fill="#892"/><path d="M185.594 59.648a.04.04 0 00.006-.007c-.157-.3-.431-.583-.609-.83-.366-.508-.766-.971-.973-1.37a7.31 7.31 0 01.526.052c.034.001.064.005.096.008h-.001c.153.016.307.03.456.032a13.43 13.43 0 00-.587-.645l-.052-.001a3.754 3.754 0 01-.248-.028c-.156-.021-.302-.048-.444-.07a2.337 2.337 0 00-.357-.037c-.788-.778-1.737-1.703-2.388-2.379.235-.04.529.055.804.072.179.011.379.022.586.03a40.82 40.82 0 00-.572-.682c-.354 0-.704-.016-1.029-.051l-.048-.007a5.415 5.415 0 01-.376-.056c-.031-.006-.064-.012-.095-.02a2.958 2.958 0 01-.374-.101c-.424-.153-.813-.525-1.229-.757-.485-.269-.958-.435-1.354-.697.172-.035.339-.084.501-.142.056-.018.11-.044.166-.065.103-.04.206-.079.305-.125.078-.037.151-.078.226-.117a5.55 5.55 0 00.215-.11c.108-.06.21-.121.313-.181l.08-.049.061-.035a8.668 8.668 0 00-.596-.376c-.092.054-.191.103-.288.155-.084.043-.169.086-.255.128-.054.026-.111.051-.165.076-.088.04-.175.078-.264.115-.075.03-.154.057-.23.084-.072.026-.145.054-.218.077a6.126 6.126 0 01-.465.128c-.834.18-1.601-.151-2.473-.276.384-.135.676-.437.999-.67.072-.054.161-.1.25-.15a1.92 1.92 0 00.329-.219l.002-.001h-.001a.637.637 0 00.213-.331 8.052 8.052 0 00-.725-.065 10.415 10.415 0 01-.591.443 9.66 9.66 0 01-.139.094 12.61 12.61 0 01-.24.161c-.056.037-.112.075-.167.108-.037.026-.076.047-.112.07a6.803 6.803 0 01-.281.167 5.225 5.225 0 01-.192.108l-.083.044a4.124 4.124 0 01-.201.099l-.059.03c-.084.037-.163.07-.239.1-.179.062-.352.11-.523.15l-.063.016c-.142.032-.282.057-.421.083-.433.075-.844.13-1.227.28-3.867 1.514-4.034 6.892-4.459 11.46-.074.81-.078 1.49-.089 2.474-.007.655-.124 1.72.417 1.614.415-.083.264-1.614.269-1.977.01-.903-.013-1.584.022-2.227.182-3.186.618-7.446 2.148-9.32.494-.605.993-.972 1.653-1.251.11-.046.225-.09.345-.133.017-.004.034-.011.05-.017a7.158 7.158 0 01.486-.148c.1-.03.201-.057.308-.084.165-.042.335-.083.518-.124.094.057.181.121.267.19.027.022.053.046.081.071.054.05.108.1.159.155.026.028.052.055.076.083.053.062.105.129.154.197.013.021.03.04.045.063.131.193.245.406.345.632l.004.014c.153.351.272.731.376 1.126l.074.023c.244.084.473.172.694.267-.075-.267-.157-.53-.243-.784h.004l-.06-.157c-.043-.122-.087-.24-.132-.358l-.08-.196a7.964 7.964 0 00-.171-.382c-.015-.03-.028-.066-.042-.095a6.604 6.604 0 00-.234-.425c-.023-.035-.042-.068-.064-.103a3.907 3.907 0 00-.261-.37 8.254 8.254 0 012.719.34c.077.096.15.207.219.322.018.033.036.069.055.102.048.09.094.184.138.283l.052.12c.045.107.084.217.122.333l.035.101c.095.303.172.63.235.973l.025.156a8.553 8.553 0 01.08.557c.042.354.07.713.087 1.07l.02.015.61.457c0-.388-.009-.756-.024-1.114l.005.002c-.003-.046-.008-.086-.013-.131a9.125 9.125 0 00-.037-.48c-.009-.088-.015-.178-.025-.264a7.232 7.232 0 00-.119-.694c-.139-.59-.453-1.058-.48-1.489.75.33 1.458.697 2.093 1.137.083.134.158.28.232.429.023.049.044.1.066.15.049.11.094.222.135.337l.06.172c.044.128.082.258.118.393.012.045.028.092.04.138.046.183.088.37.126.564l.022.117c.029.158.056.32.08.483l.027.189c.02.15.039.303.057.456l.017.17c.044.435.077.878.099 1.32.214.166.429.33.649.492a26.13 26.13 0 00-.047-1.428v-.017c-.02-.276-.043-.545-.073-.804l-.014-.12a11.02 11.02 0 00-.119-.78l-.007-.035a7.713 7.713 0 00-.157-.643c-.015-.054-.029-.108-.046-.16a5.562 5.562 0 00-.224-.607c.556.593 1.542.991 2.021 1.94.051.1.096.21.136.327.016.044.029.092.043.138.024.076.047.154.066.235.015.056.028.113.039.17.019.082.034.165.048.25.011.056.021.112.03.17l.044.335c.003.035.009.067.011.102.016.158.028.319.039.48l.002.027c.008.156.013.313.019.47v.05c.008.33.007.655-.001.964.113.046.23.091.348.13.08.025.163.048.247.068a69.66 69.66 0 000-.646h.001l-.001-.036a29.959 29.959 0 00-.013-.733l-.011-.271a11.466 11.466 0 00-.03-.472c-.005-.067-.009-.134-.016-.197a8.196 8.196 0 00-.083-.622c.677.65 1.184 1.461 1.708 2.183l.108.16.065.093c.009.012.017.026.026.037l.003-.002c.113.147.252.276.442.283.042-.032.083-.064.121-.102.062-.214.011-.42-.09-.621z" fill="#892"/><path opacity=".2" d="M185.594 59.648a.04.04 0 00.006-.007c-.157-.3-.431-.583-.609-.83-.366-.508-.766-.971-.973-1.37a7.31 7.31 0 01.526.052c.034.001.064.005.096.008h-.001c.153.016.307.03.456.032a13.43 13.43 0 00-.587-.645l-.052-.001a3.754 3.754 0 01-.248-.028c-.156-.021-.302-.048-.444-.07a2.337 2.337 0 00-.357-.037c-.788-.778-1.737-1.703-2.388-2.379.235-.04.529.055.804.072.179.011.379.022.586.03a40.82 40.82 0 00-.572-.682c-.354 0-.704-.016-1.029-.051l-.048-.007a5.415 5.415 0 01-.376-.056c-.031-.006-.064-.012-.095-.02a2.958 2.958 0 01-.374-.101c-.424-.153-.813-.525-1.229-.757-.485-.269-.958-.435-1.354-.697.172-.035.339-.084.501-.142.056-.018.11-.044.166-.065.103-.04.206-.079.305-.125.078-.037.151-.078.226-.117a5.55 5.55 0 00.215-.11c.108-.06.21-.121.313-.181l.08-.049.061-.035a8.668 8.668 0 00-.596-.376c-.092.054-.191.103-.288.155-.084.043-.169.086-.255.128-.054.026-.111.051-.165.076-.088.04-.175.078-.264.115-.075.03-.154.057-.23.084-.072.026-.145.054-.218.077a6.126 6.126 0 01-.465.128c-.834.18-1.601-.151-2.473-.276.384-.135.676-.437.999-.67.072-.054.161-.1.25-.15a1.92 1.92 0 00.329-.219l.002-.001h-.001a.637.637 0 00.213-.331 8.052 8.052 0 00-.725-.065 10.415 10.415 0 01-.591.443 9.66 9.66 0 01-.139.094 12.61 12.61 0 01-.24.161c-.056.037-.112.075-.167.108-.037.026-.076.047-.112.07a6.803 6.803 0 01-.281.167 5.225 5.225 0 01-.192.108l-.083.044a4.124 4.124 0 01-.201.099l-.059.03c-.084.037-.163.07-.239.1-.179.062-.352.11-.523.15l-.063.016c-.142.032-.282.057-.421.083-.433.075-.844.13-1.227.28-3.867 1.514-4.034 6.892-4.459 11.46-.074.81-.078 1.49-.089 2.474-.007.655-.124 1.72.417 1.614.415-.083.264-1.614.269-1.977.01-.903-.013-1.584.022-2.227.182-3.186.618-7.446 2.148-9.32.494-.605.993-.972 1.653-1.251.11-.046.225-.09.345-.133.017-.004.034-.011.05-.017a7.158 7.158 0 01.486-.148c.1-.03.201-.057.308-.084.165-.042.335-.083.518-.124.094.057.181.121.267.19.027.022.053.046.081.071.054.05.108.1.159.155.026.028.052.055.076.083.053.062.105.129.154.197.013.021.03.04.045.063.131.193.245.406.345.632l.004.014c.153.351.272.731.376 1.126l.074.023c.244.084.473.172.694.267-.075-.267-.157-.53-.243-.784h.004l-.06-.157c-.043-.122-.087-.24-.132-.358l-.08-.196a7.964 7.964 0 00-.171-.382c-.015-.03-.028-.066-.042-.095a6.604 6.604 0 00-.234-.425c-.023-.035-.042-.068-.064-.103a3.907 3.907 0 00-.261-.37 8.254 8.254 0 012.719.34c.077.096.15.207.219.322.018.033.036.069.055.102.048.09.094.184.138.283l.052.12c.045.107.084.217.122.333l.035.101c.095.303.172.63.235.973l.025.156a8.553 8.553 0 01.08.557c.042.354.07.713.087 1.07l.02.015.61.457c0-.388-.009-.756-.024-1.114l.005.002c-.003-.046-.008-.086-.013-.131a9.125 9.125 0 00-.037-.48c-.009-.088-.015-.178-.025-.264a7.232 7.232 0 00-.119-.694c-.139-.59-.453-1.058-.48-1.489.75.33 1.458.697 2.093 1.137.083.134.158.28.232.429.023.049.044.1.066.15.049.11.094.222.135.337l.06.172c.044.128.082.258.118.393.012.045.028.092.04.138.046.183.088.37.126.564l.022.117c.029.158.056.32.08.483l.027.189c.02.15.039.303.057.456l.017.17c.044.435.077.878.099 1.32.214.166.429.33.649.492a26.13 26.13 0 00-.047-1.428v-.017c-.02-.276-.043-.545-.073-.804l-.014-.12a11.02 11.02 0 00-.119-.78l-.007-.035a7.713 7.713 0 00-.157-.643c-.015-.054-.029-.108-.046-.16a5.562 5.562 0 00-.224-.607c.556.593 1.542.991 2.021 1.94.051.1.096.21.136.327.016.044.029.092.043.138.024.076.047.154.066.235.015.056.028.113.039.17.019.082.034.165.048.25.011.056.021.112.03.17l.044.335c.003.035.009.067.011.102.016.158.028.319.039.48l.002.027c.008.156.013.313.019.47v.05c.008.33.007.655-.001.964.113.046.23.091.348.13.08.025.163.048.247.068a69.66 69.66 0 000-.646h.001l-.001-.036a29.959 29.959 0 00-.013-.733l-.011-.271a11.466 11.466 0 00-.03-.472c-.005-.067-.009-.134-.016-.197a8.196 8.196 0 00-.083-.622c.677.65 1.184 1.461 1.708 2.183l.108.16.065.093c.009.012.017.026.026.037l.003-.002c.113.147.252.276.442.283.042-.032.083-.064.121-.102.062-.214.011-.42-.09-.621z" fill="#000"/><path fill-rule="evenodd" clip-rule="evenodd" d="M150.457 49.97c-5.053-.36-7.113 3.577-9.705 6.419-.728.796-2.196 2.042-1.944 3.363.183.962 1.653 1.158 2.855.773 1.145-.367 2.121-1.15 3.073-1.892.884-.686 1.83-1.393 2.823-2.135.976-.73 1.905-1.334 3.198-1.768 1.246-.418 3.056-.605 3.26-1.706.217-1.174-.801-2.23-1.451-2.58-.558-.304-1.34-.421-2.109-.475z" fill="#892"/><path d="M139.185 59.648l-.007-.007c.158-.3.432-.583.61-.83.366-.508.767-.971.973-1.37a7.31 7.31 0 00-.526.052c-.034.001-.062.005-.097.008h.001a5.04 5.04 0 01-.456.032c.194-.229.396-.445.589-.645l.05-.001c.086-.006.168-.017.249-.028.155-.021.302-.048.443-.07a2.34 2.34 0 01.358-.037c.788-.778 1.736-1.703 2.387-2.379-.233-.04-.527.055-.804.072-.178.011-.378.022-.585.03.189-.23.378-.457.572-.682.353 0 .704-.016 1.029-.051l.047-.007c.132-.015.256-.033.377-.056.031-.006.064-.012.095-.02.134-.028.26-.06.374-.101.424-.153.813-.525 1.229-.757.485-.269.957-.435 1.354-.697a3.757 3.757 0 01-.501-.142c-.057-.018-.111-.044-.166-.065-.103-.04-.206-.079-.306-.125-.077-.037-.15-.078-.226-.117-.072-.036-.145-.072-.214-.11-.108-.06-.21-.121-.313-.181l-.08-.049h.001l-.062-.035c.193-.134.391-.257.595-.376.092.054.192.103.288.155.084.043.169.086.255.128.054.026.111.051.165.076a5.195 5.195 0 00.495.199c.071.026.145.054.217.077.155.048.31.092.465.128.834.18 1.601-.151 2.473-.276-.383-.135-.676-.437-.999-.67-.071-.054-.161-.1-.249-.15a1.942 1.942 0 01-.331-.219v-.001a.628.628 0 01-.211-.331 7.84 7.84 0 01.722-.065 11.009 11.009 0 00.591.443c.046.03.094.064.141.094.08.056.159.109.239.161.057.037.112.075.166.108.039.026.076.047.114.07a5.493 5.493 0 00.28.167c.066.038.129.075.193.108l.081.044c.07.036.137.069.203.099l.058.03c.084.037.164.07.239.1.178.062.352.11.523.15l.063.016c.142.032.283.057.421.083.433.075.844.13 1.226.28 3.869 1.514 4.035 6.892 4.459 11.46.075.81.08 1.49.09 2.474.006.655.124 1.72-.416 1.614-.416-.083-.265-1.614-.268-1.977-.011-.903.011-1.584-.025-2.227-.181-3.186-.617-7.446-2.148-9.32-.493-.605-.992-.972-1.652-1.251a6.467 6.467 0 00-.742-.26l-.138-.038a18.744 18.744 0 00-.826-.208 2.228 2.228 0 00-.266.19c-.029.022-.055.046-.083.071-.055.05-.108.1-.159.155-.026.028-.052.055-.076.083a2.74 2.74 0 00-.152.197c-.015.021-.031.04-.045.063a3.93 3.93 0 00-.351.646 7.708 7.708 0 00-.374 1.126l-.075.023a9.383 9.383 0 00-.694.267c.076-.267.157-.53.243-.784h-.003l.059-.157c.043-.122.087-.24.132-.358l.079-.196c.057-.132.114-.259.172-.382.014-.03.028-.066.043-.095.074-.152.152-.291.233-.425l.064-.103c.083-.132.17-.26.261-.37a8.24 8.24 0 00-2.718.34 2.75 2.75 0 00-.219.322l-.056.102a3.62 3.62 0 00-.19.404 4.624 4.624 0 00-.123.332l-.034.101a8.06 8.06 0 00-.234.973l-.027.156a14 14 0 00-.053.357l-.027.2c-.041.354-.07.713-.086 1.07a.143.143 0 00-.02.015l-.61.457c0-.388.008-.756.024-1.114l-.004.002c.001-.046.008-.086.011-.131.009-.164.023-.322.038-.48.009-.088.016-.178.026-.264.03-.24.067-.473.119-.694.137-.59.452-1.058.478-1.489-.749.33-1.454.697-2.091 1.137a4.49 4.49 0 00-.233.429c-.023.049-.044.1-.066.15-.047.11-.094.222-.133.337a5.712 5.712 0 00-.18.565l-.039.138c-.047.183-.089.37-.127.564-.007.038-.013.078-.022.117a13.648 13.648 0 00-.106.672c-.021.15-.04.303-.057.456l-.018.17a25.98 25.98 0 00-.099 1.32c-.213.166-.429.33-.648.492a28.351 28.351 0 01.048-1.445c.018-.276.043-.545.071-.804l.014-.12a12.308 12.308 0 01.127-.815c.044-.224.097-.438.156-.643a5.176 5.176 0 01.271-.767c-.556.593-1.543.991-2.022 1.94-.051.1-.096.21-.135.327a4.048 4.048 0 00-.11.373l-.04.17c-.018.082-.032.165-.047.25a10.866 10.866 0 00-.073.506c-.003.034-.009.066-.012.1-.015.16-.028.32-.038.48 0 .01 0 .02-.002.028-.008.156-.014.313-.019.47v.05c-.007.33-.007.655.002.964a3.6 3.6 0 01-.594.198 27.881 27.881 0 01-.003-.646h-.001l.001-.036c0-.102.003-.203.006-.303a15.196 15.196 0 01.019-.701c.008-.162.018-.318.031-.472.004-.067.008-.134.016-.197a8.21 8.21 0 01.082-.622c-.676.65-1.184 1.461-1.708 2.183l-.108.16a1.658 1.658 0 01-.065.093c-.009.012-.017.026-.026.037l-.002-.002c-.113.147-.253.276-.443.283a1.072 1.072 0 01-.12-.102c-.065-.214-.012-.42.088-.621z" fill="#892"/><path opacity=".2" d="M139.185 59.648l-.007-.007c.158-.3.432-.583.61-.83.366-.508.767-.971.973-1.37a7.31 7.31 0 00-.526.052c-.034.001-.062.005-.097.008h.001a5.04 5.04 0 01-.456.032c.194-.229.396-.445.589-.645l.05-.001c.086-.006.168-.017.249-.028.155-.021.302-.048.443-.07a2.34 2.34 0 01.358-.037c.788-.778 1.736-1.703 2.387-2.379-.233-.04-.527.055-.804.072-.178.011-.378.022-.585.03.189-.23.378-.457.572-.682.353 0 .704-.016 1.029-.051l.047-.007c.132-.015.256-.033.377-.056.031-.006.064-.012.095-.02.134-.028.26-.06.374-.101.424-.153.813-.525 1.229-.757.485-.269.957-.435 1.354-.697a3.757 3.757 0 01-.501-.142c-.057-.018-.111-.044-.166-.065-.103-.04-.206-.079-.306-.125-.077-.037-.15-.078-.226-.117-.072-.036-.145-.072-.214-.11-.108-.06-.21-.121-.313-.181l-.08-.049h.001l-.062-.035c.193-.134.391-.257.595-.376.092.054.192.103.288.155.084.043.169.086.255.128.054.026.111.051.165.076a5.195 5.195 0 00.495.199c.071.026.145.054.217.077.155.048.31.092.465.128.834.18 1.601-.151 2.473-.276-.383-.135-.676-.437-.999-.67-.071-.054-.161-.1-.249-.15a1.942 1.942 0 01-.331-.219v-.001a.628.628 0 01-.211-.331 7.84 7.84 0 01.722-.065 11.009 11.009 0 00.591.443c.046.03.094.064.141.094.08.056.159.109.239.161.057.037.112.075.166.108.039.026.076.047.114.07a5.493 5.493 0 00.28.167c.066.038.129.075.193.108l.081.044c.07.036.137.069.203.099l.058.03c.084.037.164.07.239.1.178.062.352.11.523.15l.063.016c.142.032.283.057.421.083.433.075.844.13 1.226.28 3.869 1.514 4.035 6.892 4.459 11.46.075.81.08 1.49.09 2.474.006.655.124 1.72-.416 1.614-.416-.083-.265-1.614-.268-1.977-.011-.903.011-1.584-.025-2.227-.181-3.186-.617-7.446-2.148-9.32-.493-.605-.992-.972-1.652-1.251a6.467 6.467 0 00-.742-.26l-.138-.038a18.744 18.744 0 00-.826-.208 2.228 2.228 0 00-.266.19c-.029.022-.055.046-.083.071-.055.05-.108.1-.159.155-.026.028-.052.055-.076.083a2.74 2.74 0 00-.152.197c-.015.021-.031.04-.045.063a3.93 3.93 0 00-.351.646 7.708 7.708 0 00-.374 1.126l-.075.023a9.383 9.383 0 00-.694.267c.076-.267.157-.53.243-.784h-.003l.059-.157c.043-.122.087-.24.132-.358l.079-.196c.057-.132.114-.259.172-.382.014-.03.028-.066.043-.095.074-.152.152-.291.233-.425l.064-.103c.083-.132.17-.26.261-.37a8.24 8.24 0 00-2.718.34 2.75 2.75 0 00-.219.322l-.056.102a3.62 3.62 0 00-.19.404 4.624 4.624 0 00-.123.332l-.034.101a8.06 8.06 0 00-.234.973l-.027.156a14 14 0 00-.053.357l-.027.2c-.041.354-.07.713-.086 1.07a.143.143 0 00-.02.015l-.61.457c0-.388.008-.756.024-1.114l-.004.002c.001-.046.008-.086.011-.131.009-.164.023-.322.038-.48.009-.088.016-.178.026-.264.03-.24.067-.473.119-.694.137-.59.452-1.058.478-1.489-.749.33-1.454.697-2.091 1.137a4.49 4.49 0 00-.233.429c-.023.049-.044.1-.066.15-.047.11-.094.222-.133.337a5.712 5.712 0 00-.18.565l-.039.138c-.047.183-.089.37-.127.564-.007.038-.013.078-.022.117a13.648 13.648 0 00-.106.672c-.021.15-.04.303-.057.456l-.018.17a25.98 25.98 0 00-.099 1.32c-.213.166-.429.33-.648.492a28.351 28.351 0 01.048-1.445c.018-.276.043-.545.071-.804l.014-.12a12.308 12.308 0 01.127-.815c.044-.224.097-.438.156-.643a5.176 5.176 0 01.271-.767c-.556.593-1.543.991-2.022 1.94-.051.1-.096.21-.135.327a4.048 4.048 0 00-.11.373l-.04.17c-.018.082-.032.165-.047.25a10.866 10.866 0 00-.073.506c-.003.034-.009.066-.012.1-.015.16-.028.32-.038.48 0 .01 0 .02-.002.028-.008.156-.014.313-.019.47v.05c-.007.33-.007.655.002.964a3.6 3.6 0 01-.594.198 27.881 27.881 0 01-.003-.646h-.001l.001-.036c0-.102.003-.203.006-.303a15.196 15.196 0 01.019-.701c.008-.162.018-.318.031-.472.004-.067.008-.134.016-.197a8.21 8.21 0 01.082-.622c-.676.65-1.184 1.461-1.708 2.183l-.108.16a1.658 1.658 0 01-.065.093c-.009.012-.017.026-.026.037l-.002-.002c-.113.147-.253.276-.443.283a1.072 1.072 0 01-.12-.102c-.065-.214-.012-.42.088-.621z" fill="#000"/><path fill-rule="evenodd" clip-rule="evenodd" d="M172.545 26.253c.662-.06 1.699.22 2.03 1.138.321.888-.112 2.19-.406 3.15-.309 1.004-.768 1.96-1.022 2.772-.925 2.973-1.583 5.856-2.694 8.631-.744 1.857-1.427 3.369-2.532 5.046-.476.724-1.199 1.73-2.059 1.647-.937-.093-1.336-1.534-1.391-2.8-.088-1.954.432-4.163.807-5.93.412-1.938.925-3.606 1.48-5.243.491-1.44 1.194-3.295 1.973-4.74.812-1.51 2.009-3.5 3.814-3.67z" fill="#892"/><path d="M172.91 30.491a26.788 26.788 0 00-1.098.518c.137-.34.281-.681.427-1.022.07-.165.144-.328.217-.492.073-.168.145-.338.222-.505.128-.288.258-.573.389-.856l.041-.086c.146-.317.292-.63.437-.936l.107-.228c.051-.106.123-.22.195-.338a2.171 2.171 0 00-.583-.232c-.144.292-.286.588-.428.881h-.002c-.104.218-.211.43-.318.64-.034.068-.067.135-.103.201-.125.239-.253.47-.39.685a2.724 2.724 0 00-.036-.35c-.004-.027-.007-.054-.013-.082a3.943 3.943 0 00-.082-.352c-.006-.025-.015-.051-.023-.078a4.994 4.994 0 00-.104-.31l-.029-.088a11.386 11.386 0 00-.158-.397h-.002a17.247 17.247 0 00-.188-.426c-.182.107-.358.23-.525.368.043.094.085.187.124.283.072.182.135.376.195.57.024.076.046.152.069.23.055.206.11.414.154.627.098.473.324 1.061-.018 1.546a9.556 9.556 0 00-.229-.587l-.083-.185a15.36 15.36 0 00-.345-.702c-.047-.089-.093-.18-.142-.267l-.002.002c-.146-.27-.297-.534-.446-.79a8.23 8.23 0 00-.435.57c.091.175.181.35.274.52.033.057.067.117.099.177l.112.193.06.105c.035.065.072.127.107.191.026.048.053.096.078.146.028.05.055.103.081.154.03.054.056.11.082.164a4.637 4.637 0 01.192.456c.022.064.04.128.059.194.011.04.024.08.035.123.016.073.028.145.037.219.004.035.013.067.016.102.01.106.011.214.005.322-.029.374-.296.791-.448 1.171-.151.382-.282.77-.508 1.108-.201-1.02-.632-1.949-1.082-2.796l-.329-.629a21.7 21.7 0 00-.374.763 33.234 33.234 0 01.529.98l.092.179a13.448 13.448 0 01.286.606c.034.076.067.157.096.235a4.048 4.048 0 01.155.432c.019.062.04.122.058.185.022.084.041.17.059.254.012.057.027.117.037.176.016.094.023.186.03.279.005.05.013.1.015.148.003.143 0 .284-.019.421-.046.36-.303.755-.445 1.108-.154.39-.251.786-.506 1.11a6.162 6.162 0 00-.225-.483l-.063-.12a8.555 8.555 0 00-.239-.415l-.022-.036c-.368-.594-.797-1.154-1.174-1.692l-.108.31-.163.496c.154.211.31.422.46.623l.127.168a.604.604 0 01.04.051l.148.196c.022.028.045.06.066.09l.125.173.076.111c.039.057.079.114.118.175a5.284 5.284 0 01.334.601c.019.04.039.082.055.12.026.065.045.128.061.188a1.003 1.003 0 01.064.366c-.003.168-.169.446-.255.679-.293.771-.52 1.426-.829 2.093a5.38 5.38 0 00-.324-.562c-.045-.068-.096-.133-.143-.199-.081-.112-.159-.226-.244-.335l-.185-.223c-.08-.096-.159-.192-.243-.286-.082-.095-.164-.185-.246-.276-.031-.036-.063-.074-.095-.108v.002l-.136-.152c-.059.239-.114.487-.169.733.115.133.226.265.338.398l.145.177c.088.109.172.222.255.334.049.064.099.13.147.197.084.121.16.247.238.374.036.06.077.12.112.184.107.191.206.393.293.607-.326.81-.53 1.75-.892 2.526-.236-.447-.586-.795-.917-1.185-.12-.144-.233-.334-.362-.517-.048.273-.091.546-.129.82.041.042.08.083.116.125l.126.151.063.077c.035.04.068.081.102.123l.027.035c.043.053.085.108.127.165.01.011.02.027.03.041.04.053.076.108.115.162l.034.054a4.647 4.647 0 01.132.22c.026.05.05.1.074.15l.032.07c.02.052.038.103.052.154a1.172 1.172 0 01.057.28c.023.374-.26.992-.452 1.665-1.099 3.814-2.001 8.244-2.243 12.598-.146 2.59-.112 5.126-.084 7.547.008.604-.363 1.294.417 1.429.395-.258.276-.84.26-1.236-.058-1.675-.087-4.087.003-5.692.256-4.658.827-9.069 1.837-12.936.057-.218.116-.434.176-.65.122-.439.245-.877.38-1.3a5.43 5.43 0 01.465-.4l.108-.082a7.74 7.74 0 011.128-.681l.041-.023c.212-.103.427-.204.649-.298.27-.115.548-.227.83-.333.149-.297.291-.597.43-.901-.213.075-.418.147-.59.214-.266.107-.522.22-.766.338v-.001c-.236.113-.457.228-.674.342-.042.023-.083.043-.124.066-.2.107-.393.21-.575.309-.187.1-.368.195-.537.279.252-1.01.52-1.549 1.138-2.153a9.07 9.07 0 01.658-.576c.089-.074.183-.142.276-.213.728-.55 1.535-1.03 2.365-1.473.113-.312.22-.626.326-.941-.344.171-.68.349-1.009.53v-.002c-.044.023-.085.048-.128.073-.171.096-.34.192-.504.292l-.236.141c-.237.148-.466.298-.678.449-.437.31-.783.685-1.248.914.233-.68.504-1.325.765-2.033.188-.508.411-1.657.764-2.034.238-.251.961-.498 1.433-.664.264-.093.518-.173.769-.248.076-.023.151-.046.224-.066.241-.07.481-.138.717-.201.073-.248.144-.497.214-.747l-.547.173h-.001c-.022.006-.041.014-.062.02a45.127 45.127 0 00-1.35.461c-.369.132-.731.268-1.077.411.212-.433.367-.92.574-1.357a6.7 6.7 0 01.554-.244 11.129 11.129 0 01.591-.217c.169-.055.339-.109.512-.16.378-.111.764-.214 1.157-.313l.212-.73-.102.026c-.665.185-1.335.401-1.94.564a11.322 11.322 0 01-.603.15c.398-1.114.878-2.146 1.273-3.264.192-.113.393-.223.598-.33.101-.051.207-.1.31-.149.104-.05.209-.102.315-.151l.449-.2c.057-.023.113-.05.172-.073.194-.083.389-.165.585-.245v-.001c.088-.035.175-.073.264-.11.015-.044.033-.087.045-.133.066-.214.137-.446.208-.685-.5.216-.989.425-1.466.637z" fill="#892"/><path opacity=".2" d="M172.91 30.491a26.788 26.788 0 00-1.098.518c.137-.34.281-.681.427-1.022.07-.165.144-.328.217-.492.073-.168.145-.338.222-.505.128-.288.258-.573.389-.856l.041-.086c.146-.317.292-.63.437-.936l.107-.228c.051-.106.123-.22.195-.338a2.171 2.171 0 00-.583-.232c-.144.292-.286.588-.428.881h-.002c-.104.218-.211.43-.318.64-.034.068-.067.135-.103.201-.125.239-.253.47-.39.685a2.724 2.724 0 00-.036-.35c-.004-.027-.007-.054-.013-.082a3.943 3.943 0 00-.082-.352c-.006-.025-.015-.051-.023-.078a4.994 4.994 0 00-.104-.31l-.029-.088a11.386 11.386 0 00-.158-.397h-.002a17.247 17.247 0 00-.188-.426c-.182.107-.358.23-.525.368.043.094.085.187.124.283.072.182.135.376.195.57.024.076.046.152.069.23.055.206.11.414.154.627.098.473.324 1.061-.018 1.546a9.556 9.556 0 00-.229-.587l-.083-.185a15.36 15.36 0 00-.345-.702c-.047-.089-.093-.18-.142-.267l-.002.002c-.146-.27-.297-.534-.446-.79a8.23 8.23 0 00-.435.57c.091.175.181.35.274.52.033.057.067.117.099.177l.112.193.06.105c.035.065.072.127.107.191.026.048.053.096.078.146.028.05.055.103.081.154.03.054.056.11.082.164a4.637 4.637 0 01.192.456c.022.064.04.128.059.194.011.04.024.08.035.123.016.073.028.145.037.219.004.035.013.067.016.102.01.106.011.214.005.322-.029.374-.296.791-.448 1.171-.151.382-.282.77-.508 1.108-.201-1.02-.632-1.949-1.082-2.796l-.329-.629a21.7 21.7 0 00-.374.763 33.234 33.234 0 01.529.98l.092.179a13.448 13.448 0 01.286.606c.034.076.067.157.096.235a4.048 4.048 0 01.155.432c.019.062.04.122.058.185.022.084.041.17.059.254.012.057.027.117.037.176.016.094.023.186.03.279.005.05.013.1.015.148.003.143 0 .284-.019.421-.046.36-.303.755-.445 1.108-.154.39-.251.786-.506 1.11a6.162 6.162 0 00-.225-.483l-.063-.12a8.555 8.555 0 00-.239-.415l-.022-.036c-.368-.594-.797-1.154-1.174-1.692l-.108.31-.163.496c.154.211.31.422.46.623l.127.168a.604.604 0 01.04.051l.148.196c.022.028.045.06.066.09l.125.173.076.111c.039.057.079.114.118.175a5.284 5.284 0 01.334.601c.019.04.039.082.055.12.026.065.045.128.061.188a1.003 1.003 0 01.064.366c-.003.168-.169.446-.255.679-.293.771-.52 1.426-.829 2.093a5.38 5.38 0 00-.324-.562c-.045-.068-.096-.133-.143-.199-.081-.112-.159-.226-.244-.335l-.185-.223c-.08-.096-.159-.192-.243-.286-.082-.095-.164-.185-.246-.276-.031-.036-.063-.074-.095-.108v.002l-.136-.152c-.059.239-.114.487-.169.733.115.133.226.265.338.398l.145.177c.088.109.172.222.255.334.049.064.099.13.147.197.084.121.16.247.238.374.036.06.077.12.112.184.107.191.206.393.293.607-.326.81-.53 1.75-.892 2.526-.236-.447-.586-.795-.917-1.185-.12-.144-.233-.334-.362-.517-.048.273-.091.546-.129.82.041.042.08.083.116.125l.126.151.063.077c.035.04.068.081.102.123l.027.035c.043.053.085.108.127.165.01.011.02.027.03.041.04.053.076.108.115.162l.034.054a4.647 4.647 0 01.132.22c.026.05.05.1.074.15l.032.07c.02.052.038.103.052.154a1.172 1.172 0 01.057.28c.023.374-.26.992-.452 1.665-1.099 3.814-2.001 8.244-2.243 12.598-.146 2.59-.112 5.126-.084 7.547.008.604-.363 1.294.417 1.429.395-.258.276-.84.26-1.236-.058-1.675-.087-4.087.003-5.692.256-4.658.827-9.069 1.837-12.936.057-.218.116-.434.176-.65.122-.439.245-.877.38-1.3a5.43 5.43 0 01.465-.4l.108-.082a7.74 7.74 0 011.128-.681l.041-.023c.212-.103.427-.204.649-.298.27-.115.548-.227.83-.333.149-.297.291-.597.43-.901-.213.075-.418.147-.59.214-.266.107-.522.22-.766.338v-.001c-.236.113-.457.228-.674.342-.042.023-.083.043-.124.066-.2.107-.393.21-.575.309-.187.1-.368.195-.537.279.252-1.01.52-1.549 1.138-2.153a9.07 9.07 0 01.658-.576c.089-.074.183-.142.276-.213.728-.55 1.535-1.03 2.365-1.473.113-.312.22-.626.326-.941-.344.171-.68.349-1.009.53v-.002c-.044.023-.085.048-.128.073-.171.096-.34.192-.504.292l-.236.141c-.237.148-.466.298-.678.449-.437.31-.783.685-1.248.914.233-.68.504-1.325.765-2.033.188-.508.411-1.657.764-2.034.238-.251.961-.498 1.433-.664.264-.093.518-.173.769-.248.076-.023.151-.046.224-.066.241-.07.481-.138.717-.201.073-.248.144-.497.214-.747l-.547.173h-.001c-.022.006-.041.014-.062.02a45.127 45.127 0 00-1.35.461c-.369.132-.731.268-1.077.411.212-.433.367-.92.574-1.357a6.7 6.7 0 01.554-.244 11.129 11.129 0 01.591-.217c.169-.055.339-.109.512-.16.378-.111.764-.214 1.157-.313l.212-.73-.102.026c-.665.185-1.335.401-1.94.564a11.322 11.322 0 01-.603.15c.398-1.114.878-2.146 1.273-3.264.192-.113.393-.223.598-.33.101-.051.207-.1.31-.149.104-.05.209-.102.315-.151l.449-.2c.057-.023.113-.05.172-.073.194-.083.389-.165.585-.245v-.001c.088-.035.175-.073.264-.11.015-.044.033-.087.045-.133.066-.214.137-.446.208-.685-.5.216-.989.425-1.466.637z" fill="#000"/><path d="M161.116 41.223c-.264.345-.697.98-.759 1.352-.071.46.214.969.109 1.548.585-1.12 1.451-2.045 2.35-2.96-.006-.214-.015-.416-.022-.603-.014-.332-.037-.657-.056-.984-.561.493-1.139 1.016-1.622 1.647zm-.407 9.027c.573-.607 1.248-1.506 1.978-2.24l.031-.337c.027-.358.05-.726.068-1.095l-.058.044c-.937.75-2.339 1.78-2.019 3.628zm-3.536-4.927c1.078 1.104 2.154 2.443 2.801 3.992-.029-.808.148-1.702.026-2.413-.102-.612-.597-1.2-.97-1.744-.892-1.304-1.869-2.25-2.934-3.369.054.918.121 1.86.22 2.787.341.16.628.514.857.747zm-.737.26c.275 2.065.74 3.987 1.603 5.32.516.793 1.218 1.542 2.018 1.674-.011-.89-.094-1.716-.34-2.4-.678-1.88-2.011-3.25-3.281-4.594zm4.135.149c-.062.57.129 1.251.101 1.98a16.64 16.64 0 011.689-1.65c.137-.114.297-.27.462-.357.043-1.308.039-2.605.015-3.705a10.06 10.06 0 00-1.569 2.131c-.279.5-.642 1.06-.698 1.6zm.122 5.82c-.071.315-.044.66-.026 1.005 1.159-.263 1.65-1.725 1.893-3.44-.402.403-.794.822-1.175 1.327-.25.333-.612.749-.692 1.108zm-3.912-10.005c1.083 1.105 2.264 2.316 3.116 3.683-.143-1.367-.051-2.502-.333-3.467-.261-.893-.861-1.7-1.397-2.365-.69-.862-1.547-1.625-2.419-2.373.113 1.332.222 2.592.288 3.731.299.187.523.563.745.79z" fill="#fff"/><path fill-rule="evenodd" clip-rule="evenodd" d="M157.269 25.59c1.497-.117 2.799 1.534 3.372 2.697.819 1.659 1.12 3.615 1.482 5.77a51.4 51.4 0 01.672 6.502c.069 1.716.122 4.587-.078 7.115-.194 2.417-.624 4.84-2.346 4.925-.929.043-1.749-.8-2.332-1.697-1.506-2.324-1.801-6.447-1.994-9.983-.17-3.178-.721-7.377-.677-11.267.022-2.087.072-3.922 1.901-4.062z" fill="#892"/><path d="M161.328 47.016a9.484 9.484 0 00-.227.232l-.036.038-.177.188-.035.038c-.065.07-.125.138-.18.2.027-.73-.163-1.41-.102-1.98.056-.542.419-1.101.699-1.6.115-.209.232-.406.351-.59.04-.061.08-.116.119-.175.08-.118.159-.236.241-.347.055-.076.112-.146.169-.218.067-.085.133-.17.202-.253.069-.082.14-.162.211-.244.091-.101.18-.204.275-.305-.005-.295-.014-.577-.022-.839-.179.182-.354.365-.527.547h-.001c-.022.022-.042.045-.063.069-.141.149-.28.3-.415.453l-.097.115c-.125.143-.245.29-.363.438-.026.034-.055.067-.08.102a8.54 8.54 0 00-.382.533c-.026.038-.05.077-.075.116a7.888 7.888 0 00-.348.589c.105-.58-.18-1.088-.108-1.548.062-.372.494-1.007.759-1.352a7.787 7.787 0 01.563-.648 17 17 0 011.059-.999c-.013-.247-.026-.496-.043-.74a25.997 25.997 0 00-1.474 1.356c-.097.1-.193.2-.283.302l-.099.111a7.038 7.038 0 00-.225.278c-.032.039-.064.078-.093.117-.098.13-.19.263-.273.397.074-1.111-.496-2.031-.339-2.91.076-.424.51-.816.818-1.226.13-.176.257-.339.383-.498.018-.024.039-.047.057-.072.118-.146.232-.287.346-.423.008-.007.014-.016.019-.022.26-.306.518-.595.79-.886a51.833 51.833 0 00-.124-.811l-.426.464v-.002l-.076.082c-.096.106-.19.213-.288.32-.123.137-.246.274-.367.413a24 24 0 00-.261.3c-.13.152-.251.304-.377.457-.068.086-.14.17-.208.257a12.56 12.56 0 00-.523.718c-.143-1.105-.392-2.106-.584-3.165.127-.227.265-.445.412-.66l.066-.094c.145-.21.3-.413.458-.61l.047-.057c.342-.419.706-.815 1.071-1.2h-.001c.158-.168.318-.334.475-.498a21.74 21.74 0 00-.18-.756c-.244.248-.484.496-.72.745l-.002-.002-.092.101a24.39 24.39 0 00-.274.297l-.167.181c-.154.172-.306.346-.451.52-.315.378-.519.826-.879 1.104-.003-.607-.354-1.058-.292-1.55.048-.366.479-.858.755-1.228.264-.35.523-.657.783-.94v-.002c.268-.295.539-.568.815-.85a9.628 9.628 0 00-.287-.638c-.212.218-.41.435-.605.651 0-.001-.003-.003-.003-.006-.03.035-.059.072-.091.106l-.15.172a17.4 17.4 0 00-.637.762c-.291.37-.579.74-.879 1.042-.111-.788-.356-1.446-.533-2.172a12.435 12.435 0 01.619-.926c.114-.156.23-.31.348-.462.232-.294.47-.583.714-.86a4.395 4.395 0 00-.493-.421c-.167.189-.33.378-.489.567l-.001-.003c-.105.128-.208.253-.308.378-.227.287-.348.693-.689.858-.093-.487-.281-.983-.479-1.428-.102-.224-.189-.531-.336-.77a1.53 1.53 0 00-.546.385l.079.191c.05.13.104.263.16.397l.029.073c.079.183.156.373.235.562a15.471 15.471 0 01.247.637c.068.184.13.37.186.56l.024.086c.055.2.104.401.139.604-.516-.344-1.081-.757-1.652-1.142v.002a2.635 2.635 0 00-.087-.059c-.02.239-.035.487-.043.744.077.047.152.099.228.149a12.471 12.471 0 01.869.608c.363.285.812.548.982.878.272.536.186 1.182.474 1.861-.246-.21-.518-.444-.795-.684l-.31-.263c-.083-.07-.163-.138-.247-.206a44.753 44.753 0 00-.61-.493l-.168-.135-.001.007c-.146-.112-.292-.227-.435-.327 0 .285-.001.571.005.859l.349.251c.183.134.366.27.548.416.691.558 1.618 1.118 1.958 1.939.366.88.309 1.974.645 3.1a8.051 8.051 0 00-.31-.377c-.041-.048-.087-.096-.13-.144-.066-.073-.132-.15-.202-.224-.062-.067-.129-.132-.193-.198-.052-.053-.102-.107-.156-.16-.076-.076-.155-.15-.234-.226l-.13-.124a10.976 10.976 0 00-.254-.23c-.041-.039-.079-.077-.122-.111a26.579 26.579 0 00-.389-.34c-.062-.055-.124-.106-.185-.158-.08-.067-.158-.134-.237-.198a.845.845 0 00-.036-.03l-.256-.213.001.002-.104-.086c-.144-.115-.291-.277-.454-.402.019.312.038.62.059.93l.661.544a20.762 20.762 0 011.137.992 6.215 6.215 0 01.282.279c.068.07.136.14.2.212l.067.074c.064.072.126.144.188.217l.048.06c.113.142.221.285.321.435.028.04.055.076.081.115.037.058.071.117.106.177.035.057.07.115.102.174.033.058.061.116.089.174a3.478 3.478 0 01.172.375c.031.072.059.146.085.221.022.057.042.116.061.176.026.081.049.166.072.25.016.058.033.114.044.173.024.097.042.197.059.297l.028.153a6.4 6.4 0 01.05.477 9.632 9.632 0 00-.347-.506c-.049-.068-.105-.134-.156-.2a9.016 9.016 0 00-.229-.296c-.069-.083-.141-.166-.212-.25a20.37 20.37 0 00-.199-.233c-.085-.094-.172-.187-.258-.28l-.175-.19-.298-.302-.15-.15c-.109-.11-.221-.215-.331-.32a25.967 25.967 0 00-.475-.443c-.035-.034-.071-.066-.107-.099a18.524 18.524 0 00-.345-.31c-.019-.019-.04-.037-.06-.055v.001l-.203-.18a8.105 8.105 0 01-.186-.174l.082.983c.167.142.329.284.492.428.056.05.114.099.17.15.111.1.219.202.33.303.099.091.201.183.299.276.111.106.215.215.321.323.089.092.181.178.267.27.189.203.37.41.541.623.536.666 1.135 1.472 1.397 2.364.282.965.19 2.1.332 3.467a11.477 11.477 0 00-.317-.48c-.068-.098-.141-.194-.21-.29-.044-.058-.086-.119-.131-.178-.081-.107-.165-.212-.249-.317a3.657 3.657 0 00-.112-.139c-.088-.109-.179-.214-.27-.322-.033-.041-.069-.081-.102-.12a26.952 26.952 0 00-.388-.438c-.095-.104-.193-.207-.288-.31-.037-.039-.073-.078-.109-.114-.093-.101-.187-.2-.282-.297a4.605 4.605 0 00-.135-.142l-.237-.243c-.022-.023-.045-.048-.068-.07l-.217-.223c-.222-.228-.446-.603-.746-.79.003.052.009.11.01.163l.051.87c.395.414.778.805 1.147 1.199v.002c.156.165.309.332.461.5l.016.017a19.485 19.485 0 01.491.57 19.462 19.462 0 01.425.535c.133.176.265.357.394.546.373.544.869 1.132.971 1.744.121.711-.056 1.605-.027 2.413-.647-1.55-1.723-2.888-2.801-3.992-.058-.06-.12-.127-.187-.2l-.001.001c-.192-.203-.414-.43-.668-.549.035.34.074.675.119 1.007l.206.218v.002l.378.4.157.172c.1.107.197.215.295.322.063.07.126.143.187.214.087.1.174.198.259.3a24.217 24.217 0 01.429.533c.068.09.132.18.197.272.069.096.14.19.204.288.069.1.132.206.197.31.058.092.117.183.171.277.071.125.136.255.202.384.04.08.085.158.124.24.102.213.195.436.276.663.056.157.101.32.141.49.011.044.019.088.029.133.03.144.057.291.077.442l.014.09c.05.391.073.807.078 1.237.021 1.724-.233 3.69-.115 5.346.011.146.05.276.058.435.094 2.912.394 5.637.587 8.234a11.308 11.308 0 00-.556-1.533c.035.277.062.556.082.837.024.384-.022.722-.123 1.018.278.724.634 1.38 1.019.797.29.066.312-.14.436-.243-.577-4.11-1.027-9.668-.77-14.364.02-.374-.031-.76-.026-1.126l.004-.081a2.08 2.08 0 01.04-.338c.08-.36.443-.775.693-1.108.133-.176.268-.338.404-.497l.081-.095a15.254 15.254 0 01.69-.734c.052-.361.092-.732.126-1.107-.513.515-.998 1.111-1.44 1.631-.059.068-.116.136-.173.2l-.106.123c-.089.1-.177.195-.259.285a3.072 3.072 0 01-.042-.38l-.001-.12a2.81 2.81 0 01.007-.244l.014-.123a1.87 1.87 0 01.04-.228c.007-.034.013-.07.022-.104a2.46 2.46 0 01.091-.287c.001-.007.004-.014.007-.022.038-.097.084-.193.131-.285.016-.031.034-.06.051-.09.036-.061.069-.122.108-.18l.068-.1c.037-.052.076-.103.115-.154.026-.031.051-.065.076-.096.04-.049.081-.094.123-.14.383-.426.833-.773 1.209-1.074l.059-.044c.015-.29.029-.58.038-.873-.165.086-.325.242-.461.356a14.56 14.56 0 00-1.037.954z" fill="#892"/><path opacity=".2" d="M161.328 47.016a9.484 9.484 0 00-.227.232l-.036.038-.177.188-.035.038c-.065.07-.125.138-.18.2.027-.73-.163-1.41-.102-1.98.056-.542.419-1.101.699-1.6.115-.209.232-.406.351-.59.04-.061.08-.116.119-.175.08-.118.159-.236.241-.347.055-.076.112-.146.169-.218.067-.085.133-.17.202-.253.069-.082.14-.162.211-.244.091-.101.18-.204.275-.305-.005-.295-.014-.577-.022-.839-.179.182-.354.365-.527.547h-.001c-.022.022-.042.045-.063.069-.141.149-.28.3-.415.453l-.097.115c-.125.143-.245.29-.363.438-.026.034-.055.067-.08.102a8.54 8.54 0 00-.382.533c-.026.038-.05.077-.075.116a7.888 7.888 0 00-.348.589c.105-.58-.18-1.088-.108-1.548.062-.372.494-1.007.759-1.352a7.787 7.787 0 01.563-.648 17 17 0 011.059-.999c-.013-.247-.026-.496-.043-.74a25.997 25.997 0 00-1.474 1.356c-.097.1-.193.2-.283.302l-.099.111a7.038 7.038 0 00-.225.278c-.032.039-.064.078-.093.117-.098.13-.19.263-.273.397.074-1.111-.496-2.031-.339-2.91.076-.424.51-.816.818-1.226.13-.176.257-.339.383-.498.018-.024.039-.047.057-.072.118-.146.232-.287.346-.423.008-.007.014-.016.019-.022.26-.306.518-.595.79-.886a51.833 51.833 0 00-.124-.811l-.426.464v-.002l-.076.082c-.096.106-.19.213-.288.32-.123.137-.246.274-.367.413a24 24 0 00-.261.3c-.13.152-.251.304-.377.457-.068.086-.14.17-.208.257a12.56 12.56 0 00-.523.718c-.143-1.105-.392-2.106-.584-3.165.127-.227.265-.445.412-.66l.066-.094c.145-.21.3-.413.458-.61l.047-.057c.342-.419.706-.815 1.071-1.2h-.001c.158-.168.318-.334.475-.498a21.74 21.74 0 00-.18-.756c-.244.248-.484.496-.72.745l-.002-.002-.092.101a24.39 24.39 0 00-.274.297l-.167.181c-.154.172-.306.346-.451.52-.315.378-.519.826-.879 1.104-.003-.607-.354-1.058-.292-1.55.048-.366.479-.858.755-1.228.264-.35.523-.657.783-.94v-.002c.268-.295.539-.568.815-.85a9.628 9.628 0 00-.287-.638c-.212.218-.41.435-.605.651 0-.001-.003-.003-.003-.006-.03.035-.059.072-.091.106l-.15.172a17.4 17.4 0 00-.637.762c-.291.37-.579.74-.879 1.042-.111-.788-.356-1.446-.533-2.172a12.435 12.435 0 01.619-.926c.114-.156.23-.31.348-.462.232-.294.47-.583.714-.86a4.395 4.395 0 00-.493-.421c-.167.189-.33.378-.489.567l-.001-.003c-.105.128-.208.253-.308.378-.227.287-.348.693-.689.858-.093-.487-.281-.983-.479-1.428-.102-.224-.189-.531-.336-.77a1.53 1.53 0 00-.546.385l.079.191c.05.13.104.263.16.397l.029.073c.079.183.156.373.235.562a15.471 15.471 0 01.247.637c.068.184.13.37.186.56l.024.086c.055.2.104.401.139.604-.516-.344-1.081-.757-1.652-1.142v.002a2.635 2.635 0 00-.087-.059c-.02.239-.035.487-.043.744.077.047.152.099.228.149a12.471 12.471 0 01.869.608c.363.285.812.548.982.878.272.536.186 1.182.474 1.861-.246-.21-.518-.444-.795-.684l-.31-.263c-.083-.07-.163-.138-.247-.206a44.753 44.753 0 00-.61-.493l-.168-.135-.001.007c-.146-.112-.292-.227-.435-.327 0 .285-.001.571.005.859l.349.251c.183.134.366.27.548.416.691.558 1.618 1.118 1.958 1.939.366.88.309 1.974.645 3.1a8.051 8.051 0 00-.31-.377c-.041-.048-.087-.096-.13-.144-.066-.073-.132-.15-.202-.224-.062-.067-.129-.132-.193-.198-.052-.053-.102-.107-.156-.16-.076-.076-.155-.15-.234-.226l-.13-.124a10.976 10.976 0 00-.254-.23c-.041-.039-.079-.077-.122-.111a26.579 26.579 0 00-.389-.34c-.062-.055-.124-.106-.185-.158-.08-.067-.158-.134-.237-.198a.845.845 0 00-.036-.03l-.256-.213.001.002-.104-.086c-.144-.115-.291-.277-.454-.402.019.312.038.62.059.93l.661.544a20.762 20.762 0 011.137.992 6.215 6.215 0 01.282.279c.068.07.136.14.2.212l.067.074c.064.072.126.144.188.217l.048.06c.113.142.221.285.321.435.028.04.055.076.081.115.037.058.071.117.106.177.035.057.07.115.102.174.033.058.061.116.089.174a3.478 3.478 0 01.172.375c.031.072.059.146.085.221.022.057.042.116.061.176.026.081.049.166.072.25.016.058.033.114.044.173.024.097.042.197.059.297l.028.153a6.4 6.4 0 01.05.477 9.632 9.632 0 00-.347-.506c-.049-.068-.105-.134-.156-.2a9.016 9.016 0 00-.229-.296c-.069-.083-.141-.166-.212-.25a20.37 20.37 0 00-.199-.233c-.085-.094-.172-.187-.258-.28l-.175-.19-.298-.302-.15-.15c-.109-.11-.221-.215-.331-.32a25.967 25.967 0 00-.475-.443c-.035-.034-.071-.066-.107-.099a18.524 18.524 0 00-.345-.31c-.019-.019-.04-.037-.06-.055v.001l-.203-.18a8.105 8.105 0 01-.186-.174l.082.983c.167.142.329.284.492.428.056.05.114.099.17.15.111.1.219.202.33.303.099.091.201.183.299.276.111.106.215.215.321.323.089.092.181.178.267.27.189.203.37.41.541.623.536.666 1.135 1.472 1.397 2.364.282.965.19 2.1.332 3.467a11.477 11.477 0 00-.317-.48c-.068-.098-.141-.194-.21-.29-.044-.058-.086-.119-.131-.178-.081-.107-.165-.212-.249-.317a3.657 3.657 0 00-.112-.139c-.088-.109-.179-.214-.27-.322-.033-.041-.069-.081-.102-.12a26.952 26.952 0 00-.388-.438c-.095-.104-.193-.207-.288-.31-.037-.039-.073-.078-.109-.114-.093-.101-.187-.2-.282-.297a4.605 4.605 0 00-.135-.142l-.237-.243c-.022-.023-.045-.048-.068-.07l-.217-.223c-.222-.228-.446-.603-.746-.79.003.052.009.11.01.163l.051.87c.395.414.778.805 1.147 1.199v.002c.156.165.309.332.461.5l.016.017a19.485 19.485 0 01.491.57 19.462 19.462 0 01.425.535c.133.176.265.357.394.546.373.544.869 1.132.971 1.744.121.711-.056 1.605-.027 2.413-.647-1.55-1.723-2.888-2.801-3.992-.058-.06-.12-.127-.187-.2l-.001.001c-.192-.203-.414-.43-.668-.549.035.34.074.675.119 1.007l.206.218v.002l.378.4.157.172c.1.107.197.215.295.322.063.07.126.143.187.214.087.1.174.198.259.3a24.217 24.217 0 01.429.533c.068.09.132.18.197.272.069.096.14.19.204.288.069.1.132.206.197.31.058.092.117.183.171.277.071.125.136.255.202.384.04.08.085.158.124.24.102.213.195.436.276.663.056.157.101.32.141.49.011.044.019.088.029.133.03.144.057.291.077.442l.014.09c.05.391.073.807.078 1.237.021 1.724-.233 3.69-.115 5.346.011.146.05.276.058.435.094 2.912.394 5.637.587 8.234a11.308 11.308 0 00-.556-1.533c.035.277.062.556.082.837.024.384-.022.722-.123 1.018.278.724.634 1.38 1.019.797.29.066.312-.14.436-.243-.577-4.11-1.027-9.668-.77-14.364.02-.374-.031-.76-.026-1.126l.004-.081a2.08 2.08 0 01.04-.338c.08-.36.443-.775.693-1.108.133-.176.268-.338.404-.497l.081-.095a15.254 15.254 0 01.69-.734c.052-.361.092-.732.126-1.107-.513.515-.998 1.111-1.44 1.631-.059.068-.116.136-.173.2l-.106.123c-.089.1-.177.195-.259.285a3.072 3.072 0 01-.042-.38l-.001-.12a2.81 2.81 0 01.007-.244l.014-.123a1.87 1.87 0 01.04-.228c.007-.034.013-.07.022-.104a2.46 2.46 0 01.091-.287c.001-.007.004-.014.007-.022.038-.097.084-.193.131-.285.016-.031.034-.06.051-.09.036-.061.069-.122.108-.18l.068-.1c.037-.052.076-.103.115-.154.026-.031.051-.065.076-.096.04-.049.081-.094.123-.14.383-.426.833-.773 1.209-1.074l.059-.044c.015-.29.029-.58.038-.873-.165.086-.325.242-.461.356a14.56 14.56 0 00-1.037.954z" fill="#000"/><path fill-rule="evenodd" clip-rule="evenodd" d="M172.527 66.673c-.024-.715-.003-1.68-.447-1.93-.163-.09-.481-.125-.845-.138v-.004l-.241-.001h-.005l-16.077-.179v.002a6.87 6.87 0 00-.89.027c-.921.101-.88.83-.864 1.819.015.875-.111 1.887.398 2.21.421.267 1.5.204 1.5.204.269 3.298.662 6.665.966 10.05.09 1.002.102 2.725.574 3.148.449.401 11.928.569 12.384.185.304-.256.321-.772.39-1.45a986.36 986.36 0 011.303-11.807c.639-.027 1.132.04 1.458-.17.437-.285.418-1.292.396-1.966z" fill="#FF5000"/><path opacity=".2" fill-rule="evenodd" clip-rule="evenodd" d="M170.673 68.81l-15.531.893-.087-1.02 15.618.127z" fill="#000"/><path fill-rule="evenodd" clip-rule="evenodd" d="M167.585 75.079c-.378.603-.39 1.804-.334 2.984.025.504.08 1.322.534 1.351.545.035.632-.903.662-1.238.094-1.061-.008-2.364-.265-3.04-.12-.118-.419-.135-.597-.057zm-1.478 2.97c-1.111-.29-1.326 2.21-.373 2.186.412-.01.968-1.18.817-1.782-.056-.217-.252-.354-.444-.404z" fill="#fff"/><path fill-rule="evenodd" clip-rule="evenodd" d="M121.137 92.926c.483.482 1.217.574 1.813.814 1.75.71 3.633 1.498 5.501 2.263 2.43.995 4.858 2.112 7.376 2.898 5.11 1.596 10.068 3.65 14.764 5.879.686-.577.868-1.464 1.281-2.21.413-.739.882-1.454 1.283-2.211 2.342-4.418 5.164-8.73 7.423-13.317-4.306-2.138-9.104-3.434-13.883-4.955-2.347-.749-4.738-1.498-7.125-2.242-2.507-.78-4.979-1.548-7.541-2.108-3.69 5.016-7.393 10.023-10.892 15.189z" fill="#FF5000"/><path fill-rule="evenodd" clip-rule="evenodd" d="M122.959 92.367c3.479.535 6.522 1.929 9.282 3.785.758.511 1.528 1.464 2.168 1.63.767.201 1.668-.022 2.408.06 4.361.464 8.768 2.405 11.874 4.677.221.161.385.574.748.512 1.478-3.004 3.207-5.796 5.081-8.494 1.886-2.714 3.291-5.697 4.987-8.57-1.78-1.559-3.882-2.77-6.105-3.735-2.284-.989-4.893-1.438-8.19-1.084-.681-.556-1.24-1.13-1.914-1.659-.658-.522-1.295-.968-2.209-1.282-1.697-.58-4.011-.977-5.943-.924-.429.01-1.027.027-1.351.161-.437.175-1.069 1.225-1.503 1.807-2.767 3.709-5.419 7.426-8.107 11.169-.442.614-1.162 1.127-1.226 1.947z" fill="#fff"/><path fill-rule="evenodd" clip-rule="evenodd" d="M144.641 81.388c-.101-.002-.148.036-.161.104-2.682 3.829-5.119 7.981-7.669 11.975-.628.983-1.327 1.92-1.962 2.977-.182.302-.584.653-.303 1.066.469-.087.539-.626.746-.947 3.102-4.855 6.419-9.903 9.559-14.859.032-.237-.189-.148-.21-.316zm-14.02 3.294c.501.485 1.781.856 2.575.725-.57-.55-1.687-.903-2.575-.725zm-1.619 2.251c.128.609.943.56 1.37.694.966.303 1.858.684 2.792 1.128.402.188.958.592 1.414.344-.663-.685-1.704-1.042-2.654-1.399-.924-.345-1.941-.864-2.922-.767zm-2.391 2.257c-.074.502.574.432.831.5 2.239.595 4.325 1.447 6.366 2.332.288.125.666.332.972.228.174-.447-.464-.5-.674-.606-.866-.446-1.873-.877-2.895-1.286a26.937 26.937 0 00-4.273-1.294c-.131.024-.325-.002-.327.126z" fill="#4D3D87"/><path fill-rule="evenodd" clip-rule="evenodd" d="M125.691 90.841c.125.569.829.455 1.181.546 2.312.586 4.817 1.825 6.719 3.147.317.218.641.614 1.097.558-.08-.72-1.083-1.127-1.723-1.513-1.971-1.18-4.465-2.362-6.944-2.865-.182-.013-.219.086-.33.127z" fill="#fff"/><path fill-rule="evenodd" clip-rule="evenodd" d="M144.781 84.03c.285.537.982.43 1.434.515 2.957.565 6.058 1.756 8.441 3.2.359.216.68.737 1.181.547-.479-.745-1.415-1.196-2.251-1.62-1.659-.842-3.381-1.623-5.322-2.2-1.122-.33-2.386-.613-3.483-.442zm-2.16 2.744c.115.646.978.439 1.434.516 3.198.53 6.463 1.75 9.043 3.213.385.22.859.612 1.349.527-.018-.514-.691-.69-1.05-.906-2.803-1.668-6.726-2.883-10.362-3.487.035.007-.468-.016-.414.137zm-1.055 2.696c.398.492 1.103.324 1.595.41 3.115.56 6.201 2.078 8.659 3.606.422.258.846.645 1.371.695.062-.559-.597-.763-.976-1-2.109-1.31-4.241-2.36-6.985-3.201-1.066-.328-2.263-.81-3.176-.74-.123.01-.443-.027-.488.23zm-1.8 2.874c.408.487 1.072.264 1.581.326 3.1.37 6.052 1.64 8.507 3.022.362.203.861.582 1.329.355-.154-.5-.727-.578-1.125-.81-2.8-1.613-5.958-2.85-9.974-3.103-.196-.001-.317.057-.318.21zm-1.262 2.38c.138.52.991.33 1.51.42 2.979.53 5.779 1.691 8.018 3.253.365.254.801.593 1.275.619-.012-.47-.527-.826-.902-1.094-1.774-1.263-3.994-2.163-6.417-2.755-1.17-.286-2.314-.714-3.484-.443z" fill="#4D3D87"/><path fill-rule="evenodd" clip-rule="evenodd" d="M100.225 147.763c-3.24-1.12-6.91-3.13-9.915-3.661-1.172 3.298-1.875 6.386-2.799 9.965-.377 1.461-.872 3.157-1.219 5.015-.3 1.614-.76 4.075-.346 5.396.43 1.384 1.542 2.847 2.485 4.164 1.742 2.426 3.457 4.731 5.598 6.597.897.78 2.389 1.947 3.079 1.366 1.005-.842-.366-3.704-.916-5.21-.934-2.558-1.676-4.692-1.436-6.728.164-1.416.757-2.867 1.237-4.304 1.413-4.229 3.016-8.406 4.232-12.6z" fill="#F7C4AD"/><path d="M85.946 164.478c-.413-1.321.046-3.783.346-5.396.316-1.697.759-3.259 1.117-4.631l9.833 2.279a316 316 0 00-1.249 3.633c-.48 1.436-1.074 2.887-1.237 4.303-.24 2.037.502 4.17 1.436 6.728.55 1.506 1.922 4.368.916 5.21-.69.581-2.183-.586-3.079-1.365-2.141-1.866-3.856-4.172-5.597-6.598-.944-1.317-2.056-2.779-2.486-4.163z" fill="#892"/><path fill-rule="evenodd" clip-rule="evenodd" d="M90.446 168.414c.152-.327-.062-.609-.252-.879-.148-.209-.357-.458-.601-.457-.342.007-.324.552-.185.844.045.095.208.303.302.408.194.219.569.444.736.084zm-.576-2.894c.18-.437-.097-.773-.356-1.032-.335-.335-.852-.712-1.29-1.012-.537-.369-1.534-.678-1.705.103-.179.819 1.126 1.521 1.785 1.904.482.276 1.307.664 1.567.037z" fill="#fff"/><path fill-rule="evenodd" clip-rule="evenodd" d="M60.936 109.554c.33-.057.47.105.422.484 3.194-.684 13.88.557 17.413.684 3.4.124 6.885.167 10.127.605 6.389.867 14.054 2.266 16.774 7.265 2.845 5.234.854 13.373-.633 19.01-1.662 6.3-3.491 11.684-5.38 16.83-5.134-.282-9.394-1.569-13.292-3.268 1.683-7.15 3.418-14.239 5.591-20.827-4.928-.259-18.168-1.625-23.321-2.742-6.014-1.303-10.461-3.753-9.916-11.867.143-2.139 1.048-4.556 1.9-5.932a.733.733 0 01.315-.242z" fill="#FF5000"/><path fill-rule="evenodd" clip-rule="evenodd" d="M118.74 146.787c-3.345-.582-7.226-1.978-10.267-2.016-.754 3.455-1.069 6.626-1.544 10.32-.193 1.506-.475 3.265-.59 5.162-.099 1.647-.25 4.156.321 5.398.596 1.3 1.877 2.567 2.974 3.718 2.022 2.119 4.005 4.124 6.355 5.625.982.625 2.603 1.539 3.213.852.892-.998-.817-3.609-1.546-5.01-1.241-2.38-2.238-4.372-2.251-6.427-.012-1.43.397-2.961.695-4.461.879-4.416 1.951-8.811 2.64-13.161z" fill="#F7C4AD"/><path d="M106.66 165.651c-.571-1.242-.42-3.751-.321-5.398.105-1.732.35-3.35.537-4.767l10.015.661c-.27 1.265-.536 2.534-.79 3.801-.298 1.5-.708 3.031-.696 4.461.013 2.055 1.01 4.047 2.251 6.427.729 1.4 2.439 4.012 1.547 5.009-.611.688-2.232-.226-3.214-.851-2.35-1.501-4.333-3.506-6.355-5.625-1.097-1.151-2.378-2.419-2.974-3.718z" fill="#892"/><path fill-rule="evenodd" clip-rule="evenodd" d="M111.601 168.819c.111-.349-.137-.593-.359-.832-.171-.182-.408-.394-.648-.354-.338.064-.255.599-.081.866.057.085.243.268.348.355.22.186.62.346.74-.035zm-.927-2.772c.125-.463-.191-.751-.479-.964-.373-.276-.932-.567-1.403-.793-.577-.279-1.602-.422-1.676.379-.074.841 1.304 1.322 2.002 1.594.513.197 1.377.447 1.556-.216z" fill="#fff"/><path fill-rule="evenodd" clip-rule="evenodd" d="M87.5 110.602c.33-.057.47.105.422.483 3.194-.684 6.699-.489 10.234-.363 3.399.124 6.884.167 10.127.605 6.387.867 14.052 2.266 16.771 7.265 2.847 5.234.855 13.373-.632 19.01-1.66 6.3-3.491 11.684-5.38 16.83-5.134-.282-9.393-1.569-13.292-3.268 1.683-7.15 3.419-14.239 5.592-20.827-4.929-.259-10.986-.577-16.141-1.694-6.012-1.303-10.46-3.755-9.916-11.867.144-2.141 1.048-4.558 1.898-5.933a.761.761 0 01.317-.241z" fill="#FF5000"/><path opacity=".2" fill-rule="evenodd" clip-rule="evenodd" d="M111.341 130.338s1.903-4.126 1.432-4.532c-.66-.567-3.711 4.409-3.711 4.409l2.279.123z" fill="#000"/><path fill-rule="evenodd" clip-rule="evenodd" d="M120.984 119.917c.448-1.84 3.662 1.461 2.141 2.163-.793.369-1.857-1.294-2.141-2.163zm-.748-3.219c.155.364.3 1.204-.359 1.504-.86.395-2.326-.918-2.993-1.312-.812-.479-2.528-.96-2.57-2.14-.063-1.681 2.383-.497 3.209-.05.439.238.849.519 1.213.741.62.382 1.202.558 1.5 1.257z" fill="#fff"/><path fill-rule="evenodd" clip-rule="evenodd" d="M82.976 62.391s.42 5.97.308 6.445c-.255 1.027-2.305 1.88-4.66 1.865-1.348-.007-3.966-1.707-4.594-2.866-.309-1.419-1.04-7.242-1.19-7.611-.195-.493-.857-.957-1.3-1.406-1.456-1.46-2.91-3.454-2.992-6.793-.117-4.67 3.208-8.803 8.65-8.92 1.427-.029 3.366.44 4.687 1.163 1.877 1.027 2.741 3.465 3.437 5.857 1.49 5.096 2.954 11.146-2.346 12.266z" fill="#F7C4AD"/><path fill-rule="evenodd" clip-rule="evenodd" d="M79.43 50.806c.775.47 1.444.603 2 .558 1.188-.408 1.54-1.145 1.54-1.145s-.261-.244-1.26-.54a3.98 3.98 0 00-.428.023c-1.045.112-1.852 1.104-1.852 1.104z" fill="#fff"/><path fill-rule="evenodd" clip-rule="evenodd" d="M83.406 50.198s-.668 1.059-1.975 1.167c-.067-.087-.209-.258-.238-.365-.159-.482.07-1.01.517-1.318 1.124.006 1.696.516 1.696.516z" fill="#4D3D87"/><path d="M78.633 50.22l-.555-.358c1.186-1.875 3.531-2.303 4.817-2.015l-.15.65c-.826-.186-3.01-.02-4.112 1.722z" fill="#4D3D87"/><path fill-rule="evenodd" clip-rule="evenodd" d="M86.28 54.281c-1.433-.426-2.993-5.71-1.58-5.606.746.055 1.225 1.178 2.053 2.049.578.615 1.862 1.409 1.89 2.173.029.726-1.207 1.4-2.363 1.384z" fill="#F7C4AD"/><path opacity=".13" fill-rule="evenodd" clip-rule="evenodd" d="M86.28 54.281c-1.433-.426-2.993-5.71-1.58-5.606.746.055 1.225 1.178 2.053 2.049.578.615 1.862 1.409 1.89 2.173.029.726-1.207 1.4-2.363 1.384z" fill="#000"/><path opacity=".13" d="M78.554 54.25a1.704 1.704 0 002.014 1.332 1.705 1.705 0 001.335-2.012 1.711 1.711 0 00-2.012-1.336 1.712 1.712 0 00-1.337 2.017z" fill="#000"/><path fill-rule="evenodd" clip-rule="evenodd" d="M79.988 57.213c-.105 1.654 2.184 2.63 4.195 1.98.723-.238 1.834-1.039 1.773-1.889-.116-1.488-1.431-1.01-2.643-.854-1.176.152-3.235-.623-3.325.763z" fill="#fff"/><path opacity=".2" fill-rule="evenodd" clip-rule="evenodd" d="M82.976 62.391c-2.749.446-5.015-.766-5.015-.766s1.735 3.583 5.187 3.432l-.172-2.666z" fill="#000"/><path fill-rule="evenodd" clip-rule="evenodd" d="M80.529 42.98c1.112-.636 4.376-1.91 4.24-2.914-.26-2-5.724.103-8.624.936-2.722.784-5.82 1.572-7.749 3.025-1.487 1.124-2.779 3.566-2.737 6.103.05 3.116 3.297 9.731 5.876 10.915.946.435 2.175.96 2.913.004 1.053-1.366-3.146-2.84-2.523-6.541.208-1.229.776-1.885 1.659-1.75 1.145.174 1.579 2.093 2.177 3.254 1.18 2.263 1.809.247 1.913-2.125.046-.921.087-1.978.105-2.995.02-1.082-.19-2.371.272-3.09.513-.803 2.196-.896 3.26-1.101 2.375-.46 4.588-.834 6.853-1.49.995-.29 3.168-.567 2.924-1.806-.296-1.534-3.65-1.107-5.358-1.07-1.842.036-3.637.31-5.201.645z" fill="#4D3D87"/><path fill-rule="evenodd" clip-rule="evenodd" d="M68.714 47.31c-1.075.26-.448-2.534.4-1.852.44.356-.053 1.443-.4 1.852zm-1.384 1.342c.133-.191.512-.514.877-.217.477.387.29 1.607.308 2.105.02.605.333 1.735-.248 2.094-.828.51-1.023-1.24-1.066-1.846-.021-.321-.012-.639-.018-.912-.01-.467-.109-.854.148-1.224z" fill="#fff"/><path fill-rule="evenodd" clip-rule="evenodd" d="M54.034 81.345s-11.68 17.448-5.255 21.248c6.038 3.571 13.277-16.494 13.277-16.494l-8.022-4.754z" fill="#F7C4AD"/><path fill-rule="evenodd" clip-rule="evenodd" d="M64.53 92.181c-5.187-1.795-10.178-3.887-14.323-7.272 1.611-3.003 3.745-5.904 6.399-8.648 2.54-2.625 5.573-5.487 9.785-6.333 3.415-.685 6.163 1.225 5.91 5.134-.098 1.5-.697 3.27-1.273 4.787-1.561 4.12-4.219 9.078-6.498 12.332z" fill="#892"/><path fill-rule="evenodd" clip-rule="evenodd" d="M98.285 114.373c-9.979 5.891-27.199 10.05-41.353 6.322-1.07-18.917-1.372-39.161 7.07-47.56 2.691-2.68 7.455-4.27 12.13-4.666 4.1-.348 7.525.473 10.022 1.944 5.528 3.254 7.088 10.893 8.229 19.698 1.103 8.51 2.132 17.086 3.902 24.262z" fill="#892"/><path fill-rule="evenodd" clip-rule="evenodd" d="M88.39 70.755c.702-2.245-15.785-8.596-17.4-7.031-1.082 1.052-3.016 4.507-2.368 5.705 2.004 3.711 19.37 2.6 19.768 1.326z" fill="#892"/><path opacity=".2" fill-rule="evenodd" clip-rule="evenodd" d="M88.39 70.755c.702-2.245-15.785-8.596-17.4-7.031-1.082 1.052-3.016 4.507-2.368 5.705 2.004 3.711 19.37 2.6 19.768 1.326z" fill="#000"/><path fill-rule="evenodd" clip-rule="evenodd" d="M130.541 67.823c-.065-.017-.451-.075-.68-.024-.308.07-.634.258-.924.433-.271.165-.542.353-.825.546-.259.175-.537.334-.804.572-.433.39-.742.917-.4 1.572.101.195.258.364.355.551.106.205.184.427.269.622.443 1.004 1.04 2.099 1.493 2.993 1.188 2.352 2.4 4.71 3.722 7.037.423.745.927 1.45 1.418 2.175.7 1.026 1.453 2.133 2.378 3.082.286.293.713.74 1.159.686.667-.079.658-1.665.601-2.53-.056-.834-.112-1.95-.277-2.748-.174-.84-.508-1.512-.836-2.263-1.263-2.9-2.62-5.717-4.04-8.45-.177-.343-.34-.696-.53-1.035-.182-.328-.399-.644-.559-.985-.183-.384-.353-.834-.568-1.248-.217-.417-.402-.844-.952-.986z" fill="#892"/><path fill-rule="evenodd" clip-rule="evenodd" d="M130.188 72.022c-.258.225.017.527.107.718.766 1.626 1.639 3.242 2.49 4.821.858 1.595 1.687 3.187 2.544 4.801.109.204.206.522.485.56.125-.263-.032-.557-.128-.796-.66-1.689-1.463-3.237-2.303-4.863a60.834 60.834 0 00-2.209-3.962c-.109-.176-.257-.396-.402-.634-.17-.28-.268-.619-.584-.645z" fill="#fff"/><path d="M127.263 71.474c-.097-.187-.254-.356-.355-.551-.342-.655-.033-1.183.4-1.572.267-.238.544-.397.804-.572.283-.193.554-.381.825-.546.29-.175.617-.362.924-.433.229-.051.615.007.68.024.55.142.736.57.953.986.179.346.329.715.478 1.052a.016.016 0 00-.002.006c-.08.105-.239.246-.368.367-.244.232-.599.454-.942.695-.318.221-.656.45-1.017.635-.596.305-1.315.612-2.052.661l-.059-.13c-.085-.196-.163-.417-.269-.622zm9.002 12.109c.217-.439.162-1.197.714-1.156.328.025.725.294 1.065.453.152.79.207 1.855.261 2.659.056.865.065 2.45-.602 2.53-.446.052-.872-.393-1.158-.687-.925-.948-1.678-2.056-2.378-3.081-.045-.071-.093-.137-.14-.208.068-.222.151-.426.275-.57.464-.545 1.242-.085 1.963.06z" fill="#EFAD1B"/><path fill-rule="evenodd" clip-rule="evenodd" d="M136.677 86.608c.546-.214 1.102-.403 1.646-.623.024.874-.056 2.016-.621 2.084-.446.052-.872-.394-1.158-.687a13.066 13.066 0 01-.468-.511c.198-.093.398-.182.601-.263z" fill="#4D3D87"/><path fill-rule="evenodd" clip-rule="evenodd" d="M103.736 84.009l5.377 6.519c5.85-5.417 14.218-9.989 18.364-13.324 1.587-1.276 2.748-1.378 4.606-1.12.609.087 1.739.528 1.792 1.346.04.59-1.443 2.387-2.222 3.347-1.008 1.243-1.958 2.26-2.902 3.37-3.867 4.555-8.038 8.927-11.863 13.401-.952 1.111-2.082 2.108-3.169 3.038-1.05.896-2.207 1.845-3.233 2.4-1.533.83-3.622 1.23-5.128.551-.726-.329-1.821-1.132-2.485-1.747-1.592-1.478-7.622-8.765-7.912-9.52l8.775-8.261z" fill="#F7C4AD"/><path opacity=".13" d="M105.551 94.514c.657.722 3.716-4.13 3.56-3.986l-1.193-1.447c-.261.284-3.095 4.634-2.367 5.433z" fill="#000"/><path fill-rule="evenodd" clip-rule="evenodd" d="M133.228 77.355c.611-.094 2.592-.8 3.609-.794.393.003.859.122.932.463.16.722-1.454 1.135-1.997 1.355-.938.385-1.569.712-2.379 1.014.716-.013 2.633-.707 3.881-.767.52-.023 1.122.044 1.201.49.1.565-1.188 1.056-1.615 1.234-2.057.86-4.995 1.672-6.485 2.687-2.042 1.39-5.559 5.602-5.559 5.602-.664-.421-5.464-5.833-5.464-5.833 2.773-1.719 3.695-3.396 4.307-4.45a220.99 220.99 0 001.595-2.761c.472-.84 2.008-3.608 3.16-3.131.948.395-.86 2.894-1.019 3.682 1.077-.87 3.039-1.992 5.271-2.635.584-.167 1.796-.583 2.047-.098.344.66-.609 1.026-1.01 1.28-.558.35-.937.663-1.468.88.843-.09 2.61-.769 3.619-.73.33.01.722.15.791.416.162.611-.818.857-1.427 1.14-.833.386-1.345.694-1.926.948l-.064.008z" fill="#F7C4AD"/><path fill-rule="evenodd" clip-rule="evenodd" d="M105.669 82.168c-2.809 4.716-5.87 9.18-10.021 12.553-2.617-2.185-5.025-4.862-7.174-8.017-2.055-3.02-4.245-6.569-4.22-10.865.021-3.486 2.448-5.79 6.225-4.748 1.449.4 3.061 1.346 4.43 2.215 3.718 2.365 8.034 5.971 10.76 8.862z" fill="#892"/><path opacity=".2" fill-rule="evenodd" clip-rule="evenodd" d="M95.647 94.721c-2.617-2.185-5.025-4.862-7.174-8.017-2.055-3.02-4.055-8.132-4.03-12.429 0 0-2.591 6.016 2.042 12.481 4.437 6.192 9.162 7.965 9.162 7.965z" fill="#000"/><path fill-rule="evenodd" clip-rule="evenodd" d="M88.372 73.067c.51.679 1.84 1.207 3.18 1.645.571.187 1.504.475 1.729-.016.271-.593-.735-1.09-1.094-1.266-1.144-.556-2.634-1-3.497-1.001-.182.083-.328.408-.318.638zm2.675 2.913c-.796 1.112 1.897 2.418 2.274 1.347.164-.464-.902-1.582-1.635-1.671-.265-.03-.5.13-.64.324zm7.432 2.235c-.325.361-.016.997.499 1.473.415.385 1.386.93 1.653.337.12-.261-.058-.802-.478-1.21-.49-.478-1.26-1.068-1.674-.6z" fill="#fff"/><path opacity=".2" d="M64 72.251c1.2-.972 2.814-1.768 4.646-2.38a6.263 6.263 0 00-2.255.058c-4.213.845-11.812 7.925-9.567 19.136.795-7.188 2.82-13.287 7.176-16.814z" fill="#000"/><path fill-rule="evenodd" clip-rule="evenodd" d="M60.42 78.792c-.892-.944-2.063 2.207-.793 2.077.664-.068.872-1.454.794-2.077zm-.504-2.207c.009.274.175.832.725.774.717-.077 1.312-1.398 1.648-1.877.407-.583 1.44-1.496 1.095-2.22-.488-1.032-1.802.567-2.23 1.136-.226.302-.42.621-.6.886-.308.456-.653.772-.638 1.3z" fill="#fff"/><path d="M101.099 141.764c1.476-.104 3.773.697 4.351-.526.477-1.012-.405-3.299-.801-4.47-.933-2.751-2.599-5.827-4.927-6.971-2.527-1.237-5.84-1.437-9.165-1.841-3.47-.419-6.954-1.041-9.853-1.05-.552-.405-.49-1.202-.687-1.842-2.778-8.984-6.42-18.51-10.081-26.562-2.089-4.592-4.189-8.672-7.563-11.704-3.37-3.029-8.157-4.482-13.863-4.866-4.934-.332-8.92.724-9.394 5.655-.371 3.875.922 8.022 1.834 11.31 2.693 9.716 7.124 19.918 10.194 28.272-4.8.112-4.318 7.037-4.008 12.229.383.522 1.005.773 1.947.657-1.474 12.618-2.932 25.492-4.47 38.135-.081.684-.2 1.393-.288 2.108h2.626c.054-.525.106-1.059.185-1.582 1.9-12.586 3.962-25.845 5.844-38.529 6.504.203 14.013.396 20.964.527.582 1.895.621 3.925.917 5.915a7158.488 7158.488 0 014.911 33.669h2.435c-1.265-13.018-2.6-26.507-3.794-39.454 5.946-.074 12.54.245 18.445.659 3.635 10.594 7.592 22.639 11.343 34.057.458 1.395 1.014 3.035 1.588 4.738h2.494a9587.745 9587.745 0 01-11.184-38.534zm-46.86-14.992c-2.104-5.93-4.514-11.958-6.988-18.67-1.603-4.345-3.6-9.585-4.582-14.86-.539-2.89-1.165-7.104 1.26-7.496 5.686 12.583 9.656 27.138 14.32 40.897-1.407-.036-2.547.231-4.01.129zm7.219-.263c-4.688-13.818-8.58-28.547-14.437-41.026 1.51-.11 2.6.26 4.011.263 4.429 13.325 8.739 26.787 12.603 40.763h-2.177zm5.384 0c-2.744-10.245-6.026-20.585-9.166-30.244-.965-2.969-2.045-5.837-2.864-8.678-.07-.241-.62-.811-.115-1.054 1.096.319 2.178.658 3.092 1.186 3.108 13.397 7.467 25.357 10.542 38.79h-1.49zm4.699 0c-2.875-12.435-6.884-24.274-9.971-36.03 3.831 4.7 6.328 10.818 8.823 16.965 2.525 6.218 4.738 12.783 6.989 19.199-2.072.098-3.79-.212-5.841-.134z" fill="#4D3D87"/><path fill-rule="evenodd" clip-rule="evenodd" d="M58.546 130.648c-1.033-1.724 3.64-2.511 3.089-.548-.287 1.023-2.252.885-3.089.548zm-2.883-1.537c.373.106 1.092.557.85 1.404-.315 1.106-2.305 1.601-3.062 1.969-.92.448-2.477 1.766-3.372.981-1.275-1.12 1.308-2.651 2.216-3.135.483-.257.976-.456 1.395-.651.714-.332 1.25-.771 1.973-.568z" fill="#fff"/></svg>