<svg width="213" height="639" fill="none" xmlns="http://www.w3.org/2000/svg"><path fill-rule="evenodd" clip-rule="evenodd" d="M45.244 142.819c-.23.793-.35 1.598-.696 2.379-.945-.248-1.775-.559-2.88-.998-.56-.222-2.766-.909-2.167-1.623.407-.493 4.808-.042 5.743.242z" fill="#8F7ECE"/><path d="M76.102 154.377c2.73.574 5.436 1.183 8.225 1.67.201.035.42.076.65.116 1.14-1.4.856-2.965.458-4.545-2.837-.846-5.768-1.437-8.643-2.17-2.152-.547-4.317-1.055-6.474-1.564-.252 1.652-.508 3.302-1.127 4.911 2.3.567 4.605 1.101 6.911 1.582zm-32.999-9.613c1.288.89 3.66 1.641 5.618 2.261 1.863.595 3.762 1.192 5.433 1.675 4.426 1.283 8.927 2.552 13.457 3.703-.037-.024-.079-.042-.12-.066.456-1.611.738-3.244 1.075-4.867a244.03 244.03 0 01-2.763-.674c-5.488-1.375-11.058-2.547-16.483-3.671-1.823-.378-3.736-.864-5.592-.605a7.145 7.145 0 00-.625 2.244z" fill="#B1BC00"/><path d="M85.702 154.12c.114-.588.812-.955 1.554-.819l2.886.524c.744.136 1.254.724 1.137 1.312-.114.587-.81.956-1.555.821l-2.885-.526c-.744-.136-1.253-.723-1.137-1.312z" fill="#4D3D87"/><path fill-rule="evenodd" clip-rule="evenodd" d="M67.506 145.717c.71-.276 1.537-.032 2.254.075 3.573.522 7.168 1.251 10.97 2.225.667.169 1.3.34 2.202.633 1.344.437 2.618.997 2.35 2.212-.06.277-.287.868-.847.801-.68-.081-.544-1.184-.928-1.526-.321-.291-1.247-.41-1.966-.608-1.934-.538-3.835-1.089-5.803-1.527-2.905-.65-5.665-1.058-7.74-1.802-.205-.072-.525-.079-.492-.483z" fill="#4D3D87"/><path d="M67.61 152.403l1.58.391c.619-1.608.875-3.259 1.127-4.911-.585-.138-1.167-.274-1.753-.414-.337 1.624-.618 3.256-1.074 4.867.041.025.083.042.12.067zm17.367 3.76c.837.148 1.778.279 2.192.027.186-.113.424-.597.555-.881.445-.954.48-2.057.033-2.927a38.502 38.502 0 00-2.323-.764c.398 1.58.683 3.145-.457 4.545z" fill="#4D3D87"/><path fill-rule="evenodd" clip-rule="evenodd" d="M81.926 153.085c.468.858-2.322.522-2.305-.158.022-.795 1.792-.289 2.25.077.031.024.038.049.055.081zm-3.293-.788c.26.725-2.099.545-1.896-.189.153-.557 1.717-.311 1.896.189zm-31.343-8.588c.646.066 1.653.283 1.646.665-.006.487-.677.324-1.198.234-.52-.088-1.164-.213-1.123-.6.044-.425.42-.326.674-.299zm2.92 1.467c.485.02.944.214.886.547-.1.56-1.695.297-1.56-.248.05-.208.272-.316.675-.299z" fill="#fff"/><path fill-rule="evenodd" clip-rule="evenodd" d="M183.739 330.206l-1.052-2.133-57.059 42.125-35.947-14.088-2.164 1.681s.19 2.476 0 2.476c-.193 0 28.585 12.59 28.585 12.59l8.697 2.627 3.248-.716 56.363-40.385c-1.229-.956-1.452-2.872-.671-4.177z" fill="#8F7ECE"/><path fill-rule="evenodd" clip-rule="evenodd" d="M88.752 357.221c-.333.83-.452 1.872-.734 2.752 3.246.825 6.333 1.984 9.357 3.21 7.337 2.976 14.562 6.094 21.923 9.357 2.188.971 4.183 2.575 7.063 1.744 1.218-.351 2.645-1.486 3.944-2.385 8.506-5.881 17.417-11.989 25.686-17.98 9.003-6.523 17.784-13.375 27.336-19.446.596-.38 1.308-.996 2.11-.826-.011.861-.777 1.4-1.285 1.926-3.542 3.677-8.083 6.702-12.291 9.815-9.7 7.174-19.235 14.123-29.446 21.191-3.639 2.519-7.501 5.032-11.467 7.522-1.293.811-2.768 1.72-4.128 2.109-2.193.627-4.627-.357-6.696-1.01-5.345-1.683-9.982-3.653-14.952-5.869-2.788-1.245-6.48-2.937-9.45-4.404-1.434-.71-2.918-1.498-4.676-2.293-1.325-.6-3.854-1.509-4.22-2.662-.847-2.651 1.677-3.95 3.393-5.044 3.862-2.459 7.742-5.66 11.375-8.164 8.029-5.537 15.642-10.313 23.392-15.687 6.32-4.381 12.849-8.609 18.989-13.575.541-.438 1.209-.991 1.834-1.468.692-.529 1.644-1.388 2.385-1.376.383.007.784.071 1.197.173.269.066.048.691.324.782.253.083 1.003-.368 1.257-.274.742.276 1.483.578 2.176.787 1.271.384 2.522.767 3.758 1.153.297.092-.021.441.274.533.148.046.909-.163 1.056-.116 1.825.576 3.621 1.158 5.404 1.753.271.09.27.46.54.551.298.1.867-.078 1.165.023a298.646 298.646 0 0111.743 4.267c.967.373 2.025.774 3.118 1.202.272.106.21.427.485.537.138.055.612-.104.751-.048a82.88 82.88 0 012.528 1.06c.773.343 1.715.875 1.741 1.376.06 1.053-2.853 2.431-3.576 2.937-3.722 2.597-7.789 5.46-11.375 7.979-5.39 3.788-9.95 7.307-14.769 11.008a1975.258 1975.258 0 00-14.585 11.283c-3.019 2.366-7.301 5.677-11.191 8.166-1.387.886-3.091 2.2-4.861 2.109-1.399-.071-3.16-1.266-4.496-1.927-4.263-2.107-8.9-4.068-13.484-5.778-3.222-1.202-6.365-2.299-9.448-3.394-3.133-1.113-6.334-2.001-9.174-3.579z" fill="#FF5000"/><path d="M98.596 355.783c.814-.51 1.613-1.044 2.355-1.529.376-.369.436-.75.199-1.051-.281-.353-.65-.384-1.002-.17a85.669 85.669 0 00-2.508 1.601c-.253.165-.366.432-.275.733.205.671.969.58 1.231.416zm4.059-6.108c.349-.166 1.926-1.562 2.154-1.766.821-.739-.055-1.799-.893-1.151-.71.549-1.386 1.145-2.076 1.721-.677.694-.087 1.625.815 1.196zm10.098 3.834c.754-.375 1.383-.935 1.969-1.404.398-.462.432-.846.156-1.15-.284-.307-.671-.337-1.084-.004-.58.468-1.174.912-1.8 1.316-.833.537-.153 1.697.759 1.242zm-3.034-4.441c.674-.44 1.302-.95 1.847-1.354.371-.405.484-.747.21-1.105-.275-.365-.665-.366-1.001-.137-.642.44-1.255.917-1.869 1.392-.438.341-.536.68-.337 1.033.207.366.679.478 1.15.171zm-4.139 6.852c.64-.43 1.238-.92 1.792-1.339.36-.391.404-.765.159-1.058-.289-.342-.661-.375-.997-.138-.63.444-1.234.928-1.835 1.411-.764.617-.004 1.716.881 1.124zm11.572-8.803c-.468.301-.602.634-.413.996.496.95 1.642.056 2.477-.592.314-.335.42-.653.195-.989-.477-.708-1.129-.141-2.259.585zm-6.799-5.218c.816-.508 1.613-1.044 2.357-1.528.375-.369.435-.751.197-1.052a.932.932 0 00-.079-.085c-1.207.796-2.417 1.598-3.633 2.404.268.493.918.41 1.158.261zm14.153-2.274c.755-.375 1.384-.935 1.97-1.404.398-.462.432-.847.155-1.148-.282-.309-.669-.339-1.084-.006-.579.468-1.173.912-1.798 1.316-.835.537-.154 1.697.757 1.242zm-4.182-4.612c.206.368.678.478 1.15.171.674-.439 1.302-.949 1.847-1.352.37-.406.483-.747.21-1.107-.151-.198-.335-.287-.526-.29-.845.577-1.689 1.15-2.532 1.717-.272.283-.315.568-.149.861zm-2.988 7.024c.638-.429 1.238-.92 1.791-1.337.359-.393.403-.767.159-1.058-.288-.344-.661-.377-.998-.139-.628.444-1.233.927-1.833 1.411-.764.616-.005 1.717.881 1.123zm13.636-8.399c.314-.335.421-.653.195-.987-.477-.71-1.128-.142-2.26.583-.468.302-.601.635-.412.996.495.95 1.641.056 2.477-.592zm-11.665 29.579a82.358 82.358 0 00-2.507 1.601c-.254.166-.365.433-.275.731.205.672.968.581 1.231.418.815-.509 1.613-1.045 2.356-1.53.375-.368.435-.75.198-1.051-.281-.351-.649-.385-1.003-.169zm3.463-4.382c.349-.166 1.926-1.562 2.154-1.766.821-.738-.055-1.799-.892-1.151-.711.549-1.387 1.145-2.077 1.721-.677.693-.087 1.627.815 1.196zm9.141 4.857c.754-.375 1.385-.935 1.969-1.405.398-.462.432-.846.157-1.148-.284-.308-.671-.339-1.085-.006-.579.469-1.174.913-1.799 1.316-.834.538-.154 1.698.758 1.243zm-3.034-4.44c.674-.441 1.302-.951 1.847-1.352.372-.406.483-.75.21-1.108-.276-.365-.665-.366-1.001-.135a37.58 37.58 0 00-1.869 1.393c-.437.339-.536.679-.336 1.031.205.367.678.478 1.149.171zm-3.187 4.317c-.628.445-1.233.927-1.833 1.412-.763.615-.004 1.716.881 1.122.639-.427 1.238-.92 1.792-1.337.36-.393.404-.765.158-1.057-.288-.344-.659-.378-.998-.14zm-12.822-4.425c-.704.538.008 1.647.784 1.185.665-.394 1.292-.858 1.837-1.227.783-.894-.111-1.666-.786-1.235-.629.4-1.244.824-1.835 1.277zm23.443-1.843c-.467.301-.601.634-.412.996.496.949 1.643.056 2.479-.593.312-.333.42-.653.194-.989-.478-.708-1.129-.139-2.261.586zm2.132 5.137c-.469.3-.602.633-.413.995.134.255.314.375.522.403.796-.609 1.555-1.197 2.257-1.745a.7.7 0 00-.107-.239c-.477-.709-1.128-.14-2.259.586zm-6.862 5.698c-.468.301-.601.633-.412.995l.016.024a97.16 97.16 0 002.54-1.744c-.466-.476-1.101.057-2.144.725zm27.551-20.791c-.477-.71-1.128-.141-2.26.585-.468.3-.601.633-.412.995.205.393.523.468.883.376.632-.484 1.261-.967 1.89-1.447a.606.606 0 00-.101-.509zm-39.456 5.724c.747-.524 1.868-1.347 1.282-2.037-.278-.329-.706-.332-1.163.03-.364.288-.73.585-1.046.925-.635.686.225 1.577.927 1.082zm9.836-.986c.814-.509 1.612-1.043 2.355-1.529.375-.37.437-.75.198-1.05-.28-.353-.648-.385-1.002-.17a82.328 82.328 0 00-2.507 1.6c-.254.166-.365.433-.275.731.204.673.968.582 1.231.418zm6.276-10.048c-.711.549-1.387 1.144-2.078 1.721-.675.693-.086 1.626.816 1.195.349-.166 1.927-1.562 2.155-1.766.82-.738-.056-1.797-.893-1.15zm8.196 8.941c.754-.375 1.382-.935 1.97-1.406.397-.461.432-.845.154-1.148-.282-.307-.669-.339-1.083-.005-.579.467-1.173.911-1.801 1.317-.833.537-.151 1.696.76 1.242zm-1.294-8.068c-.276-.362-.665-.365-1.001-.135-.642.439-1.255.917-1.869 1.392-.437.339-.536.68-.336 1.033.205.366.678.479 1.149.171.674-.441 1.303-.951 1.847-1.353.372-.406.483-.748.21-1.108zm-5.242 6.779c-.63.444-1.235.926-1.835 1.411-.763.617-.005 1.716.881 1.122.639-.428 1.238-.92 1.791-1.337.36-.393.405-.765.159-1.057-.288-.344-.658-.377-.996-.139zm-12.824-4.426c-.704.539.009 1.648.783 1.187.667-.396 1.293-.86 1.838-1.229.783-.895-.111-1.666-.786-1.235-.629.401-1.244.826-1.835 1.277zm2.006 24.609c-.478-.71-1.129-.14-2.26.585-.468.3-.601.635-.412.995.026.052.055.093.083.134.274.103.542.189.802.243.509-.127 1.104-.59 1.592-.968.314-.335.42-.654.195-.989zm4.801-30.684c.747-.524 1.868-1.347 1.285-2.037-.28-.329-.709-.33-1.165.03-.365.288-.73.585-1.045.924-.637.687.225 1.578.925 1.083zm-30.588 20.424c-.276-.365-.665-.369-1.001-.137-.627.428-1.226.894-1.824 1.36l1.676.592c.333-.25.649-.495.939-.71.372-.405.483-.747.21-1.105zm4.962 1.503c.496.951 1.644.057 2.479-.592.312-.335.418-.654.193-.989-.476-.709-1.128-.141-2.259.586-.468.3-.601.633-.413.995zm-13.831-4.326c.745-.525 1.866-1.349 1.283-2.037-.279-.329-.71-.332-1.166.028-.364.29-.73.586-1.044.926-.637.686.225 1.577.927 1.083zm18.053 7.246c-.279-.329-.708-.332-1.164.03-.195.152-.391.312-.578.477.524.198 1.047.4 1.571.605.319-.366.472-.757.171-1.112zm34.424-8.239c-.711.549-1.386 1.143-2.076 1.72-.677.692-.087 1.626.815 1.197.349-.169 1.928-1.564 2.154-1.766.821-.74-.054-1.799-.893-1.151zm5.507-4.726c-.365.289-.731.586-1.046.925-.636.687.225 1.578.927 1.083.746-.524 1.867-1.348 1.283-2.037-.279-.329-.709-.332-1.164.029zm13.68-31.018c.353.678 1.038.415 1.706-.026-.567-.192-1.137-.381-1.706-.572a.59.59 0 000 .598zm-29.238 7.734c.754-.376 1.384-.936 1.97-1.406.396-.461.433-.845.154-1.147-.283-.31-.668-.34-1.083-.007-.579.468-1.173.912-1.8 1.316-.834.539-.153 1.699.759 1.244zm7.258-5.827c.313-.333.421-.653.195-.987-.477-.71-1.129-.141-2.26.585-.468.3-.602.635-.413.994.497.95 1.644.056 2.478-.592zm-1.462 18.447c.815-.51 1.613-1.045 2.358-1.529.373-.369.435-.752.196-1.052-.279-.353-.648-.384-1.001-.17a85.102 85.102 0 00-2.508 1.6c-.254.166-.365.433-.274.733.203.673.967.581 1.229.418zm5.014-7.133c.349-.165 1.927-1.562 2.153-1.765.822-.739-.053-1.798-.892-1.15-.711.549-1.386 1.144-2.077 1.719-.676.693-.086 1.627.816 1.196zm9.142 4.859c.754-.377 1.383-.935 1.968-1.404.398-.463.433-.847.157-1.15-.284-.308-.67-.339-1.084-.004-.579.468-1.175.91-1.801 1.315-.834.538-.153 1.697.76 1.243zm-.977-6.903c-.277-.362-.665-.366-1.001-.133-.641.437-1.255.915-1.87 1.393-.436.338-.534.678-.336 1.031.207.365.679.478 1.15.17.674-.439 1.303-.951 1.848-1.353.371-.405.482-.747.209-1.108zm-6.196 9.313c.641-.429 1.238-.92 1.793-1.338.359-.392.404-.765.159-1.058-.288-.342-.66-.376-.998-.138a35.82 35.82 0 00-1.834 1.41c-.764.617-.005 1.717.88 1.124zm-11.087-5.774c.666-.395 1.292-.857 1.837-1.226.785-.894-.111-1.667-.786-1.237-.629.401-1.244.825-1.836 1.279-.703.536.009 1.647.785 1.184zm22.659-3.029c-.468.302-.601.635-.412.995.496.952 1.642.057 2.478-.592.312-.333.42-.651.194-.988-.476-.709-1.128-.141-2.26.585zm-16.633-4.23c.746-.526 1.868-1.35 1.283-2.039-.278-.328-.708-.33-1.164.029-.365.289-.731.586-1.046.926-.636.687.225 1.577.927 1.084zm9.833-.985c.814-.511 1.612-1.045 2.357-1.53.373-.368.435-.751.196-1.051-.28-.352-.648-.384-1.002-.17a94.034 94.034 0 00-2.507 1.601.62.62 0 00-.274.733c.205.671.969.58 1.23.417zm3.803-6.415c.35-.167 1.927-1.562 2.154-1.766.226-.205.321-.433.326-.643-.441-.139-.884-.279-1.33-.417-.669.524-1.311 1.083-1.966 1.629-.675.694-.085 1.626.816 1.197zm9.561 4.922c.753-.376 1.383-.935 1.968-1.404.398-.462.434-.847.156-1.148-.284-.309-.671-.34-1.083-.006a20.17 20.17 0 01-1.801 1.314c-.834.539-.153 1.699.76 1.244zm-6.382 1.628c.641-.429 1.238-.92 1.793-1.339.359-.391.404-.765.158-1.058-.287-.341-.659-.375-.996-.137-.631.444-1.235.927-1.836 1.41-.763.617-.004 1.716.881 1.124zm-10.384-5.773c.666-.395 1.292-.858 1.837-1.227.785-.895-.11-1.666-.786-1.235-.629.399-1.245.823-1.836 1.277-.703.538.009 1.647.785 1.185zm.521 23.423c-.476-.709-1.129-.14-2.26.586-.468.301-.602.634-.413.995.495.95 1.643.056 2.478-.592.313-.333.42-.653.195-.989zm.537-27.662c.492-.346 1.144-.824 1.365-1.305a14.496 14.496 0 00-1.508-.489 7.666 7.666 0 00-.785.711c-.636.687.225 1.577.928 1.083zm28.762 10.263c-.764.616-.004 1.717.881 1.123.639-.427 1.238-.919 1.791-1.337.245-.267.34-.523.302-.753l-1.133-.447-.008.005c-.628.444-1.233.925-1.833 1.409zm-5.882.151c.666-.396 1.291-.858 1.836-1.227.784-.895-.111-1.667-.786-1.237-.629.401-1.244.825-1.835 1.279-.704.539.009 1.647.785 1.185zm-17.781 16.403c-.712.551-1.387 1.145-2.077 1.721-.677.693-.087 1.626.814 1.196.35-.167 1.929-1.562 2.155-1.766.821-.738-.054-1.797-.892-1.151zm5.816-1.883c-.366.288-.73.585-1.046.924-.636.688.224 1.577.926 1.084.746-.526 1.868-1.348 1.283-2.038-.278-.328-.707-.331-1.163.03zm7.334-8.248c.821-.738-.055-1.797-.893-1.149-.71.549-.801.813-1.491 1.389-.676.693-.086 1.626.816 1.197.348-.168 1.342-1.232 1.568-1.437zm4.599.849c.674-.44 1.304-.95 1.847-1.354.372-.404.483-.746.21-1.105-.276-.365-.663-.366-1.001-.136-.642.438-1.256.916-1.869 1.392-.437.341-.536.68-.336 1.034.207.365.678.476 1.149.169zm-4.139 6.853c.64-.427 1.238-.92 1.792-1.337.359-.393.404-.767.159-1.059-.289-.343-.659-.375-.997-.138-.629.444-1.235.927-1.835 1.41-.763.618-.004 1.717.881 1.124zm-7.393-2.595c.666-.396 1.292-.858 1.837-1.227.784-.894-.11-1.667-.787-1.235a24.99 24.99 0 00-1.833 1.277c-.704.539.007 1.648.783 1.185zm18.967-6.207c-.465.298-.598.626-.418.984.847-.594 1.688-1.182 2.511-1.756-.461-.394-1.088.126-2.093.772zm-13.766-3.998c-.638.687.223 1.577.927 1.084.744-.526 1.866-1.348 1.281-2.038-.277-.328-.706-.332-1.162.03-.366.288-.732.584-1.046.924z" fill="#fff"/><path fill-rule="evenodd" clip-rule="evenodd" d="M145.169 322.26c.965-.206 2.633.32 3.761.733 5.641 2.077 9.951 4.104 15.32 6.514.913.411 2.153.896 3.028 1.376.882.485 2.103 1.413 2.109 2.203.011 1.288-2.885 2.865-3.761 3.485-3.714 2.624-6.892 4.873-10.916 7.247-.806.474-1.659 1.068-2.477 1.102-.983.037-2.066-.595-3.119-1.102-2.935-1.414-5.335-2.765-8.347-4.129-2.654-1.201-5.716-2.579-8.44-4.128-.76-.43-2.143-1.175-2.201-1.926-.096-1.234 2.525-2.705 3.302-3.301 2.371-1.823 4.933-3.923 7.43-5.596 1.283-.859 2.596-1.852 4.128-2.386.045-.016.09-.072.183-.092z" fill="#4D3D87"/><path fill-rule="evenodd" clip-rule="evenodd" d="M158.365 557.733c-.283 2.35.537 5.602-.55 7.063-.908 1.221-3.721 1.082-6.514 1.195-5.008.199-9.781.661-14.768.64-7.409-.029-14.986-.549-22.475-.549-4.944 0-9.868.275-15.043.275-10.082-.002-20.184 0-30.547 0-4.723 0-10.09-.193-15.227 0-2.158.081-5.003-.029-7.522-.184-2.55-.157-4.833-.691-5.688-1.926-.938-1.353-.69-4.586-.46-6.514 9.597.224 19.25-.183 29.172-.183 3.181 0 6.45-.036 9.633-.184 5.958-.277 13.784-.09 20.363-.092 6.738 0 13.477.149 19.997.185 13.446.072 26.651.816 39.629.274z" fill="#8F7ECE"/><path fill-rule="evenodd" clip-rule="evenodd" d="M74.888 522.142c5.349-.255 11.752.072 17.337.183 5.63.111 11.414-.06 17.246-.092 8.474-.045 17.14-.306 25.685.183 1.235.071 2.71.142 4.219.185 1.708.047 3.297-.08 4.22.275 2.634 1.011 3.797 4.728 5.045 7.43 3.308 7.165 6.421 14.18 8.99 22.2.506 1.574 1.117 3.947.551 5.411-1.219 3.142-7.987 2.66-12.934 2.66-10.494 0-20.662-.222-30.822.184-5.224.208-10.213-.342-15.136-.459-2.522-.059-5.007.233-7.43.368-2.55.141-5.104.131-7.706.091-4.85-.072-10.029-.274-15.319-.276-4.864 0-10.14.092-15.502.092-4.496 0-12.547.585-13.668-2.66-.516-1.492.17-3.831.641-5.321 2.374-7.5 5.66-15.184 8.99-22.29 1.106-2.359 2.704-6.848 5.413-7.613 1.242-.353 3.232-.102 4.953-.185 5.031-.237 10.173-.126 15.227-.366z" fill="#4D3D87"/><path fill-rule="evenodd" clip-rule="evenodd" d="M89.474 526.729c-.281 1.584-.634 3.095-.917 4.678-1.588.186-3.497.049-5.229.092.328-1.659.839-3.138 1.285-4.679 1.674.025 3.14-.162 4.86-.091zm5.504.183c-.343 1.491-.705 2.963-1.008 4.494h-4.128c.262-1.633.694-3.098 1.008-4.677 1.259.179 2.892-.017 4.128.183zm-11.742-.092c-.468 1.521-.813 3.163-1.284 4.679-1.844-.006-4.147.008-5.688 0 .618-1.433 1.147-2.951 1.652-4.495a827.92 827.92 0 005.32-.184zm17.43.183c.062 1.467.218 2.841.274 4.311-1.985-.059-3.77.083-5.686.093.295-1.57.705-3.025 1.1-4.495 1.485-.017 2.775.16 4.312.091zm-24.308.001c.328.148-.058.725-.184 1.1-.373 1.118-.803 2.464-1.284 3.487h-6.054c.504-1.575 1.174-2.983 1.743-4.496 1.907-.049 4.02.107 5.78-.091zm29.72.09c.164 1.305.164 2.772.273 4.128-1.666-.063-2.604.115-4.127.092-.212-1.285-.17-2.826-.275-4.22 1.052-.035 2.783.028 4.129 0zm-36.968 0c-.492 1.557-1.094 3.005-1.651 4.496-1.44-.059-3.115.12-4.402-.091-.282-.101.186-.588.367-.919.517-.949 1.147-2.226 1.467-3.394 1.419-.018 2.726-.149 4.22-.092zm38.251.093h3.853c.298 1.323.529 2.712.826 4.036h-4.496c-.067-1.339-.036-2.775-.183-4.036zm-44.031.092h.183c-.563 1.516-1.298 2.86-2.018 4.22h-4.128c.2-.668.501-1.309.825-1.927.289-.55.599-1.304 1.102-1.651.99-.684 2.498-.286 4.036-.642zm49.262.001c1.443.054 3.11-.114 4.402.09.15 1.442.587 2.594.826 3.945-1.406-.124-2.966-.092-4.495-.092-.306-1.253-.522-2.595-.733-3.943zm5.685.09c1.751-.067 3.22.146 4.955.093.286 1.425.792 2.631 1.008 4.128-1.615-.19-3.421-.187-5.136-.277a90.268 90.268 0 01-.827-3.944zm11.466.093c.575 1.382 1.018 2.897 1.47 4.404-1.912-.077-3.881-.098-5.688-.277-.227-1.424-.645-2.659-.918-4.036 1.748.006 3.509.023 5.136-.091zm1.47 0c2.634.188 5.161-.415 6.696.64 1.17.808 1.474 2.635 2.109 4.129-2.379-.188-4.889-.247-7.429-.276-.505-1.45-.934-2.981-1.376-4.493zm-25.135 5.138c.136 1.513.353 2.946.642 4.311-1.803.058-3.328-.159-5.138-.092a36.684 36.684 0 00-.643-4.129c1.533-.211 3.455-.032 5.139-.09zm1.192 0h4.036c.45 1.414.798 2.93 1.192 4.401-1.558-.001-3.154.035-4.587-.091-.079-1.571-.474-2.828-.641-4.31zm5.322.089c1.681-.213 3.76-.029 5.594-.09.559 1.46.952 3.085 1.559 4.494-1.855.266-3.844-.131-5.869 0-.41-1.487-.789-3.002-1.284-4.404zm-51.739.093c-.386 1.478-1.015 2.715-1.56 4.036h-4.035c.504-1.392 1.08-2.712 1.559-4.129 1.408-.03 2.59.163 4.036.093zm38.895-.094c.18 1.35.384 2.674.549 4.038h-5.503c-.012-1.451.127-2.747.276-4.038h4.678zm19.814 0c2.035.017 3.922.178 5.871.277.41 1.517.907 2.947 1.285 4.495-1.903-.024-3.699-.154-5.595-.185-.487-1.562-1.107-2.992-1.561-4.587zm-37.977.093c-.354 1.45-.81 2.797-1.284 4.128-1.873-.038-3.635.033-5.412.092.307-1.498.837-2.772 1.284-4.128 1.905.071 3.528-.143 5.412-.092zm6.88.001c-.079 1.388-.308 2.628-.46 3.945-2.177-.069-4.111.106-6.236.091.271-1.317.762-2.417 1.008-3.761a.466.466 0 01.275-.275h5.413zm5.322 0c-.014 1.394-.328 2.486-.277 3.945h-4.219c.202-1.268.254-2.681.46-3.945h4.036zm-26.421.092c-.449 1.387-1.078 2.591-1.468 4.036-1.681-.06-3.357-.129-5.136-.092.424-1.348 1.015-2.531 1.375-3.944h5.229zm7.431 0c-.374 1.459-.919 2.751-1.377 4.127-2.043-.035-4.244.087-6.145-.091.403-1.4.972-2.637 1.376-4.036 2.45.116 3.014.009 6.146 0zm51.92.274c1.595-.217 3.439.108 5.137.093.554 1.432.958 3.016 1.467 4.494-1.732-.07-3.435-.171-5.228-.183a44.725 44.725 0 00-1.376-4.404zm6.605.093c2.349.19 4.963.113 7.248.367.505 1.359.794 2.935 1.193 4.403-1.971.014-4.56-.15-6.698-.276-.489-.507-.746-1.306-1.009-2.018-.273-.739-.438-1.511-.733-2.201l-.001-.275zm-22.198 5.136c.273.259.474.836.642 1.284.468 1.256.849 2.812 1.191 4.313-10.732-.136-21.466-.031-32.105.366.397-2.08.813-4.14 1.284-6.146 9.693-.329 18.809-.119 28.988.183zm-51.555-.276c-.738 2.413-1.643 4.656-2.476 6.972-1.522-.159-3.176-.188-3.761-1.284.027-2.389.848-3.984 1.559-5.688h4.678zm1.561 0c1.29.147 2.794.079 4.218.092-.435 2.409-1.119 4.57-1.743 6.789-1.573.138-3.342.082-5.044.091.27-1.101.799-2.205 1.192-3.394.417-1.26.604-2.664 1.376-3.578zm19.72.092c-.475 2.093-.92 4.217-1.468 6.238-2.25.013-4.39.135-6.513.276.524-2.291 1.383-4.244 2.019-6.421 2.077.059 3.954-.082 5.962-.093zm-7.336.093c-.614 2.26-1.422 4.329-2.201 6.422-1.956.216-4.172.17-6.239.275.437-2.195 1.114-4.148 1.469-6.422-.005-.156.067-.238.183-.275h6.788zm39.078.091c2.691-.031 5.136.183 7.797.183.629 1.847 1.153 3.801 1.651 5.78-2.569-.06-4.973-.287-7.614-.275-.538-1.97-1.128-3.887-1.834-5.688zm9.174.276c2.216-.016 4.192.209 6.42.184.534 2.034 1.136 3.999 1.743 5.962-2.179-.115-4.332-.254-6.513-.367-.444-2.032-1.118-3.836-1.65-5.779zm7.703.366c1.566-.19 3.442.105 5.137.092.968 1.814 1.348 4.218 2.11 6.238-1.65.12-3.481-.373-5.32-.367a729.906 729.906 0 01-1.927-5.963zm6.605.092c1.922.189 4.078.141 5.963.368.183.815.532 1.763.734 2.752.196.961.469 2.337.091 3.026-.716 1.311-3.268.383-4.77.367-.519-2.325-1.37-4.316-2.018-6.513z" fill="#8F7ECE"/><path opacity=".75" fill-rule="evenodd" clip-rule="evenodd" d="M86.08 547.001c1.68-.298 4.588-.091 6.88-.091 4.598 0 8.815.183 13.299.183 1.792 0 4.974-.487 6.238.275 1.242.746 1.686 3.365 1.927 5.413.047.397.24 1.661-.092 2.109-.483.649-2.564.325-3.761.275-8.265-.333-15.388-.183-24.31-.183-.966 0-3.146.296-3.577-.551-.453-.889.437-2.506.825-3.76.592-1.909.65-3.329 2.57-3.67z" fill="#fff"/><path fill-rule="evenodd" clip-rule="evenodd" d="M59.62 552.913c.109-1.044.289-3.227 1.452-2.769.681.267.603 1.822.515 2.861-.108 1.293-.222 2.472-.597 3.515-.175.481-.517.897-.859.879-.658-.037-1.064-.962-1.352-1.454-.73-1.24-1.165-1.937-1.867-3.316-.259-.51-.723-1.427-.277-1.959.097-.116.402-.23.58-.216.658.046 1.091.679 1.444 1.107.417.508.696.899.96 1.352zm-8.6-1.991c-.947-.832-2.308-2.156-3.495-2.572-.313-.109-.903-.242-1.29.107-.239.219-.242.729-.15 1.08.234.894.86 1.707 1.434 2.407.543.66 1.152 1.212 1.736 1.71.47.403 1.191 1.006 1.877 1.39.574.322 1.733.838 2.41.382.778-.522.58-2.034.478-3.068-.142-1.451-.494-3.608-1.578-5.144-.285-.403-.728-.81-1.145-.658-.696.252-.59 1.472-.586 2.004.005.825.053 1.521.309 2.362z" fill="#FF5000"/><path fill-rule="evenodd" clip-rule="evenodd" d="M42.132 559.274c1.007-.291 2.712.181 4.358.742.705.239 1.84.648 1.695 1.302-.171.786-1.534.529-2.02.433-1.542-.298-3.343-.97-4.196-1.609-.117-.22-.02-.65.163-.868zm7.945-.885c.041-1.689 3.667-.978 3.248.36-.183.58-2.066.891-2.857.432-.284-.164-.399-.499-.392-.792zm3.732 2.471c-.047-.599.725-.996 1.59-1.084.696-.071 2.06.112 1.882.897-.074.348-.654.748-1.371.84-.84.108-2.039.117-2.101-.653z" fill="#fff"/><path fill-rule="evenodd" clip-rule="evenodd" d="M62.323 460.901c6.973-.333 14.192.136 21.098 0 6.822-.134 13.782-.188 20.731.091 6.267.253 13.365.459 20.548.459 4.345 0 10.487-.441 15.411-.368 2.848.046 4.638.287 5.503 2.02.7 1.395.544 3.874.46 6.879-.068 2.41-.045 5.263-.092 7.522-.106 4.953-.275 9.652-.275 14.953-.002 5.029.029 9.904-.093 14.952-.131 5.479.848 13.449-2.475 15.411-1.009.594-3.224.641-5.229.641-2.011 0-4.062-.127-5.689-.183-11.514-.397-23.192-.367-34.674-.367-7.443.001-14.853-.366-23.025-.366-5.537 0-11.653.227-16.97-.643-1.774-.288-3.777-.915-4.403-2.017-.825-1.457-1.079-3.897-1.285-6.331-1.025-12.085-.367-24.234-.367-37.243 0-2.351.169-5.091.276-7.339.122-2.55.051-5.294 1.1-6.42.807-.864 2.54-1.089 4.221-1.284 1.845-.215 3.666-.293 5.23-.367z" fill="#8F7ECE"/><path fill-rule="evenodd" clip-rule="evenodd" d="M59.755 463.927c3.106-.369 7.154.089 10.55.183 3.465.096 6.898.251 10.273.367 6.882.238 13.901.111 20.913-.184 7.03-.296 13.541-.458 20.915-.458 3.29 0 6.802.092 10.549.092 1.723 0 3.579-.147 5.138 0 1.622.153 3.085.679 3.67 1.651.747 1.243.549 4.297.549 6.145 0 2.456-.091 4.526-.091 6.514 0 4.622.275 8.785.275 13.026 0 4.636.038 8.461.183 13.118.067 2.122-.066 4.359 0 6.42.065 2.026.15 5.141-.641 6.331-.648.969-2.245 1.593-4.036 1.558-5.116-.098-11.051.419-16.236.184-7.384-.335-14.72.091-21.467.093-7.633 0-14.4.17-22.016-.093-5.037-.174-11.025.166-16.235-.184-1.871-.125-3.807-.133-4.678-.825-1.018-.81-1.299-3.47-1.467-5.596-.538-6.732-.253-13.718.09-20.455.23-4.499.23-8.72.46-13.577.096-2.027.091-4.25.091-6.696 0-3.546-.454-7.5 3.027-7.614.06-.002.124.007.184 0z" fill="#4D3D87"/><path opacity=".75" fill-rule="evenodd" clip-rule="evenodd" d="M68.78 491.876c.296 1.542.611 3.518.837 5.338.171 1.348.638 2.695.15 3.683-.813-.028-1.33-.822-1.834-1.297-1.564-1.478-3.288-2.932-4.884-4.48 1.148-1.621 2.969-2.764 5.731-3.244z" fill="#fff"/><path fill-rule="evenodd" clip-rule="evenodd" d="M68.109 501.101c-2.481.458-5.343.622-7.782.694-.393-2.162.529-3.976 1.58-5.35.052-.01.103-.019.155-.027.983.784 2.035 1.569 3.07 2.375 1.016.791 2.244 1.373 2.977 2.308z" fill="#8F7ECE"/><path fill-rule="evenodd" clip-rule="evenodd" d="M70.95 492.557c3.973-.016 7.37 2.06 9.12 4.867.591.947 1.047 2.121 1.138 3.652.296 4.97-4.635 9.945-9.926 10.664-4.12.558-7.71-1.461-9.422-4.39-.593-1.011-1.237-2.284-1.149-3.723.752-.342 1.675-.394 2.568-.483 1.722-.172 3.488-.399 5.234-.763.724-.151 2.06-.216 2.417-.538.283-.255.247-1.455.236-2.076-.036-2.266-.435-5.04-.404-6.967a.364.364 0 01.188-.243z" fill="#EFAD1B"/><path fill-rule="evenodd" clip-rule="evenodd" d="M82.984 499.16c-.267-.708-.246-1.766-.227-2.82.017-.915-.18-2.211.317-2.601.716-.435 2.174-.178 3.27-.138 2.942.109 5.757.044 8.99-.013 1.84-.034 3.945.036 5.997.014a52.54 52.54 0 013.002.044c.939.051 2.148.143 2.495.623.478.664.334 2.032.253 3.036-.065.756-.106 2.274-.532 2.628-.471.392-2.199.278-3.037.255-4.953-.142-9.88-.358-14.897-.453-.992-.018-2.034-.016-3.003-.044-.934-.025-1.932.098-2.628-.531z" fill="#B1BC00"/><path fill-rule="evenodd" clip-rule="evenodd" d="M96.801 501.848c.037-.016.05-.08.134-.091 1.692-.23 2.81.187 4.857.239.974.022 4.084-.129 4.543.643.315.53.08 1.718.025 2.409-.068.861-.143 1.521-.201 2.367-.085 1.278.042 3.804-.898 4.284-.653.334-1.696.061-2.482.034a64.788 64.788 0 00-2.489-.037c-1.538.004-3.869.229-4.428-.88-.272-.537-.16-1.505-.097-2.399.052-.741.097-1.553.138-2.283.046-.845.022-1.393.056-2.349.03-.784.194-1.667.842-1.937z" fill="#8F7ECE"/><path opacity=".75" fill-rule="evenodd" clip-rule="evenodd" d="M94.35 502.718c-.053.368-.101.74-.064 1.178-3.871.022-7.516-.252-11.365-.258-.062-.321-.076-1.126.1-1.475 3.756.212 7.65.244 11.33.555zm-.306 2.672c.105.254.018.86-.066 1.178-3.857.091-7.45-.165-11.271-.125.077-.393-.01-.91.126-1.258 3.75.052 7.335.317 11.211.205zm-.169 3.166c-.05.414-.052.866-.126 1.259-3.6-.221-7.265-.355-11.079-.298a9.027 9.027 0 01.019-1.538c3.73.19 7.367.502 11.186.577z" fill="#fff"/><path fill-rule="evenodd" clip-rule="evenodd" d="M113.097 499.513c-.267-.708-.244-1.766-.225-2.82.017-.915-.179-2.21.317-2.601.715-.434 2.173-.178 3.27-.138 2.942.108 5.759.043 8.99-.014 1.842-.032 3.947.037 5.996.017a49.055 49.055 0 013.002.042c.941.051 2.149.143 2.496.622.479.665.336 2.032.253 3.037-.062.755-.107 2.273-.532 2.628-.47.391-2.2.278-3.036.255-4.954-.142-9.881-.358-14.899-.454-.992-.018-2.032-.016-3.002-.043-.935-.025-1.933.098-2.63-.531z" fill="#B1BC00"/><path fill-rule="evenodd" clip-rule="evenodd" d="M126.914 502.202c.036-.017.052-.08.134-.092 1.693-.229 2.812.189 4.857.238.973.025 4.084-.127 4.543.646.315.528.079 1.716.026 2.409-.069.858-.144 1.518-.202 2.365-.085 1.28.042 3.803-.899 4.284-.652.335-1.693.061-2.48.034a69.28 69.28 0 00-2.49-.037c-1.538.005-3.869.23-4.427-.879-.273-.536-.162-1.505-.099-2.4.054-.741.1-1.553.139-2.284.046-.844.022-1.392.059-2.348.026-.782.191-1.665.839-1.936z" fill="#8F7ECE"/><path opacity=".75" fill-rule="evenodd" clip-rule="evenodd" d="M124.463 503.073c-.054.365-.102.74-.064 1.176-3.871.022-7.516-.252-11.364-.258-.062-.322-.077-1.125.098-1.475 3.758.211 7.651.245 11.33.557zm-.306 2.671c.105.253.018.859-.064 1.178-3.86.091-7.452-.166-11.273-.125.078-.392-.009-.911.126-1.259 3.75.053 7.334.319 11.211.206zm-.168 3.164c-.052.415-.052.867-.127 1.26-3.601-.219-7.265-.353-11.078-.298a9.075 9.075 0 01.017-1.536c3.732.188 7.367.501 11.188.574z" fill="#fff"/><path fill-rule="evenodd" clip-rule="evenodd" d="M75.93 472.923c-.339-.989-.476-2.412-.054-3.111.696-.464 2.214-.259 3.295-.33 2.984-.199 5.97-.267 8.957-.413 9.87-.486 19.446-.42 28.954-.046 1.596.063 4.656-.19 5.324.626.709.868.532 3.353.1 3.74-.51.455-1.829.354-2.972.348-2.729-.016-6.467 0-8.805-.018-4.13-.033-7.772-.285-11.51-.363-5.861-.123-11.711-.15-17.686-.022-.97.021-1.969.043-2.954.024-.873-.017-1.901.153-2.649-.435z" fill="#EFAD1B"/><path opacity=".75" fill-rule="evenodd" clip-rule="evenodd" d="M117.339 476.735c-6.587-.027-13.188-.021-19.77-.089-12.264-.13-25.085-.071-38.163.571l.27 1.986c5.986-.208 11.874-.539 17.65-.671 13.726-.313 26.742.035 39.783.148 6.574.056 13.183-.016 19.78.167.156-.684.38-1.335.332-2.117-6.761.354-13.298.033-19.882.005zm-57.194 3.915c13.35-.066 63.935 1.314 77.129 1.464.018.629-.062 1.19-.097 1.781-6.299-.404-50.777-1.072-57.325-1.254-6.509-.18-13.122-.063-19.723-.222-.027-.614-.122-1.271.017-1.769zm77.097 5.793c-.058.759-.063 1.554.013 2.406-10.48-.502-66.076-1.573-76.861-1.66-.035-.755-.04-1.489-.158-2.3 10.847.027 66.408 1.182 77.006 1.554z" fill="#fff"/><path fill-rule="evenodd" clip-rule="evenodd" d="M142.133 466.688c.836.171.59 2.051.393 3.224-.144.869-.471 1.81-1.096 1.552-.338-.136-.458-.742-.526-1.192-.16-1.049-.042-2.869.398-3.279.204-.191.545-.362.831-.305zm-.156 7.492c.445.672.366 2.396-.691 2.046-.996-.33-.137-3.299.691-2.046zm-86.183 30.701c.854.719 1.342 5.234-.203 5.305-1.26.054-1.6-3.939-.817-4.999.203-.273.413-.379 1.02-.306zm.205 7.241c1.403-.227 1.609 3.226.305 3.265-.55.017-.71-.349-.92-1.02-.304-.99-.368-2.086.615-2.245z" fill="#fff"/><path fill-rule="evenodd" clip-rule="evenodd" d="M174.729 566.736c-3.709.943-7.278 1.881-10.447 3.326-4.327 1.972-8.05 4.622-11.501 7.244-7.278 5.529-13.617 11.781-20.873 17.119-3.611 2.657-7.403 5.169-12.07 6.565-4.624 1.383-10.018 2.149-16.278 1.628-6.12-.508-11.664-1.894-16.083-4.098-4.32-2.155-7.95-4.96-9.023-10.085 7.139-.351 14.117-1.753 18.815-5.418 1.709-1.332 4.172-4.19 3.134-6.963-1.164-3.109-6.05-3.472-9.652-2.979-2.67.369-4.88 1.282-6.73 2.239-4.129 2.14-7.354 4.922-8.264 10.678-8.933-.038-17.45-1.2-24.237-3.559-6.92-2.405-12.416-6.097-16.342-10.97-2.026-2.51-3.561-5.374-3.67-9.216-.127-4.445 1.62-7.647 3.722-10.058 1.716-1.969 3.735-3.49 6.051-4.661 0 0 1.457-3.205 1.46-3.228-.644.097-1.758.482-2.48.858-3.129 1.62-5.747 3.712-7.807 6.39-2.196 2.861-3.695 6.872-3.422 11.11.267 4.119 1.707 7.191 3.842 9.94 4.066 5.236 9.758 9.239 17.203 11.911 7.356 2.638 16.14 4.045 25.85 4.019 1.393 7.722 8.165 12.094 16.032 14.482 6.494 1.971 14.092 2.613 20.523 1.971 2.131-.211 4.145-.73 6.221-.943 2.058-.213 4.242-.468 6.5-.527 4.646-.122 9.655.365 14.074.143 2.226-.113 4.381-.405 6.434-.689 6.964-.967 14.022-2.825 19.773-5.569.997-.477 2.063-.937 2.047-1.787-.038-2.128-3.535-.116-4.101.11a77.085 77.085 0 01-14.298 4.164c-6.877 1.295-14.593 1.598-22.766 1.135 8.964-5.058 16.117-12.05 24.073-18.567 5.752-4.714 11.708-9.49 19.779-11.865 1.204-.354 2.462-.726 3.956-1.145.973-.273 3.406-.411 3.466-1.818.075-1.723-1.88-1.15-2.911-.887zm-90.637 11.34c2.847-1.688 6.491-2.904 10.157-2.723 1.63.082 3.612.667 3.858 1.758.397 1.766-2.049 3.695-2.985 4.38-4.281 3.128-10.291 3.97-16.68 4.425.405-3.866 2.86-6.187 5.65-7.84z" fill="#8F7ECE"/><path opacity=".75" fill-rule="evenodd" clip-rule="evenodd" d="M174.729 566.736c-3.709.943-7.278 1.881-10.447 3.326-4.327 1.972-8.05 4.622-11.501 7.244-7.278 5.529-13.617 11.781-20.873 17.119-3.611 2.657-7.403 5.169-12.07 6.565-4.624 1.383-10.018 2.149-16.278 1.628-6.12-.508-11.664-1.894-16.083-4.098-4.32-2.155-7.95-4.96-9.023-10.085 7.139-.351 14.117-1.753 18.815-5.418 1.709-1.332 4.172-4.19 3.134-6.963-1.164-3.109-6.05-3.472-9.652-2.979-2.67.369-4.88 1.282-6.73 2.239-4.129 2.14-7.354 4.922-8.264 10.678-8.933-.038-17.45-1.2-24.237-3.559-6.92-2.405-12.416-6.097-16.342-10.97-2.026-2.51-3.561-5.374-3.67-9.216-.127-4.445 1.62-7.647 3.722-10.058 1.716-1.969 3.735-3.49 6.051-4.661 0 0 1.457-3.205 1.46-3.228-.552.062-1.758.482-2.48.858-3.129 1.62-5.747 3.712-7.807 6.39-2.196 2.861-3.695 6.872-3.422 11.11.267 4.119 1.707 7.191 3.842 9.94 4.066 5.236 9.758 9.239 17.203 11.911 7.356 2.638 16.14 4.045 25.85 4.019 1.393 7.722 8.165 12.094 16.032 14.482 6.494 1.971 14.092 2.613 20.523 1.971 2.131-.211 4.145-.73 6.221-.943 2.058-.213 4.242-.468 6.5-.527 4.646-.122 9.655.365 14.074.143 2.226-.113 4.381-.405 6.434-.689 6.964-.967 14.022-2.825 19.773-5.569.997-.477 2.063-.937 2.047-1.787-.038-2.128-3.535-.116-4.101.11a77.085 77.085 0 01-14.298 4.164c-6.877 1.295-14.593 1.598-22.766 1.135 8.964-5.058 16.117-12.05 24.073-18.567 5.752-4.714 11.708-9.49 19.779-11.865 1.204-.354 2.462-.726 3.956-1.145.973-.273 3.406-.411 3.466-1.818.075-1.723-1.88-1.15-2.911-.887zm-90.637 11.34c2.847-1.688 6.491-2.904 10.157-2.723 1.63.082 3.612.667 3.858 1.758.397 1.766-2.049 3.695-2.985 4.38-4.281 3.128-10.291 3.97-16.68 4.425.405-3.866 2.86-6.187 5.65-7.84z" fill="#fff"/><path fill-rule="evenodd" clip-rule="evenodd" d="M172.27 591.025c-2.736 1.394-5.472 2.787-8.215 4.247.309.838.582 1.669.962 2.518 3.368-1.367 10.06-3.62 13.811-7.32 1.517-1.495 2.78-4.169.435-5.859-2.154-1.549-7.115.441-7.541 3.56-.138.993.249 1.792.548 2.854z" fill="#8F7ECE"/><path fill-rule="evenodd" clip-rule="evenodd" d="M173.97 590.062c.72.074 3.274-1.073 2.756-2.011-.345-.624-1.345-.028-1.945.274-.459.234-1.609.541-1.459 1.281.078.403.45.436.648.456zm3.546-4.894c-.667-.393-1.645.383-1.377 1.008.338.777 2.534-.319 1.377-1.008z" fill="#fff"/><path fill-rule="evenodd" clip-rule="evenodd" d="M177.417 568.954a521.189 521.189 0 01-8.963 2.262c-.327-.833-.671-1.636-.95-2.521 3.428-1.209 9.934-3.959 15.194-3.676 2.126.118 4.845 1.281 4.208 4.099-.586 2.588-5.62 4.386-8.006 2.335-.758-.653-1.001-1.504-1.483-2.499z" fill="#8F7ECE"/><path fill-rule="evenodd" clip-rule="evenodd" d="M179.329 568.547c.489-.533 3.163-1.366 3.398-.32.156.694-.991.914-1.64 1.082-.498.126-1.562.661-1.942.008-.205-.353.051-.621.184-.77zm5.9 1.316c-.236.733-1.486.801-1.696.155-.267-.804 2.108-1.439 1.696-.155z" fill="#fff"/></svg>