<svg width="630" height="1760" fill="none" xmlns="http://www.w3.org/2000/svg"><path d="M79.9 1528.84l8.659 3.41c.146.06.308.07.46.03a.76.76 0 00.388-.25.732.732 0 00.047-.87l-4.746-7.3a.75.75 0 01.08-.92l4.778-5.09a.735.735 0 00.091-.89.756.756 0 00-.366-.31.774.774 0 00-.476-.02l-6.861 2.02a.746.746 0 01-.467-.02.682.682 0 01-.365-.29l-3.414-5.25a.787.787 0 00-.333-.28.709.709 0 00-.431-.04.737.737 0 00-.587.58L75 1520.28a.777.777 0 01-.52.57l-6.423 1.88a.808.808 0 00-.375.26.735.735 0 00-.04.86c.085.13.208.23.352.29l5.225 2.06a.731.731 0 01.456.83l-1.422 7.26c-.031.16-.01.32.06.47.071.14.187.26.33.34.143.07.307.1.466.07a.752.752 0 00.414-.23l5.562-5.92a.793.793 0 01.38-.22.722.722 0 01.434.04z" fill="#864FF1"/><path d="M40.481 1499.82l8.66 3.41c.147.06.308.07.46.03a.7.7 0 00.388-.25.732.732 0 00.047-.87l-4.747-7.3a.75.75 0 01.082-.92l4.777-5.09a.736.736 0 00.091-.89.756.756 0 00-.366-.31.774.774 0 00-.476-.02l-6.861 2.02a.682.682 0 01-.467-.02.682.682 0 01-.365-.29l-3.414-5.25a.787.787 0 00-.333-.28.71.71 0 00-.431-.04.736.736 0 00-.587.58l-1.357 6.93a.776.776 0 01-.52.57l-6.423 1.88a.808.808 0 00-.375.26.736.736 0 00-.04.86c.085.13.208.23.352.29l5.225 2.06c.162.06.296.18.38.34.082.15.11.32.076.49l-1.422 7.26a.746.746 0 00.856.88.752.752 0 00.414-.23l5.562-5.92a.793.793 0 01.38-.22.722.722 0 01.434.04z" fill="#FFC652"/><path d="M28.444 1554.15l.61 9.29c.011.16.071.31.172.43.101.12.238.21.39.24.154.04.315.03.46-.03a.718.718 0 00.352-.3l4.57-7.41c.088-.14.22-.25.376-.31a.803.803 0 01.485-.01l6.64 2.15a.71.71 0 00.477-.01.696.696 0 00.374-.29c.089-.14.13-.3.119-.46a.75.75 0 00-.186-.44l-4.755-5.34a.745.745 0 01-.185-.43.764.764 0 01.108-.46l3.287-5.33a.746.746 0 00-.38-1.09.713.713 0 00-.434-.02l-6.837 1.73a.776.776 0 01-.4-.01.687.687 0 01-.337-.22l-4.45-5a.75.75 0 00-.39-.23.774.774 0 00-.452.04.744.744 0 00-.345.29.768.768 0 00-.11.44l.37 5.61a.76.76 0 01-.14.49.727.727 0 01-.42.28l-7.167 1.81a.73.73 0 00-.396.26.738.738 0 00-.029.89c.092.13.226.23.379.28l7.731 2.5c.142.05.266.13.358.25.091.12.145.26.155.41z" fill="#FF6551"/><path d="M375.021 1398.5l-8.66 3.41a.726.726 0 01-.46.03.7.7 0 01-.388-.25.733.733 0 01-.047-.87l4.746-7.3a.746.746 0 00.117-.47.742.742 0 00-.198-.45l-4.777-5.09a.717.717 0 01-.198-.43.757.757 0 01.473-.77.772.772 0 01.475-.02l6.862 2.02c.154.04.317.04.467-.02.15-.05.278-.15.365-.29l3.414-5.25a.788.788 0 01.332-.28.711.711 0 01.432-.04c.145.02.279.1.383.2.105.1.176.24.204.38l1.357 6.93a.777.777 0 00.52.57l6.423 1.88c.148.05.28.14.375.26a.733.733 0 01.039.86.767.767 0 01-.351.29l-5.225 2.06a.725.725 0 00-.379.33.75.75 0 00-.078.5l1.423 7.26c.031.16.009.32-.061.47a.81.81 0 01-.329.34c-.144.07-.307.1-.466.07a.755.755 0 01-.415-.23l-5.562-5.92a.787.787 0 00-.378-.22.72.72 0 00-.435.04z" fill="#864FF1"/><path d="M410.841 1364.08l-8.66 3.42a.725.725 0 01-.46.03.762.762 0 01-.388-.25.732.732 0 01-.166-.43.763.763 0 01.119-.45l4.747-7.3c.09-.14.131-.3.117-.47a.749.749 0 00-.199-.44l-4.777-5.09a.744.744 0 01-.091-.9.735.735 0 01.366-.3.708.708 0 01.476-.02l6.861 2.02c.154.04.318.04.467-.02a.73.73 0 00.365-.29l3.414-5.25a.726.726 0 01.333-.28.795.795 0 01.431-.05c.145.03.279.1.383.21.105.1.176.23.205.38l1.356 6.92c.026.14.089.26.18.36.092.1.209.17.34.21l6.423 1.89c.149.04.28.13.375.26a.733.733 0 01.039.86.767.767 0 01-.351.29l-5.225 2.06a.725.725 0 00-.379.33.741.741 0 00-.077.5l1.422 7.26a.735.735 0 01-.39.8.687.687 0 01-.466.07.682.682 0 01-.414-.22l-5.562-5.92a.722.722 0 00-.379-.22.804.804 0 00-.435.03z" fill="#FFC652"/><path d="M447.945 1388.52l-.611 9.29a.745.745 0 01-.172.43.755.755 0 01-.85.21.72.72 0 01-.352-.3l-4.57-7.41a.734.734 0 00-.86-.32l-6.641 2.15a.708.708 0 01-.476-.01.744.744 0 01-.374-.29.751.751 0 01-.119-.46.72.72 0 01.186-.44l4.754-5.35a.747.747 0 00.185-.43.717.717 0 00-.108-.45l-3.287-5.33a.737.737 0 01.034-.83.735.735 0 01.781-.28l6.836 1.73c.132.03.27.03.4-.01s.247-.12.337-.22l4.451-5a.69.69 0 01.39-.23.7.7 0 01.451.04c.143.06.264.16.345.29.082.13.12.29.11.44l-.369 5.61c-.011.17.038.34.14.48.102.14.251.24.419.29l7.167 1.81c.157.04.296.13.397.26a.733.733 0 01.029.89.759.759 0 01-.379.28l-7.732 2.5a.69.69 0 00-.357.25.75.75 0 00-.155.41z" fill="#FF6551"/><path d="M300.125 1384.72c-.147 0-.293-.03-.428-.09a1.053 1.053 0 01-.358-.25 158.423 158.423 0 00-10.767-10.51c-1.859.48-3.323.9-4.865 1.35-2.273.65-4.623 1.33-8.602 2.3a1.074 1.074 0 01-1.319-1.17c.027-.23.126-.45.285-.61 4.682-4.99 7.027-7.92 9.743-11.31.305-.38.615-.77.934-1.17-.611-1.82-2.61-7.72-4.042-11.11a1.084 1.084 0 01-.058-.66 1.096 1.096 0 01.942-.83c.224-.02.45.03.644.15a67.551 67.551 0 0011.25 5.22l8.61-7.75c.169-.16.381-.25.607-.27.227-.03.454.02.651.14.196.11.351.28.443.49.091.21.114.44.066.66l-2.485 11.35a73.81 73.81 0 0112.222 3.98c.2.09.37.23.486.42.117.18.174.4.166.61-.009.22-.084.43-.214.61-.131.17-.311.3-.517.37-4.391 1.47-8.89 2.79-13.389 3.9l1.064 13.02c.013.15-.006.3-.054.44a.973.973 0 01-.226.37c-.1.11-.222.2-.358.26-.136.06-.283.09-.431.09zm-11.267-13.1c.261 0 .513.09.709.27 3.181 2.8 6.28 5.75 9.24 8.81l-.891-10.89c-.021-.26.05-.51.199-.72.15-.21.369-.35.617-.41 3.786-.92 7.577-1.98 11.307-3.16a69.299 69.299 0 00-10.166-3 1.091 1.091 0 01-.831-.86 1.08 1.08 0 01.008-.42l1.999-9.13-6.602 5.94c-.143.13-.317.22-.505.26-.188.04-.383.02-.565-.04a69.592 69.592 0 01-9.579-4.15c1.515 4 3.091 8.77 3.173 9.02.056.17.069.36.037.53-.032.18-.108.34-.22.48-.449.56-.879 1.1-1.299 1.62-2.224 2.78-4.203 5.25-7.399 8.78 2.004-.53 3.53-.97 5.021-1.4 1.709-.49 3.323-.96 5.487-1.5.085-.02.172-.03.26-.03zm283.349 283.6a.936.936 0 01-.524-.53c-1.588-4-3.386-7.98-5.348-11.82-1.643-.21-2.952-.33-4.33-.45-2.033-.19-4.134-.38-7.634-.86a.948.948 0 01-.523-.26.92.92 0 01-.17-1.09.943.943 0 01.421-.41c5.328-2.53 8.133-4.14 11.38-6.01.365-.21.736-.43 1.117-.65.083-1.66.332-7.03.245-10.2a.92.92 0 01.16-.54.892.892 0 01.449-.35.855.855 0 01.569-.02c.187.05.352.16.473.31a58.574 58.574 0 007.396 7.74l9.354-3.52a.936.936 0 01.573-.03c.189.05.356.16.478.32.122.15.192.34.2.54a.944.944 0 01-.155.55l-5.562 8.33a62.538 62.538 0 018.568 7.05.924.924 0 01.199 1.03.875.875 0 01-.361.41.911.911 0 01-.533.14c-3.991-.19-8.018-.55-11.983-1.07l-3.235 10.79a.86.86 0 01-.181.33.97.97 0 01-.3.24c-.115.05-.24.08-.368.09-.128 0-.256-.02-.375-.06zm-4.934-14.07c.21.08.382.23.486.44a137.99 137.99 0 014.652 9.98l2.708-9.03a.926.926 0 011.011-.65c3.33.45 6.709.79 10.077 1.01a61.159 61.159 0 00-7.225-5.6 1.024 1.024 0 01-.257-.26.909.909 0 01-.14-.69.956.956 0 01.138-.34l4.475-6.7-7.172 2.7c-.155.05-.323.07-.486.04a.919.919 0 01-.441-.21 60.076 60.076 0 01-6.393-6.34c-.041 3.69-.274 8.02-.286 8.25a.91.91 0 01-.136.43.978.978 0 01-.329.32c-.536.31-1.049.6-1.551.89-2.661 1.53-5.028 2.9-8.703 4.72 1.775.21 3.139.34 4.473.46 1.528.14 2.971.28 4.88.52.075.01.148.03.219.06zm-390.074 70.84c-1.309-1.73-3.139-3-5.222-3.62a10.208 10.208 0 00-6.348.2 1.32 1.32 0 00-.873 1.43 6.531 6.531 0 00-3.229 2.03 6.503 6.503 0 00-1.527 3.5c-.489 4.37 2.745 7.91 6.516 9.55 3.827 1.66 8.27 2.11 10.913-1.7a10.114 10.114 0 00-.23-11.39zm-3.179 11.23c-1.638 1.09-3.811.45-5.52-.14a9.737 9.737 0 01-4.703-3.14c-1.081-1.46-1.674-3.52-.932-5.25.312-.78.882-1.43 1.613-1.83a3.654 3.654 0 012.402-.41 1.341 1.341 0 001.311-.47c.155-.18.257-.41.294-.65.037-.25.008-.49-.085-.72a7.344 7.344 0 013.841.6 7.318 7.318 0 012.994 2.48c1.852 2.77 1.801 7.52-1.215 9.53zm-8.052-36.35a7.042 7.042 0 00-4.833-.61 7.013 7.013 0 00-4.083 2.66 1.04 1.04 0 00-.227.51c-.031.18-.012.38.053.55.066.18.176.34.321.46.144.13.318.21.504.25a5.775 5.775 0 00-.636 3.85 5.772 5.772 0 001.959 3.38 6.123 6.123 0 002.48 1.22c.907.21 1.85.22 2.761.02.91-.2 1.765-.6 2.5-1.17a6.172 6.172 0 001.749-2.14c1.538-3.09.589-7.29-2.548-8.98zm.585 6.81c-.505 2.27-3.042 3.89-5.242 2.7a3.46 3.46 0 01-1.227-1.15 3.409 3.409 0 01-.223-3.25c.238-.52.601-.97 1.058-1.3.278-.22.467-.53.53-.87.062-.35-.006-.71-.192-1a4.103 4.103 0 012.143-.08 4.182 4.182 0 013.153 4.95zm22.192.88c-1.372-3.52-5.452-6.5-9.168-4.82-.131.06-.252.15-.355.25-.52.16-1.004.42-1.429.77a5.195 5.195 0 00-1.468 2.14 5.222 5.222 0 00-.254 2.58 7.258 7.258 0 002.486 4.45 7.25 7.25 0 004.791 1.73c3.548-.13 6.805-3.5 5.397-7.1zm-6.401 4.43a4.69 4.69 0 01-2.502-1.38 4.676 4.676 0 01-1.226-2.58c-.208-2.91 2.594-2.88 4.707-2.62.138.02.277.02.412-.01a6.453 6.453 0 012.688 3.32c.637 2.29-2.223 3.64-4.079 3.27zm-74.929-238.89a1.31 1.31 0 01-.441-.08c-.14-.06-.267-.15-.373-.26l-12.882-13.08-14.997 6.47c-.217.09-.458.12-.69.07a1.119 1.119 0 01-.602-.35 1.144 1.144 0 01-.166-1.31l7.421-13.91-9.645-11.29a1.135 1.135 0 01-.142-1.27 1.123 1.123 0 011.134-.6l14.532 1.59 9.247-18.57c.108-.22.282-.39.497-.5.215-.11.46-.15.699-.12a1.138 1.138 0 01.954.95l3.117 19.75 15.47 5.38c.224.08.419.22.556.42a1.128 1.128 0 01-.003 1.32c-.139.2-.334.34-.559.42l-14.171 4.84 2.177 18.86c.019.16.004.32-.045.48a1.14 1.14 0 01-1.088.79zm-13.43-15.92c.15 0 .3.03.44.09s.267.14.373.25l11.102 11.28-1.902-16.48c-.031-.26.029-.52.168-.74.139-.22.35-.38.596-.47l11.908-4.07-12.988-4.52a1.229 1.229 0 01-.501-.34 1.145 1.145 0 01-.251-.56l-2.667-16.89-8.01 16.08c-.104.21-.27.38-.475.49-.205.12-.44.16-.672.14l-12.459-1.37 8.28 9.69c.148.18.242.39.266.62.025.23-.02.46-.128.66l-6.252 11.72 12.72-5.49c.142-.06.296-.09.451-.09zm440.723-43.16c7.301-.93 14.603-1.87 21.904-2.81 1.503-.19 1.642 2.16.144 2.35l-21.904 2.81c-1.503.2-1.641-2.15-.144-2.35zm-1.984 5.7c9.61-1.03 19.22-2.05 28.83-3.08 1.507-.16 1.648 2.19.144 2.35-9.61 1.03-19.22 2.05-28.83 3.08-1.507.16-1.648-2.19-.144-2.35zm1.337 6.91a124.837 124.837 0 0125.58-3.68c1.512-.06 1.662 2.29.145 2.35-8.421.32-16.786 1.51-24.961 3.56-1.461.36-2.234-1.86-.764-2.23z" fill="#49B3F7"/><path d="M541.784 1437.46c-.172 0-.343-.04-.498-.12a1.043 1.043 0 01-.398-.32 1.14 1.14 0 01-.214-.97c.837-3.5 1.307-7.07 1.402-10.66-4-.18-8.5-.64-12.601-2.31-4.945-2.01-8.648-5.59-10.157-9.82a13.414 13.414 0 01-.856-5.73c.134-1.95.693-3.85 1.636-5.56 3.752-7 12.971-11.43 19.726-13.11 9.033-2.24 18.131-2.5 23.146-1.77l.35.05c4.463.65 9.08 1.32 12.751 4.71 4.045 3.72 5.286 10.32 3.018 16.02-1.874 4.72-5.967 8.88-11.523 11.7-4.662 2.37-9.741 3.62-14.687 4.77-1.141 5.47-5.754 9.36-10.406 12.88-.198.16-.44.24-.689.24zm-1.411-46.38c-6.798 1.69-15.083 6.04-18.264 11.97a11.235 11.235 0 00-.642 9.44c1.292 3.62 4.523 6.71 8.867 8.48 4.145 1.68 8.669 2.04 12.939 2.18.297.01.579.13.785.34.206.22.321.51.319.8a53.847 53.847 0 01-.838 9.2c3.554-2.91 6.627-6.15 7.216-10.25.033-.23.134-.44.29-.61.155-.17.358-.29.582-.34 5.044-1.18 10.259-2.39 14.905-4.75 5.06-2.57 8.767-6.31 10.434-10.51 1.927-4.85.922-10.4-2.442-13.5-3.151-2.91-7.222-3.5-11.533-4.13l-.351-.05c-4.634-.67-13.58-.42-22.267 1.73zm-311.279 206.43c-2.512-3.8-7.246-4.24-10.687-6.79-4.185-3.1-5.785-8.55-7.533-13.21-.482-1.29-.965-2.58-1.447-3.86-.479-1.28-.833-2.87-1.683-3.97-1.483-1.9-4.082-.97-5.997-.46a573.235 573.235 0 00-17.735 5.06 549.7 549.7 0 00-19.77 6.4c-.292.1-.53.32-.662.6-.133.29-.149.61-.046.9 3.97 9.21 7.941 18.41 11.912 27.61.061.15.151.28.264.39.112.11.245.2.392.25a1.212 1.212 0 00.919 0c.14.07.294.11.452.12.158.01.316-.02.462-.08l25.368-9.31c2.012-.74 4.022-1.6 6.199-1.61 2.027-.02 4.064.32 6.09.42 4.22.19 8.449-.01 12.63-.6.206-.02.403-.1.571-.22.169-.11.304-.27.392-.46.087-.19.125-.4.109-.6a1.197 1.197 0 00-.2-.58zm-20.207-.3c-2.048.22-4.05.75-5.94 1.57l-25.632 9.41c-3.697-8.57-7.393-17.13-11.09-25.7a566.587 566.587 0 0132.264-9.95c1.351-.38 2.703-.74 4.056-1.1.857-.23 2.632-1.04 3.389-.26.299.48.513 1 .636 1.55.241.64.482 1.28.723 1.93.509 1.36 1.018 2.71 1.527 4.07 1.68 4.49 3.287 9.3 6.805 12.71a19.26 19.26 0 005.939 3.58c1.485.57 2.887 1.34 4.169 2.28-3.427.38-6.878.49-10.321.32-2.164-.11-4.356-.52-6.525-.41z" fill="#49B3F7"/><path d="M198.717 1579.16l-21.228 6.09c-1.457.42-.653 2.63.798 2.22 7.076-2.03 14.151-4.07 21.227-6.1 1.457-.42.653-2.63-.797-2.21zm4.073 4.44c-9.23 2.87-18.459 5.73-27.689 8.6-1.448.45-.647 2.66.797 2.21 9.23-2.86 18.46-5.73 27.69-8.6 1.447-.45.647-2.66-.798-2.21zm1.509 6.87a125.25 125.25 0 00-24.944 6.76c-1.411.55-.619 2.76.797 2.22a121.368 121.368 0 0124.328-6.63c1.486-.24 1.315-2.59-.181-2.35z" fill="#49B3F7"/><path d="M469.209 972.092a12.928 12.928 0 0112.923 13.118l-2.845 197.02a12.956 12.956 0 01-3.851 9.02 12.94 12.94 0 01-9.072 3.72H152.802a7.876 7.876 0 01-5.422-2.16 7.9 7.9 0 01-2.465-5.29l-11.522-201.753a12.932 12.932 0 017.784-12.618 12.91 12.91 0 015.118-1.057h322.914z" fill="#49494A"/><path d="M469.237 977.341a7.522 7.522 0 017.523 7.636l-2.85 197.323a7.524 7.524 0 01-2.242 5.25 7.514 7.514 0 01-5.281 2.17H157.835c-1.92 0-3.768-.74-5.164-2.05a7.552 7.552 0 01-2.347-5.04l-11.267-197.328a7.546 7.546 0 01.442-3.011 7.526 7.526 0 017.069-4.95h322.669z" fill="#5B5B5C"/><path d="M464.37 1178.2H159.517l-10.546-183.012 318.326-.56-2.927 183.572z" fill="#545554"/><path d="M308.693 991.734a6.397 6.397 0 006.395-6.398 6.396 6.396 0 10-12.791 0 6.397 6.397 0 006.396 6.398z" fill="#3F4040"/><path d="M464.807 1178.2H159.954l-10.983-183.012 318.326-.56-2.49 183.572z" fill="#864FF1"/><path d="M467.185 1001.68H149.361l-.39-6.492 318.326-.56-.112 7.052z" fill="#49B3F7"/><path d="M199.967 1048.56a18.999 18.999 0 00-8.864-8.79 18.961 18.961 0 00-12.407-1.35 18.91 18.91 0 00-10.548 6.68 18.913 18.913 0 00-4.095 11.79 18.946 18.946 0 004.139 11.78 18.927 18.927 0 0022.974 5.24 18.934 18.934 0 008.832-8.83l-17.037-8.23 17.006-8.29z" fill="#FFC652"/><path d="M184.654 1048.29a2.626 2.626 0 002.632-2.63 2.632 2.632 0 00-5.265 0c0 1.46 1.179 2.63 2.633 2.63z" fill="#243976"/><path d="M225.07 1046.14s.942-9.02 11.098-9.02c10.157 0 11.567 8.35 11.892 10.76.434 3.21.694 11.97 0 14.92-.218.93-2.516 1.65-6.506-3.64 0 0-2.603 4.45-4.989 4.45-2.299 0-5.075-4.54-5.075-4.54s-5.602 8.33-6.246 3.82c-.954-6.68-.174-16.75-.174-16.75z" fill="#FF6551"/><path d="M232.225 1049.52a3.947 3.947 0 003.944-3.95c0-2.18-1.765-3.94-3.944-3.94a3.94 3.94 0 00-3.944 3.94c0 2.18 1.766 3.95 3.944 3.95zm8.594 0a3.948 3.948 0 003.944-3.95 3.94 3.94 0 00-3.944-3.94 3.94 3.94 0 00-3.944 3.94c0 2.18 1.766 3.95 3.944 3.95z" fill="#fff"/><path d="M230.312 1047.01a1.605 1.605 0 10.001-3.21 1.605 1.605 0 00-.001 3.21zm8.639 0a1.604 1.604 0 10.001-3.211 1.604 1.604 0 00-.001 3.211z" fill="#243976"/><path d="M254.363 1105.51s.941-9.02 11.098-9.02 11.567 8.35 11.892 10.76c.434 3.21.694 11.98 0 14.93-.218.93-2.516 1.65-6.506-3.65 0 0-2.603 4.45-4.989 4.45-2.299 0-5.075-4.53-5.075-4.53s-5.602 8.32-6.246 3.81c-.954-6.68-.174-16.75-.174-16.75z" fill="#49B3F7"/><path d="M261.518 1108.89a3.939 3.939 0 003.944-3.94c0-2.18-1.765-3.95-3.944-3.95a3.948 3.948 0 00-3.944 3.95 3.94 3.94 0 003.944 3.94zm8.594 0a3.94 3.94 0 003.944-3.94c0-2.18-1.766-3.95-3.944-3.95a3.948 3.948 0 00-3.944 3.95 3.94 3.94 0 003.944 3.94z" fill="#fff"/><path d="M259.605 1106.38a1.605 1.605 0 10.001-3.21 1.605 1.605 0 00-.001 3.21zm8.639 0a1.604 1.604 0 10.001-3.209 1.604 1.604 0 00-.001 3.209z" fill="#243976"/><path d="M287.113 1046.07s.941-9.03 11.098-9.03 11.567 8.36 11.892 10.77c.434 3.21.694 11.97 0 14.92-.218.93-2.516 1.65-6.506-3.64 0 0-2.603 4.45-4.989 4.45-2.299 0-5.075-4.54-5.075-4.54s-5.602 8.33-6.246 3.82c-.954-6.68-.174-16.75-.174-16.75z" fill="#67D449"/><path d="M294.266 1049.45a3.947 3.947 0 003.944-3.95c0-2.18-1.765-3.94-3.944-3.94a3.94 3.94 0 00-3.944 3.94c0 2.18 1.766 3.95 3.944 3.95zm8.596 0a3.948 3.948 0 003.944-3.95 3.94 3.94 0 00-3.944-3.94 3.94 3.94 0 00-3.944 3.94c0 2.18 1.766 3.95 3.944 3.95z" fill="#fff"/><path d="M292.355 1046.94c.887 0 1.606-.72 1.606-1.61 0-.89-.719-1.6-1.606-1.6-.886 0-1.605.71-1.605 1.6 0 .89.719 1.61 1.605 1.61zm8.639 0c.887 0 1.605-.72 1.605-1.61 0-.89-.718-1.6-1.605-1.6s-1.605.71-1.605 1.6c0 .89.718 1.61 1.605 1.61z" fill="#243976"/><path d="M160.305 1086.01l52.405.12m53.056 0v-62.89m-100.246-.82h209.715m0 112.31H214.477m109.537-57.85v57.85" stroke="#5F38BD" stroke-width="15.247" stroke-linecap="round" stroke-linejoin="round"/><path d="M464.807 1178.2H159.954l-10.983-183.012 318.326-.56-2.49 183.572z" stroke="#fff" stroke-width="2" stroke-linecap="round" stroke-linejoin="round"/><path d="M345.828 988.162h-20.546a2.825 2.825 0 110-5.652h20.546a2.825 2.825 0 110 5.652zm-54.639 0h-20.546a2.825 2.825 0 110-5.652h20.546a2.825 2.825 0 110 5.652z" fill="#545554"/><path d="M475.553 1067.58l-1.642 114.72a7.524 7.524 0 01-2.242 5.25 7.514 7.514 0 01-5.281 2.17H259.484c69.428-20.29 158.625-59.28 216.069-122.14z" fill="#00879F" opacity=".15"/><path d="M400.97 977.341c-74.956 44.009-199.424 64.429-258.209 71.999l-3.702-64.038a7.546 7.546 0 01.442-3.011 7.526 7.526 0 017.069-4.95h254.4z" fill="#EBF7FD" opacity=".28"/><path d="M243.19 1168.33c-.372-.2-.799-.01-1.397.26-.229.1-.48.14-.728.12a1.46 1.46 0 01-.694-.26c-.619-.42-1.203-.89-1.747-1.41-.383-.32-.8-.6-1.244-.84a4.566 4.566 0 00-.796-.32c-.13-.04-.328-.08-.425-.1a.32.32 0 01-.076-.02c-.045-.03-.03-.03-.022-.05.008-.01.047-.05.052-.04.014-.01-.017.01.018-.02l.416-.35c.205-.18.41-.36.616-.55l.306-.31.265-.28.524-.56a23.364 23.364 0 003.218-4.27c.232-.41.441-.84.626-1.27.096-.23.202-.43.287-.68.086-.27.15-.55.192-.83a5.92 5.92 0 00-.417-3.17c-.373-.9-.95-1.69-1.685-2.33a4.948 4.948 0 00-2.759-1.18 4.57 4.57 0 00-2.83.74 5.562 5.562 0 00-1.751 1.91c-.451.83-.311 1.49.002 1.7.331.22.795.02 1.356-.55.861-.89 1.939-1.45 2.861-1.28.512.1.987.34 1.377.68.391.35.682.79.844 1.29.21.51.289 1.07.228 1.62a6.085 6.085 0 01-.657 1.69 18.956 18.956 0 01-2.469 3.48c-.353.41-.72.81-1.095 1.2-.348.37-.719.72-1.112 1.04l-1.105.91-.576.51-.513.51c-.526.56-.96 1.2-1.284 1.89a2.45 2.45 0 00-.14 1.59c.048.15.124.3.226.42.059.09.146.15.247.19l.357.03c.094.01.191.02.29.02l.4-.01c.295.01.59-.04.873-.12a5.2 5.2 0 00.846-.41l.835-.45c.115-.06.234-.12.356-.17a.791.791 0 01.298-.1l.223-.01.093.01c.139.02.275.05.408.09.321.12.627.27.914.46.699.51 1.436.98 2.203 1.38.47.22.979.35 1.498.36.533.01 1.059-.11 1.532-.36a1.741 1.741 0 00.948-1.11.618.618 0 00-.213-.69z" fill="#FFC652"/><path d="M249.782 1149.67a6.306 6.306 0 00-2.204 1.86c-.589.79-1.067 1.65-1.42 2.57a16.06 16.06 0 00-1.051 5.56c-.076 2.03.221 4.05.875 5.97a15.44 15.44 0 003.081 5.01c.846.93 2.022-.01 1.379-.96a16.19 16.19 0 01-1.901-4.74 17.205 17.205 0 01-.637-4.76c.03-1.72.306-3.42.819-5.06.24-.74.55-1.45.927-2.14.355-.64.743-1.26 1.162-1.87a1.183 1.183 0 00.099-1.13.783.783 0 00-.203-.26.669.669 0 00-.292-.15.729.729 0 00-.328-.02.83.83 0 00-.306.12z" fill="#67D449"/><path d="M264.008 1165.97a3.99 3.99 0 01-1.576-.1 4.005 4.005 0 01-1.418-.7 2.529 2.529 0 01-.819-.94c-.254-.52-.465-1.07-.633-1.63-.078-.23-.164-.45-.248-.67.655-1.03 1.33-2.03 2.007-3.03.183-.3.409-.58.669-.82.084-.06.19-.09.297-.09.234 0 .469.02.7.06.61.1 1.534-.81.969-1.48a3.082 3.082 0 00-.971-.74 2.653 2.653 0 00-1.687-.2c-.719.2-1.359.61-1.829 1.19-.344.39-.636.76-.928 1.16-.236.32-.452.65-.666.97-.092-.15-.175-.3-.274-.45-.393-.62-.845-1.2-1.35-1.74a4.322 4.322 0 00-.973-.74 2.761 2.761 0 00-.623-.25 2.088 2.088 0 00-.704-.07.678.678 0 00-.34.09.726.726 0 00-.355.79c.075.31.203.6.379.86a17.23 17.23 0 011.558 2.42c.334.6.668 1.24.972 1.88-.072.13-.152.25-.222.38a17.76 17.76 0 01-.891 1.55c-.362.47-.754.92-1.176 1.34-.456.48-.906.98-1.387 1.45-.604.59.242 1.84.995 1.35.56-.36 1.133-.69 1.703-1.03a7.617 7.617 0 001.814-1.32c.159-.17.307-.35.446-.54.061.14.12.27.192.41a4.866 4.866 0 001.888 2.03c.747.4 1.573.63 2.419.67.847.04 1.691-.11 2.472-.43.099-.04.189-.1.264-.17a.925.925 0 00.174-.26.791.791 0 00-.018-.62.799.799 0 00-.83-.58z" fill="#FF6551"/><path d="M377.736 1165.97c-.526.07-1.062.04-1.575-.1a3.988 3.988 0 01-1.418-.7 2.52 2.52 0 01-.819-.94 10.79 10.79 0 01-.634-1.63c-.078-.23-.164-.45-.248-.67.656-1.03 1.331-2.03 2.007-3.03.184-.3.409-.58.67-.82a.51.51 0 01.296-.09c.235 0 .469.02.701.06.61.1 1.534-.81.969-1.48a3.086 3.086 0 00-.972-.74 2.652 2.652 0 00-1.687-.2c-.719.2-1.359.61-1.829 1.19-.344.39-.635.76-.928 1.16-.235.32-.452.65-.666.97-.091-.15-.175-.3-.273-.45-.394-.62-.846-1.2-1.35-1.74a4.345 4.345 0 00-.973-.74 2.77 2.77 0 00-.624-.25 2.088 2.088 0 00-.704-.07.678.678 0 00-.34.09.74.74 0 00-.257.24.73.73 0 00-.098.55c.075.31.204.6.38.86a17.41 17.41 0 011.558 2.42c.333.6.667 1.24.971 1.88-.072.13-.152.25-.222.38-.27.53-.567 1.05-.891 1.55-.361.47-.754.92-1.176 1.34-.456.48-.906.98-1.386 1.45-.605.59.241 1.84.994 1.35.56-.36 1.133-.69 1.703-1.03a7.643 7.643 0 001.815-1.32c.158-.17.307-.35.446-.54.06.14.12.27.191.41a4.866 4.866 0 001.888 2.03 5.7 5.7 0 002.42.67c.846.04 1.691-.11 2.472-.43a.88.88 0 00.264-.17.921.921 0 00.173-.26.79.79 0 00-.017-.62.796.796 0 00-.831-.58z" fill="#FFC652"/><path d="M277.51 1159.37c-.752-.14-1.474-.43-2.233-.51-.714-.08-1.429-.1-2.146-.12-.765-.03-1.531-.01-2.294.06a4.423 4.423 0 00-2.089.39c-.387.23-.521 1.5-.111 1.77 1.242.81 2.857.59 4.19.59.764 0 1.528.01 2.293-.05.773-.06 1.522-.33 2.29-.45.483-.08.605-1.58.1-1.68z" fill="#49B3F7"/><path d="M289.208 1157.79c.122-.19.239-.38.348-.58.468-.92.625-1.97.445-2.98a4.868 4.868 0 00-1.172-2.47 3.847 3.847 0 00-2.548-1.26 4.76 4.76 0 00-2.444.36c-.768.34-1.434.87-1.93 1.55a1.441 1.441 0 00-.234 1.11.647.647 0 00.428.5c.209.02.419-.01.614-.09.196-.07.372-.19.517-.34a3.564 3.564 0 012.651-.59c.353.04.677.22.907.49.257.32.421.7.474 1.1.062.41.007.82-.159 1.2-.129.26-.29.5-.477.72a4.756 4.756 0 00-1.131-.04c-.322.02-.638.1-.94.21-.208.08-.403.19-.583.32a3.35 3.35 0 00-.408.38c-.06.07-.115.13-.166.2-.065.09-.126.17-.18.27-.085.14-.152.3-.201.46-.092.32-.088.65.011.96.055.19.147.37.27.52a2 2 0 00.378.35c.167.11.349.2.541.25a2.673 2.673 0 00.649.09c.581 0 1.156-.12 1.686-.36.235-.11.463-.23.68-.37.173.15.323.33.448.52.547 1.03.679 2.22.368 3.34a3.368 3.368 0 01-.622 1.49c-.354.43-.814.75-1.333.95-.593.2-1.224.28-1.849.22a4.448 4.448 0 01-1.776-.56c-.744-.39-1.355-.45-1.657-.17-.287.26-.224.92.724 1.57a7.72 7.72 0 002.342 1.04c.885.23 1.811.25 2.705.05a5.321 5.321 0 002.532-1.29c.376-.35.693-.76.939-1.2.225-.42.402-.86.527-1.32a7.224 7.224 0 00-.278-5.1 5.377 5.377 0 00-1.096-1.5zm-3.575 1.51z" fill="#FFC652"/><path d="M298.256 1157.03c-.208-1-.547-1.97-1.01-2.89a7.783 7.783 0 00-3.929-3.83.891.891 0 00-.601-.06.936.936 0 00-.505.33.92.92 0 00-.183.58.87.87 0 00.219.56 15.208 15.208 0 012.478 3.55c.59 1.42.958 2.91 1.088 4.44a17.2 17.2 0 01-.316 5.05 12.641 12.641 0 01-1.778 4.71c-.629.85.27 2.08 1.251 1.13a12.96 12.96 0 003.06-5.07c.526-1.81.734-3.69.616-5.56-.048-.99-.179-1.98-.39-2.94z" fill="#67D449"/><path d="M307.685 1158.28c.669-.05 1.339-.07 2.009-.14.672-.06 1.341-.31 2.015-.36.4-.02.838-1.47.321-1.64-.703-.29-1.433-.5-2.178-.64-.692-.07-1.388-.08-2.081-.04-.743.02-1.482.12-2.203.3-.714.07-1.389.36-1.938.82-.322.34.031 1.56.414 1.72 1.149.48 2.459.08 3.641-.02zm5.267 4.34c-.707-.24-1.43-.44-2.164-.58-.682-.06-1.367-.09-2.052-.07a12.33 12.33 0 00-2.188.16 3.79 3.79 0 00-2.059.65c-.418.36.046 1.56.336 1.74.979.59 2.506.32 3.71.26.7-.02 1.4-.03 2.1-.09.703-.07 1.393-.33 2.086-.41.405-.04.765-1.51.231-1.66z" fill="#49B3F7"/><path d="M328.743 1159.15c-.599-.12-1.189-.29-1.768-.48-.23-.05-.482-.1-.735-.14.196-.62.391-1.24.61-1.86l.324-.87.169-.44.085-.22.074-.18.093-.22c.503-1.15 1.004-2.3 1.505-3.45-1.241-.02-2.453-.05-3.637-.04l-.612.01-.352.01-.664.01c-.443.02-.886.03-1.327.06-.871.04-1.736.18-2.577.41-.209.04-.4.14-.538.3a.898.898 0 00-.01 1.16c.136.17.325.28.534.31 1.13.22 2.274.36 3.423.41.298.02.597.03.898.05l.451.02h.066c.008-.01.017-.01.027-.02.017 0 .033 0 .04.03l.003.01c-.009.03.023-.05-.017.06l-.152.41-.291.8c-.364 1-.688 2.02-.975 3.06-.257.01-.513.04-.767.09-.718.02-1.415.25-1.999.67-.144.28-.197.6-.153.91.043.32.182.61.397.84.589.26 1.23.37 1.872.34-.27 1.84-.406 3.7-.407 5.56-.02 1.22 1.469 1.45 1.664.23.313-1.83.858-3.56 1.335-5.34.038-.15.083-.29.123-.43.352.03.718.06 1.113.06a7.52 7.52 0 002.346-.46c.516-.17.183-1.65-.171-1.67z" fill="#FFC652"/><path d="M337.733 1168.93a19.55 19.55 0 01-1.071-2.38c-.6-1.53-.947-3.15-1.026-4.79-.057-1.76.188-3.51.724-5.18.588-1.52 1.286-3 2.089-4.42.403-.81-.317-1.9-1.288-1.22a10.443 10.443 0 00-3.372 4.63 15.784 15.784 0 00.399 11.92c.442.94 1.005 1.82 1.673 2.61a9.822 9.822 0 002.317 2.13.84.84 0 00.704.18.74.74 0 00.342-.15.823.823 0 00.247-.28.866.866 0 00.052-.59.888.888 0 00-.335-.5 6.523 6.523 0 01-1.455-1.96z" fill="#67D449"/><path d="M351.728 1166.32c-.374-.2-.812.01-1.315.3a2.53 2.53 0 01-1.526.28 6.024 6.024 0 01-1.768-.49c-.3-.13-.605-.28-.915-.44a10.24 10.24 0 00-1.111-.52 5.537 5.537 0 00-.683-.23c-.128-.03-.25-.06-.39-.08l-.052-.01h-.004l-.004-.01c-.006 0-.01-.01-.013-.02.005-.01.01-.01.017-.02.016-.02.013-.01.011-.01l1.889-2.07a15.233 15.233 0 002.839-4.11c.355-.87.544-1.79.556-2.72a5.296 5.296 0 00-.763-2.89 3.796 3.796 0 00-1.064-1.1c-.423-.29-.899-.5-1.402-.6a4.673 4.673 0 00-2.717.22 4.98 4.98 0 00-2.061 1.5c-.5.59-.874 1.28-1.1 2.03-.24.82.039 1.4.388 1.53.368.14.784-.1 1.179-.69a4.735 4.735 0 012.347-1.95c.421-.13.868-.15 1.298-.05.158.03.308.09.44.18s.243.21.324.35a3.74 3.74 0 01.035 2.88 10.569 10.569 0 01-1.951 3.04c-.365.43-.756.86-1.152 1.3l-1.249 1.38c-.361.43-.721.85-1.063 1.28-.323.38-.597.79-.815 1.23a2.289 2.289 0 00-.134 1.93c.094.2.217.37.365.53a.9.9 0 00.372.24c.155.03.204-.02.361-.03.092 0 .245.05.572.05.088 0 .177 0 .264-.02.106-.01.211-.03.314-.06l.376-.14a2.9 2.9 0 00.398-.24l.366-.24c.099-.07.205-.13.316-.18.044 0 .088 0 .131.01h.045c.028 0 .061.01.092.01.14.02.278.04.413.08.327.09.649.2.965.32.36.13.739.27 1.126.38.799.25 1.633.38 2.471.37.9 0 1.78-.26 2.531-.76a1.56 1.56 0 00.72-1.1.622.622 0 00-.039-.36.61.61 0 00-.23-.28zm13.679-7.74c-.87-.07-1.721-.28-2.594-.29-.402-.01-.802 0-1.201.02a9.54 9.54 0 00-.118-.99 3.666 3.666 0 00-.665-2.06c-.343-.38-1.558.01-1.74.34a5.388 5.388 0 00-.3 2.92c-.347.04-.695.08-1.042.14a5.79 5.79 0 00-2.343.59c-.418.27-.446 1.54.048 1.77 1.127.42 2.343.53 3.526.32.006.05.006.09.014.14.163.77.415 1.51.751 2.22.232.52 1.651-.01 1.647-.33-.007-.57.214-1.24.249-1.91.006-.12.005-.25.009-.38.416-.04.831-.08 1.246-.15.874-.13 1.702-.48 2.565-.68.543-.12.534-1.63-.052-1.67zm19.436-4.14c-.945-1.67-2.195-3.36-3.894-4.18-.991-.45-1.797.54-1.173 1.33a25.923 25.923 0 012.586 4.07 13.522 13.522 0 011.381 4.66c.135 1.78-.044 3.58-.53 5.31a18.654 18.654 0 01-2.042 5.11c-.635.98.39 2.1 1.312 1.05a17.368 17.368 0 003.219-5.26c.67-1.9.968-3.92.877-5.93-.085-2.16-.68-4.27-1.736-6.16zm-30.543-62.5c-.593-.11-1.169-.36-1.767-.4a8.263 8.263 0 00-.703-.03c.134-1.41.307-2.81.378-4.24l.231-5.2.074-1.12.117-1.4.06-.7a2.438 2.438 0 00-.067-.52l-.088-.48c-.033-.15-.046-.37-.115-.39-.271-.26-.279-.53-.997-.76a.945.945 0 00-.527 0c-.054.01-.155.04-.238.07-.103.03-.203.07-.297.12-.37.19-.695.45-.952.77-.406.6-.867 1.17-1.377 1.68-.28.3-.354.34-.469.46l-.348.31c-.469.4-.942.78-1.445 1.14-.161.12-.287.28-.368.46-.08.19-.112.39-.091.59.014.11.051.21.109.3.058.1.134.18.225.24s.194.1.302.12c.108.02.219.02.325-.01a6.07 6.07 0 002.304-.78c.187-.1.359-.22.537-.34.089-.06.171-.12.257-.19l.128-.09c-.009.01.004.01.004.01.008 0 .016 0 .022.01.006 0 .011.01.014.02.002.04-.008.01.033-.04.03-.04.065-.02.078.06l-.053 1.28-.04 1.41c-.018.95-.019 1.89.008 2.83.042 1.51.23 2.97.379 4.44-.297.02-.593.06-.885.12-.576 0-1.138.17-1.62.49a1.787 1.787 0 00-.018 1.77c1.002.75 2.257.46 3.3.39.6-.02 1.198-.07 1.792-.16.602-.09 1.178-.4 1.774-.56.375-.1.413-1.61.014-1.68zm11.111.06c-.593-.1-1.169-.35-1.766-.4-.235-.02-.469-.02-.704-.02.134-1.42.307-2.81.378-4.24l.231-5.2.074-1.13.117-1.4.06-.69a2.359 2.359 0 00-.067-.52l-.088-.49c-.032-.15-.046-.36-.114-.39-.272-.25-.279-.53-.998-.75a.863.863 0 00-.527-.01c-.054.01-.155.05-.238.07-.103.03-.203.07-.297.13-.37.18-.695.44-.951.77-.406.6-.868 1.16-1.378 1.68-.28.3-.354.34-.469.46l-.348.31c-.469.4-.942.77-1.445 1.14-.16.11-.287.27-.368.46-.08.18-.111.38-.091.58.014.11.052.22.109.31.058.09.135.17.226.23.09.07.193.11.301.13.108.02.219.01.326-.02.813-.1 1.597-.36 2.303-.78.187-.1.359-.22.537-.33.089-.06.172-.13.258-.19l.127-.1c-.009.01.004.01.004.01.008 0 .016.01.022.01.007.01.011.02.014.02.002.05-.008.01.034-.03.029-.04.064-.03.077.05l-.053 1.28-.04 1.42c-.017.94-.018 1.89.008 2.83.042 1.51.231 2.96.379 4.44-.297.02-.592.06-.885.12-.575 0-1.138.17-1.619.49a1.795 1.795 0 00-.019 1.77c1.002.75 2.257.45 3.3.39.6-.02 1.198-.08 1.793-.16.602-.1 1.177-.4 1.774-.57.375-.1.412-1.6.013-1.68z" fill="#FFC652"/><path d="M381.881 1086.24c-1.012-.11-1.994-.37-3.013-.42-.337-.01-.674-.02-1.011-.02a21.93 21.93 0 00-.067-1.64c-.072-.83-.351-1.63-.486-2.46-.085-.52-1.585-.67-1.675-.12-.134.81-.407 1.6-.482 2.43-.054.6-.068 1.21-.078 1.82-.712.01-1.422.05-2.134.13a7.69 7.69 0 00-2.767.48c-.502.24-.605 1.52-.04 1.77 1.511.67 3.362.52 5.002.44.007.06.006.13.013.2-.028.77.114 1.54.416 2.25.239.41 1.508.49 1.771.04.418-.81.618-1.71.582-2.61.302-.02.605-.03.907-.06 1.028-.09 2.012-.4 3.031-.55.64-.1.712-1.61.031-1.68z" fill="#49B3F7"/><path d="M394.524 1084.58a5.35 5.35 0 00.553-2.52 5.056 5.056 0 00-.801-2.57 4.95 4.95 0 00-2.013-1.8 3.99 3.99 0 00-2.699-.25c-.832.22-1.571.7-2.1 1.38-.243.29-.368.67-.349 1.06a.681.681 0 00.341.56c.366.16.759-.01 1.214-.32.344-.25.747-.4 1.168-.43.422-.04.845.04 1.224.23.373.22.682.54.901.91.219.38.34.81.352 1.24.004.35-.064.7-.201 1.02a3.553 3.553 0 00-.562-.07 3.35 3.35 0 00-1.903.49c-.319.2-.596.46-.816.76-.293.39-.456.87-.467 1.35-.002.35.083.68.249.98.17.31.422.57.728.74.413.23.885.34 1.356.29.343-.02.679-.1.996-.23.078-.04.164-.08.239-.12l.16-.09c.107-.06.212-.12.313-.19.106-.07.204-.15.307-.23.15.21.284.42.401.64.555 1.03.681 2.24.35 3.35a3.758 3.758 0 01-.872 1.45 3.84 3.84 0 01-1.412.93c-.567.18-1.175.2-1.749.04a3.065 3.065 0 01-1.486-.93c-.502-.55-.932-.92-1.351-.89-.199.02-.365.17-.432.5-.042.48.101.97.4 1.35.55.77 1.299 1.38 2.168 1.76.891.39 1.878.51 2.837.35.949-.18 1.84-.59 2.592-1.19a5.885 5.885 0 001.719-2.28 6.756 6.756 0 00-.073-5.22 7.357 7.357 0 00-1.282-2.05z" fill="#FFC652"/><path d="M413.35 1082.8a.57.57 0 00-.393-.16c-.477.04-1.164-.18-2.113-.26a3.451 3.451 0 00-1.733.32c-.311.16-.592.37-.832.62-.183.2-.349.41-.496.64-.575.87-1.147 1.7-1.766 2.49-.354-.51-.751-.99-1.188-1.43a5.677 5.677 0 00-2.113-1.43 3.807 3.807 0 00-1.337-.23c-.219.03-.434.07-.64.12l-.303.08c-.092.05-.181.1-.268.15a.934.934 0 00-.348.42.97.97 0 00.182 1.04c.127.14.292.24.473.28.231.04.459.09.679.17.097.04.191.08.282.13.096.03.185.08.263.15a4.7 4.7 0 011.061.95c.483.58.925 1.19 1.323 1.83a49.24 49.24 0 01-1.76 1.78c-.951.82-1.956 1.59-3.007 2.28-.539.38-.639 1.7.411 1.72a7.283 7.283 0 004.327-1.85c.543-.44 1.06-.91 1.548-1.41.164.26.328.52.513.79l.387.51c.147.17.312.34.47.5.328.33.695.61 1.095.84.842.52 1.84.71 2.812.55a3.34 3.34 0 002.298-1.67.765.765 0 00.008-.74.605.605 0 00-.214-.21.604.604 0 00-.284-.11 1.242 1.242 0 00-.922.15c-.132.14-.294.24-.474.31-.181.06-.374.09-.564.06-.427-.08-.83-.26-1.173-.53-.2-.14-.387-.3-.559-.48-.175-.19-.338-.4-.489-.61-.344-.5-.662-1.02-.953-1.55.93-1.11 1.747-2.32 2.441-3.6.089-.18.192-.37.308-.54a.929.929 0 01.56-.28c.599-.14 1.428-.07 2.354-.29a.882.882 0 00.344-.17.779.779 0 00.226-.31c.033-.1.044-.2.032-.3a.733.733 0 00-.097-.29 1.692 1.692 0 00-.371-.43z" fill="#FF6551"/><path d="M428.429 1083.67c-.873-.24-1.764-.42-2.665-.53a17.06 17.06 0 00-2.577.08c-.913.07-1.818.24-2.699.49-.835.13-1.625.47-2.303.97-.372.35-.118 1.6.395 1.73 1.542.38 3.174-.19 4.637-.36.829-.11 1.663-.17 2.501-.26.843-.1 1.671-.36 2.538-.45.538-.05.772-1.54.173-1.67zm-.175 5.64c-.674-.31-1.375-.55-2.094-.73-.693-.11-1.394-.15-2.094-.13-.747 0-1.492.09-2.217.26a3.64 3.64 0 00-1.893.77c-.128.29-.167.61-.11.92.056.32.204.6.425.83 1.215.52 2.483.1 3.634.04.649-.04 1.299-.03 1.958-.06.663-.03 1.339-.24 2.032-.26.428-.01.828-1.47.359-1.64z" fill="#49B3F7"/><path d="M436.998 1083.46a4.706 4.706 0 00-2.352.22c-.468.17-.392.16-.406.16l-.02.02c-.012.02-.04.07-.066.05-.018-.01-.02-.02-.03-.05l-.008-.04-.004-.03c.001-.01-.004.01.002-.03l.027-.15.216-1.26.117-.67c.036-.21.097-.53.081-.48 0-.08.009-.16.026-.23.037.01.074.01.111.01l.064.01h.034c.02 0-.014-.01.082.01.519.07 1.042.09 1.566.07.97-.04 1.931-.2 2.86-.48 1.49-.46 1.562-1.76-.121-1.77-.869-.02-1.745-.04-2.595-.12-.417-.04-.83-.11-1.239-.2a2.935 2.935 0 01-.577-.15c-.237-.07-.472-.14-.716-.23-.488-.17-.978-.35-1.471-.53l-.902 4.09-.753 3.67c-.082.4-.071.81.033 1.2.071.27.198.52.374.74.103.12.224.24.358.33.131.09.275.16.427.2.201.06.41.08.617.06.398-.03.778-.18 1.096-.42.394-.34.82-.65 1.273-.9l.271-.14.124-.05c.077-.03.152-.06.227-.08.138-.04.281-.07.425-.08a2.427 2.427 0 012.23 1.63c.448 1.17.521 2.44.211 3.65a3.448 3.448 0 01-.786 1.48c-.402.42-.907.72-1.463.88-.62.17-1.272.2-1.903.08a4.256 4.256 0 01-1.734-.79c-.684-.51-1.27-.69-1.626-.49-.333.19-.402.9.492 1.73.672.6 1.456 1.07 2.309 1.38.893.31 1.849.41 2.787.28a5.34 5.34 0 002.715-1.16 5.374 5.374 0 001.681-2.43 7.94 7.94 0 00.437-2.59 8.21 8.21 0 00-.375-2.59 5.417 5.417 0 00-4.126-3.81zm13.842 0a4.706 4.706 0 00-2.352.22c-.468.17-.393.16-.406.16l-.02.02c-.013.02-.04.07-.067.05-.018-.01-.019-.02-.029-.05l-.008-.04-.004-.03c.001-.01-.005.01.001-.03l.028-.15.216-1.26.117-.67c.036-.21.097-.53.081-.48 0-.08.009-.16.025-.23.037.01.075.01.112.01l.063.01h.034c.021 0-.013-.01.083.01.518.07 1.042.09 1.565.07.97-.04 1.931-.2 2.861-.48 1.49-.46 1.562-1.76-.121-1.77-.869-.02-1.746-.04-2.595-.12-.417-.04-.831-.11-1.24-.2a3.84 3.84 0 01-.576-.15c-.237-.07-.472-.14-.717-.23-.487-.17-.978-.35-1.471-.53l-.902 4.09-.752 3.67c-.082.4-.071.81.033 1.2.071.27.198.52.374.74.103.12.224.24.358.33.131.09.275.16.427.2.201.06.409.08.617.06.398-.03.778-.18 1.096-.42.394-.34.82-.65 1.273-.9l.27-.14.124-.05c.077-.03.153-.06.227-.08.139-.04.282-.07.426-.08.494.01.973.18 1.371.47.399.29.699.7.859 1.16.447 1.17.521 2.44.21 3.65a3.446 3.446 0 01-.785 1.48c-.403.42-.907.72-1.463.88-.62.17-1.272.2-1.904.08a4.258 4.258 0 01-1.733-.79c-.684-.51-1.27-.69-1.627-.49-.333.19-.401.9.493 1.73a7.11 7.11 0 002.309 1.38c.893.31 1.849.41 2.787.28a5.343 5.343 0 002.715-1.16 5.372 5.372 0 001.68-2.43c.289-.84.437-1.71.438-2.59a8.238 8.238 0 00-.375-2.59 5.425 5.425 0 00-4.126-3.81zm-6.999-21.07c-.372-.2-.8-.01-1.398.26-.228.1-.479.14-.728.12a1.44 1.44 0 01-.693-.25c-.62-.43-1.204-.9-1.747-1.42a6.92 6.92 0 00-1.245-.83 4.574 4.574 0 00-.796-.33c-.129-.04-.328-.08-.424-.1a.298.298 0 01-.076-.02c-.046-.03-.031-.03-.023-.05.009-.01.047-.05.052-.04.014-.01-.017.01.018-.02l.417-.35c.204-.17.41-.36.615-.55l.306-.31.265-.27.525-.57a23.29 23.29 0 003.217-4.26c.232-.42.441-.84.626-1.28.097-.23.202-.43.287-.68.087-.27.151-.55.192-.83.154-1.07.01-2.17-.416-3.17a6.363 6.363 0 00-1.686-2.33 4.864 4.864 0 00-2.759-1.17 4.495 4.495 0 00-2.829.73 5.498 5.498 0 00-1.752 1.92c-.451.82-.31 1.48.002 1.69.331.22.795.03 1.357-.55.861-.89 1.939-1.45 2.861-1.28.512.1.987.34 1.377.68.39.35.681.8.843 1.29.211.51.289 1.07.229 1.62a5.94 5.94 0 01-.658 1.69 18.956 18.956 0 01-2.469 3.48c-.353.41-.719.81-1.095 1.21-.348.37-.719.71-1.111 1.04l-1.106.91-.576.51-.513.51a6.993 6.993 0 00-1.284 1.89 2.415 2.415 0 00-.14 1.58c.048.15.125.3.227.42a.45.45 0 00.246.19l.357.04c.094 0 .191.01.29.01h.4c.296 0 .59-.04.873-.13.295-.11.578-.25.847-.41l.834-.45c.115-.06.234-.12.356-.17.092-.05.194-.08.299-.1l.223-.01.092.01c.139.02.276.05.409.1.32.11.626.27.913.45.7.52 1.436.98 2.204 1.38.469.23.979.35 1.497.37.533.01 1.06-.12 1.533-.36.229-.11.433-.27.596-.46.164-.19.284-.42.351-.66a.617.617 0 00-.212-.69z" fill="#FFC652"/><path d="M458.16 1060.03c-.526.07-1.062.04-1.576-.1a3.97 3.97 0 01-1.417-.69 2.684 2.684 0 01-.819-.94c-.254-.53-.466-1.08-.634-1.64-.078-.22-.164-.45-.248-.67.655-1.03 1.331-2.02 2.007-3.03.183-.3.409-.57.67-.81.084-.07.189-.1.296-.1.235 0 .469.02.7.06.611.1 1.534-.81.969-1.48a3.071 3.071 0 00-.971-.74 2.584 2.584 0 00-1.687-.19 3.5 3.5 0 00-1.829 1.18c-.344.39-.635.76-.928 1.16-.236.32-.452.65-.666.97-.091-.15-.175-.3-.273-.45-.394-.62-.846-1.2-1.351-1.74a4.339 4.339 0 00-.972-.74 2.344 2.344 0 00-.624-.24c-.228-.07-.467-.1-.704-.08a.8.8 0 00-.34.09.752.752 0 00-.258.24.726.726 0 00-.097.55c.075.31.203.6.379.87.585.76 1.106 1.56 1.559 2.41.333.6.667 1.24.971 1.88-.072.13-.152.25-.222.38-.27.53-.568 1.05-.891 1.55-.361.47-.754.92-1.176 1.34-.456.49-.906.98-1.387 1.45-.604.59.242 1.84.995 1.35.56-.36 1.133-.69 1.703-1.02.666-.35 1.277-.8 1.814-1.33.159-.17.308-.35.446-.54.061.14.121.28.192.42a4.926 4.926 0 001.888 2.03 5.664 5.664 0 004.892.23c.098-.04.188-.1.263-.17a.787.787 0 00.174-.26.788.788 0 00-.018-.62.787.787 0 00-.311-.43.803.803 0 00-.519-.15zm-56.23-1.52a3.99 3.99 0 01-1.576-.1 3.974 3.974 0 01-1.418-.69 2.609 2.609 0 01-.819-.94 11.1 11.1 0 01-.633-1.63c-.078-.23-.164-.45-.248-.68.655-1.03 1.33-2.02 2.007-3.02.183-.31.408-.58.669-.82a.4.4 0 01.296-.09c.235-.01.47.01.701.05.61.1 1.534-.81.969-1.48a3.075 3.075 0 00-.972-.74 2.583 2.583 0 00-1.687-.19 3.57 3.57 0 00-1.829 1.18c-.344.39-.635.76-.927 1.16-.236.32-.452.65-.666.97-.092-.14-.176-.3-.274-.44-.393-.63-.846-1.21-1.35-1.75a4.007 4.007 0 00-.973-.73c-.196-.11-.406-.2-.623-.25a1.865 1.865 0 00-.705-.07.79.79 0 00-.339.08.743.743 0 00-.258.24.739.739 0 00-.098.55c.076.31.204.6.38.87.585.76 1.106 1.56 1.558 2.41.333.6.668 1.24.971 1.88-.072.13-.151.25-.222.38-.27.53-.567 1.05-.891 1.55-.361.47-.754.92-1.175 1.34-.456.49-.906.98-1.387 1.45-.604.59.241 1.84.995 1.35.559-.36 1.133-.69 1.703-1.02.666-.35 1.277-.8 1.814-1.33.158-.17.307-.35.446-.53.061.13.12.27.192.41a4.92 4.92 0 001.888 2.03 5.662 5.662 0 004.891.23c.099-.04.189-.1.264-.17a.775.775 0 00.229-.57.744.744 0 00-.073-.3.778.778 0 00-.312-.44.802.802 0 00-.518-.15z" fill="#FF6551"/><path d="M419.314 1051.84c.669-.06 1.339-.08 2.009-.14.672-.07 1.341-.32 2.015-.36.4-.02.838-1.47.321-1.65a11.03 11.03 0 00-2.178-.63c-.692-.07-1.388-.08-2.082-.04-.743.02-1.481.12-2.202.3-.714.07-1.389.35-1.939.81-.321.35.032 1.57.415 1.73 1.149.48 2.459.07 3.641-.02zm5.267 4.33c-.707-.24-1.43-.43-2.164-.57-.682-.07-1.367-.09-2.052-.08-.733-.01-1.465.05-2.188.17-.734.01-1.449.23-2.059.64-.418.36.046 1.56.335 1.74.98.6 2.507.32 3.711.27.7-.03 1.4-.03 2.099-.1.704-.06 1.394-.32 2.087-.4.405-.05.765-1.52.231-1.67z" fill="#49B3F7"/><path d="M352.936 1053.86a15.31 15.31 0 01-1.767-.48c-.23-.05-.483-.1-.736-.14.196-.62.392-1.24.61-1.86l.324-.87.17-.44.084-.22.074-.18.093-.22c.503-1.15 1.004-2.3 1.505-3.45-1.24-.02-2.452-.05-3.637-.04l-.612.01-.352.01-.664.01c-.443.02-.886.03-1.327.06-.871.04-1.735.18-2.576.41a.933.933 0 00-.539.3.91.91 0 00-.217.58.89.89 0 00.208.58c.135.17.325.28.534.31 1.129.22 2.273.36 3.423.41.297.02.596.03.897.05l.452.02h.065c.008-.01.017-.01.028-.02.016 0 .032 0 .039.03l.003.01c-.009.03.023-.05-.016.06l-.152.41-.292.8c-.363 1-.688 2.02-.974 3.06-.257.01-.513.04-.767.09-.719.02-1.415.25-2 .67-.143.28-.197.6-.153.91.044.32.182.61.397.84.589.26 1.23.37 1.872.34-.27 1.84-.406 3.7-.406 5.56-.02 1.22 1.469 1.45 1.663.23.313-1.83.858-3.56 1.335-5.34.039-.15.084-.29.123-.43.352.03.719.06 1.113.06a7.532 7.532 0 002.347-.46c.516-.17.183-1.65-.172-1.67z" fill="#FFC652"/><path d="M361.924 1061.47c-.409-.77-.767-1.56-1.07-2.37a15.183 15.183 0 01-1.027-4.8c-.056-1.75.189-3.51.725-5.18a33.387 33.387 0 012.088-4.41c.404-.82-.317-1.91-1.287-1.22a10.344 10.344 0 00-3.372 4.62 15.803 15.803 0 00.399 11.93c.442.94 1.004 1.81 1.673 2.61a9.742 9.742 0 002.317 2.12.843.843 0 00.704.18.85.85 0 00.342-.14.942.942 0 00.247-.28.912.912 0 00-.283-1.1 6.388 6.388 0 01-1.456-1.96z" fill="#67D449"/><path d="M375.921 1058.86c-.373-.2-.812.01-1.315.31-.467.25-1.001.34-1.526.27a5.727 5.727 0 01-1.767-.49c-.301-.13-.605-.28-.916-.44-.324-.16-.692-.35-1.11-.52a5.555 5.555 0 00-.684-.22c-.128-.03-.25-.07-.39-.09l-.051-.01c-.012 0 .004.01-.002 0h-.007c-.005-.01-.01-.02-.013-.02l.017-.03c.016-.01.013-.01.011-.01l1.89-2.07a15.123 15.123 0 002.839-4.11c.355-.86.543-1.79.555-2.72a5.296 5.296 0 00-.763-2.89 4.06 4.06 0 00-1.063-1.1c-.424-.29-.9-.49-1.403-.6a4.845 4.845 0 00-2.717.22c-.804.32-1.513.83-2.061 1.5-.5.6-.874 1.29-1.099 2.03-.241.83.038 1.4.388 1.53.368.14.784-.09 1.179-.69a4.732 4.732 0 012.346-1.95c.421-.13.869-.14 1.298-.05.159.03.309.09.441.18.132.1.242.22.324.35a3.754 3.754 0 01.035 2.89 10.682 10.682 0 01-1.952 3.03c-.365.43-.756.86-1.152 1.3l-1.249 1.39c-.361.42-.721.85-1.062 1.28-.324.37-.598.78-.816 1.23a2.26 2.26 0 00-.281.95c-.023.33.027.66.147.98.094.19.217.37.365.52.1.11.229.2.373.24.155.03.204-.02.361-.02.091-.01.244.04.571.04.089.01.177 0 .264-.02.107-.01.212-.03.315-.05l.375-.14c.14-.07.273-.15.399-.25l.365-.23c.1-.07.206-.13.317-.18.043-.01.087 0 .131 0h.044c.028 0 .062.01.092.01.14.02.278.05.414.08.326.09.648.2.964.32.361.14.739.27 1.126.38.8.25 1.634.38 2.472.37a4.55 4.55 0 002.53-.75 1.607 1.607 0 00.721-1.11.632.632 0 00-.27-.64z" fill="#FFC652"/><path d="M389.599 1051.12c-.87-.07-1.722-.28-2.595-.29-.401-.01-.801.01-1.201.02a9.276 9.276 0 00-.118-.99 3.609 3.609 0 00-.664-2.05c-.344-.39-1.558 0-1.741.33a5.407 5.407 0 00-.299 2.92c-.348.04-.695.08-1.042.14-.814.03-1.612.24-2.343.59-.418.27-.447 1.55.047 1.77 1.127.42 2.344.53 3.526.32.006.05.007.1.014.15.163.76.416 1.5.751 2.21.232.52 1.651 0 1.648-.33-.008-.57.214-1.23.248-1.9.007-.13.006-.26.009-.38.416-.04.832-.09 1.246-.15.875-.14 1.702-.48 2.565-.68.543-.13.535-1.63-.051-1.68z" fill="#49B3F7"/><path d="M409.037 1046.99c-.946-1.68-2.196-3.37-3.894-4.19-.991-.45-1.798.54-1.174 1.33.984 1.28 1.85 2.64 2.586 4.07a13.652 13.652 0 011.381 4.66c.136 1.79-.044 3.59-.53 5.31a18.498 18.498 0 01-2.042 5.11c-.634.98.39 2.1 1.312 1.05 1.38-1.55 2.47-3.33 3.219-5.26.671-1.9.969-3.91.878-5.93a13.685 13.685 0 00-1.736-6.15z" fill="#67D449"/><path d="M440.159 1018.12a16.123 16.123 0 00-5.84-7.94c-5.104-3.78-11.694-4.19-16.8-1.04a19.372 19.372 0 00-5.96 5.45 16.121 16.121 0 00-2.581 8.36 16.14 16.14 0 002.158 8.48 18.591 18.591 0 005.288 5.67 18.63 18.63 0 007.143 3c.658.13 1.321.22 1.989.28 2.236.27 4.505-.07 6.564-.98 2.725-1.31 4.984-4.21 6.651-8.23.939-2.27 2.957-8.09 1.388-13.05zm-3.356 12.15c-1.549 3.74-3.341 6-5.641 7.11a10.535 10.535 0 01-5.515.8 16.31 16.31 0 01-7.259-2.39 16.31 16.31 0 01-5.375-5.43 13.943 13.943 0 01.347-14.54 17.064 17.064 0 015.25-4.79 12.197 12.197 0 018.823-1.59c2.43.52 4.686 1.65 6.551 3.3a14.483 14.483 0 014.1 6.07c1.353 4.28-.445 9.44-1.281 11.46z" fill="#49B3F7"/><path d="M423.006 1032.31c-1.396-.28-7.875-2.63-7.305-9.19.013-.13.052-.27.117-.39a.883.883 0 01.259-.32c.106-.09.229-.16.362-.2.133-.04.272-.06.411-.05.277.03.531.17.71.38.179.22.269.49.251.77-.103 4.84 4.301 6.75 6.085 7.01 1.633.23 5.28 1.08 6.597-4.53.06-.27.223-.51.455-.66.231-.15.512-.21.784-.16l.021.01a1.07 1.07 0 01.81 1.26c-1.131 6.95-7.464 6.24-8.986 6.17a3.668 3.668 0 01-.571-.1zm-1.225-12.71a1.99 1.99 0 01-.701-.29 1.448 1.448 0 01-.606-.55 1.5 1.5 0 01-.228-.79c.05-.32.181-.62.382-.87.202-.26.465-.46.766-.58a.848.848 0 01-.065-.51.834.834 0 01.244-.46c.127-.12.289-.2.463-.23.175-.02.353.01.51.08.618.31 1.091.85 1.318 1.5a2.147 2.147 0 01-.664 2.36c-.197.16-.427.27-.672.33-.245.05-.5.06-.747.01zm8.507 2.02c-.463-.09-.896-.3-1.257-.6a.83.83 0 01-.3-.61 1.747 1.747 0 01.676-1.41c.224-.17.487-.29.766-.35a.862.862 0 01.115-.64c.12-.19.31-.32.528-.37.36-.08.736-.05 1.074.1.339.15.621.4.808.72.239.34.366.76.364 1.18-.003.42-.136.83-.38 1.17-.19.24-.427.44-.696.59-.27.14-.567.23-.872.26-.276.03-.554.01-.826-.04z" fill="#49B3F7"/><path d="M613.001 600.555c.005 3.468-2.483 15.044-6.01 29.723.001.006-.005.007-.004.013-8.582 35.73-23.323 89.796-23.323 89.796-49.063.331-88.185-21.467-88.185-21.467-1.629-2.559-4.209-5.812-4.209-5.812 3.279-34.382 20.447-117.263 20.447-117.263 14.519-2.837 75.764 11.445 97.075 19.198 3.947 1.436 4.209 5.812 4.209 5.812z" fill="#9D2B38"/><path d="M608.791 594.742c.005 3.469-2.483 15.045-6.01 29.723.001.006-.005.007-.004.013-8.582 35.73-23.323 89.796-23.323 89.796-49.063.332-88.185-21.467-88.185-21.467-.889-1.93-.691-8.479.18-17.618 3.279-34.382 16.058-105.456 16.058-105.456 18.016-3.521 101.284 25.009 101.284 25.009z" fill="#FF6551"/><path d="M518.748 599.485c-.471-.679 1.471-21.55 2.94-21.716 1.468-.166 65.093 15.149 67.239 17.696 2.146 2.547-1.434 20.244-4.779 20.25-3.345.006-63.846-13.988-65.4-16.23z" fill="#864FF1"/><path d="M511.986 624.518c.105-.754 1.992-15.287 4.195-15.535 2.202-.249 35.034 7.386 36.159 9.119 1.125 1.732-.503 15.304-3.624 15.656-3.12.353-36.977-7.471-36.73-9.24z" fill="#FFC652"/><path d="M561.388 635.675c-1.418-1.939 1.158-14.449 2.543-15.349 1.385-.9 22.341 3.614 22.773 5.796.432 2.183-.486 13.815-2.362 13.655-1.877-.16-22.075-2.899-22.954-4.102zm-52.832 9.5s1.566-14.124 3.26-13.943c1.693.181 19.383 3.762 18.836 5.497-.548 1.735-1.466 13.368-2.751 13.513-1.284.145-19.533-3.506-19.345-5.067zm27.215 7.343s1.566-14.123 3.26-13.942c1.693.181 19.383 3.761 18.836 5.497-.548 1.735-1.466 13.368-2.751 13.513-1.285.145-19.533-3.507-19.345-5.068zm26.736 6.323s1.567-14.123 3.26-13.943c1.693.181 19.384 3.762 18.836 5.497-.548 1.735-1.466 13.368-2.75 13.513-1.285.145-19.534-3.506-19.346-5.067zm-57.504 7.568s1.567-14.123 3.26-13.942c1.693.18 19.384 3.761 18.836 5.496-.548 1.736-1.466 13.368-2.75 13.513-1.285.145-19.534-3.506-19.346-5.067zm27.215 7.344s1.566-14.123 3.26-13.943c1.693.181 19.384 3.762 18.836 5.497-.548 1.735-1.466 13.368-2.751 13.513-1.284.145-19.533-3.506-19.345-5.067zm26.737 6.322s1.566-14.123 3.259-13.942c1.693.18 19.384 3.761 18.836 5.496-.547 1.736-1.465 13.368-2.75 13.513-1.285.145-19.534-3.506-19.345-5.067zm-58.102 6.56s1.566-14.123 3.26-13.942c1.693.181 19.383 3.762 18.836 5.497-.548 1.735-1.466 13.368-2.751 13.513-1.285.145-19.533-3.506-19.345-5.068zm27.217 7.344s1.566-14.123 3.259-13.942c1.694.181 19.384 3.761 18.836 5.497-.547 1.735-1.465 13.368-2.75 13.513-1.285.145-19.534-3.507-19.345-5.068z" fill="#864FF1"/><path d="M554.806 700.301s1.566-14.123 3.26-13.942c1.693.181 19.383 3.762 18.836 5.497-.548 1.735-1.466 13.368-2.751 13.513-1.284.145-19.533-3.506-19.345-5.068z" fill="#49B3F7"/><path d="M584.149 615.715c-3.346.003-63.849-13.99-65.4-16.232a10.846 10.846 0 01-.008-2.64c9.781 3.7 60.749 15.428 63.811 15.427 2.705-.01 5.567-11.591 5.423-17.365.347.128.669.317.951.558 2.148 2.549-1.431 20.243-4.777 20.252z" fill="#2D7F75" opacity=".36"/><path d="M511.986 624.518c.105-.754 1.992-15.287 4.195-15.535 2.202-.249 35.034 7.386 36.159 9.119 1.125 1.732-.503 15.304-3.624 15.656-3.12.353-36.977-7.471-36.73-9.24z" fill="#FFC652"/><path d="M561.388 635.675c-1.418-1.939 1.158-14.449 2.543-15.349 1.385-.9 22.341 3.614 22.773 5.796.432 2.183-.486 13.815-2.362 13.655-1.877-.16-22.075-2.899-22.954-4.102zm-52.834 9.499s1.567-14.123 3.26-13.943c1.693.181 19.383 3.762 18.836 5.497-.548 1.735-1.466 13.368-2.751 13.513-1.284.145-19.533-3.506-19.345-5.067zm27.217 7.343s1.566-14.123 3.26-13.942c1.693.181 19.383 3.761 18.836 5.497-.548 1.735-1.466 13.368-2.751 13.513-1.285.145-19.533-3.507-19.345-5.068zm26.734 6.323s1.567-14.123 3.26-13.943c1.693.181 19.384 3.762 18.836 5.497-.548 1.735-1.466 13.368-2.75 13.513-1.285.145-19.534-3.506-19.346-5.067zm-57.502 7.569s1.567-14.123 3.26-13.942c1.693.18 19.384 3.761 18.836 5.496-.548 1.736-1.466 13.368-2.75 13.513-1.285.145-19.534-3.506-19.346-5.067zm27.215 7.343s1.566-14.123 3.26-13.943c1.693.181 19.384 3.762 18.836 5.497-.548 1.736-1.466 13.368-2.751 13.513-1.284.145-19.533-3.506-19.345-5.067zm26.737 6.322s1.566-14.123 3.259-13.942c1.693.18 19.384 3.761 18.836 5.496-.547 1.736-1.465 13.368-2.75 13.513-1.285.145-19.534-3.506-19.345-5.067zm-58.102 6.561s1.566-14.123 3.26-13.942c1.693.181 19.383 3.762 18.836 5.497-.548 1.735-1.466 13.368-2.751 13.513-1.285.145-19.533-3.506-19.345-5.068zm27.215 7.344s1.566-14.123 3.259-13.942c1.694.181 19.384 3.761 18.836 5.497-.547 1.735-1.465 13.368-2.75 13.513-1.285.145-19.534-3.507-19.345-5.068zm26.736 6.322s1.566-14.123 3.26-13.942c1.693.181 19.383 3.762 18.836 5.497-.548 1.735-1.466 13.368-2.751 13.513-1.284.145-19.533-3.506-19.345-5.068z" fill="#49B3F7"/><path d="M548.719 633.762c-3.12.352-36.981-7.476-36.733-9.244.024-.16.125-.921.29-2.033 7.835 2.838 31.661 8.191 34.249 7.898 2.458-.277 3.989-8.766 3.973-13.194a4.979 4.979 0 011.843.916c1.125 1.729-.503 15.304-3.622 15.657zm35.619 6.015c-1.872-.157-22.074-2.898-22.953-4.104a5.136 5.136 0 01-.413-2.691c5.141 1.336 19.605 3.286 21.173 3.417 1.537.135 2.434-7.66 2.476-11.677 1.23.52 2.004 1 2.085 1.402.427 2.182-.489 13.816-2.368 13.653zm-53.687-3.051c-.547 1.736-1.469 13.371-2.752 13.516-1.282.145-19.533-3.505-19.347-5.067 0 0 .091-.802.244-2.016 4.982 1.697 15.926 3.816 16.91 3.704 1.05-.118 1.855-7.92 2.417-11.713 1.643.582 2.666 1.138 2.528 1.576zm27.217 7.346c-.547 1.736-1.469 13.371-2.752 13.516-1.283.144-19.533-3.506-19.347-5.068 0 0 .091-.802.244-2.015 4.982 1.697 15.925 3.815 16.909 3.704 1.05-.118 1.86-7.933 2.418-11.719 1.643.588 2.666 1.144 2.528 1.582zm26.731 6.324c-.547 1.736-1.464 13.364-2.747 13.509-1.288.146-19.533-3.505-19.347-5.067 0 0 .091-.802.244-2.016 4.976 1.698 15.92 3.817 16.91 3.705 1.05-.119 1.854-7.927 2.412-11.713 1.637.589 2.666 1.144 2.528 1.582zm-57.502 7.569c-.547 1.735-1.464 13.364-2.753 13.509-1.282.145-19.533-3.505-19.341-5.068 0 0 .091-.802.244-2.016 4.976 1.699 15.92 3.817 16.904 3.706 1.056-.119 1.86-7.928 2.418-11.713 1.637.588 2.666 1.143 2.528 1.582zm27.215 7.34c-.548 1.735-1.464 13.369-2.752 13.515-1.283.145-19.534-3.505-19.342-5.068 0 0 .091-.802.244-2.016 4.976 1.699 15.92 3.817 16.904 3.706 1.056-.119 1.859-7.94 2.417-11.719 1.637.588 2.666 1.143 2.529 1.582zm26.74 6.323c-.548 1.735-1.47 13.37-2.752 13.515-1.283.145-19.534-3.505-19.347-5.067 0 0 .09-.802.243-2.016 4.982 1.698 15.926 3.816 16.91 3.705 1.05-.119 1.859-7.94 2.417-11.719 1.643.588 2.666 1.143 2.529 1.582zm-58.106 6.562c-.547 1.736-1.463 13.37-2.746 13.515-1.288.145-19.533-3.505-19.347-5.068 0 0 .091-.802.244-2.015 4.976 1.698 15.92 3.816 16.91 3.704 1.05-.118 1.853-7.938 2.417-11.719 1.637.589 2.66 1.144 2.522 1.583zm27.215 7.345c-.547 1.735-1.464 13.37-2.746 13.514-1.289.146-19.534-3.511-19.347-5.067 0 0 .091-.802.244-2.016 4.976 1.699 15.919 3.817 16.909 3.705 1.05-.118 1.853-7.939 2.417-11.719 1.638.589 2.661 1.144 2.523 1.583zm26.739 6.323c-.547 1.736-1.464 13.364-2.753 13.509-1.282.145-19.533-3.505-19.341-5.068 0 0 .091-.801.244-2.015 4.976 1.698 15.92 3.816 16.904 3.705 1.056-.119 1.859-7.933 2.424-11.714 1.637.589 2.66 1.144 2.522 1.583z" fill="#2D7F75" opacity=".36"/><path d="M602.777 624.478c-8.582 35.73-23.323 89.796-23.323 89.796-49.063.331-88.185-21.467-88.185-21.467-.889-1.93-.691-8.479.18-17.618 0 0 73.021 40.457 111.328-50.711z" fill="#2D7F75" opacity=".36"/><path d="M130.641 807.794l-77.858 18.023a9.512 9.512 0 01-7.556-.987 9.517 9.517 0 01-4.415-6.213L19 720.395l97.396-27.064 21.812 101.834a10.81 10.81 0 01-7.567 12.629z" fill="#C1272D"/><path d="M140.012 807.941l-79.724 18.541c-2.652.738-5.49.39-7.886-.965a10.384 10.384 0 01-4.895-6.262l-27.525-99.133 99.73-27.712 27.525 102.745a10.386 10.386 0 01-7.225 12.786z" fill="#FF6551"/><path d="M137.426 804.152l-75.797 17.45a9.872 9.872 0 01-12.151-6.871l-26.17-94.25 94.818-26.347 26.169 97.862a9.876 9.876 0 01-6.869 12.156z" fill="#ECB891"/><path d="M137.106 802.385l-74.539 17.1a9.708 9.708 0 01-11.95-6.757l-25.734-92.685 93.242-25.909 25.735 96.296a9.708 9.708 0 01-6.754 11.955z" fill="#FFEBDD"/><path d="M35.023 735.778l82.526-22.931M39.78 752.906l82.525-22.21m-77.77 39.336l82.526-21.487M49.29 787.159l82.525-21.487m-77.77 38.614l82.526-20.765" stroke="#47A7E5" stroke-width="2.031" stroke-miterlimit="10"/><path d="M104.816 711.952l22.438 80.813" stroke="#FF6551" stroke-width="2.031" stroke-miterlimit="10"/><path d="M39.229 726.249a3.214 3.214 0 10-.001-6.43 3.214 3.214 0 000 6.43z" fill="#C1272D"/><path d="M41.09 725.651a2.566 2.566 0 01-2.114.587s-7.104-16.115 2.053-18.659c5.034-1.399 7.61 2.034 8.463 4.342l-2.112.587c-.072-.191-1.992-3.857-5.96-2.754-4.845 1.346-1.406 11.738-.33 15.897z" fill="#864FF1"/><path d="M55.412 721.753a3.214 3.214 0 10-.001-6.427 3.214 3.214 0 00.001 6.427z" fill="#C1272D"/><path d="M57.274 721.154a2.576 2.576 0 01-2.114.588s-7.104-16.115 2.053-18.659c5.034-1.399 7.609 2.034 8.463 4.342l-2.112.587c-.072-.191-1.992-3.857-5.96-2.754-4.846 1.346-1.406 11.738-.33 15.896z" fill="#864FF1"/><path d="M71.594 717.256a3.214 3.214 0 10-.002-6.427 3.214 3.214 0 00.002 6.427z" fill="#C1272D"/><path d="M73.456 716.657a2.577 2.577 0 01-2.114.588s-7.104-16.115 2.053-18.66c5.034-1.398 7.608 2.034 8.463 4.343l-2.113.587c-.071-.191-1.992-3.857-5.96-2.754-4.845 1.346-1.406 11.738-.329 15.896z" fill="#864FF1"/><path d="M87.775 712.76a3.214 3.214 0 000-6.429 3.214 3.214 0 000 6.429z" fill="#C1272D"/><path d="M89.638 712.161a2.576 2.576 0 01-2.115.588s-7.104-16.115 2.053-18.66c5.034-1.398 7.609 2.034 8.463 4.343l-2.112.587c-.072-.191-1.992-3.857-5.96-2.754-4.845 1.346-1.406 11.737-.33 15.896z" fill="#864FF1"/><path d="M103.959 708.262a3.213 3.213 0 100-6.426 3.213 3.213 0 000 6.426z" fill="#C1272D"/><path d="M105.821 707.664a2.576 2.576 0 01-2.114.588s-7.104-16.115 2.053-18.66c2.839-.789 5.823 2.53 6.677 4.839l-2.112.587c-.072-.191-1.883-3.887-4.175-3.25-4.845 1.346-1.405 11.737-.329 15.896zm-73.491 7.807a40.427 40.427 0 016.21 9.625l.698-3.048s-2.459-5.768-5.155-8.242a1.2 1.2 0 00-.875-.312 1.2 1.2 0 00-.838.399 1.212 1.212 0 00-.04 1.578z" fill="#864FF1"/><path d="M45.94 743.101a2.294 2.294 0 00.013 1.567 1.47 1.47 0 001.72.539c.371-.141.709-.36.99-.642a16.245 16.245 0 004.547-6.498l.138 4.133a.82.82 0 00.325.769 2.005 2.005 0 001.738-.31c2.323-1.379 2.729-3.663 2.901-5.62l1.339 3.195a1.297 1.297 0 001.505.923 1.92 1.92 0 00.922-.634 5.862 5.862 0 001.576-3.274c-.164 1.413 2.259 2.067 4.172 1.421a7.104 7.104 0 003.942-3.505 3.637 3.637 0 00-.534 2.278 1.769 1.769 0 002.18 1.03 3.17 3.17 0 001.921-1.607 6.72 6.72 0 00.93-3.045c-.698 1.491 1.69 2.604 3.72 1.941 2.029-.664 3.21-2.457 3.051-3.903.144 1.073 1.024 2.418 2.516 1.873a3.009 3.009 0 001.307-1.099l4.24-5.433 1.906 3.045a1.276 1.276 0 001.542.65c.287-.139.518-.372.657-.659a11.84 11.84 0 001.476-3.991l1.898 3.516a1.087 1.087 0 00.761.667c.418.076 1.051-.289.877-.563M51.98 756.91c-.48 1.521-2.28 3.913-.708 5.021.902.636 2.473.702 3.851.274 2.935-.911 4.322-3.425 5.267-5.576a3.855 3.855 0 00.241 2.094 2.2 2.2 0 002.159 1.038c1.38-.114 2.447-1.152 3.254-2.061.48.786 2.003 1.048 3.234.556 1.232-.492 1.965-1.655 1.557-2.47.6.693 2.411.02 3.07-.832.66-.852.787-1.836 1.607-2.629.97.068.752 1.121.222 1.807-.53.686-1.16 1.602-.462 2.019.226.114.475.175.729.177 2.263.13 4.376-1.556 5.89-3.047.763-.751 1.558-1.595 1.517-2.423a2.47 2.47 0 00-.835-1.439 4.433 4.433 0 00-1.508 3.025 1.236 1.236 0 00.316.945c.727.705 4.604.425 5.73-.099 1.826-.849 1.958-2.628 2.986-3.989a5.373 5.373 0 001.823 2.933 9.64 9.64 0 003.667-3.613c.107.851 1.92.866 2.918.206a4.295 4.295 0 001.638-2.517l.568 1.904c.119.396.334.853.914.872a1.969 1.969 0 001.493-.914 7.644 7.644 0 001.703-5.11l.26 2.904c.08.895.356 1.956 1.572 2.085M52 776.298c.812 1.738.499 3.87-.847 5.763l-.626-.67 3.866-4.534a1.2 1.2 0 01.5-.397c.642-.229.933.429 1.494.606a1.533 1.533 0 001.75-1.087c.045-.606-.495-1.061-1.01-1.465a14.439 14.439 0 001.056 6.197c2.446-1.942 4.057-4.386 4.461-6.766a4.65 4.65 0 013.098 3.59 7.312 7.312 0 002.192-5.385 33.828 33.828 0 011.928 5.431l.047-3.364a1.253 1.253 0 01.216-.816c.388-.369.87-.623 1.394-.733a11.35 11.35 0 014.412-.726c1.403.155 2.51 1.122 1.957 2.177-.987.579-2.397.175-2.63-.593-.235-.768.4-1.677 1.239-2.367a6.224 6.224 0 014.056-1.475c1.423.088 2.427 1.174 1.733 2.197a37.383 37.383 0 012.31-3.772c.284-.494.74-.867 1.28-1.05a2.25 2.25 0 011.263.098 4.491 4.491 0 013.19 3.023c-.446-.812.527-2.061 1.85-2.287 1.324-.226 2.403.789 1.729 1.689l-.608-2.596a6.393 6.393 0 003.197 1.451l4.581-4.374a1.49 1.49 0 01.657-.423.953.953 0 01.948.358 2.966 2.966 0 01.087 3.621 14.777 14.777 0 011.352-3.826 5.571 5.571 0 002.07 1.335 3.739 3.739 0 002.949-.327c.855-.548.985-1.625.088-1.871a11.895 11.895 0 004.342-4.294m-57.198 38.006c-.166-.262.613-.233.864-.017 1.154.996 3.891.366 5.296-.859 1.404-1.225 1.83-2.771 2.193-4.22 1.341.731-.428 2.91.939 3.618.902.468 2.52-.228 3.065-1.091a3.127 3.127 0 00.137-2.591c.798 1.276 3.418 1.707 5.258.675 1.84-1.031 1.829-3.335-.154-3.603-.79.751-1.275 1.69-1.047 2.486.229.795 1.295 1.367 2.495 1.167 1.2-.201 2.249-1.289 1.817-2.014 2.492.641 5.123.483 7.52-.453l-2.612 1.722c.14-1.918 1.41-3.946 3.438-5.497.769-.587 2.058-1.137 2.71-.679.457.321.255.927.03 1.437l-1.733 3.921c2.164-1.071 3.809-2.766 4.366-4.501 2.389 1.494 7.483.045 8.7-2.474.106-.221.177-.482-.02-.623a1.093 1.093 0 00-.865.007c-1.523.49-2.33 2.013-1.598 2.884.731.87 2.697.94 4.076.21 1.378-.73 2.03-2.092 1.581-3.085 1.539.142 3.085.201 4.631.175a5.548 5.548 0 01.632-3.169 7.307 7.307 0 011.394 3.077l1.419-2.943.313.995" stroke="#E2B9A7" stroke-width="2.42" stroke-linecap="round" stroke-linejoin="round"/><path d="M253.199 354.642l3.832-25.767 287.355 16.995 1.881 2.783-1.951 28.55-289.236-19.778-1.881-2.783zm277.69 8.381a4.44 4.44 0 002.515-.58 4.439 4.439 0 002.197-4.425 4.443 4.443 0 00-5.826-3.647 4.448 4.448 0 001.114 8.652z" fill="#2435A1"/><path d="M255.15 326.092l289.236 19.778-1.951 28.55-289.236-19.778 1.951-28.55zm273.896 38.538a4.44 4.44 0 004.285-2.459 4.446 4.446 0 10-5.959 2.005c.523.26 1.092.414 1.674.454z" fill="#49B3F7"/><path d="M533.593 361.489a4.433 4.433 0 01-8.624-.59l-270.932-18.526-.838 12.269 289.236 19.777.838-12.268-9.68-.662z" fill="#378FDD"/><path d="M509.819 343.506l-.975 14.275 2.986.204.976-14.275-2.987-.204zm-25.865-1.769l-.975 14.275 2.986.204.976-14.275-2.987-.204zm-25.867-1.769l-.976 14.275 2.987.204.975-14.275-2.986-.204zm-25.866-1.768l-.975 14.275 2.987.204.975-14.275-2.987-.204zm-25.867-1.769l-.975 14.275 2.987.204.975-14.275-2.987-.204zm-25.867-1.769l-.975 14.276 2.986.204.976-14.275-2.987-.205zm116.48 7.965l-.653 9.555 2.987.204.653-9.555-2.987-.204zm-25.867-1.769l-.653 9.555 2.987.204.653-9.555-2.987-.204zm-25.865-1.768l-.653 9.555 2.987.204.653-9.555-2.987-.204zm-25.867-1.77l-.653 9.555 2.986.204.653-9.555-2.986-.204zm-25.868-1.768l-.652 9.554 2.986.205.653-9.555-2.987-.204z" fill="#fff"/><path d="M406.352 336.431l-.975 14.275 2.987.204.975-14.275-2.987-.204zm-25.865-1.769l-.975 14.276 2.986.204.976-14.275-2.987-.205zm-25.869-1.769l-.975 14.275 2.986.204.976-14.275-2.987-.204zm-25.865-1.769l-.976 14.275 2.987.205.975-14.275-2.986-.205zm-25.867-1.768l-.976 14.275 2.987.204.975-14.275-2.986-.204zm-25.868-1.769l-.975 14.275 2.987.205.975-14.275-2.987-.205zm116.482 7.966l-.652 9.554 2.986.205.653-9.555-2.987-.204zm-25.867-1.769l-.653 9.555 2.987.204.653-9.555-2.987-.204zm-25.867-1.769l-.653 9.555 2.987.205.653-9.555-2.987-.205zm-25.865-1.769l-.653 9.555 2.987.204.653-9.555-2.987-.204zm-25.867-1.769l-.653 9.555 2.986.204.653-9.554-2.986-.205z" fill="#fff"/><path d="M215.541 368.069l-2.133 17.503 101.352 12.36 2.132-17.503-101.351-12.36z" fill="#E94B36"/><path d="M214.953 372.889l-.93 7.629 101.352 12.359.929-7.628-101.351-12.36z" fill="#FF6551"/><path d="M215.54 368.069l-.587 4.82 101.351 12.359.588-4.819-101.352-12.36z" fill="#E94B36"/><path d="M316.893 380.429l-2.133 17.503 19.609-5.189a1.673 1.673 0 001.237-1.438 1.678 1.678 0 00-.896-1.672l-17.817-9.204z" fill="#FFEBDD"/><path d="M327.732 386.029l-1.066 8.752 7.702-2.038a1.672 1.672 0 001.237-1.438 1.675 1.675 0 00-.897-1.672l-6.976-3.604z" fill="#5B5B5C"/><path d="M215.541 368.069l-2.133 17.503 4.091.499 2.133-17.503-4.091-.499z" fill="#2435A1"/><path d="M206.466 380.843l1.201-9.851a3.85 3.85 0 014.291-3.36l3.583.437-2.133 17.503-3.583-.437a3.849 3.849 0 01-2.568-1.45 3.859 3.859 0 01-.791-2.842z" fill="#F7A845"/><path d="M479.134 326.95l-114.632-2.889a7.861 7.861 0 01-7.861-7.865v-80.19a7.86 7.86 0 017.861-7.864H477.69a7.863 7.863 0 017.862 7.864l1.444 83.079a7.869 7.869 0 01-2.303 5.562 7.856 7.856 0 01-5.559 2.303z" fill="#243976"/><path d="M477.015 324.831l-114.632-2.889a7.868 7.868 0 01-7.862-7.865v-80.19a7.868 7.868 0 017.862-7.865h113.188a7.868 7.868 0 017.862 7.865l1.444 83.079a7.87 7.87 0 01-4.853 7.266 7.865 7.865 0 01-3.009.599z" fill="#49B3F7"/><path d="M475.571 226.022h-20.002c6.031 1.888 14.853 6.306 18.548 21.064 2.983 11.911-49.574 46.621-80.621 53.845-12.748 3.036-27.026 7.726-38.975 2.444v10.702a7.873 7.873 0 002.303 5.561 7.863 7.863 0 005.559 2.304l114.632 2.889a7.863 7.863 0 007.862-7.865l-1.444-83.079a7.873 7.873 0 00-2.303-5.561 7.859 7.859 0 00-5.559-2.304z" fill="#378FDD"/><path d="M444.676 226.022h-82.293a7.868 7.868 0 00-7.862 7.865v37.96c13.286-24.865 61.471-39.165 90.155-45.825z" fill="#6CC1F9"/><path d="M475.643 322.351l-111.887-2.889a6.437 6.437 0 01-6.436-6.438v-67.681h123.315l1.444 70.57a6.436 6.436 0 01-6.436 6.438zm.89-85.639a2.191 2.191 0 100-4.383 2.191 2.191 0 000 4.383zm-7.354 0a2.191 2.191 0 100-4.383 2.191 2.191 0 000 4.383zm-7.578 0a2.191 2.191 0 100-4.383 2.191 2.191 0 000 4.383zm-11.917-2.191H387.17a3.499 3.499 0 000 6.998h62.514a3.499 3.499 0 000-6.998z" fill="#fff"/><path d="M380.409 253.631h-7.374a2.75 2.75 0 00-2.75 2.751v7.377a2.75 2.75 0 002.75 2.751h7.374a2.75 2.75 0 002.75-2.751v-7.377a2.75 2.75 0 00-2.75-2.751zm0 22.854h-7.374a2.75 2.75 0 00-2.75 2.751v7.377a2.75 2.75 0 002.75 2.751h7.374a2.75 2.75 0 002.75-2.751v-7.377a2.75 2.75 0 00-2.75-2.751zm0 22.853h-7.374a2.75 2.75 0 00-2.75 2.751v7.377a2.75 2.75 0 002.75 2.751h7.374a2.75 2.75 0 002.75-2.751v-7.377a2.75 2.75 0 00-2.75-2.751z" stroke="#FF6551" stroke-width="2.031" stroke-miterlimit="10"/><path d="M368.836 256.007l7.505 7.508 8.618-11.259" stroke="#2435A1" stroke-width="2.943" stroke-miterlimit="10"/><path d="M394.666 256.111h73.352m-73.352 7.919h64.425m-64.425 14.935h73.352m-73.352 7.919h42.601m-42.601 14.934h73.352m-73.352 7.919h64.425" stroke="#BFBFBF" stroke-width="2.846" stroke-miterlimit="10"/></svg>