<svg width="170" height="220" fill="none" xmlns="http://www.w3.org/2000/svg"><path d="M128.116 162.673a133.883 133.883 0 00-35.037-.551c-18.91 2.272 1.752 25.631 1.752 25.631l33.285-25.08z" fill="#12296B"/><path d="M84.36 114.725a31.63 31.63 0 00-13.524 3.102c-6.627 3.313-22.955 18.595-24.737 32.506-1.781 13.911 21.453 16.193 21.453 16.193l4.305-4.303s-12.493-3.733-11.733-13.481c.761-9.748 18.88-17.644 18.88-17.644l5.356-16.373z" fill="#FF6551"/><path d="M88.074 111.751a26.239 26.239 0 00-16.578 7.537c-7.147 7.305-6.887 33.296-5.616 47.588 0 0 15.016 14.011 39.462 7.136 0 0 4.415-35.889 6.457-41.784 2.042-5.895-.12-12.87-.12-12.87s-3.454-9.948-23.605-7.607z" fill="#FFC652"/><path d="M106.293 114.014c-2.663 2.772-3.434 5.844-4.455 9.377a31.001 31.001 0 00-1.611 11.71c.42 6.535-.111 12.8-5.827 17.013-5.095 3.743-14.475.501-18.6-3.482-2.422-2.332-3.763-5.545-4.895-8.707a33.299 33.299 0 01-2.002-9.608c-.13-2.482.09-7.726 1.602-9.808-6.177 8.557-5.886 32.806-4.675 46.437 0 0 15.016 14.011 39.462 7.136 0 0 4.415-35.889 6.457-41.784 2.042-5.894-.12-12.87-.12-12.87s-1.011-3.092-5.336-5.414z" fill="#F7A845"/><path d="M52.875 164.595s-7.918 9.837-2.563 17.013c5.356 7.176 22.925 13.761 31.874 12.13 8.95-1.631 25.027-18.645 25.027-18.645l-1.271-11.739-53.067 1.241z" fill="#12296B"/><path d="M63.478 86.061c-.49.52-1 1-1.541 1.551-1.532 1.442-3.274 2.632-5.316 2.652a9.251 9.251 0 01-7.708-4.343 7.563 7.563 0 01-.68-4.504c.098-.72.259-1.43.48-2.121.3-1.01.77-1.961 1.391-2.813 2.713-3.593 7.008-2.692 10.702-1.57l2.672 11.148z" fill="#FFBF94"/><path d="M57.39 82.368c-2.082-1-3.063-3.112-3.493-5.294a.22.22 0 00-.43 0c-.461 2.382 1 4.594 2.912 5.875a15.275 15.275 0 00-1.511 1.891 5.003 5.003 0 00-1.091 2.402.61.61 0 001.07.48 9.814 9.814 0 001.122-2.191c.439-.851.977-1.647 1.602-2.372a.519.519 0 00-.18-.79z" fill="#DD664A" opacity=".31"/><path d="M61.937 87.622c-1.532 1.442-3.274 2.632-5.316 2.653a9.252 9.252 0 01-7.708-4.344 7.564 7.564 0 01-.68-4.504c.098-.72.259-1.43.48-2.121.32 1.691 2.322 8.366 13.224 8.316z" fill="#DD664A" opacity=".12"/><path d="M98.925 112.182c.5 3.353-2.462 5.474-5.486 6.275a10.592 10.592 0 01-7.458-.921c-2.352-1.291-4.614-4.363-1.511-6.255a8.112 8.112 0 013.604-.941c3.065-.25 6.15-.139 9.19.331.484.016.947.208 1.3.54.204.286.328.621.361.971z" fill="#FF6551"/><path d="M97.844 103.845v6.796s-.41 4.203-5.506 5.434c-5.095 1.231-7.388-2.292-7.388-2.292l-.15-.8-.73-2.903-1.002-3.623c-3.083-13.75 11.593-1.501 11.593-1.501l1-.5.231.69 1.952-1.301z" fill="#EA9573"/><path d="M97.835 107.288v3.092a11.564 11.564 0 01-5.486 3.233 15.79 15.79 0 01-7.558-.63l-.72-2.903 10.61-5.124 1.272.19 1.882 2.142z" fill="#DD664A" opacity=".31"/><path d="M119.298 85.53l-.07.42a21.017 21.017 0 01-2.212 6.536c-1.542 2.672-3.944 4.744-6.297 6.756a106.587 106.587 0 01-12.834 9.898c-2.422 1.501-5.085 2.842-7.938 2.932a17.394 17.394 0 01-6.727-1.521 82.318 82.318 0 01-18.37-10.008 17.271 17.271 0 01-4.875-4.724 18.281 18.281 0 01-2.072-6.756c-.1-.6-.19-1.19-.28-1.781a168.21 168.21 0 01-1.682-34.858l.13-1c-1.031-5.155 3.123-9.929 7.498-12.901a45.733 45.733 0 0134.517-6.886c5.165 1.061 10.261 3.123 14.095 6.746 4.294 4.063 6.677 9.807 7.708 15.612 1.031 5.805.801 11.77.57 17.674a98.546 98.546 0 01-1.161 13.862z" fill="#FFBF94"/><path d="M119.227 85.95a21.02 21.02 0 01-2.213 6.536c-1.541 2.672-3.944 4.744-6.296 6.755a106.509 106.509 0 01-12.834 9.898c-2.423 1.502-5.085 2.843-7.938 2.933a17.394 17.394 0 01-6.728-1.521 82.32 82.32 0 01-18.37-10.008 17.274 17.274 0 01-4.874-4.724 18.282 18.282 0 01-2.073-6.756c-.1-.6-.19-1.19-.28-1.781.31.18 1.432-.3 1.842.35 4.775 7.586 19.19 17.654 30.783 17.905 11.592.25 27.439-20.017 27.439-20.017l1.542.43z" fill="#DD664A" opacity=".09"/><path d="M58.413 70.048l.24 2.893s6.457-10.359 5.396-18.615c0 0 6.166 5.844 17.648 6.715 11.483.87 17.389-3.503 17.389-3.503s-3.574-2.181-4.825-4.503c0 0 10.081 2.592 15.456-1.712 0 0-1.001 6.135 4.425 12.66 5.426 6.526 6.077 9.068 6.077 9.068l-.471-20.016-9.79-15.222-18.74 1-25.367 6.125-6.187.3s-2.142 6.276-2.182 7.556c-.04 1.282.93 17.254.93 17.254z" fill="#DD664A" opacity=".31"/><path d="M56.5 77.394a298.474 298.474 0 01-2.843-6.725l-.3-.74c-2.493-6.256-4.625-12.891-3.825-19.547a19.253 19.253 0 013.264-8.566 15.632 15.632 0 011.822-2.212 13.015 13.015 0 017.588-4.003l.06.28c-1.802 4.403-1.732 9.137-1.401 13.931a97.74 97.74 0 01.54 11.45A34.192 34.192 0 0156.5 77.393z" fill="#661E08"/><path d="M125.494 85.761a12.068 12.068 0 01-7.809-.15 15.319 15.319 0 01-1.822-.77l2.543-9.248c1.381-3.002 4.785-5.214 8.009-4.524a6.41 6.41 0 013.904 2.773 7.296 7.296 0 011.211 4.713 9.007 9.007 0 01-6.036 7.206z" fill="#FFBF94"/><path d="M124.693 65.574a36.136 36.136 0 01-4.304 8.807c-.321-4.213-2.913-7.836-4.755-11.639a31.352 31.352 0 01-1.472-3.493 35.018 35.018 0 01-2.002-12.75l7.828-7.206.671-.61.49.19c2.553 1.12 3.845 4.133 4.495 6.895a36.803 36.803 0 01-.951 19.806z" fill="#661E08"/><path d="M124.693 65.575c.631-6.566 1.001-17.014-3.814-15.343-4.815 1.672-6.216 6.285-6.717 9.008a35.018 35.018 0 01-2.002-12.75l7.828-7.206 1.161-.42c2.553 1.12 3.845 4.133 4.495 6.895a36.8 36.8 0 01-.951 19.816z" fill="#661E08" opacity=".32"/><path d="M123.111 78.805c2.002-1.22 3.724-3.442 3.414-5.844 0-.13-.22-.18-.27 0-.881 2.252-1.852 4.253-4.165 5.334a.5.5 0 00-.13.84 5.532 5.532 0 011.552 2.152c.147.691.418 1.349.801 1.942a.232.232 0 00.185.087.24.24 0 00.185-.087c.881-1.411-.451-3.313-1.572-4.424z" fill="#DD664A" opacity=".31"/><path d="M124.552 42.236c-3.664 2.862-7.848 5.274-12.453 5.905-4.605.63-9.69-.831-12.533-4.504a12.191 12.191 0 005.125 7.746 14.68 14.68 0 01-16.187-4.303 14.79 14.79 0 007.007 10.178 27.886 27.886 0 01-23.625-1.812c-3.884-2.241-7.608-5.554-12.093-5.434l-1.842-3.362-3.453-6.286a23.404 23.404 0 010-3.763c1.3-14.321 15.917-19.735 25.917-20.016 18.38-.48 24.106 4.194 30.032 2.802a31.026 31.026 0 005.246-1.68A24.345 24.345 0 00125.864 10a22.323 22.323 0 01-12.914 22.128 22.18 22.18 0 0014.015-1.071 21.7 21.7 0 007.728-5.354c-.13 6.685-4.865 12.43-10.141 16.533z" fill="#661E08"/><path d="M56.5 77.394a298.934 298.934 0 01-2.842-6.726l-.3-.74c8.549-7.296-.561-28.113-.561-28.113a15.638 15.638 0 011.822-2.212 35.539 35.539 0 016.246 10.249c.404 3.802.585 7.625.541 11.449a34.192 34.192 0 01-4.905 16.093z" fill="#551107"/><path d="M124.553 42.235c-3.664 2.863-7.848 5.275-12.453 5.905-4.605.63-9.691-.83-12.534-4.503a12.189 12.189 0 005.126 7.746 14.68 14.68 0 01-16.188-4.304 14.791 14.791 0 007.008 10.178 27.886 27.886 0 01-23.625-1.81c-3.564-2.003-7.008-5.005-11.012-5.395v-.2a35.807 35.807 0 00-2.553-5.165 97.618 97.618 0 0118.15 7.607c8.278 4.723 10.23-2.392 4.294-9.648-5.936-7.256 8.48 1.531 13.014 2.102 4.535.57 2.132-7.246-1.001-9.688s13.875 11.109 25.147 5.334a18.224 18.224 0 009.009-9.337 21.697 21.697 0 007.729-5.355c-.1 6.686-4.835 12.43-10.111 16.533z" fill="#551107"/><path d="M115.693 17.706c-.07.19-.14.38-.22.56a15.599 15.599 0 01-11.923 9.288c-4.105.61-8.299-.46-12.403 0a5.006 5.006 0 00-2.773 1.001c-1.141 1.001-1.332 2.852-2.513 3.843a4.265 4.265 0 01-4.134.36c-1.372-.49-2.593-1.31-4.005-1.76a4.004 4.004 0 00-4.084.62c-1.622 1.651-.53 4.523-1.392 6.675-.74 1.852-2.813 2.832-4.795 3.143-4.765.78-9.58-1.392-13.013-4.914 1.3-14.322 15.916-19.736 25.917-20.016 18.38-.48 24.106 4.193 30.032 2.802a31.03 31.03 0 005.306-1.602z" fill="#661E08" opacity=".28"/><path d="M125.494 85.761a12.065 12.065 0 01-7.808-.15c11.382-1 12.653-11.77 12.653-11.77a7.29 7.29 0 011.211 4.715 9.003 9.003 0 01-6.056 7.206z" fill="#DD664A" opacity=".12"/><path d="M69.444 64.383a1.07 1.07 0 00-.36-.43 1.372 1.372 0 00-.631-.16c-1.372-.06-2.783.86-3.934 1.511a10.12 10.12 0 00-3.634 3.213c-.53.85-1.192 2.392.08 2.942 1.431.59 3.083-.67 4.184-1.411 1.512-1.101 4.895-3.003 4.415-5.254a2.28 2.28 0 00-.12-.41zm38.872 2.012c-.691-1.53-2.934-2.401-4.425-2.792a9.342 9.342 0 00-6.837.51 1.576 1.576 0 00-.701.621 1.17 1.17 0 00.23 1.231c.309.317.68.566 1.091.73a31.448 31.448 0 004.115 1.482 14.04 14.04 0 004.004.79c1.421.01 3.303-.92 2.523-2.572z" fill="#661E08"/><path d="M93.599 98.221a7.87 7.87 0 01-5.746 3.853 8.493 8.493 0 01-3.72-.167 8.495 8.495 0 01-3.288-1.744 14.317 14.317 0 01-3.454-4.474 13.012 13.012 0 01-.75-1.621c.26 0 11.622 1.781 18.66-3.163.033.876-.01 1.754-.13 2.622a12.669 12.669 0 01-1.572 4.694z" fill="#AA2626"/><path d="M95.17 93.487a16.28 16.28 0 01-8.178 3.383 21.7 21.7 0 01-9.62-1.18 13 13 0 01-.731-1.622c.26 0 11.622 1.781 18.66-3.163a15.16 15.16 0 01-.13 2.582z" fill="#fff"/><path d="M93.6 98.221a7.868 7.868 0 01-5.747 3.853 8.478 8.478 0 01-7.007-1.911 7.746 7.746 0 016.186-.64s.921-1.932 6.567-1.302z" fill="#FF6551"/><path d="M83.68 104.426a5.553 5.553 0 004.865 1.441c.92-.19 3.093-1.15 2.833-2.371a.142.142 0 00-.15-.121c-.47.111-.59.411-1.001.731a4.346 4.346 0 01-2.002.921 6.219 6.219 0 01-4.345-1.001c-.26-.17-.49.25-.28.44l.08-.04z" fill="#DD664A"/><path d="M89.546 83.379a3.894 3.894 0 00-2.633-1.762 6.79 6.79 0 00-3.223.23c-1.432.42-2.833 1.161-3.274 2.693a1.531 1.531 0 000 1 .9.9 0 001.091.6c.219-.102.418-.24.59-.41a5.006 5.006 0 013.485-.85c1.217.158 2.451.114 3.654-.13a.924.924 0 00.3-.14c.34-.3.23-.851.01-1.231z" fill="#DD664A" opacity=".12"/><path d="M89.275 86.371c-.55-1.27-3.183-.86-4.274-.67a5.517 5.517 0 00-3.935 2.121s0 .13.09.12c1.412-.24 2.693-.91 4.145-1.07a9.125 9.125 0 012.392.07c.591.11.922.29 1.422-.11a.39.39 0 00.16-.46z" fill="#DD664A"/><path d="M82.169 188.914s-11.893 4.003-16.628 4.784c-4.735.781-11.502 4.073-8.259 7.456 3.244 3.383 7.178 4.584 13.104 2.892 5.927-1.691 16.398-10.388 16.398-10.388l-4.615-4.744z" fill="#FF6551"/><path d="M82.167 188.914s-6.227 2.112-11.462 3.563c-.44.12-1.151 3.062-1.331 3.543a6.578 6.578 0 01-1.432 2.592 7.45 7.45 0 01-6.197 2.232 5.189 5.189 0 01-2.703-1.361c-.28-.291-1.671-2.212-1.19-2.623-1.482 1.261-2.053 2.753-.601 4.254 3.233 3.353 7.177 4.584 13.104 2.892 5.926-1.691 16.397-10.388 16.397-10.388l-4.585-4.704z" fill="#E1574C"/><path d="M78.344 188.854s26.918-19.586 41.524-24.83c14.606-5.244 17.709 5.244 13.875 12.911-3.834 7.666-18.43 12.7-23.645 13.891-5.216 1.191-22.735 6.475-22.735 6.475s-6.527-.55-9.02-8.447z" fill="#243976"/><path d="M133.002 164.814c4.124 22.929-33.305 20.127-52.426 28.403a10.482 10.482 0 006.737 4.084s17.469-5.275 22.735-6.476c5.265-1.201 19.871-6.215 23.695-13.891 2.102-4.213 2.112-9.277-.741-12.12z" fill="#12296B"/><path d="M80.376 188.914c.72.48 9.57 1.681 17.708 4.073 8.139 2.392 9.33 5.004 7.659 7.656a10.18 10.18 0 01-9.09 5.005c-4.315-.241-16.157-6.225-19.33-9.808l3.053-6.926z" fill="#FF6551"/><path d="M100.817 193.888c1.522 2.862 1.892 5.874-1.721 7.085-8.13 2.432-14.936-2.382-20.963-7.005l-.81 1.851c3.173 3.583 15.015 9.568 19.33 9.808a10.17 10.17 0 009.09-5.004c1.461-2.282.73-4.594-4.926-6.735z" fill="#E1574C"/><path d="M39.933 162.603s-7.418 1.901-8.86 5.865c-1.441 3.963 1.002 9.467 7.899 15.202 6.897 5.735 34.036 14.632 40.203 15.803a12.113 12.113 0 004.555-11.75s-16.518-10.528-24.176-16.013c-7.658-5.484-14.235-9.808-19.621-9.107z" fill="#243976"/><path d="M53.035 179.957c5.876-.841 11.012-1.662 16.688-1.322-3.754-2.492-7.508-5.004-10.18-6.945-7.66-5.505-14.236-9.788-19.622-9.087 0 0-7.418 1.901-8.86 5.864-1.44 3.963 1.002 9.468 7.9 15.203 6.897 5.734 34.035 14.631 40.202 15.802a12.007 12.007 0 004.695-9.277c-10.561 3.102-27.199-.31-30.823-10.238z" fill="#12296B"/><path d="M107.003 163.354H46.939l-10.521 9.887 57.411 2.442 13.174-12.329z" fill="#49A4F7"/><path d="M84.72 161.242a8.244 8.244 0 00-2.002 1.531.633.633 0 00-.21.411c0 .4.57.49 1 .43l3.154-.49a5.253 5.253 0 00-3.594 2.341c.77.232 1.582.28 2.373.141-.468.37-.963.705-1.482 1 4.375 2.943 13.224-.3 17.079-3.002a5.317 5.317 0 002.272-2.692c1.462-5.164-9.3-3.003-11.512-2.382a34.424 34.424 0 00-7.078 2.712z" fill="#FFBF94"/><path d="M102.229 116.996s-3.574 4.004 0 12.53c3.573 8.527 6.507 10.088 6.507 16.013 0 5.925-10.902 11.279-10.902 11.279s4.295 4.334 1.802 7.727c0 0 15.016-1.702 19.941-12.13 7.178-15.012-7.648-35.088-7.648-35.088s-4.835-6.105-9.7-.331z" fill="#FF6551"/><path d="M102.229 116.996c-.198.25-.372.518-.521.801 2.002-.381 5.006-.071 8.009 3.462 5.245 6.185 10.111 19.956 6.176 27.733-3.193 6.315-12.363 10.458-15.676 11.779a4.218 4.218 0 01-.551 3.823s15.016-1.701 19.941-12.13c7.178-15.012-7.648-35.088-7.648-35.088s-4.865-6.155-9.73-.38z" fill="#E1574C"/><path d="M20.001 134.41l13.084 42.835a4.717 4.717 0 004.595 3.583l54.188-.401 15.376-10.478-.27-6.595-13.795 9.888-8.539-42.334a4.705 4.705 0 00-4.705-3.763l-54.058 1.19c-3.043.071-5.946 3.964-5.876 6.075z" fill="#3E8CE1"/><path d="M20.142 136.001l9.41 42.034a4.674 4.674 0 004.585 3.583l54.828-.37a2.58 2.58 0 001.986-.965 2.573 2.573 0 00.507-2.148l-9.3-45.326a4.705 4.705 0 00-4.705-3.763l-52.866 1.161a4.69 4.69 0 00-4.479 3.719 4.678 4.678 0 00.034 2.075z" fill="#49A4F7"/><path d="M77.453 129.016l-52.867 1.191a4.69 4.69 0 00-4.478 3.719 4.683 4.683 0 00.034 2.076l3.714 16.623 56.75-22.468a4.737 4.737 0 00-3.153-1.141zm7.348 16.683l-57.06 24.2 1.821 8.126a4.674 4.674 0 004.585 3.583h4.135l48.852-24.57-2.333-11.339z" fill="#49B3F7"/><path d="M54.417 162.553a8.568 8.568 0 100-17.134 8.568 8.568 0 100 17.134z" fill="#6CBFF3"/><path d="M71.08 87.62a6.465 6.465 0 10-2.802-12.624A6.465 6.465 0 1071.08 87.62z" fill="#fff"/><path d="M70.195 87.484a4.954 4.954 0 10-2.146-9.672 4.954 4.954 0 102.146 9.672z" fill="#191818"/><path d="M101.777 84.253a6.475 6.475 0 10-2.805-12.643 6.475 6.475 0 102.805 12.643z" fill="#fff"/><path d="M104.554 79.09a5.065 5.065 0 10-10.13-.136 5.065 5.065 0 0010.13.137z" fill="#191818"/><path d="M70.502 82.969a1.351 1.351 0 100-2.703 1.351 1.351 0 000 2.703zm31.586-5.545a1.464 1.464 0 01-.589 1.514 1.463 1.463 0 01-1.893-2.209 1.464 1.464 0 011.841-.22c.326.208.557.537.641.915z" fill="#fff"/></svg>