<svg width="145" height="370" fill="none" xmlns="http://www.w3.org/2000/svg"><path d="M34.21 127.343a36.998 36.998 0 01-3.834-2.914c-7.662-6.692-11.821-16.582-14.34-26.466-3.526-13.83-5.36-30.27-.459-43.998 1.681-4.71 3.949-9.163 5.39-13.97a51.434 51.434 0 019.795-18.54c3.607-4.266 8.433-7.74 13.935-8.613a20.598 20.598 0 0115.107 3.977c3.561-3.435 8.689-4.83 13.624-4.819 9.058.019 15.459 2.521 21.41 9.245a212.092 212.092 0 0111.792 14.571c6.368 8.62 12.622 18.903 13.194 29.888.627 12.028-2.447 23.953-6.757 35.08-2.716 7.014-5.988 13.901-10.704 19.747a45.986 45.986 0 01-29.15 16.67c-10.937 1.496-22.132-1.236-32.1-6.003a56.005 56.005 0 01-6.903-3.855z" fill="#662920"/><path d="M26.395 99.679a53.27 53.27 0 001.334 10.127c1.985 7.488 8.197 12.619 13.588 17.736m-3.143-22.714c2.358 9.454 5.894 19.68 17.095 20.901m-9.759-18.263c.072 6.633 6.124 11.34 11.452 14.047m27.368-12.322c.566 7.786-3.877 13.979-8.734 19.552" stroke="#5B1F17" stroke-width="3" stroke-linecap="round" stroke-linejoin="round"/><path d="M82.843 236.008s-3.852 27.537-4.066 31.624c-.214 4.088 2.14 14.199 2.033 18.717-.107 4.518-3.959 29.258-4.173 33.776-.214 4.518-.856 9.896 0 13.123.856 3.227 4.166 10.972 4.437 13.984.271 3.011-9.359 3.872-11.07 2.366-1.713-1.506-4.984-16.188-4.923-16.907.061-.72-1.139-18.307-1.345-23.686-.207-5.378-.16-22.122-.303-27.982-.143-5.861-2.523-47.236-2.523-47.236l21.933 2.221z" fill="#FFBF94"/><path d="M66.58 276.023c-.964-1.614-2.034-5.809-2.235-11.617-.202-5.809 0-25.602 0-25.602l-3.212-1.13c.594 10.433 2.184 38.592 2.3 43.349.143 5.861.096 22.604.303 27.983.012.305.027.654.045 1.032l3.761 2.051s-3.66-19.081-2.46-24.772c1.198-5.69 1.68-8.315 1.68-8.315s2.814.033 4.097 0c1.285-.034 1.927-1.796 1.927-1.796-2.996 1.291-5.244.43-6.207-1.183zm12.198-8.39a48.01 48.01 0 01.208-2.269c.672-6.219 2.729-21.208 3.532-27.005-2.267.689-11.447-.529-14.708-.438-3.852.107-1.633 3.278-1.633 3.278s3.934 5.063 12.494 3.54c0 0 1.284.09 1.177 2.564-.107 2.474-1.498 12.048-1.498 12.048a68.31 68.31 0 00-1.712 8.928 26.077 26.077 0 01-2.14 9.143 34.849 34.849 0 002.612-4.629 138.308 138.308 0 012.417 14.525c.216 2.508.344 5.014.42 7.121.484-3.743.833-6.775.864-8.089.107-4.518-2.247-14.629-2.033-18.717z" fill="#E6A07A" opacity=".39"/><path d="M63.736 309.006s8.515 1.358 14.4 0c0 0-2.12 18.11-1.93 19.939a46.759 46.759 0 001.39 5.81l4.178 11.305s-8.453 4.937-11.877 4.184c-3.424-.753-4.815-9.251-4.815-9.251l-.65-8.928s.207-13.015 0-14.414c-.206-1.398-.696-8.645-.696-8.645z" fill="#FF6551"/><path d="M64.433 332.064a41.293 41.293 0 00-1.12 7.51c-.157 3.785 1.127 16.684 3.481 18.84 2.354 2.156 9.195 1.94 14.281.757 5.087-1.183 5.622-4.264 5.515-5.251-.107-.988-5.03-8.84-5.03-8.84s-4.066 3.337-8.667 3.121a7.276 7.276 0 01-4.207-1.379 7.332 7.332 0 01-2.64-3.571c-.429-1.398-1.613-11.187-1.613-11.187z" fill="#2435A1"/><path d="M85.543 351.735c-3.712 5.446-12.078 6.552-16.129 3.295-2.871-2.309-4.653-5.713-5.807-9.518.502 5.131 1.6 11.451 3.186 12.902 2.354 2.156 9.194 1.941 14.28.757 5.087-1.183 5.622-4.264 5.515-5.251a10.69 10.69 0 00-1.045-2.185z" fill="#243976"/><path d="M64.432 336.368a12.185 12.185 0 017.711-3.657c4.601-.216 5.356.163 5.356.163l.75 3.461a15.198 15.198 0 00-7.017.281 15.26 15.26 0 00-6.151 3.409l-.65-3.657z" fill="#2435A1"/><path d="M35.32 217.379s11.876 41.305 12.021 47.327c.146 6.022-.86 13.363-1.215 22.195-.355 8.832 7.432 45.656 7.432 45.656l9.475-.231s-.913-27.953-.638-35.707c.276-7.754 2.047-15.759 1.806-23.285-.241-7.526-1.353-56.147-1.353-56.147l-27.528.192z" fill="#FFBF94"/><path d="M62.325 270.702a19.18 19.18 0 001.016-6.981 23.263 23.263 0 01-2.302 6.556c-.22.34-.4.705-.534 1.087a4.193 4.193 0 00-.125.904l-.188 2.89a4.86 4.86 0 01-.39 1.915c-1.058 2.088-4.266 2.784-6.429 3.274 1.463.152 2.94.106 4.391-.136a4.116 4.116 0 002.428-1.061 3.7 3.7 0 00.762-1.944c.356-2.168.448-4.213 1.268-6.241.036-.087.07-.175.103-.263z" fill="#E6A07A" opacity=".39"/><path d="M62.395 296.619c.276-7.753 2.047-15.759 1.806-23.285-.155-4.825-.667-26.545-1.015-41.511l-22.358 2.225 1.086 7.113.23.865a30.278 30.278 0 0011.417 1.62c5.87-.466 6.51-1.416 8.043 1.613 1.533 3.029 1.785 20.402 1.785 20.402s-1.4 11.17-1.585 15.694c-.186 4.523-1.236 25.531-.635 28.905l1.234-3.026c-.068-4.448-.088-8.375-.008-10.615z" fill="#E6A07A" opacity=".39"/><path d="M49.14 264.914c-.31 3.731.518 7.333 1.097 10.998.016.304.132.593.33.823.191.15.414.253.652.301.5.143 1.124.258 1.479-.102-.102-2.121-1.835-3.863-2.36-5.926-.463-1.829-1.356-4.191-1.199-6.094z" fill="#E6A07A" opacity=".39"/><path d="M48.715 307.511a26.786 26.786 0 0013.711-.334s.67 21.92 1.732 25.982c1.062 4.063 3.246 13.048 1.89 16.74-1.356 3.691-15.23 1.447-16.301.397-1.072-1.05 2.678-17.711 2.678-17.711s-2.741-19.302-3.71-25.074z" fill="#FF6551"/><path d="M49.457 345.246a39.91 39.91 0 0010.402.311c5.347-.614 4.828-.909 5.177-4.08.348-3.171-1.053-9.174-1.053-9.174l-.277-2.067c.765 3.048 5.482 25.358.724 28.863-4.759 3.506-15.71 1.498-17.84-.71-2.128-2.208 2.867-13.143 2.867-13.143z" fill="#2435A1"/><path d="M66.083 343.74c-.176 3.27.168 6.688-.386 8.037-1.994 4.881-14.797 5.457-19.236 1.9-.486 2.079-.62 3.935.129 4.711 2.129 2.208 13.08 4.216 17.84.71 4.132-3.044 2.7-11.444 1.653-15.358z" fill="#243976"/><path d="M51.082 337.746a27.455 27.455 0 0114.261-.75l-1.269-4.208s-7.53-1.34-12.185.791l-.807 4.167z" fill="#2435A1"/><path d="M45.83 187.536s-2.666 1.107-4.596 7.255c-1.929 6.147-12.486 48.549-12.486 48.549s2.144 6.884 13.504 4.13l10.075-56.678-6.497-3.256z" fill="#243976"/><path d="M52.649 187.536l-11.29 62.963s6.291 4.956 13.238 3.855c6.948-1.102 10.806-6.41 12.95-6.234l-1.874-59.08-13.024-1.504z" fill="#243976"/><path d="M64.293 186.964l1.923 61.541v3.095s11.562 5.232 20.702-2.478l-9.778-63.328-12.847 1.17z" fill="#243976"/><path d="M85.968 184.387l15.509 56.75s-8.242 7.258-11.49 6.983c-3.248-.274-9.116.008-9.116.008l-6.25-58.479 11.347-5.262z" fill="#243976"/><path d="M36.603 240.764c2.051-.903 3.112-3.741 3.934-6.318a448.59 448.59 0 009.098-32.842l-1.873 10.925c-1.139 6.639-2.285 13.301-2.838 20.071-.434 5.306-1.417 12.473 3.242 15.128 3.4 1.938 7.468.898 10.676-1.519a10.164 10.164 0 003.246-3.811c.944-2.043 1.083-4.516 1.199-6.888l1.658-34.074c.076 12.211.16 24.517 2.114 36.468.558 3.412 1.476 7.145 3.848 8.838a7.179 7.179 0 004.785.996c2.713-.171 6.003-1.467 6.488-4.899.091-.943.06-1.894-.091-2.829l-4.709-39.499c.825 11.659 3.712 22.892 6.58 34.005a15.071 15.071 0 002.142 5.383 4.69 4.69 0 001.855 1.443 4.657 4.657 0 004.52-.462 4.707 4.707 0 001.529-1.79c.212-.355.354-.749.417-1.159a4.48 4.48 0 00-.178-1.568c-2.692-11.359-6.295-22.718-8.988-34.077-1.138-4.804.688-9.723-6.529-7.537-9.9 2.999-18.646 4.553-28.291.404-7.475-3.216-9.85 8.061-11.42 14.7-2.264 9.574-5.182 19.247-6.927 28.999.951 1.689 2.988 2.583 4.513 1.912z" fill="#2435A1"/><path d="M79.213 200.546c.856-.03 9.907-1.341 9.881-1.4l-1.65-3.741c-.084.353-.582.324-.923.442-.237.106-.45.259-.626.45-1.394 1.267-2.973 1.409-4.66 1.914a34.215 34.215 0 01-5.425 1.417c-3.058.405-6.047.98-9.14 1.14a46.684 46.684 0 01-18.361-2.487 22.102 22.102 0 00-2.856-.801 5.778 5.778 0 013.579 3.269 5.838 5.838 0 01-.142 4.858c.969-1.806 2.15-3.786 4.129-4.291a7.407 7.407 0 013.27.164l5.98 1.208c.84.067 1.625.444 2.203 1.059.939 1.309-.249 3.408.759 4.665.54-1.708.917-3.463 1.123-5.243a14.803 14.803 0 014.418-1.178 4.996 4.996 0 014.142 1.567c.315.409.586.849.81 1.314l2.54 4.844a53.048 53.048 0 01-.872-6.8c-.05-.784-.005-1.725.66-2.136.36-.177.76-.258 1.161-.234z" fill="#243976"/><path d="M95.544 183.216l.001.001c.358.438.823.775 1.35.976a3.197 3.197 0 001.655.168 3.998 3.998 0 001.882-1.499c2.887-3.613 3.499-5.03 6.113-10.319 2.677-5.416 9.467-21.379 11.144-26.062.426-1.189 2.03-1.41 4.696-2.073 2.664-.665 4.749-6.931 6.307-8.438 1.559-1.508 7.35-5.068 6.144-6.762-1.206-1.695-7.436 3.814-7.784 2.864-.348-.95 6.586-10.615 4.868-12.06-1.717-1.445-7.49 8.663-8.063 8.197-.573-.467 4.5-11.002 2.624-12.72-1.878-1.719-6.173 10.808-6.824 11.499-.652.691 2.532-12.5.966-13.448-1.564-.949-2.548 3.748-2.548 3.748-.92 3.061-1.944 9.448-2.864 12.509a1.882 1.882 0 01-.757 1.221c-.55-1.122-.357-2.471-.467-3.731a7.452 7.452 0 00-1.026-3.187 4.475 4.475 0 00-1.661-1.692 2.416 2.416 0 00-2.244-.075 1.24 1.24 0 00-.606.632c-.258.693.339 1.372.743 1.982a6.584 6.584 0 01.731 4.499c-.211 1.543-.693 3.033-.9 4.577a6.537 6.537 0 00.753 4.493 22.655 22.655 0 011.766 2.237 5.76 5.76 0 01.184 3.658c-.067.347-.141.693-.223 1.037-6.564 12.918-15.553 22.793-18.068 29.905-.942 2.663.202 5.888 2.108 7.863z" fill="#FFBF94"/><path d="M86.535 155.165c.057 1.673.215 3.341.475 4.994.034.213.07.424.11.632.2 1.089.41-2.374.626-1.256l.001.004c2.344 12.086 5.565 22.559 7.796 23.677l.002.001c.732.363 1.56-1.46 2.36-4.188 1.861-6.358 3.571-14.889 3.571-14.889s-.194-1.331-.52-3.442c-.512-3.317-1.349-3.992-2.268-9.037a219 219 0 00-1.384-7.029 85.39 85.39 0 00-.764-3.24c-2.171-8.381-4.96-13.123-6.71-13.541 0 0-3.78 14.956-3.295 27.314z" fill="#FFBF94"/><path d="M86.535 155.165c.057 1.672.216 3.34.475 4.993 4.756-1.064 9.406-5.849 11.678-8.497-.45-2.476-.923-4.903-1.384-7.03h-.001l-5.001 4.379a71.148 71.148 0 00-5.767 6.155z" fill="#E6A07A" opacity=".39"/><path d="M11.389 161.501l2.277 6.847c4.012.808 8.486.168 10.629-1.511 2.605-2.041 18.052-16.621 18.052-16.621-1.34-6.852-2.425-16.957-3.33-16.623-1.104.408-4.951 4.384-4.951 4.384l-22.677 23.524z" fill="#FFBF94"/><path d="M29.71 155.103c1.577 1.329 13.23 5.468 13.467 5.414.344-1.1.633-2.217.865-3.347 0 0-.176-.922-.47-2.43a17.873 17.873 0 00-1.285-1.73l-7.727-4.44-3.732 2.004c-.36 1.445-.737 2.964-1.117 4.529z" fill="#E6A07A" opacity=".39"/><path d="M52.371 120.539s1.724 6.579 1.893 6.526c.17-.054 25.896-1.344 25.896-1.344l-1.945-2.212-.383-1.174s-5.29-3.164-3.224-13.928a36.32 36.32 0 01.87-3.517 11.07 11.07 0 00.506-2.728c.306-8.9-18.001 2.236-18.155 2.23a6.246 6.246 0 00-.663 1.47c-.337.874-.67 1.817-.67 1.817.336 1.147.57 2.322.698 3.51.376 3.407-.007 8.226-4.823 9.35z" fill="#E6A07A"/><path d="M56.496 107.68a20.05 20.05 0 01.699 3.51c2.532 1.018 7.023 2.67 8.907 2.425 1.855-.242 6.06-3.312 8.507-5.207.231-1.187.522-2.36.87-3.517.283-.885.453-1.802.506-2.729l-8.766 2.654-10.052 1.046c-.337.875-.67 1.818-.67 1.818z" fill="#E6A07A" opacity=".39"/><path d="M84.93 142.231c-.008.268 4.341 6.137 4.095 11.307-.246 5.17-3.798 11.383-4.41 14.844-.612 3.461 3.852 23.326 3.852 23.326s-17.939 9.236-47.07 1.327c0 0 4.199-17.263 1.681-26.542-.963-3.55-4.883-14.133 1.559-24.173s36.476-1.481 36.476-1.481l3.818 1.392z" fill="#864FF1"/><path d="M43.394 161.28c.84.668 1.728 1.272 2.657 1.807 1.053.476 2.145.858 3.263 1.143 2.627.724 5.292 1.375 7.971 1.838a57.493 57.493 0 0016.216.799 32.498 32.498 0 004.332-.796 17.413 17.413 0 014.256-.703c.215 0 .275.275.15.423-1.824 2.157-4.847 2.96-7.414 3.611a36.96 36.96 0 01-8.502 1.043 38.184 38.184 0 01-9.024-1.115 57.782 57.782 0 01-8.41-2.521 14.335 14.335 0 01-3.617-1.925 6.105 6.105 0 01-2.436-3.178.385.385 0 01.138-.4.382.382 0 01.42-.026z" fill="#6640D0"/><path d="M25.223 143.059s3.62 12.427 15.949 15.078c.283.062.572.118.864.169 13.025 2.24 44.76-1.01 44.76-1.01a8.298 8.298 0 001.576-.316 12.116 12.116 0 004.585-2.726 35.255 35.255 0 004.575-5.479l3.237-4.457 1.53-2.105c-.248.342-4.765-6.44-5.172-7.171-1.538-2.776-4.13-8.271-6.405-8.887-8.663-2.346-13.738-4.875-13.938-4.75 0 0-3.576 3.801-12.799 3.474-9.223-.327-11.615-4.34-11.615-4.34s-7.725 2.762-11.037 3.983c-3.248 1.198-9.966 15.161-15.772 18.362a6.893 6.893 0 01-.338.175z" fill="#864FF1"/><path d="M46.44 151.348a4.115 4.115 0 00-1.116 3.745c.403 1.5 1.801 2.406 3.106 3.118a44.12 44.12 0 0014.348 5.123 27.59 27.59 0 0014.951-1.652 9.501 9.501 0 004.005-2.822c1.77-2.344 1.721-5.716 1.003-8.625a116.718 116.718 0 00-2.906-9.83 23.868 23.868 0 00-1.117-2.49.392.392 0 00-.445-.2.392.392 0 00-.3.386 74.854 74.854 0 01-.35 6.853 8.057 8.057 0 01-1.73 4.684 7.443 7.443 0 01-4.156 2.043c-6.535 1.325-12.347-1.324-18.695-2.172-2.299-.308-4.85.051-6.515 1.752a2.66 2.66 0 00-.084.087z" fill="#FFC652" opacity=".14"/><path d="M86.322 145.199a53.54 53.54 0 011.944 10.905c.018.294.053.587.106.877a12.116 12.116 0 004.586-2.726 35.255 35.255 0 004.574-5.479l3.238-4.458a12.146 12.146 0 01-5.362 3.246 7.87 7.87 0 01-3.757.136 7.9 7.9 0 01-3.395-1.621 12.094 12.094 0 01-2.277-2.909 5.813 5.813 0 00.343 2.029zm-61.099-2.14s3.62 12.427 15.949 15.078c.055-3.238.177-5.967 1.174-7.921 1.061-2.084 2.182-4.596 2.414-5.122a10.105 10.105 0 01-3.861 4.479 7.422 7.422 0 01-5.7.889 10.233 10.233 0 01-2.637-1.217 29.061 29.061 0 01-7.001-6.361 6.157 6.157 0 01-.338.175z" fill="#6640D0"/><path d="M42.111 149.656c.47-1.149.99-2.273 1.517-3.394a8.313 8.313 0 011.834-3.009.122.122 0 01.13-.019.127.127 0 01.051.047.123.123 0 01.017.068 7.704 7.704 0 01-.985 3.427c-.496 1.164-.987 2.332-1.418 3.526a19.222 19.222 0 00-1.385 7.322c.216 5.048 4.244 10.994 1.897 15.888 0 0-.202-1.76-.222-2.017-.468-5.909-3.127-9.463-3.057-14.729.09-2.452.64-4.864 1.621-7.11zm8.832-27.368c.52.196.992.505 1.381.905.534.428 1.09.828 1.666 1.198a25.346 25.346 0 002.517 1.439 5.2 5.2 0 011.147-1.063c.236-.138.572.119.47.374a4.237 4.237 0 01-.733 1.099c.558.243 1.127.46 1.707.653a5.734 5.734 0 011.343-1.604.239.239 0 01.32.093c.02.036.03.076.032.118a2.784 2.784 0 01-.362 1.059c-.108.209-.21.431-.323.645 1.212.342 2.45.585 3.7.726.042-.39.15-.771.32-1.125.089-.469.332-.894.69-1.209a.171.171 0 01.128-.011c.042.012.079.04.101.078a2.21 2.21 0 01-.008 1.454 4.7 4.7 0 01-.188.907c1.344.088 2.692.042 4.026-.139a2.506 2.506 0 01.007-.995c.005-.369.127-.726.348-1.02a.302.302 0 01.119-.064.315.315 0 01.352.139c.145.306.214.642.2.981.042.259.065.521.069.783a22.092 22.092 0 002.836-.732 6.636 6.636 0 01-.254-.905 2.405 2.405 0 01-.1-1.113.272.272 0 01.197-.171.273.273 0 01.249.074c.218.297.384.629.489.983.107.264.254.526.355.797a23.505 23.505 0 002.07-.914c-.099-.226-.183-.458-.272-.687a3.436 3.436 0 01-.288-.903c-.02-.22.328-.338.466-.168.168.245.307.51.412.788.098.209.206.415.303.625a13.154 13.154 0 012.62-1.453.05.05 0 01.021.001.038.038 0 01.024.033.036.036 0 01-.005.02 6.214 6.214 0 01-2.112 1.777 19.518 19.518 0 01-2.832 1.512 21.635 21.635 0 01-18.364-.502 18.963 18.963 0 01-3.005-1.864c-.77-.584-1.97-1.313-2.227-2.269a.306.306 0 01.233-.358.303.303 0 01.155.008z" fill="#6640D0"/><path d="M87.748 159.539c2.344 12.086 5.564 22.558 7.796 23.677l.002.001a3.22 3.22 0 001.35.976 3.197 3.197 0 001.655.168 3.566 3.566 0 001.881-1.5c7.29-10.748 13.305-26.899 13.305-26.899-.165.395-11.842 22.896-15.832 23.067-1.272.054-2.755-2.15-4.188-5.189-3.066-6.498-5.905-14.067-5.969-14.301z" fill="#E6A07A" opacity=".39"/><path d="M84.061 169.229c.037-1.076.182-2.145.435-3.192a11.8 11.8 0 011.198-2.749c.492-.816.936-1.661 1.33-2.53a7.684 7.684 0 00.52-3.178 46.816 46.816 0 00-.872-7.039c-.47-2.645-1.063-5.259-1.39-7.93-.022-.174.217-.311.295-.12a49.64 49.64 0 013.343 13.726c.152 1.112.156 2.239.013 3.352a9.57 9.57 0 01-.98 2.776c-.974 1.916-2.11 3.616-2.541 5.789-.544 2.742-.666 5.596-1.08 8.365a.193.193 0 01-.059.134.192.192 0 01-.135.051.187.187 0 01-.18-.198c-.036-2.419-.02-4.841.103-7.257z" fill="#6640D0"/><path d="M43.736 190.577s21.755 6.011 42.024-.447" stroke="#6640D0" stroke-linecap="round" stroke-linejoin="round"/><path d="M40.167 133.739l15.472-2.743s2.342-1.452 2.754 1.372c.411 2.823 3.621 59.135 3.621 59.135s-1.605 1.936-2.728 1.936c-1.124 0-22.45-1.13-22.45-1.13l3.33-58.57z" fill="#CE4831"/><path d="M45.322 130.364a20.97 20.97 0 0010.317 2.085l3.647 58.892s-3.651-1.15-9.604.969l-4.36-61.946z" fill="#FFEBDD"/><path d="M53.559 132.215l1.7 16.502-.416-16.23-1.284-.272zm3.121 58.62l-.535-19.744 2.28 20.072-1.745-.328zm-2.272.329v-14.049l1.306 13.937-1.306.112zm-2.105-58.949l.525 10.922-1.771-10.922h1.246z" fill="#E79E82" opacity=".41"/><path d="M25.996 136.232s3.852 54.214 4.013 55.827c0 0 .136 1.614 2.877 1.937 2.74.322 18.496.645 18.496.645s2.28.161 2.491-3.066c.211-3.227-3.64-61.138-3.64-61.138s-.524-2.262-4.144-1.455c-3.621.806-20.093 7.25-20.093 7.25z" fill="#CE4831"/><path d="M24.295 136.16s3.852 54.213 4.012 55.827c0 0 .137 1.613 2.878 1.936 2.74.323 18.496.645 18.496.645s2.28.162 2.491-3.065c.211-3.227-3.64-61.139-3.64-61.139s.156-2.333-2.658-1.868c-3.66.605-21.58 7.664-21.58 7.664z" fill="#FF6551"/><path d="M29.502 143.138v3.752l14.874-4.288v-4.289l-14.874 4.825z" fill="#FF998C"/><path d="M12.842 160.323s5.916-2.543 9.447-.768c3.531 1.775 5.939 4.162 7.784 4.259 1.846.097 2.649.259 3.29-.709.643-.968 1.606-3.792 4.014-5.648a70.052 70.052 0 006.12-4.921c1.343-1.371 1.825.565 1.182 1.775a19 19 0 01-3.492 4.76c-1.403 1.21-1.02 2.097-1.02 2.097a26.136 26.136 0 005.556-2.178c2.167-1.291 8.516-4.034 9.916-3.63 1.4.403.686 1.129 0 1.613-.687.484-3.416 1.614-5.262 2.582-1.845.968-5.377 3.55-4.173 3.146 1.204-.403 9.791-4.598 11.316-4.034 1.525.565-.482 2.098-1.445 2.663-.963.564-8.587 4.518-8.587 4.518s9.855-5.244 10.586-4.68c.73.565.329 1.581-1.196 2.646s-8.427 4.212-8.988 5.099c-.562.888 8.587-3.469 9.47-2.743.882.726-4.655 3.953-6.581 4.841-1.926.887-5.056 2.581-7.624 2.581-2.568 0-10.513-.645-10.513-.645s-11.453 1.371-15.787.645c-4.334-.726-6.66-4.517-6.821-6.534-.16-2.017.17-5.418 2.808-6.735z" fill="#FFBF94"/><path d="M44.375 171.727a72.331 72.331 0 00-11.45-.635c-3.638.161-10.272 1.345-16.157 0a9.194 9.194 0 01-4.184-2.305 9.266 9.266 0 01-2.475-4.099 10.78 10.78 0 00-.076 2.37c.16 2.017 2.488 5.809 6.821 6.535 4.334.726 15.787-.646 15.787-.646s7.945.646 10.513.646c2.568 0 5.697-1.695 7.624-2.582 1.72-.793 6.311-3.449 6.643-4.524-2.66 1.565-9.902 5.612-13.046 5.24zm-16.574-8.793a29.734 29.734 0 00-7.9-2.417 30.319 30.319 0 00-7.06-.195s4.455-1.878 8.097-1.229c3.642.649 6.863 3.841 6.863 3.841z" fill="#E6A07A" opacity=".39"/><path d="M62.607 25.073c-20.277 1.74-28.47 15.185-29.37 30.333-.901 15.147 4.314 38.454 6.736 41.363 2.423 2.91 17.795 13.86 25.246 14.098 7.452.239 25.137-12.816 28.996-20.247 3.86-7.431 8.736-49.188-4.638-57.424a55.972 55.972 0 00-26.97-8.123z" fill="#FFBF94"/><path d="M88.984 81.218s3.818-19.453-5.108-23.864c-8.927-4.41-17.264-8.916-20.62-13.13 0 0-.7 10.805-14.013 14.359-13.314 3.554-10.625 17.63-10.33 22.628.296 4.997-2.644 11.139-4.168 11.938-1.524.8 1.646-4.875 1.594-7.646-.053-2.77-2.237-18.858-2.237-18.858l23.413-31.237 10.739 1.904s18.505 9.998 18.739 10.255c.233.257 6.575 11.062 6.37 11.393-.206.332.58 13.99.546 14.24-.035.25-4.959 8.393-4.959 8.393l.034-.375z" fill="#E6A07A" opacity=".39"/><path d="M96.76 68.39s2.753-3.037 5.386 1.659c2.632 4.696-1.501 8.2-2.903 12.688-1.403 4.488-4.46 3.697-4.46 3.697s.38-12.26 1.977-18.044z" fill="#FFBF94"/><path d="M95.76 74.422a5.77 5.77 0 01.862-2.273 1.816 1.816 0 00-.242.043c-.318.082-.401-.355-.215-.53a2.007 2.007 0 012.79.242 3.552 3.552 0 01.694 3.466c-.365 1.425-1.251 2.647-1.766 4.016a23.864 23.864 0 01-1.768 4.385.66.66 0 01-1 .018.663.663 0 01-.159-.34 28.304 28.304 0 01.178-6.116c.148-.983.357-1.954.627-2.91z" fill="#E6A07A" opacity=".2"/><path d="M33.649 68.672s-3.094-3.101-5.668 2.047c-2.573 5.149 2.017 8.678 3.741 13.399 1.724 4.72 5.396 3.569 5.396 3.569s-1.472-12.92-3.47-19.015z" fill="#FFBF94"/><path d="M28.94 73.259c.006 2.161 1.783 3.91 2.987 5.528a11.98 11.98 0 011.683 2.85c.248.653.3 1.819 1.174 1.965.843.14 1.224-.806 1.28-1.483a7.532 7.532 0 00-.284-2.448 13.165 13.165 0 00-.525-2.68c-.596-1.882-1.468-3.687-2.186-5.525a1.725 1.725 0 01-.23-.487 2.158 2.158 0 00-2.541-.293 2.872 2.872 0 00-1.027 1.101 2.89 2.89 0 00-.33 1.472z" fill="#E6A07A" opacity=".2"/><path d="M88.737 68.716c.229.285-.156.63-.498.448-1.443-.77-3.36-.712-6.356-1.087-2.778-.347-8.323.622-8.211-2.799.084-2.6 5.008-2.89 9.58-.778a15.225 15.225 0 015.485 4.216zm-49.082 2.93a.32.32 0 00.132.377.314.314 0 00.395-.05c.991-1.047 3.602-2.03 5.978-3.021 2.202-.92 8.473-.81 7.696-4.144-.604-2.588-7.539-1.385-10.765 1.614a13.295 13.295 0 00-3.436 5.224z" fill="#662920"/><path d="M61.742 85.237a5.893 5.893 0 012.573-.72 7.27 7.27 0 012.784.487c.929.25 1.749.802 2.33 1.572a.408.408 0 01-.047.477c-.424.44-.931.328-1.466.137a9.73 9.73 0 00-2.838-.739 4.582 4.582 0 00-2.17.39c-.71.342-1.1 1.078-1.926 1.112a.786.786 0 01-.799-.743c-.112-.929.835-1.573 1.56-1.973z" fill="#E6A07A" opacity=".39"/><path d="M57.205 92.81s.067.628.273 1.572a15.71 15.71 0 002.383 5.725 6.304 6.304 0 002.46 2.187c1 .497 2.11.718 3.222.642a6.525 6.525 0 003.246-1.171 6.576 6.576 0 002.202-2.668 17.566 17.566 0 001.716-6.044 18.04 18.04 0 00.123-1.742 22.911 22.911 0 01-15.625 1.498z" fill="#9F2236"/><path d="M60.016 31.168a13.991 13.991 0 011.071 12.13 19.96 19.96 0 01-7.858 9.568c-3.927 2.62-8.596 4.157-12.022 7.411a16.042 16.042 0 00-4.922 11.069c-.097 3.637 1.05 7.197 1.222 10.831.245 5.227-1.525 10.303-2.725 15.395-1.2 5.092-1.776 10.713.66 15.337a17.024 17.024 0 01-3.425-6.633 17.078 17.078 0 01-.263-7.469 58.856 58.856 0 012.161-6.863c2.035-6.24 2.393-13.362-.695-19.148-1.384-2.595-3.392-4.806-4.846-7.361a22.673 22.673 0 01-2.05-16.356A29.967 29.967 0 0134.8 34.764c5.776-5.584 14.028-9.17 21.861-7.467l3.355 3.871z" fill="#662920"/><path d="M48.305 24.14c1.506 4.599 15.39 17.469 19.307 20.286 4 2.854 8.154 5.483 12.443 7.876a25.543 25.543 0 015.975 4.095c3.7 3.795 4.463 9.603 4.095 14.905-.369 5.301-1.664 10.567-1.279 15.867.393 5.42 2.523 10.566 3.292 15.945 1.164 8.135.416 10.459-4.401 17.099 5.409-5.462 7.319-6.575 8.742-14.148.509-2.544.729-5.138.656-7.733-.117-2.93-.724-5.816-1.096-8.725a45.682 45.682 0 01.352-14.54c1.185-6.056 3.801-11.823 4.314-17.974.517-6.182-1.129-12.337-3.138-18.203-1.055-3.081-2.294-6.247-4.69-8.441-2.062-1.89-4.772-2.864-7.405-3.793-4.153-1.465-8.5-2.953-12.862-2.364l-24.305-.151z" fill="#662920"/><path d="M57.205 92.81s.067.628.273 1.572a14.027 14.027 0 006.98 2.147c3.767.092 6.915-2.286 8.249-3.476a18.04 18.04 0 00.123-1.742 22.911 22.911 0 01-15.625 1.498z" fill="#fff"/><path d="M59.863 100.106a6.304 6.304 0 002.461 2.187c.998.497 2.11.718 3.221.642a6.526 6.526 0 003.246-1.171 6.577 6.577 0 002.202-2.668 6.71 6.71 0 00-5.666.565s-2.28-1.177-5.464.445z" fill="#FF6551"/><path d="M32.69 58.373a12.607 12.607 0 013.095-5.015c2.894-2.957 6.608-4.834 10.004-7.12a42.443 42.443 0 002.782-2.063 13.193 13.193 0 002.58-2.43c.132-.184.462.004.346.208a19.297 19.297 0 01-1.936 3.07 17.373 17.373 0 01-2.586 2.396c-1.98 1.553-4.162 2.805-6.212 4.257a18.532 18.532 0 00-5.294 5.224 10.268 10.268 0 00-1.6 6.903.52.52 0 01-.38.553.513.513 0 01-.605-.29 8.13 8.13 0 01-.613-2.715 9.672 9.672 0 01.419-2.978zm-4.002 5.307a.108.108 0 01.176-.064c.02.016.032.04.036.065a10.91 10.91 0 002.232 3.927 34.88 34.88 0 012.696 3.725 20.863 20.863 0 012.318 10.057A29.436 29.436 0 0134.1 92.42c-1.258 3.253-2.51 6.404-2.344 9.96a20.065 20.065 0 003.555 10.029c.271.41-.259 1.032-.653.642a15.584 15.584 0 01-4.245-8.43 19.615 19.615 0 01.884-9.993c.624-1.857 1.367-3.672 1.914-5.556.516-1.809.839-3.668.962-5.546a21.698 21.698 0 00-1.797-10.799c-.77-1.581-1.9-2.972-2.782-4.492a6.578 6.578 0 01-.907-4.556z" fill="#7A332D"/><path d="M20.492 56.636a30.437 30.437 0 018.599-11.492 23.436 23.436 0 016.317-3.678c2.548-.976 5.189-1.628 7.6-2.946a24.91 24.91 0 006.203-4.906 33.42 33.42 0 004.823-6.628c.142-.258.59-.184.53.15a15.832 15.832 0 01-.917 3.416A20.167 20.167 0 0152 33.712a22.2 22.2 0 01-4.923 5.316 23.086 23.086 0 01-6.422 3.559 47.695 47.695 0 00-7.319 2.96c-8.616 4.877-13.06 14.732-13.663 24.328-.405 6.46.73 12.958 2.228 19.217.144.599-.812.835-1.026.275-3.955-10.346-4.91-22.395-.384-32.731zm9.592-24.832a13.638 13.638 0 014.35-5.053c3.604-2.634 7.852-3.599 11.978-5.052 1.89-.666 4.29-1.547 5.463-3.288.309-.459 1.104.007.838.504-.385.82-.876 1.586-1.46 2.278a9.871 9.871 0 01-2.096 1.705 27.773 27.773 0 01-5.389 2.37c-3.937 1.41-7.838 3.197-10.523 6.534a10.78 10.78 0 00-1.78 2.883 13.413 13.413 0 00-.585 1.575 12.156 12.156 0 01-.383 1.76.696.696 0 01-.636.404.69.69 0 01-.628-.415 6.074 6.074 0 01-.124-3.162 9.557 9.557 0 01.975-3.043zm53.95 22.321a10.6 10.6 0 014.6 3.811 15.662 15.662 0 012.768 5.793c.582 2.357.753 4.797.506 7.212-.246 2.568-1.048 5.005-1.48 7.537a36.312 36.312 0 00-.184 8.103c.074 2.503.325 4.998.75 7.466.491 2.467 1.6 4.72 2.259 7.136a21.44 21.44 0 01.728 6.545 20.965 20.965 0 01-1.214 6.158 31.73 31.73 0 001.777-3.913 33.464 33.464 0 002.102-11.308c.019-1.129-.063-2.249-.148-3.373a15.094 15.094 0 01-.155-3.096.06.06 0 01.044-.049.06.06 0 01.062.02c1.049 1.472 1.204 3.738 1.346 5.482.162 2.03.097 4.072-.195 6.087a29.45 29.45 0 01-4.005 11.212c-1.155 1.894-2.493 3.934-4.429 5.089a.183.183 0 01-.108.02.185.185 0 01-.099-.046c-.236.239-.48.474-.732.705-.311.284-.706-.189-.49-.504a24.79 24.79 0 004.296-11.597 19.548 19.548 0 00-.452-6.269c-.538-2.268-1.602-4.369-2.195-6.623a37.427 37.427 0 01-1-7.13 70.325 70.325 0 01-.228-7.574c.23-2.499.663-4.974 1.294-7.401.499-2.33.665-4.718.494-7.094a19.625 19.625 0 00-1.864-6.876c-1.096-2-2.51-3.805-4.19-5.343-.088-.092.043-.215.142-.18zM63.465 27.41c.34.756.806 1.424 1.182 2.156.409.797.836 1.583 1.315 2.34a29.38 29.38 0 003.108 4.062 36.928 36.928 0 008.312 6.614 112.682 112.682 0 0010.954 5.537 76.02 76.02 0 019.772 5.067c3.205 2.083 6.03 4.776 7.358 8.447.182.504-.524.97-.845.484-3.998-6.07-10.83-9.022-17.178-11.921-7.055-3.221-14.26-6.602-19.484-12.544a24.307 24.307 0 01-3.303-4.743c-.432-.815-.8-1.66-1.104-2.531-.27-.93-.441-1.888-.508-2.855a.222.222 0 01.163-.236.22.22 0 01.258.124z" fill="#7A332D"/><path d="M68.627 21.576c.994 1.019 1.867 2.148 2.878 3.155a21.219 21.219 0 003.375 2.772 57.728 57.728 0 007.934 4.133c3.109 1.389 6.292 2.594 9.346 4.106a43.826 43.826 0 018.034 5 40.52 40.52 0 0110.812 13.691 40.713 40.713 0 014.073 16.995c.095 3.678-.36 7.35-1.349 10.893a43.6 43.6 0 01-4.521 10.014c-.082.14-.307.055-.238-.104a26.61 26.61 0 001.637-4.722c.348-1.529.727-3.051 1.012-4.594.576-3.1.883-6.246.918-9.4a38.984 38.984 0 00-3.802-17.153 37.775 37.775 0 00-9.772-12.622c-4.83-4.056-10.695-6.309-16.3-9.037a38.94 38.94 0 01-8.632-5.37c-2.303-1.997-5.024-4.326-5.946-7.347-.089-.293.268-.69.54-.41zm1.469-5.613c.633.463 1.356.652 1.989 1.111a29.9 29.9 0 001.877 1.255 32.343 32.343 0 003.855 2.025 49.289 49.289 0 008.472 2.685 22.498 22.498 0 018.491 3.882 45.756 45.756 0 016.273 5.789 18.372 18.372 0 012.781 3.703 16.849 16.849 0 011.477 4.218c.076.344-.436.447-.572.152a17.8 17.8 0 00-2.207-3.492c-.818-1.042-1.6-2.1-2.503-3.072a39.414 39.414 0 00-6.392-5.424 23.479 23.479 0 00-8.218-3.358 34.706 34.706 0 01-8.416-2.875 29.917 29.917 0 01-4.033-2.565 31.056 31.056 0 01-1.928-1.594 17.414 17.414 0 01-1.479-1.916c-.286-.336.2-.768.533-.524z" fill="#7A332D"/><path d="M52.475 84.559c2.596-1.968 3.113-5.68 1.155-8.29a5.867 5.867 0 00-8.246-1.16c-2.596 1.968-3.113 5.68-1.155 8.289a5.867 5.867 0 008.246 1.161z" fill="#fff"/><path d="M53.535 81.443c.947-2.447-.26-5.203-2.694-6.155a4.722 4.722 0 00-6.122 2.708c-.947 2.447.258 5.203 2.693 6.154a4.722 4.722 0 006.123-2.707z" fill="#000"/><path d="M52.065 78.871a1.568 1.568 0 01-.435 2.377 1.549 1.549 0 01-2.234-.892 1.57 1.57 0 01.477-1.67 1.552 1.552 0 012.192.185zm30.025 6.453c3.218-.47 5.447-3.474 4.978-6.71-.468-3.234-3.456-5.474-6.674-5.004-3.217.471-5.446 3.475-4.978 6.71.469 3.234 3.457 5.475 6.674 5.004z" fill="#fff"/><path d="M83.748 83.172a4.77 4.77 0 001.313-6.593 4.714 4.714 0 00-6.559-1.32 4.77 4.77 0 00-1.313 6.594 4.715 4.715 0 006.56 1.32z" fill="#000"/><path d="M77.959 79.81a1.423 1.423 0 001.198 1.022 1.408 1.408 0 001.398-.722 1.428 1.428 0 00-.128-1.575 1.415 1.415 0 00-1.496-.483 1.419 1.419 0 00-.972 1.758z" fill="#fff"/></svg>