<svg width="453" height="1094" fill="none" xmlns="http://www.w3.org/2000/svg"><path d="M62.303 122.956a.717.717 0 01-.27-.213c-.808-1.056-1.6-2.127-2.4-3.18-3.083-4.141-5.995-8.048-9.643-11.28a.776.776 0 01-.203-.289 1.077 1.077 0 01-.077-.386 1.367 1.367 0 01.058-.422 1.47 1.47 0 01.186-.396c.08-.121.177-.226.284-.309a1 1 0 01.34-.174.721.721 0 01.345-.013.64.64 0 01.296.149c3.617 3.42 6.923 7.271 9.881 11.51l2.386 3.175c.122.166.184.39.176.635a1.453 1.453 0 01-.22.711 1.232 1.232 0 01-.519.476.743.743 0 01-.59.029l-.03-.023zm-16.898-22.884a1.602 1.602 0 01-.68-.264c-.185-.131-.303-.294-.335-.46-.86-4.442-.954-8.86-.278-13.17.129-.815.258-1.636.465-2.425.05-.184.213-.337.453-.428.24-.091.54-.113.836-.06.297.056.564.184.743.356.178.171.254.372.211.558-.183.767-.329 1.56-.455 2.355-.658 4.202-.568 8.509.27 12.84a.46.46 0 01-.029.279.587.587 0 01-.196.235 1.01 1.01 0 01-.332.155 1.54 1.54 0 01-.42.05 1.766 1.766 0 01-.25-.04l-.003.019zm2.86-22.694a1.447 1.447 0 01-.23-.036c-.287-.086-.527-.238-.665-.422-.138-.185-.164-.387-.073-.562 2.77-5.304 6.975-9.435 12.494-12.264.222-.098.505-.13.793-.093.288.038.56.144.758.296.2.153.312.34.314.525.003.185-.104.353-.3.47-5.241 2.7-9.263 6.64-11.902 11.711-.078.15-.24.272-.456.343-.217.07-.477.086-.735.045m10.724 199.95a1.121 1.121 0 01-1.4-.002 91.082 91.082 0 01-14.356-14.456c-.798-1.009-1.602-2.027-2.326-3.071a1.145 1.145 0 01.263-1.566 1.131 1.131 0 011.57.263c.714 1 1.478 1.998 2.258 2.985a88.986 88.986 0 0013.992 14.093 1.122 1.122 0 01.38 1.188c-.042.141-.11.273-.203.388a1.033 1.033 0 01-.196.154l.018.024zM36.3 249.785a.95.95 0 01-.18.142 1.13 1.13 0 01-1.512-.512c-4.015-8.105-5.888-16.043-5.555-23.572a1.13 1.13 0 012.25.094c-.304 7.164 1.476 14.743 5.32 22.487a1.116 1.116 0 01-.31 1.376m9.743-74.636c.007.07.003.14-.01.209a60.503 60.503 0 01-2.385 7.506 1.112 1.112 0 01-.59.619 1.121 1.121 0 01-1.478-.569 1.115 1.115 0 01-.021-.855 60.327 60.327 0 002.37-7.228 1.115 1.115 0 011.267-.931 1.12 1.12 0 01.947 1.254l-.1-.005zm-7.088 18.328a1.24 1.24 0 01-.101.414c-3.137 6.769-5.811 12.903-6.772 19.383-.141.991-.272 1.983-.383 2.976a1.119 1.119 0 01-1.235.99 1.118 1.118 0 01-.993-1.234c.11-.992.231-1.985.382-2.975 1.007-6.788 3.75-13.077 6.954-20.003a1.118 1.118 0 012.144.529l.004-.08zM260.756 42.388a1.19 1.19 0 01-.11-.757c.047-.257.179-.487.372-.653a88.534 88.534 0 0116.85-11.417c1.139-.592 2.287-1.188 3.445-1.697a1.11 1.11 0 01.854-.01c.278.111.504.328.633.605.124.28.135.599.032.885a1.118 1.118 0 01-.582.64 74.522 74.522 0 00-3.348 1.646 86.45 86.45 0 00-16.427 11.128 1.084 1.084 0 01-1.235.132 1.147 1.147 0 01-.343-.286 1.152 1.152 0 01-.115-.23l-.026.014zm31.249-17.054a.974.974 0 01-.106-.212 1.19 1.19 0 01.105-.88c.147-.265.391-.457.678-.534 8.697-2.34 16.83-2.557 24.151-.637.273.09.504.285.646.542.142.258.185.56.12.846a1.135 1.135 0 01-.47.693c-.238.16-.527.218-.808.165-6.968-1.813-14.732-1.614-23.042.63a1.087 1.087 0 01-.746-.067c-.235-.11-.428-.3-.546-.537m70.523 25.132a.713.713 0 01-.203-.052 58.686 58.686 0 01-6.876-3.905 1.126 1.126 0 01-.314-.311 1.224 1.224 0 01-.024-1.3c.16-.265.412-.453.701-.524.29-.072.592-.02.842.144a58.587 58.587 0 006.605 3.836c.276.104.5.317.623.595.124.277.137.596.038.888-.1.291-.305.532-.57.668a1.07 1.07 0 01-.847.063l.025-.102zm-16.537-10.837a1.209 1.209 0 01-.386-.185c-6.004-4.536-11.477-8.473-17.632-10.717a96.62 96.62 0 00-2.838-.969 1.11 1.11 0 01-.653-.57 1.22 1.22 0 01.482-1.585c.264-.147.571-.178.853-.088.95.306 1.898.623 2.838.97 6.446 2.35 12.059 6.387 18.203 11.023.217.155.374.386.442.653.069.267.044.552-.07.804a1.168 1.168 0 01-.549.574 1.072 1.072 0 01-.767.07l.077.02zM66.511 131.209a.708.708 0 01.036.206 58.613 58.613 0 01-.754 7.871 1.114 1.114 0 01-.157.414 1.18 1.18 0 01-.308.33 1.23 1.23 0 01-.869.224 1.143 1.143 0 01-.764-.426 1.066 1.066 0 01-.212-.827c.433-2.518.7-5.055.802-7.597a1.113 1.113 0 01.288-.811 1.22 1.22 0 01.796-.397c.306-.029.61.06.842.246.234.187.378.455.403.748l-.103.019zm2.008 337.39a26.756 26.756 0 00.44 4.876 1.104 1.104 0 00.868.895c.145.03.295.031.44.002a1.114 1.114 0 00.9-1.306 25.014 25.014 0 01-.4-4.467c0-5.982 1.888-11.805 4.176-18.286a1.121 1.121 0 00-1.894-1.124c-.099.11-.175.237-.224.376-2.358 6.69-4.306 12.733-4.306 19.034zm8.142-29.971a1.133 1.133 0 00.78 1.066 1.126 1.126 0 001.418-.717c2.108-6.431 4.626-14.956 5.375-23.531a1.124 1.124 0 00-.999-1.216 1.109 1.109 0 00-1.209.997c-.73 8.395-3.207 16.71-5.275 23.032a.99.99 0 00-.06.349l-.03.02zm.37-50.381c0 .176.041.35.12.508a45.345 45.345 0 014.655 14.786 1.13 1.13 0 002.228-.299 47.562 47.562 0 00-4.875-15.504 1.144 1.144 0 00-1.519-.489 1.12 1.12 0 00-.61.998zM141.42 36.561a26.896 26.896 0 00-4.887-.415 1.112 1.112 0 00-1.035.7 1.119 1.119 0 00-.078.431 1.11 1.11 0 00.335.79 1.118 1.118 0 00.798.32c1.5-.005 2.999.123 4.476.384 5.903 1.039 11.319 3.907 17.316 7.281a1.123 1.123 0 001.106-1.952c-6.191-3.48-11.814-6.444-18.031-7.539zm28.156 13.21a1.14 1.14 0 00-1.188.58 1.125 1.125 0 00.462 1.52c5.978 3.19 13.952 7.145 22.281 9.37a1.13 1.13 0 001.374-.77 1.107 1.107 0 00-.774-1.361c-8.156-2.176-15.93-6.056-21.807-9.187a.994.994 0 00-.334-.119l-.014-.033zm49.642 9.115a1.157 1.157 0 00-.522.03 45.566 45.566 0 01-15.397 2.007 1.132 1.132 0 00-1.069 1.08 1.131 1.131 0 00.977 1.162 47.79 47.79 0 0016.143-2.1 1.138 1.138 0 00.746-1.407 1.12 1.12 0 00-.878-.772z" fill="#49B3F7"/><path d="M74.037 400.095a1.004 1.004 0 00.874 1.122 1.007 1.007 0 001.124-.873l2.658-10.379 10.55 7.677a.987.987 0 00.771.247 1 1 0 00.704-1.574.994.994 0 00-.306-.278l-11.74-8.555a.995.995 0 00-.918-.129.998.998 0 00-.63.688l-3.047 11.835a.728.728 0 000 .249M208.048 53.884a1.009 1.009 0 00-1.258.665 1 1 0 00.665 1.256l9.779 4.416-9.407 9.037a1.003 1.003 0 00-.319 1.124.999.999 0 001.7.304l10.479-10.054a.995.995 0 00-.282-1.62l-11.147-5.05a.732.732 0 00-.246-.044M28.533 98.224a6.8 6.8 0 00-2.497-3.85 4.537 4.537 0 00-4.325-1.067 6.758 6.758 0 00-3.357 3.181.808.808 0 00-.05.688 5.917 5.917 0 00.87 5.575c2.087 2.712 5.723 1.775 7.89-.329a4.497 4.497 0 001.47-4.198zm-2.407 2.802c-1.289 1.406-3.766 2.632-5.384.997a4.123 4.123 0 01-1.099-2.373c-.12-.758-.12-2.105.76-2.444a.9.9 0 00.399-1.336c.3-.304.635-.572.999-.798a2.61 2.61 0 012.996.39c1.788 1.246 2.997 3.719 1.329 5.534m-1.32-17.761a.71.71 0 00-.669.23 4.058 4.058 0 00-.774 4.668c.25.505.602.953 1.034 1.315 1.868 1.506 4.835.997 6.543-.549 4.075-3.67-2.857-9.244-6.134-5.714v.05zm4.665 4.727a3.57 3.57 0 01-3.995.24 2.333 2.333 0 01-.5-3.242.79.79 0 00.8-.369c1.758-2.702 6.862 1.197 3.685 3.37m-12.106-1.495a3.24 3.24 0 00-3.287-2.493c-1.368.13-2.717 1.785-1.728 3.062a.869.869 0 00.42.309c.29 1.266.999 2.473 2.477 2.433 1.478-.04 2.437-1.905 2.118-3.31zm-2.258 1.656c-.779-.09-.819-1.406-.859-1.995a.747.747 0 00-.19-.478c.17-.06.352-.076.53-.05a1.688 1.688 0 011.178 1.276c.09.429-.08 1.277-.659 1.217m299.856-27.061c-2.78-1.872-6.951-1.36-8.441 1.892a.827.827 0 000 .61 7.141 7.141 0 00-.844 6.553 6.46 6.46 0 002.72 2.998 6.537 6.537 0 003.983.806 6.97 6.97 0 003.728-1.812 6.889 6.889 0 002.023-3.597 7.408 7.408 0 00-.462-4.181 7.463 7.463 0 00-2.667-3.269h-.04zm.179 9.726a4.893 4.893 0 01-7.071 0c-2.294-2.424-.943-5.824.993-7.982a.8.8 0 00.209-.65c1.768-1.153 4.409-.532 5.899 1.172a5.5 5.5 0 01-.05 7.42m14.047 4.385a4.113 4.113 0 00-1.681-.99 4.176 4.176 0 00-1.956-.11 5.071 5.071 0 00-2.314 1.397.807.807 0 00-1.121.267 5.349 5.349 0 00-.759 3.839 5.426 5.426 0 002.062 3.346 5.058 5.058 0 003.549 1.054 5.024 5.024 0 003.311-1.639c1.799-2.23 1.011-5.41-1.091-7.165zm-.232 6.163a3.376 3.376 0 01-2.316 1.026 3.38 3.38 0 01-2.382-.867 3.68 3.68 0 01-1.14-1.664 3.62 3.62 0 01-.083-2.003.76.76 0 00.505-.267c1.223-1.397 2.698-2.706 4.476-1.229 1.435 1.19 2.243 3.419.94 5.005zm-14.588.782a4.157 4.157 0 00-4.088-1.54.847.847 0 00-.756-.571c-3.26-.215-3.843 3.926-2.78 6.2a4.603 4.603 0 004.66 2.763 4.62 4.62 0 001.83-.57 4.312 4.312 0 001.964-2.89 4.293 4.293 0 00-.83-3.392zm-1.696 4.62a2.833 2.833 0 01-4.17-.816 4.611 4.611 0 01-.552-2.794.757.757 0 001.022-.072 2.683 2.683 0 013.843-.132 2.614 2.614 0 01.472 2.976 2.613 2.613 0 01-.656.838" fill="#49B3F7"/><path d="M255.14 606.373l-1.977 2.067-1.472 1.506-38.535-25.522s1.344-1.816 3.083-4.115c3.122-4.114 7.529-9.775 7.806-9.293.425.733 31.144 35.357 31.144 35.357m-4.978 9.904c.525-.409 18.281-8.802 19.123-8.308.843.495.991 2.021.783 2.15-.208.129-18.509 8.533-19.321 7.77a1.572 1.572 0 01-.506-.698 1.707 1.707 0 01-.079-.882" fill="#864FF1"/><path d="M253.506 608.041l-1.485 1.49-38.865-25.25s1.356-1.797 3.109-4.071l37.241 27.831z" fill="#2D7F75" opacity=".36"/><path d="M274.204 619.362c-.252.751-28.281 12.175-28.664 11.535 0 0-.846-1.308-1.521-2.648-.676-1.339-1.119-2.506-.635-2.769 1.007-.538 27.776-11.729 28.663-11.536.444.091 1.008 1.248 1.492 2.486.415.922.642 1.919.665 2.932z" fill="#864FF1"/><path d="M245.266 618.655c-4.869 1.386-11.443.069-15.046-3.722-3.603-3.792-3.155-9.703-1.11-14.218a22.291 22.291 0 015.551-7.168c.974-.851-.73-4.425-1.899-3.396-4.723 4.188-7.878 10.129-7.576 16.574a16.687 16.687 0 003.073 9.208 16.261 16.261 0 007.639 5.851 18.118 18.118 0 0010.789.594c1.247-.347-.087-4.109-1.46-3.723m-1.045-8.89l11.38-11.807 1.63 1.51-11.37 11.477-1.64-1.18z" fill="#FFC652"/><path d="M274.206 619.609c-.25.735-27.963 11.915-28.342 11.289 0 0-.837-1.281-1.505-2.591l.349-.129c3.209-1.142 26.907-9.661 28.84-11.439.411.903.635 1.879.658 2.87z" fill="#2D7F75" opacity=".36"/><path d="M238.692 592.341a6.01 6.01 0 01-11.321-3.944c.077-.261.169-.518.276-.769a6.007 6.007 0 015.929-3.641 6.005 6.005 0 015.382 4.41 5.919 5.919 0 01-.266 3.944z" fill="#FFCD69"/><path d="M239.177 588.475a6.117 6.117 0 01-2.093 3.133 6.3 6.3 0 01-3.561 1.346 6.313 6.313 0 01-3.692-.945 6.148 6.148 0 01-2.438-2.882c-.082-.221-.164-.432-.225-.652.08-.266.176-.527.286-.783a6.14 6.14 0 012.47-2.816 6.307 6.307 0 013.675-.888 6.285 6.285 0 013.519 1.368 6.101 6.101 0 012.059 3.119z" fill="#FFC652"/><path d="M250.733 625.533a5.503 5.503 0 01-7.46-4.091 5.485 5.485 0 012.41-5.613 5.505 5.505 0 018.111 2.571c.062.144.115.291.158.442a5.483 5.483 0 01-.306 3.97 5.5 5.5 0 01-2.913 2.721z" fill="#FFCD69"/><path d="M253.187 618.933a5.656 5.656 0 01-1.797 2.816 5.014 5.014 0 01-2.979 1.178 4.962 4.962 0 01-3.063-.894 5.562 5.562 0 01-2.018-2.637l-.15-.463a5.655 5.655 0 011.8-2.813 5.008 5.008 0 012.98-1.174 4.942 4.942 0 013.061.897 5.563 5.563 0 012.017 2.638c.058.147.108.298.149.452z" fill="#FFC652"/><path d="M421.933 596.056a15.275 15.275 0 00-2.008-5.47 26.125 26.125 0 00-7.81-8.755 40.923 40.923 0 00-6.395-3.334c-10.581-4.692-23.18-2.995-30.117 6.988-5.873 8.475-6.194 21.871-.572 30.575a14.855 14.855 0 006.836 5.99c1.487.523 3.043.826 4.618.898 4.016.28 8.533-.509 10.642-3.863 1.325-2.116 1.345-4.762 1.897-7.197.552-2.436 2.078-5.051 4.578-5.311a10.61 10.61 0 013.955.849 11.879 11.879 0 0010.36-1.857 10.62 10.62 0 003.255-4.253c.703-1.67.965-3.491.761-5.29" fill="#C6C6C6"/><path d="M401.461 593.707a4.85 4.85 0 002.499.22 4.767 4.767 0 002.26-1.051 5.13 5.13 0 001.467-2.094c.3-.805.386-1.669.251-2.514a5.336 5.336 0 00-.705-1.816 8.19 8.19 0 00-.565-1.098 4.67 4.67 0 00-1.91-1.81 4.92 4.92 0 00-2.625-.53c-.37.065-.73.179-1.067.339a3.977 3.977 0 00-1.398.451.523.523 0 00-.228.323.503.503 0 00.068.385c-.361.399-.665.84-.907 1.314-1.419 2.822-.278 6.762 2.934 7.881" fill="#FFC652"/><path d="M387.717 598.995c4.49.201 6.33-5.483 4.694-8.884a7.598 7.598 0 00-4.305-3.833c-1.923-.664-4.162-.171-4.981 1.821a.7.7 0 000 .322c-.28.173-.538.379-.767.614a4.784 4.784 0 00-1.112 1.82 4.735 4.735 0 00-.207 2.113 4.7 4.7 0 00.818 2.013c.195.289.445.539.737.734.099.357.254.696.46 1.006a6.61 6.61 0 002.116 1.603 6.725 6.725 0 002.588.651" fill="#E76166"/><path d="M417.835 605.55a11.82 11.82 0 01-10.34 1.859 10.576 10.576 0 00-3.948-.85c-2.495.25-4.008 2.878-4.569 5.317-.561 2.438-.571 5.086-1.893 7.205-2.105 3.357-6.663 4.147-10.621 3.867a16.048 16.048 0 01-4.609-.899 14.84 14.84 0 01-6.823-5.996c-4.008-6.236-5.01-14.85-3.086-22.365a25.758 25.758 0 003.587 9.564 14.81 14.81 0 006.833 5.995c1.48.525 3.03.828 4.599.9 4.008.28 8.516-.51 10.621-3.867 1.332-2.119 1.352-4.757 1.893-7.196.541-2.438 2.074-5.066 4.569-5.326 1.379.021 2.74.309 4.008.85a11.776 11.776 0 0010.33-1.859 10.48 10.48 0 001.773-1.749 14.494 14.494 0 011.774 4.997 10.609 10.609 0 01-.759 5.296 10.644 10.644 0 01-3.249 4.257" fill="#B7B7B7"/><path d="M385.257 616.995c1.503.054 3.123-.336 3.903-1.888a2.69 2.69 0 00.781-1.726 5.867 5.867 0 00-.166-2.442 5.963 5.963 0 00-1.12-2.116 5.267 5.267 0 00-1.807-1.412 5.273 5.273 0 00-2.263-.406 5.298 5.298 0 00-2.226.602c-1.455.694-3.104 1.812-3.328 3.723-.42 3.625 3.552 5.589 6.206 5.665" fill="#864FF1"/><path d="M409.507 585.991a6.174 6.174 0 00-1.358-2.07 6.401 6.401 0 00-2.083-1.398 4.591 4.591 0 00-3.052-.163.333.333 0 00-.189-.193 4.545 4.545 0 00-2.106-.08 4.47 4.47 0 00-1.904.873 6.726 6.726 0 00-2.525 3.387 6.628 6.628 0 00.068 4.089 6.867 6.867 0 002.468 3.324 7.408 7.408 0 004.114 1.24c1.47 0 2.905-.432 4.115-1.24a6.694 6.694 0 002.636-3.491 6.464 6.464 0 00-.131-4.319l-.053.041zm-2.831 6.437a5.997 5.997 0 01-6.514.539 5.529 5.529 0 01-2.215-2.397 5.299 5.299 0 01-.437-3.186 5.063 5.063 0 011.958-3.051 8.079 8.079 0 011.557-.905c.189-.082.382-.153.579-.214l-.126.112c-.19.214.073.6.347.468a4.822 4.822 0 013.638-.194 4.704 4.704 0 011.589.933c.46.411.829.906 1.087 1.458a5.188 5.188 0 01.426 3.458 5.32 5.32 0 01-1.868 2.979m-14.11 3.6a5.834 5.834 0 001.167-2.119 5.746 5.746 0 00.199-2.396 10.578 10.578 0 00-1.838-4.345 5.275 5.275 0 00-1.726-1.501 5.424 5.424 0 00-2.218-.646 4.94 4.94 0 00-2.28.329c-.246.12-.483.257-.708.41-2.742.409-4.878 3.196-5.135 5.773a6.621 6.621 0 00.869 4.155 6.903 6.903 0 003.239 2.837c1.5.567 3.152.628 4.692.174a7.19 7.19 0 003.801-2.681l-.062.01zm-10.988-3.586a5.186 5.186 0 011.242-3.396 10.683 10.683 0 013.379-2.297.519.519 0 00.247-.24 6.558 6.558 0 011.17-.12 4.047 4.047 0 012.814 1.089 8.395 8.395 0 011.767 3.326 4.23 4.23 0 01-.329 3.726 5.775 5.775 0 01-2.752 2.529 5.987 5.987 0 01-3.769.357 5.287 5.287 0 01-2.744-1.883 5.049 5.049 0 01-1.025-3.111m7.7 15.417a5.989 5.989 0 00-3.752-1.807 5.09 5.09 0 00-1.642.082c-2.578-.288-5.345 2.29-5.872 4.754a5.707 5.707 0 00.186 2.176c.202.705.538 1.362.988 1.932a6.226 6.226 0 003.354 2.731 8.622 8.622 0 004.459 0 4.718 4.718 0 001.947-.898 4.916 4.916 0 001.377-1.679 6.704 6.704 0 00.589-3.84 6.61 6.61 0 00-1.634-3.502v.051zm-1.801 8.482a7.486 7.486 0 01-3.523.359 4.63 4.63 0 01-3.136-1.756 5.853 5.853 0 01-1.473-3.275c.09-.613.304-1.2.628-1.722a4.357 4.357 0 011.253-1.308c.634-.478 1.299-.91 1.991-1.294a5.686 5.686 0 012.362-.094 5.757 5.757 0 012.206.875 5.268 5.268 0 011.75 2.486c.331.989.37 2.057.112 3.069a3.819 3.819 0 01-.761 1.601c-.374.463-.85.826-1.389 1.059" fill="#fff"/><path d="M422.797 577.273l-.823-.394-1.675 1.121a15.6 15.6 0 01-6.011-2.717 5.42 5.42 0 01-1.244-2.121c-.766-2.162-.871-4.516-1.397-6.748-.527-2.232-1.656-4.505-3.647-5.414l3.426.364c.957.101 1.982.212 2.967.363 1.433.198 2.837.578 4.183 1.132a8.548 8.548 0 013.076 2.022 9.145 9.145 0 012.016 3.18c.832 2.656-.067 6.555-.862 9.222" fill="#FFC652"/><path d="M440.419 606.709a2.336 2.336 0 01-2.362-.06c-3.081-1.392-5.351-4.104-7.066-7.058a31.146 31.146 0 01-.709-1.291 88.804 88.804 0 01-3.903-8.943c-1.13-2.884-2.249-5.757-3.379-8.631l.801-.363.822-.363c2.978 4.033 6.255 7.29 9.336 11.202 3.081 3.912 5.772 8.258 6.871 13.107a2.342 2.342 0 01-.411 2.42" fill="#C6C6C6"/><path d="M440.426 606.709a2.286 2.286 0 01-2.335-.06c-3.045-1.392-5.289-4.104-6.985-7.058.48-.755.711-1.64.66-2.531a15.708 15.708 0 00-2.111-7.683c-1.503-2.632-3.3-5.112-4.863-7.713l-.792-1.301.812-.363c2.944 4.033 6.183 7.29 9.228 11.202 3.046 3.912 5.706 8.258 6.792 13.107a2.36 2.36 0 01-.406 2.42" fill="#B7B7B7"/><path d="M414.566 574.854a5.182 5.182 0 01-1.299-2.058c-.8-2.096-.91-4.379-1.459-6.544-.55-2.166-1.729-4.37-3.808-5.252l3.578.353a69.54 69.54 0 013.088.352c.379.059 1.089 1.402 1.279 1.715.378.63.712 1.285.999 1.96 2.998 7.083-1.229 10.454-2.328 9.445" fill="#E76166"/><path d="M422.799 580.608c.367.275.806.412 1.25.39a1.952 1.952 0 001.213-.51c.343-.31.583-.732.684-1.203a2.394 2.394 0 00-.122-1.408 2.896 2.896 0 00-.808-1.078 2.954 2.954 0 00-1.089-.657 2.782 2.782 0 00-1.241-.118 1.958 1.958 0 00-1.103.591 2.259 2.259 0 00-.583 1.177c.008.549.152 1.085.416 1.552.265.468.641.849 1.088 1.104.237.217.517.372.819.453.302.08.616.083.919.01l-1.443-.303z" fill="#B7B7B7"/><path d="M136 614.365c-12.915 7.944-25.86 14.687-38.775 22.602l-.296.139-1.975.894c-10.308-17.011-19.59-32.424-29.897-49.435L64 586.638l31.32-19.166 8.679-5.323.247-.149C114.524 578.972 136 614.365 136 614.365z" fill="#FFC652"/><path d="M66.54 590.366c-.493-.821-1.776-.446-2.418-.051a4.534 4.534 0 00-1.875 2.34 3.171 3.171 0 00.267 2.957 4.116 4.116 0 002.891 1.367c2.517.223 4.639-1.407 6.642-2.724a3.67 3.67 0 001.23-1.022c.333-.428.57-.927.695-1.459a4.749 4.749 0 00-.908-3.353c-.681-1.013-2.29 0-1.59.952.504.589.765 1.355.731 2.137-.128.831-1.095 1.256-1.697 1.692-1.382 1.012-2.862 2.147-4.619 2.228-.681 0-1.776-.091-2.191-.76-.415-.668 0-1.61.444-2.147a5.271 5.271 0 011.717-1.327c.188-.111.889-.496.681-.83zm4.006 9.249c-1.904.329-3.934 1.734-3.482 3.739.494 2.179 3.072 2.954 5.208 2.538a10.363 10.363 0 003.26-1.405 8.504 8.504 0 002.778-2.354c.32-.409.537-.88.633-1.376a3.117 3.117 0 00-.076-1.494 3.298 3.298 0 00-.77-1.316 3.661 3.661 0 00-1.312-.88c-1.115-.426-1.662 1.308-.505 1.695 1.546.514.684 2.383-.074 3.129a10.042 10.042 0 01-3.998 2.383c-1.283.378-3.156.242-3.587-1.211-.431-1.453 1.284-2.092 2.283-2.654a.445.445 0 00.2-.237.404.404 0 00-.014-.3.451.451 0 00-.22-.22.506.506 0 00-.324-.037zm7.001 9.708c-.494-.82-1.777-.445-2.419 0a4.4 4.4 0 00-1.875 2.337 3.106 3.106 0 00.266 2.945c.37.414.816.749 1.312.985a4.044 4.044 0 001.58.391c2.518.213 4.64-1.416 6.634-2.732a3.62 3.62 0 001.235-1.017c.333-.429.569-.928.69-1.462a4.728 4.728 0 00-.898-3.349c-.681-1.012-2.29 0-1.6.951a3.08 3.08 0 01.741 2.135c-.138.83-1.096 1.265-1.708 1.7-1.382 1.012-2.862 2.135-4.61 2.216-.69 0-1.776-.081-2.191-.749-.415-.668 0-1.619.444-2.155a5.417 5.417 0 011.718-1.326c.187-.111.888-.485.68-.83m4.696 8.255c-1.737.34-3.598 1.738-3.183 3.747.453 2.184 2.806 2.913 4.764 2.544a9.021 9.021 0 002.99-1.408 7.895 7.895 0 002.547-2.349 3.392 3.392 0 00-1.389-5.087c-1.022-.418-1.534 1.31-.463 1.698 1.418.515.618 2.389-.077 3.146a9.152 9.152 0 01-3.665 2.388c-1.168.369-2.894.243-3.28-1.213-.386-1.457 1.167-2.107 2.093-2.67a.437.437 0 00-.337-.796zm5.305 9.99c-1.905.339-3.935 1.745-3.483 3.743.495 2.182 3.062 2.958 5.198 2.541a10.259 10.259 0 003.262-1.406 8.372 8.372 0 002.778-2.347 3.25 3.25 0 00.639-1.376 3.11 3.11 0 00-.072-1.496 3.295 3.295 0 00-.769-1.319 3.651 3.651 0 00-1.313-.881c-1.116-.426-1.673 1.3-.505 1.688 1.547.514.673 2.385-.084 3.142a10.13 10.13 0 01-3.999 2.385c-1.273.369-3.157.242-3.578-1.212-.42-1.455 1.273-2.104 2.284-2.667a.445.445 0 00.2-.237.404.404 0 00-.014-.3.453.453 0 00-.22-.221.513.513 0 00-.324-.037z" fill="#864FF1"/><path d="M93.516 626.176c-.163 0-.338-.23-.49-.303-.153-.073-.6-.136-.872-.261a1.265 1.265 0 01-.643-.699 1.196 1.196 0 01.044-.931c.839-1.463 2.179.167 2.963.721.164.125.513.073.48-.188a2.71 2.71 0 00-.527-1.438 2.889 2.889 0 00-1.238-.955 2.593 2.593 0 00-1.463-.032 2.5 2.5 0 00-1.228.764c-1.428 1.629.163 4.753 2.484 4.043a.563.563 0 00.24-.136.529.529 0 00.141-.23.278.278 0 01.163-.23.07.07 0 00.018-.08.071.071 0 00-.029-.033.08.08 0 00-.043-.012zm-5.585-10.113c-.69-.264-2.059-.282-1.699-1.348.36-1.066 2.08-.747 2.509.191 0 .082.21.119.23 0a1.484 1.484 0 00-.225-1.12 1.741 1.741 0 00-.984-.701 2.304 2.304 0 00-1.443.067 2.047 2.047 0 00-1.056.898 1.81 1.81 0 00-.233 1.263c.08.432.316.828.672 1.123.64.538 1.92.911 2.42.064a.26.26 0 00.014-.247.287.287 0 00-.082-.103.337.337 0 00-.123-.06m-5.038-8.45c-.765-.349-2.041-1.007-1.823-1.98a.924.924 0 01.438-.547c.215-.122.474-.162.72-.11.49.158.915.456 1.212.854.237.273.602 0 .556-.299a1.894 1.894 0 00-.572-.999 2.103 2.103 0 00-1.072-.526 2.185 2.185 0 00-1.202.129 2.022 2.022 0 00-.918.739 1.944 1.944 0 00.219 2.168c.266.328.62.586 1.027.746.406.161.85.218 1.288.167.191 0 .3-.273.1-.367m-6.848-9.943c-.482-.178-1.065-.063-1.437-.492a1.215 1.215 0 01-.117-1.371c.081-.141.19-.262.318-.357 1.095-.817 2.11.293 2.804 1.1.14.167.402 0 .412-.189.09-2.398-3.146-3.141-4.483-1.434a2.633 2.633 0 00-.515 1.57c0 .569.181 1.121.516 1.571a2.01 2.01 0 001.27.888c.52.11 1.06.002 1.504-.302a.593.593 0 00.132-.554.595.595 0 00-.14-.257.56.56 0 00-.244-.152m-3.908-8.475c-.384-.676-2.44-1.196-1.669-2.287.336-.488 1.294-1.112 1.877-.841.333.262.592.614.752 1.018.16.403.214.845.157 1.278a.207.207 0 00.019.151c.025.046.066.08.115.093a.18.18 0 00.143-.019.2.2 0 00.089-.121 2.914 2.914 0 00.365-1.808 2.407 2.407 0 00-.899-1.289 2.493 2.493 0 00-1.638-.375 2.54 2.54 0 00-1.514.76c-.224.128-.42.303-.578.514a2.027 2.027 0 00-.34.712c-.05.604.112 1.206.454 1.694.494.779 1.749 1.787 2.599 1.039a.479.479 0 00.07-.53" fill="#864FF1"/><path d="M136.114 614.269c-12.945 7.978-25.919 14.749-38.863 22.697l-.297.14a73.526 73.526 0 005.344-5.076 40.906 40.906 0 005.938-7.978 28.942 28.942 0 004.216-14.649c0-6.113-2.187-12.057-4.157-17.751a61.44 61.44 0 00-4.047-8.905c-1.613-2.992-3.503-5.814-5.176-8.766a200.624 200.624 0 01-2.464-4.468c-.386-.738-.87-1.535-1.227-2.353l8.699-5.345.247-.15c10.302 17.043 31.826 52.584 31.826 52.584" fill="#FFC652"/><path d="M129.793 620.96l-14.023-22.709c-4.667-7.566-9.174-15.241-14.022-22.659l-4.086-6.237a141.464 141.464 0 00-2.174-3.221c-.36-.512-.72-.985-1.071-1.527a4.312 4.312 0 00-.611-.719l-.12-.168a1.079 1.079 0 00-.441-.364l-.18-.158a.777.777 0 00-.664-.185.767.767 0 00-.548.412c-.29.042-.567.146-.812.305-.55.305-1.121.561-1.682.837a.753.753 0 00-.333.441.738.738 0 00.062.545c.41.679.821 1.359 1.292 1.97.214.349.459.679.731.985.209.184.445.333.701.443a.29.29 0 00.283 0 .293.293 0 00.105-.099.28.28 0 00.043-.137 3.006 3.006 0 00-.1-.798 9.777 9.777 0 00-.56-1.054c-.241-.453-.502-.897-.762-1.34a5.027 5.027 0 001.242-.749c.067.216.15.427.25.631.26.502.541.985.822 1.497.54.985 1.081 1.971 1.652 2.956l3.295 5.615a373.925 373.925 0 006.931 11.399c4.758 7.517 9.445 15.084 14.143 22.66l8.012 12.906.081.108c-.281.187-1.002.69-1.232.621-.231-.069-.521-.71-.631-.887a13.838 13.838 0 01-.752-1.419c-.37-.807-1.792-.226-1.472.611.441 1.133 1.132 3.291 2.544 3.527a3.793 3.793 0 002.113-.591c.356-.129.677-.337.94-.606.262-.27.458-.595.573-.951a1.36 1.36 0 00.646-1.406 1.35 1.35 0 00-.205-.505" fill="#864FF1"/><path d="M107.03 560.593a72.484 72.484 0 004.057 7.805c1.453 2.599 2.985 5.157 4.477 7.726 2.926 5.107 6.018 10.173 9.11 15.19 1.756 2.859 3.599 5.638 5.423 8.448a.487.487 0 00.299.223.473.473 0 00.365-.055.502.502 0 00.223-.303.52.52 0 00-.048-.377c-5.628-10.454-11.704-20.648-17.81-30.801a73.354 73.354 0 00-5.521-8.318c-.293-.361-.722.1-.575.462zM101.092 638a66.757 66.757 0 0010.082-5.631 111.922 111.922 0 009.722-6.828.309.309 0 00.1-.182.326.326 0 00-.036-.208.298.298 0 00-.155-.134.279.279 0 00-.201.003 112.301 112.301 0 00-10.198 5.969 67.264 67.264 0 00-9.382 6.837c-.059 0 0 .174.077.143" fill="#C6C6C6"/><path d="M96.008 576.41a361.367 361.367 0 0018.277 30.913c1.835 2.865 3.688 5.729 5.494 8.623.077.129.281 0 .204-.119-2.98-5.193-5.824-10.486-8.736-15.689-2.912-5.204-6.008-10.358-9.153-15.452a198.252 198.252 0 00-5.6-8.554.27.27 0 00-.163-.124.264.264 0 00-.323.197.273.273 0 00.03.205" fill="#fff"/><path d="M61.065 849.92c-1.408.908-3.166-.498-4.145-1.446a8.83 8.83 0 01-2.647-4.527 5.972 5.972 0 011.818-5.495c1.938-1.815 4.994-2.882 7.602-1.994l-2.628 13.462z" fill="#C6C6C6"/><path d="M82.054 844.067c-.8-1.995-2.168-4.109-4.236-4.927a1.244 1.244 0 00-1.49.325 1.23 1.23 0 00-.248.483c-.719 2.373-1.338 4.787-2.207 7.11a70.328 70.328 0 01-3.127 6.632c-.46.937-1.109 2.114-.59 3.111a.349.349 0 00.21.319c.8.998 2.378.738 3.457.529a5.347 5.347 0 001.828-.678c.95-.217 1.87-.552 2.737-.997a8.79 8.79 0 004.335-4.917 10.493 10.493 0 00-.67-6.98" fill="#FFC652"/><path d="M84.97 832.349l-13.115 34.385c-5.424-1.746-10.818-7.24-12.246-12.745-.87-3.414-.8-7 .2-10.378a19.58 19.58 0 015.484-8.819 17.9 17.9 0 0117.48-3.351c.755.245 1.49.548 2.198.908z" fill="#C6C6C6"/><path d="M84.9 832.479l-13.076 34.295c-5.424-1.745-10.818-7.24-12.246-12.745-.87-3.414-.801-7 .2-10.378a19.58 19.58 0 015.483-8.819 17.462 17.462 0 016.593-3.59c-.82 1.945-1.998 3.73-2.907 5.655a30.28 30.28 0 00-2.078 6.073 32.088 32.088 0 00-.609 11.298c.16 1.207.33 4.408 2.238 3.92 1.908-.489 3.076-2.643 3.995-4.079 2.278-3.72 3.606-7.978 5.115-12.027.829-2.244 1.618-4.507 2.487-6.731a7.791 7.791 0 012.687-3.869c.75.276 1.478.61 2.178.997" fill="#AAA"/><path d="M32.896 881.971c4.395 6.981 9.86 13.283 14.904 19.785 5.044 6.502 10.138 13.064 14.983 19.796.64.887 2.078-.05 1.428-.928a826.95 826.95 0 00-15.133-19.945c-5.074-6.462-9.989-13.193-15.792-19.027-.19-.189-.49.08-.36.299m3.947-1.117c2.127 3.361 4.714 6.442 7.072 9.653 2.357 3.212 4.764 6.652 7.132 9.973 2.367 3.321 4.785 6.622 7.382 9.783a120.531 120.531 0 003.875 4.517 29.699 29.699 0 004.216 4.159c.729.528 1.998-.28 1.328-1.117-1.209-1.486-2.687-2.782-3.995-4.209-1.309-1.426-2.687-3.141-3.996-4.766-2.547-3.271-4.994-6.652-7.392-9.973-2.397-3.32-4.844-6.751-7.421-9.972-2.368-2.992-4.845-6.043-7.992-8.237-.16-.12-.34.129-.25.279m-4.802-9.832c.918-4.987 1.618-10.053 2.627-15.049.506-2.519 1.022-5.042 1.548-7.569l.749-3.55c.32-1.19.517-2.41.59-3.64a.738.738 0 00-1.38-.299 16.771 16.771 0 00-.868 3.361 498.37 498.37 0 00-.8 3.739 536.543 536.543 0 00-1.598 7.779 113.749 113.749 0 00-2.357 15.098c0 .848 1.338.997 1.488.13zm2.456.837c.879-.448.939-1.855 1.149-2.702.35-1.317.659-2.633.939-3.989a449.647 449.647 0 001.618-8.197c.999-5.385 1.868-10.81 2.777-16.225.14-.828-1.11-1.127-1.279-.29-1.109 5.365-2.088 10.771-2.997 16.166-.48 2.752-.998 5.484-1.508 8.227-.25 1.266-.48 2.543-.71 3.829-.159.898-.768 2.304-.159 3.112a.154.154 0 00.094.069.15.15 0 00.116-.02" fill="#999"/><path d="M44.645 836.707a34.818 34.818 0 004.225 2.423c1.498.858 2.997 1.715 4.435 2.653 1.818 1.187 3.437-2.084 1.529-3.131a37.849 37.849 0 00-4.765-2.284 15.923 15.923 0 00-4.855-1.376.997.997 0 00-.57 1.715z" fill="#AAA"/><path d="M95.399 832.1a9.217 9.217 0 00-2.338 1.545c-.769.579-1.458 1.277-2.187 1.915a97.4 97.4 0 00-2.108 1.895 11.574 11.574 0 00-1.998 2.124.437.437 0 00.272.607c.08.024.167.025.248.001.83-.421 1.602-.947 2.297-1.565.78-.619 1.549-1.247 2.318-1.875.769-.628 1.478-1.147 2.137-1.795a9.552 9.552 0 001.998-2.134.52.52 0 00-.61-.718m3.166 7.768c-1.335.27-2.62.748-3.806 1.416a41.15 41.15 0 01-3.995 1.486.724.724 0 00-.113 1.33.72.72 0 00.552.046 40.225 40.225 0 004.156-1.306 8.792 8.792 0 003.606-1.995.584.584 0 00.114-.65.588.588 0 00-.564-.347m-.648 13.492c-2.248-1.745-5.215-2.593-7.942-3.231-.809-.189-1.048.997-.28 1.237a60.775 60.775 0 007.992 2.403c.22 0 .42-.259.21-.409m-8.621 9.694a16.272 16.272 0 00-1.448-2.214c-.49-.638-.999-1.486-1.878-1.665a.694.694 0 00-.588.147.702.702 0 00-.251.551c.123.771.47 1.488.999 2.064.47.688.889 1.416 1.348 2.114.46.698.82 1.347 1.229 1.995.405.768.852 1.514 1.338 2.234.31.408 1.06.259 1-.32a13.561 13.561 0 00-1.789-4.926m-11.758.788c0 1.585 0 3.161.19 4.747.19 1.585.6 3.141.739 4.736a.27.27 0 10.54 0c0-1.595.329-3.181.32-4.776a35.958 35.958 0 00-.42-4.747.689.689 0 00-1.369.06" fill="#FFC652"/><path d="M34.097 840.926a5.63 5.63 0 01-2.57-2.856 5.615 5.615 0 01-.137-3.836 7.979 7.979 0 015.684-4.986 7.125 7.125 0 011.998-.239 5.843 5.843 0 014.735 3.061 7.258 7.258 0 01-1.84 8.868 7.287 7.287 0 01-2.885 1.463 5.742 5.742 0 01-3.5-.386 5.727 5.727 0 01-2.613-2.356l1.128 1.267z" fill="#C6C6C6"/><path d="M40.769 835.221a2.44 2.44 0 00-1.534-1.449 2.447 2.447 0 00-2.092.282 2.066 2.066 0 00-.939 1.705c-.63 1.526 1.159 2.922 2.597 2.763a2.477 2.477 0 002.137-2.213 2.471 2.471 0 00-.14-1.088h-.03zm-2.637.937v-.05.05z" fill="#AAA"/><path d="M28.323 883.058c-2.677-1.206-3.896-4.667-2.997-7.459a8.886 8.886 0 016.343-5.574c.729-.2 1.482-.29 2.238-.27a6.501 6.501 0 015.274 3.401 8.107 8.107 0 01-2.049 9.891 8.136 8.136 0 01-3.215 1.637 6.395 6.395 0 01-3.904-.436 6.378 6.378 0 01-2.909-2.636l1.219 1.446z" fill="#C6C6C6"/><path d="M35.765 876.706a2.712 2.712 0 00-1.688-1.598 2.727 2.727 0 00-2.308.292 2.272 2.272 0 00-.999 1.895c-.709 1.705 1.289 3.251 2.887 3.081a2.757 2.757 0 002.353-2.466 2.749 2.749 0 00-.155-1.204h-.09zm-2.907.997a.087.087 0 010-.049v.049zm20.227 47.628a17.38 17.38 0 003.936-.857 190.34 190.34 0 003.995-1.147c2.697-.758 5.364-1.616 7.991-2.433l7.802-2.394 3.995-1.236a14.405 14.405 0 004.066-1.566 1.495 1.495 0 00-.89-2.732 14.171 14.171 0 00-3.995.997l-3.995 1.306-7.991 2.603c-2.588.848-5.185 1.655-7.752 2.553l-3.995 1.386a18.836 18.836 0 00-3.916 1.645.998.998 0 00.61 1.885" fill="#AAA"/><path d="M53.214 924.374a8.646 8.646 0 00-.799-2.763c-.21.429-.42.848-.64 1.267a615.527 615.527 0 0015.683-4.597l7.572-2.364 3.996-1.246c1.276-.36 2.59-.57 3.915-.629a1.286 1.286 0 00.22-2.533c-2.437-.708-5.344.549-7.642 1.297l-8.21 2.652a539.125 539.125 0 00-16.112 5.515 1.012 1.012 0 00-.591.497.996.996 0 00-.059.77c.39 1.047.95 2.353 2.158 2.592a.451.451 0 00.385-.098.46.46 0 00.164-.36" fill="#AAA"/><path d="M71.514 714.073a9.062 9.062 0 01-1.469 5.195 9.198 9.198 0 01-2.717 2.693l-.999.668c-1.258-.449-22.345-12.595-33.233-18.738-2.757-1.566-4.864-2.743-5.823-3.241l-.23-.11 2.357-3.43.06-.08c1.239-1.805 2.527-3.81 2.318-5.984 4.994 2.753 34.761 20.284 39.776 23.027" fill="#FF6551"/><path d="M70.046 719.268a9.185 9.185 0 01-2.717 2.692l-1.049.669c-1.248-.449-22.335-12.595-33.223-18.738a87.14 87.14 0 00-5.823-3.241l-.23-.11 2.357-3.431 1.239-.917c3.306 2.054 31.395 18.209 39.446 23.076z" fill="#FF6551" opacity=".36"/><path d="M31.65 691.026s1.268 2.134-.32 5.395a8.436 8.436 0 01-4.206 4.189c-1.688-2.254-3.586-4.408-5.434-6.592a89.253 89.253 0 01-3.276-4.049c1.998.16 3.996.24 5.993.339a61.74 61.74 0 017.232.718" fill="#FFC652"/><path d="M24.417 690.308a3.494 3.494 0 01-2.727 3.71 89.253 89.253 0 01-3.276-4.049c1.998.16 3.996.24 5.993.339" fill="#FF6551"/><path d="M83.372 709.116a4.977 4.977 0 01-.616 3.27 4.991 4.991 0 01-2.54 2.155l-.52.19c-1.099-.449-16.921-9.534-27.53-15.547-4.224-2.404-7.62-4.308-8.92-4.986l-.2-.1 1.59-2.274c.828-1.197 1.677-2.533 1.128-4.188 4.994 2.702 37.608 21.55 37.608 21.55" fill="#864FF1"/><path d="M82.423 712.906a4.93 4.93 0 01-2.207 1.635l-.52.19c-1.099-.449-16.921-9.534-27.53-15.547a126.263 126.263 0 00-8.92-4.986l-.2-.1 1.59-2.274.998-.528c2.997 1.735 27.25 15.956 36.86 21.63" fill="#2D7F75" opacity=".36"/><path d="M45.663 687.536a4.076 4.076 0 01.609 3.989 4.42 4.42 0 01-3.146 2.613c-1.918-1.905-3.996-3.76-6.054-5.635a110.143 110.143 0 01-3.666-3.46c1.878.379 3.706.698 5.534.997 2.228.399 4.435.828 6.723 1.456" fill="#FFC652"/><path d="M38.94 686.08a1.793 1.793 0 01-1.868 2.433c-1.258-1.147-2.497-2.293-3.666-3.46 1.878.379 3.706.698 5.534.997" fill="#864FF1"/><path d="M59.322 1058.64l-7.721-7.29a.833.833 0 00-.419-.21.91.91 0 00-.462.06.814.814 0 00-.352.31.801.801 0 00-.126.45l.3 9.18-6.173 4.31a.828.828 0 00-.281.35.791.791 0 00-.052.44c.025.15.092.29.194.41.1.11.232.19.378.23l6.623 1.87 2.367 9.63a.814.814 0 001.103.56.888.888 0 00.356-.3l4.755-7.12 9.529-.24c.163 0 .32-.06.452-.15.132-.1.232-.23.287-.38a.817.817 0 00.022-.48.754.754 0 00-.252-.4l-5.563-4.88 4.465-7.84a.803.803 0 00-.467-1.16.844.844 0 00-.472-.01l-8.49 2.66z" fill="#FF6551"/><path d="M95.022 1062.7l-2.198-3.99a.758.758 0 00-.324-.32.776.776 0 00-.446-.1.824.824 0 00-.427.16.78.78 0 00-.271.37l-1.619 4.31-4.215.94a.82.82 0 00-.622.67.808.808 0 00.392.82l3.287 1.93-.8 4.56a.818.818 0 00.357.82c.134.08.29.13.448.13a.874.874 0 00.444-.14l3.346-2.25 4.406 1.68c.145.05.302.05.45.01a.836.836 0 00.387-.23.812.812 0 00.161-.85l-1.628-3.82 3.566-2.86a.803.803 0 00.271-.86.836.836 0 00-.262-.4.87.87 0 00-.438-.18l-4.266-.4z" fill="#864FF1"/><path d="M85.432 1034.08l-1.928-6.99a.819.819 0 00-.648-.58.868.868 0 00-.45.06.791.791 0 00-.35.29l-4.086 6.06-6.992-.1c-.161 0-.32.05-.454.13a.818.818 0 00-.343.84c.033.16.112.3.227.41l4.535 4.37-2.996 6.8c-.06.15-.077.3-.05.46a.79.79 0 00.203.4c.106.12.241.2.39.24.15.03.309.03.456-.02l6.143-2.29 6.223 4.25a.87.87 0 00.445.13c.158 0 .314-.05.447-.13a.866.866 0 00.303-.35.831.831 0 00.063-.46l-1.108-6.63 6.652-3.15a.788.788 0 00.461-.77.838.838 0 00-.165-.45.847.847 0 00-.386-.27l-6.592-2.25z" fill="#FFC652"/></svg>