<svg width="350" height="1050" fill="none" xmlns="http://www.w3.org/2000/svg"><path d="M173.754 988.524c80.021 0 144.891-2.462 144.891-5.499 0-3.037-64.87-5.499-144.891-5.499-80.02 0-144.89 2.462-144.89 5.499 0 3.037 64.87 5.499 144.89 5.499z" fill="#D2CBEC"/><path d="M231.148 491.737c.054.085.112.167.176.245l.263.359.193.236.272.316.211.227.289.298.228.21.079.07-.877.359a5.422 5.422 0 00-2.737 3.003 6.171 6.171 0 00-.15 4.125 7.607 7.607 0 006.361 4.903 9.778 9.778 0 005.264-.876 20.66 20.66 0 003.439 5.42c-4.158 0-8.554.675-9.133 2.741a2.202 2.202 0 00-1.088 2.005c.064 1.14.216 2.273.456 3.389a4.583 4.583 0 00-.412.184c-2.684 1.339-7.896 6.199-10.344 8.817a15.544 15.544 0 00-1.974 2.627c-.3.38-.537.806-.701 1.261a20.61 20.61 0 00-2.071 7.478 18.367 18.367 0 00-.412 2.915c-.062.797.07 3.153.158 4.571h-.237a3.141 3.141 0 00-2.878 3.1 4.164 4.164 0 000 .805v.832c.053.42.114.937.184 1.532.588 5.026 1.834 15.35 1.834 15.35a8.932 8.932 0 001.983 4.483l.096.105c.141.166.281.333.439.499l.21.202c.153.154.314.3.483.437l.254.219c.176.14.369.28.571.421l.263.183c.307.206.626.394.956.561a10.388 10.388 0 005.431 4.754s2.465.736 5.843 1.603c1.93.49 4.158 1.033 6.396 1.497l.833.175.974.184 1.518.28 1.605.254a40.42 40.42 0 002.939.324h1.43s.272 0 .764.07c.105 5.867.403 10.744 1.114 17.582.21 2.006 1.184 10.595.947 8.616-.087-.753.334 14.343.334 14.352-.579 1.226-1.632 3.056-1.29 4.203.421 1.401 2.693 1.331 3.825 1.199a19.552 19.552 0 013.185-.315c.637.052 1.269.142 1.895.271a20.14 20.14 0 004.659.254l1-.078a4.912 4.912 0 001.807-.465 1.905 1.905 0 001.044-1.453 2.049 2.049 0 00-.605-1.471c-1.597-1.708-5.185-1.55-7.308-2.154a7.952 7.952 0 01-1.457-.543 387.148 387.148 0 004.931-38.956c.044-.683.087-1.366.123-2.049l.78-.21a19.299 19.299 0 003.422-1.418c0 .875.07 1.751.123 2.626 1.149 21.287 4.185 40.077 4.185 40.077h.052c-.473 1.173-1.904 3.38-1.517 4.693.386 1.314 2.702 1.331 3.825 1.2a19.551 19.551 0 013.184-.315c.637.051 1.27.142 1.895.271 1.538.264 3.102.35 4.659.254.333 0 .676-.044 1.009-.079a4.817 4.817 0 001.798-.464 1.886 1.886 0 001.045-1.453 2.026 2.026 0 00-.606-1.471c-1.588-1.708-5.185-1.55-7.308-2.154a4.027 4.027 0 01-2.421-1.384 457.308 457.308 0 002.456-23.273.082.082 0 000-.044c.518-6.594.877-13.134.877-19.264v-12.223l.615-.254 1.631 4.273c.351.079.667.122.992.175.027.654.191 1.296.482 1.882a14.233 14.233 0 002.746 3.065c.155.13.27.3.334.49.025.292-.052.583-.22.824a8.482 8.482 0 00-.965 3.257c-.044.543.079 1.261.623 1.366a1.087 1.087 0 00.878-.35 4.535 4.535 0 001.491-2.907v1.006c-.018.304.045.606.184.876a.597.597 0 00.755.263.874.874 0 00.324-.526c.485-1.629.683-3.329.588-5.026l.685 1.962a3.498 3.498 0 00.157-2.627 27.25 27.25 0 00-1.851-5.464c.263-.47.413-.995.439-1.532l-3.852-14.01.062-.131-.114-.053-1.588-5.805s-.421-16.4-2.755-19.938a19.915 19.915 0 00-2.755-5.253c-1.421-1.752-4.325-2.943-7.264-2.881l.079-.797c3.404-1.366 11.844-6.497 17.634-18.108.878-1.795.614-3.949.509-5.954v-.49a7.578 7.578 0 003.606-4.203 6.365 6.365 0 00-.255-3.853 11.192 11.192 0 00-.78-1.681 8.018 8.018 0 00-1.448-1.865 28.86 28.86 0 00.825-2.679c.123-.456.237-.876.333-1.366a57.371 57.371 0 001.228-12.697v-2.837c0-.744-.079-1.506-.175-2.285a30.516 30.516 0 00-.184-1.173 18.27 18.27 0 00-.965-3.459 12.976 12.976 0 00-1.667-3.065 9.141 9.141 0 00-1.544-1.637 7.907 7.907 0 00-1.922-1.165 8.553 8.553 0 00-3.667-.621c.772-4.825-3.843-8.249-7.019-11.007-3.176-2.758-8.554-3.283-12.089-.7a4.467 4.467 0 01-1.667.945 3.748 3.748 0 01-1.693-.201c-5.712-1.445-11.836-.403-17.275 1.865a9.957 9.957 0 00-3.966 2.566 4.041 4.041 0 00-.675 4.378c-3.939 1.506-7.975 3.301-10.589 6.611-2.615 3.309-3.229 8.537-.272 11.54-2.141 2.504-4.387 5.201-5.177 8.476-.789 3.275 0 5.551.746 8.756.2 1.131.588 2.22 1.149 3.222 1.185 1.76 3.036 1.857 4.255 3.687zm-117.131-.29a10.275 10.275 0 00-.763-1.637 8.081 8.081 0 00-1.413-1.83c-.702-.639 2.167-6.243 2.632-7.215 1.237-2.68 2.386-6.427 2-9.396-.254-2.005-1.342-3.8-2.21-5.639-.869-1.838-1.553-3.914-.974-5.857.172-.419.278-.862.316-1.314-.053-1.847-2.51-4.676-3.852-5.779-3.755-3.099-8.177-1.996-11.95-4.036a30.31 30.31 0 00-13.554-3.827c-2.79-.087-5.8.324-7.896 2.189a10.131 10.131 0 01-2.404 2.067c-.769.27-1.58.397-2.395.376-3.676.193-7.554 1.55-9.598 4.606a13.724 13.724 0 01-1.816 2.627 9.686 9.686 0 01-1.904 1.147c-3.614 2.101-6.053 5.84-7.404 9.798-1.352 3.958-1.755 8.169-2.132 12.328-.281 3.056.324 5.631.816 8.564.49 2.933.991 5.998 3.22 8.292-.246.123-.492.21-.746.324a5.257 5.257 0 00-2.632 2.933 5.996 5.996 0 00-.15 4.028 7.441 7.441 0 002.4 3.244 7.467 7.467 0 003.742 1.519 9.666 9.666 0 005.141-.875 20.393 20.393 0 003.351 5.253c-4.053 0-8.352.666-8.913 2.627a2.163 2.163 0 00-1.062 1.962c.057 1.113.207 2.22.448 3.309l-.404.184c-2.632 1.305-7.712 6.051-10.098 8.608a14.806 14.806 0 00-1.93 2.556c-.289.372-.52.786-.684 1.226a20.113 20.113 0 00-2.018 7.312c-.211.933-.35 1.882-.413 2.837-.052.779.08 3.082.158 4.465h-.228a3.081 3.081 0 00-1.994.972 3.07 3.07 0 00-.822 2.058 6.502 6.502 0 000 .814v1.121c.482 4.194 1.93 16.181 1.93 16.181a8.695 8.695 0 001.93 4.378l.097.105c.14.158.28.324.43.482l.201.201c.15.14.307.289.474.429l.246.21c.175.141.368.281.561.412l.263.184c.29.184.597.368.93.543.07.14.158.262.237.394a10.078 10.078 0 005.062 4.246s2.404.718 5.703 1.568c1.886.481 4.062 1.007 6.247 1.462l.816.166.947.184 1.483.272 1.561.245c1.027.149 1.992.254 2.878.315h1.395s.272 0 .746.07c.105 5.727.386 10.508 1.088 17.162.201 1.962 1.158 10.35.877 8.415-.088-.736.333 14.01.333 14.01-.57 1.199-1.605 2.985-1.263 4.106.404 1.366 2.632 1.296 3.729 1.165a20.739 20.739 0 013.105-.307c.622.056 1.24.146 1.852.272 1.503.255 3.03.34 4.553.254l.982-.088a4.63 4.63 0 001.755-.447 1.887 1.887 0 001.027-1.427 1.989 1.989 0 00-.597-1.427c-1.553-1.664-5.062-1.515-7.133-2.11a6.802 6.802 0 01-1.42-.534c2.315-12.52 4-25.147 5.044-37.835.052-.666.088-1.331.131-1.997l.755-.21a19.412 19.412 0 003.343-1.383c0 .875.07 1.707.114 2.548 1.123 20.778 4.088 39.122 4.088 39.122h.053c-.457 1.138-1.86 3.292-1.474 4.579.386 1.287 2.632 1.296 3.728 1.165a20.739 20.739 0 013.106-.307c.622.056 1.24.146 1.851.272 1.504.255 3.031.34 4.554.254l.982-.088a4.648 4.648 0 001.755-.446 1.9 1.9 0 001.026-1.428 1.994 1.994 0 00-.596-1.427c-1.553-1.664-5.062-1.515-7.133-2.11a3.923 3.923 0 01-2.369-1.349 420.748 420.748 0 002.255-20.918c.053-.595.096-1.199.149-1.804v-.043c.5-6.436.877-12.837.877-18.765v-11.978l.606-.237 1.588 4.168c.342.07.658.114.965.167.027.639.188 1.265.474 1.839a14.034 14.034 0 002.684 2.994c.152.127.264.294.325.482a1.23 1.23 0 01-.219.797 8.214 8.214 0 00-.939 3.178c0 .534.079 1.235.614 1.34a1.06 1.06 0 00.877-.342 4.446 4.446 0 001.457-2.837v.981a1.74 1.74 0 00.175.875.59.59 0 00.746.254.806.806 0 00.307-.516 14.1 14.1 0 00.579-4.912c.219.648.439 1.287.667 1.926a3.38 3.38 0 00.158-2.557 26.653 26.653 0 00-1.808-5.341c.252-.462.399-.973.43-1.497l-3.764-13.721.053-.123-.105-.052-1.553-5.665s-.404-16.015-2.685-19.465a19.406 19.406 0 00-2.693-5.114c-1.386-1.751-4.22-2.872-7.089-2.811 0-.262.044-.525.07-.779 3.325-1.34 11.563-6.348 17.222-17.678.878-1.752.597-3.862.492-5.814v-.482a7.337 7.337 0 003.509-4.107 6.198 6.198 0 00-.272-3.835z" fill="#CFD8F9"/><path d="M199.259 212.6l-17.485 4.054c-.175-3.677-3.965-5.35-4.746.097-.439 3.082-18.143-2.837-18.143-2.837l3.807-16.637s11.8-2.233 12.388-1.848c.588.386 18.179 1.498 18.179 1.498l6 15.673z" fill="#243976"/><path d="M203.294 284.347a26.817 26.817 0 01-6.036-.332c-.81-.17-1.631-.287-2.456-.351-1.38.021-2.757.156-4.115.403-1.465.175-4.386.272-4.957-1.55-.57-1.821 1.378-4.597 1.974-6.129a15.665 15.665 0 001.079-6.129 24.365 24.365 0 005.159-.534c.013 1.311.145 2.618.395 3.905.085.562.269 1.104.544 1.602.667 1.042 1.965 1.454 3.158 1.795 2.746.788 7.396.587 9.458 2.793a2.622 2.622 0 01.789 1.9 2.459 2.459 0 01-1.359 1.883 6.053 6.053 0 01-2.334.604c-.43.079-.86.114-1.299.14zm-26.091 0a26.738 26.738 0 01-6.027-.332 19.546 19.546 0 00-2.456-.351 25.348 25.348 0 00-4.124.403c-1.465.175-4.386.272-4.948-1.55-.561-1.821 1.369-4.597 1.965-6.129a15.35 15.35 0 001.079-6.129 24.365 24.365 0 005.159-.534c.016 1.311.151 2.618.404 3.905.077.564.262 1.108.544 1.602.658 1.042 1.956 1.454 3.149 1.795 2.746.788 7.396.587 9.458 2.793a2.622 2.622 0 01.789 1.9 2.445 2.445 0 01-1.351 1.883 6.143 6.143 0 01-2.333.604c-.439.079-.869.114-1.308.14z" fill="#353C45"/><path d="M179.256 192.461v.087c0 2.145.149 4.378.368 6.602.114 1.13.246 2.259.386 3.389 0 .324.079.648.123.972v.061c.641 4.939 1.439 9.956 1.755 14.763.052.727.088 1.445.114 2.163.053 1.357.114 2.697.184 4.036 1.483 27.565 5.422 51.889 5.422 51.889 3.255 1.156 7.185-.499 7.185-.499 1.158-8.853 2.255-18.598 3.071-28.379.061-.796.123-1.602.193-2.399v-.061c.667-8.529 1.114-17.031 1.158-24.894v-9.518a.063.063 0 01-.007-.03c0-.011.002-.021.007-.031v-1.191c0-3.327-.053-6.304-.088-8.817 0-2.102-.061-3.879-.096-5.254v-.368c0-1.462-.062-2.425-.07-2.793v-.201l-19.653-2.189v.385c0 .552-.043 1.112-.043 1.673-.009.201-.009.402-.009.604zm-21.083 28.834c.036 8.7.53 17.392 1.483 26.041.272 2.626 1.535 13.72 1.228 11.155-.114-.981.439 18.589.439 18.589 2.87.512 5.814.428 8.65-.245a498.122 498.122 0 006.466-50.917c.088-1.226.167-2.46.237-3.686v-.727c.062-1.059.123-2.11.193-3.135.36-5.192.807-9.964.983-14.797v-1.025c.035-1.115.052-2.236.052-3.362 0-2.181-.087-4.378-.271-6.69h-19.118v.876c0 .586 0 1.348-.07 2.364v.972a703.38 703.38 0 00-.201 11.689v1.918c-.106 3.292-.106 7.013-.071 10.98z" fill="#243976"/><path d="M158.164 210.236c7.256 1.103 7.352-3.214 7.352-3.214 2.93-.481 1.755-2.951 1.755-2.951a1.755 1.755 0 001.947-1.523c2.286.641 4.645.983 7.019 1.015h3.878c5.948-.297 10.159-.963 10.159-.963 4.606-.674 7.335-1.331 8.87-1.996 0-2.102-.061-3.879-.096-5.254a1.683 1.683 0 01-.044-.368c-.044-1.462-.07-2.425-.088-2.793l-19.608-2.005-3.896-.385a39.171 39.171 0 00-.087 2.058v.823h-13.397l-3.413.875c0 .578-.053 1.445-.079 2.548v.499a668.927 668.927 0 00-.219 11.69c-.044.648-.044 1.287-.053 1.944z" fill="#3C5AAC" opacity=".4"/><path d="M158.438 195.657a53.145 53.145 0 0017.327 3.502c1.333.053 2.632 0 3.886 0a55.548 55.548 0 0019.372-4.22 241.106 241.106 0 00-.097-2.969l-23.512-2.162a37.162 37.162 0 00-.097 2.626h-16.774s-.044 1.174-.105 3.223z" fill="#30A2BE" opacity=".4"/><path d="M153.945 149.494s.264 7.977.983 17.434v.385c.947 12.197.728 24.675.605 36.924 8.23 2.627 17.029 2.688 25.671 2.697 2.456 0 4.922 0 7.361-.219a40.343 40.343 0 0016.915-5.49 176.327 176.327 0 01-3.931-27.923 71.331 71.331 0 00-3.29-16.812c-1.096-3.616-2.526-7.749-5.509-10.279-2.983-2.531-8.23-1.813-11.836-1.752-3.681.04-7.357.291-11.01.753-.965.123-1.886.254-2.755.394a58.539 58.539 0 00-9.343 2.251c-1.333.43-2.625.978-3.861 1.637z" fill="#14336C"/><path d="M167.174 145.581c1.316 2.102 5.553 7.671 13.265 7.285a15.65 15.65 0 0010.686-4.754 14.318 14.318 0 002.149-2.811l.272-.49c-1.009 0-2.035 0-3.079.087a73.075 73.075 0 00-9.528-.464c-3.681.049-7.357.301-11.01.753-.965.149-1.887.28-2.755.394z" fill="#3C5AAC" opacity=".27"/><path d="M169.93 145.212c1.167 1.752 4.518 5.902 10.422 5.604a13.012 13.012 0 0010.116-5.892 72.901 72.901 0 00-9.528-.465c-3.681.049-7.357.301-11.01.753z" fill="#E6A07A"/><path d="M171.413 145.808a.274.274 0 000 .114c.351 1.077 1.868 1.874 3.114 2.434a13.183 13.183 0 005.325 1.06c3.51 0 8.081-1.305 8.326-4.159 0-.465.079-.876.123-1.375.123-1.226.246-2.443.334-3.669 0-.271 0-.552.043-.876 0-.481 0-.954.053-1.427a2.36 2.36 0 000-.376c0-.07.053-.176.088-.316a.483.483 0 000-.411.807.807 0 00-.43-.219 4.283 4.283 0 00-.448-.105 5.12 5.12 0 00-1.035-.053c-.506.046-1.01.119-1.509.219h-.096c-1.143.15-2.295.22-3.448.21a60.501 60.501 0 01-6.142-.105 35.363 35.363 0 00-3.737-.262 17.564 17.564 0 00-.342 3.152c0 .245 0 .49-.044.735a114.528 114.528 0 00-.14 3.188 17.64 17.64 0 00-.035 2.241z" fill="#E6A07A"/><path d="M171.412 143.62c2.632 1.059 8.607 2.259 11.291 2.136a10.385 10.385 0 005.642-1.874c.122-1.226.245-2.443.333-3.669 0-.271 0-.551.044-.875a.876.876 0 00-.334-.167 4.005 4.005 0 00-.447-.113l-1.702.35-.939-.149a21.511 21.511 0 01-3.448.245 54.008 54.008 0 01-6.141-.122 31.397 31.397 0 00-3.737-.307 1.84 1.84 0 00-.343.578c0 .245 0 .49-.043.736a33.252 33.252 0 00-.176 3.231z" fill="#E6A07A" opacity=".39"/><path d="M182.203 224.534c1.483 27.564 5.501 51.88 5.501 51.88 3.255 1.156 7.106-.49 7.106-.49 1.15-8.853 2.255-18.598 3.071-28.379-.939 7.049-3.15 20.805-6.141 20.647-2.992-.157-7.545-29.631-9.537-43.658zm-22.195 26.225c.807 6.567 1.307 18.046 1.325 26.321 2.869.512 5.814.428 8.65-.245a498.158 498.158 0 006.466-50.917c-2.448 15.384-6.896 39.481-10.8 40.033-1.763.245-4.255-10.665-5.641-15.192z" fill="#3C5AAC" opacity=".4"/><path d="M156.812 183.661c.729 5.201 1.501 10.017 2.071 12.976 0 0 7.361 3.774 20.126 3.774h1.088a74.378 74.378 0 0019.169-2.942 114.826 114.826 0 002.852-14.421c-2.983 4.378-9.651 11.12-22.021 10.709-13.248-.429-20.372-6.69-23.285-10.096z" fill="#3C5AAC" opacity=".15"/><path d="M166.193 150.992l-7.08-2.627a9.996 9.996 0 00-6.572 2.093c-6.334 5.035-13.905 18.125-14.783 25.393-.482 3.94 2.922 9.386 8.081 5.919 2.728-1.83 6.501-8.835 9.299-11.383 6.335-5.989 11.169-11.672 11.055-19.395z" fill="#fff"/><path d="M137.891 175.474c-.808.77-.571 15.375 16.792 25.34a11.071 11.071 0 003.807-6.34s-8.062-14.246-11.405-15.831a72.055 72.055 0 00-9.194-3.169z" fill="#fff"/><path d="M157.77 195.096c.253-.325.589-.576.973-.727.264-.087 1.65-.271 4.984.753.588.184 2.816 1.375 2.544 2.829-.193 1.042-3.825 0-4.729-.062.763.14 4.387.631 4.141 2.198-.245 1.567-4.185.42-4.974.289 0 0 3.93.998 3.895 2.434-.035 1.436-3.729.692-3.729.692s2.931.753 2.483 2.171c-.219.675-2.351.491-2.816.429a6.899 6.899 0 01-2.132-.612 6.657 6.657 0 01-3.15-3.599 4.085 4.085 0 00-.552-1.042c-.395-.526.535-1.918.763-2.312a32.863 32.863 0 011.869-2.811c.114-.236.272-.446.43-.63zm43.234-86.878c.649.447 1.325.876 2.027 1.314 1.982 1.182 4.132 2.058 6.334 1.602 3.079-.63 6.422-3.406 7.273-6.462a8.31 8.31 0 00-.325-4.99 15.055 15.055 0 00-1.035-2.172 10.27 10.27 0 00-2.132-2.715c-3.764-3.222-8.106-1.27-11.879.797l-.263 12.626z" fill="#FFBF94"/><path d="M206.69 102.833c1.992-1.603 2.562-4.063 2.518-6.506a.24.24 0 01.048-.148.24.24 0 01.286-.073.24.24 0 01.114.107c1.052 2.452 0 5.166-1.755 7.005a16.568 16.568 0 012.114 1.664 5.448 5.448 0 011.755 2.329.673.673 0 01-.642.897.677.677 0 01-.402-.135 11.413 11.413 0 01-1.755-2.093 13.258 13.258 0 00-2.263-2.172.542.542 0 01-.225-.433.543.543 0 01.207-.442z" fill="#DD664A" opacity=".31"/><path d="M202.996 109.532c1.983 1.182 4.132 2.058 6.334 1.602 3.08-.63 6.422-3.406 7.273-6.462a8.31 8.31 0 00-.324-4.99c-.276-.75-.61-1.476-1-2.172.061 1.9-.544 9.544-12.283 12.022z" fill="#995049" opacity=".25"/><path d="M145.154 121.256l.176.429c2.992 7.136 9.703 12.924 16.397 16.26 6.449 3.214 18.293 6.366 25.627 4.378 3.299-.875 15.731-7.302 23.995-23.851 1.167-2.321.79-5.114.658-7.706 0-.665-.079-1.322-.114-1.987a184.987 184.987 0 00-6.361-37.835l-.377-1.034c-.044-5.805-5.676-9.947-11.081-12.118a50.441 50.441 0 00-38.76.683c-5.308 2.346-10.309 5.744-13.581 10.507-3.659 5.359-4.887 12.075-4.632 18.554.254 6.48 1.886 12.819 3.509 19.097a108.327 108.327 0 004.544 14.623z" fill="#FFBF94"/><path d="M138.547 122.946a13.28 13.28 0 008.361-1.988 14.954 14.954 0 001.755-1.243l-5.326-11.917c-2.202-2.916-5.948-1.9-9.273-.394a6.947 6.947 0 00-3.509 3.879 7.95 7.95 0 00-.202 5.35 9.893 9.893 0 008.194 6.313z" fill="#FFBF94"/><path d="M139.503 114.934c-2.421-.876-4.816-2.828-5.035-5.473a.16.16 0 01.021-.097.158.158 0 01.076-.064.157.157 0 01.183.048c1.474 2.215 2.983 4.133 5.721 4.754a.556.556 0 01.416.343.55.55 0 01-.074.533 6.024 6.024 0 00-1.167 2.679 6.368 6.368 0 01-.413 2.268c-.07.123-.263.228-.394.096-1.29-1.287-.299-3.633.666-5.087z" fill="#DD664A" opacity=".31"/><path d="M144.723 109.838a42.56 42.56 0 001.561-7.355c.114-.875 1.255-10.437.825-10.507 3.202.78 6.562.508 9.835.079a108.576 108.576 0 0024.118-6.016c4.86-1.83 9.747-4.115 13.212-7.985a53.026 53.026 0 0018.187 16.636c-.754-9.045-6.071-16.995-11.265-24.456-1.044-1.506-2.272-3.134-4.079-3.502a7.29 7.29 0 00-2.422.131c-9.159 1.454-18.485 1.664-27.671 3.039-5.702.875-11.335 2.145-16.967 3.432a9.617 9.617 0 00-2.694.876 9.454 9.454 0 00-2.43 2.364c-1.947 2.434-3.948 4.973-4.711 7.994-.5 2.005-.202 4.247-.307 6.322a42.15 42.15 0 001.026 12.977 59.01 59.01 0 003.062 8.248c.255-.744.5-1.515.72-2.277zm-6.176 13.108a13.28 13.28 0 008.361-1.988c-12.476 1.55-16.353-9.632-16.353-9.632a7.95 7.95 0 00-.202 5.35 9.865 9.865 0 003.212 4.287 9.91 9.91 0 004.982 1.983z" fill="#995049" opacity=".25"/><path d="M130.96 100.399c.324.753.658 1.497 1.009 2.241 2.535 5.315 7.29 7.084 12.44 9.571a262.557 262.557 0 01-.307-24.185c0 1.077 6.098 1.752 6.975 1.848a32.409 32.409 0 007.466-.64c6.615-1.138 12.949-3.502 19.161-5.962 7.896-3.126 16.16-6.848 20.538-14.063-.877 1.401.877 5.998 1.395 7.426a36.016 36.016 0 003.773 7.617c3.035 4.755 6.553 8.923 8.65 14.255 4.053-8.913 4.668-18.983 4.387-28.772-.202-7.644-3.51-17.731-13.16-17.346.719-4.466-2.237-8.888-6.141-11.217-8.581-5.122-19.451-4.737-28.952-2.82a65.86 65.86 0 00-28.005 12.785c-14.511 11.777-16.292 32.853-9.229 49.262z" fill="#3D2023"/><path d="M212.007 98.376l.053.131c4.053-8.913 4.667-18.983 4.386-28.772-.202-7.644-3.509-17.731-13.16-17.346.72-4.466-2.237-8.888-6.141-11.217-8.58-5.122-19.45-4.737-28.952-2.82a65.861 65.861 0 00-28.004 12.785c-14.634 11.777-16.415 32.853-9.353 49.262.325.753.658 1.497 1.009 2.241 2.281 4.79 6.37 6.699 10.914 8.844a54.805 54.805 0 01-9.405-20.051c-2.921-12.986 0-27.784 10.949-36.373a38.953 38.953 0 017.537-4.282 49.306 49.306 0 0110.01-3.87c5.176-1.182 10.739-.972 15.994-.57a52.349 52.349 0 0116.064 3.8 14.914 14.914 0 013.956 2.33c.29.254 2.632 3.931 1.816 4.019 3.641-.42 7.844.587 10.142 3.502a21.945 21.945 0 014.247 10.902c.614 5-.053 10.07-.79 15.051a88.965 88.965 0 00-1.272 12.434z" fill="#543037"/><path d="M194.872 87.615a.868.868 0 01.342-.656 1.2 1.2 0 01.552-.15 11.944 11.944 0 019.3 3.24c.772.797 1.843 2.295.605 3.18-1.394.997-3.509 0-4.834-.588-2-.875-6.141-2.066-5.983-4.886.009-.043.009-.096.018-.14zM153.576 98.84c.377-1.794 2.632-3.256 4.106-4.027a11.423 11.423 0 016.203-1.322c.299.031.594.099.877.201.411.036.803.195 1.123.456 1.509 1.4-1.869 3.318-2.72 3.809-1.983 1.147-4.088 2.574-6.343 3.073-1.456.324-3.658-.228-3.246-2.19z" fill="#3D2023"/><path d="M177.22 117.561c.404-2.092 4.501-2.338 6.212-2.408 2.298-.087 4.921.175 6.588 1.909a.122.122 0 01-.024.18.133.133 0 01-.063.022c-2.211.113-4.387-.473-6.589-.246a13.47 13.47 0 00-3.597.876c-.878.35-1.29.727-2.176.298a.64.64 0 01-.275-.26.638.638 0 01-.076-.371z" fill="#DD664A"/><path d="M193.241 108.105a6.957 6.957 0 002.51 3.169 6.988 6.988 0 007.747.144 6.964 6.964 0 002.627-3.075 6.946 6.946 0 00-1.367-7.611 6.989 6.989 0 00-9.862-.189 6.965 6.965 0 00-1.655 7.562z" fill="#fff"/><path d="M194.538 108.104a5.437 5.437 0 0010.038.21 5.406 5.406 0 00-1.065-5.933 5.437 5.437 0 00-5.902-1.282 5.416 5.416 0 00-3.071 7.005z" fill="#000"/><path d="M197.575 108.864a1.585 1.585 0 001.446.997 1.575 1.575 0 001.474-.954 1.576 1.576 0 00-2.042-2.083 1.572 1.572 0 00-.878 2.04zm-28.2 7.933a6.943 6.943 0 00-1.743-9.676c-3.159-2.191-7.5-1.412-9.695 1.74a6.943 6.943 0 001.743 9.676 6.974 6.974 0 009.695-1.74z" fill="#fff"/><path d="M169.395 113.34a5.419 5.419 0 01-3.541 4.877 5.434 5.434 0 01-7.249-4.227 5.418 5.418 0 012.52-5.473 5.437 5.437 0 013.049-.798 5.44 5.44 0 013.774 1.734 5.423 5.423 0 011.447 3.887z" fill="#000"/><path d="M167.236 114.67a1.57 1.57 0 01-1.014 1.436 1.586 1.586 0 01-1.715-.393 1.572 1.572 0 01.322-2.421 1.58 1.58 0 01.889-.233 1.572 1.572 0 011.518 1.611z" fill="#fff"/><path d="M176.587 128.427c.119.165.248.323.386.473l.088.087h.044l.245.333.176.28a.37.37 0 00.193.307l.246.438a.378.378 0 00.665-.065.386.386 0 00.01-.268 2.916 2.916 0 00-.105-.368 8.414 8.414 0 013.185-2.075c2.193-.771 4.816-.604 7.115-.403.245 0 .588 0 .631-.263.044-.262-.131-.332-.289-.429-1-.604-2.474-.577-3.615-.656a9.276 9.276 0 00-3.851.534 8.844 8.844 0 00-3.597 2.373 7.974 7.974 0 00-.342-.578 3.346 3.346 0 00-.272-.403.543.543 0 00-.357-.245.567.567 0 00-.424.087.57.57 0 00-.132.841z" fill="#DD664A"/><path d="M151.287 80.33a37.173 37.173 0 01-4.58-.28.44.44 0 01-.333-.646.43.43 0 01.266-.209.44.44 0 01.172-.012c6.326.788 12.283-.28 17.81-1.436a63.622 63.622 0 0016.713-5.578c4.246-2.197 7.589-4.58 10.089-9.062l1.492-2.688a.446.446 0 01.808.095.428.428 0 01-.036.334l-1.5 2.679c-2.764 4.956-6.659 7.451-10.449 9.422a64.616 64.616 0 01-16.942 5.656 66.039 66.039 0 01-13.51 1.725zm.587-8.581a.439.439 0 110-.876l8.844-.875a48.581 48.581 0 008.185-1.752l1.825-.499a34.378 34.378 0 009.58-4.238c.948-.612 1.913-1.164 2.852-1.698 3.088-1.752 6.01-3.433 7.852-6.883a.437.437 0 01.607-.206.447.447 0 01.217.273.445.445 0 01-.052.345c-1.956 3.669-4.983 5.402-8.194 7.232a64.117 64.117 0 00-2.808 1.673 34.955 34.955 0 01-9.817 4.378l-1.825.508a49.579 49.579 0 01-8.335 1.812l-8.843.876-.088-.07zm7.308-7.075a.44.44 0 01-.404-.271.451.451 0 01-.003-.335.451.451 0 01.231-.243 71.231 71.231 0 018.309-2.697c1.754-.499 3.614-1.007 5.387-1.61 5.474-1.84 9.282-4.283 11.651-7.47a.436.436 0 01.614-.087.439.439 0 01.087.613c-2.474 3.327-6.422 5.875-12.072 7.775-1.754.604-3.641 1.12-5.43 1.62a71.078 71.078 0 00-8.203 2.67.579.579 0 01-.167.035z" fill="#543037"/><path d="M136.32 87.527a.432.432 0 01-.439-.429c-.079-5.989-.166-12.784 2.817-18.572 2.053-3.983 5.641-7.573 10.958-10.962 8.045-5.14 16.362-7.653 24.03-7.268a.44.44 0 01.416.46.443.443 0 01-.46.416c-9.475-.473-18.012 3.616-23.521 7.127-5.177 3.31-8.66 6.786-10.642 10.63-2.878 5.596-2.799 12.259-2.72 18.152a.45.45 0 01-.126.315.427.427 0 01-.313.131zm71.616-6.654h-.079a.432.432 0 01-.351-.337.447.447 0 010-.17 31.64 31.64 0 00.719-8.52c-.298-3.713-2.202-8.756-6.588-10.797a.431.431 0 01-.228-.249.43.43 0 01.017-.337.438.438 0 01.245-.227.433.433 0 01.334.017c4.729 2.197 6.782 7.582 7.098 11.523a32.17 32.17 0 01-.737 8.756.432.432 0 01-.43.341z" fill="#543037"/><path d="M204.672 79.174a.428.428 0 01-.412-.306 14.918 14.918 0 01-.457-4.378 17.77 17.77 0 00-.228-3.433 8.563 8.563 0 00-2.053-4.045.436.436 0 01.048-.599.438.438 0 01.602.012 9.445 9.445 0 012.263 4.457 18.46 18.46 0 01.246 3.599c-.066 1.39.073 2.783.412 4.133a.43.43 0 01-.029.336.436.436 0 01-.26.215l-.132.009z" fill="#543037"/><path d="M191.223 199.527a22.992 22.992 0 01.517-5.481c2.272-3.66 6.141-11.497 6.141-11.497l9.3 4.308a62.107 62.107 0 01-7.729 12.67 17.879 17.879 0 01-4.352 2.881" fill="#44A2EB"/><path d="M193.793 195.49c-1.965 3.905-7.51 10.341-7.51 10.341l.544 7.18a50.774 50.774 0 0010.37-15.402l-3.404-2.119z" fill="#FF6551"/><path d="M197.82 146.675c-2.246-2.758-7.317-4.448-11.871-3.441-5.378 1.182-14.66 7.618-14.66 7.618l8.361 10.385s4.545-9.308 10.651-10.087c6.106-.78 9.422 2.626 13.063 10.691-.719-6.996-3.746-12.951-5.544-15.166z" fill="#4BB2F7"/><path d="M201.874 154.879c.266 1.211.465 2.436.596 3.669-3.641-8.047-7.062-11.462-13.063-10.7-6.001.762-10.651 10.087-10.651 10.087l.877 3.301s4.545-9.308 10.651-10.087c6.106-.779 9.422 2.627 13.063 10.691a33.666 33.666 0 00-1.473-6.961z" fill="#3E8CE1"/><path d="M171.939 213.046c-.465-6.873-5.202-38.623-10.344-48.097-5.851-10.796-15.291-16.82-27.688-15.989-8.282.552-11.8 3.503-13.221 5.403a20.307 20.307 0 012.561-3.389c3.168-3.388 9.923-9.684 13.388-11.383l.536-.245 5.483-1.751a33.956 33.956 0 0115.222.131l.438 5.035a3.578 3.578 0 002.79.569 36.586 36.586 0 004.001-1.269s0-.316-.079-.876l1.158-.088c10.993 6.953 16.766 24.229 16.766 24.229l8.229 47.86a25.64 25.64 0 01-13.564 9.79 46.476 46.476 0 01-12.08 1.751c4.123-1.217 6.869-4.807 6.404-11.681z" fill="#49B3F7"/><path d="M182.948 165.334a66.623 66.623 0 00-7.273-14.5c-5.352 3.502-11.019 6.839-16.327 10.437a38.736 38.736 0 012.246 3.66c5.141 9.474 9.878 41.224 10.343 48.098.465 6.873-2.281 10.481-6.404 11.733a46.483 46.483 0 0012.081-1.751 25.643 25.643 0 0013.563-9.79l-8.229-47.887z" fill="#3E8CE1"/><path d="M161.596 164.949c5.141 9.474 9.879 41.224 10.344 48.098.465 6.873-2.281 10.463-6.405 11.715a61.62 61.62 0 01-8.308-.289c7.729-.315 9.106-6.418 8.896-11.759-.237-5.744-3.053-25.34-6.677-38.422-3.623-13.081-13.835-20.305-26.205-20.726-10.59-.367-14.757 5.937-16.143 12.119a26.807 26.807 0 012.684-9.684c.281-.561.571-1.095.878-1.611 1.421-1.892 4.939-4.851 13.221-5.403 12.423-.858 21.863 5.166 27.715 15.962z" fill="#FF6551"/><path d="M165.026 141.203c.053.525.079.876.079.876a36.586 36.586 0 01-4.001 1.269 3.585 3.585 0 01-2.789-.569l-.439-2.408-.255-2.924s-1.026-3.188 1.325-3.976a6.608 6.608 0 013.913-.262c1.211 1.602 1.939 5.612 2.167 7.994z" fill="#49B3F7"/><path d="M158.631 129.819c4.281 1.463 4.228 3.345 4.228 3.345a6.616 6.616 0 00-3.913.263c-2.351.788-1.263 4.763-1.263 4.763a25.248 25.248 0 01-4.387-2.005c-3.167-1.664-8.352-1.445-9.65-.981-.395.141-.878.324-1.334.482-1.167.394-2.491.666-3.439-.158-1.333-1.164-.825-3.204-.825-3.204 1.194-4.457 16.31-3.976 20.583-2.505zm-10.25 48.335a6.22 6.22 0 013.957 2.968c0 9.868-9.809 9.448-9.809 9.448s-17.072-1.016-23.389-1.664c-6.027-.613-6.387-8.756-6.413-9.448a4.053 4.053 0 011.083-2.774 4.07 4.07 0 012.645-1.288h.299c2.991.227 27.539 1.926 31.627 2.758z" fill="#FF6551"/><path d="M142.653 137.569l-5.483 1.752a29.198 29.198 0 015.483-1.752z" fill="#4BB2F7"/><path d="M137.995 132.324s-.509 2.04.824 3.205c.948.823 2.273.552 3.44.158l.394 1.882a29.195 29.195 0 00-5.483 1.751 26.785 26.785 0 01-.588-4.378 2.856 2.856 0 011.413-2.618z" fill="#44A2EB"/><path d="M120.686 154.337a14.884 14.884 0 00-.877 1.612 5.764 5.764 0 01.877-1.612zm-7.959 25.121c0 .727.386 8.835 6.413 9.448 6.317.648 23.39 1.664 23.39 1.664s9.773.42 9.808-9.448a12.279 12.279 0 011.536 3.739s2.991 16.382 2.702 24.517c-.29 8.134-12.362 7.784-12.362 7.784a155.03 155.03 0 01-17.16-2.802 18.689 18.689 0 01-4.764-1.655 12.215 12.215 0 01-4.549-3.761 12.184 12.184 0 01-2.25-5.45s-2.404-19.859-2.738-22.959a7.594 7.594 0 01-.026-1.077z" fill="#4BB2F7"/><path d="M112.728 179.458a7.742 7.742 0 000 1.077c.07.639.228 1.979.43 3.704h.517a15.915 15.915 0 01-.947-4.781z" fill="#44A2EB"/><path d="M153.864 184.861a12.322 12.322 0 00-1.535-3.739c0 5.131-2.632 7.478-5.22 8.555a98.758 98.758 0 011.184 14.833c-.289 8.134-12.352 7.766-12.352 7.766a152.322 152.322 0 01-17.17-2.775l-.728-.176a13.55 13.55 0 004.237 3.407 18.715 18.715 0 004.764 1.655 155.045 155.045 0 0017.161 2.801s12.063.368 12.353-7.775c.289-8.143-2.694-24.552-2.694-24.552z" fill="#3E8CE1"/><path d="M159.447 174.283c3.623 13.082 6.439 32.678 6.676 38.422.211 5.341-1.167 11.444-8.896 11.759-.617.035-1.235.035-1.851 0-9.405-.648-26.075-5.604-26.075-5.604a13.48 13.48 0 01-7.018-6.129 18.65 18.65 0 004.764 1.655 155.03 155.03 0 0017.16 2.802s12.064.368 12.353-7.776c.29-8.143-2.702-24.517-2.702-24.517a12.306 12.306 0 00-1.535-3.738 6.227 6.227 0 00-3.957-2.969c-4.089-.832-28.636-2.53-31.584-2.732v-.105c-.114-1.847-.281-4.894-.211-5.928.08-1.267.259-2.526.536-3.765 1.386-6.182 5.553-12.486 16.142-12.118 12.362.438 22.583 7.67 26.198 20.743z" fill="#49B3F7"/><path d="M166.147 212.705c-.236-5.744-3.053-25.34-6.676-38.422-2.193-7.924-6.808-13.694-12.87-17.118a29.312 29.312 0 015.93 11.383c3.624 13.082 6.44 32.678 6.677 38.422.21 5.341-1.167 11.435-8.896 11.759-.617.035-1.235.035-1.852 0-8.773-.578-23.828-4.929-25.819-5.516a13.501 13.501 0 006.72 5.639s16.669 4.956 26.039 5.577c.617.035 1.235.035 1.851 0 7.703-.28 9.081-6.383 8.896-11.724z" fill="#3E8CE1"/><path d="M209.216 203.038a34.98 34.98 0 014.676 11.252 4.423 4.423 0 01-.21 3.388l-.878-2.548a19.008 19.008 0 01-.754 6.515 1.119 1.119 0 01-.421.683.786.786 0 01-.983-.342 2.203 2.203 0 01-.228-1.112l-.114-3.038a5.876 5.876 0 01-1.869 5.499 1.415 1.415 0 01-1.132.455c-.702-.14-.877-1.068-.807-1.751a10.974 10.974 0 011.237-4.221 1.57 1.57 0 00.29-1.059 1.342 1.342 0 00-.43-.63c-1.211-1.235-2.737-2.417-3.509-3.976-1.246-2.381-.457-5.507.096-7.941.36-1.866 3.834-3.056 5.036-1.174z" fill="#FFBF94"/><path d="M187.511 157.472s-1.237-5.981 3.308-7.426c4.544-1.444 7.018-.656 10.3 3.056 3.281 3.713 3.833 26.172 3.833 26.172s1.904 7.881-4.992 9.054c-6.895 1.174-8.922-7.977-8.922-7.977l-3.527-22.879z" fill="#243976"/><path d="M202.119 209.501l-9.914-25.927s-1.886-6.13 4.317-7.881a6.782 6.782 0 018.422 3.616l7.115 25.954s.009 6.348-9.94 4.238z" fill="#243976"/></svg>