<svg width="27" height="81" viewBox="0 0 27 81" fill="none" xmlns="http://www.w3.org/2000/svg">
<path d="M13.1381 19.8509C12.9992 19.4572 13.0271 19.0916 13.1104 18.7823H5.49966C5.02748 18.7823 4.63864 18.3887 4.63864 17.9107V2.55833C4.63864 2.08035 5.0275 1.68672 5.49966 1.68672H12.9993C13.2216 1.68672 13.4159 1.88364 13.4159 2.10841L13.4161 4.94842C13.4161 5.59509 13.9439 6.12938 14.5827 6.12938H17.3881C17.6103 6.12938 17.8047 6.3263 17.8047 6.55107V12.5121C17.9992 12.4277 18.2491 12.3714 18.4991 12.3714C18.8602 12.3714 19.1658 12.4838 19.4434 12.6245L19.4436 6.18595C19.4436 5.51107 19.1937 4.86441 18.7215 4.3864L15.1105 0.731017C14.6383 0.253037 13.9995 0 13.3328 0H5.49979C4.13869 0 3 1.12462 3 2.53052V17.8829C3 19.2608 4.11096 20.4134 5.49979 20.4134H13.4717C13.3329 20.2728 13.2217 20.0761 13.1384 19.8511L13.1381 19.8509Z" fill="#243976"/>
<path d="M6.49978 16.0267C6.49978 16.4766 6.86093 16.842 7.3052 16.842H13.0549C13.0549 16.6733 13.0827 16.5047 13.1383 16.3077C13.3328 15.7454 13.7217 15.4078 14.0826 15.1831H7.30513C6.86066 15.2112 6.49951 15.5767 6.49951 16.0267H6.49978Z" fill="#243976"/>
<path d="M15.9433 12.4555C15.9433 12.0055 15.5822 11.6401 15.1379 11.6401H7.30493C6.86046 11.6401 6.49951 12.0057 6.49951 12.4555C6.49951 12.9054 6.86067 13.2708 7.30493 13.2708H15.1101C15.5823 13.271 15.9435 12.9054 15.9435 12.4555H15.9433Z" fill="#243976"/>
<path d="M15.1101 8.04102H7.30493C6.86046 8.04102 6.49951 8.40661 6.49951 8.85634C6.49951 9.30627 6.86067 9.67166 7.30493 9.67166H15.1101C15.5546 9.67166 15.9156 9.30606 15.9156 8.85634C15.9435 8.4064 15.5823 8.04102 15.1101 8.04102Z" fill="#243976"/>
<path d="M7.30493 6.12937H10.9436C11.3881 6.12937 11.749 5.76378 11.749 5.31405C11.749 4.86412 11.3879 4.49873 10.9436 4.49873L7.30493 4.49854C6.86046 4.49854 6.49951 4.86413 6.49951 5.31386C6.49932 5.76379 6.86047 6.12938 7.30493 6.12938V6.12937Z" fill="#243976"/>
<path d="M16.9157 23C16.7212 23.028 16.5268 23.0843 16.3046 23.0843C15.888 23.0843 15.4992 22.9719 15.1936 22.7187C14.8881 22.4937 14.7215 22.2127 14.5826 21.9595L13.0548 24.7713C12.8882 25.0525 13.1381 25.4179 13.4437 25.3899L14.8325 25.2775L15.4713 26.5427C15.6379 26.852 16.0547 26.852 16.1934 26.5427L17.7489 23.6747C17.4158 23.4779 17.1103 23.1969 16.9157 22.9999L16.9157 23Z" fill="#243976"/>
<path d="M23.9436 24.7713L22.4158 21.9595C22.3048 22.2407 22.1103 22.4938 21.8048 22.7187C21.4992 22.9437 21.1103 23.0843 20.6938 23.0843C20.4715 23.0843 20.2493 23.0563 20.0827 23C19.8882 23.2249 19.6105 23.506 19.2217 23.6748L20.7771 26.5429C20.9437 26.8242 21.3605 26.8242 21.4993 26.5429L22.1381 25.2777L23.5269 25.3901C23.8882 25.4179 24.1105 25.0523 23.9437 24.7713L23.9436 24.7713Z" fill="#243976"/>
<path d="M19.6098 21.5661C19.9986 21.4254 20.6653 21.8191 20.9986 21.5661C21.3319 21.313 21.1652 20.5538 21.4152 20.2164C21.6651 19.8791 22.4151 19.7948 22.5541 19.4011C22.6651 19.0075 22.1096 18.5012 22.1096 18.0796C22.1096 17.6579 22.6651 17.1236 22.5541 16.758C22.4151 16.3644 21.6651 16.2801 21.4152 15.9427C21.1652 15.6054 21.3319 14.8461 20.9986 14.5931C20.6654 14.3401 19.9987 14.7337 19.6098 14.5931C19.2209 14.4807 18.9154 13.7495 18.4988 13.7495C18.0823 13.7495 17.7767 14.4525 17.3879 14.5931C16.999 14.7337 16.3323 14.3401 15.999 14.5931C15.6658 14.8461 15.8324 15.6053 15.5825 15.9427C15.3325 16.2801 14.5825 16.3644 14.4436 16.758C14.3324 17.1515 14.8878 17.6577 14.8878 18.0794C14.8878 18.5011 14.3324 19.0353 14.4434 19.4009C14.5823 19.7946 15.3323 19.8789 15.5823 20.2162C15.8322 20.5536 15.6656 21.3128 15.9988 21.5659C16.3321 21.8189 16.9988 21.4252 17.3877 21.5659C17.7765 21.6782 18.0821 22.4094 18.4986 22.4094C18.9433 22.3814 19.2488 21.6784 19.6098 21.5661H19.6098ZM18.6098 19.5978C18.5542 19.5698 18.4709 19.5698 18.4153 19.5978L17.5543 20.1039C17.332 20.2445 17.0544 20.0195 17.1098 19.7665L17.3043 18.7823C17.3043 18.726 17.3043 18.6417 17.2487 18.5854L16.4987 17.9105C16.3042 17.7418 16.4154 17.4045 16.6653 17.3762L17.6653 17.2638C17.7209 17.2638 17.8042 17.2075 17.8319 17.1514L18.2485 16.2235C18.3595 15.9705 18.693 15.9705 18.804 16.2235L19.2205 17.1514C19.2483 17.2077 19.3039 17.2638 19.3872 17.2638L20.3871 17.3762C20.6371 17.4042 20.7483 17.7418 20.5538 17.9105L19.8037 18.5854C19.7481 18.6417 19.7204 18.6977 19.7481 18.7823L19.9427 19.7665C19.9983 20.0195 19.7204 20.2445 19.4982 20.1039L18.6098 19.5978Z" fill="#243976"/>
<path d="M13.75 28C8.9125 28 5 31.9125 5 36.75C5 43.3125 13.75 53 13.75 53C13.75 53 22.5 43.3125 22.5 36.75C22.5 31.9125 18.5875 28 13.75 28ZM13.75 39.875C12.025 39.875 10.625 38.475 10.625 36.75C10.625 35.025 12.025 33.625 13.75 33.625C15.475 33.625 16.875 35.025 16.875 36.75C16.875 38.475 15.475 39.875 13.75 39.875Z" fill="#243976"/>
<path d="M18.5 55H9.40909C7.52273 55 6 56.5227 6 58.4091V76.5909C6 78.4773 7.52273 80 9.40909 80H18.5C20.3864 80 21.9091 78.4773 21.9091 76.5909V58.4091C21.9091 56.5227 20.3864 55 18.5 55ZM16.2273 77.7273H11.6818V76.5909H16.2273V77.7273ZM19.9205 74.3182H7.98864V58.4091H19.9205V74.3182Z" fill="#243976"/>
</svg>
