<svg width="236" height="67" viewBox="0 0 236 67" fill="none" xmlns="http://www.w3.org/2000/svg">
<path d="M81.5654 27.2386C81.5654 27.7976 81.6896 28.2633 82.0001 28.5739C82.3106 28.9154 82.7454 29.0707 83.3043 29.0707H99.1101C99.6691 29.0707 100.135 28.9154 100.445 28.5739C100.756 28.2323 100.911 27.7976 100.911 27.2386V15.656C100.911 15.1591 100.756 14.7244 100.445 14.3828C100.135 14.0412 99.7312 13.8549 99.1722 13.8549C98.6133 13.8549 98.2096 14.0412 97.8991 14.3828C97.5885 14.7244 97.4643 15.1591 97.4643 15.656V26.0897H92.9617V15.656C92.9617 15.1591 92.8064 14.7244 92.4959 14.3828C92.1854 14.0412 91.7817 13.8549 91.2227 13.8549C90.6638 13.8549 90.2601 14.0412 89.9496 14.3828C89.6391 14.7244 89.5149 15.1591 89.5149 15.656V26.0897H85.0122V7.37527C85.0122 6.87843 84.857 6.44369 84.5464 6.10211C84.2359 5.76053 83.8322 5.57422 83.2733 5.57422C82.7143 5.57422 82.3106 5.76053 82.0001 6.10211C81.6896 6.44369 81.5654 6.87843 81.5654 7.37527V27.2386Z" fill="#243976"/>
<path d="M105.678 27.2697C105.678 27.7976 105.802 28.2323 106.112 28.5739C106.392 28.9154 106.827 29.0707 107.386 29.0707C107.945 29.0707 108.348 28.9154 108.659 28.5739C108.969 28.2323 109.125 27.7976 109.125 27.2697V22.3944L114.869 28.2323C115.863 29.2881 116.763 29.3502 117.571 28.4807C117.881 28.1702 118.006 27.7665 117.943 27.3007C117.881 26.8349 117.664 26.4002 117.291 26.0276L112.354 21.4007L116.763 16.7118C117.136 16.3081 117.353 15.8733 117.416 15.4386C117.447 15.0039 117.322 14.6312 117.012 14.3207C116.205 13.5754 115.335 13.6997 114.403 14.7554L109.125 20.7486V15.656C109.125 15.1591 108.969 14.7244 108.659 14.3828C108.348 14.0412 107.945 13.8549 107.386 13.8549C106.827 13.8549 106.423 14.0412 106.112 14.3828C105.802 14.7244 105.678 15.1591 105.678 15.656V27.2697Z" fill="#243976"/>
<path d="M121.345 21.4628C121.345 23.8228 121.998 25.717 123.302 27.1765C124.606 28.667 126.407 29.3812 128.767 29.3812C131.096 29.3812 132.928 28.667 134.232 27.1765C135.537 25.686 136.22 23.7918 136.22 21.4628C136.22 19.1649 135.537 17.2707 134.232 15.7802C132.928 14.2897 131.096 13.5444 128.767 13.5444C126.407 13.5444 124.606 14.2897 123.302 15.7491C121.998 17.2397 121.345 19.1339 121.345 21.4628ZM124.948 21.4628C124.948 20.0344 125.258 18.8544 125.941 17.9228C126.593 16.9912 127.525 16.5254 128.767 16.5254C130.009 16.5254 130.941 16.9912 131.624 17.8918C132.276 18.8233 132.618 20.0033 132.618 21.4628C132.618 22.9533 132.276 24.1333 131.624 25.0339C130.941 25.9654 130.009 26.4002 128.767 26.4002C127.525 26.4002 126.593 25.9654 125.941 25.0339C125.258 24.1333 124.948 22.9533 124.948 21.4628Z" fill="#243976"/>
<path d="M149.529 34.5153C149.529 35.0432 149.653 35.4779 149.964 35.8195C150.274 36.1611 150.709 36.3163 151.268 36.3163C151.827 36.3163 152.262 36.1611 152.572 35.8195C152.883 35.4779 153.038 35.0432 153.038 34.5153V15.656C153.038 15.1591 152.883 14.7554 152.572 14.3828C152.262 14.0412 151.827 13.8549 151.268 13.8549H144.437C143.94 13.8549 143.505 14.0102 143.163 14.3207C142.791 14.6312 142.604 15.066 142.604 15.656C142.418 20.0654 142.108 23.0465 141.673 24.5681C141.393 25.5307 140.897 25.9965 140.213 25.9965C139.22 25.9965 138.692 26.4933 138.692 27.4249C138.661 28.0149 138.847 28.4497 139.251 28.7291C139.623 29.0397 140.151 29.1639 140.772 29.1639C142.698 29.1639 144.002 28.046 144.685 25.8102C145.306 23.8539 145.679 20.9039 145.803 16.9602H149.529V34.5153Z" fill="#243976"/>
<path d="M167.34 27.2697C167.34 27.7976 167.464 28.2323 167.744 28.5739C168.023 28.9154 168.458 29.0707 169.017 29.0707C169.576 29.0707 169.98 28.9154 170.259 28.5739C170.539 28.2633 170.694 27.8286 170.694 27.2697V19.3202C170.694 15.4697 168.644 13.5444 164.576 13.5444C162.341 13.5444 160.633 13.9481 159.515 14.6933C158.739 15.1902 158.49 15.8112 158.739 16.5254C158.863 16.8981 159.08 17.1154 159.422 17.2397C159.763 17.3639 160.136 17.3639 160.509 17.2397C160.664 17.2086 160.912 17.1465 161.254 17.0223L161.999 16.8049C162.154 16.7428 162.372 16.6807 162.62 16.6186C162.869 16.5565 163.148 16.5254 163.396 16.4944C163.645 16.4944 163.893 16.4633 164.173 16.4633C165.415 16.4633 166.253 16.7428 166.688 17.3018C167.123 17.8607 167.34 18.606 167.34 19.5997V19.9412C166.471 19.817 165.384 19.7239 164.08 19.7239C162.154 19.7239 160.571 20.1586 159.298 20.966C158.024 21.7733 157.403 23.0776 157.403 24.8165C157.403 26.2139 157.838 27.3318 158.708 28.1391C159.577 28.9776 160.819 29.3812 162.372 29.3812C164.67 29.3812 166.315 28.5118 167.34 26.7107V27.2697ZM163.303 26.6486C162.527 26.6486 161.937 26.4623 161.502 26.0897C161.068 25.717 160.85 25.1891 160.85 24.537C160.85 22.7981 162.092 21.9286 164.576 21.9286C165.756 21.9286 166.657 21.9907 167.34 22.0839V22.6118C167.34 23.6676 166.968 24.6302 166.253 25.4376C165.508 26.2449 164.545 26.6486 163.303 26.6486Z" fill="#243976"/>
<path d="M89.1733 39.6286C89.6701 39.4423 90.3533 39.1939 91.2227 38.8833C92.0612 38.6039 92.6512 38.3865 92.9617 38.2312C94.0175 37.7344 94.4212 37.0512 94.1106 36.1507C93.8001 35.2812 92.9617 35.0949 91.6575 35.5607L88.0554 36.896C85.2606 37.9828 83.3664 39.3491 82.3417 40.9949C81.2859 42.6407 80.7891 45.0628 80.7891 48.2612C80.7891 51.1802 81.4101 53.447 82.6522 54.9997C83.8943 56.5523 85.7264 57.3286 88.1796 57.3286C90.3843 57.3286 92.1543 56.6454 93.4896 55.217C94.7938 53.8197 95.477 52.0497 95.477 49.876C95.477 47.7023 94.887 45.9633 93.738 44.6591C92.558 43.3549 90.9743 42.6718 88.9249 42.6718C87.8691 42.6718 86.8443 42.9202 85.8506 43.417C84.857 43.9139 84.0806 44.6281 83.5217 45.6218C83.5838 43.8828 84.267 42.4544 85.6022 41.3986C86.2854 40.8707 87.4654 40.2807 89.1733 39.6286ZM91.8748 50.0002C91.8748 51.3665 91.5333 52.4533 90.8812 53.1986C90.2291 53.9749 89.3285 54.3475 88.1485 54.3475C86.9996 54.3475 86.0991 53.9749 85.478 53.2297C84.8259 52.4844 84.5154 51.4286 84.5154 50.0623C84.5154 48.696 84.8259 47.6402 85.5091 46.8328C86.1612 46.0565 87.0617 45.6528 88.1796 45.6528C89.3596 45.6528 90.2601 46.0565 90.9122 46.8018C91.5333 47.5781 91.8748 48.6339 91.8748 50.0002Z" fill="#243976"/>
<path d="M103.907 57.0181C103.441 58.1981 103.006 59.0986 102.602 59.6886C102.168 60.2786 101.64 60.5581 100.988 60.5581C100.646 60.5581 100.087 60.4339 99.3109 60.1854C98.3793 59.937 97.7893 60.1233 97.4788 60.8065C97.0751 61.676 97.3856 62.4212 98.4414 62.9802C99.1246 63.3528 99.963 63.5391 100.957 63.5391C102.292 63.5391 103.379 63.1044 104.217 62.2039C105.056 61.3033 105.925 59.6265 106.857 57.1733L111.701 44.3486C112.167 43.0444 111.949 42.237 111.018 41.9265C109.9 41.5539 109.155 42.0197 108.72 43.3549L105.521 52.857L101.888 43.2307C101.391 41.9576 100.553 41.5228 99.4351 41.9576C98.8762 42.1749 98.5656 42.5476 98.4414 43.0754C98.3172 43.6033 98.3793 44.1002 98.6277 44.566L103.907 57.0181Z" fill="#243976"/>
<path d="M126.946 57.0181V58.9433C126.946 59.4402 127.07 59.8439 127.318 60.1544C127.567 60.4649 127.97 60.6202 128.467 60.6202C129.461 60.6202 129.958 60.0612 129.958 58.9433V55.8381C129.958 55.4033 129.834 54.9997 129.585 54.6891C129.337 54.3786 128.964 54.2233 128.467 54.2233H127.66V43.6033C127.66 43.0754 127.505 42.6407 127.194 42.2991C126.884 41.9886 126.449 41.8023 125.89 41.8023H118.872C117.692 41.8023 117.102 42.4233 117.04 43.6033C117.04 43.6965 117.009 43.976 117.009 44.4418C116.978 44.9386 116.947 45.3423 116.947 45.7149C116.916 46.0876 116.885 46.5844 116.854 47.2054C116.791 47.8265 116.76 48.3544 116.698 48.8202L116.543 50.4039C116.481 50.9939 116.388 51.4907 116.295 51.9254C116.17 52.3602 116.077 52.7328 115.953 53.1054C115.829 53.4781 115.674 53.7575 115.518 53.9439C115.332 54.1302 115.177 54.2233 114.99 54.2233H114.835C114.338 54.2233 113.997 54.3786 113.748 54.6891C113.5 54.9997 113.376 55.3723 113.376 55.8381V58.9433C113.376 60.0612 113.872 60.6202 114.866 60.6202C115.363 60.6202 115.736 60.4649 115.984 60.1544C116.232 59.8439 116.388 59.4402 116.388 58.9433V57.0181H126.946ZM118.841 54.2233C119.555 52.2981 119.959 49.1618 120.083 44.7833H124.213V54.2233H118.841Z" fill="#243976"/>
<path d="M139.13 57.0181C138.664 58.1981 138.229 59.0986 137.826 59.6886C137.391 60.2786 136.863 60.5581 136.211 60.5581C135.869 60.5581 135.311 60.4339 134.534 60.1854C133.603 59.937 133.013 60.1233 132.702 60.8065C132.298 61.676 132.609 62.4212 133.665 62.9802C134.348 63.3528 135.186 63.5391 136.18 63.5391C137.515 63.5391 138.602 63.1044 139.441 62.2039C140.279 61.3033 141.148 59.6265 142.08 57.1733L146.924 44.3486C147.39 43.0444 147.173 42.237 146.241 41.9265C145.123 41.5539 144.378 42.0197 143.943 43.3549L140.745 52.857L137.112 43.2307C136.615 41.9576 135.776 41.5228 134.658 41.9576C134.099 42.1749 133.789 42.5476 133.665 43.0754C133.541 43.6033 133.603 44.1002 133.851 44.566L139.13 57.0181Z" fill="#243976"/>
<path d="M152.716 57.0181H169.391V58.9433C169.391 59.4402 169.515 59.8439 169.764 60.1544C170.012 60.4649 170.416 60.6202 170.913 60.6202C171.906 60.6202 172.403 60.0612 172.403 58.9433V55.6518C172.403 55.217 172.279 54.8133 172.031 54.5028C171.782 54.1923 171.41 54.037 170.913 54.037H170.323V43.6033C170.323 43.1065 170.167 42.6718 169.857 42.3302C169.546 41.9886 169.143 41.8023 168.584 41.8023C168.025 41.8023 167.621 41.9886 167.311 42.3302C167 42.6718 166.876 43.1065 166.876 43.6033V54.037H162.373V43.6033C162.373 43.1065 162.218 42.6718 161.907 42.3302C161.597 41.9886 161.193 41.8023 160.634 41.8023C160.075 41.8023 159.672 41.9886 159.361 42.3302C159.051 42.6718 158.926 43.1065 158.926 43.6033V54.037H154.424V43.6033C154.424 43.1065 154.268 42.6718 153.958 42.3302C153.647 41.9886 153.244 41.8023 152.685 41.8023C152.126 41.8023 151.722 41.9886 151.412 42.3302C151.101 42.6718 150.977 43.1065 150.977 43.6033V55.186C150.977 55.7449 151.101 56.2107 151.412 56.5212C151.722 56.8628 152.157 57.0181 152.716 57.0181Z" fill="#243976"/>
<path d="M187.593 50.6833C188.183 50.6833 188.649 50.5591 188.96 50.3107C189.27 50.0623 189.488 49.6897 189.643 49.1307C189.736 48.7581 189.798 48.2923 189.798 47.6712C189.798 45.8081 189.208 44.3176 188.09 43.1997C186.972 42.0818 185.42 41.4918 183.432 41.4918C181.197 41.4918 179.458 42.237 178.153 43.6654C176.849 45.1249 176.197 47.0502 176.197 49.4723C176.197 51.9876 176.787 53.9128 178.029 55.2791C179.271 56.6454 181.041 57.3286 183.37 57.3286C185.42 57.3286 187.065 56.9249 188.277 56.1176C188.649 55.8691 188.898 55.5586 189.022 55.186C189.146 54.8133 189.115 54.4407 188.929 54.1302C188.556 53.4781 187.904 53.3228 187.003 53.6954C185.699 54.2544 184.612 54.5028 183.712 54.5028C182.501 54.5028 181.538 54.1612 180.824 53.4781C180.079 52.7949 179.706 51.8633 179.675 50.6833H187.593ZM183.432 44.3176C184.457 44.3176 185.233 44.6281 185.761 45.187C186.289 45.777 186.569 46.5223 186.569 47.4539C186.569 47.7644 186.538 48.0439 186.538 48.2302H179.675C179.768 46.9881 180.141 46.0254 180.793 45.3423C181.445 44.6591 182.314 44.3176 183.432 44.3176Z" fill="#243976"/>
<path d="M196.491 41.8023C195.932 41.8023 195.528 41.9886 195.218 42.3302C194.907 42.7028 194.752 43.1065 194.752 43.6033V61.4276C194.752 61.9554 194.876 62.3902 195.187 62.7318C195.497 63.0733 195.932 63.2286 196.491 63.2286C197.05 63.2286 197.484 63.0733 197.795 62.7318C198.105 62.3902 198.261 61.9554 198.261 61.4276V44.9076H203.447C204.564 44.9076 205.123 44.4107 205.123 43.386C205.123 42.3302 204.564 41.8023 203.447 41.8023H196.491Z" fill="#243976"/>
<path d="M207.357 49.4102C207.357 51.7702 208.009 53.6644 209.313 55.1239C210.617 56.6144 212.418 57.3286 214.778 57.3286C217.107 57.3286 218.939 56.6144 220.244 55.1239C221.548 53.6333 222.231 51.7391 222.231 49.4102C222.231 47.1123 221.548 45.2181 220.244 43.7276C218.939 42.237 217.107 41.4918 214.778 41.4918C212.418 41.4918 210.617 42.237 209.313 43.6965C208.009 45.187 207.357 47.0812 207.357 49.4102ZM210.959 49.4102C210.959 47.9818 211.269 46.8018 211.953 45.8702C212.605 44.9386 213.536 44.4728 214.778 44.4728C216.021 44.4728 216.952 44.9386 217.635 45.8391C218.287 46.7707 218.629 47.9507 218.629 49.4102C218.629 50.9007 218.287 52.0807 217.635 52.9812C216.952 53.9128 216.021 54.3475 214.778 54.3475C213.536 54.3475 212.605 53.9128 211.953 52.9812C211.269 52.0807 210.959 50.9007 210.959 49.4102Z" fill="#243976"/>
<path d="M180.105 19.1797C180.105 13.3807 184.806 8.67969 190.605 8.67969H225.5C231.299 8.67969 236 13.3807 236 19.1797V19.9165C236 25.7155 231.299 30.4165 225.5 30.4165H181.105C180.553 30.4165 180.105 29.9688 180.105 29.4165V19.1797Z" fill="#49B3F7"/>
<path d="M187.352 20.8128C187.352 21.8242 187.636 22.636 188.206 23.2615C188.775 23.9003 189.562 24.2064 190.592 24.2064C191.609 24.2064 192.409 23.9003 192.979 23.2615C193.548 22.6227 193.847 21.8109 193.847 20.8128C193.847 19.828 193.548 19.0162 192.979 18.3774C192.409 17.7386 191.609 17.4192 190.592 17.4192C189.562 17.4192 188.775 17.7386 188.206 18.3641C187.636 19.0029 187.352 19.8147 187.352 20.8128ZM188.924 20.8128C188.924 20.2006 189.06 19.6949 189.358 19.2957C189.643 18.8964 190.05 18.6968 190.592 18.6968C191.135 18.6968 191.541 18.8964 191.84 19.2824C192.124 19.6816 192.274 20.1873 192.274 20.8128C192.274 21.4516 192.124 21.9573 191.84 22.3433C191.541 22.7425 191.135 22.9288 190.592 22.9288C190.05 22.9288 189.643 22.7425 189.358 22.3433C189.06 21.9573 188.924 21.4516 188.924 20.8128Z" fill="white"/>
<path d="M195.132 23.3015C195.132 23.5277 195.187 23.714 195.322 23.8604C195.458 24.0068 195.648 24.0733 195.892 24.0733C196.136 24.0733 196.326 24.0068 196.461 23.8604C196.597 23.714 196.665 23.5277 196.665 23.3015V21.5847C196.665 21.1854 196.692 20.8261 196.746 20.5067C196.8 20.2006 196.881 19.9078 196.99 19.6284C197.098 19.3489 197.275 19.136 197.492 18.9763C197.709 18.8299 197.98 18.75 198.305 18.75C199.065 18.75 199.458 19.2557 199.458 20.2405V23.3015C199.458 23.5277 199.512 23.714 199.648 23.8604C199.783 24.0068 199.973 24.0733 200.217 24.0733C200.461 24.0733 200.651 24.0068 200.787 23.8604C200.922 23.714 200.99 23.5277 200.99 23.3015V20.2672C200.99 19.3356 200.814 18.6169 200.461 18.1378C200.109 17.6587 199.512 17.4192 198.671 17.4192C198.237 17.4192 197.844 17.5124 197.492 17.6987C197.139 17.885 196.854 18.1645 196.665 18.5238V18.3242C196.665 18.1112 196.597 17.9249 196.461 17.7785C196.326 17.6321 196.136 17.5523 195.892 17.5523C195.648 17.5523 195.458 17.6321 195.322 17.7785C195.187 17.9249 195.132 18.1112 195.132 18.3242V23.3015Z" fill="white"/>
<path d="M205.909 21.1854C206.126 21.1854 206.302 21.1322 206.438 21.0124C206.573 20.906 206.641 20.733 206.641 20.52C206.641 20.3204 206.573 20.1607 206.438 20.0409C206.302 19.9212 206.126 19.8546 205.909 19.8546H202.6C202.383 19.8546 202.207 19.9212 202.071 20.0409C201.936 20.1607 201.868 20.3204 201.868 20.52C201.868 20.733 201.936 20.906 202.071 21.0124C202.207 21.1322 202.383 21.1854 202.6 21.1854H205.909Z" fill="white"/>
<path d="M207.526 22.0239C207.526 23.4878 208.204 24.2064 209.574 24.2064C210.143 24.2064 210.591 24.1133 210.943 23.9136C211.377 23.6741 211.526 23.368 211.377 22.9687C211.31 22.8224 211.201 22.7292 211.038 22.676C210.876 22.636 210.713 22.6493 210.55 22.7159C210.279 22.8224 210.048 22.8756 209.832 22.8756C209.547 22.8756 209.343 22.7957 209.235 22.6227C209.113 22.463 209.059 22.1836 209.059 21.8109V15.6625C209.059 15.4496 208.991 15.2633 208.855 15.1169C208.72 14.9705 208.53 14.8906 208.286 14.8906C208.042 14.8906 207.852 14.9705 207.716 15.1169C207.581 15.2633 207.526 15.4496 207.526 15.6625V22.0239Z" fill="white"/>
<path d="M212.095 23.3015C212.095 23.5277 212.149 23.714 212.285 23.8604C212.42 24.0068 212.61 24.0733 212.854 24.0733C213.098 24.0733 213.288 24.0068 213.424 23.8604C213.559 23.714 213.627 23.5277 213.627 23.3015V18.3242C213.627 18.1112 213.559 17.9249 213.424 17.7785C213.288 17.6321 213.098 17.5523 212.854 17.5523C212.61 17.5523 212.42 17.6321 212.285 17.7785C212.149 17.9249 212.095 18.1112 212.095 18.3242V23.3015ZM211.973 15.8355C211.973 16.1017 212.041 16.3146 212.203 16.4477C212.366 16.5808 212.583 16.6473 212.854 16.6473C213.125 16.6473 213.342 16.5808 213.505 16.4344C213.668 16.3013 213.749 16.1017 213.749 15.8355C213.749 15.596 213.668 15.3963 213.505 15.2499C213.342 15.1036 213.125 15.0237 212.854 15.0237C212.583 15.0237 212.366 15.1036 212.203 15.2499C212.041 15.3963 211.973 15.596 211.973 15.8355Z" fill="white"/>
<path d="M215.26 23.3015C215.26 23.5277 215.314 23.714 215.449 23.8604C215.585 24.0068 215.775 24.0733 216.019 24.0733C216.263 24.0733 216.453 24.0068 216.588 23.8604C216.724 23.714 216.792 23.5277 216.792 23.3015V21.5847C216.792 21.1854 216.819 20.8261 216.873 20.5067C216.927 20.2006 217.009 19.9078 217.117 19.6284C217.226 19.3489 217.402 19.136 217.619 18.9763C217.836 18.8299 218.107 18.75 218.432 18.75C219.192 18.75 219.585 19.2557 219.585 20.2405V23.3015C219.585 23.5277 219.639 23.714 219.775 23.8604C219.91 24.0068 220.1 24.0733 220.344 24.0733C220.588 24.0733 220.778 24.0068 220.914 23.8604C221.049 23.714 221.117 23.5277 221.117 23.3015V20.2672C221.117 19.3356 220.941 18.6169 220.588 18.1378C220.236 17.6587 219.639 17.4192 218.799 17.4192C218.365 17.4192 217.971 17.5124 217.619 17.6987C217.266 17.885 216.982 18.1645 216.792 18.5238V18.3242C216.792 18.1112 216.724 17.9249 216.588 17.7785C216.453 17.6321 216.263 17.5523 216.019 17.5523C215.775 17.5523 215.585 17.6321 215.449 17.7785C215.314 17.9249 215.26 18.1112 215.26 18.3242V23.3015Z" fill="white"/>
<path d="M227.378 21.3584C227.636 21.3584 227.839 21.3052 227.975 21.1987C228.111 21.0923 228.205 20.9326 228.273 20.693C228.314 20.5333 228.341 20.3337 228.341 20.0675C228.341 19.269 228.083 18.6302 227.595 18.1512C227.107 17.6721 226.429 17.4192 225.561 17.4192C224.585 17.4192 223.826 17.7386 223.256 18.3508C222.687 18.9763 222.402 19.8014 222.402 20.8394C222.402 21.9174 222.66 22.7425 223.202 23.3281C223.744 23.9136 224.517 24.2064 225.534 24.2064C226.429 24.2064 227.148 24.0334 227.677 23.6874C227.839 23.5809 227.948 23.4478 228.002 23.2881C228.056 23.1284 228.043 22.9687 227.961 22.8357C227.799 22.5562 227.514 22.4896 227.121 22.6493C226.551 22.8889 226.077 22.9954 225.683 22.9954C225.155 22.9954 224.734 22.849 224.422 22.5562C224.097 22.2634 223.934 21.8642 223.921 21.3584H227.378ZM225.561 18.6302C226.009 18.6302 226.348 18.7633 226.578 19.0029C226.809 19.2557 226.931 19.5751 226.931 19.9744C226.931 20.1075 226.917 20.2272 226.917 20.3071H223.921C223.961 19.7748 224.124 19.3622 224.409 19.0694C224.694 18.7766 225.073 18.6302 225.561 18.6302Z" fill="white"/>
<path d="M8.17415 45.2106L13.8966 56.6554C34.8241 44.8837 33.9248 24.9098 31.4724 16.19L19.6189 23.1386C19.6189 23.1386 22.48 34.1745 8.17415 45.2106Z" fill="#49B3F7"/>
<path d="M46.0518 5.82312L33.2829 4.99452C32.8972 29.0025 50.5999 38.2967 59.3667 40.5753L59.3425 26.8353C59.3425 26.8353 48.3695 23.7418 46.0518 5.82312Z" fill="#864FF1"/>
<path d="M61.4989 58.609L68.7776 48.0851C48.3876 35.4051 31.3114 45.8056 24.8479 52.1516L36.6432 59.1984C36.6432 59.1984 44.9403 51.3796 61.4989 58.609Z" fill="#49B3F7"/>
</svg>
