<svg width="145" height="370" viewBox="0 0 145 370" fill="none" xmlns="http://www.w3.org/2000/svg">
<path d="M34.2097 127.343C32.8702 126.456 31.5896 125.483 30.376 124.429C22.7138 117.737 18.5547 107.847 16.0354 97.9633C12.5103 84.1323 10.6769 67.6927 15.5772 53.9646C17.2582 49.2555 19.5259 44.8018 20.9672 39.9944C22.9272 33.2027 26.2616 26.8912 30.7616 21.4556C34.3686 17.189 39.1949 13.7156 44.6966 12.8416C50.0559 12.1317 55.4788 13.5593 59.8041 16.8187C63.3651 13.384 68.4928 11.9899 73.4279 12.0001C82.4864 12.0187 88.8865 14.5214 94.8384 21.2454C98.9801 25.9244 102.911 30.7814 106.63 35.8163C112.998 44.4367 119.252 54.7195 119.824 65.7042C120.451 77.7322 117.377 89.6574 113.067 100.784C110.351 107.798 107.079 114.685 102.363 120.531C95.0764 129.574 84.6691 135.526 73.2136 137.201C62.2757 138.697 51.0805 135.965 41.1122 131.198C38.7241 130.078 36.4176 128.789 34.2097 127.343V127.343Z" fill="#662920"/>
<path d="M26.3945 99.6787C26.5138 103.09 26.9606 106.481 27.7286 109.806C29.7144 117.294 35.9259 122.425 41.3167 127.542" stroke="#5B1F17" stroke-width="3" stroke-linecap="round" stroke-linejoin="round"/>
<path d="M38.1738 104.828C40.5323 114.282 44.0677 124.508 55.2685 125.729" stroke="#5B1F17" stroke-width="3" stroke-linecap="round" stroke-linejoin="round"/>
<path d="M45.5098 107.466C45.5817 114.099 51.6336 118.806 56.9621 121.513" stroke="#5B1F17" stroke-width="3" stroke-linecap="round" stroke-linejoin="round"/>
<path d="M84.3307 109.191C84.8964 116.977 80.4525 123.17 75.5957 128.743" stroke="#5B1F17" stroke-width="3" stroke-linecap="round" stroke-linejoin="round"/>
<path d="M82.8434 236.008C82.8434 236.008 78.9913 263.545 78.7773 267.632C78.5633 271.72 80.9174 281.831 80.8104 286.349C80.7034 290.867 76.8513 315.607 76.6373 320.125C76.4233 324.643 75.7812 330.021 76.6373 333.248C77.4933 336.475 80.8027 344.22 81.0741 347.232C81.3454 350.243 71.7151 351.104 70.0031 349.598C68.291 348.092 65.0196 333.41 65.0809 332.691C65.1422 331.971 63.9424 314.384 63.7356 309.005C63.5288 303.627 63.5754 286.883 63.4328 281.023C63.2901 275.162 60.9102 233.787 60.9102 233.787L82.8434 236.008Z" fill="#FFBF94"/>
<g style="mix-blend-mode:multiply" opacity="0.39">
<g style="mix-blend-mode:multiply" opacity="0.39">
<path d="M66.5793 276.023C65.6163 274.409 64.5462 270.214 64.3447 264.406C64.1432 258.597 64.3447 238.804 64.3447 238.804L61.1328 237.674C61.7273 248.107 63.3174 276.266 63.4332 281.023C63.5758 286.884 63.5292 303.627 63.7359 309.006C63.7477 309.311 63.763 309.66 63.7808 310.038L67.5424 312.089C67.5424 312.089 63.8823 293.008 65.0814 287.317C66.2804 281.627 66.7627 279.002 66.7627 279.002C66.7627 279.002 69.5755 279.035 70.8595 279.002C72.1435 278.968 72.7855 277.206 72.7855 277.206C69.7895 278.497 67.5424 277.636 66.5793 276.023Z" fill="#E6A07A"/>
</g>
<g style="mix-blend-mode:multiply" opacity="0.39">
<path d="M78.7783 267.633C78.8028 267.164 78.8771 266.374 78.9862 265.364C79.6581 259.145 81.7148 244.156 82.5177 238.359C80.2509 239.048 71.0709 237.83 67.8104 237.921C63.9582 238.028 66.1766 241.199 66.1766 241.199C66.1766 241.199 70.1109 246.262 78.6713 244.739C78.6713 244.739 79.9553 244.829 79.8482 247.303C79.7412 249.777 78.3502 259.351 78.3502 259.351C77.582 262.285 77.01 265.268 76.6381 268.279C76.4837 271.432 75.7585 274.53 74.4981 277.422C75.485 275.948 76.3582 274.401 77.11 272.793C78.1731 277.588 78.98 282.437 79.5273 287.318C79.7429 289.826 79.8708 292.332 79.9476 294.439C80.431 290.696 80.7801 287.664 80.8113 286.35C80.9182 281.832 78.5642 271.721 78.7783 267.633Z" fill="#E6A07A"/>
</g>
</g>
<path d="M63.7363 309.006C63.7363 309.006 72.2509 310.364 78.136 309.006C78.136 309.006 76.0167 327.116 76.206 328.945C76.545 330.91 77.0092 332.85 77.5957 334.755L81.7741 346.06C81.7741 346.06 73.3208 350.997 69.8967 350.244C66.4726 349.491 65.0816 340.993 65.0816 340.993L64.4324 332.065C64.4324 332.065 64.6392 319.05 64.4324 317.651C64.2256 316.253 63.7363 309.006 63.7363 309.006Z" fill="#FF6551"/>
<path d="M64.4328 332.064C63.8301 334.527 63.4554 337.041 63.3138 339.574C63.156 343.359 64.44 356.258 66.7941 358.414C69.1482 360.57 75.9888 360.354 81.0752 359.171C86.1617 357.988 86.6967 354.907 86.5897 353.92C86.4827 352.932 81.5605 345.08 81.5605 345.08C81.5605 345.08 77.4944 348.417 72.8933 348.201C71.3825 348.19 69.9124 347.708 68.6857 346.822C67.459 345.935 66.5364 344.688 66.0451 343.251C65.6171 341.853 64.4328 332.064 64.4328 332.064Z" fill="#2435A1"/>
<path d="M85.5426 351.735C81.8306 357.181 73.4647 358.287 69.4143 355.03C66.5429 352.721 64.7612 349.317 63.6074 345.512C64.1088 350.643 65.2078 356.963 66.7928 358.414C69.1467 360.57 75.9873 360.355 81.0739 359.171C86.1604 357.988 86.6953 354.907 86.5883 353.92C86.3235 353.154 85.9726 352.421 85.5426 351.735V351.735Z" fill="#243976"/>
<path d="M64.4316 336.368C66.4817 334.257 69.219 332.959 72.1431 332.711C76.7442 332.495 77.4989 332.874 77.4989 332.874L78.2499 336.335C75.9206 335.879 73.5177 335.976 71.2318 336.616C68.9459 337.257 66.84 338.424 65.0809 340.025L64.4316 336.368Z" fill="#2435A1"/>
<path d="M35.3203 217.379C35.3203 217.379 47.1962 258.684 47.3414 264.706C47.4866 270.728 46.4804 278.069 46.1256 286.901C45.7707 295.733 53.558 332.557 53.558 332.557L63.0332 332.326C63.0332 332.326 62.1195 304.373 62.3951 296.619C62.6707 288.865 64.4419 280.86 64.2008 273.334C63.9597 265.808 62.8482 217.187 62.8482 217.187L35.3203 217.379Z" fill="#FFBF94"/>
<g style="mix-blend-mode:multiply" opacity="0.39">
<path d="M62.3255 270.702C63.0926 268.459 63.437 266.091 63.3411 263.721C62.906 266.01 62.1298 268.22 61.0388 270.277C60.8184 270.617 60.6392 270.982 60.5052 271.364C60.4306 271.66 60.3886 271.963 60.3798 272.268C60.3171 273.231 60.2544 274.194 60.1918 275.158C60.1929 275.816 60.0603 276.468 59.8021 277.073C58.7443 279.161 55.5363 279.857 53.373 280.347C54.8363 280.499 56.3132 280.453 57.7644 280.211C58.6676 280.135 59.5208 279.762 60.1921 279.15C60.6268 278.589 60.8915 277.914 60.9542 277.206C61.3101 275.038 61.4016 272.993 62.2225 270.965C62.2578 270.878 62.2922 270.79 62.3255 270.702Z" fill="#E6A07A"/>
</g>
<g style="mix-blend-mode:multiply" opacity="0.39">
<path d="M62.3949 296.619C62.6707 288.866 64.4418 280.86 64.2006 273.334C64.0461 268.509 63.5337 246.789 63.1858 231.823L40.8281 234.048L41.9137 241.161C41.9909 241.449 42.0678 241.738 42.1446 242.026C45.8127 243.293 49.6878 243.842 53.5612 243.646C59.4307 243.18 60.0716 242.23 61.6043 245.259C63.1369 248.288 63.3888 265.661 63.3888 265.661C63.3888 265.661 61.9894 276.831 61.804 281.355C61.6183 285.878 60.5682 306.886 61.1686 310.26L62.4033 307.234C62.3353 302.786 62.3154 298.859 62.3949 296.619Z" fill="#E6A07A"/>
</g>
<g style="mix-blend-mode:multiply" opacity="0.39">
<path d="M49.1393 264.914C48.8303 268.645 49.6577 272.247 50.2374 275.912C50.2529 276.216 50.369 276.505 50.5672 276.735C50.7582 276.885 50.9813 276.988 51.2188 277.036C51.7185 277.179 52.3433 277.294 52.6978 276.934C52.5957 274.813 50.863 273.071 50.3389 271.008C49.8746 269.179 48.9817 266.817 49.1393 264.914Z" fill="#E6A07A"/>
</g>
<path d="M48.7148 307.511C53.2374 308.592 57.9613 308.476 62.4265 307.177C62.4265 307.177 63.0955 329.097 64.1579 333.159C65.2203 337.222 67.4038 346.207 66.0482 349.899C64.6925 353.59 50.8179 351.346 49.7466 350.296C48.6752 349.246 52.4246 332.585 52.4246 332.585C52.4246 332.585 49.6838 313.283 48.7148 307.511Z" fill="#FF6551"/>
<path d="M49.4568 345.246C52.896 345.803 56.3926 345.908 59.8587 345.557C65.2057 344.943 64.6868 344.648 65.0356 341.477C65.3844 338.306 63.9834 332.303 63.9834 332.303L63.7059 330.236C64.4712 333.284 69.1884 355.594 64.43 359.099C59.6715 362.605 48.7194 360.597 46.5906 358.389C44.4618 356.181 49.4568 345.246 49.4568 345.246Z" fill="#2435A1"/>
<path d="M66.083 343.74C65.9068 347.01 66.2505 350.428 65.6971 351.777C63.7033 356.658 50.8995 357.234 46.4611 353.677C45.975 355.756 45.8414 357.612 46.5898 358.388C48.7186 360.596 59.6708 362.604 64.4292 359.098C68.5622 356.054 67.1303 347.654 66.083 343.74Z" fill="#243976"/>
<path d="M51.082 337.746C55.6879 336.242 60.6062 335.984 65.343 336.996L64.074 332.788C64.074 332.788 56.5446 331.448 51.8892 333.579L51.082 337.746Z" fill="#2435A1"/>
<path d="M45.8302 187.536C45.8302 187.536 43.1635 188.643 41.2343 194.791C39.3051 200.938 28.748 243.34 28.748 243.34C28.748 243.34 30.8916 250.224 42.2525 247.47L52.3272 190.792L45.8302 187.536Z" fill="#243976"/>
<path d="M52.6488 187.536L41.3594 250.499C41.3594 250.499 47.6504 255.455 54.5975 254.354C61.5446 253.252 65.403 247.944 67.5466 248.12L65.6728 189.04L52.6488 187.536Z" fill="#243976"/>
<path d="M64.293 186.964L66.216 248.505V251.6C66.216 251.6 77.7783 256.832 86.9175 249.122L77.1398 185.794L64.293 186.964Z" fill="#243976"/>
<path d="M85.9677 184.387L101.477 241.137C101.477 241.137 93.2352 248.395 89.987 248.12C86.7388 247.846 80.871 248.128 80.871 248.128L74.6211 189.649L85.9677 184.387Z" fill="#243976"/>
<path d="M36.6028 240.764C38.6543 239.861 39.7153 237.023 40.5368 234.446C43.9649 223.688 46.9975 212.741 49.6348 201.604L47.7617 212.529C46.6235 219.168 45.4774 225.83 44.924 232.6C44.4902 237.906 43.5071 245.073 48.1658 247.728C51.5653 249.666 55.6338 248.626 58.8417 246.209C60.2231 245.231 61.3392 243.921 62.0882 242.398C63.0324 240.355 63.1712 237.882 63.2867 235.51L64.9451 201.436C65.0214 213.647 65.1054 225.953 67.0593 237.904C67.6171 241.316 68.535 245.049 70.9073 246.742C72.3385 247.624 74.0308 247.976 75.6925 247.738C78.405 247.567 81.6948 246.271 82.1801 242.839C82.2714 241.896 82.2406 240.945 82.0886 240.01L77.3802 200.511C78.2053 212.17 81.0923 223.403 83.9592 234.516C84.3188 236.433 85.0465 238.261 86.1016 239.899C86.5883 240.53 87.227 241.027 87.9575 241.342C88.6879 241.657 89.4861 241.78 90.2768 241.699C91.0675 241.618 91.8247 241.336 92.4771 240.88C93.1294 240.423 93.6555 239.807 94.0056 239.09C94.218 238.735 94.3598 238.341 94.4232 237.931C94.4571 237.402 94.3969 236.871 94.2452 236.363C91.553 225.004 87.9497 213.645 85.2573 202.286C84.1188 197.482 85.9453 192.563 78.7284 194.749C68.8284 197.748 60.0815 199.302 50.4366 195.153C42.9619 191.937 40.5875 203.214 39.0175 209.853C36.7535 219.427 33.8353 229.1 32.0898 238.852C33.0411 240.541 35.0782 241.435 36.6028 240.764Z" fill="#2435A1"/>
<path d="M79.213 200.546C80.0685 200.516 89.1203 199.205 89.0943 199.146L87.4449 195.405C87.3605 195.758 86.8619 195.729 86.5206 195.847C86.2841 195.953 86.0712 196.106 85.8947 196.297C84.5014 197.564 82.9218 197.706 81.2349 198.211C79.4681 198.831 77.6539 199.305 75.8104 199.628C72.7518 200.033 69.7633 200.608 66.67 200.768C60.4461 201.174 54.204 200.329 48.309 198.281C47.3758 197.95 46.4218 197.683 45.4531 197.48C46.2489 197.733 46.9808 198.156 47.5985 198.72C48.2162 199.284 48.7051 199.976 49.0316 200.749C49.3582 201.521 49.5146 202.355 49.4901 203.194C49.4657 204.032 49.261 204.856 48.8901 205.607C49.8586 203.801 51.0406 201.821 53.019 201.316C54.1077 201.126 55.225 201.182 56.2895 201.48L62.2696 202.688C63.1088 202.755 63.8935 203.132 64.4717 203.747C65.411 205.056 64.2233 207.155 65.231 208.412C65.7717 206.704 66.1478 204.949 66.3539 203.169C67.7574 202.55 69.2479 202.152 70.7723 201.991C71.536 201.917 72.3065 202.019 73.0245 202.291C73.7426 202.563 74.3891 202.996 74.9145 203.558C75.2288 203.967 75.5 204.407 75.7238 204.872L78.2648 209.716C77.8274 207.471 77.5358 205.199 77.3916 202.916C77.3421 202.132 77.3866 201.191 78.0523 200.78C78.4127 200.603 78.8125 200.522 79.213 200.546V200.546Z" fill="#243976"/>
<path d="M95.5436 183.216L95.5452 183.217C95.9025 183.655 96.3681 183.992 96.8955 184.193C97.4228 184.394 97.9935 184.452 98.5502 184.361C99.3156 184.067 99.9724 183.544 100.432 182.862C103.319 179.249 103.931 177.832 106.545 172.543C109.222 167.127 116.012 151.164 117.689 146.481C118.115 145.292 119.719 145.071 122.385 144.408C125.049 143.743 127.134 137.477 128.692 135.97C130.251 134.462 136.042 130.902 134.836 129.208C133.63 127.513 127.4 133.022 127.052 132.072C126.704 131.122 133.638 121.457 131.92 120.012C130.203 118.567 124.43 128.675 123.857 128.209C123.284 127.742 128.357 117.207 126.481 115.489C124.603 113.77 120.308 126.297 119.657 126.988C119.005 127.679 122.189 114.488 120.623 113.54C119.059 112.591 118.075 117.288 118.075 117.288C117.155 120.349 116.131 126.736 115.211 129.797C115.171 130.041 115.084 130.274 114.954 130.484C114.824 130.693 114.654 130.875 114.454 131.018C113.904 129.896 114.097 128.547 113.987 127.287C113.891 126.16 113.54 125.07 112.961 124.1C112.569 123.396 111.995 122.812 111.3 122.408C110.96 122.215 110.578 122.108 110.187 122.094C109.796 122.081 109.408 122.163 109.056 122.333C108.784 122.463 108.569 122.687 108.45 122.965C108.192 123.658 108.789 124.337 109.193 124.947C109.964 126.31 110.224 127.907 109.924 129.446C109.713 130.989 109.231 132.479 109.024 134.023C108.728 135.563 108.996 137.159 109.777 138.516C110.412 139.224 111.002 139.971 111.543 140.753C112.001 141.919 112.065 143.204 111.727 144.411C111.66 144.758 111.586 145.104 111.504 145.448C104.94 158.366 95.9514 168.241 93.4357 175.353C92.4938 178.016 93.6384 181.241 95.5436 183.216Z" fill="#FFBF94"/>
<path d="M86.5353 155.165C86.5916 156.838 86.7502 158.506 87.01 160.159C87.0442 160.372 87.0808 160.583 87.1196 160.791C87.3203 161.88 87.5297 158.417 87.7465 159.535L87.7473 159.539C90.0911 171.625 93.3116 182.098 95.5431 183.216L95.5448 183.217C96.2769 183.58 97.105 181.757 97.9043 179.029C99.7661 172.671 101.476 164.14 101.476 164.14C101.476 164.14 101.282 162.809 100.956 160.698C100.444 157.381 99.6075 156.706 98.6876 151.661C98.2377 149.186 97.765 146.759 97.3042 144.632C97.0453 143.443 96.7887 142.348 96.5404 141.392C94.3689 133.011 91.5805 128.269 89.8299 127.851C89.8299 127.851 86.0497 142.807 86.5353 155.165Z" fill="#FFBF94"/>
<g style="mix-blend-mode:multiply" opacity="0.39">
<path d="M86.5352 155.165C86.592 156.837 86.7506 158.505 87.0101 160.158C91.7658 159.094 96.4157 154.309 98.688 151.661C98.2376 149.185 97.7653 146.758 97.3042 144.631L97.3028 144.631L92.3015 149.01C90.2603 150.945 88.3348 153 86.5352 155.165V155.165Z" fill="#E6A07A"/>
</g>
<path d="M11.3887 161.501L13.6655 168.348C17.6781 169.156 22.1519 168.516 24.2949 166.837C26.9003 164.796 42.3469 150.216 42.3469 150.216C41.0064 143.364 39.9219 133.259 39.0173 133.593C37.9129 134.001 34.0659 137.977 34.0659 137.977L11.3887 161.501Z" fill="#FFBF94"/>
<g style="mix-blend-mode:multiply" opacity="0.39">
<path d="M29.7109 155.103C31.287 156.432 42.9397 160.571 43.1773 160.517C43.5214 159.417 43.81 158.3 44.042 157.17C44.042 157.17 43.8663 156.248 43.5712 154.74C43.1783 154.138 42.7495 153.56 42.2873 153.01L34.5602 148.57L30.8282 150.574C30.4677 152.019 30.0914 153.538 29.7109 155.103Z" fill="#E6A07A"/>
</g>
<path d="M52.3711 120.539C52.3711 120.539 54.095 127.118 54.2644 127.065C54.4338 127.011 80.1602 125.721 80.1602 125.721L78.2149 123.509L77.8316 122.335C77.8316 122.335 72.5428 119.171 74.6084 108.407C74.8394 107.221 75.1297 106.047 75.4785 104.89C75.7607 104.006 75.9305 103.089 75.984 102.162C76.2903 93.2621 57.9825 104.398 57.8286 104.392C57.5453 104.851 57.3226 105.345 57.166 105.862C56.8289 106.736 56.4952 107.679 56.4952 107.679C56.8322 108.826 57.0661 110.001 57.1941 111.189C57.5701 114.596 57.1872 119.415 52.3711 120.539Z" fill="#E6A07A"/>
<g style="mix-blend-mode:multiply" opacity="0.39">
<path d="M56.4961 107.68C56.8331 108.826 57.067 110.001 57.195 111.19C59.7274 112.208 64.2179 113.86 66.1024 113.615C67.9569 113.373 72.1629 110.303 74.6093 108.408C74.8403 107.221 75.1307 106.048 75.4794 104.891C75.7616 104.006 75.9315 103.089 75.985 102.162L67.2185 104.816L57.1669 105.862C56.8298 106.737 56.4961 107.68 56.4961 107.68Z" fill="#E6A07A"/>
</g>
<path d="M84.9308 142.231C84.9225 142.499 89.2713 148.368 89.0253 153.538C88.7793 158.708 85.227 164.921 84.6149 168.382C84.0028 171.843 88.4674 191.708 88.4674 191.708C88.4674 191.708 70.5284 200.944 41.3973 193.035C41.3973 193.035 45.5957 175.772 43.0784 166.493C42.1154 162.943 38.1946 152.36 44.6369 142.32C51.0792 132.28 81.1133 140.839 81.1133 140.839L84.9308 142.231Z" fill="#864FF1"/>
<path d="M43.3944 161.28C44.234 161.948 45.1222 162.552 46.0515 163.087C47.1037 163.563 48.1955 163.945 49.3142 164.23C51.941 164.954 54.6061 165.605 57.2853 166.068C62.626 167.1 68.085 167.369 73.5005 166.867C74.9607 166.7 76.4081 166.434 77.8326 166.071C79.2172 165.661 80.6469 165.425 82.0891 165.368C82.3038 165.368 82.3638 165.643 82.2386 165.791C80.4147 167.948 77.392 168.751 74.8246 169.402C72.0404 170.078 69.1876 170.428 66.3233 170.445C63.2818 170.434 60.2524 170.06 57.2989 169.33C54.436 168.704 51.6243 167.862 48.8881 166.809C47.5974 166.344 46.3797 165.696 45.2719 164.884C44.1272 164.13 43.269 163.011 42.8363 161.706C42.8176 161.633 42.8207 161.556 42.8452 161.485C42.8698 161.414 42.9147 161.352 42.9744 161.306C43.034 161.261 43.1057 161.234 43.1805 161.229C43.2552 161.225 43.3296 161.242 43.3944 161.28V161.28Z" fill="#6640D0"/>
<path d="M25.2227 143.059C25.2227 143.059 28.8434 155.486 41.1715 158.137C41.4547 158.199 41.7435 158.255 42.0365 158.306C55.0609 160.546 86.7959 157.296 86.7959 157.296C87.3301 157.242 87.8578 157.136 88.3717 156.98C90.0823 156.424 91.6485 155.493 92.957 154.254C94.6627 152.588 96.1956 150.752 97.5318 148.775C98.6109 147.29 99.69 145.804 100.769 144.318C101.28 143.616 101.789 142.914 102.299 142.213C102.051 142.555 97.5342 135.773 97.1274 135.042C95.5885 132.266 92.9973 126.771 90.7223 126.155C82.0593 123.809 76.9838 121.28 76.7835 121.405C76.7835 121.405 73.2079 125.206 63.9851 124.879C54.7623 124.552 52.3701 120.539 52.3701 120.539C52.3701 120.539 44.645 123.301 41.3331 124.522C38.0846 125.72 31.367 139.683 25.5609 142.884C25.4485 142.946 25.3349 143.005 25.2227 143.059Z" fill="#864FF1"/>
<g style="mix-blend-mode:screen" opacity="0.14">
<path d="M46.4394 151.348C45.9586 151.83 45.6048 152.425 45.4101 153.078C45.2153 153.732 45.1856 154.425 45.3238 155.093C45.7269 156.593 47.125 157.499 48.4299 158.211C52.8824 160.739 57.7369 162.472 62.7781 163.334C67.818 164.179 72.9921 163.607 77.7292 161.682C79.2862 161.109 80.667 160.136 81.7344 158.86C83.5041 156.516 83.4551 153.144 82.7367 150.235C81.9318 146.976 80.9193 143.563 79.8312 140.405C79.5066 139.554 79.1337 138.723 78.7143 137.915C78.673 137.836 78.6068 137.774 78.5261 137.738C78.4455 137.701 78.3551 137.693 78.2694 137.715C78.1837 137.736 78.1076 137.786 78.0533 137.856C77.9989 137.926 77.9695 138.012 77.9697 138.101C77.9632 140.367 77.8351 142.701 77.6192 144.954C77.5526 146.661 76.9468 148.301 75.8896 149.638C74.7545 150.745 73.2989 151.46 71.7331 151.681C65.1979 153.006 59.3859 150.357 53.038 149.509C50.7392 149.201 48.1881 149.56 46.5226 151.261C46.4946 151.289 46.4668 151.318 46.4394 151.348Z" fill="#FFC652"/>
</g>
<path d="M86.3217 145.199C87.345 148.756 87.9966 152.411 88.2661 156.104C88.2838 156.398 88.3193 156.691 88.3723 156.981C90.0829 156.425 91.6491 155.494 92.9576 154.255C94.6633 152.589 96.1962 150.753 97.5324 148.776C98.6115 147.29 99.6906 145.805 100.77 144.318C99.295 145.852 97.4466 146.971 95.4084 147.564C94.1851 147.912 92.8964 147.959 91.6514 147.7C90.4064 147.442 89.2416 146.885 88.2556 146.079C87.3525 145.232 86.5846 144.251 85.9788 143.17C85.9715 143.861 86.0877 144.549 86.3217 145.199V145.199Z" fill="#6640D0"/>
<path d="M25.2227 143.059C25.2227 143.059 28.8434 155.486 41.1715 158.137C41.2266 154.899 41.349 152.17 42.346 150.216C43.407 148.132 44.5279 145.62 44.7598 145.094C43.9461 146.941 42.6013 148.501 40.8985 149.573C40.0552 150.095 39.1166 150.442 38.1379 150.595C37.1592 150.748 36.16 150.702 35.1989 150.462C34.267 150.184 33.3792 149.774 32.5623 149.245C29.8986 147.523 27.5335 145.374 25.561 142.884C25.4485 142.947 25.3349 143.005 25.2227 143.059Z" fill="#6640D0"/>
<path d="M42.1112 149.656C42.5816 148.507 43.1017 147.383 43.6276 146.262C44.0174 145.139 44.6429 144.112 45.4616 143.253C45.4792 143.237 45.5009 143.227 45.5242 143.224C45.5474 143.221 45.5712 143.224 45.5923 143.234C45.6135 143.245 45.6312 143.261 45.6432 143.281C45.6551 143.302 45.6609 143.325 45.6596 143.349C45.6037 144.553 45.2663 145.727 44.6747 146.776C44.1789 147.94 43.6876 149.108 43.2574 150.302C42.3226 152.628 41.8519 155.116 41.8721 157.624C42.0883 162.672 46.1164 168.618 43.7687 173.512C43.7687 173.512 43.5673 171.752 43.547 171.495C43.0791 165.586 40.42 162.032 40.4896 156.766C40.5792 154.314 41.1294 151.902 42.1112 149.656Z" fill="#6640D0"/>
<path d="M50.9428 122.288C51.4638 122.484 51.9354 122.793 52.3243 123.193C52.8584 123.621 53.4144 124.021 53.9902 124.391C54.8011 124.918 55.6413 125.399 56.5068 125.83C56.8336 125.42 57.2205 125.061 57.6542 124.767C57.8901 124.629 58.226 124.886 58.1237 125.141C57.9379 125.544 57.6905 125.915 57.3907 126.24C57.9493 126.483 58.5184 126.7 59.0978 126.893C59.444 126.28 59.8993 125.736 60.4412 125.289C60.4776 125.27 60.5182 125.26 60.5592 125.262C60.6002 125.263 60.6402 125.275 60.6754 125.296C60.7106 125.317 60.7398 125.347 60.7603 125.382C60.7808 125.418 60.7919 125.458 60.7925 125.5C60.7447 125.874 60.6216 126.235 60.4307 126.559C60.3227 126.768 60.2216 126.99 60.1081 127.204C61.3199 127.546 62.5572 127.789 63.8079 127.93C63.8501 127.54 63.9581 127.159 64.1272 126.805C64.217 126.336 64.4601 125.911 64.8181 125.596C64.8576 125.576 64.9032 125.572 64.9457 125.585C64.9882 125.597 65.0245 125.625 65.0473 125.663C65.2087 126.135 65.2059 126.647 65.0394 127.117C65.0067 127.425 64.9437 127.729 64.8514 128.024C66.1947 128.112 67.5433 128.066 68.8774 127.885C68.8131 127.556 68.8154 127.218 68.8841 126.89C68.8891 126.521 69.011 126.164 69.2322 125.87C69.2666 125.84 69.307 125.818 69.3507 125.806C69.3943 125.793 69.4402 125.79 69.485 125.798C69.5298 125.805 69.5725 125.822 69.6102 125.847C69.6478 125.873 69.6794 125.906 69.7029 125.945C69.8484 126.251 69.917 126.587 69.9028 126.926C69.9454 127.185 69.9684 127.447 69.9715 127.709C70.7367 127.565 71.4938 127.382 72.2398 127.158C72.4304 127.101 72.6198 127.04 72.8084 126.977C72.7023 126.682 72.6173 126.379 72.554 126.072C72.434 125.714 72.3999 125.333 72.4546 124.959C72.4704 124.916 72.4966 124.878 72.5308 124.848C72.565 124.819 72.6062 124.798 72.6506 124.788C72.6949 124.779 72.7409 124.78 72.7844 124.793C72.8279 124.806 72.8674 124.83 72.8993 124.862C73.118 125.159 73.2838 125.491 73.389 125.845C73.4957 126.109 73.6432 126.371 73.7444 126.642C74.4493 126.37 75.1391 126.066 75.8137 125.728C75.7153 125.502 75.631 125.27 75.5422 125.041C75.4051 124.755 75.3082 124.451 75.2544 124.138C75.2341 123.918 75.582 123.8 75.7198 123.97C75.8881 124.215 76.0266 124.48 76.1322 124.758C76.2304 124.967 76.3375 125.173 76.4346 125.383C77.2503 124.8 78.1294 124.313 79.0551 123.93C79.062 123.929 79.0693 123.929 79.076 123.931C79.0827 123.934 79.0885 123.938 79.0928 123.944C79.0971 123.95 79.0996 123.957 79.1 123.964C79.1004 123.971 79.0987 123.978 79.0952 123.984C78.5325 124.728 77.8107 125.335 76.9832 125.761C76.0819 126.342 75.1349 126.848 74.1515 127.273C71.2395 128.542 68.0866 129.154 64.9142 129.067C61.7417 128.981 58.6265 128.197 55.7874 126.771C54.7303 126.245 53.7242 125.621 52.782 124.907C52.012 124.323 50.8122 123.594 50.5549 122.638C50.5444 122.586 50.5476 122.532 50.5641 122.482C50.5807 122.432 50.61 122.387 50.6492 122.351C50.6884 122.316 50.7361 122.291 50.7876 122.28C50.8391 122.269 50.8926 122.272 50.9428 122.288V122.288Z" fill="#6640D0"/>
<g style="mix-blend-mode:multiply" opacity="0.39">
<path d="M87.748 159.539C90.0919 171.625 93.3124 182.097 95.5439 183.216L95.5456 183.217C95.9028 183.655 96.3684 183.992 96.8958 184.193C97.4232 184.394 97.9938 184.452 98.5506 184.361C99.3314 184.095 99.9963 183.565 100.432 182.861C107.722 172.113 113.737 155.962 113.737 155.962C113.572 156.357 101.895 178.858 97.9051 179.029H97.9043C96.6332 179.083 95.1503 176.879 93.7167 173.84C90.6515 167.342 87.8122 159.773 87.748 159.539Z" fill="#E6A07A"/>
</g>
<path d="M84.0612 169.229C84.0977 168.153 84.2433 167.084 84.4958 166.037C84.7768 165.073 85.1793 164.149 85.6936 163.288C86.1862 162.472 86.6304 161.627 87.0238 160.758C87.4195 159.748 87.5967 158.665 87.5437 157.58C87.4314 155.215 87.1399 152.862 86.6716 150.541C86.2028 147.896 85.6092 145.282 85.2817 142.611C85.2603 142.437 85.4988 142.3 85.5766 142.491C87.3392 146.882 88.4651 151.504 88.9197 156.217C89.0717 157.329 89.0762 158.456 88.9329 159.569C88.7513 160.54 88.4208 161.476 87.9532 162.345C86.9792 164.261 85.8436 165.961 85.412 168.134C84.8675 170.876 84.7457 173.73 84.3315 176.499C84.3311 176.524 84.3257 176.549 84.3158 176.572C84.3058 176.595 84.2914 176.615 84.2734 176.633C84.2553 176.65 84.2341 176.663 84.2108 176.672C84.1876 176.681 84.1628 176.685 84.1379 176.684C84.1131 176.683 84.0886 176.677 84.0661 176.667C84.0435 176.656 84.0232 176.642 84.0064 176.623C83.9897 176.605 83.9767 176.583 83.9684 176.559C83.96 176.536 83.9565 176.511 83.9578 176.486C83.9224 174.067 83.9388 171.645 84.0612 169.229Z" fill="#6640D0"/>
<path d="M43.7363 190.577C43.7363 190.577 65.491 196.588 85.7595 190.13" stroke="#6640D0" stroke-linecap="round" stroke-linejoin="round"/>
<path d="M40.1667 133.739L55.6387 130.996C55.6387 130.996 57.9813 129.544 58.3927 132.368C58.8041 135.191 62.0142 191.503 62.0142 191.503C62.0142 191.503 60.4091 193.439 59.2856 193.439C58.162 193.439 36.8359 192.309 36.8359 192.309L40.1667 133.739Z" fill="#CE4831"/>
<path d="M45.3223 130.364C48.5304 131.925 52.0802 132.643 55.6393 132.449L59.2862 191.341C59.2862 191.341 55.635 190.191 49.6821 192.31L45.3223 130.364Z" fill="#FFEBDD"/>
<g style="mix-blend-mode:multiply" opacity="0.41">
<path d="M53.5586 132.215L55.2594 148.717L54.8428 132.487L53.5586 132.215Z" fill="#E79E82"/>
</g>
<g style="mix-blend-mode:multiply" opacity="0.41">
<path d="M56.6802 190.835L56.1445 171.091L58.4256 191.163L56.6802 190.835Z" fill="#E79E82"/>
</g>
<g style="mix-blend-mode:multiply" opacity="0.41">
<path d="M54.4082 191.164V177.115L55.7143 191.052L54.4082 191.164Z" fill="#E79E82"/>
</g>
<g style="mix-blend-mode:multiply" opacity="0.41">
<path d="M52.3027 132.215L52.8284 143.137L51.0566 132.215H52.3027Z" fill="#E79E82"/>
</g>
<path d="M25.9961 136.232C25.9961 136.232 29.8482 190.446 30.0087 192.059C30.0087 192.059 30.1451 193.673 32.8858 193.996C35.6264 194.318 51.3821 194.641 51.3821 194.641C51.3821 194.641 53.6624 194.802 53.8734 191.575C54.0844 188.348 50.2323 130.437 50.2323 130.437C50.2323 130.437 49.7091 128.175 46.0885 128.982C42.4679 129.788 25.9961 136.232 25.9961 136.232Z" fill="#CE4831"/>
<path d="M24.2949 136.16C24.2949 136.16 28.147 190.373 28.3075 191.987C28.3075 191.987 28.444 193.6 31.1846 193.923C33.9252 194.246 49.6809 194.568 49.6809 194.568C49.6809 194.568 51.9613 194.73 52.1723 191.503C52.3833 188.276 48.5311 130.364 48.5311 130.364C48.5311 130.364 48.6883 128.031 45.8735 128.496C42.2141 129.101 24.2949 136.16 24.2949 136.16Z" fill="#FF6551"/>
<path d="M29.502 143.138V146.89L44.3755 142.602V138.313L29.502 143.138Z" fill="#FF998C"/>
<path d="M12.8425 160.323C12.8425 160.323 18.7579 157.78 22.289 159.555C25.8201 161.33 28.2277 163.717 30.0735 163.814C31.9193 163.911 32.7218 164.073 33.3639 163.105C34.0059 162.137 34.9689 159.313 37.3765 157.457C39.5065 155.933 41.55 154.29 43.4973 152.536C44.84 151.165 45.3215 153.101 44.6795 154.311C43.7697 156.071 42.5913 157.677 41.187 159.071C39.7841 160.281 40.1666 161.168 40.1666 161.168C42.0949 160.657 43.959 159.926 45.7228 158.99C47.8896 157.699 54.2387 154.956 55.6385 155.36C57.0384 155.763 56.3253 156.489 55.6385 156.973C54.9518 157.457 52.2232 158.587 50.3774 159.555C48.5316 160.523 45.0005 163.105 46.2043 162.701C47.4081 162.298 55.9951 158.103 57.5199 158.667C59.0447 159.232 57.0384 160.765 56.0753 161.33C55.1123 161.894 47.4883 165.848 47.4883 165.848C47.4883 165.848 57.3431 160.604 58.0735 161.168C58.804 161.733 58.4027 162.749 56.8779 163.814C55.3531 164.879 48.4513 168.026 47.8896 168.913C47.3278 169.801 56.4766 165.444 57.3594 166.17C58.2421 166.896 52.7047 170.123 50.7787 171.011C48.8526 171.898 45.7228 173.592 43.1547 173.592C40.5866 173.592 32.6416 172.947 32.6416 172.947C32.6416 172.947 21.1888 174.318 16.8552 173.592C12.5215 172.866 10.1942 169.075 10.0337 167.058C9.8732 165.041 10.204 161.64 12.8425 160.323Z" fill="#FFBF94"/>
<g style="mix-blend-mode:multiply" opacity="0.39">
<path d="M44.3748 171.727C40.581 171.213 36.7526 171 32.9255 171.092C29.2874 171.253 22.6532 172.437 16.768 171.092C15.1963 170.706 13.7534 169.912 12.5844 168.787C11.4155 167.663 10.5618 166.249 10.1092 164.688C9.99665 165.472 9.97099 166.267 10.0327 167.058C10.1932 169.075 12.5205 172.867 16.8542 173.593C21.1879 174.319 32.6406 172.947 32.6406 172.947C32.6406 172.947 40.5856 173.593 43.1537 173.593C45.7217 173.593 48.8515 171.898 50.7776 171.011C52.4985 170.218 57.0893 167.562 57.4208 166.487C54.7608 168.052 47.519 172.099 44.3748 171.727Z" fill="#E6A07A"/>
</g>
<g style="mix-blend-mode:multiply" opacity="0.39">
<path d="M27.8014 162.934C25.292 161.764 22.6332 160.951 19.9013 160.517C17.5636 160.177 15.1945 160.112 12.8418 160.322C12.8418 160.322 17.2964 158.444 20.938 159.093C24.5795 159.742 27.8014 162.934 27.8014 162.934Z" fill="#E6A07A"/>
</g>
<path d="M62.6066 25.0732C42.3295 26.8137 34.1365 40.2583 33.2361 55.4055C32.3357 70.5527 37.5507 93.8602 39.9732 96.7695C42.3957 99.6787 57.7683 110.629 65.2194 110.867C72.6705 111.106 90.3558 98.0515 94.215 90.62C98.0741 83.1885 102.951 41.4324 89.577 33.1963C81.4184 28.2314 72.1369 25.436 62.6066 25.0732V25.0732Z" fill="#FFBF94"/>
<g style="mix-blend-mode:multiply" opacity="0.39">
<path d="M88.9845 81.2179C88.9845 81.2179 92.8024 61.7651 83.8755 57.3542C74.9487 52.9433 66.6124 48.4381 63.2554 44.2244C63.2554 44.2244 62.5567 55.0287 49.2428 58.583C35.929 62.1372 38.6176 76.2129 38.913 81.2106C39.2085 86.2084 36.2694 92.3495 34.7453 93.1494C33.2212 93.9493 36.3909 88.2736 36.3386 85.5034C36.2863 82.7332 34.1016 66.6451 34.1016 66.6451L57.5152 35.4082L68.2538 37.3123C68.2538 37.3123 86.7594 47.3101 86.9925 47.5668C87.2256 47.8235 93.5681 58.6289 93.3628 58.9604C93.1575 59.2919 93.9436 72.9501 93.9087 73.2002C93.8739 73.4503 88.95 81.5934 88.95 81.5934L88.9845 81.2179Z" fill="#E6A07A"/>
</g>
<path d="M96.7597 68.3895C96.7597 68.3895 99.5134 65.353 102.146 70.049C104.778 74.7451 100.645 78.2482 99.2426 82.7366C97.8404 87.2249 94.7832 86.4341 94.7832 86.4341C94.7832 86.4341 95.1628 74.174 96.7597 68.3895Z" fill="#FFBF94"/>
<g style="mix-blend-mode:multiply" opacity="0.2">
<path d="M95.7607 74.4225C95.8828 73.6116 96.1764 72.8365 96.6218 72.1493C96.5404 72.1581 96.4597 72.1724 96.3802 72.1921C96.0624 72.2735 95.9787 71.837 96.165 71.6627C96.5703 71.3309 97.0882 71.1705 97.609 71.2154C98.1299 71.2604 98.6129 71.5073 98.9559 71.9038C99.3631 72.3701 99.6415 72.9357 99.7631 73.544C99.8847 74.1524 99.8454 74.7821 99.6491 75.3704C99.2836 76.7955 98.398 78.017 97.8831 79.3862C97.4402 80.9031 96.848 82.3719 96.1153 83.7707C96.0344 83.8693 95.9269 83.9423 95.8056 83.9809C95.6844 84.0194 95.5546 84.0218 95.432 83.9878C95.3094 83.9538 95.1993 83.8849 95.1148 83.7893C95.0304 83.6938 94.9752 83.5757 94.9561 83.4493C94.7941 81.41 94.8536 79.359 95.1338 77.3327C95.282 76.3504 95.4914 75.3785 95.7607 74.4225V74.4225Z" fill="#E6A07A"/>
</g>
<path d="M33.6486 68.6723C33.6486 68.6723 30.5549 65.5706 27.9813 70.7192C25.4077 75.8678 29.9982 79.3972 31.7222 84.118C33.4463 88.8388 37.1182 87.6868 37.1182 87.6868C37.1182 87.6868 35.6459 74.7671 33.6486 68.6723Z" fill="#FFBF94"/>
<g style="mix-blend-mode:multiply" opacity="0.2">
<path d="M28.9401 73.2586C28.9457 75.4203 30.7233 77.1695 31.9267 78.7874C32.6165 79.654 33.1829 80.6129 33.6099 81.6364C33.8576 82.2898 33.9108 83.4559 34.7838 83.6015C35.6273 83.7421 36.0083 82.7964 36.0636 82.1195C36.1042 81.2931 36.0084 80.4655 35.78 79.6705C35.6983 78.7613 35.5223 77.8632 35.2549 76.9908C34.659 75.1095 33.787 73.3037 33.0691 71.4665C32.9677 71.3172 32.8903 71.1528 32.8398 70.9793C32.5021 70.665 32.0736 70.4672 31.6165 70.4145C31.1593 70.3619 30.6974 70.4571 30.2978 70.6864C29.8644 70.955 29.5101 71.335 29.2714 71.7871C29.0328 72.2393 28.9184 72.7472 28.9401 73.2586V73.2586Z" fill="#E6A07A"/>
</g>
<path d="M88.7368 68.7165C88.9658 69.0011 88.5811 69.3464 88.2386 69.1636C86.7956 68.3939 84.8799 68.4523 81.8829 68.0774C79.1045 67.7298 73.5602 68.699 73.6716 65.278C73.7562 62.6785 78.6803 62.3884 83.2518 64.4997C85.3775 65.4642 87.2541 66.9069 88.7368 68.7165V68.7165Z" fill="#662920"/>
<path d="M39.6552 71.6459C39.6308 71.7145 39.6306 71.7894 39.6545 71.8582C39.6785 71.9269 39.7252 71.9853 39.7869 72.0235C39.8485 72.0618 39.9213 72.0777 39.9932 72.0684C40.0651 72.0592 40.1316 72.0255 40.1817 71.9728C41.1734 70.9264 43.7839 69.9436 46.1596 68.9518C48.362 68.0323 54.6332 68.1427 53.8559 64.8085C53.2525 62.2202 46.3174 63.4229 43.0913 66.4221C41.5483 67.8634 40.3702 69.6544 39.6552 71.6459Z" fill="#662920"/>
<g style="mix-blend-mode:multiply" opacity="0.39">
<path d="M61.7425 85.2367C62.5344 84.803 63.4144 84.557 64.3154 84.5175C65.2658 84.4959 66.2112 84.6611 67.0987 85.0037C68.0278 85.2532 68.848 85.8063 69.4298 86.5761C69.4733 86.6504 69.4921 86.7368 69.4835 86.8227C69.4748 86.9085 69.4391 86.9894 69.3816 87.0534C68.9582 87.4939 68.4505 87.3806 67.9163 87.1899C67.0124 86.8016 66.0553 86.5527 65.0775 86.4515C64.3333 86.4028 63.5885 86.5366 62.9071 86.8414C62.1973 87.1826 61.8077 87.9187 60.9819 87.9527C60.7793 87.9559 60.5833 87.8806 60.4345 87.7423C60.2858 87.6041 60.1957 87.4135 60.183 87.2103C60.0705 86.2814 61.0178 85.6374 61.7425 85.2367Z" fill="#E6A07A"/>
</g>
<path d="M57.2051 92.8092C57.2051 92.8092 57.2719 93.4377 57.4777 94.3818C57.8845 96.431 58.6949 98.3776 59.8612 100.107C60.4745 101.042 61.3236 101.797 62.3219 102.294C63.3202 102.791 64.4318 103.012 65.5432 102.936C66.7098 102.844 67.8306 102.44 68.7887 101.765C69.7469 101.089 70.5074 100.168 70.9909 99.0971C71.9211 97.203 72.5024 95.1553 72.7067 93.053C72.8258 92.0043 72.8301 91.3105 72.8301 91.3105C67.9572 93.6346 62.4273 94.165 57.2051 92.8092V92.8092Z" fill="#9F2236"/>
<path d="M60.0163 31.1683C61.0973 32.9766 61.7554 35.0081 61.9409 37.1094C62.1265 39.2107 61.8347 41.327 61.0875 43.2984C59.5443 47.2448 56.7922 50.5955 53.2294 52.8656C49.3023 55.4863 44.6333 57.0229 41.2069 60.277C38.1857 63.1749 36.418 67.1502 36.2851 71.346C36.1878 74.983 37.3356 78.5433 37.5066 82.1775C37.7525 87.4045 35.982 92.4804 34.7824 97.5724C33.5828 102.664 33.0063 108.285 35.4428 112.909C33.8254 110.981 32.6553 108.715 32.0173 106.276C31.3793 103.837 31.2894 101.285 31.7543 98.807C32.3341 96.477 33.0558 94.185 33.9153 91.9439C35.9502 85.7044 36.3084 78.5819 33.2204 72.7957C31.8358 70.2011 29.8279 67.9905 28.3739 65.4346C25.6638 60.4376 24.9319 54.5957 26.3249 49.0793C27.7457 43.5976 30.6845 38.6337 34.8 34.7642C40.5763 29.1796 48.8279 25.5948 56.6612 27.297L60.0163 31.1683Z" fill="#662920"/>
<path d="M48.3047 24.1406C49.8106 28.7389 63.695 41.609 67.6115 44.4259C71.6118 47.2796 75.7658 49.9091 80.0546 52.3022C82.2294 53.3753 84.2414 54.7538 86.03 56.3965C89.7305 60.192 90.4935 66 90.1247 71.3017C89.756 76.6034 88.4612 81.8686 88.846 87.1691C89.2394 92.5893 91.369 97.7352 92.1383 103.114C93.3016 111.249 92.5538 113.573 87.737 120.213C93.1459 114.751 95.0559 113.638 96.4789 106.065C96.9878 103.521 97.208 100.927 97.1353 98.3325C97.018 95.4017 96.4111 92.516 96.0391 89.6067C95.379 84.7725 95.4977 79.8629 96.3906 75.0666C97.5759 69.0106 100.192 63.2438 100.705 57.0934C101.222 50.9109 99.5763 44.7559 97.5673 38.8896C96.5123 35.8088 95.2732 32.6433 92.8774 30.4489C90.8147 28.5597 88.1045 27.5853 85.4716 26.6562C81.3185 25.1908 76.9725 23.7033 72.6101 24.292L48.3047 24.1406Z" fill="#662920"/>
<path d="M57.2051 92.8092C57.2051 92.8092 57.2719 93.4377 57.4777 94.3818C59.5761 95.702 61.9837 96.4428 64.4578 96.5293C68.2246 96.6214 71.3729 94.2426 72.7067 93.053C72.8258 92.0043 72.8301 91.3105 72.8301 91.3105C67.9572 93.6346 62.4273 94.165 57.2051 92.8092V92.8092Z" fill="white"/>
<path d="M59.8633 100.106C60.4765 101.041 61.3257 101.796 62.324 102.293C63.3222 102.79 64.4339 103.011 65.5452 102.935C66.7118 102.843 67.8326 102.439 68.7908 101.764C69.7489 101.088 70.5094 100.167 70.9929 99.0961C70.0646 98.7692 69.0764 98.6503 68.0975 98.748C67.1187 98.8456 66.1729 99.1573 65.3266 99.6613C65.3266 99.6613 63.0461 98.4842 59.8633 100.106Z" fill="#FF6551"/>
<path d="M32.6895 58.3732C33.3118 56.4788 34.3728 54.76 35.7852 53.3584C38.6792 50.4008 42.3929 48.5238 45.7891 46.2388C46.7471 45.5942 47.6692 44.8953 48.5715 44.1746C49.5359 43.4849 50.4035 42.6676 51.1506 41.7448C51.2826 41.561 51.6129 41.7487 51.497 41.9526C50.9493 43.035 50.3011 44.0629 49.5611 45.0227C48.7821 45.9074 47.9156 46.7102 46.975 47.4187C44.9949 48.9717 42.8135 50.2242 40.7626 51.6759C38.6652 53.0397 36.8645 54.8167 35.4692 56.8996C34.1343 58.9353 33.567 61.3835 33.8695 63.8027C33.8819 63.9254 33.8503 64.0486 33.7805 64.1501C33.7107 64.2515 33.6072 64.3247 33.4886 64.3564C33.37 64.3881 33.244 64.3763 33.1333 64.323C33.0225 64.2698 32.9343 64.1787 32.8844 64.0659C32.5254 63.2033 32.3178 62.2847 32.2708 61.3509C32.2543 60.3424 32.3956 59.3376 32.6895 58.3732Z" fill="#7A332D"/>
<path d="M28.6882 63.6795C28.6925 63.6543 28.7056 63.6315 28.7251 63.6151C28.7446 63.5987 28.7693 63.5897 28.7947 63.5898C28.8201 63.59 28.8447 63.5991 28.864 63.6157C28.8834 63.6323 28.8963 63.6553 28.9004 63.6805C29.3627 65.1322 30.1229 66.4702 31.1318 67.6081C32.1112 68.7887 33.0119 70.0331 33.828 71.3331C35.4301 74.4359 36.2273 77.895 36.1458 81.39C36.1774 85.1647 35.4831 88.91 34.1011 92.4199C32.8426 95.6728 31.591 98.8238 31.7571 102.38C32.019 105.985 33.2473 109.451 35.3117 112.409C35.5831 112.819 35.053 113.441 34.6588 113.051C32.4087 110.752 30.9254 107.805 30.4143 104.621C29.8378 101.269 30.1424 97.8249 31.298 94.6284C31.9217 92.771 32.6651 90.956 33.2115 89.0722C33.7285 87.2633 34.051 85.4039 34.1736 83.5258C34.5073 79.831 33.8884 76.112 32.3768 72.7274C31.6064 71.1457 30.4769 69.7555 29.5952 68.2354C28.7492 66.8792 28.4266 65.2585 28.6882 63.6795V63.6795Z" fill="#7A332D"/>
<path d="M20.4916 56.6359C22.4043 52.17 25.3529 48.2294 29.091 45.1438C30.9929 43.5942 33.1244 42.3534 35.408 41.4663C37.956 40.4901 40.5967 39.8381 43.0071 38.5199C45.3216 37.2266 47.416 35.5704 49.2112 33.6136C51.0835 31.6119 52.7032 29.3858 54.0336 26.9856C54.1758 26.7283 54.6249 26.8018 54.5649 27.1356C54.3874 28.3054 54.0795 29.4514 53.6469 30.552C53.1922 31.652 52.6414 32.7093 52.0007 33.7114C50.6605 35.7426 48.9973 37.5386 47.0776 39.0276C45.1389 40.5499 42.9709 41.7515 40.6555 42.5869C38.1391 43.3692 35.6913 44.359 33.3371 45.5463C24.7213 50.4238 20.2773 60.2787 19.6744 69.8746C19.2685 76.3341 20.4037 82.8328 21.9023 89.0924C22.0456 89.6905 21.0901 89.9265 20.8761 89.3666C16.9214 79.0206 15.9669 66.9725 20.4916 56.6359Z" fill="#7A332D"/>
<path d="M30.0845 31.804C31.0956 29.7838 32.5898 28.0476 34.4331 26.7512C38.0377 24.1168 42.2859 23.1525 46.4121 21.6986C48.3017 21.0327 50.7023 20.1517 51.8747 18.4115C52.1838 17.9525 52.9788 18.418 52.7134 18.9148C52.3278 19.7352 51.8368 20.5012 51.2529 21.1932C50.6352 21.8551 49.9301 22.4287 49.1572 22.8977C47.4492 23.877 45.6429 24.6717 43.7684 25.2685C39.8314 26.6789 35.93 28.4654 33.2455 31.8021C32.5039 32.6624 31.9027 33.6354 31.4642 34.6849C31.2367 35.197 31.0415 35.7229 30.8797 36.2597C30.7957 36.8555 30.6677 37.4442 30.4966 38.0208C30.4403 38.1422 30.3505 38.2447 30.2378 38.3161C30.1252 38.3875 29.9945 38.4248 29.8613 38.4236C29.7281 38.4224 29.5981 38.3826 29.4868 38.3091C29.3755 38.2356 29.2875 38.1315 29.2335 38.0091C28.9134 36.985 28.8704 35.8937 29.1089 34.8474C29.2611 33.7849 29.591 32.7559 30.0845 31.804V31.804Z" fill="#7A332D"/>
<path d="M84.0337 54.1253C85.8985 54.9264 87.4952 56.2491 88.6339 57.936C89.9459 59.6533 90.8886 61.626 91.4021 63.7289C91.9835 66.0856 92.1547 68.5257 91.9084 70.9412C91.6616 73.5088 90.8601 75.9464 90.4288 78.4781C90.065 81.1634 90.0029 83.8814 90.2438 86.5806C90.3179 89.084 90.5689 91.5789 90.9949 94.0466C91.485 96.5143 92.5932 98.7676 93.2529 101.183C93.8313 103.314 94.0771 105.521 93.9815 107.728C93.8878 109.83 93.4782 111.907 92.7667 113.886C93.4464 112.624 94.0402 111.317 94.5438 109.973C95.8917 106.355 96.603 102.528 96.6461 98.6649C96.6647 97.5363 96.5833 96.4161 96.4979 95.2919C96.3402 94.268 96.2884 93.2305 96.3432 92.1959C96.3451 92.1844 96.3503 92.1737 96.3581 92.1651C96.3659 92.1565 96.376 92.1504 96.3872 92.1475C96.3984 92.1446 96.4102 92.145 96.4212 92.1486C96.4322 92.1523 96.4419 92.1592 96.4491 92.1683C97.498 93.6394 97.6527 95.9051 97.7953 97.6491C97.9575 99.6789 97.892 101.721 97.6001 103.736C97.0415 107.709 95.6784 111.525 93.5948 114.948C92.4397 116.842 91.1018 118.882 89.1662 120.037C89.1332 120.055 89.0956 120.061 89.0585 120.057C89.0215 120.052 88.9868 120.036 88.9591 120.011C88.723 120.25 88.4791 120.485 88.2274 120.716C87.9159 121 87.5213 120.527 87.7373 120.212C90.1245 116.775 91.6027 112.784 92.0328 108.615C92.2213 106.514 92.0686 104.397 91.5809 102.346C91.0427 100.078 89.9786 97.9772 89.3865 95.7235C88.8246 93.3846 88.4895 90.9964 88.3859 88.5926C88.1738 86.074 88.0977 83.5458 88.1578 81.019C88.388 78.5205 88.821 76.0451 89.4524 73.6175C89.9505 71.2886 90.1167 68.9002 89.946 66.5243C89.7491 64.1366 89.1172 61.8057 88.0818 59.6478C86.9863 57.6482 85.5711 55.8433 83.8929 54.3053C83.8037 54.2128 83.9352 54.0902 84.0337 54.1253Z" fill="#7A332D"/>
<path d="M63.4653 27.4107C63.8044 28.1661 64.2715 28.8342 64.6468 29.5656C65.0558 30.3625 65.4827 31.1492 65.9618 31.9062C66.8783 33.3484 67.9183 34.7074 69.07 35.9677C71.5096 38.5631 74.3093 40.7907 77.3824 42.5817C80.9311 44.6255 84.5877 46.474 88.336 48.119C91.7106 49.5691 94.9764 51.2624 98.1081 53.1858C101.313 55.2692 104.138 57.9624 105.466 61.633C105.648 62.1368 104.942 62.6035 104.621 62.117C100.623 56.0464 93.7917 53.0947 87.4426 50.1959C80.3877 46.9749 73.1834 43.5944 67.9586 37.6518C66.6735 36.2087 65.5646 34.6164 64.6555 32.9087C64.2241 32.0945 63.8552 31.2483 63.552 30.3776C63.2811 29.4473 63.1108 28.4903 63.0441 27.5232C63.0389 27.4708 63.0524 27.4182 63.0823 27.3749C63.1121 27.3315 63.1563 27.3003 63.207 27.2867C63.2577 27.2732 63.3115 27.2782 63.3588 27.3009C63.4062 27.3237 63.4439 27.3626 63.4653 27.4107V27.4107Z" fill="#7A332D"/>
<path d="M68.6269 21.5756C69.6212 22.5948 70.4943 23.7241 71.5048 24.7308C72.532 25.7688 73.6629 26.6977 74.8796 27.5026C77.4143 29.0841 80.067 30.4661 82.8138 31.6362C85.923 33.0245 89.1062 34.2301 92.1603 35.7424C95.0093 37.113 97.7027 38.789 100.194 40.7414C104.745 44.4607 108.435 49.1332 111.006 54.4331C113.577 59.7329 114.967 65.5327 115.079 71.4281C115.174 75.1064 114.719 78.7781 113.73 82.3209C112.651 85.8377 111.131 89.2025 109.209 92.3347C109.127 92.4745 108.902 92.3899 108.971 92.2313C109.663 90.7125 110.212 89.1313 110.608 87.5088C110.956 85.9801 111.335 84.458 111.62 82.9153C112.196 79.8144 112.503 76.6691 112.538 73.5149C112.592 67.5803 111.291 61.7124 108.736 56.3622C106.411 51.5024 103.08 47.1988 98.9639 43.7403C94.1334 39.6845 88.2691 37.431 82.6643 34.7026C79.5665 33.2986 76.6646 31.4934 74.0325 29.3328C71.7287 27.3357 69.0081 25.0066 68.0862 21.9856C67.997 21.6928 68.3542 21.2962 68.6269 21.5756Z" fill="#7A332D"/>
<path d="M70.0964 15.9633C70.7286 16.4255 71.4518 16.6151 72.085 17.0741C72.6945 17.5158 73.3202 17.9343 73.9619 18.3295C75.2003 19.0903 76.4881 19.7665 77.8166 20.3537C80.555 21.5023 83.3906 22.4008 86.2891 23.0386C89.3577 23.7236 92.25 25.0459 94.7804 26.9206C97.046 28.6496 99.1459 30.5877 101.053 32.7097C102.132 33.821 103.066 35.0655 103.834 36.4134C104.511 37.7466 105.008 39.165 105.311 40.6307C105.387 40.975 104.875 41.0785 104.739 40.7834C104.141 39.5368 103.4 38.3648 102.532 37.2912C101.714 36.2488 100.932 35.1914 100.029 34.2191C98.0963 32.1882 95.9536 30.3701 93.6374 28.7954C91.1343 27.1626 88.3453 26.0229 85.4189 25.437C82.5028 24.844 79.6743 23.8779 77.0025 22.5622C75.5925 21.8165 74.2441 20.9589 72.9699 19.9975C72.3062 19.4922 71.6635 18.9606 71.0418 18.4028C70.5054 17.7997 70.0114 17.1596 69.5634 16.4874C69.2772 16.1508 69.7622 15.7189 70.0964 15.9633Z" fill="#7A332D"/>
<path d="M52.4746 84.559C55.0705 82.5906 55.5876 78.8795 53.6296 76.2699C51.6715 73.6603 47.9798 73.1405 45.3839 75.1088C42.788 77.0772 42.2709 80.7883 44.2289 83.3979C46.187 86.0075 49.8787 86.5273 52.4746 84.559Z" fill="white"/>
<path d="M53.5346 81.443C54.4816 78.9958 53.2758 76.2401 50.8413 75.2881C48.4069 74.3361 45.6656 75.5483 44.7186 77.9956C43.7716 80.4428 44.9774 83.1985 47.4119 84.1505C49.8464 85.1025 52.5876 83.8903 53.5346 81.443Z" fill="black"/>
<path d="M52.0645 78.8714C52.263 79.1075 52.3874 79.3975 52.422 79.7046C52.4566 80.0118 52.3998 80.3224 52.2587 80.5971C52.1177 80.8718 51.8988 81.0983 51.6298 81.248C51.3607 81.3976 51.0535 81.4637 50.7471 81.4379C50.4407 81.412 50.1487 81.2954 49.9082 81.1028C49.6677 80.9102 49.4894 80.6502 49.3959 80.3557C49.3024 80.0612 49.2978 79.7455 49.3828 79.4484C49.4678 79.1513 49.6385 78.8862 49.8734 78.6867C50.0293 78.5542 50.2097 78.4538 50.4042 78.3914C50.5987 78.329 50.8035 78.3057 51.007 78.3229C51.2105 78.34 51.4086 78.3973 51.59 78.4914C51.7715 78.5855 51.9327 78.7147 52.0645 78.8714V78.8714Z" fill="white"/>
<path d="M82.0903 85.324C85.3079 84.8533 87.5368 81.8495 87.0685 78.6149C86.6002 75.3803 83.6121 73.1398 80.3944 73.6105C77.1768 74.0813 74.948 77.0851 75.4163 80.3197C75.8846 83.5543 78.8726 85.7948 82.0903 85.324Z" fill="white"/>
<path d="M83.7483 83.1724C85.922 81.7161 86.5096 78.7641 85.0609 76.5791C83.6122 74.394 80.6757 73.8032 78.5021 75.2596C76.3285 76.7159 75.7408 79.6678 77.1895 81.8529C78.6382 84.038 81.5747 84.6287 83.7483 83.1724Z" fill="black"/>
<path d="M77.9587 79.8097C78.0355 80.0801 78.1903 80.3216 78.4037 80.5036C78.617 80.6856 78.8793 80.7999 79.1572 80.832C79.4352 80.8642 79.7164 80.8128 79.9653 80.6843C80.2142 80.5558 80.4196 80.356 80.5555 80.1101C80.6915 79.8643 80.7518 79.5834 80.729 79.3031C80.7061 79.0227 80.6011 78.7555 80.4272 78.5352C80.2532 78.3149 80.0182 78.1513 79.7518 78.0653C79.4854 77.9792 79.1997 77.9745 78.9306 78.0517C78.5698 78.1553 78.2647 78.3987 78.0825 78.7283C77.9002 79.058 77.8557 79.447 77.9587 79.8097Z" fill="white"/>
</svg>
