<svg width="145" height="370" viewBox="0 0 145 370" fill="none" xmlns="http://www.w3.org/2000/svg">
<path d="M90.9043 327.669C90.6832 328.656 90.4263 329.636 90.1335 330.61C89.1802 333.633 88.023 336.588 86.6698 339.454C85.1099 342.872 80.7649 353.012 79.337 354.126C78.7178 354.648 77.9387 354.942 77.1296 354.958C76.3205 354.974 75.5303 354.712 74.8907 354.215C74.771 346.89 73.6256 337.609 73.687 330.284C73.6932 329.61 73.6164 328.022 73.4936 325.967C73.3953 324.364 73.2725 322.475 73.1404 320.516C73.1283 320.335 73.0474 320.166 72.9144 320.043C72.7813 319.92 72.6064 319.853 72.4255 319.856C72.2447 319.859 72.0718 319.931 71.9426 320.058C71.8134 320.185 71.7376 320.356 71.731 320.537C71.6696 322.275 71.6143 324.026 71.5744 325.666C71.5099 328.296 71.4822 330.637 71.5253 332.175C71.6635 337.15 70.6594 344.238 70.6594 349.219C70.6594 350.241 70.7576 351.197 70.8129 352.209C70.819 352.333 70.859 352.6 70.8866 352.902V352.908C70.9352 353.27 70.9248 353.638 70.8559 353.997C70.8373 354.083 70.7896 354.16 70.7208 354.215C70.0806 354.712 69.2899 354.974 68.4803 354.958C67.6707 354.942 66.8911 354.648 66.2713 354.126C64.8466 353.012 60.5015 342.872 58.9417 339.454C57.6274 336.67 56.497 333.801 55.5578 330.868C55.5301 330.782 55.5025 330.696 55.4779 330.61C53.5507 323.919 53.0588 316.895 54.0347 310C54.2528 308.302 54.5424 306.612 54.9037 304.93C54.9805 304.57 55.0603 304.21 55.1463 303.85C55.3275 303.066 55.521 302.284 55.7328 301.506C55.9754 300.608 56.2333 299.713 56.5128 298.823C56.7461 298.073 56.9949 297.325 57.2528 296.581L67.9971 294.969L79.2603 295.218L88.3587 296.581C88.9299 298.227 89.4437 299.893 89.9001 301.58C90.1765 302.617 90.4294 303.66 90.6586 304.709C91.0301 306.416 91.3311 308.139 91.5583 309.865C92.393 315.792 92.1715 321.819 90.9043 327.669V327.669Z" fill="#2435A1"/>
<g style="mix-blend-mode:multiply" opacity="0.4">
<path d="M70.6602 349.219C70.6602 350.241 70.7584 351.198 70.8137 352.21C70.8198 352.333 70.8598 352.6 70.8874 352.902V352.908C70.8751 353.277 70.8628 353.64 70.8567 353.997C70.8381 354.083 70.7904 354.161 70.7216 354.216C70.0814 354.712 69.2907 354.975 68.4811 354.958C67.6716 354.942 66.8919 354.649 66.2721 354.127C64.8474 353.013 60.5024 342.873 58.9425 339.455C57.6282 336.67 56.4978 333.802 55.5586 330.868C56.6181 332.145 57.9522 333.164 59.4608 333.851C60.9694 334.538 62.6135 334.874 64.2701 334.834C68.1944 334.751 70.4422 329.561 71.5752 325.666C71.5107 328.296 71.4831 330.638 71.5261 332.176C71.6643 337.15 70.6602 344.239 70.6602 349.219Z" fill="#30A2BE"/>
</g>
<path d="M70.9276 348.114C70.959 347.776 70.8794 347.181 69.9484 347.846C69.0175 348.512 64.248 349.077 62.6473 347.781C61.6448 346.969 62.8559 349.724 63.9013 351.897L63.9033 351.901L63.9099 351.915C64.0546 352.216 66.0412 356.494 62.3239 357.416C59.012 358.238 67.921 358.608 67.921 358.608L69.8101 358.047L70.5699 355.934L70.1769 354.67C70.2263 354.513 70.2657 354.352 70.2948 354.189C70.6313 352.322 70.896 348.451 70.9276 348.114Z" fill="#FF6551"/>
<path d="M70.2972 358.932C70.1266 359.447 69.8059 359.899 69.3765 360.23C68.9471 360.56 68.4288 360.755 67.8882 360.788C65.2443 360.95 59.6926 361.212 57.7146 360.69C55.0801 359.996 55.4918 355.829 58.7848 354.638C62.0778 353.447 66.9589 355.085 68.2524 356.027C68.3569 356.115 68.4853 356.171 68.6213 356.186C68.7572 356.201 68.8946 356.175 69.0159 356.112C69.2963 355.92 69.5146 355.649 69.6441 355.334C69.854 354.894 70.0192 354.434 70.1372 353.961C70.2851 353.4 70.4048 352.832 70.4958 352.258C70.5917 351.673 70.6665 351.085 70.7203 350.494C70.7681 349.976 70.8019 349.455 70.8111 348.935C70.8149 348.715 70.8127 348.496 70.803 348.277C70.7998 348.202 70.7214 347.715 70.817 347.703C70.8973 347.694 70.9368 347.886 70.9387 347.926C70.9617 348.413 70.9832 348.9 70.9979 349.387C71.0144 349.929 71.0248 350.471 71.0293 351.013C71.0344 351.657 71.0301 352.302 71.0162 352.946C71.0006 353.629 70.9727 354.312 70.926 354.993C70.881 355.651 70.8192 356.308 70.7261 356.96C70.6503 357.531 70.5359 358.096 70.3835 358.651C70.3565 358.745 70.3278 358.839 70.2972 358.932Z" fill="#F37A7C"/>
<g style="mix-blend-mode:multiply" opacity="0.4">
<path d="M90.9048 327.668C90.6837 328.656 90.4268 329.636 90.1341 330.609C89.1808 333.633 88.0235 336.588 86.6704 339.454C85.1105 342.872 80.7655 353.012 79.3376 354.126C78.7184 354.648 77.9392 354.942 77.1301 354.958C76.321 354.974 75.5308 354.712 74.8913 354.215C74.7715 346.89 73.6262 337.608 73.6876 330.283C73.6937 329.609 73.6169 328.022 73.4941 325.967C74.5781 330.062 76.8657 335.692 81.2568 336.113C85.2118 336.495 88.6602 331.797 90.9048 327.668Z" fill="#30A2BE"/>
</g>
<path d="M74.6987 348.114C74.6673 347.776 74.7469 347.181 75.6779 347.846C76.6088 348.512 81.3782 349.077 82.979 347.781C83.9816 346.969 82.7703 349.724 81.725 351.897L81.7229 351.901L81.7163 351.915C81.5716 352.216 79.585 356.494 83.3023 357.416C86.6141 358.238 77.7051 358.608 77.7051 358.608L75.8161 358.047L75.0563 355.934L75.4493 354.67C75.3999 354.513 75.3605 354.352 75.3314 354.189C74.995 352.322 74.7302 348.451 74.6987 348.114Z" fill="#FF6551"/>
<path d="M75.3278 358.932C75.4985 359.447 75.8192 359.899 76.2485 360.23C76.6779 360.56 77.1963 360.755 77.7369 360.788C80.3807 360.95 85.9325 361.212 87.9106 360.69C90.545 359.996 90.1334 355.829 86.8403 354.638C83.5472 353.447 78.6662 355.085 77.3728 356.027C77.2682 356.115 77.1398 356.171 77.0039 356.186C76.8679 356.201 76.7305 356.175 76.6092 356.112C76.3288 355.92 76.1105 355.649 75.9811 355.334C75.7711 354.894 75.6059 354.434 75.4879 353.961C75.34 353.4 75.2203 352.832 75.1294 352.258C75.0334 351.673 74.9586 351.085 74.9049 350.494C74.857 349.976 74.8232 349.455 74.814 348.935C74.8102 348.715 74.8125 348.496 74.8221 348.277C74.8253 348.202 74.9037 347.715 74.8082 347.703C74.7278 347.694 74.6883 347.886 74.6865 347.926C74.6634 348.413 74.6419 348.9 74.6272 349.387C74.6108 349.929 74.6003 350.471 74.5959 351.013C74.5907 351.657 74.595 352.302 74.609 352.946C74.6245 353.629 74.6525 354.312 74.6991 354.993C74.7441 355.651 74.806 356.308 74.8992 356.96C74.9749 357.531 75.0893 358.096 75.2416 358.651C75.2685 358.745 75.2973 358.839 75.3278 358.932Z" fill="#F37A7C"/>
<path d="M94.0307 264.478C94.491 268.029 94.493 271.625 94.0369 275.178L94.0338 275.19C94.0215 275.307 94.0062 275.424 93.9939 275.544C93.1077 282.611 91.7588 289.613 89.956 296.504C89.8055 297.064 89.654 297.601 89.5015 298.116L89.4984 298.128C89.3787 298.54 89.2589 298.937 89.1392 299.316C86.1732 300.112 83.1628 300.733 80.1237 301.174C64.5892 303.407 56.323 299.337 56.323 299.337C55.5216 295.476 53.8757 281.34 53.2124 275.473C53.0312 273.898 52.9238 272.916 52.9207 272.895C52.3065 265.336 54.7181 258.496 61.0898 257.967C61.6702 257.917 81.1836 257.399 82.947 257.672C93.766 259.347 94.0307 264.478 94.0307 264.478Z" fill="#FF6551"/>
<path d="M84.0492 261.17L83.2969 257.717C83.2969 257.717 101.046 259.28 108.393 281.056C108.632 281.946 108.589 282.89 108.27 283.755C107.95 284.62 107.37 285.365 106.611 285.885C105.851 286.406 104.948 286.678 104.027 286.662C103.107 286.646 102.214 286.345 101.472 285.799C99.1367 284.328 95.9074 278.716 93.5135 276.633C88.092 271.916 83.9514 267.325 84.0492 261.17Z" fill="#FF6551"/>
<path d="M108.275 280.801C108.969 281.417 108.768 293.134 93.9022 301.12C92.2574 299.86 91.1048 298.062 90.6445 296.04C90.6445 296.04 97.5488 284.615 100.423 283.345C102.984 282.331 105.606 281.481 108.275 280.801V280.801Z" fill="#FF6551"/>
<path d="M64.1797 257.903C65.2718 259.386 66.7138 260.574 68.3766 261.362C70.0394 262.149 71.8712 262.511 73.708 262.416C75.502 262.357 77.2608 261.901 78.8582 261.081C80.4557 260.261 81.8522 259.097 82.9476 257.672C82.3657 257.358 81.7595 257.092 81.1348 256.876C79.0867 256.7 68.4897 256.449 66.159 256.68C65.6278 256.732 64.3669 257.875 64.1797 257.903Z" fill="#DF4C4B"/>
<path d="M94.0312 275.106C94.0219 275.217 94.0097 275.331 93.9944 275.445C93.1102 282.545 91.7613 289.58 89.9564 296.503C89.8029 297.06 89.6514 297.597 89.502 298.115L89.4989 298.128C89.3791 298.537 89.2594 298.928 89.1397 299.306C86.1725 300.1 83.1624 300.724 80.1242 301.173C64.5896 303.407 56.3235 299.337 56.3235 299.337C55.522 295.476 53.8762 281.339 53.2129 275.473C54.5947 279.478 60.1649 292.768 73.467 293.421C88.7835 294.171 93.8101 275.943 94.0312 275.106Z" fill="#DF4C4B"/>
<path d="M91.2576 296.534C91.0367 296.27 90.7496 296.068 90.4258 295.951C90.2032 295.882 89.014 295.738 86.162 296.559C85.6589 296.704 83.7463 297.661 83.9775 298.821C84.1444 299.66 86.3009 299.001 87.0756 298.932C86.4167 299.043 83.0649 299.862 83.2966 301.119C83.5277 302.372 87.245 301.218 87.245 301.218C87.245 301.218 84.2669 302.005 84.2985 303.153C84.33 304.302 88.5977 303.276 88.5977 303.276C88.5977 303.276 86.0942 303.877 86.4771 305.016C86.6584 305.555 88.4883 305.411 88.8846 305.361C89.5136 305.292 90.1282 305.126 90.7072 304.87C91.9358 304.278 92.8992 303.248 93.4086 301.981C93.5224 301.682 93.6798 301.402 93.8757 301.15L93.9008 301.119C94.2417 300.696 93.4436 299.584 93.2464 299.266C92.7537 298.486 92.2206 297.733 91.6494 297.009C91.526 296.85 91.397 296.686 91.2576 296.534Z" fill="#FFBF94"/>
<path d="M39.9026 263.518L40.7396 263.028C41.31 262.44 41.6879 261.691 41.8228 260.882C41.9576 260.073 41.8431 259.242 41.4944 258.5C40.2818 255.844 41.8324 255.129 42.01 254.24C42.1875 253.351 40.8696 252.745 39.7847 253.818C39.3376 254.3 39.068 254.921 39.0203 255.578C38.9907 255.84 38.5265 255.952 38.3508 255.345C37.687 253.051 37.6213 248.747 36.1353 248.659C34.6035 248.568 35.4557 250.464 36.5091 255.308C36.1654 255.636 33.4608 247.616 32.1218 248.308C30.7342 249.025 34.8479 256.573 34.4822 256.572C34.3637 256.652 30.7079 250.205 29.882 250.855C29.0853 251.482 30.8813 254.245 32.7087 258.243C32.4692 258.348 28.8371 254.535 28.3727 256.1C28.1667 256.795 31.3763 259.032 32.9682 261.72C34.4963 264.3 35.8732 265.219 37.0136 264.817C37.9983 264.434 38.9626 264.001 39.9026 263.518V263.518Z" fill="#FFBF94"/>
<path d="M57.8051 259.58C58.1036 259.637 58.3958 259.722 58.6776 259.835C59.314 260.095 59.8836 260.495 60.344 261.007C60.8044 261.518 61.1438 262.126 61.3369 262.787C62.0216 265.199 60.6408 267.665 59.3149 269.792C55.1283 276.508 49.5448 284.209 41.5021 286.673C38.4609 287.608 34.5989 285.119 36.7323 280.347C37.8596 277.825 42.9561 273.838 44.6807 271.172C46.5509 268.227 48.7214 265.485 51.1575 262.99C52.931 261.206 55.1598 259.087 57.8051 259.58Z" fill="#FF6551"/>
<path d="M39.6514 286.66C35.4981 286.752 34.4388 280.801 34.1445 278.67C33.4232 273.448 34.2173 263.344 34.2173 263.344C35.1951 263.778 36.2544 263.998 37.3241 263.989C38.3937 263.98 39.4491 263.741 40.4192 263.29C41.1819 265.929 41.8487 268.603 42.4094 271.292C42.7938 273.136 43.1876 275.059 43.4424 276.907C43.8176 279.975 43.139 283.079 41.5182 285.709C41.329 286 41.0717 286.239 40.7689 286.407C40.466 286.575 40.1267 286.665 39.7807 286.671C39.7375 286.669 39.6947 286.659 39.6514 286.66Z" fill="#FF6551"/>
<path d="M81.0991 257.666C81.0991 257.666 79.3048 260.396 73.3942 259.646C67.4819 258.895 66.16 256.679 66.16 256.679L66.1576 254.436L66.1558 254.436L66.1523 251.222L80.1444 250.073L81.4585 249.965L81.421 250.787L81.2207 255.049L81.0991 257.666Z" fill="#EA9573"/>
<g style="mix-blend-mode:multiply" opacity="0.31">
<path d="M81.2207 255.049C79.3457 256.308 76.942 257.543 74.8087 257.464C70.5816 257.308 66.2662 254.507 66.1576 254.437L66.1558 254.436L66.1523 251.222L80.1444 250.073L81.421 250.788L81.2207 255.049Z" fill="#DD7258"/>
</g>
<path d="M108.096 215.079C108.096 215.079 113.67 212.46 116.778 216.404C119.886 220.347 114.958 230.354 111.188 231.335C107.419 232.315 105.945 231.328 105.945 231.328L108.096 215.079Z" fill="#FFBF94"/>
<path d="M38.3015 214.989C38.3015 214.989 32.7341 212.355 29.616 216.291C26.4979 220.226 31.4003 230.246 35.1675 231.236C38.9347 232.226 40.4106 231.243 40.4106 231.243L38.3015 214.989Z" fill="#FFBF94"/>
<path d="M110.735 200.118C110.735 200.118 109.696 214.799 108.076 226.614L108.075 226.619V226.622L108.068 226.672C107.825 228.444 107.569 230.153 107.301 231.736L107.296 231.768C106.492 236.504 105.587 240.116 104.62 241.011C101.176 244.199 81.5004 254.782 73.8002 254.268C66.1001 253.754 45.7958 243.972 42.5235 240.438C41.4763 239.307 40.3492 235.329 39.3004 230.44C37.0707 220.055 35.1953 205.565 35.1953 205.565C36.0453 181.705 49.3272 173.655 75.0521 172.848C100.777 172.041 110.735 200.118 110.735 200.118Z" fill="#FFBF94"/>
<g opacity="0.27">
<path opacity="0.27" d="M91.7166 181.136C91.7166 181.136 88.6444 164.867 71.3088 165.087C64.021 165.225 56.8547 166.984 50.3276 170.234C43.8004 173.485 38.0752 178.147 33.5654 183.885C29.2083 189.542 27.2464 196.689 28.103 203.783C28.9597 210.877 32.5663 217.349 38.1443 221.802C38.1443 221.802 42.1272 214.406 46.0771 208.613C46.0771 208.613 68.2367 218.308 89.0833 200.162C89.0833 200.162 94.7887 191.257 91.7166 181.136Z" fill="#DA8966"/>
<path opacity="0.27" d="M87.9861 190.862C87.9861 190.862 87.3277 201.221 94.1303 207.448C100.933 213.674 106.199 214.334 106.199 214.334C106.199 214.334 109.93 221.374 107.297 228.844C107.297 228.844 116.798 219.902 115.262 201.357C113.725 182.811 104.848 176.739 87.9688 176.959L87.9861 190.862Z" fill="#DA8966"/>
</g>
<path d="M87.3457 209.16C87.6297 209.603 88.1229 209.556 88.6026 209.606C89.1594 209.664 89.7111 209.666 90.2699 209.679C91.3536 209.679 92.428 209.879 93.4399 210.267C94.3511 210.689 95.21 211.215 95.9991 211.837C96.386 212.142 96.7904 212.425 97.2102 212.683C97.4494 212.827 97.7025 212.946 97.9656 213.04C98.2177 213.114 98.4695 213.07 98.716 213.16C99.0116 213.269 99.1943 212.912 99.0867 212.678C98.9685 212.421 98.9989 212.125 98.868 211.867C98.7149 211.583 98.5313 211.317 98.3205 211.073C97.9249 210.62 97.4828 210.208 97.0016 209.847C96.0283 209.08 94.9265 208.493 93.7476 208.113C92.5048 207.747 91.1987 207.648 89.9151 207.824C89.5134 207.869 86.7742 208.268 87.3457 209.16V209.16Z" fill="#5F130F"/>
<g style="mix-blend-mode:multiply" opacity="0.44">
<path d="M37.9511 227.452C35.8277 226.412 34.1742 224.607 33.3207 222.399C32.9916 221.431 33.0763 219.875 34.3627 219.707C35.4254 219.568 35.8587 220.951 36.3341 221.659C36.5822 222.029 37.2569 221.812 37.0949 221.339C36.6616 220.075 36.2473 218.483 34.6727 218.291C33.9159 218.257 33.1763 218.523 32.6143 219.032C32.0522 219.541 31.7131 220.252 31.6705 221.009C31.4608 222.831 32.5605 224.537 33.5945 225.936C34.6604 227.378 35.9689 228.563 37.8548 228.183C37.9294 228.161 37.996 228.118 38.0465 228.058C38.097 227.999 38.1293 227.926 38.1395 227.849C38.1497 227.772 38.1373 227.693 38.1039 227.623C38.0705 227.552 38.0174 227.493 37.9511 227.452V227.452Z" fill="#DA8966"/>
</g>
<g style="mix-blend-mode:multiply" opacity="0.44">
<path d="M115.249 220.972C115.156 219.592 114.017 218.359 112.572 218.935C111.595 219.325 110.021 221.221 111.088 222.197C111.115 222.224 111.148 222.243 111.184 222.255C111.22 222.267 111.258 222.271 111.295 222.266C111.333 222.261 111.369 222.248 111.401 222.228C111.433 222.207 111.46 222.18 111.48 222.147C112.014 221.434 112.083 220.269 113.12 220.001C114.541 219.634 114.073 222.041 113.915 222.73C113.745 223.586 113.39 224.395 112.875 225.099C112.266 225.745 111.515 226.239 110.682 226.541C110.643 226.565 110.61 226.597 110.585 226.635C110.56 226.673 110.544 226.717 110.538 226.762C110.532 226.807 110.536 226.854 110.551 226.897C110.565 226.94 110.589 226.98 110.621 227.013C111.749 228.256 113.396 226.589 114.029 225.59C114.88 224.204 115.304 222.598 115.249 220.972V220.972Z" fill="#DA8966"/>
</g>
<path d="M55.644 209.865C54.8827 209.052 53.3725 209.352 52.3912 209.489C51.276 209.658 50.1909 209.987 49.1696 210.466C48.1781 210.921 47.2475 211.498 46.3999 212.185C45.6673 212.772 44.4458 213.838 44.7484 214.895C44.7926 215.04 44.8811 215.168 45.0015 215.26C45.1218 215.352 45.2679 215.404 45.4192 215.408C46.3085 215.507 47.2033 214.407 47.8562 213.919C48.5962 213.36 49.3992 212.889 50.2488 212.518C51.073 212.177 51.9279 211.915 52.8017 211.736C53.709 211.539 54.9324 211.691 55.6425 211.026C55.7933 210.871 55.8777 210.662 55.878 210.446C55.8783 210.229 55.7944 210.021 55.644 209.865V209.865Z" fill="#5F130F"/>
<path d="M83.2485 238.224C82.7319 240.231 81.7919 242.103 80.4918 243.715C79.5808 244.812 78.4381 245.693 77.1461 246.295C75.8541 246.896 74.4451 247.203 73.0205 247.193C71.4266 247.269 69.8402 246.932 68.4139 246.215C66.9877 245.498 65.7696 244.426 64.8769 243.101C63.8119 241.553 63.0301 239.828 62.5683 238.006C62.4995 237.757 62.5222 237.493 62.6323 237.26C62.7451 237.012 62.9449 236.814 63.1937 236.704C63.4425 236.594 63.7229 236.579 63.9818 236.663L64.3508 236.781C69.9937 238.599 76.0648 238.589 81.7018 236.753C81.8253 236.713 81.9543 236.692 82.0842 236.691C82.337 236.693 82.583 236.773 82.788 236.922C82.9929 237.07 83.1466 237.279 83.2277 237.519C83.3066 237.746 83.3139 237.993 83.2485 238.224Z" fill="#831532"/>
<path d="M83.2281 237.519C80.2248 239.7 76.6289 240.912 72.9204 240.992C69.1865 240.854 65.5893 239.549 62.6328 237.26C62.7456 237.012 62.9454 236.814 63.1942 236.704C63.443 236.594 63.7235 236.579 63.9823 236.663L64.3514 236.781C69.9942 238.599 76.0652 238.589 81.7023 236.753C81.8258 236.713 81.9547 236.692 82.0846 236.691C82.3375 236.693 82.5835 236.774 82.7884 236.922C82.9933 237.07 83.147 237.279 83.2281 237.519V237.519Z" fill="white"/>
<path d="M80.4918 243.715C79.5808 244.812 78.4381 245.693 77.1461 246.294C75.8542 246.896 74.4451 247.203 73.0205 247.193C71.4266 247.268 69.8402 246.931 68.4139 246.215C66.9877 245.498 65.7696 244.425 64.877 243.1C70.038 241.85 75.4445 242.062 80.4918 243.715V243.715Z" fill="#FF6551"/>
<path d="M57.6908 234.835C58.0923 233.16 55.8857 231.193 52.7622 230.441C49.6387 229.69 46.781 230.438 46.3794 232.113C45.9779 233.788 48.1845 235.755 51.308 236.507C54.4315 237.258 57.2892 236.51 57.6908 234.835Z" fill="#F2786B"/>
<path d="M95.07 236.617C98.2509 236.168 100.635 234.421 100.395 232.716C100.155 231.01 97.382 229.991 94.201 230.441C91.0201 230.89 88.6359 232.637 88.8759 234.342C89.1158 236.048 91.889 237.067 95.07 236.617Z" fill="#F2786B"/>
<g style="mix-blend-mode:multiply" opacity="0.21">
<g style="mix-blend-mode:multiply" opacity="0.21">
<path d="M72.4654 229.463C71.4107 229.488 70.3768 229.761 69.4466 230.26C69.3761 230.292 69.3133 230.339 69.2629 230.398C69.0834 230.639 69.371 230.953 69.6366 231.093C71.3931 231.859 73.3641 231.973 75.1972 231.417C75.6509 231.348 76.0772 231.156 76.4295 230.862C76.6319 230.662 76.7554 230.303 76.5484 230.108C76.455 230.034 76.3434 229.988 76.2257 229.974C74.5012 229.613 72.721 229.614 70.9968 229.976L72.4654 229.463Z" fill="#DA8966"/>
</g>
</g>
<path d="M69.3458 230.653C69.8166 230.478 70.2052 230.156 70.6996 230.005C71.273 229.851 71.8659 229.784 72.4591 229.804C73.02 229.789 73.5812 229.822 74.1366 229.902C74.7024 229.999 75.2274 230.26 75.6469 230.653C76.1235 231.052 76.8982 230.553 76.5485 229.958C75.7852 228.657 73.868 228.645 72.5527 228.666C71.4316 228.684 69.2304 228.81 68.9181 230.223C68.8656 230.461 69.0807 230.751 69.3459 230.653H69.3458Z" fill="#D88261"/>
<path d="M60.7599 225.008C62.4995 221.645 61.1888 217.506 57.8323 215.763C54.4758 214.02 50.3446 215.333 48.605 218.696C46.8653 222.059 48.1761 226.198 51.5325 227.941C54.889 229.684 59.0203 228.371 60.7599 225.008Z" fill="white"/>
<path d="M60.4688 223.108C60.1781 224.122 59.5938 225.026 58.7898 225.708C57.9858 226.389 56.9982 226.816 55.9519 226.935C54.9056 227.054 53.8476 226.86 52.9116 226.376C51.9757 225.893 51.2039 225.142 50.6938 224.219C50.1837 223.296 49.9582 222.242 50.0458 221.191C50.1335 220.14 50.5303 219.138 51.1862 218.313C51.8421 217.487 52.7275 216.875 53.7305 216.554C54.7336 216.233 55.8091 216.217 56.8212 216.508C57.4933 216.701 58.1207 217.026 58.6677 217.462C59.2147 217.898 59.6705 218.438 60.0092 219.051C60.3479 219.664 60.5629 220.337 60.6417 221.033C60.7205 221.73 60.6618 222.434 60.4688 223.108V223.108Z" fill="black"/>
<path d="M58.1551 224.198C58.0706 224.492 57.9008 224.755 57.6672 224.953C57.4336 225.151 57.1466 225.275 56.8426 225.31C56.5386 225.344 56.2311 225.288 55.9592 225.147C55.6872 225.007 55.4629 224.789 55.3147 224.521C55.1665 224.252 55.101 223.946 55.1265 223.641C55.1519 223.335 55.2673 223.044 55.4578 222.804C55.6484 222.564 55.9057 222.387 56.1972 222.293C56.4886 222.2 56.8012 222.195 57.0952 222.28C57.2905 222.336 57.4728 222.43 57.6318 222.557C57.7907 222.684 57.9232 222.841 58.0216 223.019C58.12 223.197 58.1824 223.393 58.2053 223.595C58.2282 223.797 58.2112 224.002 58.1551 224.198V224.198Z" fill="white"/>
<path d="M84.7783 223.121C84.9563 224.465 85.5284 225.727 86.4221 226.746C87.3158 227.764 88.491 228.495 89.799 228.845C91.1071 229.194 92.4893 229.148 93.7709 228.71C95.0524 228.273 96.1758 227.465 96.9989 226.388C97.8219 225.311 98.3078 224.014 98.3949 222.66C98.4821 221.306 98.1667 219.957 97.4885 218.783C96.8104 217.609 95.8 216.663 94.5852 216.065C93.3704 215.466 92.0056 215.242 90.6635 215.42C88.8639 215.659 87.2327 216.605 86.129 218.049C85.0253 219.493 84.5395 221.318 84.7783 223.121V223.121Z" fill="white"/>
<path d="M85.8314 222.618C85.9699 223.664 86.4149 224.645 87.11 225.437C87.8051 226.23 88.7192 226.798 89.7366 227.07C90.754 227.342 91.8291 227.306 92.8259 226.966C93.8226 226.625 94.6964 225.997 95.3365 225.159C95.9767 224.321 96.3546 223.312 96.4224 222.26C96.4902 221.207 96.2448 220.157 95.7174 219.244C95.1899 218.331 94.4041 217.595 93.4592 217.13C92.5143 216.664 91.4528 216.49 90.4089 216.628C89.7158 216.721 89.0476 216.949 88.4425 217.299C87.8373 217.65 87.3071 218.117 86.882 218.673C86.457 219.23 86.1454 219.864 85.9651 220.541C85.7849 221.218 85.7394 221.924 85.8314 222.618V222.618Z" fill="black"/>
<path d="M87.3884 223.244C87.4287 223.548 87.5579 223.833 87.7599 224.063C87.9619 224.294 88.2275 224.459 88.5231 224.538C88.8188 224.617 89.1312 224.606 89.4208 224.507C89.7104 224.409 89.9643 224.226 90.1504 223.983C90.3364 223.739 90.4462 223.446 90.4659 223.14C90.4856 222.834 90.4143 222.529 90.2611 222.264C90.1078 221.999 89.8795 221.785 89.6049 221.649C89.3304 221.514 89.0219 221.463 88.7186 221.504C88.3119 221.558 87.9432 221.772 87.6938 222.098C87.4443 222.424 87.3345 222.837 87.3884 223.244V223.244Z" fill="white"/>
<path d="M36.1979 212.569L31.8091 203.115C31.8091 203.115 6.35425 207.779 7.01255 244.141C8.73565 244.998 10.5219 245.721 12.3556 246.304C12.1728 243.147 12.8079 239.997 14.1992 237.158C14.5092 240.571 15.074 243.955 15.8888 247.283C18.0574 247.789 20.2714 248.076 22.4973 248.138C21.9455 244.501 22.0379 240.794 22.77 237.189C23.5927 240.861 24.6856 244.466 26.0397 247.976C28.0266 247.755 29.9706 247.244 31.8091 246.457C31.8091 246.457 26.3232 224.881 36.1979 212.569Z" fill="#672410"/>
<path d="M114.318 198.718L110.588 210.92C113.602 215.63 115.144 221.135 115.014 226.729C114.884 232.323 113.089 237.751 109.859 242.316C109.459 243.022 109.094 243.748 108.766 244.49C108.573 244.849 108.383 245.207 108.174 245.565C110.189 246.954 112.386 248.058 114.702 248.846C116.248 245.892 117.348 242.724 117.964 239.446C117.964 239.446 118.661 245.326 117.4 249.638C119.954 250.261 122.593 250.462 125.212 250.233C126.978 247.189 128.053 243.793 128.362 240.286C128.756 243.381 128.875 246.506 128.718 249.622C130.502 249.161 132.224 248.489 133.848 247.62C133.848 247.62 151.403 206.413 114.318 198.718Z" fill="#672410"/>
<path d="M25.9457 208.612C19.2727 213.111 13.2551 221.492 12.8203 229.719" stroke="#772F1E" stroke-width="1.86439" stroke-linecap="round" stroke-linejoin="round"/>
<path d="M28.0237 211.14C22.0446 217.186 18.7052 224.523 18.8628 235.983" stroke="#772F1E" stroke-width="1.86439" stroke-linecap="round" stroke-linejoin="round"/>
<path d="M31.0423 215.385C31.0423 215.385 24.6785 222.682 26.7632 237.303" stroke="#772F1E" stroke-width="1.86439" stroke-linecap="round" stroke-linejoin="round"/>
<path d="M116.584 215.385C121.66 220.009 121.587 228.848 120.588 235.015" stroke="#772F1E" stroke-width="1.86439" stroke-linecap="round" stroke-linejoin="round"/>
<path d="M119.359 209.058C127.188 217.504 128.539 227.515 126.594 238.524" stroke="#772F1E" stroke-width="1.86439" stroke-linecap="round" stroke-linejoin="round"/>
<path d="M119.605 204.593C131.304 207.898 134.498 223.693 133.344 234.106" stroke="#772F1E" stroke-width="1.86439" stroke-linecap="round" stroke-linejoin="round"/>
<path d="M33.6285 221.798C33.3055 221.796 32.9874 221.718 32.6996 221.571C32.4117 221.424 32.1621 221.212 31.9705 220.952C31.7789 220.691 31.6507 220.389 31.5959 220.07C31.5412 219.751 31.5615 219.424 31.6553 219.114C31.2147 219.413 30.6786 219.536 30.152 219.46C29.6254 219.384 29.1462 219.113 28.8081 218.702C28.4878 218.275 28.2692 217.781 28.1692 217.257C28.0692 216.733 28.0903 216.193 28.231 215.678C28.5207 214.652 28.9671 213.677 29.5545 212.788C27.9025 212.95 25.9494 212.991 24.9226 211.685C23.811 210.27 24.5741 208.067 25.9674 206.93C24.9439 206.67 24.0205 206.111 23.3137 205.325C22.0662 203.71 23.1347 200.757 24.7901 199.832C27.5065 198.314 31.6497 200.278 33.2654 202.633C33.8678 203.592 34.3537 204.619 34.7129 205.693C35.8557 208.708 37.6218 212.619 37.0655 215.931C36.764 217.726 35.8809 221.647 33.6285 221.798Z" fill="#FF6551"/>
<path d="M122.961 200.647C123.087 201.144 123.113 201.661 123.039 202.169C122.965 202.676 122.791 203.164 122.528 203.604C122.265 204.045 121.918 204.428 121.506 204.734C121.095 205.039 120.627 205.26 120.13 205.384C120.792 206.447 122.113 207.034 122.569 208.201C122.748 208.837 122.717 209.513 122.482 210.13C122.248 210.748 121.821 211.273 121.266 211.629C120.138 212.315 118.874 212.745 117.562 212.887C118.034 214.474 118.24 216.129 118.172 217.783C118.132 218.611 117.909 219.419 117.519 220.15C117.13 220.881 116.583 221.516 115.918 222.01C115.236 222.478 114.411 222.688 113.588 222.604C112.765 222.519 111.999 222.145 111.426 221.548C110.851 220.692 110.519 219.695 110.464 218.665C109.937 215.89 109.799 213.055 110.054 210.242C110.268 208.906 110.572 207.587 110.962 206.292C111.789 203.312 112.901 200.777 115.713 199.323C118.121 198.078 121.886 197.062 122.961 200.647Z" fill="#FF6551"/>
<path d="M91.7161 178.051C91.7161 178.051 88.644 161.782 71.3083 162.002C64.0205 162.141 56.8543 163.899 50.3271 167.149C43.7999 170.4 38.0747 175.063 33.5649 180.8C26.104 190.143 24.7874 211.469 38.3926 222.682C38.3926 222.682 41.2453 209.865 45.1952 204.072C45.1952 204.072 68.2362 215.223 89.0828 197.077C89.0829 197.077 94.7883 188.172 91.7161 178.051Z" fill="#672410"/>
<path d="M87.9861 187.777C87.9861 187.777 87.3278 198.136 94.1303 204.363C100.933 210.589 106.199 211.249 106.199 211.249C106.199 211.249 109.93 221.374 107.297 228.843C111.096 225.11 114.014 220.573 115.836 215.564C117.659 210.555 118.34 205.201 117.83 199.894C116.294 181.349 104.848 173.654 87.9688 173.874L87.9861 187.777Z" fill="#672410"/>
<path d="M37.9288 220.735C31.6597 216.18 30.7332 205.979 32.0403 198.979" stroke="#772F1E" stroke-width="1.86439" stroke-linecap="round" stroke-linejoin="round"/>
<path d="M37.5596 216.561C35.1638 205.049 36.3286 189.723 45.036 180.972C47.6279 178.366 50.4127 175.649 53.984 174.796" stroke="#772F1E" stroke-width="1.86439" stroke-linecap="round" stroke-linejoin="round"/>
<path d="M41.4277 209.319C43.0167 202.633 46.8513 196.501 50.334 193.416C54.5258 189.604 59.7728 187.156 65.3825 186.394" stroke="#772F1E" stroke-width="1.86439" stroke-linecap="round" stroke-linejoin="round"/>
<path d="M48.8945 202.633C53.1888 199.534 58.0317 197.279 63.1657 195.99" stroke="#772F1E" stroke-width="1.86439" stroke-linecap="round" stroke-linejoin="round"/>
<path d="M57.7266 202.979C61.2356 202.859 64.7276 202.434 68.1632 201.708C72.5975 200.658 76.735 198.61 80.2618 195.719C83.7886 192.828 86.6122 189.171 88.5186 185.024" stroke="#772F1E" stroke-width="1.86439" stroke-linecap="round" stroke-linejoin="round"/>
<path d="M96.0566 198.506C96.153 201.099 98.0438 203.282 100.124 204.827C103.527 207.354 106.475 208.565 108.303 212.609" stroke="#772F1E" stroke-width="1.86439" stroke-linecap="round" stroke-linejoin="round"/>
<path d="M105.418 196.875C112.133 202.877 113.519 213.059 112.022 221.564" stroke="#772F1E" stroke-width="1.86439" stroke-linecap="round" stroke-linejoin="round"/>
<g style="mix-blend-mode:screen" opacity="0.27">
<path d="M117.828 199.895C116.364 182.219 105.894 174.406 90.3008 173.902C88.1236 169.098 82.9158 161.855 71.3072 162.002C64.0194 162.141 56.8532 163.899 50.326 167.149C43.7989 170.4 38.0737 175.062 33.5638 180.8C27.0748 188.926 25.2392 206.114 33.8207 217.831C31.2567 210.56 30.3054 202.326 32.4465 195.096C35.4132 185.076 43.2972 176.686 52.6106 172.203C62.8604 167.269 75.2522 169.691 83.9106 176.924C83.4299 174.412 82.4995 172.007 81.1642 169.826C84.3424 172.592 86.8514 176.045 88.5013 179.924C88.9042 178.803 89.3071 177.681 89.71 176.56C89.9629 177.535 90.2159 178.51 90.4688 179.486C94.3843 178.701 98.4306 178.869 102.268 179.975C99.8326 180.782 97.3972 181.589 94.9619 182.395C98.1755 181.331 103.419 183.108 106.065 184.842C109.372 187.189 112.053 190.314 113.869 193.944C115.734 197.344 117.1 200.995 117.925 204.786C117.996 203.155 117.964 201.521 117.828 199.895V199.895Z" fill="#772F1E"/>
</g>
</svg>
