<svg width="145" height="370" viewBox="0 0 145 370" fill="none" xmlns="http://www.w3.org/2000/svg">
<path d="M76.4193 225.842C24.3105 225.259 13.0649 200.224 10.3978 183.521C9.03753 174.997 11.3893 168.276 14.0737 161.358C16.6497 154.719 19.5309 147.9 19.7319 139.13C19.8026 136.031 19.9143 132.356 20.2803 128.459C22.0207 109.829 29.5279 86.1094 65.8777 95.8714C65.8777 95.8714 72.6076 87.8189 88.6006 90.5745C103.415 93.1264 116.566 106.941 119.714 128.05C119.965 129.727 120.151 131.451 120.272 133.22C121.415 150.102 126.271 155.87 130.219 164.472C132.206 168.754 133.608 173.284 134.388 177.94C137.74 197.12 128.528 226.425 76.4193 225.842Z" fill="#672410"/>
<g style="mix-blend-mode:multiply" opacity="0.28">
<path d="M76.4193 225.842C24.3105 225.259 13.0649 200.224 10.3978 183.521C9.03753 174.997 11.3893 168.276 14.0737 161.357C14.0555 166.654 15.5707 178.103 28.3961 182.485C45.3287 188.27 47.6869 169.454 72.3354 169.564C96.9839 169.671 99.0413 174.227 114.124 176.584C123.303 178.02 127.971 170.544 130.219 164.472C132.206 168.754 133.608 173.284 134.388 177.94C137.74 197.12 128.528 226.425 76.4193 225.842Z" fill="#772F1E"/>
</g>
<path d="M34.2759 211.971C33.4182 211.976 32.5609 211.932 31.7082 211.84C30.935 211.72 30.1691 211.557 29.414 211.352C27.8892 210.932 26.4348 210.288 25.0981 209.443C22.9329 208.13 21.1943 206.218 20.0924 203.94C19.1258 201.63 18.8342 199.095 19.2515 196.627C19.6961 194.091 20.3319 191.592 21.1535 189.152C21.8713 186.717 22.667 184.143 22.4843 181.573C22.484 181.483 22.516 181.397 22.5742 181.329C22.6325 181.261 22.7132 181.217 22.8016 181.203C22.89 181.19 22.9803 181.209 23.056 181.257C23.1317 181.304 23.1877 181.377 23.2138 181.463C23.7041 184.04 23.6522 186.691 23.0614 189.248C22.1414 193.597 20.089 198.609 22.244 202.911C23.2943 204.946 24.9308 206.62 26.9424 207.717C28.0928 208.353 29.2976 208.884 30.5425 209.306C31.2361 209.548 31.9374 209.758 32.6419 209.968C33.2583 210.154 33.8141 210.439 34.4384 210.614C35.1591 210.814 35.0547 212.009 34.2759 211.971Z" fill="#772F1E"/>
<path d="M123.09 174.701C122.611 178.962 121.187 183.063 118.924 186.707C117.109 189.691 114.963 192.461 112.527 194.965C111.344 196.184 110.089 197.333 108.77 198.405C108.048 198.989 107.297 199.536 106.519 200.043C105.877 200.537 105.16 200.924 104.394 201.187C104.261 201.219 104.122 201.208 103.997 201.155C103.872 201.102 103.767 201.01 103.698 200.893C103.629 200.776 103.599 200.64 103.613 200.505C103.627 200.37 103.684 200.242 103.776 200.142C104.442 199.425 105.177 198.774 105.97 198.2C106.71 197.548 107.474 196.92 108.212 196.265C109.625 195.012 110.969 193.686 112.24 192.29C116.414 187.704 120.062 182.031 121.154 175.778C121.24 175.281 121.31 174.781 121.363 174.278C121.79 170.821 121.236 167.314 119.765 164.156C118.493 161.579 116.23 158.718 117.451 155.691C117.557 155.431 117.892 155.632 117.862 155.861C117.578 157.993 118.739 159.795 119.809 161.515C120.871 163.135 121.717 164.887 122.325 166.726C123.101 169.308 123.361 172.018 123.09 174.701V174.701Z" fill="#772F1E"/>
<path d="M114.122 176.584C113.859 179.065 112.831 181.403 111.179 183.274C109.571 184.94 107.792 186.434 105.873 187.73C103.986 188.994 102.356 190.605 101.07 192.476C99.6713 194.798 99.0917 197.522 99.424 200.212C99.4735 200.631 98.8892 200.642 98.7594 200.313C98.2176 198.932 97.9792 197.45 98.0604 195.969C98.1416 194.488 98.5405 193.042 99.2299 191.728C101.436 187.499 106.103 185.629 109.339 182.411C111.005 180.759 112.113 178.627 112.507 176.315C112.534 176.169 112.558 176.021 112.579 175.872C112.743 174.522 112.79 173.16 112.718 171.802C112.675 170.425 112.641 169.01 112.504 167.639C112.504 167.562 112.531 167.487 112.581 167.428C112.632 167.369 112.702 167.33 112.778 167.318C112.855 167.306 112.933 167.323 112.999 167.364C113.065 167.405 113.113 167.468 113.136 167.543C113.53 169.032 113.847 170.541 114.086 172.063C114.283 173.562 114.295 175.081 114.122 176.584Z" fill="#772F1E"/>
<path d="M108.286 173.757C108.161 174.291 107.998 174.815 107.799 175.325C107.06 177.146 105.919 178.776 104.462 180.095C102.356 182.081 99.8568 183.558 97.6944 185.473C95.8007 187.154 94.0007 189.27 93.5832 191.879C93.4296 192.96 93.5239 194.062 93.8589 195.102C94.1938 196.142 94.7607 197.092 95.5169 197.881C95.8241 198.21 95.5388 198.904 95.0527 198.719C92.773 197.851 91.6705 195.412 91.6465 193.025C91.7475 190.344 92.8404 187.795 94.7137 185.872C96.7443 183.595 99.3766 181.995 101.81 180.213C103.844 178.863 105.6 177.134 106.982 175.122C107.277 174.642 107.526 174.136 107.725 173.609C107.746 173.537 107.795 173.475 107.861 173.438C107.927 173.401 108.005 173.391 108.078 173.41C108.151 173.429 108.214 173.476 108.252 173.541C108.291 173.606 108.303 173.683 108.286 173.757V173.757Z" fill="#772F1E"/>
<path d="M90.4895 185.978C86.5033 188.425 86.4191 194.145 88.6291 197.848C88.6771 197.931 88.6939 198.028 88.6765 198.122C88.6592 198.216 88.6088 198.301 88.5344 198.361C88.46 198.422 88.3665 198.453 88.2708 198.451C88.1751 198.448 88.0835 198.412 88.0124 198.348C87.0133 197.358 86.2532 196.153 85.7901 194.826C85.3636 193.506 85.3025 192.095 85.6131 190.744C85.8845 189.534 86.4412 188.407 87.2368 187.455C88.0324 186.504 89.0439 185.756 90.187 185.275C90.5949 185.098 90.8463 185.759 90.4895 185.978Z" fill="#772F1E"/>
<path d="M130.909 189.193C130.906 194.015 129.265 198.694 126.253 202.464C124.708 204.488 122.972 206.359 121.068 208.051C120.079 208.942 119.063 209.798 118.037 210.642C117.167 211.556 116.037 212.182 114.8 212.437C114.697 212.436 114.596 212.412 114.504 212.367C114.412 212.321 114.332 212.255 114.269 212.174C114.206 212.093 114.163 211.998 114.143 211.898C114.122 211.797 114.125 211.693 114.15 211.594C114.654 210.489 115.47 209.555 116.498 208.908C117.418 208.166 118.327 207.413 119.219 206.635C121.056 205.073 122.77 203.372 124.346 201.548C127.233 198.11 129.647 193.782 130.082 189.205C130.082 189.096 130.125 188.992 130.201 188.915C130.277 188.838 130.381 188.794 130.489 188.792C130.598 188.79 130.703 188.832 130.781 188.907C130.86 188.982 130.905 189.084 130.909 189.193V189.193Z" fill="#772F1E"/>
<g style="mix-blend-mode:multiply" opacity="0.28">
<path d="M34.2759 211.971C33.4182 211.976 32.5609 211.932 31.7082 211.84C30.935 211.72 30.1691 211.557 29.414 211.352C27.8892 210.932 26.4348 210.288 25.0981 209.443C22.9329 208.13 21.1943 206.218 20.0924 203.94C19.1258 201.63 18.8342 199.095 19.2515 196.627C19.6961 194.091 20.3319 191.592 21.1535 189.152C21.8713 186.717 22.667 184.143 22.4843 181.573C22.484 181.483 22.516 181.397 22.5742 181.329C22.6325 181.261 22.7132 181.217 22.8016 181.203C22.89 181.19 22.9803 181.209 23.056 181.257C23.1317 181.304 23.1877 181.377 23.2138 181.463C23.7041 184.04 23.6522 186.691 23.0614 189.248C22.1414 193.597 20.089 198.609 22.244 202.911C23.2943 204.946 24.9308 206.62 26.9424 207.717C28.0928 208.353 29.2976 208.884 30.5425 209.306C31.2361 209.548 31.9374 209.758 32.6419 209.968C33.2583 210.154 33.8141 210.439 34.4384 210.614C35.1591 210.814 35.0547 212.009 34.2759 211.971Z" fill="#772F1E"/>
</g>
<g style="mix-blend-mode:multiply" opacity="0.28">
<path d="M90.4895 185.978C86.5033 188.425 86.4191 194.145 88.6291 197.848C88.6771 197.931 88.6939 198.028 88.6765 198.122C88.6592 198.216 88.6088 198.301 88.5344 198.361C88.46 198.422 88.3665 198.453 88.2708 198.451C88.1751 198.448 88.0835 198.412 88.0124 198.348C87.0133 197.358 86.2532 196.153 85.7901 194.826C85.3636 193.506 85.3025 192.095 85.6131 190.744C85.8845 189.534 86.4412 188.407 87.2368 187.455C88.0324 186.504 89.0439 185.756 90.187 185.275C90.5949 185.098 90.8463 185.759 90.4895 185.978Z" fill="#772F1E"/>
</g>
<g style="mix-blend-mode:multiply" opacity="0.28">
<path d="M104.462 180.095C102.356 182.081 99.8568 183.557 97.6944 185.473C95.8007 187.154 94.0007 189.27 93.5832 191.878C93.4296 192.96 93.5239 194.062 93.8589 195.102C94.1938 196.142 94.7607 197.092 95.5169 197.881C95.8241 198.21 95.5388 198.903 95.0527 198.718C92.773 197.85 91.6705 195.411 91.6465 193.025C91.7475 190.343 92.8404 187.794 94.7137 185.872C96.7443 183.595 99.3766 181.994 101.81 180.212C103.844 178.862 105.6 177.134 106.982 175.121C107.25 175.19 107.522 175.258 107.799 175.325C107.06 177.145 105.919 178.776 104.462 180.095V180.095Z" fill="#772F1E"/>
</g>
<g style="mix-blend-mode:multiply" opacity="0.28">
<path d="M105.873 187.73C103.986 188.994 102.356 190.605 101.07 192.476C99.6713 194.798 99.0917 197.522 99.424 200.212C99.4735 200.631 98.8892 200.643 98.7594 200.313C98.2176 198.932 97.9792 197.451 98.0604 195.969C98.1416 194.488 98.5405 193.042 99.2299 191.728C101.436 187.5 106.103 185.63 109.339 182.411C111.005 180.759 112.113 178.628 112.507 176.315C113.029 176.407 113.566 176.498 114.122 176.584C113.859 179.065 112.831 181.403 111.179 183.275C109.571 184.941 107.792 186.434 105.873 187.73V187.73Z" fill="#772F1E"/>
</g>
<g style="mix-blend-mode:multiply" opacity="0.28">
<path d="M118.924 186.707C117.109 189.691 114.963 192.461 112.527 194.965C111.344 196.185 110.089 197.333 108.77 198.405C108.048 198.989 107.297 199.536 106.519 200.043C105.877 200.537 105.16 200.924 104.394 201.188C104.261 201.219 104.122 201.208 103.997 201.155C103.872 201.102 103.767 201.01 103.698 200.893C103.629 200.776 103.599 200.64 103.613 200.505C103.627 200.37 103.684 200.243 103.776 200.142C104.442 199.425 105.177 198.775 105.97 198.2C106.71 197.548 107.474 196.92 108.212 196.265C109.625 195.012 110.969 193.686 112.24 192.29C116.414 187.704 120.062 182.031 121.154 175.778C121.831 175.48 122.479 175.119 123.09 174.701C122.611 178.962 121.187 183.064 118.924 186.707V186.707Z" fill="#772F1E"/>
</g>
<g style="mix-blend-mode:multiply" opacity="0.28">
<path d="M130.909 189.193C130.906 194.015 129.265 198.694 126.253 202.464C124.708 204.488 122.972 206.359 121.068 208.051C120.079 208.942 119.063 209.798 118.037 210.642C117.167 211.556 116.037 212.182 114.8 212.437C114.697 212.436 114.596 212.412 114.504 212.367C114.412 212.321 114.332 212.255 114.269 212.174C114.206 212.093 114.163 211.998 114.143 211.898C114.122 211.797 114.125 211.693 114.15 211.594C114.654 210.489 115.47 209.555 116.498 208.908C117.418 208.166 118.327 207.413 119.219 206.635C121.056 205.073 122.77 203.372 124.346 201.548C127.233 198.11 129.647 193.782 130.082 189.205C130.082 189.096 130.125 188.992 130.201 188.915C130.277 188.838 130.381 188.794 130.489 188.792C130.598 188.79 130.703 188.832 130.781 188.907C130.86 188.982 130.905 189.084 130.909 189.193V189.193Z" fill="#772F1E"/>
</g>
<path d="M57.9091 270.74C57.9091 270.74 60.1749 311.889 62.5283 331.875C62.5283 331.875 59.1734 343.396 57.9091 347.864C56.6449 352.332 57.215 354.683 63.6371 354.683C70.0591 354.683 70.4443 345.748 69.8986 337.988C69.8986 337.988 68.6769 325.291 68.7796 319.413C68.8824 313.534 69.6546 283.191 68.7796 273.209L57.9091 270.74Z" fill="#FFBF94"/>
<g style="mix-blend-mode:multiply" opacity="0.21">
<path d="M66.2928 302.366C67.4285 306.434 68.2904 310.573 68.8728 314.756C69.0902 304.15 69.5106 281.56 68.7788 273.209L57.9082 270.74C57.9082 270.74 59.1449 290.381 59.7552 299.901C62.8566 300.423 66.2928 301.662 66.2928 302.366Z" fill="#DA8966"/>
</g>
<path d="M60.4834 338.916C60.4834 338.916 56.2917 348.922 54.5267 353.742C52.7616 358.562 55.9387 360.561 59.9394 360.914C63.9401 361.267 69.0294 360.561 70.0737 358.21C71.1179 355.858 71.5005 345.487 70.0737 338.916C70.0737 338.916 69.9412 348.687 66.4112 349.392C62.8811 350.098 59.4687 350.568 59.3511 348.099C59.2334 345.63 60.4834 338.916 60.4834 338.916Z" fill="#FF6551"/>
<path d="M70.0736 338.916C70.0252 341.476 69.6266 344.018 68.889 346.47C69.1275 349.899 68.9807 353.428 66.47 356.564C65.4698 357.563 62.4692 358.562 59.4687 357.563C58.4161 357.211 57.4496 356.64 56.6323 355.89C55.8149 355.139 55.165 354.225 54.7249 353.207C54.6563 353.391 54.5895 353.571 54.5266 353.742C52.7617 358.562 55.9386 360.561 59.9394 360.914C63.9401 361.266 69.0294 360.561 70.0736 358.21C71.1179 355.858 71.5004 345.487 70.0736 338.916Z" fill="#DF4C4B"/>
<path d="M86.2761 270.74C86.2761 270.74 84.0103 311.889 81.6569 331.875C81.6569 331.875 85.0118 343.396 86.2761 347.864C87.5403 352.332 86.9701 354.683 80.5481 354.683C74.1261 354.683 73.7409 345.748 74.2865 337.988C74.2865 337.988 75.5083 325.291 75.4055 319.413C75.3028 313.534 74.5306 283.191 75.4055 273.209L86.2761 270.74Z" fill="#FFBF94"/>
<g style="mix-blend-mode:multiply" opacity="0.21">
<path d="M78.4922 301.357C76.2765 310.212 75.3129 314.756 75.3129 314.756C75.0955 304.15 74.675 281.56 75.4069 273.209L86.2775 270.74C86.2775 270.74 85.1071 289.44 84.4967 298.961C81.3953 299.482 78.4922 300.653 78.4922 301.357Z" fill="#DA8966"/>
</g>
<path d="M83.7021 338.916C83.7021 338.916 87.8938 348.922 89.6588 353.742C91.4238 358.562 88.2468 360.561 84.2461 360.914C80.2454 361.267 75.1561 360.561 74.1118 358.21C73.0676 355.858 72.685 345.487 74.1118 338.916C74.1118 338.916 74.2443 348.687 77.7743 349.392C81.3044 350.098 84.7168 350.568 84.8344 348.099C84.9521 345.63 83.7021 338.916 83.7021 338.916Z" fill="#FF6551"/>
<path d="M74.1118 338.916C74.1602 341.476 74.5588 344.018 75.2965 346.47C75.0579 349.899 75.2048 353.428 77.7155 356.564C78.7157 357.563 81.7162 358.562 84.7168 357.563C85.7694 357.211 86.7358 356.64 87.5532 355.89C88.3705 355.139 89.0204 354.225 89.4605 353.207C89.5291 353.391 89.5959 353.571 89.6588 353.742C91.4238 358.562 88.2468 360.561 84.2461 360.914C80.2454 361.266 75.1561 360.561 74.1118 358.21C73.0675 355.858 72.685 345.487 74.1118 338.916Z" fill="#DF4C4B"/>
<path d="M41.9635 268.507C41.1399 266.155 38.6688 260.042 39.681 256.868C40.6931 253.693 42.3165 251.93 42.7872 248.991C43.2579 246.051 46.5526 223.089 46.5526 223.089L52.6473 224.292C52.6473 224.292 50.0826 238.88 49.1413 242.76C48.1999 246.639 47.3763 248.168 47.7293 250.754C48.0823 253.341 50.318 260.982 49.1413 261.688C47.9646 262.393 47.3496 260.747 46.7612 260.395C46.1729 260.042 46.0819 262.628 46.6703 265.568C47.2586 268.507 45.9736 269.212 45.2629 268.507C44.5522 267.801 43.5876 263.099 43.5876 263.099C43.5876 263.099 44.9052 268.307 44.1992 268.76C43.4932 269.212 41.9635 268.507 41.9635 268.507Z" fill="#FFBF94"/>
<path d="M59.8805 196.162C59.8805 196.162 54.2324 195.775 51.879 198.634C49.5256 201.494 44.7947 219.169 43.3359 222.029C43.3359 222.029 45.5249 227.241 53.997 225.595C53.997 225.595 58.9717 206.437 59.8805 201.765C60.7893 197.093 59.8805 196.162 59.8805 196.162Z" fill="#FFC652"/>
<path d="M44.7477 218.201C44.3518 219.503 43.8804 220.781 43.3359 222.029C43.3359 222.029 45.5249 227.24 53.997 225.594C53.997 225.594 54.5261 223.557 55.2689 220.655C51.5004 221.188 47.705 220.659 44.7477 218.201Z" fill="#F7A845"/>
<path d="M98.9885 268.508C99.8122 266.156 102.283 260.043 101.271 256.869C100.259 253.694 98.6355 251.931 98.1648 248.992C97.6941 246.052 94.3994 223.09 94.3994 223.09L88.3047 224.293C88.3047 224.293 90.8694 238.881 91.8107 242.761C92.7521 246.64 93.5757 248.169 93.2227 250.755C92.8697 253.342 90.634 260.983 91.8107 261.689C92.9874 262.394 93.8111 259.22 94.3994 258.867C94.9878 258.515 94.8701 262.629 94.2817 265.569C93.6934 268.508 94.9784 269.213 95.6891 268.508C96.3998 267.802 97.3644 263.1 97.3644 263.1C97.3644 263.1 96.0468 268.308 96.7528 268.761C97.4588 269.213 98.9885 268.508 98.9885 268.508Z" fill="#FFBF94"/>
<path d="M81.1797 196.163C81.1797 196.163 86.5343 195.658 88.6283 197.54C90.7223 199.421 93.1052 206.616 94.4762 211.941C95.6995 216.693 98.1239 224.054 98.1239 224.054C98.1239 224.054 92.134 226.889 87.304 226.301L82.121 200.361L81.1797 196.163Z" fill="#FFC652"/>
<path d="M86.3848 221.7L87.3041 226.301C92.1341 226.889 98.124 224.054 98.124 224.054C98.124 224.054 97.5599 222.34 96.8403 220.039C93.7582 221.738 90.0109 221.767 86.3848 221.7Z" fill="#F7A845"/>
<path d="M54.8857 246.001C50.2962 255.01 45.5793 264.075 40.2734 272.689C40.5084 276.507 42.0724 280.122 44.6946 282.908C50.1795 272.401 54.8508 261.49 58.6675 250.27C57.4921 248.774 56.2293 247.348 54.8857 246.001V246.001Z" fill="#6640D0"/>
<path d="M43.3164 270.487C43.3164 270.487 50.0397 256.443 53.1655 254.08C56.2913 251.716 55.9104 254.927 55.465 256.55C55.0196 258.172 47.7924 273.722 46.5734 276.885C46.5733 276.885 43.375 275.84 43.3164 270.487Z" fill="#864FF1"/>
<path d="M57.4699 247.975C52.6034 259.104 47.4812 269.61 41.5938 280.233C41.6138 282.152 42.2471 284.014 43.4011 285.548C44.5551 287.082 46.1694 288.207 48.0086 288.759C55.021 277.242 59.3294 264.244 61.8496 251.052C60.1369 249.754 59.2681 249.133 57.4699 247.975Z" fill="#6640D0"/>
<path d="M44.9844 277.688C44.9844 277.688 53.0602 259.236 56.0236 256.173C58.9873 253.11 58.8479 256.499 58.4612 258.126C56.434 266.653 52.4082 275.392 49.1483 283.711C49.1484 283.711 45.2964 283.05 44.9844 277.688Z" fill="#864FF1"/>
<path d="M60.7093 245.847C56.966 260.145 52.0616 274.114 46.0449 287.615C46.0449 287.615 49.363 292.764 57.0473 293.037C60.6327 278.068 63.407 262.917 65.358 247.649C63.5179 246.868 62.5884 246.502 60.7093 245.847Z" fill="#6640D0"/>
<path d="M49.9175 283.561C52.493 274.166 56.0598 265.07 60.558 256.428C62.5107 252.754 63.6688 256.016 63.2052 257.681C60.5073 267.372 57.8681 277.682 56.7399 287.778C56.7399 287.778 49.2979 285.787 49.9175 283.561Z" fill="#864FF1"/>
<path d="M64.6021 248.136C62.4346 263.614 59.7913 278.95 56.8203 294.293C56.8203 294.293 63.7657 298.863 71.1489 295.463C71.1346 279.721 71.1258 263.979 71.1223 248.238C68.5179 248.109 67.2147 248.088 64.6021 248.136Z" fill="#6640D0"/>
<path d="M60.887 289.382C61.1307 278.495 62.8345 267.691 65.9528 257.257C67.3205 252.796 68.6785 255.738 68.7381 257.462C69.1184 268.457 68.817 279.548 69.0823 290.592C69.0824 290.592 60.8319 291.529 60.887 289.382Z" fill="#864FF1"/>
<path d="M87.8042 246C92.3946 255.009 97.1112 264.074 102.417 272.689C102.183 276.506 100.619 280.122 97.9967 282.908C92.5115 272.401 87.8401 261.49 84.0234 250.27C85.1985 248.773 86.4609 247.348 87.8042 246V246Z" fill="#6640D0"/>
<path d="M99.3748 270.487C99.3748 270.487 92.6514 256.443 89.5256 254.08C86.4 251.716 86.7809 254.927 87.2264 256.55C87.6718 258.173 94.8992 273.723 96.1184 276.886C96.1184 276.886 99.3164 275.84 99.3748 270.487Z" fill="#864FF1"/>
<path d="M84.6309 247.974C89.5053 259.093 94.6322 269.609 100.508 280.233C100.488 282.151 99.8542 284.014 98.7001 285.547C97.5459 287.081 95.9313 288.206 94.092 288.759C87.0805 277.241 82.7709 264.243 80.252 251.051C81.9644 249.753 82.8332 249.132 84.6309 247.974Z" fill="#6640D0"/>
<path d="M97.1157 277.688C97.1157 277.688 89.0396 259.235 86.0761 256.172C83.1127 253.109 83.2548 256.493 83.6387 258.125C85.6505 266.677 89.6853 275.403 92.9515 283.71C92.9515 283.71 96.8034 283.05 97.1157 277.688Z" fill="#864FF1"/>
<path d="M80.0471 246.694C84.0553 260.947 89.0032 274.919 94.8585 288.519C93.4645 290.268 91.7007 291.688 89.6932 292.677C87.6858 293.666 85.4843 294.199 83.2465 294.238C79.904 279.078 77.3258 263.982 75.4082 248.577C77.2434 247.768 78.1688 247.387 80.0471 246.694Z" fill="#6640D0"/>
<path d="M90.5559 283.718C87.9462 274.295 84.486 265.128 80.2178 256.33C78.3695 252.648 77.044 255.969 77.5689 257.617C80.7213 267.461 82.7646 277.626 83.661 287.924C83.661 287.924 91.2072 285.981 90.5559 283.718Z" fill="#864FF1"/>
<path d="M75.7141 246.332C78.2312 262.255 80.9828 278.13 83.7825 294.005C83.7825 294.005 77.6721 299.17 70.2129 295.85C70.4924 279.464 70.7115 263.077 70.8704 246.69C72.8037 246.495 73.7721 246.422 75.7141 246.332Z" fill="#6640D0"/>
<path d="M81.0074 289.35C80.2637 278.006 78.3209 266.771 75.2114 255.835C73.8801 251.305 72.4414 254.416 72.3814 256.177C71.9902 267.646 72.4354 279.389 72.7628 291.048C72.7627 291.048 81.1673 291.555 81.0074 289.35Z" fill="#864FF1"/>
<path d="M67.1171 193.687C67.1171 193.687 58.5514 195.417 57.7157 196.163C56.88 196.909 52.5978 219.952 52.0913 223.832C51.5849 227.712 50.8789 244.288 50.8789 246.405C50.8789 248.521 55.821 254.046 68.4115 254.399C81.002 254.752 88.0621 250.755 89.3565 250.167C90.6508 249.579 91.6091 248.286 91.6595 243.936C91.7098 239.586 88.4151 214.426 87.1208 209.018C85.8264 203.61 84.6497 196.827 83.0024 196.163C77.8669 194.523 72.5084 193.688 67.1171 193.687V193.687Z" fill="#F7A845"/>
<path d="M65.0107 196.162C65.0107 196.162 60.881 195.297 59.116 197.807C57.351 200.318 55.3518 209.59 55.8807 216.094C56.4096 222.597 60.4103 231.297 60.4103 231.297C59.5867 233.374 56.0929 227.767 55.2693 228.472C54.4456 229.178 53.8221 239.653 55.8807 244.38C57.9393 249.108 64.2562 251.812 72.5116 251.224C80.7669 250.636 83.2781 245.816 85.4349 242.172C87.5918 238.527 88.2261 230.001 87.4098 230.236C86.5936 230.471 87.8422 229.416 82.179 231.649C82.179 231.649 79.4133 232.708 81.649 230.121C83.8847 227.535 85.2384 228.652 86.0621 220.069C86.8858 211.487 83.8264 199.059 82.532 197.807C81.2377 196.556 77.59 196.673 76.4133 197.026C75.2366 197.379 66.0494 196.946 64.0549 195.875" fill="#FFC652"/>
<path d="M67.1167 193.687C67.1167 193.687 65.1278 194.089 62.9746 194.588C63.5455 196.124 64.5618 197.454 65.8935 198.409C67.2252 199.364 68.8118 199.9 70.4503 199.949C72.2219 200.209 74.0295 199.867 75.5829 198.977C77.1364 198.088 78.3458 196.703 79.0168 195.044C75.107 194.186 71.1194 193.731 67.1167 193.687Z" fill="#F7A845"/>
<path d="M76.4542 195.115C76.4542 195.115 74.9795 198.227 70.4361 197.76C65.8914 197.293 64.9414 194.936 64.9414 194.936L65.012 192.469L65.0106 192.469L65.1116 188.933L75.9616 186.82L76.9806 186.621L76.925 187.528L76.6327 192.229L76.4542 195.115Z" fill="#EA9573"/>
<g style="mix-blend-mode:multiply" opacity="0.31">
<path d="M76.6338 192.229C75.1442 193.728 73.2468 195.233 71.6008 195.275C68.3392 195.359 65.0947 192.541 65.0131 192.47L65.0117 192.469L65.1128 188.934L75.9628 186.82L76.9262 187.529L76.6338 192.229Z" fill="#DD7258"/>
</g>
<path d="M104.073 150.459C104.073 150.459 109.359 147.659 112.384 151.694C115.409 155.729 110.847 166.169 107.261 167.243C103.675 168.317 102.254 167.319 102.254 167.319L104.073 150.459Z" fill="#FFBF94"/>
<path d="M37.4222 151.463C37.4222 151.463 32.0675 148.823 29.1467 152.948C26.2259 157.072 31.0522 167.371 34.664 168.337C38.2758 169.303 39.671 168.262 39.671 168.262L37.4222 151.463Z" fill="#FFBF94"/>
<path d="M106.38 134.924C106.38 134.924 105.599 150.143 104.223 162.404L104.221 162.409L104.222 162.412L104.216 162.463C104.009 164.303 103.789 166.076 103.557 167.72L103.552 167.753C102.853 172.67 102.04 176.425 101.13 177.367C97.8868 180.722 79.2506 191.99 71.8898 191.579C64.5291 191.168 44.998 181.357 41.822 177.75C40.8057 176.595 39.6719 172.493 38.5997 167.447C36.3205 156.727 34.3203 141.752 34.3203 141.752C34.7874 117.03 47.3549 108.486 71.9095 107.246C96.4641 106.006 106.38 134.924 106.38 134.924Z" fill="#FFBF94"/>
<g style="mix-blend-mode:multiply" opacity="0.28">
<g style="mix-blend-mode:multiply" opacity="0.28">
<path d="M32.9019 135.811C32.3586 133.155 34.233 130.627 36.1322 128.589C42.7053 121.581 50.6434 115.99 59.4587 112.161C66.5934 109.048 74.7275 107.065 82.3086 108.991C85.888 110.055 89.3237 111.552 92.5386 113.45C94.0731 114.2 95.5169 115.123 96.8423 116.2C97.9555 117.24 98.9365 118.413 99.7629 119.692C103.353 124.894 106.223 130.555 108.296 136.524C108.841 137.789 109.057 139.171 108.925 140.542C108.631 141.784 108.011 142.926 107.128 143.848C105.324 145.933 103.082 147.594 100.562 148.714C99.5095 144.808 98.4566 140.902 97.4037 136.997C96.6164 138.11 95.5738 139.02 94.363 139.649C93.1522 140.278 91.8084 140.608 90.4437 140.613C89.5498 137.024 87.6987 133.745 85.0875 131.124C83.2964 134.277 79.896 136.38 76.333 137.624C76.0354 133.922 75.0624 130.305 73.4621 126.953L70.3142 136.828C68.7887 136.614 67.3326 136.054 66.0574 135.19C64.7822 134.327 63.7216 133.183 62.957 131.847C61.9268 133.056 61.1562 134.463 60.6929 135.982C60.2296 137.5 60.0836 139.098 60.2639 140.675C58.0738 141.002 55.836 140.677 53.8295 139.741C51.823 138.805 50.1366 137.3 48.9805 135.413C48.2132 139.027 47.4458 142.642 46.6783 146.256C43.5335 145.735 40.7146 144.013 38.8173 141.454C37.7882 144.197 37.5798 147.18 38.2177 150.039C38.2177 150.039 35.9075 149.509 35.3964 147.833C34.8854 146.156 32.9019 135.811 32.9019 135.811Z" fill="#DA8966"/>
</g>
</g>
<path d="M79.2975 113.171C79.2975 113.171 67.0048 119.212 69.003 134.601C69.003 134.601 63.1112 132.339 62.6999 125.977C62.6999 125.977 56.4258 131.597 57.669 139.288C57.669 139.288 49.8171 136.551 50.6584 126.484C50.6584 126.484 43.8982 132.278 46.5046 144.475C46.5046 144.475 40.0952 140.041 39.8534 134.179C39.8534 134.179 35.2613 143.797 37.9742 151.802C36.1841 151.556 34.5047 150.794 33.1416 149.609C30.8517 147.565 29.0042 143.642 28.3183 136.02C26.9781 121.124 44.9639 102.6 68.4206 103.439C91.8773 104.277 108.858 119.955 111.144 132.492C111.832 136.092 111.662 139.803 110.649 143.326C109.636 146.848 107.807 150.083 105.311 152.769C107.253 150.281 104.327 113.097 79.2975 113.171Z" fill="#672410"/>
<path d="M73.7715 113.92C73.7715 113.92 78.7926 124.071 78.4487 134.802C78.4487 134.802 85.2112 129.175 85.8172 125.815C85.8172 125.815 92.2379 131.086 92.8414 139.624C92.8414 139.624 97.6753 135.868 97.1282 131.519C97.1282 131.519 102.896 136.632 102.398 148.035C102.398 148.035 107.194 145.108 107.387 139.495C107.387 139.495 103.618 105.618 73.7715 113.92Z" fill="#672410"/>
<path d="M84.4855 144.118C84.7743 144.566 85.2636 144.51 85.741 144.553C86.295 144.604 86.8432 144.597 87.3985 144.602C88.4766 144.586 89.548 144.773 90.5567 145.153C91.4709 145.571 92.3323 146.095 93.1229 146.716C93.5112 147.021 93.9172 147.303 94.3388 147.56C94.578 147.703 94.8313 147.822 95.0947 147.913C95.3462 147.985 95.5957 147.936 95.842 148.024C96.1373 148.131 96.3134 147.764 96.2031 147.527C96.0818 147.266 96.1076 146.964 95.9736 146.702C95.8178 146.415 95.6314 146.147 95.4178 145.901C95.0193 145.445 94.5739 145.032 94.0889 144.669C93.1156 143.904 92.0114 143.321 90.8301 142.95C89.5917 142.596 88.2909 142.515 87.0181 142.714C86.6197 142.766 83.9043 143.216 84.4855 144.118H84.4855Z" fill="#5F130F"/>
<path d="M53.0026 145.328C52.234 144.51 50.7381 144.84 49.7652 144.995C48.6573 145.186 47.5837 145.539 46.5792 146.043C45.598 146.524 44.682 147.128 43.8533 147.84C43.1343 148.45 41.9368 149.557 42.2534 150.631C42.2972 150.777 42.386 150.905 42.5071 150.997C42.6282 151.089 42.7753 151.141 42.9275 151.145C43.8125 151.232 44.6849 150.095 45.3262 149.587C46.0505 149.006 46.8414 148.514 47.6822 148.12C48.4945 147.759 49.3399 147.479 50.2067 147.282C51.1051 147.067 52.3229 147.203 53.0184 146.513C53.1662 146.35 53.2466 146.138 53.2437 145.918C53.2407 145.698 53.1545 145.487 53.0024 145.328H53.0026Z" fill="#5F130F"/>
<g style="mix-blend-mode:multiply" opacity="0.44">
<path d="M37.2676 164.374C35.1769 163.275 33.5734 161.434 32.7728 159.213C32.4445 158.216 32.5029 156.604 33.729 156.41C34.7418 156.249 35.1756 157.674 35.6398 158.4C35.6919 158.485 35.7733 158.547 35.8683 158.575C35.9634 158.603 36.0655 158.595 36.1549 158.552C36.2444 158.509 36.315 158.435 36.3531 158.344C36.3913 158.253 36.3944 158.15 36.3617 158.057C35.9297 156.755 35.5111 155.112 34.0046 154.938C32.4601 154.76 31.3191 156.255 31.1768 157.8C31.0029 159.69 32.0777 161.439 33.0853 162.872C34.1241 164.349 35.3908 165.555 37.1863 165.132C37.2588 165.103 37.3219 165.054 37.369 164.992C37.4161 164.929 37.4453 164.855 37.4537 164.777C37.462 164.7 37.4491 164.621 37.4164 164.55C37.3836 164.479 37.3322 164.418 37.2676 164.374V164.374Z" fill="#DA8966"/>
</g>
<g style="mix-blend-mode:multiply" opacity="0.44">
<path d="M110.989 156.449C110.88 155.021 109.775 153.762 108.404 154.382C107.477 154.8 106.001 156.789 107.033 157.783C107.059 157.81 107.091 157.83 107.126 157.841C107.161 157.853 107.199 157.856 107.235 157.85C107.272 157.845 107.306 157.83 107.336 157.809C107.366 157.787 107.39 157.758 107.407 157.725C107.907 156.978 107.956 155.77 108.942 155.476C110.294 155.074 109.882 157.574 109.741 158.29C109.595 159.171 109.268 160.011 108.782 160.759C108.224 161.428 107.513 161.952 106.709 162.288C106.671 162.315 106.64 162.35 106.617 162.39C106.593 162.43 106.579 162.475 106.574 162.521C106.569 162.567 106.574 162.614 106.588 162.658C106.603 162.702 106.626 162.742 106.657 162.777C107.753 164.047 109.301 162.294 109.891 161.25C110.688 159.779 111.068 158.119 110.989 156.449V156.449Z" fill="#DA8966"/>
</g>
<path d="M79.6341 173.663C79.2117 175.467 78.4141 177.163 77.293 178.64C76.5231 179.632 75.5392 180.438 74.4144 180.997C73.2896 181.557 72.053 181.855 70.7967 181.871C69.3913 181.954 67.9886 181.668 66.7281 181.042C65.4676 180.416 64.3931 179.47 63.6115 178.3C62.6555 176.916 61.9485 175.376 61.5225 173.749C61.4589 173.526 61.4752 173.288 61.5686 173.076C61.6596 172.854 61.8306 172.674 62.0477 172.571C62.2649 172.469 62.5127 172.451 62.7424 172.521L63.0671 172.622C68.0264 174.181 73.3578 174.089 78.2603 172.361C78.3924 172.313 78.5328 172.292 78.6731 172.301C78.8133 172.309 78.9504 172.345 79.0762 172.407C79.202 172.47 79.3139 172.557 79.405 172.664C79.4962 172.771 79.5647 172.895 79.6066 173.029C79.6788 173.232 79.6883 173.453 79.6341 173.663V173.663Z" fill="#831532"/>
<path d="M79.6063 173.029C77.0255 175.023 73.8865 176.164 70.6262 176.293C67.3408 176.214 64.1668 175.087 61.5684 173.076C61.6594 172.854 61.8303 172.674 62.0475 172.571C62.2647 172.469 62.5125 172.451 62.7422 172.521L63.0669 172.622C68.0261 174.181 73.3576 174.089 78.2601 172.361C78.3922 172.313 78.5326 172.292 78.6729 172.301C78.8131 172.309 78.9502 172.345 79.076 172.407C79.2018 172.47 79.3137 172.557 79.4048 172.664C79.496 172.771 79.5645 172.895 79.6064 173.029L79.6063 173.029Z" fill="white"/>
<path d="M77.2928 178.639C76.523 179.631 75.539 180.437 74.4142 180.997C73.2895 181.556 72.0529 181.855 70.7965 181.871C69.3911 181.954 67.9885 181.668 66.7279 181.041C65.4674 180.415 64.3929 179.47 63.6113 178.3C68.1106 177.104 72.8585 177.222 77.2928 178.639V178.639Z" fill="#FF6551"/>
<path d="M55.404 170.814C55.809 169.105 53.6156 167.124 50.5049 166.388C47.3943 165.652 44.5444 166.44 44.1395 168.149C43.7345 169.857 45.9279 171.839 49.0385 172.575C52.1492 173.311 54.9991 172.522 55.404 170.814Z" fill="#F2786B"/>
<path d="M92.6136 172.016C95.7651 171.496 98.0876 169.669 97.8009 167.936C97.5143 166.202 94.7271 165.219 91.5755 165.739C88.424 166.259 86.1015 168.086 86.3882 169.82C86.6748 171.553 89.462 172.537 92.6136 172.016Z" fill="#F2786B"/>
<g style="mix-blend-mode:multiply" opacity="0.21">
<path d="M104.618 157.348L104.217 162.464L103.558 167.721L103.554 167.754C102.854 172.671 102.041 176.426 101.132 177.368C97.888 180.723 79.2518 191.991 71.891 191.58C64.5303 191.169 44.9992 181.358 41.8232 177.751C40.8069 176.596 39.6731 172.493 38.6009 167.448C37.4266 162.283 36.5352 156.361 36.5352 156.361C36.9693 159.601 39.698 170.369 42.7102 176.005C44.7434 179.809 65.5006 188.466 72.7263 188.721C79.952 188.978 90.546 181.288 96.2157 177.958C101.797 174.681 104.546 157.72 104.618 157.348Z" fill="#DA8966"/>
</g>
<g style="mix-blend-mode:screen" opacity="0.27">
<path d="M119.706 128.475C101.707 101.767 80.8851 101.528 71.3091 103.195C67.3914 103.88 63.4117 104.144 59.4378 103.984C34.9708 102.984 24.6033 117.709 20.2715 128.873C22.0091 110.038 29.5127 86.0585 65.8639 95.9335C65.8639 95.9335 72.5926 87.7934 88.586 90.5818C103.401 93.1641 116.554 107.132 119.706 128.475Z" fill="#772F1E"/>
</g>
<g style="mix-blend-mode:multiply" opacity="0.21">
<g style="mix-blend-mode:multiply" opacity="0.21">
<path d="M70.0078 165.071C68.9574 165.114 67.9328 165.409 67.0206 165.931C66.9506 165.965 66.889 166.014 66.8401 166.075C66.6655 166.324 66.956 166.64 67.2219 166.779C68.9732 167.533 70.9403 167.62 72.7512 167.023C73.2033 166.945 73.6244 166.742 73.9672 166.438C74.1653 166.23 74.2826 165.862 74.0739 165.666C73.9808 165.593 73.8691 165.547 73.7513 165.534C72.0335 165.193 70.2626 165.222 68.5565 165.617L70.0078 165.071Z" fill="#DA8966"/>
</g>
</g>
<path d="M66.9266 166.334C67.3916 166.149 67.7729 165.814 68.2618 165.652C68.8283 165.487 69.4167 165.408 70.0068 165.419C70.564 165.396 71.1221 165.421 71.6749 165.494C72.2415 165.586 72.7679 165.844 73.1867 166.237C73.2895 166.329 73.4218 166.381 73.5598 166.384C73.6979 166.387 73.8325 166.341 73.9394 166.254C74.0462 166.166 74.1183 166.044 74.1426 165.908C74.1669 165.772 74.1419 165.632 74.0719 165.513C73.2941 164.197 71.3891 164.215 70.0828 164.257C68.9691 164.292 66.7842 164.455 66.4951 165.902C66.4465 166.146 66.6646 166.438 66.9265 166.334H66.9266Z" fill="#D88261"/>
<g style="mix-blend-mode:screen" opacity="0.11">
<g style="mix-blend-mode:screen" opacity="0.11">
<path d="M78.7537 146.554C78.8946 141.678 73.207 140.77 69.6079 141.286C67.4747 141.592 64.0278 141.51 62.226 142.677C61.3615 143.261 60.7093 144.108 60.367 145.093C60.0247 146.077 60.0107 147.146 60.327 148.14C60.7034 149.064 61.2123 149.929 61.8379 150.707C63.5239 153.069 65.0159 155.564 66.2996 158.166C66.8729 159.328 67.5255 160.625 68.7284 161.032C69.1512 161.147 69.5931 161.173 70.0265 161.109C70.46 161.046 70.8757 160.893 71.2475 160.662C72.7608 159.688 73.9236 158.258 74.5669 156.578C75.3048 154.939 75.8089 153.191 76.6371 151.598C77.486 149.965 78.7001 148.405 78.7537 146.554Z" fill="#F8A37A"/>
</g>
</g>
<g style="mix-blend-mode:screen" opacity="0.27">
<g style="mix-blend-mode:screen" opacity="0.27">
<path d="M66.9713 100.04C64.3605 100.917 62.1683 103.304 60.3393 105.321C58.4089 107.42 56.6883 109.703 55.2022 112.137C52.3594 116.863 50.6181 122.422 51.4374 128.013C51.8427 130.779 52.7607 134.129 55.2743 135.625C55.3167 135.647 55.3646 135.656 55.4121 135.652C55.4597 135.647 55.5048 135.628 55.5418 135.598C55.5789 135.568 55.6063 135.527 55.6207 135.482C55.635 135.436 55.6357 135.387 55.6227 135.342C55.0806 132.974 53.9809 130.795 53.6542 128.362C53.3298 125.938 53.4453 123.475 53.9953 121.092C55.186 115.96 58.0283 111.484 61.2861 107.487C62.2285 106.331 63.2217 105.224 64.2658 104.167C65.3288 103.088 66.5389 102.167 67.556 101.042C67.942 100.615 67.5456 99.8474 66.9713 100.04Z" fill="#772F1E"/>
</g>
<g style="mix-blend-mode:screen" opacity="0.27">
<path d="M67.8988 107.089C68.3226 106.481 67.4568 105.628 66.8782 106.067C63.3272 108.765 62.0378 113.789 62.0832 118.142C62.125 120.683 62.5688 123.202 63.3983 125.605C64.1536 127.819 65.0887 130.599 66.9374 132.11C67.0215 132.179 67.1907 132.142 67.1759 132.004C66.932 129.736 65.6694 127.6 65.0274 125.432C64.3268 123.189 63.9507 120.858 63.9105 118.509C63.8993 116.448 64.2445 114.401 64.9309 112.458C65.6763 110.544 66.6744 108.739 67.8988 107.089V107.089Z" fill="#772F1E"/>
</g>
<g style="mix-blend-mode:screen" opacity="0.27">
<path d="M62.4103 99.6553C59.5555 100.237 56.9381 101.983 54.5907 103.693C52.1899 105.437 49.9555 107.399 47.916 109.554C43.696 114.022 39.8934 119.211 39.3414 125.606C39.0815 129.039 39.8718 132.469 41.6077 135.442C41.6666 135.535 41.7573 135.604 41.863 135.636C41.9687 135.668 42.0822 135.66 42.1828 135.615C42.2834 135.569 42.3642 135.489 42.4103 135.389C42.4564 135.289 42.4648 135.176 42.4339 135.07C41.5175 132.335 41.1763 129.44 41.4316 126.567C41.6869 123.694 42.5333 120.905 43.9177 118.374C46.8462 113.498 50.6531 109.205 55.1458 105.714C57.5851 103.755 60.3522 102.201 62.6655 100.093C62.8745 99.9021 62.6377 99.609 62.4103 99.6553Z" fill="#772F1E"/>
</g>
<g style="mix-blend-mode:screen" opacity="0.27">
<path d="M62.9012 97.281C59.2313 96.8986 55.3276 98.5269 52.1027 100.186C48.7702 101.912 45.7288 104.148 43.0888 106.814C36.9969 112.947 33.7943 121.215 31.8431 129.622C31.2085 132.193 30.8539 134.824 30.7855 137.471C30.7522 138.819 30.8537 140.168 31.0885 141.497C31.2108 142.131 31.3767 142.757 31.5851 143.369C31.8435 143.974 32.1397 144.563 32.472 145.131C32.7425 145.694 33.456 145.246 33.3732 144.725C33.2735 144.097 33.3313 143.454 33.2605 142.812C33.2063 142.32 33.169 141.826 33.1324 141.333C33.0513 140.237 32.9723 139.141 32.9788 138.042C33.0035 135.808 33.2422 133.581 33.6917 131.392C34.58 126.895 35.9442 122.504 37.7611 118.294C39.6244 114.094 42.3144 110.31 45.6711 107.17C49.0278 104.03 52.9826 101.596 57.3 100.014C59.1956 99.3257 61.1522 98.8491 63.0151 98.065C63.1032 98.0338 63.1777 97.973 63.226 97.893C63.2743 97.813 63.2934 97.7188 63.28 97.6263C63.2665 97.5339 63.2215 97.449 63.1524 97.386C63.0833 97.323 62.9946 97.2859 62.9012 97.281V97.281Z" fill="#772F1E"/>
</g>
<g style="mix-blend-mode:screen" opacity="0.27">
<path d="M57.5119 95.9792C56.6386 95.932 55.763 95.9489 54.8921 96.0298C54.0123 96.1483 53.1359 96.2848 52.2629 96.4479C50.4805 96.7852 48.7161 97.2117 46.9765 97.7261C43.5675 98.6808 40.3528 100.227 37.4794 102.293C32.2372 106.151 28.7339 111.954 26.6995 118.173C25.698 121.298 25.0452 124.524 24.7531 127.792C24.379 131.702 24.6981 135.659 24.2356 139.56C23.7266 143.415 22.5265 147.147 20.6929 150.576C19.0509 153.78 17.1861 156.982 16.475 160.573C15.1366 167.333 18.4173 175.075 24.8961 177.546C25.0918 177.621 25.2693 177.305 25.1002 177.173C20.6192 173.679 17.4512 167.74 18.2816 161.846C18.7647 158.418 20.4655 155.353 22.0676 152.367C23.8638 149.21 25.2253 145.824 26.1153 142.303C26.9957 138.441 26.8961 134.558 27.0253 130.625C27.129 127.466 27.5568 124.327 28.3019 121.255C29.6342 115.275 32.618 109.787 36.9147 105.415C39.6303 102.842 42.8282 100.832 46.3244 99.4984C48.1418 98.7855 50.0096 98.2083 51.9124 97.7717C52.8169 97.5565 53.727 97.364 54.638 97.1808C55.6396 96.9793 56.5877 96.6734 57.5725 96.3962C57.6195 96.3798 57.6594 96.3475 57.6852 96.3049C57.7111 96.2623 57.7213 96.2121 57.7141 96.1628C57.707 96.1135 57.6829 96.0682 57.646 96.0347C57.6091 96.0012 57.5617 95.9816 57.5119 95.9792V95.9792Z" fill="#772F1E"/>
</g>
<g style="mix-blend-mode:screen" opacity="0.27">
<path d="M30.7516 198.816C30.5703 198.857 30.3805 198.832 30.2153 198.748C30.05 198.663 29.9197 198.523 29.847 198.352C29.7743 198.181 29.7637 197.99 29.8172 197.812C29.8706 197.635 29.9847 197.481 30.1396 197.379C32.348 196.079 34.0389 194.057 34.9258 191.654C35.6946 189.371 35.7144 186.902 34.9823 184.607C34.165 182.048 32.7585 179.716 30.8756 177.799C27.2577 174.035 21.3091 171.304 21.6657 165.142C21.6654 165.094 21.6842 165.048 21.7178 165.014C21.7515 164.979 21.7974 164.96 21.8454 164.959C21.8935 164.958 21.9399 164.977 21.9746 165.01C22.0092 165.043 22.0292 165.089 22.0303 165.137C22.4656 168.685 25.7181 171.185 28.3263 173.111C30.7603 174.77 32.9155 176.804 34.7117 179.137C35.8534 180.714 36.7113 182.477 37.2469 184.348C37.4831 185.181 37.6487 186.031 37.7419 186.892C38.2641 191.701 35.7573 197.778 30.7516 198.816Z" fill="#772F1E"/>
</g>
<g style="mix-blend-mode:screen" opacity="0.27">
<path d="M45.6723 190.115C45.6655 192.755 44.5776 196 41.5775 196.161C40.6729 196.209 40.6629 194.986 41.3621 194.676C43.8173 193.585 43.8458 190.262 43.525 187.957C43.2856 186.117 42.6299 184.355 41.6077 182.806C41.2776 182.318 40.9047 181.861 40.4935 181.439C38.8294 179.74 36.7233 178.582 35.011 176.931C33.3856 175.477 32.3463 173.481 32.0878 171.316C32.0503 170.952 32.5918 170.897 32.6873 171.224C33.4248 173.757 35.6974 175.55 37.7292 176.987C39.7692 178.431 41.852 179.786 43.2966 181.879C43.4029 182.033 43.506 182.192 43.6059 182.355C44.9885 184.706 45.7029 187.389 45.6723 190.115V190.115Z" fill="#772F1E"/>
</g>
<g style="mix-blend-mode:screen" opacity="0.27">
<path d="M52.0571 190.597C51.8739 191.98 50.6639 194.002 49.0541 193.644C48.9685 193.618 48.891 193.571 48.8288 193.506C48.7665 193.442 48.7216 193.363 48.6982 193.277C48.6747 193.19 48.6736 193.099 48.6948 193.013C48.716 192.926 48.7589 192.845 48.8194 192.78C49.2402 192.35 49.7257 192.14 50.0667 191.599C50.362 191.132 50.547 190.605 50.6076 190.056C50.7167 188.634 50.2804 187.223 49.3873 186.11C49.1534 185.792 49.6624 185.385 49.9121 185.68C51.0683 187.036 52.3129 188.678 52.0571 190.597Z" fill="#772F1E"/>
</g>
<g style="mix-blend-mode:screen" opacity="0.27">
<path d="M17.0437 194.126C16.5596 193.774 16.121 193.364 15.7377 192.905C15.3659 192.397 15.0286 191.865 14.728 191.312C14.1487 190.237 13.6572 189.118 13.2583 187.964C11.5876 183.296 11.0815 178.29 11.7838 173.382C11.9949 170.988 12.723 168.667 13.9179 166.581C13.9727 166.507 14.0528 166.456 14.143 166.437C14.2332 166.419 14.327 166.434 14.4066 166.48C14.449 166.508 14.4824 166.547 14.5027 166.593C14.523 166.639 14.5293 166.69 14.5208 166.74C14.5122 166.824 14.502 166.91 14.4917 166.994C14.235 169.209 13.6665 171.366 13.4995 173.595C13.3256 175.902 13.3841 178.22 13.6741 180.514C13.9679 182.8 14.5014 185.049 15.2656 187.223C15.6533 188.327 16.1092 189.41 16.5794 190.479C16.7978 190.979 17.0226 191.474 17.2345 191.977C17.4372 192.54 17.6021 193.117 17.7283 193.702C17.7536 193.79 17.7496 193.883 17.7168 193.969C17.684 194.054 17.6243 194.126 17.5467 194.174C17.4692 194.222 17.378 194.243 17.2872 194.234C17.1964 194.226 17.1108 194.188 17.0437 194.126V194.126Z" fill="#772F1E"/>
</g>
<g style="mix-blend-mode:screen" opacity="0.27">
<path d="M83.4564 118.089C82.3433 115.591 80.7928 113.311 78.8777 111.357C77.9137 110.296 76.9288 109.255 75.9586 108.2C75.4852 107.686 75.0266 107.161 74.5915 106.611C74.2407 106.061 73.8323 105.55 73.3733 105.087C73.3575 105.072 73.3382 105.061 73.3171 105.056C73.296 105.051 73.2739 105.052 73.2531 105.058C73.2322 105.064 73.2133 105.075 73.1981 105.09C73.183 105.106 73.1722 105.125 73.1668 105.146C72.8404 106.216 73.7784 107.428 74.3612 108.215C75.1668 109.302 76.038 110.326 76.9197 111.348C78.7636 113.296 80.3158 115.5 81.5279 117.892C82.6572 120.237 82.8539 122.923 82.0783 125.408C81.6832 126.588 81.159 127.721 80.5151 128.787C79.8009 129.732 79.2872 130.813 79.0054 131.964C78.991 132.106 79.1762 132.149 79.2608 132.068C79.7141 131.553 80.1241 131.001 80.4866 130.418C80.8508 129.927 81.2313 129.449 81.6107 128.971C82.4669 128.025 83.1905 126.967 83.7615 125.827C84.6713 123.306 84.5619 120.53 83.4564 118.089Z" fill="#772F1E"/>
</g>
<g style="mix-blend-mode:screen" opacity="0.27">
<path d="M93.3516 119.226C90.0228 114.509 85.0934 111.586 80.6179 108.189C79.3279 107.227 78.0901 106.197 76.9097 105.103C75.7068 103.969 74.613 102.735 73.4517 101.563C73.4209 101.534 73.3815 101.517 73.3396 101.513C73.2978 101.509 73.2558 101.518 73.2201 101.54C73.1843 101.563 73.1568 101.596 73.1417 101.635C73.1266 101.674 73.1248 101.717 73.1365 101.758C74.207 104.182 75.858 106.307 77.944 107.944C80.0065 109.756 82.2725 111.316 84.4626 112.956C88.6868 116.119 93.164 119.88 94.4629 125.353C95.1209 128.59 94.8552 131.947 93.6958 135.041C93.5641 135.421 94.0935 135.571 94.2886 135.288C97.648 130.409 96.6189 123.857 93.3516 119.226Z" fill="#772F1E"/>
</g>
<g style="mix-blend-mode:screen" opacity="0.27">
<path d="M104.953 130.486C104.609 126.434 103.521 122.481 101.744 118.824C99.935 115.307 97.2959 112.285 94.0551 110.016C90.9867 107.963 87.6998 106.256 84.2548 104.926C82.3915 104.192 80.5751 103.345 78.8156 102.388C77.1412 101.334 75.5565 100.144 74.0775 98.83C73.9019 98.6854 73.545 98.8222 73.6527 99.0927C74.9008 102.23 78.2576 104.101 81.0655 105.52C84.3061 107.157 87.7179 108.364 90.8362 110.264C94.0864 112.151 96.8451 114.778 98.8879 117.931C100.932 121.393 102.218 125.249 102.661 129.245C102.973 131.75 103.146 134.271 103.179 136.796C103.203 138.126 103.225 139.445 103.301 140.773C103.315 142.015 103.463 143.251 103.741 144.461C103.752 144.499 103.775 144.532 103.807 144.556C103.839 144.579 103.878 144.592 103.918 144.591C103.958 144.59 103.996 144.577 104.028 144.552C104.059 144.528 104.081 144.494 104.091 144.456C104.802 142.24 105.152 139.924 105.13 137.597C105.223 135.225 105.164 132.85 104.953 130.486V130.486Z" fill="#772F1E"/>
</g>
<g style="mix-blend-mode:screen" opacity="0.27">
<path d="M111.379 128.433C111.139 123.548 109.802 118.78 107.467 114.481C105.198 110.463 102.155 106.934 98.5145 104.096C94.8738 101.259 90.7068 99.1701 86.2541 97.9498C83.6811 97.2162 81.0375 96.7574 78.3676 96.5813C75.6557 96.4035 72.8711 96.7647 70.2211 96.0198C70.1781 96.011 70.1334 96.0162 70.0936 96.0347C70.0538 96.0531 70.0209 96.0838 69.9998 96.1223C69.9788 96.1608 69.9706 96.205 69.9765 96.2485C69.9824 96.2919 70.0021 96.3324 70.0327 96.3638C71.7209 97.776 73.9485 97.7778 76.0214 97.8796C78.3726 97.998 80.7097 98.3138 83.0079 98.8238C87.5973 99.8182 91.9498 101.693 95.8238 104.345C99.4967 106.869 102.597 110.137 104.923 113.936C107.249 117.736 108.749 121.982 109.325 126.398C109.65 129.365 109.674 132.357 109.395 135.328C109.142 138.268 108.503 141.246 108.583 144.204C108.584 144.26 108.603 144.314 108.637 144.359C108.672 144.403 108.72 144.435 108.775 144.45C108.829 144.464 108.887 144.46 108.939 144.438C108.991 144.417 109.035 144.379 109.063 144.33C110.13 141.842 110.791 139.199 111.021 136.502C111.377 133.828 111.497 131.128 111.379 128.433V128.433Z" fill="#772F1E"/>
</g>
<g style="mix-blend-mode:screen" opacity="0.27">
<path d="M130.065 182.025C129.374 186.442 127.594 190.617 124.885 194.176C122.276 197.74 118.605 200.387 114.398 201.74C114.265 201.77 114.126 201.753 114.005 201.691C113.883 201.629 113.788 201.526 113.735 201.401C113.681 201.276 113.674 201.136 113.713 201.006C113.753 200.876 113.837 200.763 113.951 200.689C114.865 200.209 115.747 199.67 116.591 199.074C123.481 194.2 128.387 186.407 128.112 177.595C128.036 175.495 127.73 173.411 127.198 171.378C125.531 164.863 121.94 158.856 119.114 152.852C117.103 148.854 115.634 144.606 114.747 140.221C113.81 134.862 114.601 129.434 114.016 124.051C113.44 118.738 110.597 114.289 107.971 109.819C105.522 105.651 102.848 101.497 99.1007 98.4372C91.5937 92.3034 81.56 92.8287 72.6545 94.4422C72.5486 94.465 72.4379 94.4466 72.345 94.3907C72.2521 94.3349 72.1841 94.2458 72.1547 94.1415C72.1252 94.0373 72.1367 93.9258 72.1867 93.8297C72.2367 93.7336 72.3214 93.6601 72.4237 93.6243C73.5317 93.2059 74.6653 92.8584 75.8174 92.5837C85.205 90.4992 95.4341 91.7911 102.596 98.8666C106.137 102.366 108.779 106.727 111.322 111.011C112.769 113.331 114.009 115.775 115.025 118.314C115.967 121.007 116.469 123.835 116.512 126.688C116.618 129.599 116.461 132.514 116.579 135.425C116.676 137.903 117.06 140.361 117.723 142.751C119.094 147.169 120.874 151.451 123.04 155.539C125.275 159.79 127.181 164.205 128.74 168.747C130.187 173.015 130.64 177.556 130.065 182.025Z" fill="#772F1E"/>
</g>
<g style="mix-blend-mode:multiply" opacity="0.28">
<path d="M17.7283 193.702C17.7536 193.79 17.7496 193.883 17.7168 193.969C17.684 194.054 17.6243 194.126 17.5467 194.174C17.4692 194.222 17.378 194.243 17.2872 194.234C17.1964 194.226 17.1108 194.188 17.0437 194.126C16.5596 193.774 16.121 193.364 15.7377 192.905C15.3659 192.397 15.0286 191.865 14.728 191.312C14.1487 190.237 13.6572 189.118 13.2583 187.964C11.5876 183.296 11.0815 178.29 11.7838 173.382C11.9949 170.988 12.723 168.667 13.9179 166.581C13.9727 166.507 14.0528 166.456 14.143 166.437C14.2332 166.419 14.327 166.434 14.4066 166.48C14.4333 166.649 14.4617 166.821 14.4917 166.994C14.2349 169.209 13.6664 171.366 13.4995 173.595C13.3256 175.902 13.384 178.22 13.674 180.514C13.9679 182.8 14.5013 185.049 15.2656 187.223C15.6533 188.327 16.1091 189.41 16.5794 190.479C16.7977 190.979 17.0226 191.474 17.2345 191.977C17.4372 192.54 17.6021 193.117 17.7283 193.702V193.702Z" fill="#772F1E"/>
</g>
<g style="mix-blend-mode:multiply" opacity="0.28">
<path d="M37.7435 186.891C38.2657 191.7 35.7589 197.777 30.7532 198.816C30.5719 198.856 30.3821 198.832 30.2169 198.747C30.0516 198.662 29.9213 198.522 29.8486 198.351C29.7759 198.181 29.7653 197.99 29.8188 197.812C29.8722 197.634 29.9863 197.481 30.1412 197.378C32.3496 196.079 34.0405 194.057 34.9274 191.654C35.6962 189.371 35.716 186.902 34.9839 184.606C35.7444 184.58 36.5016 184.493 37.2485 184.348C37.4847 185.18 37.6503 186.031 37.7435 186.891V186.891Z" fill="#772F1E"/>
</g>
<g style="mix-blend-mode:multiply" opacity="0.28">
<path d="M43.6053 182.354C44.9876 184.705 45.7019 187.388 45.6713 190.114C45.6645 192.754 44.5768 195.999 41.5772 196.161C40.6728 196.209 40.6628 194.985 41.3619 194.676C43.8166 193.585 43.8451 190.261 43.5243 187.956C43.285 186.116 42.6294 184.355 41.6074 182.805C42.1749 182.522 42.7356 182.211 43.296 181.878C43.4023 182.032 43.5054 182.192 43.6053 182.354Z" fill="#772F1E"/>
</g>
<g style="mix-blend-mode:multiply" opacity="0.28">
<path d="M49.9121 185.68C51.0683 187.036 52.3129 188.678 52.0571 190.597C51.8739 191.98 50.6639 194.002 49.0541 193.644C48.9685 193.618 48.891 193.571 48.8288 193.506C48.7665 193.442 48.7216 193.363 48.6982 193.277C48.6747 193.19 48.6736 193.099 48.6948 193.013C48.716 192.926 48.7589 192.845 48.8194 192.78C49.2402 192.35 49.7257 192.14 50.0667 191.599C50.362 191.132 50.547 190.605 50.6076 190.056C50.7167 188.634 50.2804 187.223 49.3872 186.11C49.1534 185.792 49.6623 185.385 49.9121 185.68Z" fill="#772F1E"/>
</g>
<g style="mix-blend-mode:multiply" opacity="0.28">
<path d="M130.065 182.024C129.373 186.441 127.593 190.617 124.885 194.176C122.275 197.74 118.604 200.387 114.397 201.74C114.264 201.77 114.125 201.753 114.004 201.691C113.883 201.629 113.787 201.526 113.734 201.401C113.681 201.276 113.673 201.136 113.712 201.006C113.752 200.876 113.836 200.763 113.95 200.689C114.864 200.209 115.747 199.67 116.59 199.074C123.48 194.2 128.386 186.407 128.111 177.594C128.036 175.495 127.729 173.411 127.197 171.378C127.766 170.534 128.281 169.656 128.74 168.747C130.186 173.015 130.639 177.556 130.065 182.024V182.024Z" fill="#772F1E"/>
</g>
</g>
<path d="M53.8132 164.01C57.5696 164.01 60.6147 160.876 60.6147 157.01C60.6147 153.143 57.5696 150.009 53.8132 150.009C50.0568 150.009 47.0117 153.143 47.0117 157.01C47.0117 160.876 50.0568 164.01 53.8132 164.01Z" fill="white"/>
<path d="M59.5635 158.292C59.3858 158.97 59.0743 159.606 58.6472 160.163C58.2201 160.719 57.6861 161.185 57.0764 161.532C56.4667 161.88 55.7937 162.102 55.0969 162.186C54.4001 162.27 53.6935 162.214 53.0186 162.022C51.6533 161.595 50.5095 160.651 49.8322 159.392C49.1548 158.133 48.9977 156.659 49.3943 155.285C49.572 154.607 49.8836 153.971 50.3106 153.414C50.7377 152.858 51.2718 152.392 51.8814 152.044C52.4911 151.697 53.1641 151.475 53.8609 151.391C54.5577 151.306 55.2644 151.362 55.9393 151.555C57.3046 151.982 58.4483 152.926 59.1257 154.185C59.803 155.444 59.9602 156.918 59.5635 158.292V158.292Z" fill="black"/>
<path d="M57.2628 159.403C57.2112 159.6 57.1207 159.785 56.9966 159.947C56.8725 160.108 56.7173 160.244 56.5402 160.345C56.3631 160.446 56.1676 160.51 55.9651 160.535C55.7627 160.559 55.5574 160.543 55.3613 160.487C54.9647 160.363 54.6324 160.089 54.4357 159.723C54.2389 159.357 54.1932 158.929 54.3084 158.53C54.3601 158.332 54.4506 158.148 54.5746 157.986C54.6987 157.824 54.8539 157.689 55.031 157.588C55.2081 157.487 55.4036 157.422 55.6061 157.398C55.8085 157.373 56.0138 157.39 56.2099 157.445C56.6066 157.57 56.9388 157.844 57.1356 158.21C57.3324 158.576 57.378 159.004 57.2628 159.403Z" fill="white"/>
<path d="M81.7289 157.281C81.8302 158.18 82.1088 159.049 82.5484 159.839C82.9881 160.628 83.5802 161.323 84.2904 161.883C85.0006 162.443 85.8149 162.856 86.6861 163.1C87.5573 163.343 88.4682 163.411 89.3659 163.3C91.18 163.023 92.8114 162.042 93.9062 160.57C95.0009 159.099 95.4707 157.255 95.2136 155.44C95.1123 154.542 94.8338 153.672 94.3941 152.883C93.9544 152.093 93.3624 151.398 92.6521 150.838C91.9419 150.278 91.1276 149.865 90.2564 149.621C89.3852 149.378 88.4744 149.31 87.5766 149.421C85.7625 149.698 84.1312 150.679 83.0364 152.151C81.9416 153.622 81.4718 155.466 81.7289 157.281V157.281Z" fill="white"/>
<path d="M82.7762 156.768C82.8549 157.467 83.0716 158.143 83.4136 158.757C83.7556 159.372 84.2161 159.912 84.7685 160.348C85.3209 160.783 85.9542 161.105 86.6319 161.294C87.3095 161.483 88.0179 161.536 88.7162 161.45C90.1272 161.234 91.3961 160.471 92.2476 159.327C93.0991 158.182 93.4644 156.748 93.2645 155.336C93.1857 154.637 92.969 153.961 92.6271 153.347C92.2851 152.733 91.8246 152.192 91.2722 151.757C90.7197 151.321 90.0864 151 89.4088 150.81C88.7311 150.621 88.0227 150.568 87.3244 150.654C85.9134 150.87 84.6445 151.633 83.7931 152.778C82.9416 153.922 82.5762 155.356 82.7762 156.768V156.768Z" fill="black"/>
<path d="M84.3222 157.407C84.3451 157.61 84.408 157.807 84.5074 157.985C84.6067 158.164 84.7405 158.321 84.901 158.447C85.0615 158.574 85.2455 158.667 85.4424 158.722C85.6392 158.777 85.8451 158.793 86.0479 158.768C86.4578 158.705 86.8265 158.483 87.0738 158.151C87.3212 157.818 87.4274 157.401 87.3693 156.991C87.3464 156.788 87.2834 156.592 87.1841 156.413C87.0848 156.235 86.951 156.078 86.7905 155.951C86.63 155.825 86.446 155.731 86.2491 155.676C86.0523 155.621 85.8465 155.606 85.6436 155.631C85.2337 155.693 84.865 155.915 84.6176 156.248C84.3703 156.58 84.2641 156.997 84.3222 157.407V157.407Z" fill="white"/>
</svg>
