<svg width="213" height="639" viewBox="0 0 213 639" fill="none" xmlns="http://www.w3.org/2000/svg">
<path d="M97.6992 170.845L104.338 172.86L108.638 173.903L104.483 172.378L97.8444 170.36L97.6992 170.845Z" fill="#8F7ECE"/>
<path d="M100.464 169.706L94.6778 167.95L93.7441 171.067L99.5071 172.817C99.6899 173.627 100.157 174.41 100.842 175.062L102.804 168.61C101.881 168.764 101.065 169.144 100.464 169.706Z" fill="#FF5000"/>
<path d="M94.7026 166.516C94.9606 166.594 95.1058 166.866 95.0277 167.125L93.5911 171.915C93.5151 172.174 93.242 172.32 92.9861 172.241C92.7302 172.163 92.5844 171.89 92.661 171.632L94.0973 166.842C94.176 166.583 94.4467 166.437 94.7026 166.516Z" fill="#FF5000"/>
<path fill-rule="evenodd" clip-rule="evenodd" d="M41.3417 165.716C41.2651 165.676 41.293 165.627 41.3295 165.575C42.6922 165.09 44.0385 164.436 45.4017 163.957C46.1822 165.09 47.4546 165.045 48.2882 164.064C49.2463 164.323 53.0181 165.273 53.9823 165.603C53.1858 166.855 51.7557 167.4 50.7102 168.425C48.5228 167.728 43.5388 166.544 41.3417 165.716Z" fill="#8F7ECE"/>
<path opacity="0.62" fill-rule="evenodd" clip-rule="evenodd" d="M41.3417 165.716C41.2651 165.676 41.293 165.627 41.3295 165.575C42.6922 165.09 44.0385 164.436 45.4017 163.957C46.1822 165.09 47.4546 165.045 48.2882 164.064C49.2463 164.323 53.0181 165.273 53.9823 165.603C53.1858 166.855 51.7557 167.4 50.7102 168.425C48.5228 167.728 43.5388 166.544 41.3417 165.716Z" fill="white"/>
<path fill-rule="evenodd" clip-rule="evenodd" d="M47.4824 166.319C48.3047 164.575 50.7878 163.373 52.1947 163.296C53.8192 163.207 55.8685 164.097 57.7587 164.728C59.7493 165.392 61.5569 165.912 63.2856 166.458C66.9669 167.618 70.3296 168.605 74.3419 169.918C78.2844 171.21 82.0826 172.567 85.4177 173.617C87.16 174.165 88.9873 174.869 90.9671 175.584C92.6771 176.2 94.4608 176.797 95.9609 177.883C96.1752 178.038 96.2224 178.928 96.4243 179.104C98.9647 181.327 99.768 183.905 100.025 186.613C100.114 187.546 100.137 188.465 99.6166 189.079C98.8976 189.924 97.9298 189.331 96.8699 189.079C95.713 188.804 94.5507 189.125 93.501 188.758C92.2594 188.325 91.039 187.845 89.712 187.36C88.1626 186.793 86.748 186.466 85.4453 185.165C84.5873 184.306 84.3474 183.241 83.4348 182.36C82.1722 181.136 80.442 180.664 78.9235 180.065C77.3566 179.448 75.9658 178.983 74.4725 178.481C68.3298 176.411 62.8561 174.712 56.7612 172.552C55.3727 172.061 54.019 171.647 52.3093 170.967C51.1007 170.485 48.7774 169.741 47.8612 168.727C47.396 168.212 47.1036 167.119 47.4824 166.319Z" fill="#FF5000"/>
<path d="M100.181 189.443C100.701 188.829 100.682 187.541 100.592 186.608C100.335 183.9 99.1268 180.6 96.5864 178.378C96.4246 178.236 96.2554 178.107 96.0847 177.979C94.9361 178.784 94.9839 180.213 94.7007 181.278C94.0357 183.779 93.3552 186.539 93.5028 188.755C94.5528 189.123 95.6162 189.457 96.7735 189.733C97.833 189.985 99.4623 190.288 100.181 189.443Z" fill="#EFAD1B"/>
<path fill-rule="evenodd" clip-rule="evenodd" d="M49.324 167.114C49.2338 166.482 50.8143 165.524 51.5432 165.377C52.7238 165.137 55.1395 166.069 56.6049 166.493C61.6595 167.949 66.8661 169.592 71.9034 171.139C77.3538 172.812 81.7713 174.114 87.2299 176.141C88.8562 176.744 91.2656 177.595 92.3234 179.039C92.9543 179.903 93.3224 182.347 92.3941 183.38C91.2582 184.641 88.5433 183.733 87.1996 182.811C86.4586 182.301 85.8649 181.551 85.1506 180.963C83.7057 179.77 82.1299 179.168 80.5763 178.614C76.2702 177.079 71.4267 175.51 67.1143 173.989C64.0766 172.918 61.0636 171.839 58.086 170.713C56.6176 170.156 55.0947 169.665 53.5794 169.193C52.1233 168.738 50.3696 168.444 49.324 167.114Z" fill="#8F7ECE"/>
<path opacity="0.62" fill-rule="evenodd" clip-rule="evenodd" d="M49.324 167.114C49.2338 166.482 50.8143 165.524 51.5432 165.377C52.7238 165.137 55.1395 166.069 56.6049 166.493C61.6595 167.949 66.8661 169.592 71.9034 171.139C77.3538 172.812 81.7713 174.114 87.2299 176.141C88.8562 176.744 91.2656 177.595 92.3234 179.039C92.9543 179.903 93.3224 182.347 92.3941 183.38C91.2582 184.641 88.5433 183.733 87.1996 182.811C86.4586 182.301 85.8649 181.551 85.1506 180.963C83.7057 179.77 82.1299 179.168 80.5763 178.614C76.2702 177.079 71.4267 175.51 67.1143 173.989C64.0766 172.918 61.0636 171.839 58.086 170.713C56.6176 170.156 55.0947 169.665 53.5794 169.193C52.1233 168.738 50.3696 168.444 49.324 167.114Z" fill="white"/>
<path d="M55.2296 166.065C55.0527 166.009 54.8743 165.953 54.6938 165.897C53.5579 166.696 52.4298 167.596 51.3008 168.483C51.4851 168.555 51.6704 168.62 51.8595 168.682C52.4417 168.255 53.0232 167.796 53.601 167.345C54.1445 166.919 54.6988 166.5 55.2296 166.065Z" fill="#8F7ECE"/>
<path d="M59.7836 167.426C59.6004 167.568 59.4335 167.751 59.2664 167.873C58.344 168.547 57.294 169.327 56.3867 170.105C56.5933 170.174 56.7997 170.243 57.0054 170.317C58.0546 169.5 59.0826 168.45 60.1235 167.526C60.0098 167.492 59.8973 167.459 59.7836 167.426Z" fill="#8F7ECE"/>
<path d="M65.8214 169.261C64.5392 170.14 63.1489 171.102 61.916 172.129C62.0677 172.185 62.2188 172.241 62.3717 172.295C63.6676 171.394 64.956 170.417 66.2391 169.391C66.0999 169.349 65.9603 169.304 65.8214 169.261Z" fill="#8F7ECE"/>
<path d="M70.674 170.762C69.4167 171.696 68.1366 172.817 67.0117 173.952C67.0467 173.964 67.0806 173.977 67.1132 173.988C67.2074 174.023 67.3068 174.056 67.4042 174.089C68.622 173.097 69.9057 171.994 71.062 170.879C70.9328 170.84 70.8037 170.801 70.674 170.762Z" fill="#8F7ECE"/>
<path d="M75.7753 172.325C74.4975 173.241 73.2367 174.354 71.9922 175.668C72.1356 175.716 72.2778 175.764 72.4221 175.812C73.6609 174.74 74.9503 173.528 76.1398 172.438C76.0184 172.401 75.897 172.364 75.7753 172.325Z" fill="#8F7ECE"/>
<path d="M80.8038 173.908C79.5816 174.863 78.0372 176.085 76.8242 177.308C76.9827 177.362 77.1401 177.417 77.298 177.469C78.5749 176.361 79.8414 175.113 81.12 174.011C81.0149 173.978 80.9086 173.942 80.8038 173.908Z" fill="#8F7ECE"/>
<path d="M85.5693 175.533C85.4191 175.48 85.2695 175.426 85.1213 175.375C83.8329 176.45 82.5302 177.658 81.2812 178.871C81.4816 178.945 81.682 179.023 81.8809 179.103C81.9483 179.035 82.0145 178.968 82.0807 178.902C83.197 177.784 84.4145 176.595 85.5693 175.533Z" fill="#8F7ECE"/>
<path d="M89.7093 177.139C89.5923 177.085 89.4738 177.03 89.3554 176.978C89.0244 177.34 88.6904 177.709 88.3374 178.07C87.3711 179.059 86.2824 180.137 85.4883 181.259C85.6112 181.374 85.7344 181.492 85.8549 181.609C87.1493 180.242 88.4238 178.627 89.7093 177.139Z" fill="#8F7ECE"/>
<path d="M90.0312 183.937C90.1687 183.959 90.3053 183.974 90.4403 183.985C91.271 183.046 92.1052 181.987 92.929 181.006C92.9198 180.893 92.9071 180.783 92.8905 180.673C91.936 181.743 90.9872 182.886 90.0312 183.937Z" fill="#8F7ECE"/>
<path fill-rule="evenodd" clip-rule="evenodd" d="M90.9835 185.96C91.7489 185.69 93.0848 185.98 94.3816 186.343C94.9358 186.501 95.83 186.766 95.7472 187.283C95.6486 187.9 94.5864 187.759 94.2061 187.708C93.0035 187.544 91.5823 187.1 90.896 186.642C90.7974 186.476 90.8529 186.14 90.9835 185.96Z" fill="white"/>
<path fill-rule="evenodd" clip-rule="evenodd" d="M94.6548 185.061C94.6129 183.745 97.4448 184.138 97.1782 185.198C97.0627 185.656 95.6241 185.98 94.9917 185.659C94.7658 185.543 94.6625 185.287 94.6548 185.061Z" fill="white"/>
<path d="M50.8079 185.479C51.3149 186.999 52.9558 187.817 54.4627 187.306L61.379 184.968C61.5916 184.898 61.707 184.664 61.634 184.451C61.5633 184.235 61.3327 184.12 61.1186 184.193L54.2017 186.532C53.1205 186.897 51.9446 186.308 51.5824 185.22C51.2178 184.131 51.8027 182.945 52.8836 182.582L60.874 179.879C61.631 179.624 62.4516 180.034 62.706 180.796C62.9581 181.557 62.5519 182.384 61.7949 182.637L55.1915 184.872C54.7468 185.024 54.2617 184.78 54.1121 184.332C53.9619 183.883 54.2047 183.396 54.6479 183.243L59.5357 181.592C59.7483 181.521 59.8637 181.289 59.7901 181.074C59.7195 180.858 59.4903 180.744 59.2762 180.816L54.3894 182.467C53.5192 182.764 53.0472 183.716 53.3408 184.595C53.6323 185.47 54.5814 185.944 55.4513 185.651L62.0547 183.419C63.2359 183.019 63.8745 181.724 63.4773 180.536C63.0801 179.346 61.7964 178.701 60.6166 179.101L52.6244 181.804C51.1163 182.313 50.3032 183.961 50.8079 185.479Z" fill="#B1BC00"/>
<path d="M145.733 390.159C145.599 390.2 145.459 390.197 145.332 390.156C145.134 390.09 144.966 389.931 144.899 389.716L141.967 380.147C141.9 379.93 141.951 379.704 142.078 379.538C142.161 379.432 142.275 379.348 142.408 379.307L162.825 373.675C163.181 373.564 163.552 373.765 163.661 374.121L166.197 382.4C166.306 382.754 166.11 383.132 165.757 383.24L146.499 389.894L145.733 390.159Z" fill="#4D3D87"/>
<path d="M132.993 389.865L124.742 392.426L123.09 390.732L122.168 389.785L132.032 386.725L132.993 389.865Z" fill="#B1BC00"/>
<path d="M138.538 393.939L134.21 395.283C133.769 395.42 133.295 395.172 133.159 394.722L132.154 391.449C132.019 391.003 131.544 390.747 131.101 390.888L128.284 391.761C127.841 391.9 127.368 391.651 127.23 391.201L126.537 388.936C126.401 388.491 126.651 388.015 127.093 387.876L129.912 387.001C130.353 386.864 130.606 386.392 130.469 385.941L129.464 382.668C129.329 382.222 129.579 381.744 130.021 381.607L134.348 380.263C134.796 380.125 135.265 380.38 135.402 380.824L139.095 392.878C139.234 393.329 138.984 393.801 138.538 393.939Z" fill="#4D3D87"/>
<path d="M138.39 394.149C138.218 394.203 138.034 394.195 137.874 394.146C137.619 394.06 137.403 393.856 137.316 393.575L133.542 381.255C133.457 380.976 133.52 380.685 133.684 380.468C133.791 380.335 133.935 380.227 134.109 380.173L160.403 372.919C160.856 372.776 161.337 373.035 161.477 373.494L164.743 384.153C164.884 384.613 164.63 385.1 164.177 385.24L139.378 393.806L138.39 394.149Z" fill="#B1BC00"/>
<path fill-rule="evenodd" clip-rule="evenodd" d="M155.559 375.709C156.246 376.031 157.519 375.887 158.762 375.668C159.291 375.575 160.149 375.41 160.118 374.92C160.084 374.339 159.08 374.369 158.723 374.382C157.587 374.423 156.223 374.705 155.541 375.067C155.432 375.212 155.453 375.531 155.559 375.709Z" fill="white"/>
<path fill-rule="evenodd" clip-rule="evenodd" d="M158.898 376.892C158.738 378.111 161.411 378.01 161.26 376.999C161.194 376.56 159.881 376.123 159.265 376.363C159.043 376.451 158.925 376.677 158.898 376.892Z" fill="white"/>
<path fill-rule="evenodd" clip-rule="evenodd" d="M137.475 386.527C138.2 386.978 138.848 388.267 139.412 389.574C139.651 390.134 140.025 391.043 139.552 391.317C138.986 391.645 138.397 390.678 138.188 390.333C137.526 389.236 136.947 387.774 136.865 386.906C136.932 386.716 137.242 386.54 137.475 386.527Z" fill="white"/>
<path fill-rule="evenodd" clip-rule="evenodd" d="M140.632 388.95C141.671 388.045 143.224 390.632 142.189 391.114C141.741 391.322 140.526 390.354 140.368 389.623C140.312 389.36 140.452 389.109 140.632 388.95Z" fill="white"/>
<path d="M122.951 398.94L121.943 399.218L115.98 400.199C115.526 400.342 115.046 400.08 114.904 399.623L111.639 388.964C111.498 388.506 111.749 388.019 112.206 387.877L118.669 384.966C118.844 384.913 119.025 384.919 119.187 384.97C119.444 385.055 119.659 385.258 119.743 385.539L123.519 397.859C123.604 398.138 123.541 398.431 123.376 398.646C123.272 398.78 123.125 398.886 122.951 398.94Z" fill="#4D3D87"/>
<path fill-rule="evenodd" clip-rule="evenodd" d="M115.645 396.223C114.905 395.809 113.882 392.505 115.021 392.224C115.95 391.997 116.785 394.934 116.359 395.841C116.248 396.078 116.108 396.186 115.645 396.223Z" fill="white"/>
<path fill-rule="evenodd" clip-rule="evenodd" d="M117.294 391.773C116.327 392.373 115.88 390.699 116.465 390.352C117.252 389.884 118.148 391.243 117.294 391.773Z" fill="white"/>
<path fill-rule="evenodd" clip-rule="evenodd" d="M114.434 390.834C113.423 391.212 112.764 388.66 113.728 388.438C114.134 388.345 114.308 388.595 114.561 389.067C114.935 389.763 115.14 390.57 114.434 390.834Z" fill="white"/>
<path d="M167.011 500.121C166.523 495.788 165.861 491.406 165.048 487.277C164.637 485.193 164.308 483.174 163.709 481.258C163.131 479.408 162.624 477.491 161.931 475.911C161.896 475.883 161.863 475.82 161.835 475.78C160.542 473.929 159.097 470.654 155.767 470.84C153.359 470.973 151.598 473.761 150.502 475.869C149.798 477.222 149.273 478.63 148.814 480.063C148.909 480.096 149.022 480.11 149.162 480.091C151.145 482.895 152.235 487.274 153.089 491.588C154.697 499.721 155.208 508.259 155.767 517.276C156.576 530.384 157.868 545.119 156.214 558.142C154.77 569.497 154.274 575.003 142.744 581.724C152.174 582.947 162.455 578.428 164.957 568.562C165.967 564.584 166.72 560.242 167.189 555.985C168.176 547.005 168.706 537.84 168.706 527.962C168.705 518.301 168.008 508.978 167.011 500.121Z" fill="#4D3D87"/>
<path d="M155.767 470.839C159.096 470.653 160.541 473.929 161.834 475.779C161.863 475.82 161.896 475.882 161.931 475.911C161.959 475.935 161.987 475.934 162.013 475.868C160.506 472.332 159.451 469.848 157.373 467.515C155.832 465.787 153.74 464.357 151.369 463.595C150.875 463.436 149.478 464.329 148.962 464.232C148.304 464.108 148.522 463.013 147.838 463.002C146.436 462.978 144.988 463.205 143.541 463.743C139.664 465.184 136.104 468.922 134.349 473.174C133.464 475.323 132.741 477.693 132.119 480.27C131.476 482.931 130.778 485.771 131.048 488.533C131.335 491.49 132.995 493.418 134.795 495.091C135.964 496.176 137.346 497.507 139.347 497.516C143.001 497.533 144.462 494.019 145.415 491.229C146.28 488.7 147.065 486.08 147.824 483.414C148.145 482.29 148.46 481.169 148.815 480.062C149.273 478.63 149.798 477.221 150.502 475.869C151.597 473.76 153.359 470.973 155.767 470.839Z" fill="#8F7ECE"/>
<path d="M141.666 477.126C142.804 474.117 144.271 471.281 146.216 468.682C147.608 466.825 149.431 465.423 151.124 463.832C151.19 463.77 151.271 463.689 151.36 463.592C150.229 463.23 149.035 463.021 147.809 463.003C146.418 463.875 145.232 464.98 144.165 466.077C139.112 471.272 136.617 477.425 134.885 485.659C134.323 488.325 133.867 490.505 134.081 493.653C134.098 493.909 134.128 494.195 134.171 494.491C134.377 494.695 134.585 494.894 134.794 495.09C135.279 495.54 135.802 496.032 136.389 496.455C136.534 496.064 136.639 495.575 136.758 495.09C138.288 488.884 139.659 482.431 141.666 477.126Z" fill="#EFAD1B"/>
<path fill-rule="evenodd" clip-rule="evenodd" d="M156.117 475.405C156.716 474.865 157.629 475.66 158.08 476.213C158.618 476.875 159.175 478.072 159.508 479.087C159.902 480.295 160.265 481.629 160.131 482.68C160.049 483.342 159.604 483.822 159.24 483.847C158.151 483.924 157.303 480.858 157.008 480.075C156.43 478.531 155.762 477.007 156.117 475.405Z" fill="white"/>
<path fill-rule="evenodd" clip-rule="evenodd" d="M160.398 487.89C161.899 487.197 162.671 492.184 161.29 492.112C160.524 492.072 159.39 488.356 160.398 487.89Z" fill="white"/>
<path d="M49.7769 500.121C50.2658 495.788 50.9264 491.406 51.741 487.277C52.1501 485.193 52.4811 483.174 53.0787 481.258C53.6565 479.408 54.1644 477.491 54.8576 475.911C54.8909 475.883 54.9253 475.82 54.9541 475.78C56.2446 473.929 57.6919 470.654 61.0216 470.84C63.4296 470.973 65.1894 473.761 66.2858 475.869C66.9894 477.222 67.5158 478.63 67.9741 480.063C67.8776 480.096 67.7654 480.11 67.625 480.091C65.6419 482.895 64.5518 487.274 63.6977 491.588C62.0889 499.721 61.578 508.259 61.0216 517.276C60.2109 530.384 58.92 545.119 60.5751 558.142C62.0167 569.497 62.5134 575.003 74.0426 581.724C64.6135 582.947 54.3339 578.428 51.8295 568.562C50.8204 564.584 50.0666 560.242 49.5997 555.985C48.6128 547.005 48.082 537.84 48.082 527.962C48.0817 518.301 48.7779 508.978 49.7769 500.121Z" fill="#4D3D87"/>
<path d="M61.0213 470.839C57.6916 470.653 56.2443 473.929 54.9538 475.779C54.925 475.82 54.8909 475.882 54.8573 475.911C54.8276 475.935 54.7994 475.935 54.7754 475.868C56.2817 472.332 57.3353 469.848 59.4141 467.515C60.9492 465.793 63.0318 464.367 65.3919 463.603C65.9403 463.426 67.5161 463.952 68.0908 463.851C68.6953 463.744 68.3001 463.014 68.9265 463.002C70.3361 462.975 71.7908 463.202 73.2458 463.743C77.1238 465.184 80.6837 468.922 82.4373 473.174C83.3241 475.323 84.0461 477.693 84.6692 480.27C85.3099 482.931 86.0084 485.771 85.7383 488.533C85.4512 491.49 83.7917 493.418 81.9908 495.091C80.8247 496.176 79.4421 497.507 77.4409 497.516C73.7861 497.533 72.326 494.019 71.3719 491.229C70.508 488.7 69.723 486.08 68.9636 483.414C68.6424 482.29 68.3265 481.169 67.9736 480.063C67.5152 478.63 66.9888 477.222 66.2852 475.869C65.1895 473.76 63.4296 470.973 61.0213 470.839Z" fill="#8F7ECE"/>
<path d="M75.121 477.126C73.9831 474.117 72.5147 471.281 70.5696 468.682C69.1782 466.825 67.3553 465.423 65.6608 463.832C65.597 463.77 65.5159 463.689 65.4277 463.592C66.5568 463.23 67.7508 463.021 68.9769 463.003C70.3668 463.875 71.5552 464.98 72.621 466.077C77.6735 471.272 80.1706 477.425 81.9013 485.659C82.463 488.325 82.9187 490.505 82.7062 493.653C82.6881 493.909 82.6575 494.195 82.6144 494.491C82.4093 494.695 82.203 494.894 81.991 495.09C81.5059 495.54 80.9852 496.032 80.3968 496.455C80.254 496.064 80.1477 495.575 80.0278 495.09C78.4974 488.884 77.127 482.431 75.121 477.126Z" fill="#EFAD1B"/>
<path fill-rule="evenodd" clip-rule="evenodd" d="M60.6687 475.405C60.0682 474.865 59.1556 475.66 58.7046 476.213C58.167 476.875 57.6098 478.072 57.2773 479.087C56.8824 480.295 56.5196 481.629 56.6532 482.68C56.7366 483.342 57.1817 483.822 57.5459 483.847C58.6346 483.924 59.4818 480.858 59.7758 480.075C60.3558 478.531 61.0232 477.007 60.6687 475.405Z" fill="white"/>
<path fill-rule="evenodd" clip-rule="evenodd" d="M56.3862 487.89C54.8852 487.197 54.114 492.184 55.4935 492.112C56.2601 492.072 57.3935 488.356 56.3862 487.89Z" fill="white"/>
<path fill-rule="evenodd" clip-rule="evenodd" d="M127.812 488.732C127.687 489.013 123.787 487.439 122.646 487.434C122.659 485.725 122.74 480.745 122.633 479.168C122.537 477.757 122.411 476.187 121.683 475.555C120.829 474.814 117.959 474.71 115.982 474.598C111.483 474.342 107.773 474.28 102.998 474.28C100.735 474.28 98.3366 474.318 97.191 475.023C95.3545 476.155 94.7616 483.843 93.9135 486.049C92.0853 486.049 90.3073 485.997 88.6356 485.837C88.5679 481.965 89.7305 475.141 91.0682 472.898C92.7491 470.084 95.6977 469.018 100.119 468.695C100.37 468.677 100.626 470.155 100.886 470.142C102.812 470.04 105.532 470.172 108.17 470.354C112.137 470.627 116.653 468.883 120.38 469.505C122.832 469.914 124.942 470.7 126.329 472.26C128.475 474.676 128.394 484.404 127.812 488.732Z" fill="#4D3D87"/>
<path fill-rule="evenodd" clip-rule="evenodd" d="M101.097 471.836C101.834 472.402 103.769 472.443 105.425 472.367C108.828 472.211 111.733 472.26 115.032 472.26C116.727 472.26 118.723 472.375 119.465 471.836C120.041 471.417 120.275 470.432 120.31 469.495C116.597 468.887 112.113 469.131 108.169 468.86C105.532 468.679 102.811 468.546 100.885 468.648C100.617 468.662 100.354 468.679 100.096 468.698C100.012 469.749 100.378 471.282 101.097 471.836Z" fill="#8F7ECE"/>
<path fill-rule="evenodd" clip-rule="evenodd" d="M108.279 478.322C116.228 477.941 123.655 479.062 129.708 480.875C131.22 481.328 132.662 481.917 134.061 482.534C135.446 483.144 136.81 483.783 138.077 484.492C140.652 485.93 142.749 487.903 144.461 490.108C145.35 491.255 146.174 492.413 146.869 493.724C148.922 497.604 150.318 502.284 151.138 507.466C152.218 514.289 152.471 522.6 152.154 530.179C151.995 533.94 151.594 537.638 151.265 541.326C150.941 544.969 150.557 548.64 150.25 552.346C149.628 559.87 149.492 567.683 148.094 574.257C147.737 575.942 147.269 577.45 146.616 578.809C145.957 580.18 145.244 581.422 144.248 582.426C143.219 583.464 142.003 584.165 140.529 584.724C139.798 585.001 139.089 585.299 138.288 585.49C137.496 585.678 136.664 585.8 135.753 585.914C130.569 586.571 124.679 586.851 118.719 586.851C116.778 586.851 114.847 587.021 112.929 587.021C110.986 587.021 108.995 587.064 106.969 586.977C105.038 586.896 103.054 586.851 101.093 586.851C97.1761 586.851 93.276 586.647 89.6396 586.34C87.731 586.179 85.9174 586.023 84.2282 585.744C82.5398 585.466 80.9827 584.958 79.6646 584.341C76.8891 583.042 75.3311 580.689 74.1688 577.831C73.0012 574.959 72.5503 571.472 72.1409 567.832C71.9375 566.036 71.7066 564.198 71.5911 562.344C71.4711 560.445 71.4035 558.54 71.2942 556.643C71.0846 552.994 70.6399 549.212 70.3225 545.581C69.662 538.014 68.886 531.016 68.8848 523.032C68.8848 519.132 69.1309 515.264 69.5195 511.636C69.9096 508.002 70.5012 504.549 71.3803 501.467C72.2715 498.336 73.2957 495.394 74.8027 492.873C77.0491 489.114 80.0084 486.03 83.9743 484.023C85.272 483.366 86.6127 482.679 88.0323 482.108C90.8799 480.964 93.998 480.131 97.3741 479.47C100.731 478.814 104.304 478.322 108.195 478.322C108.222 478.322 108.25 478.323 108.279 478.322Z" fill="#FF5000"/>
<path fill-rule="evenodd" clip-rule="evenodd" d="M108.279 478.322C116.228 477.941 123.655 479.062 129.708 480.875C131.22 481.328 132.662 481.917 134.061 482.534C135.446 483.144 136.81 483.783 138.077 484.492C140.652 485.93 142.749 487.903 144.461 490.108C145.35 491.255 146.174 492.413 146.869 493.724C148.922 497.604 150.318 502.284 151.138 507.466C152.218 514.289 152.471 522.6 152.154 530.179C151.995 533.94 151.594 537.638 151.265 541.326C150.941 544.969 150.557 548.64 150.25 552.346C149.628 559.87 149.492 567.683 148.094 574.257C147.737 575.942 147.269 577.45 146.616 578.809C145.957 580.18 145.244 581.422 144.248 582.426C143.219 583.464 142.003 584.165 140.529 584.724C139.798 585.001 139.089 585.299 138.288 585.49C137.496 585.678 136.664 585.8 135.753 585.914C130.569 586.571 124.679 586.851 118.719 586.851C116.778 586.851 114.847 587.021 112.929 587.021C110.986 587.021 108.995 587.064 106.969 586.977C105.038 586.896 103.054 586.851 101.093 586.851C97.1761 586.851 93.276 586.647 89.6396 586.34C87.731 586.179 85.9174 586.023 84.2282 585.744C82.5398 585.466 80.9827 584.958 79.6646 584.341C76.8891 583.042 75.3311 580.689 74.1688 577.831C73.0012 574.959 72.5503 571.472 72.1409 567.832C71.9375 566.036 71.7066 564.198 71.5911 562.344C71.4711 560.445 71.4035 558.54 71.2942 556.643C71.0846 552.994 70.6399 549.212 70.3225 545.581C69.662 538.014 68.886 531.016 68.8848 523.032C68.8848 519.132 69.1309 515.264 69.5195 511.636C69.9096 508.002 70.5012 504.549 71.3803 501.467C72.2715 498.336 73.2957 495.394 74.8027 492.873C77.0491 489.114 80.0084 486.03 83.9743 484.023C85.272 483.366 86.6127 482.679 88.0323 482.108C90.8799 480.964 93.998 480.131 97.3741 479.47C100.731 478.814 104.304 478.322 108.195 478.322C108.222 478.322 108.25 478.323 108.279 478.322Z" fill="#FF5000"/>
<path d="M142.763 569.348C142.487 572.638 142.115 575.818 141.491 578.752C141.133 580.437 140.667 581.944 140.013 583.303C139.671 584.014 139.314 584.689 138.912 585.315C139.467 585.14 139.993 584.926 140.529 584.724C142.003 584.164 143.219 583.464 144.248 582.426C145.244 581.422 145.957 580.18 146.616 578.809C147.269 577.449 147.737 575.942 148.094 574.257C148.513 572.293 148.815 570.219 149.055 568.075C147.029 568.075 144.159 568.67 142.763 569.348Z" fill="#EFAD1B"/>
<path opacity="0.21" d="M144.249 582.426C145.245 581.422 145.958 580.18 146.617 578.809C147.269 577.449 147.737 575.942 148.095 574.257C149.492 567.683 149.628 559.87 150.25 552.346C150.558 548.64 150.942 544.969 151.266 541.326C151.594 537.637 151.995 533.94 152.154 530.179C152.472 522.6 152.219 514.289 151.138 507.466C150.319 502.284 148.923 497.604 146.869 493.724C146.175 492.413 145.351 491.255 144.461 490.108C142.749 487.903 140.652 485.929 138.078 484.491C136.811 483.783 135.446 483.144 134.062 482.534C132.662 481.917 131.221 481.328 129.709 480.875C123.656 479.062 116.229 477.941 108.28 478.322C108.251 478.323 108.223 478.322 108.196 478.322C104.305 478.322 100.731 478.814 97.3749 479.471C93.9988 480.132 90.8807 480.964 88.0331 482.109C86.6135 482.68 85.2728 483.366 83.9751 484.023C81.9611 485.043 80.2072 486.342 78.6738 487.865C79.5645 487.422 80.4785 486.986 81.4297 486.604C84.2767 485.459 87.3948 484.627 90.7709 483.966C94.1259 483.309 97.6999 482.817 101.591 482.817C101.62 482.817 101.648 482.818 101.677 482.817C109.625 482.436 117.053 483.557 123.106 485.37C124.619 485.822 126.059 486.412 127.459 487.029C128.843 487.639 130.207 488.278 131.475 488.986C134.048 490.424 136.146 492.398 137.857 494.602C138.748 495.75 139.572 496.907 140.266 498.218C142.32 502.099 143.716 506.779 144.536 511.961C145.615 518.781 145.866 527.093 145.549 534.675C145.392 538.436 144.99 542.132 144.662 545.82C144.338 549.463 143.954 553.136 143.647 556.84C143.026 564.366 142.889 572.177 141.492 578.751C141.134 580.437 140.668 581.944 140.014 583.303C139.672 584.014 139.315 584.689 138.913 585.314C139.468 585.139 139.994 584.925 140.53 584.724C142.004 584.164 143.219 583.464 144.249 582.426Z" fill="black"/>
<path fill-rule="evenodd" clip-rule="evenodd" d="M101.676 482.816C109.625 482.435 117.052 483.557 123.106 485.369C124.619 485.822 126.058 486.412 127.458 487.029C128.842 487.639 130.207 488.277 131.475 488.986C134.048 490.424 136.146 492.397 137.856 494.602C138.748 495.749 139.571 496.907 140.266 498.218C142.32 502.098 143.716 506.779 144.535 511.96C145.615 518.781 145.866 527.093 145.549 534.674C145.391 538.435 144.99 542.131 144.662 545.82C144.337 549.463 143.954 553.135 143.647 556.839C143.303 561.007 143.107 565.262 142.764 569.347C141.936 572.32 141.398 575.282 140.774 578.215C140.416 579.901 139.567 581.13 138.912 582.49C138.252 583.861 137.859 584.876 136.863 585.879C135.834 586.917 135.044 587.576 133.572 588.136C132.841 588.414 132.541 588.706 131.742 588.896C130.949 589.086 130.043 589.649 129.133 589.763C127.599 589.957 126.021 590.763 124.381 590.894C120.475 591.205 116.312 591.344 112.115 591.345C110.175 591.345 108.242 591.514 106.324 591.515C104.382 591.515 102.392 591.559 100.366 591.472C98.4341 591.39 96.4498 591.345 94.4895 591.345C90.7756 591.345 87.0765 591.163 83.6016 590.882C83.4119 590.867 82.4215 589.972 82.233 589.956C80.3259 589.795 79.4608 589.568 77.7731 589.289C76.0815 589.012 75.29 588.763 73.9722 588.146C71.1973 586.848 70.0472 584.776 68.8849 581.918C67.7164 579.045 66.6453 576.093 66.2353 572.455C66.1246 571.473 65.3064 570.35 65.2022 569.347C65.1161 568.515 65.0401 567.678 64.9879 566.838C64.8679 564.939 64.8002 563.034 64.691 561.137C64.4814 557.487 64.0367 553.707 63.7193 550.074C63.0573 542.507 62.2827 535.51 62.2812 527.526C62.2812 523.623 62.5265 519.757 62.916 516.127C63.304 512.496 63.8968 509.043 64.7744 505.96C65.6671 502.83 66.6922 499.889 68.1983 497.367C70.4456 493.608 73.4049 490.524 77.3708 488.517C78.6682 487.861 80.0083 487.173 81.4288 486.603C84.2758 485.458 87.3939 484.625 90.77 483.964C94.125 483.308 97.699 482.815 101.59 482.815C101.619 482.816 101.647 482.818 101.676 482.816Z" fill="#FF5000"/>
<path d="M73.3972 571.933C71.3648 570.654 68.5718 569.374 65.2031 569.348C65.3064 570.352 65.4249 571.347 65.5356 572.328C65.9456 575.966 66.3966 579.453 67.5651 582.327C68.7273 585.184 70.2853 587.537 73.0602 588.835C74.378 589.452 75.9346 589.962 77.6259 590.239C79.3136 590.518 81.1272 590.674 83.0343 590.836C83.2211 590.851 83.4131 590.864 83.6014 590.879C83.0435 585.587 81.6936 581.591 79.2308 577.93C77.6214 575.538 75.8942 573.501 73.3972 571.933Z" fill="#EFAD1B"/>
<path d="M131.684 589.983C132.483 589.794 133.193 589.497 133.924 589.218C135.397 588.658 136.614 587.958 137.644 586.92C138.64 585.917 139.351 584.674 140.011 583.303C140.666 581.943 141.131 580.437 141.49 578.751C142.113 575.818 142.486 572.638 142.761 569.349C139.4 569.379 136.613 570.657 134.583 571.932C132.086 573.5 130.362 575.537 128.751 577.93C126.286 581.593 124.936 585.593 124.379 590.893C126.019 590.763 127.615 590.603 129.148 590.408C130.058 590.294 130.891 590.173 131.684 589.983Z" fill="#EFAD1B"/>
<path fill-rule="evenodd" clip-rule="evenodd" d="M81.7569 491.692C80.1663 490.695 84.2881 488.113 84.4695 489.961C84.5651 490.925 82.6642 491.623 81.7569 491.692Z" fill="white"/>
<path fill-rule="evenodd" clip-rule="evenodd" d="M78.4896 491.613C78.8806 491.546 79.7181 491.621 79.7908 492.42C79.8909 493.465 78.1918 494.696 77.612 495.312C76.9052 496.063 75.9107 497.795 74.787 497.516C73.1845 497.118 75.0702 494.786 75.7518 494.011C76.1155 493.599 76.5095 493.231 76.8327 492.898C77.3888 492.328 77.7364 491.743 78.4896 491.613Z" fill="white"/>
<path fill-rule="evenodd" clip-rule="evenodd" d="M136.763 508.604C135.903 507.89 135.289 506.103 134.791 504.311C134.576 503.542 134.253 502.295 134.913 502.026C135.706 501.701 136.297 503.06 136.507 503.544C137.173 505.087 137.666 507.082 137.621 508.221C137.5 508.457 137.067 508.633 136.763 508.604Z" fill="white"/>
<path fill-rule="evenodd" clip-rule="evenodd" d="M132.805 502.772C131.298 503.758 129.74 500.127 131.166 499.688C131.786 499.499 133.191 500.972 133.264 501.947C133.289 502.297 133.066 502.6 132.805 502.772Z" fill="white"/>
<path fill-rule="evenodd" clip-rule="evenodd" d="M130.75 495.345C130.254 495.749 129.439 495.308 128.843 494.597C128.363 494.026 127.703 492.714 128.496 492.394C128.846 492.252 129.545 492.518 130.056 493.095C130.655 493.772 131.386 494.823 130.75 495.345Z" fill="white"/>
<path d="M147.032 514.839C146.386 515.217 145.164 515.901 144.789 515.556C144.577 515.359 144.829 514.864 145.07 514.452C145.357 513.964 145.799 513.471 146.267 512.949C147.093 512.025 147.95 511.069 148.17 509.897C148.282 509.299 148.084 508.942 147.901 508.748C147.331 508.152 146.195 508.322 144.99 508.501C144.294 508.605 142.995 508.799 142.805 508.515C142.784 508.482 142.6 508.142 143.402 506.753C143.471 506.634 143.601 506.444 143.75 506.225C144.635 504.926 145.477 503.574 145.188 502.574C145.074 502.186 144.806 501.893 144.409 501.723C143.89 501.5 143.166 501.665 142.324 501.854C141.647 502.007 140.72 502.216 140.429 502.01C140.407 501.994 140.354 501.957 140.337 501.804C140.297 501.478 140.654 500.844 140.893 500.424C140.984 500.262 141.068 500.112 141.131 499.984C141.201 499.844 141.274 499.702 141.344 499.56C141.71 498.842 142.087 498.097 142.304 497.289C142.632 496.066 142.449 495.232 141.767 494.813C140.991 494.339 139.968 494.781 139.221 495.104C139.063 495.172 138.918 495.235 138.792 495.28C138.714 495.309 138.62 495.347 138.515 495.389C137.883 495.647 137.507 495.743 137.393 495.672C137.305 495.428 137.687 494.486 137.813 494.176C137.88 494.01 137.938 493.866 137.975 493.762C138.021 493.621 138.094 493.447 138.173 493.255C138.472 492.541 138.842 491.649 138.659 490.975C138.546 490.565 138.313 490.361 138.136 490.262C137.654 489.99 137.065 490.162 136.594 490.299L136.43 490.346C136.201 490.41 135.942 490.513 135.668 490.622C135.134 490.834 134.405 491.124 134.032 491.013C133.722 490.92 133.621 490.461 133.715 489.567C133.73 489.418 133.799 489.122 133.87 488.808C134.161 487.552 134.561 485.832 133.857 484.998C133.821 484.955 133.773 484.911 133.724 484.868C133.722 484.86 133.724 484.854 133.724 484.845C133.709 484.836 133.694 484.833 133.678 484.824C133.616 484.792 133.555 484.761 133.498 484.742C132.466 484.394 131.028 485.405 129.976 486.143C129.715 486.328 129.467 486.501 129.333 486.572C128.545 486.991 128.084 487.067 127.883 486.81C127.643 486.503 127.64 485.714 127.637 485.138C127.635 484.841 127.635 484.561 127.609 484.321L127.59 484.152C127.543 483.659 127.484 483.046 127.053 482.696C126.895 482.567 126.622 482.425 126.202 482.472C125.511 482.551 124.827 483.228 124.277 483.772C124.13 483.918 123.997 484.049 123.885 484.146C123.801 484.219 123.69 484.326 123.563 484.45C123.323 484.683 122.595 485.391 122.338 485.399C122.231 485.319 122.179 484.931 122.182 484.244C122.182 484.131 122.183 484.029 122.18 483.945C122.176 483.811 122.179 483.652 122.185 483.479C122.205 482.66 122.233 481.54 121.508 480.992C120.867 480.508 120.031 480.647 119.025 481.408C118.358 481.911 117.813 482.539 117.285 483.147C117.181 483.268 117.076 483.387 116.973 483.505C116.879 483.612 116.771 483.746 116.655 483.892C116.356 484.27 115.905 484.84 115.59 484.923C115.441 484.963 115.387 484.928 115.365 484.913C115.066 484.717 114.915 483.773 114.805 483.084C114.668 482.227 114.55 481.488 114.153 481.086C113.849 480.778 113.479 480.637 113.079 480.675C112.051 480.776 111.114 482.062 110.243 483.373C110.097 483.594 109.971 483.785 109.886 483.893C108.904 485.159 108.522 485.114 108.482 485.106C108.15 485.033 107.847 483.749 107.684 483.058C107.402 481.867 107.138 480.741 106.376 480.43C106.129 480.33 105.726 480.278 105.216 480.604C104.217 481.245 103.654 482.399 103.107 483.517C102.8 484.147 102.508 484.743 102.163 485.193C101.873 485.571 101.511 485.991 101.248 485.864C100.756 485.626 100.999 484.03 101.103 483.348C101.136 483.13 101.164 482.939 101.178 482.793C101.204 482.514 101.001 482.266 100.722 482.238C100.442 482.21 100.198 482.417 100.173 482.696C100.159 482.827 100.134 482.998 100.103 483.194C99.9211 484.397 99.6447 486.215 100.809 486.78C101.838 487.279 102.654 486.215 102.962 485.814C103.368 485.283 103.696 484.613 104.014 483.965C104.497 482.974 104.999 481.949 105.758 481.462C105.9 481.372 105.976 481.364 105.996 481.372C106.274 481.486 106.541 482.617 106.701 483.293C107.016 484.628 107.314 485.89 108.266 486.099C108.969 486.254 109.713 485.767 110.682 484.52C110.788 484.382 110.919 484.186 111.083 483.938C111.518 483.283 112.536 481.75 113.176 481.687C113.246 481.68 113.324 481.69 113.436 481.803C113.605 481.973 113.721 482.708 113.808 483.245C113.97 484.267 114.139 485.323 114.813 485.765C115.018 485.899 115.364 486.034 115.845 485.907C116.484 485.739 117.018 485.067 117.446 484.526C117.549 484.396 117.642 484.276 117.728 484.181C117.832 484.061 117.94 483.939 118.045 483.817C118.539 483.248 119.049 482.66 119.631 482.221C120.234 481.765 120.662 481.625 120.901 481.805C121.21 482.039 121.189 482.89 121.173 483.453C121.169 483.648 121.164 483.829 121.169 483.98C121.172 484.054 121.172 484.142 121.171 484.24C121.168 484.952 121.161 486.276 122.216 486.408C122.867 486.488 123.525 485.901 124.263 485.182C124.374 485.075 124.47 484.981 124.542 484.919C124.668 484.81 124.819 484.662 124.985 484.498C125.353 484.133 125.971 483.523 126.315 483.483C126.386 483.475 126.414 483.485 126.417 483.488C126.519 483.57 126.564 484.031 126.585 484.252L126.604 484.434C126.624 484.619 126.626 484.873 126.626 485.142C126.628 485.947 126.631 486.859 127.089 487.442C127.905 488.48 129.334 487.722 129.805 487.472C129.993 487.373 130.241 487.198 130.554 486.978C131.067 486.617 132.45 485.405 133.139 485.728C133.614 486.444 133.028 487.965 132.886 488.578C132.799 488.953 132.732 489.25 132.709 489.462C132.653 489.993 132.484 491.611 133.743 491.989C134.452 492.2 135.294 491.865 136.039 491.569C136.287 491.47 136.521 491.377 136.701 491.327L136.875 491.277C137.087 491.215 137.527 491.085 137.641 491.15C137.644 491.152 137.665 491.176 137.683 491.244C137.774 491.581 137.44 492.384 137.242 492.864C137.151 493.08 137.071 493.276 137.017 493.434C136.986 493.525 136.935 493.649 136.878 493.792C136.489 494.749 136.191 495.583 136.506 496.161C137.02 497.098 138.239 496.601 138.895 496.333C138.985 496.296 139.066 496.262 139.135 496.238C139.275 496.187 139.442 496.116 139.619 496.039C140.133 495.817 140.909 495.481 141.24 495.683C141.497 495.84 141.525 496.291 141.329 497.024C141.138 497.731 140.787 498.426 140.445 499.098C140.371 499.243 140.299 499.387 140.227 499.53C140.17 499.645 140.095 499.777 140.013 499.922C139.674 500.523 139.25 501.27 139.332 501.932C139.395 502.428 139.647 502.701 139.848 502.843C140.504 503.308 141.542 503.074 142.546 502.848C143.072 502.729 143.794 502.566 144.013 502.659C144.16 502.722 144.196 502.791 144.216 502.859C144.396 503.48 143.358 505.001 142.917 505.651C142.749 505.897 142.618 506.09 142.529 506.242C141.738 507.61 141.564 508.486 141.968 509.086C142.516 509.899 143.788 509.709 145.138 509.508C145.821 509.407 146.962 509.235 147.172 509.454C147.187 509.47 147.208 509.544 147.176 509.709C147.009 510.601 146.25 511.449 145.515 512.268C145.035 512.805 144.538 513.359 144.199 513.937C143.943 514.373 143.265 515.53 144.106 516.307C144.841 516.984 145.947 516.583 146.892 516.083C146.85 515.664 146.895 515.233 147.032 514.839Z" fill="white"/>
<path fill-rule="evenodd" clip-rule="evenodd" d="M146.918 514.588C147.737 514.492 148.36 514.819 148.456 516.299C148.508 517.123 148.093 517.719 148.12 518.14C148.168 518.883 148.678 519.666 148.82 520.385C148.939 520.986 148.93 521.802 148.516 522.136C147.905 522.629 146.913 522.431 146.619 521.906C146.225 521.2 146.342 520.361 146.408 519.738C146.442 519.418 146.658 518.598 146.308 517.915C146.108 517.528 145.837 517.161 145.713 516.333C145.508 514.988 146.285 514.661 146.918 514.588Z" fill="#EFAD1B"/>
<path fill-rule="evenodd" clip-rule="evenodd" d="M100.653 524.114C105.506 523.881 110.338 524.078 114.728 524.582C116.882 524.829 119.007 525.127 120.942 525.646C122.915 526.172 124.718 526.695 126.31 527.517C128.793 528.798 130.69 530.395 132.1 532.665C133.509 534.934 134.308 537.563 134.678 541.004C134.916 543.212 134.913 545.575 135.016 547.939C135.447 557.779 135.088 567.224 130.24 572.104C127.893 574.467 124.16 575.762 120.307 576.7C117.293 577.434 114.21 577.817 110.755 578.061C107.357 578.301 103.704 578.19 100.189 578.19C97.8659 578.19 95.5889 577.936 93.4246 577.678C89.044 577.155 85.1555 576.197 81.8857 574.7C80.1428 573.902 78.694 573 77.5332 571.763C76.3998 570.557 75.5115 568.975 74.8281 567.212C73.4898 563.753 73.1237 559.384 73.0097 554.448C72.956 552.099 73.0516 549.898 73.1374 547.597C73.2262 545.215 73.2003 542.883 73.4743 540.62C73.7439 538.41 74.2768 536.473 74.954 534.792C76.3214 531.398 78.8214 528.951 82.0965 527.388C85.3398 525.842 89.4272 525.039 93.7631 524.539C95.9341 524.287 98.1806 524.232 100.653 524.114Z" fill="#4D3D87"/>
<path opacity="0.21" fill-rule="evenodd" clip-rule="evenodd" d="M104.036 538.239C106.312 538.129 109.014 538.237 111.39 538.239C115.068 538.239 118.55 538.323 122.337 538.323C125.09 538.323 126.893 538.431 129.523 538.493C130.315 538.513 130.696 538.536 131.214 538.621C131.756 538.712 132.338 538.881 132.398 539.259C132.561 540.295 130.724 540.622 129.691 540.705C128.31 540.818 126.843 540.791 125.634 540.791C122.814 540.791 120.061 540.749 117.518 540.749C114.745 540.749 112.077 540.646 109.571 540.876C107.064 541.106 104.659 541.469 102.556 542.11C100.571 542.714 98.5577 543.673 96.2575 544.109C91.2908 545.053 86.1671 544.115 81.5913 543.215C80.5445 543.01 79.2962 542.849 78.1247 542.536C77.2486 542.3 75.5253 541.852 75.5042 541.045C75.4701 539.74 78.3845 539.571 79.7733 539.43C82.7622 539.123 85.7883 538.935 88.8615 538.748C92.4676 538.528 96.3223 538.323 100.146 538.323C101.408 538.323 102.731 538.301 104.036 538.239Z" fill="black"/>
<path fill-rule="evenodd" clip-rule="evenodd" d="M131.736 538.597C132.557 538.663 133.105 539.106 132.914 540.576C132.807 541.396 132.284 541.899 132.23 542.318C132.133 543.056 132.481 543.925 132.483 544.658C132.485 545.271 132.318 546.071 131.85 546.317C131.153 546.682 130.217 546.294 130.032 545.721C129.781 544.953 130.058 544.151 130.243 543.552C130.338 543.245 130.709 542.482 130.496 541.743C130.375 541.323 130.18 540.911 130.215 540.074C130.274 538.715 131.101 538.545 131.736 538.597Z" fill="white"/>
<path d="M114.287 527.373C113.697 526.744 112.783 526.486 112.484 525.677C112.181 524.866 112.334 523.411 112.375 522.231C112.425 520.821 112.388 519.485 112.725 518.374C113.208 516.785 114.758 516.141 115.536 514.932C118.16 510.847 116.093 505.259 112.088 504.656C108.701 504.145 105.952 507.316 105.739 511.227C105.602 513.778 106.844 515.524 108.213 516.831C108.827 517.418 109.528 517.745 109.854 518.674C110.219 519.715 110.112 521.106 110.103 522.437C110.091 523.8 109.768 525.258 109.895 526.611C109.982 527.552 110.565 528.119 110.666 528.995C110.795 530.135 110.62 531.409 110.403 532.728C111.212 531.151 112.068 529.585 112.985 528.503C113.308 528.126 113.857 527.77 114.287 527.373ZM110.786 515.404C108.615 515.176 107.844 512.915 108.044 510.831C108.267 508.512 110.014 506.16 112.37 507.053C115.92 508.401 114.627 515.807 110.786 515.404Z" fill="#8F7ECE"/>
<path d="M114.834 530.997C113.959 532.37 113.176 534.389 112.587 535.587C111.88 537.025 110.97 538.877 109.996 540.844C110.86 540.777 111.742 540.745 112.641 540.732C112.974 539.214 113.306 537.711 113.643 536.255C114.022 534.62 114.598 532.701 114.834 530.997Z" fill="#8F7ECE"/>
<path d="M127.008 510.892C126.621 509.845 125.587 508.586 124.153 508.158C121.523 507.371 119.501 509.278 118.361 510.806C116.043 513.913 114.536 519.392 114.724 523.899C114.761 524.787 115.074 525.861 114.862 526.568C114.776 526.862 114.554 527.126 114.286 527.373C113.856 527.77 113.307 528.125 112.985 528.503C112.068 529.584 111.211 531.151 110.403 532.728C110.272 532.982 110.143 533.236 110.016 533.488C109.125 535.252 108.268 537.099 107.36 538.919C106.979 539.686 106.587 540.481 106.197 541.293C107.172 541.136 108.18 541.011 109.207 540.912C109.329 540.899 109.449 540.887 109.569 540.876C109.71 540.863 109.853 540.854 109.995 540.844C110.969 538.877 111.879 537.025 112.586 535.587C113.175 534.389 113.958 532.37 114.833 530.997C115.173 530.464 115.526 530.026 115.887 529.776C116.323 529.475 117.145 529.493 117.466 529.063C117.958 527.742 116.734 525.805 117.942 525.029C118.272 524.818 118.628 525.03 119.014 525.014C121.391 524.913 122.925 523.135 124.492 520.747C126.301 517.992 128.193 514.094 127.008 510.892ZM113.633 531.776C113.547 532.297 113.058 532.648 112.541 532.562C112.025 532.475 111.674 531.982 111.761 531.46C111.846 530.94 112.337 530.589 112.853 530.674C113.371 530.764 113.721 531.257 113.633 531.776ZM125.412 514.049C125.128 516.244 123.924 518.544 122.598 520.429C121.353 522.201 119.242 524.252 117.328 522.871C115.204 521.334 118.254 513.354 120.555 511.077C121.185 510.454 122.22 509.757 123.096 509.839C125.078 510.03 125.675 512.009 125.412 514.049Z" fill="#8F7ECE"/>
<path opacity="0.62" d="M127.008 510.892C126.621 509.845 125.587 508.586 124.153 508.158C121.523 507.371 119.501 509.278 118.361 510.806C116.043 513.913 114.536 519.392 114.724 523.899C114.761 524.787 115.074 525.861 114.862 526.568C114.776 526.862 114.554 527.126 114.286 527.373C113.856 527.77 113.307 528.125 112.985 528.503C112.068 529.584 111.211 531.151 110.403 532.728C110.272 532.982 110.143 533.236 110.016 533.488C109.125 535.252 108.268 537.099 107.36 538.919C106.979 539.686 106.587 540.481 106.197 541.293C107.172 541.136 108.18 541.011 109.207 540.912C109.329 540.899 109.449 540.887 109.569 540.876C109.71 540.863 109.853 540.854 109.995 540.844C110.969 538.877 111.879 537.025 112.586 535.587C113.175 534.389 113.958 532.37 114.833 530.997C115.173 530.464 115.526 530.026 115.887 529.776C116.323 529.475 117.145 529.493 117.466 529.063C117.958 527.742 116.734 525.805 117.942 525.029C118.272 524.818 118.628 525.03 119.014 525.014C121.391 524.913 122.925 523.135 124.492 520.747C126.301 517.992 128.193 514.094 127.008 510.892ZM113.633 531.776C113.547 532.297 113.058 532.648 112.541 532.562C112.025 532.475 111.674 531.982 111.761 531.46C111.846 530.94 112.337 530.589 112.853 530.674C113.371 530.764 113.721 531.257 113.633 531.776ZM125.412 514.049C125.128 516.244 123.924 518.544 122.598 520.429C121.353 522.201 119.242 524.252 117.328 522.871C115.204 521.334 118.254 513.354 120.555 511.077C121.185 510.454 122.22 509.757 123.096 509.839C125.078 510.03 125.675 512.009 125.412 514.049Z" fill="white"/>
<path d="M112.542 532.563C113.058 532.649 113.548 532.298 113.633 531.777C113.722 531.257 113.372 530.765 112.853 530.675C112.338 530.589 111.846 530.94 111.761 531.461C111.674 531.983 112.025 532.476 112.542 532.563Z" fill="#4D3D87"/>
<path d="M122.742 540.779L123.95 536.124L121.744 535.637L120.414 540.763C121.178 540.767 121.954 540.773 122.742 540.779Z" fill="#B1BC00"/>
<path d="M120.948 535.462L119.762 535.201C119.253 537.045 118.776 538.897 118.312 540.751C118.731 540.752 119.147 540.754 119.575 540.757L120.948 535.462Z" fill="#B1BC00"/>
<path d="M126.026 536.606C126.027 536.597 126.023 536.589 126.026 536.58L124.744 536.297L123.578 540.783C124.035 540.786 124.5 540.788 124.963 540.788C125.225 539.779 125.476 538.778 125.693 537.809C125.786 537.388 126.005 536.96 126.026 536.606Z" fill="#B1BC00"/>
<path d="M125.96 536.091C125.949 535.913 125.955 535.738 125.958 535.572C126 533.816 125.993 532.268 125.8 530.506L123.163 529.666C123.263 529.543 123.365 529.415 123.474 529.285C122.373 530.593 121.711 531.637 120.989 532.818C120.612 533.421 120.154 534.005 119.898 534.591C119.825 534.757 119.825 534.972 119.766 535.189C119.763 535.192 119.763 535.197 119.763 535.202L120.95 535.462L119.576 540.757C119.852 540.759 120.135 540.76 120.415 540.763L121.745 535.637L123.952 536.124L122.743 540.78C123.023 540.781 123.299 540.783 123.58 540.784L124.746 536.297L126.027 536.581C126.027 536.43 125.968 536.254 125.96 536.091Z" fill="#EFAD1B"/>
<path d="M125.8 530.506C125.793 530.452 125.789 530.401 125.784 530.345C125.721 529.793 125.617 528.558 125.062 528.278C124.652 528.073 124.019 528.639 123.473 529.285C123.364 529.415 123.262 529.543 123.162 529.666L125.8 530.506Z" fill="white"/>
<path d="M98.8971 510.603C98.9107 509.855 98.3155 509.232 97.5671 509.221C96.8199 509.206 96.2044 509.804 96.1908 510.556L96.1641 512.007L98.8683 512.045L98.8971 510.603Z" fill="#EFAD1B"/>
<path d="M94.2471 529.015L93.9375 544.415C94.7132 544.352 95.4878 544.255 96.2576 544.109C97.4228 543.887 98.5147 543.533 99.5662 543.157L99.851 529.098L94.2471 529.015Z" fill="#B1BC00"/>
<path d="M94.2461 529.013L99.8511 529.097L99.8701 527.456L94.2719 527.375L94.2461 529.013Z" fill="white"/>
<path d="M98.8539 512.869L96.1473 512.828L94.4815 512.804L94.4937 511.986H94.4922L94.2734 527.375L99.8704 527.457L100.083 512.886L98.8539 512.869ZM98.1091 521.321C97.2208 521.279 97.1341 519.336 97.838 518.994C98.8554 518.493 99.2791 521.372 98.1091 521.321ZM98.4986 517.644C97.2915 517.825 97.5343 515.565 97.952 514.92C97.9793 514.879 98.0164 514.864 98.0568 514.836C99.2176 514.052 99.5287 517.49 98.4986 517.644Z" fill="#B1BC00"/>
<path d="M98.8691 512.046V512.048L96.1648 512.009L94.4943 511.985L94.4824 512.803L96.1479 512.827L98.8545 512.868L100.084 512.886L100.853 512.898L100.635 528.322L101.8 528.341L102.021 512.915L102.031 512.093L98.8691 512.046Z" fill="white"/>
<path d="M98.0557 514.835C98.0156 514.863 97.9782 514.878 97.9509 514.919C97.5332 515.565 97.2903 517.824 98.4974 517.643C99.5276 517.49 99.2164 514.051 98.0557 514.835Z" fill="white"/>
<path d="M97.8382 518.993C97.1343 519.335 97.221 521.278 98.1093 521.319C99.2792 521.371 98.8556 518.492 97.8382 518.993Z" fill="white"/>
<path d="M94.1553 542.145L92.0151 542.521C91.861 542.548 91.7182 542.447 91.6918 542.294C91.6645 542.142 91.7678 541.996 91.916 541.968L94.0585 541.594C94.1725 541.572 94.2818 541.625 94.3402 541.714L93.8605 538.93C93.8459 539.047 93.7601 539.148 93.6363 539.169L91.4938 539.549C91.3442 539.575 91.2008 539.472 91.172 539.32C91.1462 539.167 91.2471 539.021 91.4012 538.994L93.5399 538.615C93.6643 538.596 93.7797 538.66 93.8338 538.769L93.3457 535.926C93.3412 536.055 93.2522 536.172 93.118 536.196L90.9793 536.573C90.8276 536.602 90.6824 536.499 90.656 536.347C90.6302 536.193 90.7305 536.048 90.8813 536.021L93.023 535.643C93.1566 535.62 93.2798 535.7 93.3261 535.822L92.8274 532.922C92.8395 533.063 92.7469 533.196 92.6026 533.218L90.461 533.599C90.3084 533.625 90.1656 533.524 90.1392 533.371C90.1133 533.218 90.2128 533.075 90.3654 533.047L92.5041 532.668C92.6492 532.643 92.7825 532.736 92.8199 532.877L92.3144 529.925C92.3363 530.075 92.2378 530.219 92.0881 530.247L89.9456 530.625C89.7945 530.653 89.6511 530.548 89.6223 530.393C89.5956 530.244 89.6989 530.098 89.847 530.071L91.9902 529.695C92.1413 529.666 92.2841 529.768 92.3129 529.92L87.6166 502.611L76.498 504.547L83.2003 543.526C86.8899 544.221 90.8668 544.796 94.7888 544.33L94.3773 541.932C94.3512 542.038 94.2678 542.123 94.1553 542.145ZM78.9903 505.526C79.4784 505.531 79.4876 506.101 79.6227 506.703C79.7631 507.336 79.9201 507.682 79.5104 507.952C78.3437 508.719 77.5214 505.506 78.9903 505.526ZM80.972 513.277C80.1977 513.735 79.802 512.928 79.5654 511.895C79.365 511.024 79.112 508.862 80.2396 509.266C80.4809 509.355 80.9197 510.342 81.1127 510.872C81.4888 511.907 81.5351 512.947 80.972 513.277ZM82.7583 508.377C82.7211 508.61 82.5926 508.762 82.416 508.871C81.3045 509.529 81.0533 507.023 81.8988 506.827C82.3975 506.71 82.844 507.814 82.7583 508.377ZM85.48 506.61C85.4518 506.46 85.5536 506.314 85.7047 506.287L87.8434 505.908C87.9984 505.881 88.1418 505.985 88.1685 506.137C88.1928 506.289 88.0925 506.435 87.9423 506.46L85.7997 506.838C85.6522 506.864 85.5058 506.763 85.48 506.61ZM85.9969 509.584C85.9725 509.431 86.0699 509.288 86.2246 509.26L88.3632 508.882C88.5158 508.854 88.6616 508.959 88.6883 509.111C88.7127 509.263 88.6117 509.408 88.4606 509.433L86.3205 509.812C86.1664 509.838 86.0245 509.738 85.9969 509.584ZM86.5149 512.558C86.4882 512.406 86.59 512.261 86.7396 512.234L88.8822 511.855C89.0333 511.83 89.1767 511.933 89.204 512.085C89.2289 512.236 89.1319 512.381 88.9778 512.408L86.8391 512.785C86.6862 512.815 86.5404 512.711 86.5149 512.558ZM87.0318 515.532C87.0068 515.379 87.1054 515.231 87.261 515.205L89.3982 514.827C89.5516 514.802 89.6965 514.901 89.7215 515.058C89.7503 515.209 89.6487 515.354 89.4952 515.381L87.3536 515.76C87.204 515.786 87.06 515.682 87.0318 515.532ZM87.5504 518.504C87.5246 518.352 87.6279 518.206 87.7766 518.177L89.9183 517.804C90.0679 517.776 90.2122 517.877 90.2401 518.026C90.268 518.181 90.165 518.326 90.0139 518.355L87.8737 518.73C87.722 518.758 87.5768 518.657 87.5504 518.504ZM88.0682 521.475C88.0429 521.325 88.1433 521.176 88.2973 521.151L90.4351 520.775C90.5848 520.749 90.7326 520.849 90.7602 521.003C90.7822 521.157 90.6851 521.3 90.534 521.325L88.3885 521.705C88.2389 521.731 88.0955 521.627 88.0682 521.475ZM88.5898 524.447C88.5601 524.296 88.6634 524.154 88.813 524.123L90.9547 523.748C91.1058 523.72 91.2486 523.822 91.2765 523.974C91.3023 524.125 91.202 524.271 91.0517 524.299L88.9086 524.676C88.756 524.704 88.6117 524.6 88.5898 524.447ZM89.1051 527.422C89.0793 527.271 89.1797 527.126 89.3328 527.098L91.4715 526.72C91.6226 526.694 91.7675 526.798 91.7948 526.947C91.8183 527.103 91.7212 527.246 91.5701 527.273L89.427 527.653C89.2753 527.678 89.1316 527.574 89.1051 527.422Z" fill="#EFAD1B"/>
<path d="M88.1678 506.136C88.1411 505.984 87.9977 505.88 87.8427 505.908L85.704 506.286C85.5529 506.313 85.4511 506.459 85.4793 506.61C85.5051 506.762 85.6515 506.863 85.799 506.837L87.9416 506.459C88.0921 506.434 88.1921 506.289 88.1678 506.136Z" fill="white"/>
<path d="M88.6874 509.11C88.6607 508.959 88.5149 508.854 88.3623 508.881L86.2236 509.259C86.0686 509.288 85.9716 509.431 85.9959 509.583C86.0232 509.738 86.1651 509.837 86.3192 509.811L88.4594 509.432C88.6108 509.408 88.7117 509.262 88.6874 509.11Z" fill="white"/>
<path d="M89.2031 512.084C89.1758 511.933 89.0324 511.83 88.8813 511.854L86.7388 512.234C86.5891 512.261 86.4873 512.406 86.514 512.558C86.5399 512.711 86.6856 512.814 86.8382 512.784L88.9769 512.407C89.131 512.381 89.2284 512.235 89.2031 512.084Z" fill="white"/>
<path d="M89.721 515.058C89.696 514.902 89.5508 514.802 89.3977 514.827L87.2605 515.205C87.1049 515.231 87.006 515.379 87.0313 515.532C87.0595 515.682 87.2035 515.785 87.3531 515.76L89.4947 515.381C89.6482 515.354 89.75 515.209 89.721 515.058Z" fill="white"/>
<path d="M90.2405 518.026C90.2126 517.877 90.068 517.776 89.9187 517.803L87.7771 518.176C87.6283 518.205 87.525 518.351 87.5508 518.504C87.5776 518.656 87.7224 518.757 87.8744 518.73L90.0146 518.355C90.1654 518.326 90.2687 518.181 90.2405 518.026Z" fill="white"/>
<path d="M90.7604 521.002C90.7331 520.848 90.5849 520.749 90.4353 520.775L88.2975 521.151C88.1434 521.176 88.0431 521.324 88.0683 521.474C88.0956 521.627 88.239 521.73 88.3887 521.704L90.5342 521.324C90.6853 521.3 90.7824 521.157 90.7604 521.002Z" fill="white"/>
<path d="M91.2758 523.974C91.2476 523.822 91.1051 523.72 90.954 523.748L88.8123 524.123C88.6627 524.153 88.5594 524.296 88.5891 524.447C88.6111 524.6 88.7553 524.704 88.9079 524.676L91.0511 524.299C91.2013 524.271 91.3016 524.124 91.2758 523.974Z" fill="white"/>
<path d="M91.7933 526.946C91.766 526.797 91.6209 526.693 91.47 526.72L89.3314 527.097C89.1782 527.125 89.0778 527.271 89.1037 527.421C89.1304 527.573 89.2738 527.677 89.4255 527.652L91.5686 527.272C91.7197 527.245 91.8171 527.102 91.7933 526.946Z" fill="white"/>
<path d="M91.9893 529.695L89.8461 530.071C89.698 530.098 89.5947 530.244 89.6214 530.393C89.6502 530.548 89.7939 530.653 89.9447 530.625L92.0872 530.247C92.2369 530.22 92.3354 530.075 92.3135 529.925L92.312 529.92C92.2832 529.768 92.1404 529.666 91.9893 529.695Z" fill="white"/>
<path d="M92.5018 532.668L90.3631 533.047C90.2105 533.076 90.1111 533.218 90.1369 533.371C90.1633 533.525 90.3061 533.626 90.4587 533.599L92.6004 533.218C92.7446 533.196 92.8373 533.063 92.8251 532.922L92.8174 532.877C92.7806 532.736 92.647 532.643 92.5018 532.668Z" fill="white"/>
<path d="M93.0234 535.643L90.8817 536.021C90.7306 536.048 90.6306 536.193 90.6564 536.346C90.6828 536.498 90.828 536.601 90.9797 536.572L93.1184 536.196C93.2526 536.171 93.3416 536.055 93.3461 535.926L93.3265 535.822C93.2799 535.7 93.157 535.62 93.0234 535.643Z" fill="white"/>
<path d="M93.5399 538.616L91.4012 538.994C91.2471 539.021 91.1462 539.167 91.172 539.32C91.2008 539.472 91.3442 539.575 91.4938 539.549L93.6364 539.169C93.7602 539.148 93.846 539.047 93.8605 538.93L93.8338 538.77C93.7798 538.661 93.6646 538.597 93.5399 538.616Z" fill="white"/>
<path d="M94.0586 541.594L91.916 541.967C91.7679 541.996 91.6646 542.143 91.6919 542.294C91.7186 542.446 91.8611 542.547 92.0152 542.521L94.1554 542.145C94.2679 542.122 94.3513 542.038 94.3771 541.932L94.34 541.713C94.2818 541.625 94.1723 541.572 94.0586 541.594Z" fill="white"/>
<path d="M80.2391 509.266C79.1115 508.861 79.3645 511.023 79.5648 511.894C79.8018 512.928 80.1972 513.735 80.9714 513.277C81.5349 512.946 81.4886 511.907 81.1119 510.871C80.9192 510.341 80.4804 509.354 80.2391 509.266Z" fill="white"/>
<path d="M81.898 506.827C81.0522 507.023 81.3037 509.53 82.4152 508.871C82.5921 508.762 82.7204 508.61 82.7575 508.377C82.8433 507.814 82.3968 506.71 81.898 506.827Z" fill="white"/>
<path d="M79.6225 506.703C79.4874 506.101 79.4782 505.531 78.9901 505.526C77.5212 505.506 78.3432 508.719 79.5102 507.952C79.9199 507.682 79.7626 507.336 79.6225 506.703Z" fill="white"/>
<path fill-rule="evenodd" clip-rule="evenodd" d="M127.791 569.619C127.859 568.401 129.021 566.712 130.261 565.121C130.791 564.44 131.67 563.352 132.327 563.761C133.12 564.252 132.317 565.648 132.03 566.144C131.115 567.722 129.696 569.438 128.674 570.129C128.393 570.174 127.961 569.904 127.791 569.619Z" fill="white"/>
<path fill-rule="evenodd" clip-rule="evenodd" d="M130.325 562.382C128.498 561.687 130.657 557.981 131.955 558.957C132.518 559.382 132.138 561.565 131.338 562.257C131.049 562.504 130.643 562.501 130.325 562.382Z" fill="white"/>
<path fill-rule="evenodd" clip-rule="evenodd" d="M130.476 552.447C129.806 552.269 129.666 551.267 129.901 550.285C130.089 549.496 130.809 548.071 131.595 548.565C131.945 548.783 132.162 549.57 131.988 550.39C131.786 551.355 131.339 552.674 130.476 552.447Z" fill="white"/>
<path fill-rule="evenodd" clip-rule="evenodd" d="M78.1898 555.243C76.1324 556.193 76.2927 550.294 78.2637 551.34C79.2924 551.883 78.7256 554.276 78.1898 555.243Z" fill="white"/>
<path fill-rule="evenodd" clip-rule="evenodd" d="M75.9362 558.504C76.1274 558.062 76.761 557.263 77.6115 557.719C78.7221 558.314 78.8239 560.857 79.054 561.857C79.3358 563.074 80.4075 565.235 79.38 566.19C77.9146 567.549 76.8358 564.083 76.5125 562.876C76.343 562.234 76.2367 561.589 76.1188 561.039C75.9175 560.097 75.5648 559.353 75.9362 558.504Z" fill="white"/>
</svg>
