<svg width="213" height="639" viewBox="0 0 213 639" fill="none" xmlns="http://www.w3.org/2000/svg">
<path fill-rule="evenodd" clip-rule="evenodd" d="M169.059 151.824C168.991 153.335 167.89 154.879 167.803 156.678C167.737 158.011 167.911 159.544 168.392 160.907C169.316 163.532 171.919 164.453 172.895 166.472C162.539 171.089 151.01 174.997 139.28 179.256C135.88 180.489 130.089 182.662 126.874 181.481C123.692 180.31 121.137 173.659 123.549 170.117C125.071 167.886 129.53 165.935 133.537 164.527C141.088 161.881 150.334 159.43 157.341 156.604C161.583 154.894 165.428 153.246 169.059 151.824Z" fill="#8F7ECE"/>
<path opacity="0.81" fill-rule="evenodd" clip-rule="evenodd" d="M169.059 151.824C168.991 153.335 167.89 154.879 167.803 156.678C167.737 158.011 167.911 159.544 168.392 160.907C169.316 163.532 171.919 164.453 172.895 166.472C162.539 171.089 151.01 174.997 139.28 179.256C135.88 180.489 130.089 182.662 126.874 181.481C123.692 180.31 121.137 173.659 123.549 170.117C125.071 167.886 129.53 165.935 133.537 164.527C141.088 161.881 150.334 159.43 157.341 156.604C161.583 154.894 165.428 153.246 169.059 151.824Z" fill="white"/>
<path fill-rule="evenodd" clip-rule="evenodd" d="M160.496 160.449C160.607 161.784 128.139 173.354 127.582 171.968C127.189 171.007 135.528 168.542 143.638 165.757C152.129 162.841 160.426 159.634 160.496 160.449Z" fill="#8F7ECE"/>
<path fill-rule="evenodd" clip-rule="evenodd" d="M167.664 161.764C167.775 163.095 135.307 174.667 134.744 173.281C134.355 172.321 142.696 169.856 150.805 167.071C159.3 164.152 167.594 160.947 167.664 161.764Z" fill="#8F7ECE"/>
<path fill-rule="evenodd" clip-rule="evenodd" d="M126.362 169.643C124.16 172.14 124.663 177.709 127.639 179.28C140.71 175.084 154.117 170.207 167.905 166.414C169.602 165.949 172.797 164.282 173.601 166.414C174.435 168.602 170.754 169.226 169.142 169.875C158.155 174.308 146.107 179.365 133.127 182.381C130.807 182.923 128.033 183.713 126.087 183.443C124.547 183.23 122.602 181.648 121.095 180.534C113.743 175.125 105.99 168.394 99.3685 162.157C96.8495 159.786 93.0212 156.638 91.7775 153.762C89.2239 147.852 93.4469 145.389 98.2439 143.007C101.69 141.296 105.258 140.165 108.367 139.073C116.266 136.303 122.18 133.568 128.382 131.229C133.066 129.459 138.697 133.462 142.243 135.059C149.969 138.539 155.141 140.868 162.808 145.217C164.794 146.349 171.366 149.958 170.986 152.142C170.583 154.468 163.044 156.097 160.47 157.057C148.977 161.34 137.705 165.597 126.362 169.643Z" fill="#4D3D87"/>
<path opacity="0.21" fill-rule="evenodd" clip-rule="evenodd" d="M121.339 171.027C118.93 172.463 93.5814 149.98 94.4804 148.787C95.0678 148 100.456 153.194 106.697 158.374C113.933 164.377 122.075 170.59 121.339 171.027Z" fill="black"/>
<path fill-rule="evenodd" clip-rule="evenodd" d="M99.4258 142.908C99.8524 140.878 101.329 139.915 101.861 137.955C102.22 136.63 102.112 134.682 102.409 133.16C104.242 133.199 106.074 135.858 107.524 137.482C110.552 140.866 112.613 143.562 115.939 147.231C117.164 148.585 119.268 151.149 120.561 151.359C123.459 151.833 128.247 149.363 131.236 148.331C138.367 145.87 143.635 143.846 151.58 141.646C156.046 140.407 162.153 139.228 163.163 143.766C164.119 148.063 159.749 150.388 156.262 152.182C152.617 154.059 148.706 155.736 145.509 157.117C142.067 158.604 138.654 160.306 134.267 161.855C130.655 163.134 125.365 165.391 121.684 164.808C119.602 164.48 116.894 161.63 115.349 160.11C109.475 154.317 105.217 148.763 99.4258 142.908Z" fill="#8F7ECE"/>
<path opacity="0.81" fill-rule="evenodd" clip-rule="evenodd" d="M99.4258 142.908C99.8524 140.878 101.329 139.915 101.861 137.955C102.22 136.63 102.112 134.682 102.409 133.16C104.242 133.199 106.074 135.858 107.524 137.482C110.552 140.866 112.613 143.562 115.939 147.231C117.164 148.585 119.268 151.149 120.561 151.359C123.459 151.833 128.247 149.363 131.236 148.331C138.367 145.87 143.635 143.846 151.58 141.646C156.046 140.407 162.153 139.228 163.163 143.766C164.119 148.063 159.749 150.388 156.262 152.182C152.617 154.059 148.706 155.736 145.509 157.117C142.067 158.604 138.654 160.306 134.267 161.855C130.655 163.134 125.365 165.391 121.684 164.808C119.602 164.48 116.894 161.63 115.349 160.11C109.475 154.317 105.217 148.763 99.4258 142.908Z" fill="white"/>
<path fill-rule="evenodd" clip-rule="evenodd" d="M98.5552 141.128C99.6303 140.174 111.281 152.858 116.371 158.123C118.235 160.051 120.076 163.267 122.053 163.587C124.649 164.007 130.938 161.156 133.183 160.284C140.493 157.456 146.136 155.131 153.137 151.729C155.576 150.543 161.045 148.46 161.728 146.501C162.13 145.332 162.147 143.335 161.414 142.726C159.991 141.541 154.323 143.606 151.111 144.535C142.715 146.96 135.1 150.047 126.636 152.993C124.891 153.6 122.841 154.471 121.526 154.367C119.438 154.207 117.537 151.318 115.901 149.612C110.774 144.269 101.416 134.851 101.9 132.724C102.424 130.414 127.81 122.108 138.23 121.142C139.443 121.028 141.854 120.721 143.72 121.396C149.285 123.416 155.693 130.963 159.682 136.215C161.195 138.21 163.261 140.59 163.773 142.53C165.209 147.997 162.554 149.337 159.034 151.236C150.464 155.861 142.541 158.914 132.907 162.681C131.452 163.25 129.385 164.15 127.386 164.809C125.348 165.477 122.838 166.319 121.072 166.047C119.147 165.75 116.664 162.232 115.155 160.599C111.198 156.32 97.6696 141.918 98.5552 141.128Z" fill="#EFAD1B"/>
<path opacity="0.12" fill-rule="evenodd" clip-rule="evenodd" d="M155.145 139.13C154.757 139.976 152.736 137.96 151.664 136.823C149.618 134.636 145.238 130.871 143.013 128.157C141.696 126.554 139.17 123.598 139.958 122.945C140.577 122.437 142.604 124.774 143.665 125.929C145.903 128.363 150.28 132.458 152.647 134.974C153.585 135.972 155.639 138.054 155.145 139.13Z" fill="white"/>
<path d="M117.907 155.985C119.189 157.126 120.425 158.304 121.707 159.347C122.192 159.728 122.74 160.122 123.139 160.285C123.237 160.327 123.31 160.322 123.251 160.312C123.164 160.327 123.32 160.297 123.348 160.289L123.541 160.234C123.826 160.147 124.133 160.043 124.434 159.937C125.656 159.516 126.895 159.071 128.126 158.602C130.605 157.718 133.086 156.816 135.607 156.01C137.22 155.49 138.841 154.984 140.484 154.539C141.407 154.286 141.722 154.72 140.934 155.138C139.367 155.964 137.772 156.724 136.163 157.448C133.749 158.549 131.291 159.53 128.798 160.458C127.54 160.89 126.291 161.336 124.991 161.712C124.663 161.804 124.339 161.896 123.981 161.972L123.691 162.026C123.553 162.049 123.548 162.064 123.294 162.072C122.908 162.065 122.655 161.962 122.455 161.867C121.652 161.466 121.191 160.976 120.681 160.491C119.421 159.204 118.339 157.825 117.318 156.405C116.787 155.668 117.206 155.355 117.907 155.985Z" fill="#8F7ECE"/>
<path fill-rule="evenodd" clip-rule="evenodd" d="M159.128 144.066C159.239 145.401 126.77 156.97 126.212 155.586C125.821 154.626 134.16 152.158 142.271 149.374C150.761 146.457 159.057 143.252 159.128 144.066Z" fill="#8F7ECE"/>
<path fill-rule="evenodd" clip-rule="evenodd" d="M119.215 144.911C119.399 146.009 120.624 147.426 121.914 148.746C122.465 149.308 123.374 150.209 123.935 149.771C124.607 149.249 123.738 148.064 123.427 147.64C122.439 146.304 120.972 144.888 119.973 144.362C119.711 144.351 119.343 144.637 119.215 144.911Z" fill="white"/>
<path fill-rule="evenodd" clip-rule="evenodd" d="M120.562 149.914C118.964 150.724 121.3 153.869 122.388 152.855C122.859 152.415 122.298 150.472 121.498 149.925C121.21 149.729 120.84 149.773 120.562 149.914Z" fill="white"/>
<path fill-rule="evenodd" clip-rule="evenodd" d="M103.015 139.025C102.546 138.779 102.555 137.879 102.58 137.306C102.678 135.034 104.455 134.18 106.505 132.884C109.244 131.152 112 129.608 114.696 128.109C116.446 127.136 118.772 125.624 121.302 125.415C124.39 125.16 127.327 125.572 130.222 125.946C137.244 126.854 143.614 128.056 150.419 129.542C151.789 129.841 153.778 130.003 153.94 130.811C154.249 132.357 151.955 132.16 150.418 131.883C149.33 131.688 147.54 131.304 146.351 131.05C139.248 129.527 132.947 128.49 125.474 127.508C123.446 127.244 121.412 126.936 119.54 127.708C118.104 128.298 116.762 129.589 115.389 130.587C112.659 132.571 110.048 134.585 107.4 136.613C106.126 137.587 104.892 138.969 103.015 139.025Z" fill="#4D3D87"/>
<path fill-rule="evenodd" clip-rule="evenodd" d="M148.944 148.773C149.919 149.127 150.721 146.761 150.777 146.218C150.921 144.8 147.485 139.683 145.986 137.168C145.012 135.533 143.821 133.181 141.844 131.805C139.429 130.122 136.822 129.058 134.265 127.985C128.065 125.38 122.261 123.328 115.962 121.302C114.693 120.895 112.983 120.08 112.465 120.666C111.473 121.788 113.453 122.721 114.846 123.225C115.833 123.585 117.486 124.125 118.585 124.483C125.144 126.621 130.815 128.773 137.419 131.533C139.211 132.282 141.028 133 142.197 134.526C143.094 135.698 143.582 137.398 144.234 138.872C145.528 141.805 147.269 148.162 148.944 148.773Z" fill="#4D3D87"/>
<path fill-rule="evenodd" clip-rule="evenodd" d="M121.507 114.682C126.523 114.222 130.952 116.814 131.91 121.392C132.597 124.679 131.021 127.442 129.48 129.17C127.004 131.944 122.5 134.301 118.202 134.612C112.537 135.026 107.847 132.2 108.091 126.35C108.207 123.547 110.014 121.205 111.591 119.544C113.569 117.461 115.664 116.015 118.689 115.169C119.537 114.931 120.368 114.788 121.507 114.682ZM115.48 119.253C113.87 120.299 111.915 122.136 111.203 123.92C109.176 128.993 113.689 131.865 118.397 131.503C123.027 131.146 127.471 128.18 128.993 124.988C129.331 124.278 129.705 123.265 129.675 122.073C129.572 118.304 125.716 116.65 122.091 117.015C119.272 117.302 117.354 118.034 115.48 119.253Z" fill="#4D3D87"/>
<path fill-rule="evenodd" clip-rule="evenodd" d="M146.821 119.014C151.839 118.551 156.268 121.144 157.224 125.721C157.913 129.009 156.336 131.772 154.794 133.499C152.318 136.274 147.815 138.631 143.517 138.943C137.852 139.355 133.163 136.532 133.408 130.679C133.523 127.876 135.329 125.536 136.907 123.873C138.884 121.79 140.98 120.345 144.004 119.499C144.852 119.262 145.683 119.118 146.821 119.014ZM140.795 123.583C139.186 124.629 137.23 126.465 136.517 128.25C134.492 133.323 139.003 136.195 143.712 135.831C148.341 135.475 152.786 132.51 154.308 129.318C154.648 128.608 155.02 127.595 154.99 126.402C154.89 122.635 151.033 120.98 147.406 121.347C144.586 121.632 142.669 122.365 140.795 123.583Z" fill="#4D3D87"/>
<path opacity="0.6" fill-rule="evenodd" clip-rule="evenodd" d="M115.479 119.253C113.869 120.299 111.913 122.136 111.201 123.92C109.174 128.993 113.687 131.865 118.396 131.502C123.026 131.146 127.47 128.18 128.991 124.988C129.33 124.278 129.703 123.265 129.673 122.073C129.57 118.304 125.715 116.65 122.089 117.015C119.27 117.302 117.352 118.034 115.479 119.253Z" fill="white"/>
<path opacity="0.6" fill-rule="evenodd" clip-rule="evenodd" d="M140.794 123.583C139.185 124.629 137.229 126.465 136.517 128.25C134.492 133.322 139.003 136.195 143.711 135.831C148.341 135.475 152.786 132.51 154.308 129.318C154.648 128.608 155.019 127.595 154.989 126.402C154.889 122.635 151.032 120.98 147.405 121.347C144.585 121.632 142.668 122.365 140.794 123.583Z" fill="white"/>
<path fill-rule="evenodd" clip-rule="evenodd" d="M148.448 120.898C149.019 121.769 147.236 122.196 146.312 122.402C145.344 122.62 144.343 122.902 144.167 122.308C144.076 122.004 144.38 121.782 144.62 121.555C145.193 121.004 147.576 120.473 148.136 120.651C148.239 120.685 148.386 120.797 148.448 120.898Z" fill="white"/>
<path fill-rule="evenodd" clip-rule="evenodd" d="M145.622 123.946C146.289 124.995 143.551 125.63 143.375 124.634C143.226 123.792 145.263 123.376 145.622 123.946Z" fill="white"/>
<path fill-rule="evenodd" clip-rule="evenodd" d="M142.72 122.714C142.816 122.86 142.886 123.073 142.821 123.266C142.616 123.85 140.197 124.776 139.978 123.689C139.89 123.251 140.601 122.811 141.308 122.567C141.872 122.37 142.468 122.33 142.72 122.714Z" fill="white"/>
<path fill-rule="evenodd" clip-rule="evenodd" d="M121.549 130.079C121.244 131.583 125.087 130.568 124.097 129.428C123.58 128.834 122.1 129.577 121.549 130.079Z" fill="white"/>
<path fill-rule="evenodd" clip-rule="evenodd" d="M119.76 132.069C120.019 131.872 120.446 131.332 120.014 130.841C119.452 130.199 117.77 130.523 117.078 130.525C116.238 130.528 114.653 130.153 114.188 130.977C113.523 132.153 115.963 132.332 116.803 132.36C117.251 132.373 117.691 132.344 118.069 132.337C118.718 132.324 119.261 132.443 119.76 132.069Z" fill="white"/>
<path fill-rule="evenodd" clip-rule="evenodd" d="M66.4545 103.123C65.7144 100.251 66.1006 95.973 64.0786 92.7569C63.6168 92.0201 62.8102 91.1603 62.1467 91.4656C61.089 91.9519 61.6793 95.2117 61.7654 96.125C61.9432 97.9558 62.1797 99.4311 62.4843 101.107C61.6748 99.541 61.0638 97.519 59.9708 95.4697C59.1965 94.0212 57.5608 91.0824 56.3233 91.5576C54.6053 92.2161 56.5503 97.0344 57.0842 98.5387C57.8556 100.706 59.1022 103.802 60.6581 106.34C62.2054 108.867 65.1511 112.013 67.5615 109.213C68.1111 108.571 68.6522 107.55 69.0837 106.674C69.9341 104.941 70.4008 103.225 70.7453 101.324C70.9136 100.389 71.1439 99.3573 71.0851 98.5086C71.0281 97.6433 70.7962 96.7062 69.8666 96.4296C68.404 96.9463 67.9121 98.3416 67.4656 99.4428C66.9832 100.625 66.7004 101.908 66.4118 103.045C66.4261 103.072 66.4405 103.099 66.4545 103.123Z" fill="#FF5000"/>
<path fill-rule="evenodd" clip-rule="evenodd" d="M84.6349 141.763C84.6209 144.183 84.5628 146.778 84.3789 149.114C84.3218 149.904 84.3554 150.755 84.1284 151.396C83.7265 152.531 82.17 153.574 81.6782 154.946C81.1129 156.521 81.2655 158.771 81.17 160.862C81.0711 162.978 81.0346 165.064 80.9169 167.03C80.6615 171.231 81.2271 175.738 79.985 178.862C79.9804 178.872 79.923 178.992 79.9028 179.031C78.2224 182.098 72.5421 183.191 68.4092 183.678C61.7902 184.457 53.4724 184.094 51.3403 179.453C50.973 178.653 50.8305 177.548 50.6638 176.494C49.8298 171.248 49.6292 165.616 48.9722 160.186C48.8437 159.106 48.6944 158.023 48.5518 156.973C48.407 155.913 48.2661 154.853 47.9608 154.017C47.4542 152.644 46.0948 152.052 45.5921 150.806C44.6681 148.503 45.1169 144.559 45.0869 141.509C46.04 140.567 47.2223 139.851 48.4673 139.143C52.0741 137.098 56.7012 136.02 62.2412 135.763C66.6162 135.561 71.5613 136.17 75.3403 136.947C79.3976 137.782 83.0765 139.109 84.6349 141.763Z" fill="#4D3D87"/>
<path fill-rule="evenodd" clip-rule="evenodd" d="M82.2168 143.61C82.3202 144.325 81.555 144.642 81.0703 144.924C73.8802 149.109 59.9849 149.043 49.9816 146.547C49.3762 146.396 48.6237 146.224 48.2362 145.726C48.1452 145.324 48.5337 145.331 48.7617 145.152C49.2715 144.753 49.854 144.158 50.5025 143.773C52.3714 142.672 54.8373 141.783 57.3557 141.223C64.6688 139.595 75.6431 139.79 81.5442 143.417C81.7135 143.863 82.1503 143.234 82.2168 143.61Z" fill="#EFAD1B"/>
<path fill-rule="evenodd" clip-rule="evenodd" d="M64.0987 135.596C68.4502 135.387 72.8228 135.748 76.4371 136.608C78.2601 137.044 79.5951 137.332 81.5058 138.214C83.0075 138.905 84.7813 140.147 84.9708 141.425C85.2487 143.295 83.7767 144.882 82.5222 145.736C81.0688 146.725 79.3319 147.24 77.704 147.679C74.0502 148.658 69.6149 148.862 65.45 148.862C61.5526 148.862 56.8841 148.766 53.0284 147.848C51.4693 147.476 49.7498 146.82 48.1297 145.989C46.6622 145.237 45.0069 144 44.833 142.608C44.382 139.069 49.8245 137.806 52.4381 137.116C56.1179 136.144 59.5783 135.81 64.0987 135.596ZM50.241 144.637C54.4649 146.092 59.7825 146.394 65.1989 146.581C71.0093 146.782 75.7036 145.884 79.6476 144.214C80.5153 143.847 83.0013 142.971 82.9426 141.848C82.8934 140.896 80.5404 139.914 79.4793 139.482C75.257 137.762 69.7421 137.262 63.8456 137.537C59.0704 137.766 53.5115 138.668 49.9024 140.158C48.6395 140.678 47.2917 141.364 46.7747 142.523C47.4871 143.68 48.902 144.176 50.241 144.637Z" fill="#8F7ECE"/>
<path opacity="0.21" fill-rule="evenodd" clip-rule="evenodd" d="M50.4102 154.779C56.427 155.733 60.9628 156.039 66.466 155.79C72.5386 155.515 81.5061 153.51 81.5061 153.51C81.5061 153.51 76.2971 157.101 66.5504 157.481C60.4514 157.719 54.5264 157 50.4102 154.779Z" fill="black"/>
<path fill-rule="evenodd" clip-rule="evenodd" d="M55.4601 175.637C54.2817 175.949 54.4758 180.051 55.9683 179.66C57.0131 179.388 56.5245 175.971 55.4601 175.637Z" fill="white"/>
<path fill-rule="evenodd" clip-rule="evenodd" d="M53.9289 173.029C54.9077 172.974 54.7567 171.935 54.7896 171.123C54.8187 170.404 55.0222 169.516 55.0026 168.891C54.9808 168.066 54.7616 167.03 54.1608 166.734C53.4608 167.345 53.3434 168.685 53.2524 169.736C53.1637 170.77 53.0251 172.184 53.9289 173.029Z" fill="white"/>
<path fill-rule="evenodd" clip-rule="evenodd" d="M53.5263 163.158C54.5074 162.193 54.357 160.659 54.3978 159.222C54.1998 159.21 54.0361 159.127 53.9125 158.976C53.188 159.175 52.9392 160.335 52.8452 161.083C52.7519 161.84 52.5875 163.052 53.5263 163.158Z" fill="white"/>
<path fill-rule="evenodd" clip-rule="evenodd" d="M58.0923 168.01C59.0062 167.473 59.1784 165.151 57.9866 164.802C56.7987 165.188 56.8982 167.696 58.0923 168.01Z" fill="white"/>
<path fill-rule="evenodd" clip-rule="evenodd" d="M58.3369 140.194C58.5874 141.38 58.8461 142.564 59.1201 143.744H70.7501C71.2341 143.083 71.5645 141.586 71.9011 140.499C72.9902 136.99 74.0177 133.538 74.4593 129.911C74.7802 127.249 74.6925 124.772 74.5337 122.378C74.3588 119.777 73.9479 116.702 72.8953 114.346C71.8835 112.069 70.1672 109.974 68.6551 109.332C66.7515 108.525 62.902 109.204 60.4228 110.314C57.7557 111.508 56.0753 113.22 55.3495 115.065C54.4953 117.233 54.6049 120.284 54.8782 123.016C55.4402 128.655 57.1412 134.526 58.3369 140.194Z" fill="#B1BC00"/>
<path opacity="0.21" d="M59.4767 142.316C59.5338 142.794 59.6065 143.268 59.678 143.744H61.3552C60.9292 140.163 60.3819 136.526 59.9989 132.923C59.6574 129.708 59.3225 126.466 59.1727 123.138C59.0286 120.001 58.6411 116.52 59.4875 113.755C59.9246 112.33 60.7625 111.148 61.4882 109.895C61.1148 110.025 60.756 110.166 60.4239 110.313C60.286 110.375 60.1623 110.444 60.0293 110.507C59.572 111.228 59.132 111.973 58.8185 112.697C57.6613 115.356 57.7741 119.174 57.8563 122.225C58.0341 128.801 58.6639 135.526 59.4767 142.316Z" fill="black"/>
<path opacity="0.21" d="M63.7395 143.744H65.3266C65.4049 139.032 65.1952 134.204 65.0964 129.371C65.0282 125.918 64.4629 122.24 64.3282 118.545C64.2679 116.857 64.412 115.036 64.4949 113.291C64.5647 111.867 64.7046 110.438 64.6851 109.116C64.4104 109.154 64.1332 109.202 63.8549 109.256C62.5369 115.609 63.4117 122.356 63.5927 129.067C63.7215 133.927 63.5666 138.809 63.7395 143.744Z" fill="black"/>
<path opacity="0.21" d="M67.9566 117.809C69.4429 126.802 68.6308 135.342 67.8391 143.743H69.2965C69.5346 142.208 69.7176 140.598 69.8493 139.172C70.1612 135.835 70.1876 132.32 70.2708 129.021C70.3575 125.607 70.197 122.095 69.5496 118.473C68.9873 115.319 67.8737 112.242 66.9099 108.989C66.5928 108.975 66.2591 108.976 65.916 108.993C65.9685 109.238 66.0289 109.479 66.0752 109.708C66.6144 112.308 67.5149 115.147 67.9566 117.809Z" fill="black"/>
<path fill-rule="evenodd" clip-rule="evenodd" d="M56.252 115.97C56.5948 117.172 57.7735 117.497 58.526 118.089C58.6545 118.544 57.9255 118.752 58.2276 119.261C58.5479 119.517 59.0818 119.083 59.5564 118.852C60.3252 118.889 61.0623 120.12 61.9081 119.207C61.8562 118.539 61.1572 118.237 60.7508 118.006C61.0258 117.337 61.9834 116.864 61.3931 115.941C60.6445 115.868 60.2733 116.782 59.6803 117.165C58.4468 117.053 57.6284 115.613 56.252 115.97Z" fill="white"/>
<path fill-rule="evenodd" clip-rule="evenodd" d="M69.4792 117.367C68.9961 116.992 68.6334 116.228 67.9592 116.461C67.999 116.539 67.8943 116.575 67.8418 116.626C67.9162 117.3 68.5529 117.881 68.9325 118.269C68.8526 118.777 67.7971 119.001 67.9889 119.586C68.3099 119.482 68.6285 119.383 68.9912 119.148C69.1941 119.692 68.8386 120.359 68.7499 120.999C68.6592 121.669 68.6034 122.379 68.7146 123.045C69.1563 122.707 69.4038 121.974 69.5676 121.371C69.7421 120.725 69.8135 120.018 69.9711 119.433C70.671 119.943 71.581 120.688 72.2386 121.353C72.4405 121.559 72.4767 122.028 72.8564 121.931C73.4451 121.566 72.8352 120.862 72.6245 120.537C72.0889 119.716 71.0044 118.895 70.5112 118.331C70.9903 117.809 72.143 117.48 71.5683 116.65C71.2748 116.613 70.7884 116.963 70.6058 117.167C70.5644 116.314 71.2268 115.668 70.9574 114.75C69.7329 115.148 69.9848 116.539 69.4792 117.367Z" fill="white"/>
<path fill-rule="evenodd" clip-rule="evenodd" d="M62.9472 124.015C62.4642 124.694 63.0709 125.687 63.5314 126.637C63.0327 126.603 62.7114 125.992 62.1445 126.169C62.3017 126.985 63.1263 127.422 63.6377 127.795C63.4522 128.271 62.5643 128.543 62.6974 129.112C63.1609 129.05 63.7389 128.622 64.2588 128.374C65.1287 129.577 65.8329 131.311 66.737 132.41C67.2139 131.643 66.3352 130.481 65.9846 129.472C66.752 129.568 67.2374 130.581 68.1826 130.113C67.9713 128.727 66.2399 128.695 65.4222 127.849C65.8515 127.335 66.9578 127.016 67.0087 126.39C66.936 126.259 66.8678 126.128 66.7957 125.999C66.1271 125.901 65.5524 126.657 64.8351 126.95C64.3097 126.002 63.9809 124.12 62.9472 124.015Z" fill="white"/>
<path fill-rule="evenodd" clip-rule="evenodd" d="M63.955 138.359C63.8141 138.96 62.8314 139.315 63.2221 140.068C63.7186 140.094 63.9981 139.565 64.503 139.379C65.0324 140.33 65.7607 141.819 66.3276 142.801H66.5752C66.7898 141.834 66.0357 140.589 65.7992 139.493C66.4186 139.575 66.8391 140.293 67.63 139.828C67.8296 138.867 66.5628 138.667 65.9753 138.286C66.3498 137.635 67.8923 137.123 67.5524 136.424C67.128 135.549 65.8149 136.926 65.1071 137.435C64.4782 136.902 64.4446 134.882 63.393 135.014C62.9599 135.529 63.3493 136.283 63.6413 137.009C63.1425 137.185 62.8715 136.624 62.3438 136.896C62.5196 137.718 63.3944 138.066 63.955 138.359Z" fill="white"/>
<path fill-rule="evenodd" clip-rule="evenodd" d="M56.252 115.97C56.5948 117.172 57.7735 117.497 58.526 118.089C58.6545 118.544 57.9255 118.752 58.2276 119.261C58.5479 119.517 59.0818 119.083 59.5564 118.852C60.3252 118.889 61.0623 120.12 61.9081 119.207C61.8562 118.539 61.1572 118.237 60.7508 118.006C61.0258 117.337 61.9834 116.864 61.3931 115.941C60.6445 115.868 60.2733 116.782 59.6803 117.165C58.4468 117.053 57.6284 115.613 56.252 115.97Z" fill="#B1BC00"/>
<path fill-rule="evenodd" clip-rule="evenodd" d="M69.4792 117.367C68.9961 116.992 68.6334 116.228 67.9592 116.461C67.999 116.539 67.8943 116.575 67.8418 116.626C67.9162 117.3 68.5529 117.881 68.9325 118.269C68.8526 118.777 67.7971 119.001 67.9889 119.586C68.3099 119.482 68.6285 119.383 68.9912 119.148C69.1941 119.692 68.8386 120.359 68.7499 120.999C68.6592 121.669 68.6034 122.379 68.7146 123.045C69.1563 122.707 69.4038 121.974 69.5676 121.371C69.7421 120.725 69.8135 120.018 69.9711 119.433C70.671 119.943 71.581 120.688 72.2386 121.353C72.4405 121.559 72.4767 122.028 72.8564 121.931C73.4451 121.566 72.8352 120.862 72.6245 120.537C72.0889 119.716 71.0044 118.895 70.5112 118.331C70.9903 117.809 72.143 117.48 71.5683 116.65C71.2748 116.613 70.7884 116.963 70.6058 117.167C70.5644 116.314 71.2268 115.668 70.9574 114.75C69.7329 115.148 69.9848 116.539 69.4792 117.367Z" fill="#B1BC00"/>
<path fill-rule="evenodd" clip-rule="evenodd" d="M62.9472 124.015C62.4642 124.694 63.0709 125.687 63.5314 126.637C63.0327 126.603 62.7114 125.992 62.1445 126.169C62.3017 126.985 63.1263 127.422 63.6377 127.795C63.4522 128.271 62.5643 128.543 62.6974 129.112C63.1609 129.05 63.7389 128.622 64.2588 128.374C65.1287 129.577 65.8329 131.311 66.737 132.41C67.2139 131.643 66.3352 130.481 65.9846 129.472C66.752 129.568 67.2374 130.581 68.1826 130.113C67.9713 128.727 66.2399 128.695 65.4222 127.849C65.8515 127.335 66.9578 127.016 67.0087 126.39C66.936 126.259 66.8678 126.128 66.7957 125.999C66.1271 125.901 65.5524 126.657 64.8351 126.95C64.3097 126.002 63.9809 124.12 62.9472 124.015Z" fill="#B1BC00"/>
<path fill-rule="evenodd" clip-rule="evenodd" d="M63.955 138.359C63.8141 138.96 62.8314 139.315 63.2221 140.068C63.7186 140.094 63.9981 139.565 64.503 139.379C65.0324 140.33 65.7607 141.819 66.3276 142.801H66.5752C66.7898 141.834 66.0357 140.589 65.7992 139.493C66.4186 139.575 66.8391 140.293 67.63 139.828C67.8296 138.867 66.5628 138.667 65.9753 138.286C66.3498 137.635 67.8923 137.123 67.5524 136.424C67.128 135.549 65.8149 136.926 65.1071 137.435C64.4782 136.902 64.4446 134.882 63.393 135.014C62.9599 135.529 63.3493 136.283 63.6413 137.009C63.1425 137.185 62.8715 136.624 62.3438 136.896C62.5196 137.718 63.3944 138.066 63.955 138.359Z" fill="#B1BC00"/>
<g opacity="0.21">
<path opacity="0.21" fill-rule="evenodd" clip-rule="evenodd" d="M56.252 115.97C56.5948 117.172 57.7735 117.497 58.526 118.089C58.6545 118.544 57.9255 118.752 58.2276 119.261C58.5479 119.517 59.0818 119.083 59.5564 118.852C60.3252 118.889 61.0623 120.12 61.9081 119.207C61.8562 118.539 61.1572 118.237 60.7508 118.006C61.0258 117.337 61.9834 116.864 61.3931 115.941C60.6445 115.868 60.2733 116.782 59.6803 117.165C58.4468 117.053 57.6284 115.613 56.252 115.97Z" fill="black"/>
<path opacity="0.21" fill-rule="evenodd" clip-rule="evenodd" d="M69.4792 117.367C68.9961 116.992 68.6334 116.228 67.9592 116.461C67.999 116.539 67.8943 116.575 67.8418 116.626C67.9162 117.3 68.5529 117.881 68.9325 118.269C68.8526 118.777 67.7971 119.001 67.9889 119.586C68.3099 119.482 68.6285 119.383 68.9912 119.148C69.1941 119.692 68.8386 120.359 68.7499 120.999C68.6592 121.669 68.6034 122.379 68.7146 123.045C69.1563 122.707 69.4038 121.974 69.5676 121.371C69.7421 120.725 69.8135 120.018 69.9711 119.433C70.671 119.943 71.581 120.688 72.2386 121.353C72.4405 121.559 72.4767 122.028 72.8564 121.931C73.4451 121.566 72.8352 120.862 72.6245 120.537C72.0889 119.716 71.0044 118.895 70.5112 118.331C70.9903 117.809 72.143 117.48 71.5683 116.65C71.2748 116.613 70.7884 116.963 70.6058 117.167C70.5644 116.314 71.2268 115.668 70.9574 114.75C69.7329 115.148 69.9848 116.539 69.4792 117.367Z" fill="black"/>
<path opacity="0.21" fill-rule="evenodd" clip-rule="evenodd" d="M62.9472 124.015C62.4642 124.694 63.0709 125.687 63.5314 126.637C63.0327 126.603 62.7114 125.992 62.1445 126.169C62.3017 126.985 63.1263 127.422 63.6377 127.795C63.4522 128.271 62.5643 128.543 62.6974 129.112C63.1609 129.05 63.7389 128.622 64.2588 128.374C65.1287 129.577 65.8329 131.311 66.737 132.41C67.2139 131.643 66.3352 130.481 65.9846 129.472C66.752 129.568 67.2374 130.581 68.1826 130.113C67.9713 128.727 66.2399 128.695 65.4222 127.849C65.8515 127.335 66.9578 127.016 67.0087 126.39C66.936 126.259 66.8678 126.128 66.7957 125.999C66.1271 125.901 65.5524 126.657 64.8351 126.95C64.3097 126.002 63.9809 124.12 62.9472 124.015Z" fill="black"/>
<path opacity="0.21" fill-rule="evenodd" clip-rule="evenodd" d="M63.955 138.359C63.8141 138.96 62.8314 139.315 63.2221 140.068C63.7186 140.094 63.9981 139.565 64.503 139.379C65.0324 140.33 65.7607 141.819 66.3276 142.801H66.5752C66.7898 141.834 66.0357 140.589 65.7992 139.493C66.4186 139.575 66.8391 140.293 67.63 139.828C67.8296 138.867 66.5628 138.667 65.9753 138.286C66.3498 137.635 67.8923 137.123 67.5524 136.424C67.128 135.549 65.8149 136.926 65.1071 137.435C64.4782 136.902 64.4446 134.882 63.393 135.014C62.9599 135.529 63.3493 136.283 63.6413 137.009C63.1425 137.185 62.8715 136.624 62.3438 136.896C62.5196 137.718 63.3944 138.066 63.955 138.359Z" fill="black"/>
</g>
<g opacity="0.21">
<path opacity="0.21" fill-rule="evenodd" clip-rule="evenodd" d="M56.252 115.97C56.5948 117.172 57.7735 117.497 58.526 118.089C58.6545 118.544 57.9255 118.752 58.2276 119.261C58.5479 119.517 59.0818 119.083 59.5564 118.852C60.3252 118.889 61.0623 120.12 61.9081 119.207C61.8562 118.539 61.1572 118.237 60.7508 118.006C61.0258 117.337 61.9834 116.864 61.3931 115.941C60.6445 115.868 60.2733 116.782 59.6803 117.165C58.4468 117.053 57.6284 115.613 56.252 115.97Z" fill="black"/>
<path opacity="0.21" fill-rule="evenodd" clip-rule="evenodd" d="M69.4792 117.367C68.9961 116.992 68.6334 116.228 67.9592 116.461C67.999 116.539 67.8943 116.575 67.8418 116.626C67.9162 117.3 68.5529 117.881 68.9325 118.269C68.8526 118.777 67.7971 119.001 67.9889 119.586C68.3099 119.482 68.6285 119.383 68.9912 119.148C69.1941 119.692 68.8386 120.359 68.7499 120.999C68.6592 121.669 68.6034 122.379 68.7146 123.045C69.1563 122.707 69.4038 121.974 69.5676 121.371C69.7421 120.725 69.8135 120.018 69.9711 119.433C70.671 119.943 71.581 120.688 72.2386 121.353C72.4405 121.559 72.4767 122.028 72.8564 121.931C73.4451 121.566 72.8352 120.862 72.6245 120.537C72.0889 119.716 71.0044 118.895 70.5112 118.331C70.9903 117.809 72.143 117.48 71.5683 116.65C71.2748 116.613 70.7884 116.963 70.6058 117.167C70.5644 116.314 71.2268 115.668 70.9574 114.75C69.7329 115.148 69.9848 116.539 69.4792 117.367Z" fill="black"/>
<path opacity="0.21" fill-rule="evenodd" clip-rule="evenodd" d="M62.9472 124.015C62.4642 124.694 63.0709 125.687 63.5314 126.637C63.0327 126.603 62.7114 125.992 62.1445 126.169C62.3017 126.985 63.1263 127.422 63.6377 127.795C63.4522 128.271 62.5643 128.543 62.6974 129.112C63.1609 129.05 63.7389 128.622 64.2588 128.374C65.1287 129.577 65.8329 131.311 66.737 132.41C67.2139 131.643 66.3352 130.481 65.9846 129.472C66.752 129.568 67.2374 130.581 68.1826 130.113C67.9713 128.727 66.2399 128.695 65.4222 127.849C65.8515 127.335 66.9578 127.016 67.0087 126.39C66.936 126.259 66.8678 126.128 66.7957 125.999C66.1271 125.901 65.5524 126.657 64.8351 126.95C64.3097 126.002 63.9809 124.12 62.9472 124.015Z" fill="black"/>
<path opacity="0.21" fill-rule="evenodd" clip-rule="evenodd" d="M63.955 138.359C63.8141 138.96 62.8314 139.315 63.2221 140.068C63.7186 140.094 63.9981 139.565 64.503 139.379C65.0324 140.33 65.7607 141.819 66.3276 142.801H66.5752C66.7898 141.834 66.0357 140.589 65.7992 139.493C66.4186 139.575 66.8391 140.293 67.63 139.828C67.8296 138.867 66.5628 138.667 65.9753 138.286C66.3498 137.635 67.8923 137.123 67.5524 136.424C67.128 135.549 65.8149 136.926 65.1071 137.435C64.4782 136.902 64.4446 134.882 63.393 135.014C62.9599 135.529 63.3493 136.283 63.6413 137.009C63.1425 137.185 62.8715 136.624 62.3438 136.896C62.5196 137.718 63.3944 138.066 63.955 138.359Z" fill="black"/>
</g>
<path fill-rule="evenodd" clip-rule="evenodd" d="M174.518 271.854C163.434 265.044 153.019 256.586 143.429 247.703C142.148 246.519 140.087 245.193 140.639 242.807C142.417 241.776 145.092 244.027 146.655 245.091C151.557 248.437 154.935 251.517 159.853 255.373C164.166 258.757 168.606 262.086 172.903 265.98C174.478 267.407 176.176 269.005 176.571 270.223C176.692 270.599 176.865 272.103 176.865 272.343C176.866 274.396 175.802 276.08 175.104 277.893C171.115 288.261 166.757 297.603 162.053 307.429C161.718 308.128 161.284 309.067 160.879 309.876C160.433 310.772 159.796 311.581 159.707 312.161C159.57 313.035 159.847 314.386 159.853 315.59C159.864 317.95 160.448 353.308 158.644 353.727C155.091 354.55 156.774 324.241 156.774 322.098C156.774 316.47 157.431 308.805 158.973 304.982C163.495 293.769 169.855 282.931 174.518 271.854Z" fill="#FF5000"/>
<g opacity="0.21">
<g opacity="0.21">
<path opacity="0.21" fill-rule="evenodd" clip-rule="evenodd" d="M174.518 271.854C163.434 265.044 153.019 256.586 143.429 247.703C142.148 246.519 140.087 245.193 140.639 242.807C142.417 241.776 145.092 244.027 146.655 245.091C151.557 248.437 154.935 251.517 159.853 255.373C164.166 258.757 168.606 262.086 172.903 265.98C174.478 267.407 176.176 269.005 176.571 270.223C176.692 270.599 176.865 272.103 176.865 272.343C176.866 274.396 175.802 276.08 175.104 277.893C171.115 288.261 166.757 297.603 162.053 307.429C161.718 308.128 161.284 309.067 160.879 309.876C160.433 310.772 159.796 311.581 159.707 312.161C159.57 313.035 159.847 314.386 159.853 315.59C159.864 317.95 160.448 353.308 158.644 353.727C155.091 354.55 156.774 324.241 156.774 322.098C156.774 316.47 157.431 308.805 158.973 304.982C163.495 293.769 169.855 282.931 174.518 271.854Z" fill="black"/>
</g>
</g>
<path fill-rule="evenodd" clip-rule="evenodd" d="M179.286 272.486C179.286 274.997 177.455 277.036 175.197 277.036C172.942 277.036 171.111 274.997 171.111 272.486C171.111 269.976 172.942 267.938 175.197 267.938C177.455 267.938 179.286 269.976 179.286 272.486Z" fill="#FF5000"/>
<path fill-rule="evenodd" clip-rule="evenodd" d="M177.144 272.486C177.144 273.685 176.273 274.653 175.196 274.653C174.122 274.653 173.25 273.685 173.25 272.486C173.25 271.29 174.122 270.319 175.196 270.319C176.273 270.32 177.144 271.29 177.144 272.486Z" fill="white"/>
<path fill-rule="evenodd" clip-rule="evenodd" d="M149.076 230.034C152.425 229.769 155.439 231.074 157.453 232.691C159.405 234.259 161.096 236.398 161.358 239.129C161.809 243.889 159.603 247.457 159.243 251.933C158.442 261.86 163.043 267.864 168.267 273.201C172.216 277.233 176.195 281.143 175.831 288.593C175.722 290.802 175.12 292.916 174.448 294.681C171.657 302.019 166.407 307.06 163.552 314.48C163.063 315.75 161.964 340.841 161.731 343.338C161.653 344.171 161.61 345.599 161.569 346.838C161.534 347.98 161.58 349.329 160.268 349.357C158.73 349.386 158.998 347.841 159.049 346.838C159.157 344.708 159.76 320.065 160.137 318.142C161.153 312.944 163.895 308.325 166.397 304.264C168.365 301.079 170.532 297.822 171.927 294.332C173.389 290.682 173.877 285.725 172.093 281.878C170.563 278.585 167.642 275.901 165.097 273.201C160.157 267.963 155.589 261.225 156.802 251.233C157.054 249.161 157.574 247.074 158.104 245.006C158.6 243.065 159.224 240.679 158.674 238.429C158.072 235.983 155.972 234.069 153.631 232.972C151.433 231.943 148.287 231.855 145.906 233.112C145.224 233.471 144.645 234.059 144.034 234.581C143.337 235.18 142.322 235.716 141.677 235.071C141.011 234.408 141.866 233.684 142.407 233.182C144.154 231.564 145.982 230.279 149.076 230.034Z" fill="#4D3D87"/>
<path fill-rule="evenodd" clip-rule="evenodd" d="M180.529 356.213C180.318 354.645 180.217 352.426 179.304 351.347C177.647 349.385 174.654 350.321 172.304 349.204C170.981 348.573 170.366 345.924 168.629 345.116C167.666 344.666 166.655 344.809 165.655 344.725C164.432 344.619 163.134 344.569 161.796 344.542C161.796 344.537 161.796 344.534 161.798 344.529C161.586 344.53 161.369 344.529 161.153 344.529C160.019 344.515 158.858 344.516 157.687 344.521C156.518 344.516 155.357 344.515 154.223 344.529C154.008 344.529 153.792 344.53 153.58 344.529C153.582 344.533 153.582 344.537 153.582 344.542C152.241 344.569 150.944 344.619 149.723 344.725C148.724 344.809 147.709 344.666 146.747 345.116C145.01 345.924 144.396 348.573 143.072 349.204C140.722 350.32 137.728 349.385 136.071 351.347C135.158 352.426 135.058 354.645 134.848 356.213C142.815 356.416 172.562 356.416 180.529 356.213Z" fill="#FF5000"/>
<path fill-rule="evenodd" clip-rule="evenodd" d="M136.046 275.361C126.164 269.872 117.311 263.313 109.185 256.012C106.497 253.597 103.869 251.101 101.521 248.348C106.937 243.755 113.191 239.617 122.162 238.785C132.212 237.856 138.64 243.528 140.752 251.002C141.937 255.203 141.585 260.488 140.524 264.586C139.458 268.702 137.953 272.143 136.046 275.361Z" fill="#FF5000"/>
<path opacity="0.21" d="M140.754 251.002C139.181 245.437 135.21 240.869 129.135 239.286C131.996 241.508 133.964 244.64 134.964 248.179C136.15 252.379 135.798 257.665 134.737 261.761C133.717 265.695 132.292 269.01 130.505 272.106C132.316 273.228 134.163 274.314 136.047 275.361C137.954 272.143 139.459 268.702 140.525 264.586C141.586 260.488 141.939 255.203 140.754 251.002Z" fill="black"/>
<path fill-rule="evenodd" clip-rule="evenodd" d="M136.047 275.361C135.608 276.042 133.909 274.813 133.088 274.374C127.309 271.292 122.234 267.109 117.229 263.22C112.895 259.853 108.727 256.296 104.633 252.597C103.995 252.02 103.304 251.35 102.661 250.7C102.056 250.091 101.068 248.909 101.522 248.348C101.829 247.969 103.292 248.941 104.253 249.562C106.55 251.045 109.129 252.506 111.234 254.04C114.287 256.261 117.106 258.603 119.808 260.792C124.149 264.308 128.235 267.599 132.404 271.187C133.057 271.75 133.797 272.332 134.454 272.934C135.048 273.477 136.489 274.675 136.047 275.361Z" fill="#8F7ECE"/>
<path d="M119.808 260.792C118.021 259.345 116.177 257.828 114.253 256.324C113.064 256.917 111.93 257.547 111.091 258.241C110.79 258.491 110.526 258.749 110.312 259.015C107.58 262.438 108.136 267.426 111.558 270.161C114.98 272.894 119.971 272.338 122.706 268.916C122.928 268.635 123.129 268.306 123.311 267.938C123.782 266.984 124.122 265.778 124.416 264.528C122.902 263.296 121.372 262.06 119.808 260.792Z" fill="#EFAD1B"/>
<path fill-rule="evenodd" clip-rule="evenodd" d="M119.741 242.095C118.934 240.935 122.553 240.39 122.132 241.714C121.913 242.406 120.391 242.319 119.741 242.095Z" fill="white"/>
<path fill-rule="evenodd" clip-rule="evenodd" d="M117.501 241.066C117.792 241.136 118.348 241.436 118.163 242.01C117.923 242.758 116.382 243.097 115.796 243.35C115.084 243.653 113.882 244.549 113.187 244.021C112.196 243.269 114.193 242.227 114.894 241.899C115.268 241.724 115.65 241.589 115.974 241.455C116.527 241.228 116.942 240.931 117.501 241.066Z" fill="white"/>
<path fill-rule="evenodd" clip-rule="evenodd" d="M132.554 268.021C132.462 267.158 133.086 265.836 133.779 264.575C134.074 264.034 134.57 263.168 135.082 263.379C135.698 263.631 135.293 264.705 135.148 265.087C134.684 266.301 133.88 267.673 133.239 268.277C133.044 268.341 132.708 268.202 132.554 268.021Z" fill="white"/>
<path fill-rule="evenodd" clip-rule="evenodd" d="M133.505 262.644C132.135 262.369 133.232 259.515 134.261 260.049C134.707 260.281 134.693 261.859 134.207 262.44C134.032 262.645 133.743 262.692 133.505 262.644Z" fill="white"/>
<path fill-rule="evenodd" clip-rule="evenodd" d="M136.378 257.422C135.885 257.375 135.67 256.688 135.723 255.971C135.765 255.394 136.108 254.31 136.719 254.566C136.993 254.679 137.239 255.204 137.209 255.801C137.178 256.502 137.018 257.481 136.378 257.422Z" fill="white"/>
<path fill-rule="evenodd" clip-rule="evenodd" d="M144.925 237.268C144.529 234.911 140.785 233.09 138.248 233.323C135.849 233.544 134.301 234.899 132.708 236.435C131.737 237.37 130.676 238.388 129.748 239.394C129.69 239.457 129.639 239.512 129.588 239.561C130.541 239.745 131.181 240.359 131.502 241.122C132.378 241.86 133.186 242.707 133.961 243.468C135.33 244.804 136.433 246.363 137.682 247.806C137.891 248.049 138.051 248.304 138.168 248.562C138.764 248.431 139.397 247.433 139.918 246.754C140.573 245.899 141.08 245.229 141.511 244.631C142.605 243.105 143.619 241.841 144.394 240.154C144.697 239.49 145.113 238.39 144.925 237.268ZM133.467 240.38C133.064 240.791 132.509 241.387 131.797 241.139C131.523 240.581 132.075 239.993 132.481 239.47C133.339 238.36 135.174 236.302 136.349 235.826C136.58 235.734 136.813 235.764 137.032 235.979C136.994 236.629 136.476 237.182 136.046 237.647C135.18 238.586 134.402 239.425 133.467 240.38ZM134.454 243.339C134.086 242.62 134.87 241.91 135.363 241.291C136.663 239.662 138.82 237.61 140.297 236.435C140.51 236.263 140.947 236.351 141.131 236.586C141.038 237.45 140.37 238.103 139.841 238.711C138.774 239.94 137.564 240.901 136.349 242.05C135.811 242.56 135.314 243.431 134.454 243.339ZM139.765 243.415C139.446 243.759 139.05 244.14 138.704 244.477C138.339 244.833 137.95 245.253 137.412 245.311C136.949 244.636 137.815 243.807 138.322 243.188C139.14 242.195 139.875 241.247 140.904 240.532C141.197 240.466 141.172 240.718 141.359 240.759C141.091 241.813 140.416 242.709 139.765 243.415Z" fill="#FF5000"/>
<path opacity="0.21" fill-rule="evenodd" clip-rule="evenodd" d="M144.925 237.268C144.529 234.911 140.785 233.09 138.248 233.323C135.849 233.544 134.301 234.899 132.708 236.435C131.737 237.37 130.676 238.388 129.748 239.394C129.69 239.457 129.639 239.512 129.588 239.561C130.541 239.745 131.181 240.359 131.502 241.122C132.378 241.86 133.186 242.707 133.961 243.468C135.33 244.804 136.433 246.363 137.682 247.806C137.891 248.049 138.051 248.304 138.168 248.562C138.764 248.431 139.397 247.433 139.918 246.754C140.573 245.899 141.08 245.229 141.511 244.631C142.605 243.105 143.619 241.841 144.394 240.154C144.697 239.49 145.113 238.39 144.925 237.268ZM133.467 240.38C133.064 240.791 132.509 241.387 131.797 241.139C131.523 240.581 132.075 239.993 132.481 239.47C133.339 238.36 135.174 236.302 136.349 235.826C136.58 235.734 136.813 235.764 137.032 235.979C136.994 236.629 136.476 237.182 136.046 237.647C135.18 238.586 134.402 239.425 133.467 240.38ZM134.454 243.339C134.086 242.62 134.87 241.91 135.363 241.291C136.663 239.662 138.82 237.61 140.297 236.435C140.51 236.263 140.947 236.351 141.131 236.586C141.038 237.45 140.37 238.103 139.841 238.711C138.774 239.94 137.564 240.901 136.349 242.05C135.811 242.56 135.314 243.431 134.454 243.339ZM139.765 243.415C139.446 243.759 139.05 244.14 138.704 244.477C138.339 244.833 137.95 245.253 137.412 245.311C136.949 244.636 137.815 243.807 138.322 243.188C139.14 242.195 139.875 241.247 140.904 240.532C141.197 240.466 141.172 240.718 141.359 240.759C141.091 241.813 140.416 242.709 139.765 243.415Z" fill="black"/>
<path fill-rule="evenodd" clip-rule="evenodd" d="M53.1024 498.72C53.3578 498.73 53.6419 498.437 53.728 499.347C53.8085 500.189 53.345 501.303 53.1908 502.12C52.9129 503.6 52.5078 505.615 52.4751 505.788C51.9412 508.682 51.57 511.101 51.2223 513.305C50.339 518.899 49.7549 523.829 49.1668 528.783C48.2241 536.7 47.9029 544.771 47.5552 553.478C47.4394 556.355 47.549 559.551 46.6608 561.351C46.2325 562.218 45.224 563.342 44.3336 563.588C43.3704 563.856 41.7118 563.585 40.8442 563.41C40.0284 563.245 38.8372 562.959 37.9814 562.782C36.1741 562.414 33.4208 561.975 32.7013 560.189C32.2681 559.114 32.5314 557.127 32.7907 555.626C33.5135 551.445 34.9721 547.025 36.0123 543.457C37.5401 538.214 39.1373 533.186 40.7545 527.71C42.3628 522.263 43.8381 516.751 45.496 511.874C46.2652 509.613 47.1664 506.989 48.2705 504.357C49.1593 502.237 50.7174 499.531 52.8343 498.719C52.8943 498.696 53.0368 498.718 53.1024 498.72Z" fill="#8F7ECE"/>
<path fill-rule="evenodd" clip-rule="evenodd" d="M79.8548 495.589C84.5076 495.366 90.0649 495.396 94.8864 495.589C99.731 495.783 104.503 495.7 109.472 496.035C113.958 496.338 118.564 496.812 123.25 497.289C127.63 497.733 132.554 498.303 135.418 500.061C137.478 501.326 138.344 503.035 138.998 505.699C140.643 512.409 140.958 523.587 141.414 530.751C141.596 533.635 141.724 536.637 141.86 539.519C141.998 542.415 142.308 545.317 142.308 548.198C142.306 554.013 143.124 560.713 141.143 564.93C140.567 566.158 139.811 567.048 138.191 567.614C135.461 568.568 131.081 567.929 127.633 567.614C116.956 566.641 105.144 566.521 93.9914 567.256C86.4647 567.753 79.4862 567.769 71.8903 568.42C68.6061 568.7 64.6917 569.096 60.9746 569.136C54.7291 569.201 48.8185 568.779 47.1962 564.303C46.4639 562.284 46.2 559.347 46.0327 556.519C45.5402 548.193 45.9293 538.356 46.3021 530.482C46.7852 520.243 46.9943 510.619 49.5227 502.387C50.042 500.698 50.7169 498.912 52.2062 498.004C53.6061 497.152 55.812 496.736 58.2019 496.482C62.7053 496.005 67.7182 495.915 72.4285 495.767C74.8621 495.69 77.3234 495.708 79.8548 495.589Z" fill="white"/>
<path fill-rule="evenodd" clip-rule="evenodd" d="M79.8548 495.589C84.5076 495.366 90.0649 495.396 94.8864 495.589C99.731 495.783 104.503 495.7 109.472 496.035C113.958 496.338 118.564 496.812 123.25 497.289C127.63 497.733 132.554 498.303 135.418 500.061C137.478 501.326 138.344 503.035 138.998 505.699C140.643 512.409 140.958 523.587 141.414 530.751C141.596 533.635 141.724 536.637 141.86 539.519C141.998 542.415 142.308 545.317 142.308 548.198C142.306 554.013 143.124 560.713 141.143 564.93C140.567 566.158 139.811 567.048 138.191 567.614C135.461 568.568 131.081 567.929 127.633 567.614C116.956 566.641 105.144 566.521 93.9914 567.256C86.4647 567.753 79.4862 567.769 71.8903 568.42C68.6061 568.7 64.6917 569.096 60.9746 569.136C54.7291 569.201 48.8185 568.779 47.1962 564.303C46.4639 562.284 46.2 559.347 46.0327 556.519C45.5402 548.193 45.9293 538.356 46.3021 530.482C46.7852 520.243 46.9943 510.619 49.5227 502.387C50.042 500.698 50.7169 498.912 52.2062 498.004C53.6061 497.152 55.812 496.736 58.2019 496.482C62.7053 496.005 67.7182 495.915 72.4285 495.767C74.8621 495.69 77.3234 495.708 79.8548 495.589Z" fill="#8F7ECE"/>
<path opacity="0.57" fill-rule="evenodd" clip-rule="evenodd" d="M79.8548 495.589C84.5076 495.366 90.0649 495.396 94.8864 495.589C99.731 495.783 104.503 495.7 109.472 496.035C113.958 496.338 118.564 496.812 123.25 497.289C127.63 497.733 132.554 498.303 135.418 500.061C137.478 501.326 138.344 503.035 138.998 505.699C140.643 512.409 140.958 523.587 141.414 530.751C141.596 533.635 141.724 536.637 141.86 539.519C141.998 542.415 142.308 545.317 142.308 548.198C142.306 554.013 143.124 560.713 141.143 564.93C140.567 566.158 139.811 567.048 138.191 567.614C135.461 568.568 131.081 567.929 127.633 567.614C116.956 566.641 105.144 566.521 93.9914 567.256C86.4647 567.753 79.4862 567.769 71.8903 568.42C68.6061 568.7 64.6917 569.096 60.9746 569.136C54.7291 569.201 48.8185 568.779 47.1962 564.303C46.4639 562.284 46.2 559.347 46.0327 556.519C45.5402 548.193 45.9293 538.356 46.3021 530.482C46.7852 520.243 46.9943 510.619 49.5227 502.387C50.042 500.698 50.7169 498.912 52.2062 498.004C53.6061 497.152 55.812 496.736 58.2019 496.482C62.7053 496.005 67.7182 495.915 72.4285 495.767C74.8621 495.69 77.3234 495.708 79.8548 495.589Z" fill="white"/>
<g opacity="0.78">
<path opacity="0.78" fill-rule="evenodd" clip-rule="evenodd" d="M121.908 507.13C122.117 509.635 122.196 512.269 122.175 515.005C119.749 515.141 117.245 515.203 114.75 515.273C114.858 512.451 114.467 509.65 114.66 507.041C117.068 507.078 119.639 506.953 121.908 507.13Z" fill="white"/>
<path opacity="0.78" fill-rule="evenodd" clip-rule="evenodd" d="M112.155 507.13C112.165 509.894 112.107 512.726 112.245 515.362C109.23 515.45 106.123 515.445 103.209 515.631C103.268 512.886 103.333 510.148 103.297 507.309C106.29 507.287 109.104 507.092 112.155 507.13Z" fill="#B1BC00"/>
<path opacity="0.78" fill-rule="evenodd" clip-rule="evenodd" d="M124.234 507.398C129.337 507.395 132.614 509.993 133.272 514.735C130.424 514.782 127.641 514.892 124.772 514.915C124.697 512.306 124.58 509.737 124.234 507.398Z" fill="white"/>
<path opacity="0.78" fill-rule="evenodd" clip-rule="evenodd" d="M100.881 507.398C100.791 510.172 100.743 512.986 100.613 515.72C96.9223 515.817 93.3305 516.012 89.6973 516.166C89.7175 513.411 89.9148 510.469 89.6973 507.756C93.3765 507.591 97.1477 507.513 100.881 507.398Z" fill="white"/>
<path opacity="0.78" fill-rule="evenodd" clip-rule="evenodd" d="M87.2824 507.846C87.4161 510.457 87.0811 513.37 87.1923 516.258C84.2692 516.466 81.2152 516.543 78.2461 516.705C78.2461 513.812 78.2461 510.918 78.2461 508.026C81.1966 507.965 84.5402 507.819 87.2824 507.846Z" fill="white"/>
<path opacity="0.78" fill-rule="evenodd" clip-rule="evenodd" d="M64.6452 508.114C64.4916 511.093 64.5569 514.29 64.3775 517.242C60.8982 517.224 57.474 517.257 54.1758 517.419C54.5861 514.707 54.9573 511.937 56.4136 510.172C58.0869 508.144 61.0375 508.224 64.6452 508.114Z" fill="white"/>
<path opacity="0.78" fill-rule="evenodd" clip-rule="evenodd" d="M75.8282 508.114C75.8031 511.043 75.5856 513.777 75.6488 516.793C72.7893 516.946 69.8896 517.059 66.9688 517.151C67.1309 514.123 66.9312 511 67.0598 508.114C70.296 508.144 72.5394 508.119 75.8282 508.114Z" fill="white"/>
<path opacity="0.78" fill-rule="evenodd" clip-rule="evenodd" d="M134.791 524.4C131.407 524.415 127.934 524.342 124.681 524.488C124.615 522.067 124.825 519.919 124.771 517.509C127.536 517.191 130.812 517.544 133.181 517.331C133.781 517.277 133.786 517.166 133.986 517.867C134.491 519.639 134.51 522.683 134.791 524.4Z" fill="white"/>
<path opacity="0.78" fill-rule="evenodd" clip-rule="evenodd" d="M122.175 517.6C122.118 519.869 122.291 522.367 122.086 524.488C119.712 524.619 117.204 524.618 114.75 524.669C114.808 522.401 114.631 519.898 114.839 517.777C117.386 517.821 119.66 517.588 122.175 517.6Z" fill="white"/>
<path opacity="0.78" fill-rule="evenodd" clip-rule="evenodd" d="M112.065 517.866C112.393 518.15 112.244 518.875 112.244 519.477C112.244 521.081 112.244 522.982 112.244 524.668C109.04 524.624 106.08 524.826 102.85 524.756C102.94 522.55 103.026 520.34 103.118 518.135C106.051 517.995 109.154 518.029 112.065 517.866Z" fill="white"/>
<path opacity="0.78" fill-rule="evenodd" clip-rule="evenodd" d="M100.523 518.225C100.576 520.544 100.312 522.548 100.344 524.846C96.7424 525.003 93.0227 525.041 89.517 525.295C89.4694 523.04 89.6752 521.038 89.607 518.762C93.1372 518.474 96.9234 518.442 100.523 518.225Z" fill="white"/>
<path opacity="0.78" fill-rule="evenodd" clip-rule="evenodd" d="M87.1013 518.851C87.0081 520.995 87.0779 523.302 86.922 525.383C84.0435 525.547 81.1321 525.676 78.2441 525.83C78.2441 523.622 78.2441 521.416 78.2441 519.21C81.2772 519.171 84.0921 518.914 87.1013 518.851Z" fill="#FF5000"/>
<path opacity="0.78" fill-rule="evenodd" clip-rule="evenodd" d="M75.6505 519.389C75.6505 521.565 75.6505 523.742 75.6505 525.919C72.5936 526.024 69.5302 526.122 66.6133 526.367C66.6625 524.09 66.7424 521.843 66.8817 519.657C69.9256 519.689 72.6442 519.395 75.6505 519.389Z" fill="white"/>
<path opacity="0.78" fill-rule="evenodd" clip-rule="evenodd" d="M53.9072 519.745C57.3956 519.699 60.8856 519.991 64.2873 519.745C64.2419 522.026 64.1402 524.252 64.0178 526.457C60.5559 526.751 56.8209 526.774 53.2812 526.993C53.6433 524.73 53.3432 521.805 53.9072 519.745Z" fill="white"/>
<path opacity="0.78" fill-rule="evenodd" clip-rule="evenodd" d="M134.97 526.906C135.341 529.247 135.355 531.949 135.506 534.51C131.866 534.716 128.1 534.797 124.503 535.047C124.451 532.312 124.66 529.836 124.592 527.084C127.947 526.92 131.442 526.894 134.97 526.906Z" fill="white"/>
<path opacity="0.78" fill-rule="evenodd" clip-rule="evenodd" d="M122.085 527.084C122.048 529.759 121.949 532.375 121.996 535.136C119.589 535.295 117.149 535.419 114.658 535.494C114.602 532.634 114.734 529.961 114.748 527.172C117.291 527.24 119.584 527.058 122.085 527.084Z" fill="#FF5000"/>
<path opacity="0.78" fill-rule="evenodd" clip-rule="evenodd" d="M112.155 527.173C112.097 529.978 112.274 533.018 112.066 535.674C108.786 535.703 105.715 535.942 102.492 536.03C102.524 533.079 102.633 530.206 102.762 527.353C105.788 527.187 109.152 527.362 112.155 527.173Z" fill="white"/>
<path opacity="0.78" fill-rule="evenodd" clip-rule="evenodd" d="M100.164 527.441C100.156 530.386 99.9222 533.104 99.9849 536.121C96.6145 536.357 92.9947 536.347 89.6071 536.567C89.398 533.823 89.5757 530.694 89.517 527.8C93.055 527.67 96.5069 527.452 100.164 527.441Z" fill="white"/>
<path opacity="0.78" fill-rule="evenodd" clip-rule="evenodd" d="M86.8354 527.888C86.9981 530.707 86.912 533.777 87.0141 536.658C84.0714 536.726 81.2259 536.894 78.334 537.016C78.1279 534.3 78.3034 531.2 78.2456 528.336C81.1574 528.236 84.0476 528.115 86.8354 527.888Z" fill="white"/>
<path opacity="0.78" fill-rule="evenodd" clip-rule="evenodd" d="M75.3809 528.426C75.8626 528.447 75.6385 529.111 75.6496 529.321C75.7641 531.748 75.6636 534.635 75.739 537.105C72.6068 537.224 69.512 537.38 66.2539 537.374C66.1825 534.438 66.4131 531.807 66.4333 528.963C69.2182 528.585 72.4639 528.671 75.3809 528.426Z" fill="white"/>
<path opacity="0.78" fill-rule="evenodd" clip-rule="evenodd" d="M63.9272 529.052C63.7775 531.793 63.7511 534.66 63.6601 537.462C60.1365 537.608 56.33 537.47 52.9222 537.73C52.9049 534.879 52.9881 532.129 53.1022 529.41C56.789 529.368 60.3896 529.241 63.9272 529.052Z" fill="white"/>
<path opacity="0.78" fill-rule="evenodd" clip-rule="evenodd" d="M135.597 537.104C135.814 540.138 135.777 543.426 135.775 546.676C132.078 546.676 128.379 546.676 124.682 546.676C124.592 543.665 124.458 540.698 124.503 537.551C128.222 537.424 131.802 537.156 135.597 537.104Z" fill="white"/>
<path opacity="0.78" fill-rule="evenodd" clip-rule="evenodd" d="M121.909 537.73C122.082 540.628 121.931 543.85 122.176 546.677C119.76 546.677 117.344 546.677 114.93 546.677C114.818 543.836 114.704 540.997 114.66 538.089C117.024 537.918 119.456 537.813 121.909 537.73Z" fill="white"/>
<path opacity="0.78" fill-rule="evenodd" clip-rule="evenodd" d="M112.154 538.178C112.136 541.119 112.252 543.925 112.423 546.676C109.092 546.657 105.959 546.833 102.581 546.768C102.48 544.181 102.399 541.106 102.581 538.535C105.848 538.494 108.932 538.265 112.154 538.178Z" fill="white"/>
<path opacity="0.78" fill-rule="evenodd" clip-rule="evenodd" d="M99.8975 538.715C99.8388 541.488 100.05 543.989 99.9852 546.768C96.6345 546.717 93.3166 546.637 89.8762 546.676C89.8511 544.076 89.7046 541.599 89.6074 539.073C93.0613 538.976 96.4355 538.803 99.8975 538.715Z" fill="#B1BC00"/>
<path opacity="0.78" fill-rule="evenodd" clip-rule="evenodd" d="M87.101 539.162C87.1394 541.719 87.2865 544.168 87.3697 546.677C84.5177 546.838 81.4719 546.805 78.6903 547.037C78.6417 544.491 78.385 542.152 78.4215 539.52C81.3603 539.447 84.214 539.288 87.101 539.162Z" fill="white"/>
<path opacity="0.78" fill-rule="evenodd" clip-rule="evenodd" d="M75.7384 539.61C76.0587 541.943 75.9608 544.694 76.1855 547.124C72.9147 547.284 69.5365 547.336 66.2533 547.483C66.1805 545.021 66.1359 542.531 66.1655 539.967C69.3353 539.829 72.6642 539.845 75.7384 539.61Z" fill="white"/>
<path opacity="0.78" fill-rule="evenodd" clip-rule="evenodd" d="M63.6605 540.057C63.6605 542.563 63.6605 545.067 63.6605 547.572C59.9261 547.656 56.2929 547.839 52.7448 548.109C52.5374 545.545 52.7151 542.595 52.9226 540.146C56.3317 539.947 60.1039 540.11 63.6605 540.057Z" fill="white"/>
<path opacity="0.78" fill-rule="evenodd" clip-rule="evenodd" d="M100.076 549.275C100.094 552.328 100.188 555.306 100.345 558.22C97.1267 558.343 93.7978 558.354 90.5929 558.49C90.3391 555.521 90.1427 552.498 90.0566 549.361C90.1215 549.279 90.2187 549.226 90.3238 549.184C93.4501 549.337 96.8178 549.252 100.076 549.275Z" fill="white"/>
<path opacity="0.78" fill-rule="evenodd" clip-rule="evenodd" d="M122.266 549.274C122.34 552.003 122.313 554.833 122.443 557.505C120.169 557.527 117.91 557.565 115.734 557.683C115.509 554.958 115.252 552.26 115.108 549.452C115.104 549.3 115.173 549.22 115.286 549.183C117.585 549.242 120.116 549.065 122.266 549.274Z" fill="white"/>
<path opacity="0.78" fill-rule="evenodd" clip-rule="evenodd" d="M87.4598 549.274C87.6213 552.394 87.8372 555.458 87.9961 558.578C85.1121 558.646 82.3324 558.82 79.5861 559.025C79.2847 555.927 79.0433 552.769 78.8711 549.541C81.7169 549.436 84.4884 549.253 87.4598 549.274Z" fill="white"/>
<path opacity="0.78" fill-rule="evenodd" clip-rule="evenodd" d="M112.513 549.274C112.77 552.089 112.9 555.03 113.229 557.774C109.683 557.806 106.41 558.112 102.85 558.132C102.77 555.259 102.585 552.014 102.671 549.274C105.951 549.274 109.232 549.274 112.513 549.274Z" fill="white"/>
<path opacity="0.78" fill-rule="evenodd" clip-rule="evenodd" d="M124.86 549.274C128.469 549.274 132.078 549.274 135.687 549.274C135.604 551.804 135.479 553.771 134.523 555.179C132.839 557.649 128.976 557.245 124.95 557.415C125.032 554.648 124.712 551.805 124.86 549.274Z" fill="white"/>
<path opacity="0.78" fill-rule="evenodd" clip-rule="evenodd" d="M76.0961 549.63C76.5802 549.762 76.3375 550.405 76.3656 550.705C76.6043 553.323 76.7977 556.395 76.9905 559.116C73.6678 559.43 70.2107 559.61 66.7017 559.742C66.3964 556.647 66.3775 553.263 66.2539 549.99C69.5632 549.898 72.9186 549.851 76.0961 549.63Z" fill="white"/>
<path opacity="0.78" fill-rule="evenodd" clip-rule="evenodd" d="M63.7497 550.078C63.7513 553.446 63.9587 556.61 64.1068 559.83C60.9214 559.494 58.0664 559.273 56.1446 557.773C54.122 556.194 53.245 553.66 52.834 550.436C56.5605 550.406 60.1422 550.229 63.7497 550.078Z" fill="white"/>
</g>
<path fill-rule="evenodd" clip-rule="evenodd" d="M56.2153 511.464C53.8496 511.472 56.5346 505.967 57.9623 507.807C58.7069 508.765 57.141 510.782 56.2153 511.464Z" fill="#8F7ECE"/>
<path fill-rule="evenodd" clip-rule="evenodd" d="M135.535 518.102C134.759 517.172 134.461 515.154 134.287 513.153C134.211 512.296 134.115 510.908 134.873 510.755C135.783 510.572 136.145 512.131 136.271 512.687C136.675 514.456 136.803 516.671 136.526 517.869C136.35 518.094 135.851 518.195 135.535 518.102Z" fill="#8F7ECE"/>
<path fill-rule="evenodd" clip-rule="evenodd" d="M132.473 511.123C130.671 511.865 129.732 507.703 131.343 507.523C132.041 507.448 133.246 509.291 133.132 510.341C133.087 510.716 132.788 510.992 132.473 511.123Z" fill="#8F7ECE"/>
<path fill-rule="evenodd" clip-rule="evenodd" d="M57.8057 502.862C57.638 501.414 58.4296 500.51 58.9763 499.618C59.613 498.582 60.4353 497.193 60.1469 495.204C60.0765 494.7 59.8305 494.026 59.4274 493.941C58.4172 493.728 58.0885 495.153 57.895 496.194C57.6977 497.268 57.7933 498.928 56.9051 498.898C56.2576 498.875 56.0877 497.713 56.0939 496.735C56.1063 494.259 57.5245 491.086 60.2386 491.958C61.8358 492.474 62.905 495.461 62.7609 498.086C62.6888 499.413 62.313 500.691 61.6803 501.78C60.8831 503.156 59.0304 504.679 57.8057 502.862Z" fill="#4D3D87"/>
<path fill-rule="evenodd" clip-rule="evenodd" d="M72.4551 501.746C72.0337 500.606 72.8074 499.455 73.2647 498.412C73.9523 496.849 74.981 494.684 73.8968 492.825C73.069 492.955 72.8443 493.685 72.5452 494.357C72.2735 494.967 72.2076 495.944 71.4639 496.07C70.9 495.666 71.4959 494.765 71.734 493.997C72.1342 492.708 72.9711 490.41 74.8874 491.292C76.1216 491.863 76.5695 494.512 76.4191 496.61C76.3297 497.858 75.8897 499.442 75.2485 500.395C74.6336 501.306 73.5971 502.228 72.4551 501.746Z" fill="#4D3D87"/>
<path fill-rule="evenodd" clip-rule="evenodd" d="M66.5975 492.915C65.8669 493.105 65.6784 493.846 65.4269 494.537C65.1777 495.221 65.1624 496.123 64.6157 496.519C63.8662 496.39 64.1183 494.885 64.254 494.177C64.543 492.683 66.0339 490.133 68.0392 491.564C69.1622 492.365 69.4205 494.692 69.3015 496.339C69.1795 498.039 68.5428 500.06 67.6791 501.115C67.3963 501.462 66.7834 502.025 66.4168 502.106C65.589 502.291 64.7285 501.882 64.7067 501.386C64.6653 500.491 65.6787 499.489 66.059 498.682C66.6376 497.447 67.1546 496.047 67.1386 494.537C67.1341 494.088 67.12 493.352 66.5975 492.915Z" fill="#4D3D87"/>
<path fill-rule="evenodd" clip-rule="evenodd" d="M80.1142 501.044C79.9482 499.598 80.7382 498.692 81.2865 497.801C81.9231 496.763 82.7438 495.376 82.4571 493.387C82.3866 492.882 82.1407 492.209 81.7375 492.124C80.7274 491.911 80.397 493.336 80.2052 494.377C80.0079 495.45 80.1034 497.11 79.2136 497.081C78.5662 497.058 78.3979 495.896 78.4024 494.918C78.4165 492.442 79.834 489.268 82.5487 490.141C84.1463 490.656 85.2136 493.644 85.071 496.269C84.9989 497.596 84.6216 498.874 83.9904 499.963C83.1916 501.339 81.3386 502.862 80.1142 501.044Z" fill="#4D3D87"/>
<path fill-rule="evenodd" clip-rule="evenodd" d="M118.895 501.596C118.729 500.148 119.518 499.245 120.067 498.352C120.703 497.316 121.523 495.927 121.237 493.937C121.166 493.435 120.92 492.762 120.518 492.676C119.507 492.463 119.178 493.887 118.986 494.93C118.787 496.001 118.884 497.663 117.993 497.632C117.348 497.61 117.177 496.448 117.184 495.47C117.196 492.994 118.614 489.82 121.328 490.693C122.926 491.208 123.995 494.196 123.851 496.819C123.779 498.147 123.404 499.426 122.77 500.515C121.973 501.889 120.12 503.414 118.895 501.596Z" fill="#4D3D87"/>
<path fill-rule="evenodd" clip-rule="evenodd" d="M102.911 501.166C102.744 499.716 103.535 498.813 104.082 497.922C104.718 496.885 105.539 495.497 105.253 493.508C105.182 493.003 104.936 492.329 104.533 492.245C103.522 492.032 103.192 493.457 103 494.498C102.803 495.571 102.9 497.23 102.011 497.201C101.363 497.179 101.193 496.017 101.199 495.039C101.212 492.562 102.63 489.387 105.344 490.262C106.942 490.778 108.009 493.765 107.867 496.391C107.794 497.716 107.418 498.993 106.785 500.084C105.987 501.46 104.137 502.983 102.911 501.166Z" fill="#4D3D87"/>
<path fill-rule="evenodd" clip-rule="evenodd" d="M94.9811 501.314C94.563 500.174 95.335 499.024 95.7939 497.981C96.4799 496.418 97.5086 494.252 96.4257 492.393C95.5966 492.524 95.3742 493.254 95.0728 493.925C94.8011 494.536 94.7358 495.512 93.9912 495.638C93.4272 495.234 94.0235 494.332 94.2613 493.566C94.6631 492.276 95.4971 489.98 97.4163 490.863C98.6489 491.431 99.0984 494.081 98.947 496.179C98.857 497.427 98.4186 499.011 97.7758 499.963C97.1613 500.874 96.1244 501.797 94.9811 501.314Z" fill="#4D3D87"/>
<path fill-rule="evenodd" clip-rule="evenodd" d="M89.1245 492.485C88.3939 492.674 88.2044 493.415 87.9539 494.107C87.705 494.793 87.6893 495.693 87.1427 496.088C86.3931 495.96 86.6456 494.456 86.7826 493.746C87.0716 492.253 88.5609 489.702 90.5678 491.134C91.6908 491.935 91.9475 494.261 91.8284 495.909C91.7078 497.609 91.0711 499.63 90.2057 500.684C89.9229 501.031 89.3114 501.595 88.9451 501.677C88.116 501.861 87.2552 501.452 87.2333 500.955C87.1919 500.06 88.2044 499.059 88.584 498.251C89.1643 497.019 89.6809 495.616 89.6653 494.107C89.6607 493.657 89.6467 492.923 89.1245 492.485Z" fill="#4D3D87"/>
<path fill-rule="evenodd" clip-rule="evenodd" d="M126.665 503.903C126.245 502.764 127.017 501.613 127.476 500.57C128.162 499.008 129.19 496.841 128.106 494.984C127.28 495.113 127.053 495.842 126.754 496.515C126.482 497.124 126.419 498.1 125.673 498.227C125.109 497.823 125.706 496.92 125.943 496.154C126.343 494.864 127.18 492.568 129.098 493.451C130.33 494.019 130.778 496.669 130.629 498.766C130.539 500.014 130.1 501.6 129.457 502.551C128.843 503.462 127.805 504.385 126.665 503.903Z" fill="#4D3D87"/>
<path fill-rule="evenodd" clip-rule="evenodd" d="M112.09 492.136C111.359 492.325 111.169 493.066 110.918 493.759C110.67 494.443 110.655 495.344 110.107 495.74C109.359 495.612 109.61 494.107 109.746 493.398C110.035 491.905 111.526 489.353 113.532 490.785C114.655 491.586 114.911 493.913 114.793 495.561C114.671 497.261 114.037 499.281 113.171 500.336C112.889 500.682 112.275 501.246 111.909 501.328C111.08 501.511 110.22 501.102 110.199 500.606C110.158 499.713 111.169 498.711 111.551 497.902C112.13 496.669 112.646 495.268 112.631 493.758C112.625 493.309 112.611 492.574 112.09 492.136Z" fill="#4D3D87"/>
</svg>
