<svg width="213" height="213" viewBox="0 0 213 213" fill="none" xmlns="http://www.w3.org/2000/svg">
<path d="M167.36 171.076L167.204 172.216C166.979 173.857 165.466 175.005 163.825 174.781L79.2657 163.184C77.6249 162.959 76.4769 161.446 76.702 159.805L76.8581 158.666L167.36 171.076Z" fill="#8F7ECE"/>
<path d="M84.813 100.649C85.0387 99.0071 86.5515 97.8595 88.194 98.0849L172.752 109.68C174.392 109.905 175.542 111.418 175.316 113.06L167.36 171.077L76.8574 158.666L84.813 100.649Z" fill="#8F7ECE"/>
<path opacity="0.75" d="M165.025 170.745L172.688 114.862C172.902 113.306 171.814 111.871 170.257 111.658L90.0641 100.66C88.5071 100.447 87.0733 101.536 86.861 103.093L79.1973 158.976L165.025 170.745Z" fill="white"/>
<path fill-rule="evenodd" clip-rule="evenodd" d="M165.494 163.839C164.547 164.888 164.108 167.232 163.817 169.561C163.691 170.558 163.517 172.174 164.395 172.387C165.451 172.644 165.943 170.838 166.114 170.192C166.663 168.147 166.912 165.567 166.642 164.153C166.448 163.882 165.871 163.746 165.494 163.839Z" fill="white"/>
<path fill-rule="evenodd" clip-rule="evenodd" d="M161.582 169.142C159.508 168.193 158.229 173.013 160.099 173.293C160.912 173.414 162.4 171.313 162.312 170.085C162.277 169.645 161.941 169.307 161.582 169.142Z" fill="white"/>
<path fill-rule="evenodd" clip-rule="evenodd" d="M123.418 106.681C123.418 125.344 138.547 140.472 157.209 140.472C175.87 140.472 190.999 125.344 190.999 106.681C190.999 88.0194 175.87 72.8906 157.209 72.8906C138.547 72.8906 123.418 88.0194 123.418 106.681Z" fill="#EFAD1B"/>
<path d="M166.135 130.74C166.551 129.286 166.882 127.853 168.061 126.99C168.46 126.698 169.168 126.461 169.78 126.323C171.091 126.029 172.411 126.082 173.809 126.079C175.231 126.076 176.733 125.961 177.629 125.308C178.256 124.851 178.564 124.109 178.75 123.274C178.957 122.358 178.963 121.264 178.611 120.366C178.545 120.199 178.454 120.021 178.365 119.804C178.289 119.619 178.225 119.441 178.12 119.209C178.039 119.03 177.978 118.931 177.91 118.683C177.856 118.488 177.79 118.134 177.841 117.877C178.004 117.036 179.053 116.73 179.066 115.844C179.069 115.631 179.066 115.476 178.96 115.353C178.898 115.279 178.679 115.136 178.646 114.968C178.588 114.666 179.029 114.304 179.066 113.917C179.138 113.173 178.393 112.772 178.365 112.024C178.345 111.48 178.615 111.032 178.996 110.728C179.05 110.684 179.141 110.674 179.207 110.622C179.263 110.577 179.292 110.482 179.347 110.447C179.483 110.361 179.659 110.321 179.803 110.236C180.294 109.948 180.831 109.525 181.063 109.045C181.357 108.443 181.245 107.604 180.889 106.977C180.812 106.842 180.671 106.696 180.573 106.557C180.298 106.163 179.974 105.782 179.627 105.4C178.749 104.431 177.765 103.525 176.858 102.562C176.509 102.19 176.196 101.853 175.876 101.44C175.629 101.119 175.278 100.766 175.072 100.353C175.046 100.303 175.035 100.183 175.001 100.108C174.711 99.464 174.8 98.4431 174.86 97.6895C174.931 96.8056 175.079 95.9642 174.931 94.9568C174.767 93.8346 174.173 92.7133 173.634 91.8016C173.348 91.3164 173.057 90.8592 172.758 90.4344C171.27 88.3255 169.291 86.1513 167.396 84.6861C167.08 84.4425 166.766 84.221 166.416 83.9857C166.096 83.7718 165.806 83.577 165.467 83.3896C165.001 83.1314 164.546 82.8598 164.031 82.6182C162.312 81.8141 160.418 81.181 158.353 80.8661C157.745 80.7743 157.13 80.7205 156.495 80.6562C155.876 80.5931 155.24 80.507 154.603 80.4809C154.177 80.4634 153.782 80.5199 153.377 80.5166C150.532 80.4862 147.977 81.0813 145.911 82.023C145.621 82.1554 145.348 82.3059 145.07 82.4432C144.207 82.8703 143.406 83.2783 142.582 83.7748C141.769 84.2659 141.146 84.829 140.479 85.4568C140.053 85.8602 139.652 86.2883 139.253 86.7537C139.06 86.9788 138.859 87.2175 138.728 87.4901C138.522 87.6188 138.433 87.8542 138.307 88.0509C138.183 88.2437 138.034 88.4173 137.921 88.6117C137.812 88.7969 137.747 89.0124 137.641 89.2075C137.415 89.6211 137.215 90.0076 137.01 90.5037C136.953 90.643 136.863 90.7942 136.8 90.9599C136.781 91.0094 136.814 91.0619 136.8 91.0995C136.628 91.5481 136.472 91.9963 136.344 92.4667C136.158 93.1569 136.002 93.8223 135.888 94.6056C135.826 95.0433 135.748 95.5935 135.712 96.1824C135.683 96.6967 135.675 97.2416 135.679 97.8298C135.695 100.092 136.079 102.348 136.626 104.349C136.689 104.584 136.797 104.813 136.87 105.05C137.789 108.066 139.096 110.384 140.691 112.655C140.947 113.019 141.26 113.353 141.532 113.706C141.806 114.063 142.075 114.424 142.337 114.793C142.869 115.54 143.391 116.293 143.845 117.106C144.298 117.921 144.716 118.793 145.001 119.735C145.153 120.24 145.317 120.78 145.352 121.312C145.482 123.33 142.863 131.697 141.463 136.583C146.165 139.066 151.522 140.473 157.211 140.473C159.295 140.473 161.336 140.283 163.316 139.921C164.196 137.088 165.131 134.057 165.398 133.158C165.632 132.369 165.899 131.557 166.135 130.74Z" fill="white"/>
<path opacity="0.67" d="M157.717 128.637C157.488 127.492 156.865 126.636 156.691 125.483C156.514 124.321 156.892 123.35 157.364 122.645C158.634 120.747 161.181 120.324 163.817 119.84C164.683 119.681 165.705 119.431 166.737 119.42C167.773 119.407 169.099 119.394 169.53 119.945C169.891 120.407 169.765 121.533 169.882 122.399C169.963 122.991 170.198 124.116 170.878 124.116C171.385 124.116 171.562 123.533 171.616 123.099C171.679 122.607 171.681 121.926 171.681 121.382C171.681 120.136 171.87 118.751 171.616 117.982C171.103 116.429 168.987 116.346 166.962 116.58C164.238 116.895 162.197 117.704 159.9 118.473C159.36 118.654 158.796 118.865 158.199 119.034C157.66 119.187 156.903 119.381 156.306 119.35C155.885 119.327 155.249 119.116 155.119 118.614C154.988 118.123 155.238 117.508 155.407 117.106C156.336 114.887 158.364 114.197 160.799 113.637C162.748 113.188 164.778 113.066 167.059 113.251C169.708 113.466 172.138 113.972 174.731 113.741C175.306 113.69 175.789 113.469 175.854 113.11C175.972 112.457 175.262 111.7 174.956 111.289C174.525 110.709 174.164 110.232 173.767 109.781C172.885 108.778 172.037 107.854 171.232 106.943C170.364 105.96 169.45 105.098 168.213 104.629C166.947 104.148 165.34 104.156 163.624 104.068C162.362 104.004 159.977 103.873 159.033 104.419C158.265 104.862 157.867 105.947 157.654 107.012C157.497 107.796 157.439 108.652 157.171 109.36C156.63 110.803 155.383 111.603 154.155 112.374C153.292 112.916 152.237 113.501 151.682 114.407C150.821 115.818 150.946 118.052 150.849 120.33C150.663 124.686 150.555 129.138 149.724 132.773C149.354 134.4 148.114 137.225 147.51 139.057C150.004 139.803 152.617 140.27 155.317 140.419C156.089 137.725 156.881 134.338 157.46 132.037C157.725 130.989 157.956 129.83 157.717 128.637Z" fill="#CAD309"/>
<path opacity="0.29" fill-rule="evenodd" clip-rule="evenodd" d="M162.349 105.82C161.649 106.098 161.297 107.006 160.984 107.713C160.65 108.464 160.321 109.252 159.966 109.851C159.259 111.047 158.141 112.176 156.919 113.11C155.805 113.959 154.54 114.895 153.133 115.634C152.502 115.964 151.676 116.354 150.82 116.474C149.955 116.596 148.953 116.428 148.295 115.879C147.339 115.079 147.5 113.311 147.981 112.129C148.632 110.522 149.699 109.407 150.82 108.309C151.331 107.807 152.075 107.164 152.187 106.346C152.249 105.895 152.138 105.435 152.081 105.049C152.016 104.595 151.946 104.147 152.048 103.717C152.337 102.466 153.841 101.715 154.921 101.298C156.142 100.827 157.522 100.549 158.846 100.317C160.187 100.082 161.769 100.032 163.402 99.9661C165.085 99.8995 166.824 100.189 167.749 99.4763C168.557 98.8531 168.464 97.4727 168.204 96.3211C167.939 95.1467 167.642 94.2584 167.573 92.817C167.535 92.005 167.648 91.0342 168.274 91.2745C168.945 91.5307 169.725 92.2559 170.307 92.8863C171.145 93.797 172.048 94.7011 172.48 95.9362C173.01 97.4496 172.62 99.8031 172.829 101.473C172.914 102.138 173.065 102.929 172.936 103.506C172.754 104.314 172.27 105.141 171.358 105.363C170.202 105.884 163.491 105.367 162.349 105.82Z" fill="#8F7ECE"/>
<path opacity="0.41" fill-rule="evenodd" clip-rule="evenodd" d="M176.101 120.717C176.082 120.711 176.071 120.684 176.032 120.682C175.297 120.639 175.359 121.663 175.189 121.979C174.995 122.343 174.255 122.402 173.647 122.434C172.248 122.509 171.278 122.469 169.757 122.469C169.213 122.469 168.304 122.319 168.074 122.679C167.908 122.94 168.091 123.457 168.144 123.626C168.43 124.509 169.056 124.597 170.282 124.643C170.809 124.662 171.377 124.704 171.895 124.748C173.04 124.844 174.268 125.013 175.153 124.922C175.675 124.87 176.103 124.647 176.241 124.326C176.414 123.923 176.262 123.398 176.31 122.714C176.352 122.142 176.512 121.784 176.486 121.418C176.46 121.059 176.359 120.794 176.101 120.717Z" fill="#FF5000"/>
<path opacity="0.41" fill-rule="evenodd" clip-rule="evenodd" d="M153.467 84.5063C155.337 84.5063 157.074 84.8239 158.585 85.2774C160.02 85.7085 161.551 86.326 162.719 87.0298C163.87 87.7223 165.085 88.6944 165.628 90.0081C166.297 91.6281 165.816 93.6571 165.102 94.7747C164.171 96.2337 161.859 96.5231 159.986 96.9483C158.604 97.2615 157.222 97.6216 155.92 97.9296C155.211 98.0966 154.563 98.2372 153.957 98.4558C152.185 99.0921 150.568 100.193 149.751 101.82C149.349 102.62 149.17 103.432 148.804 104.169C148.155 105.481 146.984 107.097 145.09 107.112C144.111 107.12 143.345 106.752 142.602 106.272C141.288 105.421 140.391 104.151 139.764 102.485C139.155 100.875 138.772 99.0017 139.061 96.7384C139.279 95.0447 139.956 93.1151 140.71 91.7611C141.558 90.2361 142.355 89.0416 143.548 87.9405C145.716 85.9395 149.139 84.3033 153.395 84.5063C153.42 84.5073 153.444 84.5063 153.467 84.5063ZM162.72 87.5206C162.681 87.5156 162.808 87.6015 162.859 87.6256C162.956 87.6691 162.868 87.5358 162.72 87.5206Z" fill="#FF5000"/>
<path fill-rule="evenodd" clip-rule="evenodd" d="M127.64 99.9455C128.187 100.956 128.086 102.891 127.87 104.786C127.78 105.595 127.609 106.906 126.877 106.907C125.994 106.906 125.949 105.388 125.936 104.846C125.894 103.126 126.189 101.04 126.673 99.9775C126.88 99.8003 127.361 99.8016 127.64 99.9455Z" fill="white"/>
<path fill-rule="evenodd" clip-rule="evenodd" d="M129.716 104.881C131.534 104.528 131.626 108.578 130.094 108.443C129.429 108.381 128.655 106.439 128.959 105.487C129.072 105.145 129.4 104.944 129.716 104.881Z" fill="white"/>
<path fill-rule="evenodd" clip-rule="evenodd" d="M128.282 115.287C128.91 115.094 129.518 115.828 129.816 116.734C130.053 117.461 130.179 118.962 129.296 118.959C128.908 118.959 128.343 118.434 128.079 117.688C127.765 116.815 127.471 115.533 128.282 115.287Z" fill="white"/>
<path fill-rule="evenodd" clip-rule="evenodd" d="M182.925 92.4666C184.835 92.3781 182.441 88.0409 181.364 89.585C180.801 90.3897 182.15 91.954 182.925 92.4666Z" fill="white"/>
<path fill-rule="evenodd" clip-rule="evenodd" d="M185.873 94.0252C185.558 93.7711 184.777 93.4195 184.313 94.0906C183.707 94.965 184.611 96.8996 184.824 97.735C185.081 98.751 185.11 100.779 186.249 101.092C187.873 101.537 187.349 98.5348 187.123 97.5099C187.005 96.9649 186.835 96.4424 186.712 95.9866C186.5 95.2063 186.479 94.5147 185.873 94.0252Z" fill="white"/>
<path fill-rule="evenodd" clip-rule="evenodd" d="M159.645 159.071C159.413 160.467 158.948 162.618 158.604 164.373C158.435 165.25 158.398 166.477 157.367 166.206C156.619 166.009 156.728 165.249 156.818 164.693C157.039 163.314 157.325 162.16 157.609 160.738C157.75 160.035 158.015 159.264 157.961 158.783C157.9 158.244 157.437 157.954 157.283 157.445C156.881 156.117 156.943 154.707 156.983 153.023C156.998 152.4 156.766 148.581 158.187 148.978C158.925 149.183 158.704 150.203 158.651 151.033C158.523 153.065 158.524 154.586 158.873 156.497C159.05 157.478 159.079 157.787 159.893 156.943C160.934 155.864 161.748 154.08 162.5 152.321C162.883 151.424 163.17 149.929 164.086 150.094C165.396 150.33 164.643 151.591 164.105 152.87C162.984 155.547 161.68 158.243 159.645 159.071Z" fill="white"/>
<path fill-rule="evenodd" clip-rule="evenodd" d="M129.206 146.203C129.749 150.026 127.759 155.982 124.828 157.567C124.397 157.8 123.78 157.987 123.206 157.9C122.08 157.729 121.38 156.851 121.129 156.111C120.222 153.445 121.125 148.404 122.786 144.501C123.258 143.392 123.958 141.559 124.69 141.327C124.93 141.249 125.29 141.375 125.602 141.388C125.983 141.404 126.213 141.361 126.453 141.432C127.976 141.888 128.508 143.472 128.873 144.58C129.875 144.283 130.805 142.249 131.828 141.906C132.237 141.769 132.792 142.143 132.765 142.572C132.739 143.016 132.291 143.341 131.985 143.677C131.102 144.649 130.192 145.562 129.206 146.203ZM125.584 142.844C124.816 144.219 126.028 145.587 127.512 145.387C127.319 144.342 126.961 142.894 125.584 142.844ZM124.162 145.027C124.178 144.961 124.098 144.956 124.084 145.071C123.684 145.989 123.373 147.091 123.048 148.228C122.449 150.329 122.155 152.279 122.294 154.121C122.353 154.891 122.49 156.157 123.241 156.383C124.238 156.683 125.26 155.288 125.749 154.577C127.197 152.47 128.014 149.159 127.759 146.852C126.277 147.156 124.57 146.092 124.162 145.027Z" fill="white"/>
<path fill-rule="evenodd" clip-rule="evenodd" d="M145.384 150.228C145.805 153.53 143.751 158.498 141.578 160.295C140.6 161.102 138.639 161.641 137.648 160.102C136.571 158.43 137 154.976 137.965 151.56C138.353 150.182 138.933 148.963 139.395 147.72C139.795 146.639 139.961 145.824 140.727 145.379C141.28 145.058 142.36 144.954 143.131 145.335C144.194 145.861 144.794 147.515 145.111 148.625C145.81 148.565 147.34 146.276 148.172 146.51C148.491 146.6 148.715 146.942 148.708 147.194C148.685 147.904 147.634 148.537 147.145 148.94C146.464 149.502 145.981 149.808 145.384 150.228ZM143.34 147.852C143.146 147.452 142.756 146.819 142.482 146.677C141.518 146.178 140.916 147.042 140.939 147.895C140.965 148.936 142.671 149.686 143.743 149.228C143.668 148.865 143.572 148.327 143.34 147.852ZM140.069 149.772C139.717 150.448 139.509 151.578 139.28 152.534C138.815 154.482 138.398 156.052 138.535 157.699C138.59 158.373 138.716 159.488 139.368 159.663C140.139 159.872 141.158 158.64 141.637 157.989C142.966 156.185 144.101 153.017 143.97 150.754C142.755 151.042 140.889 150.566 140.121 149.588C140.104 149.649 140.087 149.71 140.069 149.772Z" fill="white"/>
<path fill-rule="evenodd" clip-rule="evenodd" d="M155.012 150.922C153.84 150.599 154.091 149.843 153.259 149.623C152.286 149.368 151.453 150.511 150.855 151.527C149.665 153.55 148.721 156.311 148.627 158.857C148.588 159.899 148.638 161.589 149.442 161.812C149.919 161.944 150.318 161.408 150.645 161.094C151.041 160.709 151.338 160.41 151.565 159.963C150.706 159.789 149.318 159.93 149.602 158.937C149.771 158.339 150.527 158.464 151.18 158.525C152.056 158.607 153.018 158.688 153.53 159.13C154.325 159.816 153.738 162.25 153.564 163.655C153.452 164.552 153.445 165.599 152.59 165.435C151.781 165.279 151.975 164.177 152.03 163.681C152.126 162.814 152.246 162.34 152.397 161.463C151.414 162.782 149.232 164.312 147.829 162.348C146.109 159.94 147.941 151.323 151.083 148.87C151.718 148.374 152.88 147.863 154.118 148.475C154.629 148.728 156.345 150.454 155.012 150.922Z" fill="white"/>
<path fill-rule="evenodd" clip-rule="evenodd" d="M134.799 143.352C134.717 144.663 134.125 145.939 133.817 147.254C132.921 151.07 131.66 155.099 131.439 158.593C132.551 159.257 135.267 158.881 134.965 160.198C134.828 160.794 134.366 160.806 133.387 160.61C132.14 160.36 130.837 160.254 130.247 159.514C129.726 158.858 130.109 157.06 130.344 155.69C130.944 152.206 131.86 148.576 133.108 144.861C133.46 143.808 133.767 142.29 134.799 143.352Z" fill="white"/>
<path fill-rule="evenodd" clip-rule="evenodd" d="M112.536 148.078C113.738 148.965 115.023 150.619 113.902 152.585C113.248 153.733 110.585 156.008 109.168 155.215C108.215 154.682 108.854 152.76 109.177 151.234C109.97 147.482 110.91 143.776 112.088 139.65C112.503 138.197 112.396 137.442 113.746 137.8C116.872 138.629 118.686 140.546 117.473 143.579C116.527 145.942 114.119 147.013 112.536 148.078ZM116.096 143.052C116.855 141.173 115.881 139.836 113.588 139.282C112.884 141.808 112.464 144.175 111.728 146.717C112.891 146.148 115.324 144.967 116.096 143.052ZM110.114 153.76C110.958 153.516 112.258 152.751 112.675 151.769C113.282 150.339 112.096 149.623 111.237 148.901C110.786 150.562 110.494 152.137 110.114 153.76Z" fill="white"/>
<path fill-rule="evenodd" clip-rule="evenodd" d="M120.717 140.125C121.74 140.122 121.226 141.32 120.981 142.458C120.065 146.701 119.125 151.072 117.99 155.479C117.779 156.296 117.559 156.883 116.911 156.698C116.261 156.513 116.4 155.85 116.613 154.953C117.687 150.439 118.606 146.361 119.681 141.888C119.901 140.98 120.077 140.127 120.717 140.125Z" fill="white"/>
<path d="M121.454 135.616C121.367 135.616 121.279 135.595 121.195 135.55C117.529 133.559 115.067 130.265 114.612 126.741C114.381 124.958 114.737 123.285 115.59 122.124C115.345 118.595 117.836 114.245 119.8 112.167C120.005 111.949 120.347 111.94 120.564 112.145C120.781 112.35 120.792 112.693 120.586 112.91C118.989 114.603 116.907 118.098 116.675 121.09C117.264 120.702 117.959 120.459 118.731 120.374C120.163 120.217 122.226 120.625 123.374 121.889C124.081 122.667 124.334 123.652 124.108 124.736C123.923 125.626 123.381 126.301 122.541 126.688C121.198 127.308 119.398 127.03 118.315 126.438C117.158 125.805 116.362 124.911 115.934 123.77C115.642 124.586 115.551 125.565 115.684 126.602C116.097 129.783 118.348 132.773 121.712 134.599C121.976 134.742 122.073 135.071 121.929 135.333C121.832 135.514 121.647 135.616 121.454 135.616ZM116.713 122.461C116.716 122.476 116.718 122.491 116.72 122.507C116.929 123.831 117.641 124.835 118.834 125.488C119.66 125.939 121.081 126.17 122.087 125.705C122.611 125.463 122.935 125.063 123.049 124.515C123.203 123.774 123.042 123.135 122.572 122.617C121.719 121.677 120.054 121.319 118.848 121.451C117.969 121.547 117.251 121.887 116.713 122.461Z" fill="white"/>
<path d="M120.038 116.455C120.031 116.455 120.022 116.454 120.014 116.454C119.715 116.441 119.483 116.188 119.498 115.889L119.613 113.378L117.077 114.468C116.803 114.587 116.485 114.459 116.367 114.185C116.248 113.91 116.375 113.592 116.65 113.474L119.978 112.041C120.148 111.968 120.346 111.987 120.5 112.093C120.654 112.2 120.741 112.376 120.732 112.563L120.578 115.938C120.566 116.228 120.326 116.455 120.038 116.455Z" fill="white"/>
<path d="M132.294 140.149C132.263 140.146 132.232 140.142 132.202 140.134C131.873 140.054 131.672 139.722 131.752 139.395C131.841 139.026 131.906 138.643 131.939 138.255C132.165 135.696 131.064 133.419 129.536 133.286C127.27 133.085 125.726 130.319 126.02 126.99C126.091 126.183 127.311 126.29 127.238 127.096C127.012 129.657 128.113 131.931 129.644 132.066C131.907 132.266 133.452 135.031 133.158 138.363C133.119 138.812 133.044 139.257 132.941 139.686C132.868 139.982 132.59 140.175 132.294 140.149Z" fill="white"/>
<path d="M125.062 139.013C124.825 135.424 126.853 131.82 129.643 132.067C131.172 132.202 132.654 130.154 132.879 127.594C132.95 126.789 134.169 126.896 134.099 127.702C133.805 131.033 131.799 133.487 129.535 133.287C128.005 133.15 126.523 135.199 126.299 137.757C126.263 138.152 126.258 138.547 126.284 138.932C126.336 139.741 125.118 139.82 125.062 139.013Z" fill="white"/>
<path d="M127.729 134.853C127.718 135.003 127.832 135.134 127.98 135.143L130.666 135.342C130.814 135.352 130.944 135.24 130.956 135.09C130.967 134.941 130.852 134.811 130.705 134.801L128.021 134.602C127.872 134.59 127.741 134.703 127.729 134.853Z" fill="white"/>
<path d="M127.391 136.665L131.023 136.932C131.173 136.944 131.303 136.833 131.313 136.682C131.325 136.533 131.213 136.404 131.063 136.392L127.432 136.125C127.282 136.114 127.153 136.226 127.141 136.375C127.13 136.524 127.242 136.655 127.391 136.665Z" fill="white"/>
<path d="M131.311 137.952L126.957 137.631C126.808 137.62 126.677 137.732 126.667 137.881C126.656 138.032 126.767 138.16 126.917 138.172L131.271 138.492C131.419 138.504 131.55 138.392 131.562 138.242C131.573 138.092 131.459 137.963 131.311 137.952Z" fill="white"/>
<path d="M128.568 130.742L130.863 130.911C131.013 130.923 131.143 130.81 131.153 130.661C131.165 130.512 131.053 130.381 130.902 130.37L128.608 130.201C128.458 130.19 128.328 130.302 128.317 130.452C128.307 130.601 128.419 130.731 128.568 130.742Z" fill="white"/>
<path d="M131.673 129.134C131.684 128.985 131.572 128.854 131.422 128.844L128.318 128.615C128.168 128.604 128.039 128.716 128.028 128.866C128.016 129.015 128.129 129.144 128.278 129.155L131.384 129.385C131.532 129.396 131.662 129.285 131.673 129.134Z" fill="white"/>
<path d="M128.084 127.6L131.804 127.875C131.954 127.886 132.085 127.774 132.095 127.624C132.107 127.474 131.996 127.344 131.845 127.333L128.124 127.059C127.975 127.048 127.844 127.16 127.833 127.309C127.822 127.459 127.934 127.589 128.084 127.6Z" fill="white"/>
<path fill-rule="evenodd" clip-rule="evenodd" d="M88.5797 49.0527C88.2856 50.0532 85.7687 56.1445 84.7088 58.6587C83.7823 60.8567 80.4168 66.5515 79.8986 67.1955C79.6052 67.4952 79.3276 67.7833 79.113 67.9926C78.7259 68.3696 78.3215 68.7617 77.9442 69.1185C77.5877 69.4562 76.41 70.558 76.8074 70.9854C77.1352 71.3393 78.1439 70.1593 78.5176 69.9662C78.2288 70.5722 77.936 71.6027 77.9211 72.6744C77.9182 72.9573 77.8769 73.5508 78.1538 73.5851C78.5321 73.6304 78.5852 73.1583 78.6572 72.9448C78.7539 72.6451 78.8625 72.4318 78.8982 72.1678C78.9688 72.5497 78.8734 73.4241 79.0308 73.8598C79.081 74 79.2064 74.1509 79.3474 74.14C79.6785 74.1136 79.6662 73.6485 79.7257 73.3382C79.8022 72.9197 79.8861 72.6467 79.9343 72.3589C79.9313 72.3457 79.9313 72.3312 79.9313 72.3209C79.9326 72.3302 79.9343 72.3414 79.9343 72.351C79.9343 72.3526 79.9343 72.3559 79.9343 72.3589C79.962 72.6787 79.8907 73.594 80.0297 74.0195C80.0845 74.1898 80.2082 74.3734 80.3914 74.3536C80.7756 74.3103 80.7598 73.5409 80.7981 73.2716C80.8605 72.8019 80.9361 72.4764 80.9773 72.075C81.0697 72.3899 80.9849 73.3336 81.1288 73.8868C81.1859 74.1176 81.3051 74.3697 81.5408 74.3341C81.8372 74.2895 81.9055 73.6525 81.9362 73.4373C82.086 72.4064 82.261 71.2561 82.5627 70.4481C82.7944 69.8325 83.0697 69.2865 83.4126 68.7584C85.0746 66.6169 88.0842 62.0908 89.2412 59.7044C90.4357 57.2397 93.08 51.8208 93.6853 49.7776C92.7538 49.8849 89.427 49.1891 88.5797 49.0527Z" fill="#FCD2C0"/>
<path opacity="0.13" d="M86.1727 59.2523C86.2044 59.0952 85.5116 58.6548 84.8544 58.3096C84.8042 58.4307 84.7537 58.5499 84.7088 58.6585C84.651 58.7938 84.5857 58.9423 84.5098 59.1011C85.225 59.3355 86.1427 59.4094 86.1727 59.2523Z" fill="black"/>
<path d="M94.9707 40.4058C93.1242 40.5134 92.0168 42.2552 91.2797 43.356C89.2748 46.3505 88.1255 49.3925 86.793 52.7131L92.8149 55.5171C93.8774 53.7584 94.8829 51.972 95.7305 50.156C96.2048 49.138 96.7036 47.9943 97.0742 46.7476C97.4188 45.5722 97.6766 44.1581 97.3865 42.7728C97.1 41.4016 96.2111 40.3338 94.9707 40.4058Z" fill="#B1BC00"/>
<path fill-rule="evenodd" clip-rule="evenodd" d="M116.498 99.1186L122.353 98.9823L122.085 91.6387L116.232 91.776L116.498 99.1186Z" fill="#FCD2C0"/>
<path fill-rule="evenodd" clip-rule="evenodd" d="M115.566 98.6012C114.125 98.9746 112.797 99.4152 111.741 100.276C111.421 100.533 110.961 100.891 111.007 101.331C111.067 101.918 112.117 102.079 113.001 102.178C114.859 102.383 116.595 102.435 118.543 102.408C120.118 102.386 121.541 102.242 122.088 101.336C122.489 100.669 122.598 99.8149 122.725 98.9567C122.85 98.0992 122.881 97.2506 122.777 96.2313C121.46 96.0214 119.697 95.9019 117.978 95.9319C118.051 94.9189 117.467 94.539 116.391 94.4452C116.022 94.4126 115.4 94.4416 115.234 94.6238C114.898 94.9961 115.394 97.9913 115.566 98.6012Z" fill="#FF5000"/>
<path d="M114.193 95.7585C114.366 95.6816 114.555 95.7021 114.724 95.8186C115.345 96.2474 115.721 98.073 115.648 98.4417C115.638 98.4906 115.601 98.5335 115.552 98.5517C115.501 98.5701 115.442 98.5625 115.396 98.5322C114.93 98.2262 113.929 96.9986 113.873 96.3012C113.86 96.1114 113.911 95.9665 114.032 95.8645C114.081 95.8199 114.136 95.7849 114.193 95.7585ZM115.32 98.074C115.245 97.4819 114.933 96.3329 114.531 96.0553C114.442 95.9926 114.387 96.0048 114.339 96.0256C114.311 96.0394 114.283 96.0586 114.251 96.0823C114.21 96.12 114.193 96.1873 114.199 96.2843C114.237 96.7504 114.855 97.6218 115.32 98.074Z" fill="#4D3D87"/>
<path d="M112.97 96.6729C113.117 96.6072 113.302 96.6135 113.523 96.692C114.295 96.9666 115.411 98.1018 115.553 98.4266C115.577 98.4738 115.567 98.5269 115.536 98.5678C115.503 98.6101 115.449 98.6329 115.395 98.6272C114.826 98.5919 113.278 98.0249 112.827 97.4532C112.704 97.2997 112.661 97.1488 112.703 97.0072C112.748 96.8442 112.84 96.7333 112.97 96.6729ZM115.061 98.2708C114.705 97.8608 113.947 97.1587 113.409 96.9666C113.278 96.9201 113.178 96.9105 113.115 96.9402C113.073 96.961 113.039 97.0092 113.012 97.0858C113 97.1383 113.022 97.205 113.086 97.2855C113.39 97.6671 114.407 98.1087 115.061 98.2708Z" fill="#4D3D87"/>
<path d="M112.992 98.699L115.374 98.3359L115.432 98.6281L113.051 98.9905L112.992 98.699Z" fill="#4D3D87"/>
<path d="M112.857 100.321C114.406 100.954 116.275 100.676 117.276 99.7854C118.16 98.9988 118.418 97.8079 118.52 96.3506C118.527 96.2268 118.541 96.0803 118.551 95.9271C118.358 95.9271 118.169 95.9281 117.979 95.9308C117.991 95.7816 117.986 95.6475 117.967 95.5234C117.975 95.6102 117.982 95.6954 117.979 95.7799C117.911 97.6425 117.46 100.086 114.717 100.107C114.007 100.112 113.419 99.9567 112.975 99.7547C112.897 99.7194 112.821 99.6699 112.746 99.6167C112.544 99.7247 112.346 99.8386 112.158 99.9656C112.378 100.12 112.657 100.24 112.857 100.321Z" fill="white"/>
<path d="M122.396 98.9901C120.532 98.761 119.58 99.7902 119.151 101.086C119.052 101.387 118.795 102.105 118.947 102.397C119.106 102.392 119.263 102.386 119.417 102.377C119.547 102.166 119.57 101.772 119.652 101.467C120.059 99.9252 120.756 99.3291 122.358 99.5202C122.45 99.5307 122.539 99.5647 122.628 99.5974C122.659 99.4126 122.685 99.2258 122.714 99.0386C122.604 99.0152 122.493 99.0016 122.396 98.9901Z" fill="white"/>
<path d="M121.899 101.578C121.257 102.268 119.963 102.386 118.542 102.407C116.594 102.435 114.858 102.382 113 102.177C112.209 102.091 111.287 101.95 111.059 101.501L121.899 101.578Z" fill="#4D3D87"/>
<path fill-rule="evenodd" clip-rule="evenodd" d="M114.24 66.0903C116.015 76.7007 115.191 82.212 115.727 92.3107C116.095 92.5352 121.837 92.7118 123.119 92.7798C124.998 81.9132 124.929 75.4648 123.884 63.3936C120.499 64.806 117.19 65.4476 114.24 66.0903Z" fill="#8F7ECE"/>
<path opacity="0.13" fill-rule="evenodd" clip-rule="evenodd" d="M114.24 66.0903C116.015 76.7007 115.191 82.212 115.727 92.3107C116.095 92.5352 121.837 92.7118 123.119 92.7798C124.998 81.9132 124.929 75.4648 123.884 63.3936C120.499 64.806 117.19 65.4476 114.24 66.0903Z" fill="black"/>
<path fill-rule="evenodd" clip-rule="evenodd" d="M122.6 73.1097C122.501 73.5371 122.956 74.5042 123.397 74.3653C123.852 74.2217 123.338 73.2565 123.016 72.974C122.895 72.9321 122.698 72.9948 122.6 73.1097Z" fill="white"/>
<path fill-rule="evenodd" clip-rule="evenodd" d="M122.517 75.5338C121.863 75.5058 122.285 76.4293 122.584 77.003C122.786 77.3925 123.065 77.8315 123.352 77.6873C123.754 77.4879 122.996 75.7804 122.658 75.5616C122.627 75.5414 122.556 75.5361 122.517 75.5338Z" fill="white"/>
<path fill-rule="evenodd" clip-rule="evenodd" d="M75.0075 101.8C74.5754 101.808 74.2077 102.06 73.6337 102.337C73.599 102.354 72.4421 103.002 72.3672 102.98C72.2523 102.946 71.5793 101.34 71.4878 101.142C70.1081 98.1524 68.738 95.0305 67.0955 92.1589C66.9215 91.8549 66.7453 91.5376 66.5651 91.2198C66.4188 90.5798 66.1465 89.7136 66.0122 89.1921C65.893 88.7363 65.7706 88.2573 65.6633 87.8167C65.5636 87.3991 65.2414 86.028 64.6892 86.0927C64.2354 86.1465 64.7064 87.4364 64.6797 87.7929C64.3232 87.2899 63.6188 86.571 62.7424 86.0263C62.512 85.8831 62.0433 85.5583 61.8766 85.7349C61.6492 85.9765 62.0123 86.2481 62.1542 86.4053C62.351 86.6228 62.4747 86.803 62.6771 86.9604C62.3252 86.8198 61.6505 86.3151 61.2138 86.2082C61.0722 86.1739 60.8867 86.1867 60.8253 86.2907C60.6834 86.5333 61.0722 86.7575 61.2987 86.9529C61.6056 87.2169 61.7865 87.4094 62.0017 87.5869C62.0123 87.5922 62.0265 87.6001 62.0341 87.6048C62.0258 87.5995 62.0176 87.5959 62.007 87.5919C62.0054 87.5902 62.004 87.5889 62.0017 87.5866C61.7278 87.447 61.0052 86.9426 60.586 86.8258C60.4164 86.7786 60.2041 86.7733 60.1299 86.9106C59.9744 87.2004 60.6167 87.5727 60.8217 87.7345C61.1759 88.0121 61.4063 88.2279 61.7182 88.4564C61.4112 88.3639 60.6745 87.8345 60.1483 87.6569C59.9278 87.5846 59.6615 87.5401 59.575 87.7216C59.4631 87.952 59.9546 88.3177 60.1153 88.4465C60.892 89.0644 61.7542 89.7598 62.2688 90.3744C62.7061 90.8937 63.0461 91.4059 63.3283 91.9747C64.236 96.035 65.2807 100.599 66.5261 104.664C66.7595 105.423 67.01 106.268 67.3454 107.118C67.8345 108.361 68.4835 110.089 70.4329 109.963C71.5073 109.893 72.6613 109.351 73.735 108.928C74.8193 108.499 75.929 108.096 76.7995 107.534C76.2664 105.59 75.5042 103.763 75.0075 101.8Z" fill="#FCD2C0"/>
<path opacity="0.13" fill-rule="evenodd" clip-rule="evenodd" d="M75.0075 101.8C74.5754 101.808 74.2077 102.06 73.6337 102.337C73.599 102.354 72.4421 103.002 72.3672 102.98C72.2523 102.946 71.5793 101.34 71.4878 101.142C70.1081 98.1524 68.738 95.0305 67.0955 92.1589C66.9215 91.8549 66.7453 91.5376 66.5651 91.2198C66.4188 90.5798 66.1465 89.7136 66.0122 89.1921C65.893 88.7363 65.7706 88.2573 65.6633 87.8167C65.5636 87.3991 65.2414 86.028 64.6892 86.0927C64.2354 86.1465 64.7064 87.4364 64.6797 87.7929C64.3232 87.2899 63.6188 86.571 62.7424 86.0263C62.512 85.8831 62.0433 85.5583 61.8766 85.7349C61.6492 85.9765 62.0123 86.2481 62.1542 86.4053C62.351 86.6228 62.4747 86.803 62.6771 86.9604C62.3252 86.8198 61.6505 86.3151 61.2138 86.2082C61.0722 86.1739 60.8867 86.1867 60.8253 86.2907C60.6834 86.5333 61.0722 86.7575 61.2987 86.9529C61.6056 87.2169 61.7865 87.4094 62.0017 87.5869C62.0123 87.5922 62.0265 87.6001 62.0341 87.6048C62.0258 87.5995 62.0176 87.5959 62.007 87.5919C62.0054 87.5902 62.004 87.5889 62.0017 87.5866C61.7278 87.447 61.0052 86.9426 60.586 86.8258C60.4164 86.7786 60.2041 86.7733 60.1299 86.9106C59.9744 87.2004 60.6167 87.5727 60.8217 87.7345C61.1759 88.0121 61.4063 88.2279 61.7182 88.4564C61.4112 88.3639 60.6745 87.8345 60.1483 87.6569C59.9278 87.5846 59.6615 87.5401 59.575 87.7216C59.4631 87.952 59.9546 88.3177 60.1153 88.4465C60.892 89.0644 61.7542 89.7598 62.2688 90.3744C62.7061 90.8937 63.0461 91.4059 63.3283 91.9747C64.236 96.035 65.2807 100.599 66.5261 104.664C66.7595 105.423 67.01 106.268 67.3454 107.118C67.8345 108.361 68.4835 110.089 70.4329 109.963C71.5073 109.893 72.6613 109.351 73.735 108.928C74.8193 108.499 75.929 108.096 76.7995 107.534C76.2664 105.59 75.5042 103.763 75.0075 101.8Z" fill="black"/>
<path opacity="0.13" fill-rule="evenodd" clip-rule="evenodd" d="M61.7239 88.9618C61.6803 88.876 61.6555 88.6647 61.6668 88.5287C61.7344 87.7375 62.5118 86.9034 63.0663 86.7539C62.6378 87.0602 61.9731 87.6913 61.7239 88.9618Z" fill="white"/>
<path opacity="0.13" fill-rule="evenodd" clip-rule="evenodd" d="M64.7127 87.7441C64.1978 88.4337 64.0397 89.0925 64.0238 89.7381C63.6135 89.2146 64.1199 87.9531 64.7127 87.7441Z" fill="white"/>
<path opacity="0.13" fill-rule="evenodd" clip-rule="evenodd" d="M71.6404 101.488C71.3245 102.213 70.431 104.489 70.7459 104.872C70.9944 105.179 72.3771 103.298 72.3682 102.981L71.6404 101.488Z" fill="black"/>
<path fill-rule="evenodd" clip-rule="evenodd" d="M74.1445 102.02C74.4416 103.216 74.7209 104.421 75.348 105.451C77.3895 104.742 79.4014 103.971 81.2379 102.856C81.8915 101.491 82.8427 100.71 83.8046 99.9477C82.8939 99.1004 81.5003 99.4483 80.4626 99.6932C78.3682 100.189 75.8052 101.091 74.1445 102.02Z" fill="#EFAD1B"/>
<path fill-rule="evenodd" clip-rule="evenodd" d="M72.2919 69.957C82.5841 72.0986 91.0819 77.4911 97.06 84.0038C103.48 90.9969 107.962 99.1828 110.143 109.523C111.261 114.833 111.537 121.727 111 127.43C109.913 138.989 106.015 147.931 100.921 155.952C99.2893 158.521 96.9326 161.651 94.7019 164.209C94.0513 164.953 93.0046 166.488 92.3428 166.675C91.1318 167.018 89.0955 166.661 87.4095 166.675C76.8846 166.766 64.8985 166.771 54.2762 166.353C52.5348 157.529 52.041 148.495 48.5963 141.692C45.9649 136.498 42.3139 133.001 37.9786 129.575C37.2944 129.032 36.5989 128.468 35.8341 127.967C35.1604 127.525 34.0438 127.236 33.7969 126.251C36.1378 126.353 38.3902 127.171 40.6602 127.752C45.1803 128.909 49.7241 129.93 54.3852 130.969C56.6611 131.476 58.8765 132.326 61.1412 132.685C72.0335 134.409 80.1933 129.213 84.8378 123.034C87.3656 119.671 89.0523 115.734 89.5557 110.703C90.0501 105.758 88.8077 100.576 86.7668 96.7643C82.8901 89.5191 75.8812 84.7412 65.966 83.6827C68.0412 79.0735 70.1992 74.5481 72.2919 69.957Z" fill="#8F7ECE"/>
<path fill-rule="evenodd" clip-rule="evenodd" d="M25.0065 117.137C24.9157 117.143 25.8558 117.098 26.1852 117.137C29.1655 117.484 32.3003 118.542 35.406 119.282C41.9316 120.834 46.4514 122.148 53.0991 124.107C56.3045 125.052 59.6284 125.965 60.3915 128.074C61.1365 130.136 59.8694 132.356 58.5659 132.9C57.1967 133.471 54.7947 132.916 53.2057 132.578C47.9529 131.46 43.6107 130.047 38.946 128.504C34.5131 127.036 29.4523 125.972 25.2204 123.892C23.439 123.017 21.1416 121.56 22.325 118.746C22.7135 117.821 23.6575 117.232 25.0065 117.137Z" fill="#4D3D87"/>
<path opacity="0.46" fill-rule="evenodd" clip-rule="evenodd" d="M93.2008 166.139C81.724 166.11 69.6533 166.159 58.0309 165.495C57.7091 159.47 58.0851 152.115 59.5325 146.946C60.5108 143.444 61.8902 139.392 66.6097 140.512C69.6919 141.244 72.358 143.795 74.4372 145.874C79.8303 151.267 84.9251 157.341 90.1997 162.815C90.749 163.387 91.2771 164 91.8069 164.531C92.3112 165.035 93.0232 165.424 93.2008 166.139Z" fill="white"/>
<path d="M92.3431 166.782C93.005 166.594 94.0516 165.059 94.7022 164.315C96.9329 161.758 99.2896 158.627 100.922 156.058C106.016 148.038 109.914 139.096 111 127.536C111.537 121.834 111.262 114.94 110.143 109.63C107.962 99.2889 103.48 91.103 97.0603 84.1093C91.0826 77.5968 82.5844 72.2047 72.2922 70.0635C72.0453 70.6055 71.7948 71.1445 71.5449 71.6848C71.671 71.7172 71.7829 71.7482 71.8625 71.7786C73.8809 72.5453 75.8369 73.7214 77.8689 74.781C79.8431 75.8121 81.9123 76.839 83.7657 77.9976C94.8399 84.9216 102.978 95.7393 104.246 112.203C105.157 124.045 102.655 134.739 99.2058 143.084C96.5107 149.606 93.0073 155.152 89.2341 160.455C88.095 162.055 85.5874 164.924 86.3252 166.79C86.6869 166.787 87.0536 166.784 87.4101 166.781C89.0958 166.767 91.1324 167.124 92.3431 166.782Z" fill="#4D3D87"/>
<path fill-rule="evenodd" clip-rule="evenodd" d="M102.85 109.804C104.987 110.282 103.655 104.769 101.998 106.149C101.134 106.868 102.149 109.003 102.85 109.804Z" fill="white"/>
<path fill-rule="evenodd" clip-rule="evenodd" d="M105.637 112.416C105.367 112.039 104.608 111.416 103.895 112.016C102.961 112.799 103.374 115.21 103.357 116.196C103.334 117.396 102.752 119.644 103.915 120.334C105.574 121.317 105.901 117.842 105.964 116.642C105.997 116.004 105.968 115.377 105.971 114.835C105.973 113.91 106.159 113.139 105.637 112.416Z" fill="white"/>
<path fill-rule="evenodd" clip-rule="evenodd" d="M69.959 142.729C70.4931 141.45 72.3877 140.079 74.3289 138.847C75.1604 138.32 76.5183 137.487 77.0751 138.175C77.7416 139.003 76.349 140.194 75.8505 140.619C74.2688 141.959 72.0847 143.262 70.7198 143.613C70.3986 143.553 70.0356 143.101 69.959 142.729Z" fill="white"/>
<path fill-rule="evenodd" clip-rule="evenodd" d="M73.0208 137.041C71.3134 135.6 75.0459 132.448 76.08 133.989C76.5243 134.66 75.2898 136.858 74.1636 137.294C73.7563 137.447 73.3186 137.29 73.0208 137.041Z" fill="white"/>
<path fill-rule="evenodd" clip-rule="evenodd" d="M83.8808 130.507C83.222 130.065 83.4517 128.937 84.0772 127.973C84.5806 127.198 85.8946 125.943 86.5594 126.773C86.8551 127.139 86.7898 128.067 86.29 128.882C85.7071 129.837 84.7258 131.082 83.8808 130.507Z" fill="white"/>
<path fill-rule="evenodd" clip-rule="evenodd" d="M56.8507 99.7501C56.1965 101.139 55.6366 102.546 54.8144 104.146C53.6486 106.413 52.3438 108.582 48.9169 107.47C47.3712 106.969 44.9484 105.757 44.4133 104.468C43.3518 101.912 45.8429 98.175 46.6641 96.1041C46.7153 95.9756 46.6017 95.7822 46.7707 95.7822C50.2148 97.0217 53.6199 98.2991 56.8507 99.7501Z" fill="#4D3D87"/>
<path fill-rule="evenodd" clip-rule="evenodd" d="M74.9734 60.3068C72.8695 60.2907 71.1511 59.3473 69.6116 58.5911C68.0718 57.8352 66.3471 57.281 65.3242 55.9105C66.1847 53.0788 67.9048 50.3626 69.5057 47.3325C70.1995 46.0168 70.9306 44.6083 71.7565 43.2573C72.7266 41.6729 73.7244 40.0354 75.187 39.2904C75.8389 38.9584 77.0281 39.1191 77.8695 39.3974C79.7737 40.0288 82.8411 41.4772 83.0144 43.4729C83.1577 45.0899 82.0427 46.8179 81.4056 48.0827C80.0078 50.8656 78.7076 53.7106 77.3315 56.4469C76.6122 57.8778 75.9574 59.311 74.9734 60.3068Z" fill="#4D3D87"/>
<path fill-rule="evenodd" clip-rule="evenodd" d="M76.5875 42.4305C75.6257 44.6737 74.75 46.4106 73.5785 48.6182C73.1405 49.4453 72.6114 50.3699 71.9714 51.5133C71.6938 52.0071 70.7957 54.072 69.9328 53.9796C68.7832 53.8575 69.4106 52.0365 69.9328 50.8706C70.4672 49.6807 70.9944 48.8991 71.5406 47.8679C72.1813 46.6585 72.6467 45.6663 73.1501 44.8658C73.7677 43.8845 74.2328 42.9804 74.8652 42.078C76.066 40.3646 77.2576 40.8673 76.5875 42.4305Z" fill="white"/>
<path fill-rule="evenodd" clip-rule="evenodd" d="M63.6069 54.302C65.3445 53.9531 67.4576 54.7291 68.9681 55.2671C72.3332 56.4666 77.2134 57.9559 78.1895 61.3795C78.7381 63.3012 77.797 65.8531 77.118 67.4912C74.9204 72.789 72.6115 77.2609 69.9329 82.288C67.4873 86.8794 65.6472 92.4283 62.964 97.2999C62.0741 98.913 60.7993 100.693 59.4232 101.053C57.7642 101.486 56.1099 100.867 54.8147 100.41C53.4386 99.9231 52.3519 99.4487 50.9527 98.9081C48.4788 97.9498 45.2407 97.0293 44.4136 94.6184C43.1672 90.9882 46.0095 85.4122 47.0928 82.9313C48.6993 79.2579 50.1315 75.8178 51.7043 72.6378C53.6392 68.7247 54.8708 66.3911 56.7443 62.6648C57.5223 61.1164 58.3244 59.399 59.4229 57.8404C60.4616 56.3719 61.6981 54.6852 63.6069 54.302Z" fill="#8F7ECE"/>
<path opacity="0.46" fill-rule="evenodd" clip-rule="evenodd" d="M63.6069 54.302C65.3445 53.9531 67.4576 54.7291 68.9681 55.2671C72.3332 56.4666 77.2134 57.9559 78.1895 61.3795C78.7381 63.3012 77.797 65.8531 77.118 67.4912C74.9204 72.789 72.6115 77.2609 69.9329 82.288C67.4873 86.8794 65.6472 92.4283 62.964 97.2999C62.0741 98.913 60.7993 100.693 59.4232 101.053C57.7642 101.486 56.1099 100.867 54.8147 100.41C53.4386 99.9231 52.3519 99.4487 50.9527 98.9081C48.4788 97.9498 45.2407 97.0293 44.4136 94.6184C43.1672 90.9882 46.0095 85.4122 47.0928 82.9313C48.6993 79.2579 50.1315 75.8178 51.7043 72.6378C53.6392 68.7247 54.8708 66.3911 56.7443 62.6648C57.5223 61.1164 58.3244 59.399 59.4229 57.8404C60.4616 56.3719 61.6981 54.6852 63.6069 54.302Z" fill="white"/>
<path fill-rule="evenodd" clip-rule="evenodd" d="M65.1955 57.9479C65.8279 58.7434 65.1579 59.6105 64.8743 60.307C62.6991 65.6355 59.8826 70.5546 57.3674 75.7474C55.2351 80.1533 53.4483 84.7684 51.3626 89.4724C50.8222 90.695 50.1509 93.2488 48.6823 93.3323C46.4636 93.4604 46.7481 90.3847 47.3957 88.8297C49.3719 84.0878 51.9125 79.807 54.259 75.4259C56.7795 70.7167 58.6484 66.5237 61.2273 62.0228C62.0475 60.5925 63.1563 58.7962 64.1234 58.0559C64.2851 57.9301 64.839 57.6697 65.1955 57.9479Z" fill="white"/>
<path fill-rule="evenodd" clip-rule="evenodd" d="M61.3002 90.6713C60.3338 91.4268 59.6059 93.3618 59.0072 95.3063C58.7527 96.1381 58.3589 97.4907 59.0775 97.8046C59.939 98.1812 60.6305 96.7147 60.8761 96.1899C61.6504 94.5273 62.2492 92.3603 62.2334 91.1149C62.104 90.8548 61.6326 90.6512 61.3002 90.6713Z" fill="white"/>
<path fill-rule="evenodd" clip-rule="evenodd" d="M57.1628 94.6123C55.5375 93.4924 53.7204 97.4127 55.2764 97.9326C55.9511 98.1584 57.5378 96.5895 57.6451 95.5266C57.682 95.1444 57.4457 94.8071 57.1628 94.6123Z" fill="white"/>
<path fill-rule="evenodd" clip-rule="evenodd" d="M50.8513 162.177C50.7351 162.22 51.9521 161.795 52.4023 161.716C56.454 161.012 60.9883 161.181 65.3612 160.942C74.5443 160.44 80.9993 160.405 90.5045 160.39C95.0873 160.383 99.8124 160.288 101.639 162.765C103.421 165.186 102.621 168.599 101.122 169.82C99.5441 171.106 96.1674 171.311 93.9466 171.486C86.604 172.064 80.3441 171.899 73.6085 171.687C67.2083 171.485 60.1403 172.059 53.7649 170.975C51.0853 170.518 47.4944 169.498 47.9542 165.336C48.1027 163.97 49.1141 162.827 50.8513 162.177Z" fill="#4D3D87"/>
<path fill-rule="evenodd" clip-rule="evenodd" d="M55.4251 165.215C56.5355 164.694 58.5916 164.918 60.5935 165.26C61.4517 165.406 62.8383 165.668 62.7925 166.45C62.74 167.39 61.1193 167.343 60.5423 167.325C58.7058 167.266 56.5035 166.824 55.401 166.246C55.2264 166.016 55.2555 165.503 55.4251 165.215Z" fill="#8F7ECE"/>
<path fill-rule="evenodd" clip-rule="evenodd" d="M63.049 164.006C62.782 162.048 67.1007 162.196 66.8637 163.817C66.7588 164.522 64.6443 165.231 63.6458 164.848C63.2893 164.709 63.0965 164.346 63.049 164.006Z" fill="white"/>
<path fill-rule="evenodd" clip-rule="evenodd" d="M94.756 167.458C94.5893 166.777 95.4086 166.173 96.3902 165.911C97.1805 165.701 98.7853 165.659 98.7282 166.597C98.7041 167.012 98.1123 167.582 97.3026 167.82C96.351 168.1 94.9699 168.336 94.756 167.458Z" fill="#8F7ECE"/>
<path fill-rule="evenodd" clip-rule="evenodd" d="M86.2008 129.854C86.4688 132.145 85.0597 135.351 83.7137 137.261C83.4212 137.676 82.9812 138.027 82.7719 138.436C82.4755 139.021 82.3247 139.802 82.1147 140.447C81.4843 142.37 80.8053 144.156 79.9897 145.994C85.542 146.192 91.7976 149.461 95.814 152.226C95.2571 153.921 94.8888 155.521 94.2999 157.231C90.4261 157.068 86.0509 156.134 81.5619 154.978C76.8312 153.76 70.5815 152.122 70.3775 148.164C70.3214 147.054 70.6267 145.661 70.9522 144.334C71.9087 140.433 73.5872 135.695 75.0851 132.088C74.0219 132.432 72.9977 132.954 71.9328 133.405C68.7921 134.737 65.4778 136.036 62.144 137.062C64.07 142.497 63.4818 149.207 62.3021 156.215C60.7564 156.319 59.2004 156.404 57.6404 156.481C56.671 151.53 55.6755 146.656 55.1999 141.279C55.0497 139.574 54.8351 137.547 55.4114 135.723C56.6621 131.767 60.2286 129.789 62.9333 128.419C65.9894 126.871 68.9367 125.524 72.0513 124.358C72.1091 124.319 72.1817 124.306 72.2563 124.301C76.9659 126.12 81.5988 127.979 86.2008 129.854Z" fill="#CAD309"/>
<path opacity="0.18" d="M79.9901 145.994C80.8057 144.156 81.4846 142.369 82.1151 140.446C82.325 139.801 82.4759 139.02 82.7723 138.436C82.9816 138.027 83.4212 137.676 83.714 137.26C85.0601 135.351 86.4692 132.145 86.2011 129.853C85.7674 129.676 85.3307 129.5 84.8963 129.324C84.868 129.544 84.8462 129.765 84.8085 129.953C84.4695 131.639 84.1256 132.894 83.1212 134.162C82.5931 134.829 82.0745 135.148 81.4038 136.01C79.9069 137.931 79.6405 140.642 78.7328 143.419C78.174 145.126 76.9966 147.838 77.9607 148.42C78.3987 148.686 78.8483 148.49 79.2048 148.395C80.8037 147.967 82.4739 148.029 84.6867 148.644C88.577 149.725 92.1059 151.243 95.0568 153.028C95.2076 153.12 95.3542 153.196 95.4945 153.259C95.5971 152.917 95.7008 152.574 95.815 152.225C91.7976 149.461 85.5423 146.191 79.9901 145.994Z" fill="black"/>
<path opacity="0.18" d="M75.5641 131.377C75.844 130.838 76.4863 130.059 76.2041 129.609C76.0301 129.33 75.6601 129.333 75.4776 129.37C74.1857 129.642 72.898 130.142 71.6028 130.637C68.4605 131.836 65.3901 133.243 62.4676 134.94C61.85 135.298 61.1185 135.642 60.8192 136.194C60.0425 137.626 60.6548 139.042 60.8409 140.095C61.5074 143.866 61.5694 147.658 61.3331 152C61.2978 152.64 61.2212 153.557 61.1971 154.491C61.1822 155.055 61.1641 155.811 61.4942 156.262C61.7642 156.245 62.0328 156.23 62.3015 156.212C63.4812 149.204 64.0694 142.494 62.1434 137.059C65.4772 136.033 68.7912 134.734 71.9322 133.402C72.9971 132.951 74.021 132.429 75.0845 132.086C74.9353 132.445 74.7834 132.818 74.6326 133.199C74.6415 133.193 74.6521 133.188 74.6626 133.183C74.9481 132.715 75.1716 132.134 75.5641 131.377Z" fill="black"/>
<path fill-rule="evenodd" clip-rule="evenodd" d="M72.0013 149.623C71.5993 149.538 71.6135 149.207 71.495 148.901C71.3765 148.594 70.9688 147.474 71.861 147.784C72.2954 147.935 72.7681 149.379 72.0013 149.623Z" fill="white"/>
<path opacity="0.18" fill-rule="evenodd" clip-rule="evenodd" d="M73.9022 150.987C73.4655 151.343 72.4749 150.634 73.0258 150.082C73.5516 150.116 74.1811 150.4 73.9022 150.987Z" fill="black"/>
<path fill-rule="evenodd" clip-rule="evenodd" d="M84.3331 131.963C84.8163 132.337 84.3331 133.391 83.8977 134.046C83.6248 134.459 83.2577 134.837 82.8623 134.571C82.7986 133.532 83.7981 133.071 84.0568 132.058C84.0997 131.99 84.1829 132.001 84.2219 131.926C84.2588 131.939 84.2958 131.951 84.3331 131.963Z" fill="white"/>
<path fill-rule="evenodd" clip-rule="evenodd" d="M82.3457 135.206C82.39 135.887 81.678 137.038 81.0703 136.273C81.309 135.548 81.7298 135.184 82.3457 135.206Z" fill="white"/>
<path fill-rule="evenodd" clip-rule="evenodd" d="M79.6336 142.355C80.036 142.962 79.2907 145.122 78.4767 144.758C77.974 144.532 78.3572 143.972 78.5609 143.364C78.7411 142.829 78.8236 141.954 79.6336 142.355Z" fill="white"/>
<path fill-rule="evenodd" clip-rule="evenodd" d="M63.652 134.527C63.4434 135.047 62.9506 135.328 62.5611 135.591C62.2063 135.833 61.7425 136.279 61.1708 136.063C61.1665 135.973 61.1289 135.898 61.0586 135.841C61.1906 135.489 61.5326 135.063 61.9079 134.759C62.4297 134.333 63.2394 133.644 63.652 134.527Z" fill="white"/>
<path opacity="0.18" fill-rule="evenodd" clip-rule="evenodd" d="M57.6733 135.042C58.7523 135.101 57.1729 137.243 56.6438 137.055C55.8179 136.761 57.2224 135.018 57.6733 135.042Z" fill="black"/>
<path fill-rule="evenodd" clip-rule="evenodd" d="M60.4536 137.312C61.2128 136.724 61.3541 139.071 60.4609 138.798C59.9156 138.63 60.2981 137.768 60.4536 137.312Z" fill="white"/>
<path fill-rule="evenodd" clip-rule="evenodd" d="M68.9615 126.992C68.9143 127.535 68.3951 127.584 68.0386 127.741C67.2893 128.069 66.6813 128.32 65.8875 128.645C65.5716 128.774 65.1478 129.135 64.793 128.78C64.8874 128.203 65.7287 127.756 66.4206 127.397C67.017 127.085 68.2347 126.548 68.6836 126.715C68.7971 126.759 68.876 126.897 68.9615 126.992Z" fill="white"/>
<path fill-rule="evenodd" clip-rule="evenodd" d="M56.0731 158.908C54.8096 159.364 53.6526 159.873 52.7858 160.753C52.5248 161.015 52.1458 161.384 52.2336 161.792C52.3508 162.333 53.3156 162.407 54.126 162.433C55.8298 162.488 57.4086 162.409 59.1696 162.24C60.5915 162.101 61.8646 161.866 62.2647 160.979C62.5575 160.328 62.5657 159.523 62.5911 158.712C62.6136 157.904 62.5505 157.111 62.3518 156.167C61.1362 156.069 59.5277 156.088 57.975 156.241C57.9367 155.293 57.3657 154.981 56.3814 154.972C56.0444 154.969 55.4862 155.043 55.3548 155.225C55.0895 155.595 55.8539 158.354 56.0731 158.908Z" fill="#FF5000"/>
<path d="M57.7457 159.89C56.9323 160.793 55.2697 161.189 53.8006 160.715C53.6114 160.653 53.348 160.561 53.1328 160.434C53.2896 160.301 53.4569 160.181 53.6279 160.066C53.7015 160.11 53.7751 160.15 53.8484 160.177C54.2722 160.333 54.8198 160.436 55.4609 160.378C57.7922 160.169 58.1246 158.216 57.9579 156.103C57.9533 156.029 57.9391 155.955 57.9232 155.881C57.9516 155.99 57.9691 156.109 57.9751 156.242C58.147 156.225 58.3193 156.211 58.492 156.197C58.5002 156.341 58.5048 156.478 58.5091 156.594C58.5702 157.959 58.4629 159.091 57.7457 159.89Z" fill="white"/>
<path d="M62.2951 158.77C62.3859 158.773 62.4865 158.778 62.5879 158.792C62.5832 158.969 62.579 159.145 62.5697 159.318C62.4849 159.295 62.4007 159.27 62.3175 159.266C60.78 159.204 60.2229 160.203 60.072 161.281C60.0314 161.572 60.0479 161.938 59.9525 162.144C59.8136 162.164 59.6733 162.183 59.531 162.2C59.3653 161.937 59.5214 161.25 59.5799 160.961C59.8297 159.723 60.5836 158.693 62.2951 158.77Z" fill="white"/>
<path d="M62.1177 161.221C61.6103 161.91 60.4518 162.115 59.1687 162.241C57.4078 162.409 55.829 162.489 54.1252 162.434C53.4003 162.41 52.5533 162.349 52.2988 161.947L62.1177 161.221Z" fill="white"/>
<path d="M54.5249 156.36C54.6788 156.275 54.8514 156.282 55.0158 156.377C55.6228 156.732 56.1555 158.404 56.1285 158.755C56.1255 158.801 56.0961 158.844 56.0529 158.865C56.01 158.885 55.9568 158.883 55.9119 158.858C55.4564 158.607 54.4226 157.536 54.2988 156.889C54.2635 156.713 54.2972 156.573 54.3932 156.471C54.4348 156.426 54.4791 156.388 54.5249 156.36ZM55.7921 158.437C55.663 157.89 55.261 156.843 54.8669 156.612C54.7791 156.56 54.7302 156.576 54.6883 156.599C54.6675 156.613 54.6411 156.632 54.6147 156.658C54.5817 156.696 54.5718 156.76 54.5906 156.851C54.6728 157.283 55.3224 158.049 55.7921 158.437Z" fill="white"/>
<path d="M53.5207 157.303C53.6462 157.23 53.8142 157.223 54.0221 157.28C54.749 157.479 55.8792 158.454 56.0442 158.748C56.0689 158.792 56.068 158.842 56.0425 158.88C56.0165 158.923 55.9719 158.948 55.9211 158.948C55.4035 158.955 53.9396 158.543 53.4745 158.043C53.3445 157.906 53.292 157.769 53.3131 157.634C53.3376 157.479 53.4065 157.368 53.5207 157.303ZM55.5811 158.639C55.214 158.282 54.4549 157.683 53.9485 157.545C53.8261 157.511 53.7346 157.508 53.6815 157.541C53.6432 157.563 53.6155 157.611 53.6026 157.685C53.5973 157.734 53.6257 157.794 53.6897 157.864C54.0053 158.198 54.9701 158.537 55.5811 158.639Z" fill="white"/>
<path d="M53.7539 159.19L55.872 158.676L55.9552 158.943L53.8364 159.459L53.7539 159.19Z" fill="white"/>
<path fill-rule="evenodd" clip-rule="evenodd" d="M95.9466 159.301C95.903 160.644 95.9496 161.906 96.4447 163.037C96.5932 163.377 96.7936 163.866 97.2055 163.935C97.7528 164.028 98.1779 163.157 98.5021 162.414C99.1833 160.85 99.6943 159.354 100.188 157.656C100.585 156.283 100.839 155.013 100.16 154.313C99.6643 153.801 98.9203 153.497 98.1756 153.173C97.4329 152.854 96.6734 152.618 95.7215 152.453C95.1828 153.547 94.6042 155.049 94.1728 156.548C93.2769 156.232 92.7765 156.647 92.4042 157.558C92.2768 157.87 92.1378 158.417 92.2603 158.605C92.5052 158.989 95.3518 159.299 95.9466 159.301Z" fill="#FF5000"/>
<path d="M97.4763 158.111C98.0157 159.2 97.7697 160.891 96.7845 162.08C96.657 162.233 96.4745 162.444 96.2758 162.597C96.2121 162.403 96.1609 162.203 96.1167 162.001C96.1857 161.949 96.2504 161.897 96.3029 161.837C96.6039 161.5 96.9016 161.031 97.0861 160.413C97.7546 158.17 96.0619 157.139 94.0375 156.513C93.9679 156.49 93.8926 156.475 93.8184 156.462C93.9309 156.477 94.0464 156.503 94.1725 156.548C94.2214 156.381 94.2716 156.216 94.3227 156.05C94.4594 156.096 94.5884 156.143 94.6987 156.182C95.9893 156.63 96.9993 157.149 97.4763 158.111Z" fill="white"/>
<path d="M98.1203 153.468C98.157 153.386 98.1989 153.293 98.2494 153.205C98.4121 153.274 98.5729 153.344 98.732 153.416C98.6788 153.485 98.624 153.555 98.591 153.631C97.9629 155.035 98.6854 155.925 99.6324 156.463C99.8869 156.608 100.233 156.728 100.389 156.894C100.356 157.029 100.323 157.166 100.284 157.305C99.979 157.362 99.3981 156.964 99.1522 156.803C98.0939 156.112 97.4166 155.029 98.1203 153.468Z" fill="white"/>
<path d="M100.332 154.539C100.784 155.266 100.547 156.418 100.189 157.656C99.6948 159.354 99.1838 160.85 98.5025 162.414C98.2131 163.079 97.8424 163.842 97.375 163.93L100.332 154.539Z" fill="white"/>
<path d="M93.0078 159.795C92.986 159.621 93.0566 159.463 93.2052 159.346C93.7597 158.914 95.5108 159.038 95.826 159.191C95.8679 159.212 95.8966 159.254 95.8989 159.303C95.9019 159.35 95.8818 159.399 95.8418 159.431C95.4398 159.761 94.062 160.327 93.4161 160.202C93.2382 160.168 93.1213 160.087 93.0619 159.96C93.0352 159.904 93.0167 159.848 93.0078 159.795ZM95.4064 159.386C94.8513 159.303 93.7287 159.289 93.3679 159.57C93.2877 159.632 93.2831 159.684 93.2913 159.731C93.2949 159.757 93.3032 159.788 93.3184 159.821C93.3408 159.867 93.3973 159.898 93.4864 159.916C93.9191 160 94.8721 159.68 95.4064 159.386Z" fill="white"/>
<path d="M93.513 161.078C93.4896 160.935 93.546 160.777 93.6764 160.605C94.1302 160.002 95.4539 159.313 95.7892 159.268C95.8387 159.261 95.8853 159.281 95.9107 159.32C95.9407 159.359 95.9467 159.41 95.9285 159.458C95.744 159.941 94.8181 161.148 94.1834 161.396C94.0065 161.465 93.8599 161.464 93.7431 161.393C93.6084 161.315 93.5295 161.209 93.513 161.078ZM95.5162 159.66C95.0489 159.867 94.2108 160.352 93.8949 160.771C93.8183 160.872 93.7823 160.957 93.7922 161.017C93.7988 161.061 93.8335 161.104 93.8979 161.144C93.9421 161.167 94.0075 161.163 94.0953 161.129C94.523 160.96 95.1944 160.187 95.5162 159.66Z" fill="white"/>
<path d="M95.3516 161.558L95.6575 159.401L95.9361 159.423L95.6315 161.582L95.3516 161.558Z" fill="white"/>
<path fill-rule="evenodd" clip-rule="evenodd" d="M86.6655 131C87.3468 130.123 88.6734 127.433 89.1325 126.313C89.9706 124.266 90.4769 121.849 90.8641 119.641C91.6002 115.427 92.1223 111.249 91.6143 107.674C91.1849 104.644 90.1465 101.287 87.1821 99.6977C85.7954 98.9534 84.1351 99.2128 83.1432 99.7964C81.0693 101.016 79.8051 103.9 78.6 107.162C77.4108 110.382 71.574 121.972 70.7188 124.87L86.6655 131Z" fill="#EFAD1B"/>
<path opacity="0.18" d="M86.8482 124.207C87.6833 121.406 88.6798 118.367 89.2485 115.494C90.1454 110.973 90.6329 106.286 89.9892 102.477C90.4448 103.256 90.7854 104.109 91.0448 104.985C91.0508 105.004 91.0561 105.023 91.062 105.043C91.1175 105.232 91.168 105.422 91.2152 105.614C91.227 105.654 91.2369 105.693 91.2459 105.734C91.2888 105.906 91.3277 106.078 91.3637 106.251C91.3743 106.3 91.3848 106.348 91.3944 106.398C91.4287 106.566 91.4588 106.734 91.4904 106.901C91.4977 106.949 91.5076 106.997 91.5159 107.045C91.5525 107.255 91.5842 107.465 91.6142 107.674C92.1222 111.249 91.6 115.427 90.864 119.641C90.4768 121.849 89.9704 124.266 89.1324 126.312C88.6732 127.433 87.3466 130.122 86.6654 130.999L83.9785 129.966C84.0574 129.869 84.134 129.77 84.2178 129.679C85.454 128.303 86.2531 126.201 86.8482 124.207Z" fill="black"/>
<path opacity="0.18" fill-rule="evenodd" clip-rule="evenodd" d="M77.7949 112.391C77.4453 112.597 77.0535 113.555 77.5685 113.673C77.9434 113.76 78.6607 112.564 77.7949 112.391Z" fill="black"/>
<path opacity="0.18" fill-rule="evenodd" clip-rule="evenodd" d="M77.0289 114.336C76.6229 114.704 75.9267 115.941 76.2449 116.535C76.9932 116.943 77.4101 114.777 77.2031 114.394C77.1451 114.375 77.086 114.355 77.0289 114.336Z" fill="black"/>
<path fill-rule="evenodd" clip-rule="evenodd" d="M87.6667 120.92C87.3154 121.054 87.154 121.825 87.188 122.185C87.3042 122.223 87.4207 122.261 87.5383 122.3C87.7934 122.052 88.2991 121.022 87.6667 120.92Z" fill="white"/>
<path fill-rule="evenodd" clip-rule="evenodd" d="M87.886 125.774C88.5142 125.697 89.0317 123.923 88.4006 123.81C87.8289 123.707 87.5041 125.446 87.886 125.774Z" fill="white"/>
<path fill-rule="evenodd" clip-rule="evenodd" d="M86.8459 123.43C86.2884 123.608 85.3813 126.234 86.1039 126.483C86.7746 126.714 87.447 124.408 87.3905 123.737C87.2915 123.593 87.1123 123.49 86.8459 123.43Z" fill="white"/>
<path fill-rule="evenodd" clip-rule="evenodd" d="M84.3209 98.54L84.3691 100.737C84.3691 100.737 83.3531 99.9604 83.4191 99.6428C83.599 98.7718 84.3209 98.54 84.3209 98.54Z" fill="#EFAD1B"/>
<path opacity="0.18" fill-rule="evenodd" clip-rule="evenodd" d="M84.3209 98.54L84.3691 100.737C84.3691 100.737 83.3531 99.9604 83.4191 99.6428C83.599 98.7718 84.3209 98.54 84.3209 98.54Z" fill="black"/>
<path fill-rule="evenodd" clip-rule="evenodd" d="M84.3209 98.0946C84.3209 98.0946 84.1199 100.32 84.1994 100.489C84.6803 101.519 88.6406 102.269 88.7538 100.249C88.7538 100.249 88.8753 98.9423 88.9638 98.3571C89.179 96.9559 89.3817 96.0802 90.0801 95.05C90.5085 94.4163 90.9376 93.6746 91.1862 92.8055C91.8186 90.5821 90.6204 88.4267 89.0912 87.6906C88.5126 87.413 87.3391 87.1067 86.5522 87.2272C85.7838 87.3447 84.4906 87.5688 83.8225 88.1365C82.8184 88.9914 82.7907 90.3157 82.4494 92.1262C82.2625 93.1167 81.9833 94.1581 81.8866 94.9044C81.6205 96.9681 82.6137 97.826 84.3209 98.0946Z" fill="#FCD2C0"/>
<path fill-rule="evenodd" clip-rule="evenodd" d="M80.7844 84.434C80.3612 85.4562 80.9253 86.2698 81.4964 86.7957C81.2802 86.8977 80.6761 86.4801 80.6642 86.796C80.6246 87.8938 81.1574 88.4054 82.041 88.6434C83.8627 89.1336 86.9113 88.3635 86.8136 90.6836C86.7799 91.494 86.3373 92.4545 86.8324 92.6585C87.3305 92.8612 87.6381 91.6983 88.2841 91.8353C88.6059 91.9039 88.8115 92.2449 88.7974 92.542C88.7568 93.4781 87.983 93.5626 87.3869 93.4342C87.1305 94.1227 86.6967 95.1074 87.08 95.6358C87.8616 96.4732 89.6859 97.0703 90.8293 95.8428C91.4416 95.1866 92.0922 93.4764 92.3157 92.4723C92.5992 91.1979 92.0711 89.9387 90.8554 89.4713C91.3297 86.8646 87.5833 86.4187 85.0556 85.7097C83.7178 85.3357 82.4978 84.8271 81.6162 84.4333C81.3756 84.3273 80.9441 84.0484 80.7844 84.434Z" fill="#FF5000"/>
<path fill-rule="evenodd" clip-rule="evenodd" d="M89.5238 87.9846C89.3796 88.4705 88.2722 87.8826 88.1276 87.5826C87.7018 86.6937 89.6413 87.5836 89.5238 87.9846Z" fill="white"/>
<path fill-rule="evenodd" clip-rule="evenodd" d="M90.3884 89.1117C90.1633 89.3206 89.7666 88.6733 89.7837 88.4727C89.8333 87.8769 90.573 88.939 90.3884 89.1117Z" fill="white"/>
<path fill-rule="evenodd" clip-rule="evenodd" d="M85.0752 91.7395C84.8573 91.3833 84.6118 91.1873 84.3748 91.0869L83.6602 91.2176L83.8714 91.7028C83.9341 91.7368 84.0034 91.7695 84.0797 91.7992C84.5326 91.9748 85.0752 91.7395 85.0752 91.7395Z" fill="white"/>
<path fill-rule="evenodd" clip-rule="evenodd" d="M83.3105 91.1439C83.3105 91.1439 83.8139 90.8521 84.3754 91.0858C84.3813 91.1353 84.4031 91.2337 84.3949 91.2858C84.3572 91.5172 84.1509 91.6862 83.9004 91.7159C83.4383 91.4763 83.3105 91.1439 83.3105 91.1439Z" fill="#4D3D87"/>
<path d="M85.3875 91.3978C84.9726 90.5482 83.9854 90.358 83.5995 90.4023L83.5605 90.0689C84.1728 89.9986 85.2344 90.3191 85.6886 91.2509L85.3875 91.3978Z" fill="#FF5000"/>
<path fill-rule="evenodd" clip-rule="evenodd" d="M82.9008 90.8881C83.1896 90.9194 82.6278 92.8583 82.2621 93.5792C81.8841 93.5908 81.4329 93.3841 81.3857 93.064C81.2903 92.4295 82.6262 90.86 82.9008 90.8881Z" fill="#FCD2C0"/>
<path opacity="0.13" fill-rule="evenodd" clip-rule="evenodd" d="M82.9008 90.8881C83.1896 90.9194 82.6278 92.8583 82.2621 93.5792C81.8841 93.5908 81.4329 93.3841 81.3857 93.064C81.2903 92.4295 82.6262 90.86 82.9008 90.8881Z" fill="black"/>
<path fill-rule="evenodd" clip-rule="evenodd" d="M83.1398 94.333C83.091 95.0523 81.9865 95.5012 81.8591 95.2279C81.7891 95.0787 81.8215 94.7978 81.9334 94.6875C82.3754 94.737 82.7289 94.6879 83.1398 94.333Z" fill="#FCD2C0"/>
<path fill-rule="evenodd" clip-rule="evenodd" d="M83.1391 94.3323C82.8338 94.6301 82.1406 94.5604 81.9567 94.5165C81.8944 93.489 82.6529 94.3852 83.1391 94.3323Z" fill="#FCD2C0"/>
<path opacity="0.13" fill-rule="evenodd" clip-rule="evenodd" d="M83.1398 94.333C83.091 95.0523 81.9865 95.5012 81.8591 95.2279C81.7891 95.0787 81.8215 94.7978 81.9334 94.6875C82.3754 94.737 82.7289 94.6879 83.1398 94.333Z" fill="black"/>
<path opacity="0.13" fill-rule="evenodd" clip-rule="evenodd" d="M83.1391 94.3323C82.8338 94.6301 82.1406 94.5604 81.9567 94.5165C81.8944 93.489 82.6529 94.3852 83.1391 94.3323Z" fill="black"/>
<path opacity="0.13" d="M85.8288 93.7393C85.7911 94.2866 85.3178 94.7008 84.7702 94.6625C84.2239 94.6249 83.8113 94.1519 83.848 93.6053C83.8846 93.0577 84.3589 92.6444 84.9059 92.6821C85.4521 92.7197 85.8661 93.193 85.8288 93.7393Z" fill="black"/>
<path opacity="0.13" fill-rule="evenodd" clip-rule="evenodd" d="M84.3194 98.0946L84.2188 99.6387C86.4847 99.4103 87.3274 97.6338 87.3274 97.6338C87.3274 97.6338 85.7533 98.4309 84.3194 98.0946Z" fill="black"/>
<path fill-rule="evenodd" clip-rule="evenodd" d="M88.7097 99.2263C89.4174 99.325 90.9509 99.8313 92.4254 100.43C94.2193 101.16 95.9242 102.026 95.942 102.464C95.9945 103.606 92.6617 108.363 92.0761 108.343C91.4143 108.322 91.0803 107.677 90.974 107.206C90.767 106.302 89.8494 104.836 87.7155 103.235C86.106 102.031 84.3691 100.736 84.3691 100.736C84.3691 100.736 85.4907 98.7193 88.7097 99.2263Z" fill="#EFAD1B"/>
<path opacity="0.25" fill-rule="evenodd" clip-rule="evenodd" d="M88.7097 99.2263C89.4174 99.325 90.9509 99.8313 92.4254 100.43C94.2193 101.16 95.9242 102.026 95.942 102.464C95.9945 103.606 92.6617 108.363 92.0761 108.343C91.4143 108.322 91.0803 107.677 90.974 107.206C90.767 106.302 89.8494 104.836 87.7155 103.235C86.106 102.031 84.3691 100.736 84.3691 100.736C84.3691 100.736 85.4907 98.7193 88.7097 99.2263Z" fill="white"/>
<path fill-rule="evenodd" clip-rule="evenodd" d="M59.6233 92.3165C61.307 92.9839 62.2104 94.458 63.2106 95.7638C64.1642 97.0059 65.093 98.2097 65.9179 99.4821C67.6729 102.185 69.0833 104.883 70.4687 107.322C72.8878 106.091 75.2564 104.759 77.6597 103.499C78.0463 104.948 78.5856 106.371 79.0576 107.795C79.3398 108.651 79.9122 109.321 80.6334 109.802C78.3697 110.977 76.0648 112.088 73.6186 112.896C72.3933 113.301 70.64 113.888 69.2662 113.743C66.3113 113.429 65.095 110.669 64.1572 108.899C63.2079 107.11 62.4669 105.265 61.8028 103.481C61.1869 101.831 60.4851 99.9053 59.7401 97.9717C59.2411 96.6794 58.6538 95.2109 58.1696 93.8164C57.758 92.6327 58.3776 91.8247 59.6233 92.3165Z" fill="#FCD2C0"/>
<path fill-rule="evenodd" clip-rule="evenodd" d="M57.3524 91.5974C57.0867 91.4862 56.2711 90.9459 55.8142 90.833C55.6373 90.7891 55.4142 90.7887 55.3445 90.9333C55.196 91.2363 55.8779 91.604 56.0964 91.7648C56.4784 92.044 56.7252 92.2599 57.0599 92.4883C56.7381 92.4005 55.9519 91.8724 55.398 91.704C55.1646 91.6347 54.887 91.5961 54.8052 91.7862C54.6986 92.0269 55.2231 92.3919 55.398 92.5203C56.2295 93.1382 57.153 93.8337 57.7158 94.4546C58.3618 95.1692 58.8249 95.8723 59.2045 96.7338C59.2969 96.9411 59.4055 97.4243 59.6095 97.5203C59.7085 97.5656 59.9861 97.5213 60.0868 97.4883C60.432 97.3758 60.7859 97.1209 61.2447 96.8239C61.4193 96.711 61.5972 96.606 61.7982 96.4324C61.9596 96.2921 62.2613 96.0835 62.3046 95.9898C62.3742 95.8419 62.2775 95.46 62.2145 95.2339C62.0352 94.5757 61.7094 93.673 61.546 93.1323C61.4034 92.6636 61.2549 92.1711 61.1265 91.7199C61.0027 91.2908 60.6096 89.8823 60.0392 89.9635C59.5735 90.0319 60.1158 91.3528 60.1039 91.7215C59.7131 91.2116 58.9506 90.4877 58.0159 89.9474C57.7726 89.8064 57.2715 89.4833 57.1071 89.6698C56.882 89.9259 57.2699 90.1969 57.423 90.355C57.6369 90.5745 57.7736 90.7587 57.9894 90.9145C57.6194 90.7795 56.8979 90.2765 56.4407 90.1781C56.2915 90.1461 56.1001 90.1639 56.0387 90.2735C55.9014 90.5283 56.3156 90.7488 56.5586 90.9452C56.8916 91.2119 57.0897 91.4066 57.3233 91.5872C57.3329 91.5895 57.3422 91.5935 57.3524 91.5974Z" fill="#FCD2C0"/>
<path opacity="0.13" fill-rule="evenodd" clip-rule="evenodd" d="M69.6234 105.801C69.832 105.288 68.3397 108.895 68.7464 109.038C69.3976 109.267 70.4713 107.323 70.4713 107.323L69.6234 105.801Z" fill="black"/>
<path fill-rule="evenodd" clip-rule="evenodd" d="M68.6513 112.739C68.2575 111.202 70.7723 112.346 70.6644 112.223C71.4622 113.131 68.7797 113.241 68.6513 112.739Z" fill="white"/>
<path fill-rule="evenodd" clip-rule="evenodd" d="M67.4514 111.171C67.702 111.053 68.2641 112.092 68.0413 112.256C67.8182 112.421 66.7424 111.509 67.4514 111.171Z" fill="white"/>
<path fill-rule="evenodd" clip-rule="evenodd" d="M74.2246 105.018C74.93 107.468 76.1163 109.674 77.3488 111.857C79.1457 111.229 81.0262 110.421 82.7525 109.167C84.4138 107.961 86.1672 106.414 86.8808 104.057C87.2756 102.754 87.1831 101.113 85.504 100.762C84.5128 100.556 83.3341 100.935 82.3805 101.226C79.5864 102.08 76.4635 103.556 74.2246 105.018Z" fill="#EFAD1B"/>
<path opacity="0.18" fill-rule="evenodd" clip-rule="evenodd" d="M74.2246 105.018C74.93 107.468 76.1163 109.674 77.3488 111.857C79.1457 111.229 81.0262 110.421 82.7525 109.167C84.4138 107.961 86.1672 106.414 86.8808 104.057C87.2756 102.754 87.1831 101.113 85.504 100.762C84.5128 100.556 83.3341 100.935 82.3805 101.226C79.5864 102.08 76.4635 103.556 74.2246 105.018Z" fill="black"/>
<path d="M108.72 72.1138L104.764 76.4121L110.069 81.2951L114.025 76.9968L108.72 72.1138Z" fill="#FCD2C0"/>
<path fill-rule="evenodd" clip-rule="evenodd" d="M109.062 81.6016C108.324 82.8948 107.713 84.1534 107.582 85.5077C107.541 85.9131 107.47 86.4914 107.809 86.763C108.262 87.1261 109.101 86.4831 109.782 85.916C111.209 84.7231 112.449 83.5118 113.778 82.0941C114.853 80.948 115.737 79.8278 115.482 78.8085C115.297 78.0599 114.776 77.3918 114.265 76.7059C113.753 76.0243 113.183 75.4159 112.402 74.7852C111.344 75.5869 110.039 76.7709 108.87 78.0262C108.216 77.272 107.545 77.4294 106.734 78.1381C106.457 78.3807 106.047 78.8474 106.059 79.0923C106.086 79.5921 108.518 81.3042 109.062 81.6016Z" fill="#FF5000"/>
<path d="M106.13 80.6256C106.197 80.447 106.341 80.3269 106.54 80.286C107.269 80.1354 108.801 81.127 109.009 81.4343C109.035 81.4746 109.039 81.5313 109.018 81.5795C108.994 81.6287 108.948 81.665 108.897 81.6769C108.36 81.8 106.814 81.6716 106.287 81.2273C106.144 81.1088 106.079 80.9702 106.091 80.8141C106.095 80.7484 106.109 80.684 106.13 80.6256ZM108.524 81.4171C108.06 81.061 107.042 80.4913 106.571 80.586C106.466 80.6078 106.436 80.6556 106.417 80.7048C106.407 80.7358 106.4 80.7652 106.396 80.8068C106.393 80.8636 106.428 80.922 106.5 80.9851C106.85 81.2795 107.885 81.4406 108.524 81.4171Z" fill="#4D3D87"/>
<path d="M105.923 82.1346C105.978 81.9837 106.109 81.857 106.319 81.7514C107.044 81.3876 108.608 81.3691 108.934 81.4926C108.982 81.5081 109.014 81.551 109.02 81.6012C109.026 81.6543 109.006 81.7075 108.963 81.7444C108.545 82.1266 107.079 82.8489 106.369 82.7762C106.174 82.7578 106.039 82.6855 105.971 82.5594C105.887 82.4132 105.874 82.2706 105.923 82.1346ZM108.483 81.7378C107.95 81.7108 106.936 81.7708 106.429 82.0223C106.309 82.0831 106.232 82.1494 106.21 82.2151C106.195 82.2597 106.203 82.3184 106.239 82.3897C106.267 82.4343 106.329 82.4653 106.431 82.4736C106.906 82.5201 107.917 82.095 108.483 81.7378Z" fill="#4D3D87"/>
<path d="M107.35 83.5176L108.745 81.5566L108.99 81.7174L107.593 83.6781L107.35 83.5176Z" fill="#4D3D87"/>
<path d="M108.386 84.7384C109.898 84.0627 111.002 82.5281 111.072 81.1943C111.166 79.4449 110.635 79.1798 109.538 77.9262C109.458 77.8354 109.364 77.7252 109.263 77.6133C109.131 77.7499 109 77.8872 108.871 78.0262C108.773 77.914 108.676 77.8252 108.578 77.7522C108.644 77.807 108.709 77.8625 108.765 77.9236C110.286 79.5429 111.296 81.3904 109.526 83.255C109.037 83.7689 108.522 84.0822 108.073 84.2614C107.993 84.2927 107.908 84.3122 107.82 84.3294C107.755 84.5495 107.697 84.7707 107.656 84.9938C107.915 84.9433 108.192 84.8245 108.386 84.7384Z" fill="white"/>
<path d="M114.061 76.9692C112.611 78.1482 112.671 79.5438 113.275 80.7459C113.416 81.0262 113.74 81.7051 114.05 81.7999C114.155 81.6827 114.261 81.5652 114.359 81.448C114.304 81.2093 114.046 80.9202 113.888 80.6518C113.206 79.483 113.387 78.1967 114.406 77.361C114.475 77.3039 114.559 77.2626 114.645 77.2207C114.537 77.0721 114.427 76.9243 114.314 76.7744C114.224 76.8365 114.136 76.9068 114.061 76.9692Z" fill="white"/>
<path d="M115.522 79.1113C115.559 80.0494 114.746 81.0601 113.779 82.0939C112.45 83.5116 111.21 84.723 109.782 85.9159C109.171 86.4242 108.436 86.9883 107.965 86.8421L115.522 79.1113Z" fill="#4D3D87"/>
<path fill-rule="evenodd" clip-rule="evenodd" d="M109.606 72.3201C109.6 72.3314 105.375 76.4464 104.955 76.9204C104.694 76.7257 99.7136 72.5202 97.5566 70.4492C96.1887 69.1382 94.0541 67.0366 94.3548 64.7557C94.6866 62.2501 99.234 60.6443 102.306 60.0056C105.522 59.3359 108.512 59.2157 111.465 58.9173C110.885 58.309 110.296 57.7198 109.727 57.0818C112.345 54.4593 114.984 51.8494 117.814 49.3213C119.548 49.5817 121.574 50.3977 123.395 51.5005C125.151 52.5673 126.794 53.8724 127.765 55.9955C128.504 57.6138 128.551 59.19 128.058 60.2951C126.565 63.644 121.046 65.3056 116.772 66.1922C112.329 67.1138 107.532 66.549 103.623 66.7048C105.11 68.0509 109.476 72.1904 109.606 72.3201Z" fill="#8F7ECE"/>
<path fill-rule="evenodd" clip-rule="evenodd" d="M97.6812 68.5061C97.3765 68.7293 96.991 68.2873 96.7695 67.8569C96.549 67.4288 96.3651 66.9541 96.5625 66.8231C96.8754 66.6168 97.1547 67.2231 97.3399 67.5569C97.4937 67.8335 98.0007 68.2715 97.6812 68.5061Z" fill="white"/>
<path fill-rule="evenodd" clip-rule="evenodd" d="M95.6315 66.9616C95.2562 67.2273 94.7888 66.0367 95.1169 65.8783C95.5774 65.6558 96.0425 66.6702 95.6315 66.9616Z" fill="white"/>
<path fill-rule="evenodd" clip-rule="evenodd" d="M96.123 65.8589C95.7982 65.8091 95.5332 65.0654 95.4477 64.5927C95.4193 64.4254 95.3582 64.3838 95.5348 64.3284C95.8088 64.2432 95.9543 64.7211 96.1095 65.0416C96.2729 65.3714 96.5326 65.7038 96.123 65.8589Z" fill="white"/>
<path opacity="0.13" d="M101.223 64.8254C101.5 64.592 103.744 65.7941 104.957 66.6778C104.507 66.6778 104.064 66.6867 103.633 66.7042C103.171 66.3787 102.72 66.0661 102.275 65.7615C101.9 65.5066 101.113 64.9188 101.223 64.8254Z" fill="black"/>
<path opacity="0.13" d="M115.775 58.5071C115.818 58.7672 114.801 58.7988 114.327 58.8233C113.297 58.8731 112.278 58.917 111.278 58.9352C111.341 58.9292 111.404 58.9233 111.466 58.9164C111.097 58.5298 110.726 58.1499 110.355 57.7598C111.648 57.766 113.164 57.9274 114.33 58.0671C114.853 58.1298 115.737 58.2856 115.775 58.5071Z" fill="black"/>
<path fill-rule="evenodd" clip-rule="evenodd" d="M126.602 59.4834C126.673 59.4135 125.896 60.7793 126.497 60.9318C126.929 61.0411 127.12 59.9564 126.999 59.5805C126.925 59.4871 126.736 59.4415 126.602 59.4834Z" fill="white"/>
<path fill-rule="evenodd" clip-rule="evenodd" d="M126.802 57.2979C126.613 57.6035 127.031 59.2219 127.6 58.98C127.972 58.8228 127.624 57.52 127.196 57.2075C127.085 57.1814 126.954 57.2104 126.802 57.2979Z" fill="white"/>
<path fill-rule="evenodd" clip-rule="evenodd" d="M89.0815 33.9974C89.57 33.4435 90.3001 33.0662 90.8537 33.3716C92.7279 34.4024 91.0907 36.6469 91.2197 36.8291C92.2687 38.298 94.0627 40.3421 94.6443 41.1726C95.2094 41.9866 92.3658 45.3059 90.7748 44.0281C90.7748 44.0281 89.6126 42.8293 89.0426 42.317C88.2487 42.8164 87.0446 43.2122 86.0719 42.822C85.5414 42.6052 84.7687 41.9691 84.331 41.3043C84.0864 40.933 83.8547 40.3676 83.5897 39.7605C83.1477 38.7373 82.305 38.1669 81.9426 37.1331C81.731 36.5231 81.9195 35.5857 81.9119 35.217C81.8937 34.4314 82.3109 33.458 83.2272 32.7061C84.5575 31.6185 86.7267 31.4515 88.0556 32.512C88.6501 32.9847 88.866 33.4452 89.0815 33.9974Z" fill="#FCD2C0"/>
<path opacity="0.13" fill-rule="evenodd" clip-rule="evenodd" d="M90.6191 39.541C91.1 40.2629 91.3311 42.3572 90.0745 43.3132L89.043 42.3166C90.121 41.4495 90.3791 40.5039 90.6191 39.541Z" fill="black"/>
<path d="M94.427 33.7683C94.5891 33.1831 94.6016 32.4797 94.1277 31.7697C93.8695 31.3845 93.3668 30.9184 92.9849 30.7659C92.4928 30.5735 91.8363 30.5764 91.35 30.4035C90.7991 30.2101 90.3542 29.5803 89.8861 29.0977C88.9616 28.152 87.6449 27.9249 86.5675 28.5181C85.9255 28.8746 85.6588 29.301 85.2859 29.7427C84.6369 29.3849 83.987 29.3571 83.2985 29.7364C82.0815 30.4074 82.1841 31.3719 81.6689 32.1341C81.3117 32.6691 80.341 33.158 79.9056 33.6419C79.4989 34.0947 79.1282 34.5562 78.9513 35.1249C78.7219 35.8676 79.0622 36.9565 79.6244 37.6292C80.7159 38.9334 80.2786 39.4199 81.0057 40.5052C82.3059 42.4447 83.6648 41.066 84.2382 41.1492C84.185 41.0591 84.0883 40.8214 84.0385 40.7214C83.752 40.1362 83.4638 39.2912 83.0902 38.6663C82.7921 38.1626 82.4049 37.7576 82.1868 37.1995C83.7827 35.9937 84.1487 34.5651 84.1504 33.0712C84.8954 32.9731 85.5311 32.9695 86.078 33.6584C86.4015 34.069 86.589 34.6229 86.9475 35.0592C87.2049 35.3721 87.5036 35.5666 87.7842 35.6758C87.8908 35.7164 88.1648 35.826 88.2037 35.6861C88.2556 35.4953 87.8436 35.4256 87.6344 35.2926C86.9531 34.8665 86.6897 33.7188 86.1044 33.1388C86.7072 33.4551 86.8712 34.3456 87.4139 34.8127C87.7185 35.0738 88.14 35.1163 88.5295 35.2358C88.9596 35.3702 89.2626 35.6141 89.6056 35.8735C89.6072 35.3494 89.6468 34.7209 90.2185 34.441C90.4836 34.3093 90.7889 34.4159 90.9559 34.6387C91.3319 35.1388 91.1675 36.263 90.4344 36.5337C90.2347 36.8842 90.784 36.8945 91.3326 37.0262C94.7195 37.8421 94.03 34.8364 94.1006 34.5922C94.1831 34.307 94.3472 34.0528 94.427 33.7683ZM82.0092 36.8377L81.922 36.6327C82.0158 36.5647 82.1148 36.4806 82.1983 36.4046C82.9661 35.6907 83.5249 34.7701 83.7989 33.9142C83.7084 34.8576 83.1862 36.0637 82.0092 36.8377Z" fill="#FF5000"/>
<path fill-rule="evenodd" clip-rule="evenodd" d="M87.2194 36.5096C86.8074 36.4073 86.4899 36.4409 86.2473 36.5383L85.9727 37.1186L86.3229 37.3384C86.3922 37.3186 86.4651 37.2929 86.5411 37.2602C86.9946 37.0661 87.2194 36.5096 87.2194 36.5096Z" fill="white"/>
<path fill-rule="evenodd" clip-rule="evenodd" d="M85.5254 37.3359C85.5254 37.3359 85.6776 36.7671 86.2479 36.5391C86.2879 36.5691 86.3747 36.6246 86.4041 36.6678C86.543 36.8602 86.513 37.1292 86.3522 37.3286C85.8502 37.4847 85.5254 37.3359 85.5254 37.3359Z" fill="#4D3D87"/>
<path d="M87.0318 35.9807C86.094 35.811 85.348 36.4989 85.1513 36.8386L84.8496 36.6653C85.1609 36.1256 86.0607 35.4483 87.0955 35.6381L87.0318 35.9807Z" fill="#FF5000"/>
<path opacity="0.13" d="M86.041 40.8242C86.9309 40.4803 87.2101 39.5049 87.2009 39.1134L87.5481 39.1045C87.5623 39.7273 87.1474 40.7737 86.1661 41.1483L86.041 40.8242Z" fill="black"/>
<path fill-rule="evenodd" clip-rule="evenodd" d="M84.3928 37.8998C84.0089 37.8044 83.7135 37.8361 83.4881 37.9268L83.2676 38.4636L83.5887 38.6606C83.6445 38.6434 83.7026 38.6223 83.7627 38.5962C84.1835 38.415 84.3928 37.8998 84.3928 37.8998Z" fill="white"/>
<path fill-rule="evenodd" clip-rule="evenodd" d="M82.8184 38.6661C82.8184 38.6661 82.961 38.1387 83.4884 37.9258C83.528 37.9535 83.6086 38.0053 83.6363 38.0459C83.7647 38.2242 83.737 38.4734 83.5891 38.6592C83.123 38.8011 82.8184 38.6661 82.8184 38.6661Z" fill="#4D3D87"/>
<path d="M84.2169 37.419C83.3511 37.2619 82.6662 37.8976 82.4853 38.2099L82.1836 38.0379C82.4741 37.5319 83.3158 36.9018 84.2786 37.0767L84.2169 37.419Z" fill="#FF5000"/>
<path opacity="0.13" fill-rule="evenodd" clip-rule="evenodd" d="M86.1944 39.6654C84.4407 40.551 84.8394 38.56 84.747 37.6849C84.7424 37.6331 84.7034 37.5559 84.747 37.5064C84.9946 37.2301 85.9963 38.9465 86.1944 39.6654Z" fill="black"/>
<path opacity="0.13" fill-rule="evenodd" clip-rule="evenodd" d="M88.7961 36.9169C89.0559 37.178 89.0559 37.6018 88.7954 37.8592C88.5343 38.12 88.1141 38.1183 87.8547 37.8582C87.5936 37.5981 87.5966 37.1789 87.856 36.9179C88.1155 36.6578 88.5366 36.6578 88.7961 36.9169Z" fill="black"/>
<path fill-rule="evenodd" clip-rule="evenodd" d="M87.9493 29.439C88.3513 29.1129 87.1344 28.5495 87.1466 29.0591C87.1525 29.3265 87.6965 29.4512 87.9493 29.439Z" fill="white"/>
<path fill-rule="evenodd" clip-rule="evenodd" d="M88.8429 29.3049C88.7327 29.3006 88.5059 29.3495 88.5118 29.5697C88.5217 29.8575 89.0281 30.1351 89.2096 30.2833C89.4281 30.4642 89.7595 30.9019 90.0583 30.788C90.4844 30.6243 89.8873 30.0532 89.674 29.8661C89.5615 29.7651 89.4413 29.6786 89.3417 29.599C89.1687 29.4621 89.0551 29.3145 88.8429 29.3049Z" fill="white"/>
<path fill-rule="evenodd" clip-rule="evenodd" d="M93.0551 31.813C93.4581 31.4865 92.2411 30.9234 92.254 31.4334C92.2599 31.6998 92.8046 31.8252 93.0551 31.813Z" fill="white"/>
<path d="M116.88 47.6389C114.002 46.2506 107.199 42.9175 106.758 42.6564C104.927 41.5675 102.936 40.394 100.851 39.6114C98.6696 38.7938 96.2739 38.3499 93.5583 39.3553C93.4639 39.3889 93.3745 39.4269 93.282 39.4652C93.7029 41.4272 92.6872 43.235 90.8203 44.0506C91.1603 44.9881 90.6889 53.1298 93.0714 54.4072C95.4371 55.6767 98.7828 54.0972 99.877 54.4679C100.57 54.7029 105.298 57.0709 107.816 58.0555C109.177 58.5883 109.967 58.1714 110.396 57.877C112.865 56.1909 116.443 52.33 117.723 49.2817C117.905 48.8463 118.165 48.2595 116.88 47.6389Z" fill="#CAD309"/>
<path fill-rule="evenodd" clip-rule="evenodd" d="M109.443 57.6453C109.497 58.1018 108.227 57.9529 108.242 57.5888C108.257 57.2139 109.397 57.2924 109.443 57.6453Z" fill="white"/>
<path fill-rule="evenodd" clip-rule="evenodd" d="M108.697 56.6931C108.502 56.9542 107.822 56.9681 107.365 56.8202C107.203 56.7664 107.038 56.671 107.071 56.4888C107.126 56.2059 107.615 56.304 107.972 56.3168C108.34 56.33 108.755 56.2577 108.697 56.6931Z" fill="white"/>
<path fill-rule="evenodd" clip-rule="evenodd" d="M99.3157 40.2205C99.789 39.7263 98.097 39.1896 98.1977 39.8574C98.2502 40.2056 98.9869 40.2786 99.3157 40.2205Z" fill="white"/>
<path fill-rule="evenodd" clip-rule="evenodd" d="M100.465 39.8976C100.319 39.9091 100.03 40.0121 100.075 40.2993C100.133 40.6756 100.847 40.9558 101.107 41.1208C101.425 41.3209 101.934 41.8411 102.307 41.6404C102.839 41.3549 101.962 40.7053 101.649 40.4944C101.484 40.3821 101.311 40.2881 101.166 40.2006C100.917 40.0497 100.743 39.8745 100.465 39.8976Z" fill="white"/>
<path fill-rule="evenodd" clip-rule="evenodd" d="M93.0834 51.1064C92.8246 52.1175 90.5309 58.2962 89.5644 60.8487C88.7188 63.0794 85.5659 68.8917 85.0694 69.5558C84.7889 69.8651 84.5209 70.1635 84.3132 70.3797C83.9396 70.7708 83.5501 71.1785 83.1857 71.5488C82.8421 71.8987 81.7053 73.0431 82.1185 73.4557C82.4615 73.7967 83.424 72.5817 83.7911 72.3757C83.524 72.9913 83.2689 74.031 83.2943 75.1025C83.3002 75.3853 83.2808 75.9795 83.5593 76.0039C83.9396 76.0366 83.9766 75.5619 84.0386 75.3454C84.1264 75.0434 84.2254 74.8255 84.2509 74.5601C84.335 74.9387 84.272 75.8181 84.4453 76.2465C84.5007 76.3848 84.6321 76.53 84.773 76.5135C85.1025 76.4766 85.0718 76.0125 85.119 75.7002C85.1813 75.2777 85.2569 75.0028 85.2929 74.7133C85.2906 74.7004 85.2893 74.6876 85.2886 74.6753C85.2899 74.6866 85.2916 74.6965 85.2946 74.706C85.2946 74.7087 85.2929 74.711 85.2929 74.713C85.3328 75.0312 85.2959 75.9488 85.4484 76.3693C85.5104 76.538 85.6405 76.7169 85.8227 76.6891C86.2062 76.6327 86.1627 75.8649 86.1904 75.5939C86.2353 75.1213 86.3 74.7925 86.3254 74.3911C86.4304 74.7024 86.3802 75.6494 86.5429 76.1963C86.6102 76.4241 86.7363 76.672 86.9714 76.6284C87.2631 76.5723 87.3107 75.9333 87.3354 75.7174C87.4467 74.6813 87.5794 73.5257 87.851 72.7071C88.0596 72.0839 88.3148 71.5277 88.6396 70.9861C90.2197 68.7858 93.062 64.1525 94.1317 61.7257C95.2362 59.2188 97.6778 53.7085 98.2105 51.6438C97.283 51.7871 93.9337 51.2124 93.0834 51.1064Z" fill="#FCD2C0"/>
<path d="M96.6468 41.073C94.7396 41.3116 93.791 43.2234 93.1533 44.4332C91.7382 47.115 90.9127 49.7913 90.1152 52.6293L97.0693 55.0779C97.6133 53.8239 98.1167 52.5594 98.5497 51.2872C98.9273 50.1825 99.3165 48.9457 99.5538 47.6049C99.7789 46.3453 99.8869 44.8375 99.4264 43.3987C98.9716 41.9751 97.9255 40.9109 96.6468 41.073Z" fill="#B1BC00"/>
<path fill-rule="evenodd" clip-rule="evenodd" d="M94.9242 44.7064C94.5852 44.9259 94.1422 45.8947 94.5294 46.0733C94.9308 46.2548 95.3345 45.2531 95.2939 44.8718C95.2378 44.7695 95.0638 44.6939 94.9242 44.7064Z" fill="white"/>
<path fill-rule="evenodd" clip-rule="evenodd" d="M93.1886 46.3058C92.7618 45.8902 92.462 46.7517 92.3023 47.3122C92.1937 47.6902 92.1065 48.147 92.3907 48.2265C92.7915 48.3401 93.3585 46.7593 93.2664 46.4104C93.2585 46.3797 93.214 46.3316 93.1886 46.3058Z" fill="white"/>
<path fill-rule="evenodd" clip-rule="evenodd" d="M94.768 43.0146C94.4214 43.1051 93.5916 44.53 94.1656 44.7393C94.5409 44.8756 95.1994 43.7233 95.1132 43.2143C95.0525 43.1232 94.9383 43.0559 94.768 43.0146Z" fill="white"/>
<path fill-rule="evenodd" clip-rule="evenodd" d="M119.298 49.6549C116.444 52.625 114.005 55.7247 111.295 58.7383L110.402 57.8861C112.618 54.9444 115.165 52.1067 117.745 49.2803C117.745 49.2803 119.325 49.6269 119.298 49.6549Z" fill="#EFAD1B"/>
<path d="M115.103 55.3027L114.063 56.5431C113.761 56.9029 113.223 56.9504 112.863 56.6484L112.134 56.0378C111.775 55.7347 111.727 55.1964 112.029 54.8356L113.07 53.5962C113.372 53.2364 113.91 53.1889 114.269 53.4906L115 54.1025C115.358 54.4045 115.405 54.9436 115.103 55.3027ZM112.528 55.2538C112.456 55.3393 112.466 55.4671 112.552 55.5377L113.282 56.1503C113.367 56.221 113.494 56.2101 113.565 56.1252L114.606 54.8841C114.677 54.7993 114.666 54.6722 114.58 54.6009L113.852 53.989C113.767 53.9177 113.638 53.9286 113.569 54.0141L112.528 55.2538Z" fill="white"/>
</svg>
