<svg width="213" height="852" viewBox="0 0 213 852" fill="none" xmlns="http://www.w3.org/2000/svg">
<path fill-rule="evenodd" clip-rule="evenodd" d="M124.471 129.733C124.357 131.252 125.759 132.111 126.692 132.797C129.665 134.981 132.716 137.036 135.739 139.213C139.652 142.029 143.799 144.79 147.798 147.766C151.576 150.575 155.991 153.82 158.944 158.253C160.414 160.459 161.763 163.833 162.627 166.986C162.986 168.298 163.231 169.934 163.586 171.468C163.92 172.912 164.461 174.887 165.558 175.184C166.247 175.372 167.417 174.874 167.818 174.537C169.868 172.805 167.904 168.331 166.472 165.372C164.575 161.452 162.303 157.207 159.844 154.476C158.163 152.606 156.171 151.057 154.302 149.541C150.474 146.435 146.764 143.525 142.788 140.713C138.906 137.968 134.822 135.526 130.767 132.95C129.807 132.341 128.758 131.672 127.758 131.051C126.81 130.463 125.819 129.225 124.471 129.733Z" fill="#4D3D87"/>
<path fill-rule="evenodd" clip-rule="evenodd" d="M169.236 158.866C167.893 159.587 166.539 158.654 165.534 158.075C162.337 156.243 159.218 154.284 156.006 152.403C151.845 149.966 147.643 147.292 143.303 144.838C139.205 142.522 134.45 139.8 129.2 138.894C126.589 138.445 122.956 138.576 119.725 139.063C118.381 139.265 116.785 139.705 115.24 140.001C113.782 140.28 111.758 140.584 111.042 139.704C110.591 139.148 110.571 137.876 110.719 137.374C111.471 134.796 116.358 134.783 119.645 134.894C123.997 135.04 128.797 135.4 132.292 136.542C134.681 137.324 136.904 138.516 139.046 139.611C143.437 141.854 147.601 144.07 151.781 146.566C155.862 149.002 159.748 151.748 163.747 154.413C164.691 155.044 165.73 155.734 166.702 156.396C167.62 157.024 169.154 157.43 169.236 158.866Z" fill="#4D3D87"/>
<path d="M173.591 155.503C173.172 154.669 172.022 153.796 171.109 153.124C168.514 151.218 165.539 149.471 162.957 147.872C159.829 145.935 157.587 144.629 154.092 143.992C152.997 143.793 151.871 143.831 150.707 143.656C149.767 143.513 148.728 142.985 147.797 142.606C147.074 141.907 146.17 141.171 145.659 140.372C145.028 139.378 144.608 138.332 143.979 137.41C141.983 134.475 139.883 132.952 136.844 130.877C134.334 129.164 131.533 127.148 128.741 125.549C127.756 124.987 126.494 124.29 125.56 124.243C124.262 124.176 123.538 125.191 123.321 125.788C123.035 126.577 123.311 127.449 123.025 128.406C122.815 129.115 122.129 129.909 121.654 130.698C120.311 132.932 118.461 135.405 118.066 138.187C117.612 141.405 120.207 143.163 121.944 144.556C124.104 146.284 126.314 147.472 129.059 148.577C130.812 149.282 132.465 150.006 134.413 149.642C136.264 149.295 137.928 147.836 139.308 146.684C140.372 145.794 142.083 143.974 143.314 143.791C144.72 143.582 145.414 144.258 146.369 144.801C147.252 145.455 148.152 145.814 148.529 147.184C148.861 148.386 147.888 150.685 147.506 152.02C147.011 153.746 146.351 155.858 146.783 157.692C147.239 159.621 148.572 160.84 149.926 162.156C152.047 164.218 154.028 165.758 156.483 167.034C158.458 168.06 161.119 169.72 163.877 168C166.259 166.515 167.773 163.822 169.271 161.691C169.801 160.934 170.249 159.987 170.811 159.505C171.571 158.856 172.48 158.76 173.085 158.177C173.545 157.737 174.179 156.664 173.591 155.503ZM140.018 142.005C138.92 143.28 137.636 144.554 136.066 145.623C134.964 146.375 133.974 147.121 132.274 147.04C131.189 146.986 129.941 146.286 128.932 145.744C126.906 144.657 125.015 143.384 123.37 141.854C122.229 140.791 121.173 140.022 121.216 137.955C121.238 136.887 121.717 135.817 122.062 135.133C122.838 133.59 123.9 132.098 124.982 130.696C125.414 130.139 126.194 128.892 126.943 128.685C126.978 128.676 127.005 128.58 127.1 128.592C128.817 128.819 130.28 129.711 131.619 130.45C134.9 132.26 137.948 134.561 140.424 137.592C140.866 138.135 141.471 138.981 141.473 139.707C141.475 140.579 140.55 141.388 140.018 142.005ZM165.051 163.112C164.565 163.703 163.781 164.574 162.814 165.029C160.941 165.906 159.81 165.25 158.377 164.637C156.31 163.752 154.381 162.538 152.566 161.127C151.662 160.423 150.516 159.566 150.029 158.596C149.266 157.075 149.548 155.866 149.788 154.554C150.132 152.686 150.776 150.998 151.495 149.476C151.844 148.74 152.21 147.568 153.01 147.216C153.675 146.922 154.691 147.133 155.367 147.319C159.143 148.355 162.478 150.21 165.462 152.479C166.68 153.402 168.089 154.379 168.992 155.858C169.04 155.94 168.965 156.002 168.97 156.037C169.084 156.807 168.262 158.024 167.926 158.646C167.084 160.205 166.148 161.777 165.051 163.112Z" fill="#4D3D87"/>
<path opacity="0.62" d="M140.424 137.592C137.948 134.561 134.9 132.26 131.619 130.45C130.28 129.711 128.817 128.818 127.1 128.592C127.005 128.579 126.978 128.675 126.943 128.685C126.194 128.892 125.414 130.139 124.982 130.696C123.899 132.098 122.838 133.59 122.062 135.133C121.717 135.817 121.239 136.887 121.216 137.955C121.173 140.021 122.229 140.791 123.37 141.854C125.016 143.384 126.906 144.656 128.933 145.743C129.941 146.286 131.189 146.986 132.274 147.039C133.973 147.121 134.964 146.374 136.066 145.623C137.637 144.553 138.92 143.28 140.018 142.005C140.55 141.388 141.475 140.579 141.473 139.707C141.471 138.981 140.866 138.134 140.424 137.592Z" fill="white"/>
<path opacity="0.62" d="M168.969 156.037C168.964 156.002 169.039 155.94 168.991 155.858C168.089 154.379 166.679 153.402 165.461 152.479C162.477 150.21 159.142 148.355 155.366 147.319C154.69 147.133 153.674 146.922 153.009 147.216C152.209 147.568 151.843 148.74 151.494 149.476C150.775 150.998 150.131 152.686 149.787 154.554C149.547 155.865 149.265 157.075 150.028 158.596C150.515 159.566 151.661 160.423 152.565 161.127C154.38 162.538 156.309 163.753 158.376 164.637C159.808 165.251 160.94 165.906 162.813 165.029C163.78 164.574 164.563 163.702 165.05 163.112C166.147 161.777 167.083 160.205 167.925 158.646C168.26 158.024 169.083 156.807 168.969 156.037Z" fill="white"/>
<path fill-rule="evenodd" clip-rule="evenodd" d="M136.042 158.564C135.901 158.673 135.772 158.421 135.658 158.373C135.051 158.119 134.389 158.784 133.712 159.351C129.79 162.627 126.392 166.062 122.912 169.552C121.341 171.126 119.996 172.48 118.338 174.18C118.022 174.506 117.68 174.937 117.314 175.386C116.949 175.838 116.527 176.287 116.588 176.686C116.647 177.058 117.054 177.455 117.378 177.754C118.046 178.372 118.523 178.789 119.278 179.406C119.552 179.629 120.017 179.986 120.32 179.933C120.771 179.854 121.269 179.254 121.624 178.873C122.694 177.728 123.776 176.519 124.815 175.423C127.699 172.38 130.619 169.387 133.864 166.467C134.639 165.772 135.489 165.129 136.381 164.341C136.728 164.033 137.142 163.62 137.579 163.238C138.216 162.679 138.899 162.303 138.454 161.353C139.615 159.785 141.483 157.9 142.745 156.146C142.956 155.851 143.277 155.523 143.213 155.17C142.981 153.914 141.597 154.817 140.898 155.253C139.182 156.33 137.465 157.525 136.042 158.564Z" fill="#889922"/>
<path fill-rule="evenodd" clip-rule="evenodd" d="M132.956 164.578C132.716 163.449 130.857 164.537 130.018 165.052C128.523 165.972 127.285 167.093 126.22 168.185C125.054 169.382 124.259 170.413 123.578 171.8C123.352 172.26 123.044 172.876 123.31 173.26C123.427 173.426 123.626 173.528 124.118 173.318C124.958 172.96 125.583 172.144 126.093 171.677C127.909 170.016 129.573 168.905 131.266 167.235C131.923 166.588 132.909 165.598 133 164.691C133.004 164.66 132.962 164.612 132.956 164.578Z" fill="#4D3D87"/>
<path d="M133.712 159.351C133.5 159.529 133.291 159.709 133.082 159.889C133.658 160.562 134.253 161.218 134.845 161.885C135.475 162.59 136.055 163.345 136.684 164.061C136.961 163.804 137.264 163.513 137.579 163.237C137.602 163.218 137.622 163.199 137.645 163.181C136.39 161.842 135.123 160.537 133.858 159.226C133.81 159.267 133.762 159.309 133.712 159.351Z" fill="#4D3D87"/>
<path d="M118.978 173.525C118.77 173.737 118.558 173.956 118.338 174.181C118.306 174.214 118.272 174.253 118.238 174.287C119.55 175.598 120.787 177.087 122.126 178.329C122.361 178.077 122.595 177.823 122.83 177.568C121.574 176.153 120.289 174.807 118.978 173.525Z" fill="#4D3D87"/>
<path fill-rule="evenodd" clip-rule="evenodd" d="M113.238 162.991C113.066 163.033 113.185 163.289 113.151 163.408C112.975 164.043 112.045 164.15 111.179 164.332C106.177 165.385 101.377 165.93 96.4818 166.503C94.2738 166.763 92.3771 166.982 90.0162 167.231C89.565 167.279 89.0142 167.282 88.4345 167.288C87.8547 167.296 87.2398 167.351 86.9649 167.054C86.7111 166.779 86.6486 166.214 86.6149 165.776C86.5428 164.867 86.509 164.234 86.493 163.259C86.4883 162.904 86.4963 162.32 86.7258 162.114C87.0648 161.809 87.845 161.79 88.3623 161.746C89.925 161.617 91.5438 161.515 93.0468 161.375C97.2239 160.992 101.382 160.551 105.684 159.81C106.708 159.633 107.739 159.36 108.912 159.15C109.37 159.066 109.949 158.997 110.519 158.891C111.353 158.736 112.072 158.432 112.541 159.37C114.492 159.428 117.129 159.127 119.288 159.222C119.651 159.238 120.106 159.19 120.344 159.46C121.187 160.419 119.62 160.947 118.844 161.225C116.936 161.905 114.937 162.515 113.238 162.991Z" fill="#EFAD1B"/>
<path fill-rule="evenodd" clip-rule="evenodd" d="M106.604 161.692C107.344 162.578 105.339 163.368 104.413 163.706C102.768 164.31 101.12 164.592 99.6037 164.749C97.9415 164.926 96.6393 164.912 95.128 164.589C94.6287 164.481 93.9523 164.341 93.8177 163.895C93.7583 163.701 93.8017 163.482 94.2706 163.225C95.0719 162.789 96.0999 162.802 96.7839 162.689C99.2106 162.291 101.115 161.672 103.474 161.376C104.386 161.26 105.776 161.098 106.545 161.586C106.57 161.603 106.585 161.668 106.604 161.692Z" fill="#4D3D87"/>
<path d="M111.18 164.332C110.908 164.389 110.639 164.441 110.365 164.495C110.195 163.625 110.046 162.753 109.89 161.875C109.726 160.943 109.49 160.02 109.318 159.083C109.691 159.026 110.107 158.968 110.52 158.891C110.55 158.884 110.577 158.879 110.605 158.873C110.879 160.686 111.121 162.49 111.368 164.295C111.305 164.306 111.242 164.32 111.18 164.332Z" fill="#4D3D87"/>
<path d="M90.9274 167.134C90.6305 167.166 90.3269 167.198 90.0153 167.23C89.9689 167.235 89.9175 167.238 89.8691 167.243C89.6523 165.401 89.2475 163.507 89.1016 161.686C89.4452 161.661 89.7889 161.635 90.1342 161.607C90.4682 163.469 90.7301 165.311 90.9274 167.134Z" fill="#4D3D87"/>
<path fill-rule="evenodd" clip-rule="evenodd" d="M22.4502 309.067C24.085 307.477 27.1907 306.16 29.1759 305.155C33.8477 302.786 37.5396 300.425 42.4425 298.609C44.4547 297.866 47.164 297.304 48.6429 298.397C49.5744 299.086 50.4511 300.602 51.1274 301.871C52.6644 304.747 54.7277 309.539 55.9194 312.131C58.1404 316.957 60.2602 321.087 62.4668 325.907C64.439 330.22 66.3838 334.802 68.5837 339.623C69.5553 341.753 70.6508 344.195 71.46 346.491C72.2212 348.65 73.315 351.532 72.4252 353.016C71.807 354.045 70.3038 354.842 69.1749 355.46C67.8196 356.202 66.7629 356.53 65.7622 357.01C63.1592 358.258 61.3957 359.231 58.9146 360.252C56.9634 361.052 54.6219 361.939 52.1681 362.782C49.9614 363.541 47.3373 364.423 45.481 363.361C43.8011 362.402 42.1826 359.285 41.1209 357.227C37.8031 350.798 35.4054 344.342 32.2706 337.679C29.9581 332.768 28.0551 328.67 26.1327 324.613C25.1998 322.651 24.1381 320.465 23.1328 318.093C21.7147 314.744 19.6126 311.602 22.2865 309.19C22.3379 309.144 22.4021 309.114 22.4502 309.067Z" fill="#8F7ECE"/>
<path fill-rule="evenodd" clip-rule="evenodd" d="M23.873 309.777C23.8954 309.753 23.8937 309.634 23.9742 309.573C27.5973 306.849 30.708 305.855 34.824 303.703C38.4197 301.823 43.4609 298.15 46.6117 299.926C48.309 300.883 49.7962 303.74 50.9107 305.977C54.2993 312.801 57.0357 318.322 60.2282 325.3C63.0066 331.371 66.281 338.201 69.1813 344.643C70.3329 347.2 71.0957 348.975 69.6165 350.804C68.9806 351.588 67.8307 351.973 66.8334 352.514C62.1152 355.079 57.6682 356.898 52.6307 359.508C50.6075 360.557 48.5037 361.644 46.9604 361.104C45.2276 360.494 43.5076 357.706 42.3801 355.517C40.0035 350.915 38.8228 347.687 36.4028 342.84C32.0717 334.157 27.5879 325.837 24.0256 317.42C22.8003 314.516 21.6537 311.984 23.711 309.899C23.7588 309.851 23.8263 309.825 23.873 309.777Z" fill="white"/>
<path opacity="0.26" d="M46.9605 361.104C48.5038 361.644 50.6076 360.556 52.6309 359.508C57.6687 356.898 62.1153 355.079 66.8335 352.514C67.8308 351.973 68.9807 351.588 69.6166 350.804C71.017 349.074 70.4068 347.391 69.3615 345.045C62.4847 348.239 51.6239 353.065 43.1641 356.945C44.2305 358.779 45.5905 360.622 46.9605 361.104Z" fill="#8F7ECE"/>
<path opacity="0.26" d="M46.6115 299.926C43.4607 298.15 38.4195 301.823 34.8238 303.703C30.7078 305.855 27.5971 306.849 23.974 309.573C23.8939 309.634 23.8952 309.753 23.8728 309.777C23.8261 309.825 23.7589 309.851 23.7105 309.899C22.421 311.205 22.3906 312.689 22.8498 314.328C31.4319 310.039 39.9482 306.239 48.5479 301.842C47.9444 301.007 47.2971 300.31 46.6115 299.926Z" fill="#8F7ECE"/>
<path fill-rule="evenodd" clip-rule="evenodd" d="M38.1597 304.755C38.1774 305.828 32.9275 308.486 31.8611 308.22C31.3344 308.09 31.3294 307.437 31.5752 307.165C32.5902 306.039 38.142 303.574 38.1597 304.755Z" fill="white"/>
<path fill-rule="evenodd" clip-rule="evenodd" d="M41.7966 349.626C49.6112 344.979 57.0657 342.051 64.5817 338.836C64.8275 339.218 64.9397 339.575 65.1067 339.941C57.5219 343.498 49.9789 346.851 42.3089 350.808C42.1002 350.46 41.9603 350.124 41.7645 349.779C41.684 349.726 41.7261 349.519 41.7966 349.626Z" fill="#889922"/>
<path fill-rule="evenodd" clip-rule="evenodd" d="M42.8066 351.668C50.4622 347.59 57.9812 344.157 65.4825 340.816C65.5901 341.102 65.7039 341.392 65.8599 341.69C58.373 345.212 50.8253 349.031 43.3016 352.728C43.0702 352.36 42.8985 352.005 42.8066 351.668Z" fill="#889922"/>
<path fill-rule="evenodd" clip-rule="evenodd" d="M43.8606 353.678C51.3522 349.862 58.9176 345.83 66.3421 342.626C66.4529 342.955 66.6567 343.302 66.7321 343.623C59.1811 347.775 51.9383 350.449 44.3261 354.889C44.1094 354.539 44.0032 354.213 43.8602 353.876C43.8074 353.798 43.8171 353.736 43.8606 353.678Z" fill="#889922"/>
<path fill-rule="evenodd" clip-rule="evenodd" d="M25.3616 316.321C26.7813 315.242 29.2271 314.291 31.3148 313.243C35.328 311.227 38.8031 309.258 43.0574 307.209C44.379 306.572 47.7178 304.815 48.7087 305.25C49.4522 305.574 50.0721 307.323 50.4802 308.113C51.6638 310.411 52.5228 312.164 53.6597 314.372C54.1881 315.396 54.8273 316.419 54.681 317.418C53.1107 318.77 50.912 319.36 48.829 320.294C44.419 322.275 40.9262 324.192 36.9435 326.308C35.5157 327.067 32.2957 329.337 31.0914 328.674C30.3446 328.265 29.7344 326.705 29.2575 325.729C28.2201 323.603 27.276 321.749 26.4036 319.737C25.9637 318.72 25.5476 317.518 25.3021 316.747C25.257 316.597 25.2797 316.454 25.3616 316.321Z" fill="#FF5000"/>
<path d="M32.3341 323.676C32.8367 323.103 33.7441 322.716 33.6864 322.091C33.6075 321.206 32.6343 320.781 32.116 320.208C30.9918 318.966 30.958 316.911 32.2943 316.133C33.6897 315.318 35.4515 316.521 35.7935 318.211C35.9718 319.08 35.6826 320.107 36.2657 320.771C36.6111 321.16 37.2099 321.03 37.8154 320.933C38.3324 320.848 38.7516 320.836 39.1179 320.945C39.4102 319.822 39.3284 318.599 38.795 317.468C37.5873 314.91 34.536 313.815 31.9764 315.021C29.4214 316.227 28.3246 319.281 29.5319 321.838C30.0556 322.949 30.929 323.784 31.9587 324.274C32.0371 324.072 32.1621 323.874 32.3341 323.676Z" fill="white"/>
<path d="M36.3488 324.285C37.7766 323.612 38.7465 322.361 39.1175 320.945C38.7515 320.836 38.3323 320.849 37.815 320.934C37.2095 321.03 36.6106 321.16 36.2653 320.771C35.6825 320.106 35.9714 319.08 35.793 318.212C35.451 316.521 33.6893 315.318 32.2939 316.134C30.9576 316.911 30.9914 318.967 32.1155 320.208C32.6342 320.781 33.6075 321.207 33.6859 322.092C33.7437 322.716 32.8363 323.103 32.3336 323.677C32.162 323.874 32.0367 324.072 31.9579 324.274C33.2992 324.911 34.9033 324.968 36.3488 324.285Z" fill="#8F7ECE"/>
<path fill-rule="evenodd" clip-rule="evenodd" d="M51.3703 313.353C50.9688 312.646 50.2123 311.16 50.1432 311.035C48.0989 311.996 40.6921 315.856 40.6921 315.856C40.5588 315.66 41.2736 317.384 41.6653 318.022C41.6657 318.023 43.7998 317.017 51.3703 313.353Z" fill="white"/>
<path fill-rule="evenodd" clip-rule="evenodd" d="M48.6277 307.384C41.1585 311.233 46.2621 308.407 38.8105 312.333C38.8105 312.333 39.5122 313.803 39.9234 314.443C39.9234 314.443 42.2329 313.17 49.7018 309.534C49.3344 308.823 48.9794 308.103 48.6277 307.384Z" fill="white"/>
<g opacity="0.58">
<g opacity="0.58">
<path opacity="0.58" d="M58.9495 334.517L58.739 334.614C58.5687 334.695 58.397 334.777 58.225 334.859C56.5999 332.137 55.1063 329.332 53.7877 326.517C53.738 326.411 53.6899 326.304 53.6414 326.198L53.5563 326.011L53.6398 325.811C53.6799 325.714 53.6688 325.615 53.6077 325.539C53.5369 325.45 53.4167 325.395 53.2851 325.42C52.9848 324.755 52.6939 324.099 52.4244 323.469C52.373 323.352 52.2621 323.285 52.1288 323.293C52.023 323.301 51.9218 323.358 51.864 323.444C51.8109 323.525 51.8029 323.62 51.8416 323.712C52.1532 324.441 52.4889 325.199 52.8693 326.028L46.937 340.186L45.9334 340.659C45.7951 340.725 45.7294 340.866 45.7694 341.008C45.8225 341.189 46.0182 341.287 46.2029 341.199L46.2864 341.16C46.386 341.112 46.4872 341.064 46.5884 341.016L46.2864 341.737C46.2464 341.833 46.2557 341.933 46.3185 342.009C46.3843 342.093 46.4999 342.143 46.6157 342.135C46.7346 342.125 46.8342 342.054 46.8809 341.945L47.4367 340.617L56.642 336.273C57.0835 336.063 57.5237 335.854 57.9652 335.645C58.2541 336.12 58.545 336.594 58.8402 337.066C58.906 337.167 59.0216 337.223 59.1485 337.214C59.2641 337.206 59.3733 337.142 59.423 337.053C59.4681 336.973 59.4631 336.88 59.4087 336.795C59.1114 336.324 58.8242 335.85 58.535 335.377C58.7631 335.269 58.9912 335.161 59.216 335.055C59.3556 334.989 59.4217 334.85 59.3813 334.708C59.3285 334.525 59.1311 334.428 58.9495 334.517ZM55.5468 334.958C55.5164 335.035 55.5164 335.122 55.5515 335.196C55.5612 335.217 55.5742 335.235 55.5869 335.247C55.5902 335.265 55.5949 335.284 55.6046 335.303L55.9145 335.949L47.7854 339.785L52.1439 329.386C52.4234 328.713 52.706 328.038 52.9868 327.367L53.226 326.798C54.4143 329.331 55.7168 331.815 57.0995 334.187L57.1202 334.226L55.7135 334.797C55.6367 334.826 55.5789 334.884 55.5468 334.958ZM57.6569 335.127L56.486 335.677L56.2646 335.222C56.6547 335.064 57.0451 334.905 57.4305 334.748C57.506 334.875 57.5815 335 57.6569 335.127Z" fill="#8F7ECE"/>
<path opacity="0.58" d="M60.3572 328.47C60.1067 328.248 59.8529 328.007 59.5577 327.71C59.5834 327.615 59.5593 327.513 59.4919 327.445C59.4197 327.367 59.3055 327.33 59.2013 327.349C58.8994 327.028 58.6135 326.702 58.35 326.376C58.2231 326.22 57.9726 326.239 57.849 326.4C57.8022 326.466 57.7815 326.541 57.7942 326.615C57.7815 326.651 57.7749 326.686 57.7782 326.723C57.8006 327.221 57.8634 327.73 57.9629 328.236C57.8954 328.285 57.8553 328.361 57.8473 328.446C57.841 328.527 57.868 328.605 57.9245 328.661C57.9629 328.703 58.0177 328.732 58.0738 328.748C58.199 329.256 58.3613 329.757 58.5554 330.238C58.6051 330.357 58.7177 330.426 58.8476 330.418C58.9535 330.41 59.0547 330.351 59.1125 330.267C59.1672 330.187 59.1766 330.091 59.1398 329.999C58.9408 329.506 58.7785 328.994 58.6579 328.472L59.1028 328.133C59.3823 328.412 59.6392 328.655 59.8866 328.873C60.0119 328.986 60.1982 329.002 60.3252 328.901C60.3926 328.847 60.4377 328.759 60.439 328.671C60.4424 328.59 60.4137 328.518 60.3572 328.47ZM58.4816 327.484C58.5457 327.553 58.6098 327.623 58.6743 327.693C58.6262 327.731 58.5781 327.768 58.528 327.805C58.5106 327.699 58.4946 327.591 58.4816 327.484Z" fill="#8F7ECE"/>
<path opacity="0.58" d="M55.1711 339.585C55.1504 339.363 55.0585 339.151 54.9092 338.991C54.6267 338.687 54.1447 338.583 53.7159 338.742C53.4895 338.825 53.2951 338.98 53.1842 339.167C53.1167 339.28 53.1217 339.411 53.1956 339.506C53.1972 339.565 53.2179 339.627 53.255 339.681L54.5816 341.586C54.6394 341.663 54.7406 341.706 54.8548 341.697C54.8885 341.695 54.9222 341.687 54.9543 341.674C55.0121 341.716 55.0826 341.735 55.158 341.73C55.2208 341.726 55.2833 341.705 55.3394 341.669C55.8213 341.366 56.0909 340.942 56.0782 340.503C56.0675 340.046 55.7221 339.585 55.1711 339.585ZM54.105 339.159L54.1371 339.262C54.1548 339.262 54.1708 339.264 54.2142 339.269C54.2142 339.269 54.2239 339.269 54.2319 339.27C54.2606 339.28 54.288 339.288 54.3057 339.293C54.3091 339.296 54.3281 339.307 54.3331 339.31L54.3571 339.323C54.3652 339.329 54.3748 339.336 54.3829 339.344C54.3829 339.344 54.3892 339.347 54.3942 339.35C54.4136 339.371 54.4343 339.392 54.4634 339.429C54.465 339.431 54.465 339.433 54.4667 339.434C54.4684 339.436 54.4684 339.437 54.47 339.439L54.4861 339.467C54.4958 339.487 54.5054 339.506 54.5198 339.541C54.5198 339.544 54.5215 339.549 54.5245 339.552C54.5261 339.559 54.5278 339.567 54.5308 339.576C54.5355 339.604 54.5388 339.631 54.5405 339.658C54.5405 339.666 54.5405 339.674 54.5422 339.684C54.5422 339.686 54.5422 339.687 54.5422 339.687L54.5342 339.751C54.5308 339.764 54.5308 339.777 54.5295 339.785C54.5198 339.814 54.5071 339.84 54.4894 339.88C54.4734 339.899 54.459 339.918 54.446 339.94C54.3545 340.081 54.3882 340.257 54.5248 340.347C54.6614 340.44 54.8878 340.4 54.973 340.268C54.9794 340.259 54.9857 340.249 54.9937 340.24C55.0017 340.233 55.0131 340.222 55.0275 340.212L55.0722 340.191C55.0786 340.19 55.0852 340.19 55.0916 340.188C55.1059 340.185 55.122 340.182 55.143 340.178C55.159 340.18 55.1717 340.182 55.1881 340.18C55.1991 340.183 55.2121 340.185 55.2218 340.185C55.2395 340.191 55.2572 340.197 55.2796 340.206L55.307 340.222C55.3133 340.228 55.3197 340.23 55.3264 340.234C55.3314 340.239 55.3361 340.246 55.3407 340.252L55.3601 340.271C55.3681 340.278 55.3745 340.288 55.3808 340.297C55.3888 340.31 55.3938 340.323 55.4032 340.339C55.4129 340.36 55.4209 340.377 55.4242 340.39L55.4339 340.424C55.4386 340.448 55.4419 340.471 55.4419 340.471C55.4419 340.471 55.4466 340.52 55.4466 340.524C55.4466 340.544 55.4449 340.567 55.4433 340.586C55.4352 340.662 55.4095 340.734 55.3711 340.803C55.302 340.922 55.1961 341.031 55.0371 341.142C54.6277 340.554 54.2165 339.966 53.8071 339.378C53.8214 339.366 53.8391 339.353 53.8552 339.341C53.8585 339.34 53.8632 339.337 53.8679 339.333C53.8806 339.325 53.8952 339.319 53.9066 339.312C53.9353 339.301 53.9627 339.29 53.9918 339.28C54.0045 339.279 54.0175 339.274 54.0495 339.267L54.0479 339.259C54.0672 339.266 54.0846 339.264 54.112 339.261L54.105 339.159Z" fill="#8F7ECE"/>
</g>
<g opacity="0.58">
<path opacity="0.58" d="M39.4203 338.708C38.3539 336.5 37.1593 333.834 35.7686 330.565C36.3627 330.279 37.0003 329.975 37.6442 329.669C38.5339 329.247 39.4364 328.818 40.2637 328.416C40.3889 328.357 40.5352 328.302 40.6908 328.245C41.1243 328.086 41.5725 327.922 41.6013 327.577C41.6029 327.559 41.5979 327.54 41.5902 327.523C41.5275 327.406 41.4216 327.347 41.293 327.356C41.1758 327.365 41.0619 327.427 40.959 327.482C40.9156 327.504 40.8772 327.527 40.8418 327.54C39.8525 327.896 39.0914 328.227 38.5807 328.521C38.1569 328.767 37.6572 328.996 37.1756 329.218C36.4098 329.568 35.6196 329.931 35.0959 330.372C35.0622 330.4 35.0508 330.443 35.0639 330.482C35.6099 331.972 36.347 333.547 37.0584 335.072C37.5257 336.073 38.0059 337.101 38.4331 338.105C38.2901 337.943 38.1442 337.779 37.9996 337.619C37.8132 337.413 37.6268 337.204 37.4472 336.995C37.3653 336.9 37.2835 336.799 37.2014 336.695C36.827 336.228 36.4015 335.698 35.7575 335.712C35.7111 335.714 35.6644 335.746 35.6547 335.792C35.5455 336.261 35.4362 336.932 35.7525 337.374C35.7799 337.414 35.8313 337.427 35.8808 337.413C36.2725 337.278 36.2291 336.968 36.1971 336.743C36.1857 336.658 36.173 336.576 36.181 336.505C36.6884 337.03 37.1927 337.644 37.6826 338.238C38.0039 338.631 38.3379 339.038 38.6605 339.402C38.6976 339.444 38.736 339.487 38.7744 339.534C39.0105 339.816 39.3091 340.168 39.7346 340.149H39.738C39.7831 340.145 39.8231 340.117 39.8358 340.073C39.9611 339.675 39.7493 339.302 39.563 338.973C39.5119 338.885 39.4634 338.795 39.4203 338.708Z" fill="#8F7ECE"/>
<path opacity="0.58" d="M39.0862 330.772C39.0719 330.727 39.0285 330.698 38.9804 330.698L38.937 330.702C38.5145 330.732 38.4727 331.073 38.444 331.323C38.4296 331.448 38.4149 331.567 38.3652 331.654C38.3348 331.631 38.3024 331.607 38.272 331.583C38.0953 331.451 37.8963 331.302 37.6264 331.323C37.5332 331.329 37.437 331.355 37.3375 331.403C37.2861 331.427 37.262 331.486 37.2877 331.535C37.437 331.857 37.6845 331.955 37.9029 332.042C38.0345 332.097 38.1614 332.146 38.2643 332.243C38.258 332.371 38.2242 332.513 38.1872 332.66C38.1053 332.994 38.0152 333.372 38.2546 333.682C38.2773 333.712 38.3141 333.727 38.3511 333.723C38.3655 333.722 38.3815 333.719 38.3962 333.711C38.7656 333.513 38.7753 333.189 38.7816 332.903C38.7867 332.75 38.7913 332.606 38.8461 332.487C38.9005 332.517 38.9553 332.553 39.0114 332.59C39.1784 332.697 39.3665 332.821 39.6153 332.803C39.7131 332.795 39.8113 332.766 39.9122 332.718C39.9556 332.697 39.978 332.654 39.97 332.609C39.9088 332.275 39.6036 332.172 39.3324 332.082C39.1831 332.032 39.0418 331.984 38.9373 331.906C38.9567 331.814 38.987 331.727 39.0174 331.637C39.1026 331.379 39.1908 331.111 39.0862 330.772Z" fill="#8F7ECE"/>
<path opacity="0.58" d="M45.4945 333.179C45.2663 333.111 45.1538 333.196 45.0576 333.283C45.0222 333.318 44.9855 333.352 44.9324 333.386C44.6642 333.204 44.2661 332.665 44.1358 332.214C44.089 332.056 44.0797 331.923 44.1068 331.82C44.1869 331.85 44.2945 331.88 44.4037 331.872C44.5369 331.862 44.6415 331.794 44.6976 331.685C44.7153 331.651 44.7119 331.613 44.6909 331.582C44.4548 331.258 44.2059 331.202 44.0406 331.215C43.88 331.226 43.729 331.306 43.6101 331.436C43.4592 331.603 43.382 331.835 43.4014 332.058C43.4785 332.892 44.3616 333.852 44.8773 334.012C44.8916 334.017 44.9063 334.019 44.9207 334.017C44.932 334.015 44.9447 334.014 44.9544 334.009C45.2146 333.906 45.5085 333.788 45.5937 333.571C45.6354 333.466 45.624 333.35 45.5582 333.229C45.5459 333.204 45.5235 333.185 45.4945 333.179Z" fill="#8F7ECE"/>
<path opacity="0.58" d="M41.4692 333.394C41.4852 333.436 41.5317 333.463 41.5801 333.46C41.5834 333.458 41.5864 333.458 41.5864 333.458C42.0697 333.381 42.7393 332.983 42.9434 332.652C42.9658 332.615 42.9628 332.569 42.9354 332.537C42.8776 332.471 42.7651 332.399 42.558 332.413C42.2143 332.439 41.7534 332.705 41.551 332.996C41.4532 333.137 41.4258 333.275 41.4692 333.394Z" fill="#8F7ECE"/>
<path opacity="0.58" d="M38.4962 335.166C38.7644 335.146 39.0904 334.984 39.4053 334.828C39.5306 334.766 39.6542 334.705 39.7714 334.653C39.887 334.603 40.0122 334.557 40.1391 334.509C40.6481 334.316 41.1735 334.119 41.1444 333.715C41.1411 333.672 41.1073 333.634 41.0609 333.624C40.6979 333.547 40.1825 333.789 39.6492 334.054C39.4695 334.146 39.2861 334.236 39.1064 334.315C39.0293 334.348 38.9378 334.382 38.8463 334.414C38.4912 334.539 38.0881 334.682 38.1188 335.02C38.1222 335.05 38.1382 335.077 38.1669 335.095C38.2554 335.151 38.3647 335.175 38.4962 335.166Z" fill="#8F7ECE"/>
<path opacity="0.58" d="M43.0736 333.063C42.7139 333.089 42.1004 333.439 41.9672 333.762C41.9174 333.879 41.9351 333.989 42.0169 334.069C42.041 334.093 42.0714 334.102 42.1038 334.101C42.1101 334.101 42.1181 334.099 42.1231 334.097C42.4925 334.004 43.3258 333.659 43.3949 333.23C43.4013 333.196 43.3886 333.163 43.3629 333.139C43.2934 333.081 43.1972 333.054 43.0736 333.063Z" fill="#8F7ECE"/>
<path opacity="0.58" d="M41.4184 336.582C41.2881 336.503 41.1662 336.431 41.0587 336.324C41.041 336.184 41.049 336.033 41.0604 335.874C41.0781 335.558 41.0974 335.229 40.8967 334.968C40.868 334.931 40.8179 334.911 40.7731 334.933C40.3573 335.073 40.3974 335.396 40.4261 335.63C40.4392 335.725 40.4502 335.816 40.4392 335.894C40.3587 335.849 40.2802 335.776 40.2 335.701C40.0441 335.555 39.869 335.388 39.6075 335.407C39.5561 335.41 39.5013 335.421 39.4469 335.441C39.3971 335.457 39.3681 335.504 39.3764 335.553C39.4392 335.964 39.7732 336.173 40.0684 336.358C40.2177 336.453 40.3607 336.543 40.4682 336.653C40.4889 336.767 40.4859 336.894 40.4826 337.029C40.4779 337.31 40.4712 337.628 40.7043 337.854C40.7267 337.877 40.7574 337.888 40.7895 337.885C40.7959 337.885 40.8022 337.883 40.8089 337.883C41.2234 337.78 41.1703 337.482 41.1365 337.286C41.1222 337.209 41.1125 337.148 41.1141 337.098C41.2845 337.26 41.4915 337.451 41.7243 337.434C41.8335 337.426 41.9301 337.376 42.0166 337.283C42.0456 337.252 42.052 337.207 42.0343 337.17C41.8696 336.852 41.6418 336.714 41.4184 336.582Z" fill="#8F7ECE"/>
</g>
</g>
<path fill-rule="evenodd" clip-rule="evenodd" d="M55.6577 363.9C54.8338 364.339 55.2997 365.167 55.4507 365.663C55.6561 366.343 56.0047 367.074 56.2101 367.64C56.6677 368.896 56.835 370.219 56.8511 371.49C56.8814 373.878 56.461 376.438 55.5822 378.89C53.893 383.613 49.8701 388.381 51.1436 393.416C51.8934 396.38 54.2239 398.709 56.7355 399.934C59.0433 401.06 61.4393 401.431 64.0795 401.244C66.6475 401.063 69.3374 400.568 71.8713 399.18C74.7025 397.632 77.0601 395.142 78.536 392.763C81.2773 388.344 81.8618 383.113 80.9193 377.995C80.4263 375.331 79.6345 372.684 77.9739 370.099C74.4874 364.674 69.0418 360.197 64.6239 357.356C59.912 354.325 55.3177 352.411 50.4309 350.073C47.2577 348.554 43.32 346.367 41.8745 342.165C41.5582 341.242 41.2319 339.956 41.4681 339.286C41.7877 338.383 42.9646 337.251 44.19 336.427C45.9775 335.223 48.0442 334.893 49.9409 334.818C55.4654 334.601 61.0218 335.896 66.3937 335.96C73.3282 336.04 80.3362 335.526 87.9066 329.549C88.2823 329.253 88.9426 328.971 88.8959 328.324C88.4557 327.898 87.8648 328.253 87.4891 328.457C86.9671 328.743 86.426 329.146 85.9795 329.474C79.034 334.529 72.6068 334.849 66.0964 334.682C60.7423 334.545 55.2499 333.32 49.6888 333.598C47.0566 333.728 44.1546 334.672 41.8645 337.197C42.8023 333.484 47.6217 331.441 50.6747 330.685C54.1241 329.827 57.5785 329.514 60.76 329.387C64.2191 329.247 67.3058 329.368 70.7294 329.069C72.2888 328.934 74.0616 328.685 75.8124 328.078C77.8293 327.379 80.7537 325.976 81.963 323.935C82.1477 323.622 82.4753 323.154 82.1991 322.771C79.3035 326.092 75.8701 327.078 72.7337 327.667C69.5652 328.26 66.392 327.961 63.4065 328.009C60.4003 328.055 57.2124 328.105 54.0439 328.647C50.8176 329.196 47.4147 329.753 44.2174 331.961C41.8391 333.604 40.6137 335.727 40.1608 337.742C39.6953 339.799 40.0243 341.996 41.102 344.11C43.633 349.083 48.3592 350.834 52.1669 352.613C59.7631 356.157 68.3338 360.027 75.2472 368.785C78.0577 372.345 79.1946 375.846 79.6682 379.337C80.1388 382.811 79.7888 386.191 78.6566 389.201C77.4312 392.463 74.8361 395.856 71.1279 397.902C67.7957 399.738 64.1246 400.242 60.9173 399.827C58.0587 399.463 53.6201 397.426 52.56 393.184C51.7007 389.741 53.6198 386.588 55.1407 383.505C57.32 379.082 59.0687 373.808 57.9575 368.838C57.678 367.584 57.3153 366.301 56.5782 364.952C56.3741 364.583 56.2182 363.963 55.6577 363.9Z" fill="#4D3D87"/>
<path fill-rule="evenodd" clip-rule="evenodd" d="M54.0765 365.101C54.494 365.889 55.4689 366.191 56.2591 365.776C57.0459 365.36 57.3479 364.383 56.9321 363.595L55.9989 361.827C55.5831 361.04 54.6065 360.738 53.818 361.154C53.0278 361.569 52.7292 362.546 53.1433 363.334L54.0765 365.101Z" fill="#4D3D87"/>
<path fill-rule="evenodd" clip-rule="evenodd" d="M86.1361 321.03C84.7341 322.234 83.3353 323.44 81.8949 324.635C81.4981 324.272 81.0983 323.93 80.7129 323.525C82.2432 321.961 85.025 318.747 87.9413 317.503C89.1199 316.999 90.8977 316.906 91.3042 318.597C91.6753 320.152 89.4332 322.459 87.5993 321.985C87.0162 321.836 86.6595 321.438 86.1361 321.03Z" fill="#4D3D87"/>
<path fill-rule="evenodd" clip-rule="evenodd" d="M87.0621 320.3C87.184 319.883 88.4047 318.723 88.8095 319.226C89.0793 319.56 88.5189 319.982 88.212 320.246C87.9775 320.446 87.544 321.018 87.1666 320.766C86.9609 320.631 87.027 320.416 87.0621 320.3Z" fill="white"/>
<path fill-rule="evenodd" clip-rule="evenodd" d="M90.5968 319.443C90.6626 319.904 90.0073 320.273 89.7201 319.979C89.365 319.615 90.4762 318.642 90.5968 319.443Z" fill="white"/>
<path fill-rule="evenodd" clip-rule="evenodd" d="M91.1109 325.729C89.5725 326.75 88.0322 327.771 86.4922 328.833C86.7363 329.315 86.9564 329.792 87.2406 330.272C89.1614 329.223 93.0092 327.417 94.9958 324.946C95.7987 323.946 96.3704 322.261 94.8528 321.414C93.4588 320.635 90.6292 322.165 90.5892 324.06C90.5745 324.663 90.859 325.114 91.1109 325.729Z" fill="#4D3D87"/>
<path fill-rule="evenodd" clip-rule="evenodd" d="M92.0619 325.037C92.4987 325.033 93.9456 324.17 93.5732 323.645C93.3243 323.295 92.7652 323.72 92.4283 323.944C92.1714 324.115 91.5031 324.377 91.6444 324.809C91.7182 325.044 91.9446 325.037 92.0619 325.037Z" fill="white"/>
<path fill-rule="evenodd" clip-rule="evenodd" d="M93.8449 321.865C93.4211 321.677 92.8877 322.209 93.0918 322.564C93.3456 323.005 94.5867 322.198 93.8449 321.865Z" fill="white"/>
<path fill-rule="evenodd" clip-rule="evenodd" d="M70.0732 465.863C75.6972 465.317 82.3298 467.26 87.0446 468.439C97.7178 471.105 107.812 473.556 118.111 476.471C123.067 477.873 128.214 479.442 133.265 480.864C143.615 483.784 152.894 486.021 163.724 489.503C168.372 490.996 173.59 492.384 178.573 494.201C182.748 495.721 188.106 497.802 190.394 501.778C190.914 502.682 191.735 504.489 191.91 505.87C192.368 509.49 190.987 513.511 190.09 516.781C187.378 526.697 183.659 535.978 180.696 545.574C177.484 555.977 175.279 565.015 172.815 575.881C171.211 582.959 170.468 591.346 161.147 590.275C159.756 590.117 158.564 589.69 157.207 589.367C154.357 588.688 151.251 588.67 148.722 588.155C143.262 587.043 137.774 585.561 132.961 584.367C122.07 581.662 112.272 579.073 102.049 576.335C86.6492 572.211 72.9795 566.893 57.1918 562.545C51.9532 561.101 44.4903 560.34 42.0382 556.939C41.5035 556.195 40.6251 554.422 40.2187 553.15C39.5136 550.941 40.2284 548.448 40.6749 545.726C42.6534 533.6 45.9969 521.112 49.0081 510.264C51.8958 499.863 55.3595 492.008 58.4045 482.077C59.3503 478.99 60.0907 475.652 61.4347 472.681C63.0649 469.08 66.5163 466.209 70.0732 465.863Z" fill="#FF5000"/>
<path fill-rule="evenodd" clip-rule="evenodd" d="M128.453 487.933C130.417 486.7 132.31 485.373 135.419 485.055C140.781 484.504 146.768 485.696 151.181 486.722C155.615 487.753 159.847 489.451 164.291 490.812C168.408 492.077 172.743 493.366 177.563 494.755C181.378 495.852 188.227 497.488 189.176 500.209C189.748 501.845 189.025 504.254 188.347 505.968C186.407 510.865 184.565 516.313 183.038 521.425C181.008 528.224 178.332 534.921 176.068 542.034C173.924 548.772 171.805 555.792 169.266 562.795C168.116 565.975 166.776 569.19 165.452 572.797C164.16 576.304 163.373 580.618 159.812 581.437C157.733 581.909 156.132 581.003 154.001 579.919C152.174 578.986 150.158 578.178 148.861 577.494C145.456 575.705 142.143 573.698 139.069 572.342C131.735 569.108 121.096 567.968 113.518 570.523C108.925 572.076 106.285 574.105 102.069 577.04C95.255 567.987 87.9802 562.224 76.5172 558.096C72.8059 556.76 68.7958 555.628 64.2399 555.369C58.7332 555.056 49.5746 557.139 46.9859 553.55C46.4188 552.768 45.9823 550.718 46.1556 548.701C46.4689 545.062 47.699 541.381 48.4778 537.792C49.2503 534.235 50.0773 530.649 50.9687 527.182C52.6406 520.662 55.1602 514.607 57.2736 507.18C60.1032 497.226 62.8959 487.107 65.8991 476.417C66.6185 473.863 68.1876 467.477 71.2098 467.477C73.5497 467.477 76.267 468.302 78.679 468.993C85.6119 470.974 91.7592 473.028 99.2495 474.751C106.298 476.37 113.449 478.039 119.325 480.965C123.1 482.839 126.452 484.456 128.453 487.933Z" fill="#C0B7E4"/>
<path fill-rule="evenodd" clip-rule="evenodd" d="M129.778 481.169C131.574 479.933 133.303 478.606 136.144 478.29C141.041 477.739 146.509 478.93 150.54 479.953C154.587 480.986 158.454 482.685 162.512 484.047C166.271 485.309 170.233 486.599 174.633 487.988C178.118 489.087 184.372 490.723 185.242 493.442C185.764 495.08 185.104 497.489 184.484 499.201C182.711 504.099 181.03 509.546 179.634 514.659C177.781 521.457 175.337 528.154 173.27 535.268C171.311 542.007 169.376 549.026 167.057 556.03C166.005 559.208 164.782 562.425 163.572 566.03C162.394 569.537 161.677 573.851 158.42 574.668C156.525 575.145 155.061 574.235 153.114 573.152C151.444 572.219 149.607 571.411 148.417 570.727C145.311 568.938 142.286 566.931 139.478 565.577C132.778 562.343 123.059 561.203 116.141 563.757C111.944 565.307 109.534 567.339 105.685 570.273C99.4585 561.22 92.8148 555.458 82.3471 551.333C78.9585 549.995 75.294 548.863 71.1329 548.604C66.1048 548.291 57.7378 550.372 55.3738 546.784C54.8552 546.001 54.4554 543.952 54.616 541.936C54.9019 538.295 56.0245 534.614 56.7375 531.025C57.4425 527.468 58.1974 523.882 59.0116 520.417C60.5389 513.895 62.8371 507.841 64.7688 500.413C67.3559 490.46 69.9062 480.339 72.6492 469.652C73.3045 467.097 74.7386 460.712 77.496 460.71C79.6335 460.71 82.118 461.537 84.3163 462.226C90.6499 464.207 96.2659 466.26 103.109 467.985C109.544 469.607 116.075 471.274 121.444 474.198C124.891 476.074 127.954 477.691 129.778 481.169Z" fill="#E2DFF2"/>
<path fill-rule="evenodd" clip-rule="evenodd" d="M165.69 550.87C165.3 551.395 164.701 550.944 164.341 550.815C163.111 550.379 161.891 549.603 160.641 549.065C158.914 548.322 157.09 547.713 155.25 547.041C151.725 545.757 148.044 544.374 144.265 543.248C137.49 541.226 130.095 539.892 123.126 538.006C122.27 537.774 121.244 537.618 120.621 536.924C120.751 536.274 121.416 536.351 121.948 536.344C122.94 536.33 124.084 536.657 125.237 536.876C128.274 537.448 131.395 538.304 134.142 539.001C138.182 540.027 142.114 541.061 145.937 541.98C152.03 543.441 157.887 544.801 162.243 547.607C162.922 548.045 163.603 548.585 164.255 549.087C164.818 549.526 165.775 550.012 165.69 550.87Z" fill="white"/>
<path fill-rule="evenodd" clip-rule="evenodd" d="M158.945 566.226C158.552 566.751 157.956 566.3 157.595 566.172C156.365 565.733 155.144 564.959 153.895 564.419C152.17 563.677 150.345 563.069 148.505 562.397C144.979 561.113 141.299 559.73 137.519 558.603C130.744 556.582 123.348 555.248 116.38 553.363C115.526 553.13 114.498 552.974 113.875 552.282C114.007 551.63 114.672 551.707 115.203 551.699C116.194 551.686 117.337 552.014 118.492 552.23C121.529 552.802 124.649 553.659 127.394 554.358C131.436 555.383 135.367 556.417 139.192 557.336C145.284 558.797 151.14 560.159 155.497 562.964C156.177 563.401 156.856 563.94 157.508 564.443C158.073 564.88 159.029 565.369 158.945 566.226Z" fill="white"/>
<path fill-rule="evenodd" clip-rule="evenodd" d="M160.729 562.452C160.339 562.979 159.739 562.528 159.38 562.397C158.15 561.962 156.929 561.186 155.678 560.647C153.953 559.904 152.131 559.296 150.289 558.625C146.764 557.339 143.085 555.957 139.304 554.83C132.529 552.81 125.134 551.475 118.165 549.59C117.309 549.357 116.282 549.201 115.66 548.508C115.79 547.857 116.455 547.934 116.988 547.926C117.979 547.913 119.121 548.241 120.277 548.459C123.313 549.029 126.435 549.888 129.181 550.585C133.221 551.61 137.153 552.644 140.978 553.562C147.069 555.024 152.926 556.384 157.282 559.19C157.961 559.628 158.642 560.168 159.294 560.672C159.857 561.108 160.814 561.594 160.729 562.452Z" fill="white"/>
<path fill-rule="evenodd" clip-rule="evenodd" d="M162.629 554.157C161.662 554.416 160.644 553.923 159.795 553.584C153.816 551.201 147.329 548.752 140.638 546.748C134.982 545.053 128.831 543.642 122.985 541.878C122.105 541.612 121.069 541.286 120.192 540.947C119.425 540.651 118.347 540.362 118.378 539.307C119.431 538.787 121.172 539.299 122.776 539.596C129.977 540.931 137.022 542.932 143.18 544.939C148.725 546.746 153.714 548.834 158.605 551.198C159.343 551.554 160.153 551.989 160.914 552.439C161.548 552.813 162.65 553.173 162.629 554.157Z" fill="white"/>
<path fill-rule="evenodd" clip-rule="evenodd" d="M162.629 558.619C161.662 558.877 160.644 558.384 159.795 558.045C153.816 555.662 147.329 553.213 140.638 551.209C134.982 549.513 128.831 548.103 122.985 546.34C122.105 546.075 121.069 545.749 120.192 545.408C119.425 545.113 118.347 544.824 118.378 543.769C119.431 543.248 121.172 543.759 122.776 544.058C129.977 545.392 137.022 547.393 143.18 549.401C148.725 551.207 153.714 553.295 158.605 555.659C159.343 556.015 160.153 556.449 160.914 556.9C161.548 557.275 162.65 557.634 162.629 558.619Z" fill="white"/>
<path fill-rule="evenodd" clip-rule="evenodd" d="M142.791 483.313C142.387 485.666 141.846 487.906 141.274 490.117C138.868 489.526 136.527 488.874 133.832 488.567C134.192 487.61 134.519 486.539 134.99 485.497C135.367 484.666 136 483.393 136.776 483.02C137.485 482.678 138.56 482.643 139.334 482.681C140.508 482.741 141.656 483.253 142.791 483.313Z" fill="#8F7ECE"/>
<path fill-rule="evenodd" clip-rule="evenodd" d="M144.433 483.633C146.736 484.16 148.716 485.007 150.865 485.69C150.115 487.778 149.328 489.84 148.728 492.055C146.696 491.69 144.984 491.009 143.006 490.588C143.534 488.314 144.005 485.99 144.433 483.633Z" fill="#8F7ECE"/>
<path fill-rule="evenodd" clip-rule="evenodd" d="M152.346 486.247C154.087 486.816 155.751 487.466 157.482 488.049C157.112 490.207 156.347 492.035 155.844 494.084C154.008 493.577 152.232 493.015 150.377 492.528C151.007 490.413 151.694 488.346 152.346 486.247Z" fill="#8F7ECE"/>
<path fill-rule="evenodd" clip-rule="evenodd" d="M165.321 490.898C164.823 492.85 164.311 494.79 163.85 496.772C161.752 496.04 159.6 495.362 157.5 494.635C158.041 492.669 158.608 490.726 159.053 488.68C161.206 489.356 163.22 490.169 165.321 490.898Z" fill="#8F7ECE"/>
<path fill-rule="evenodd" clip-rule="evenodd" d="M140.908 491.683C140.499 493.185 140.062 494.665 139.726 496.226C137.003 495.976 134.74 495.271 131.711 495.32C132.257 493.533 132.792 491.738 133.376 489.982C136.021 490.414 138.449 491.065 140.908 491.683Z" fill="#8F7ECE"/>
<path fill-rule="evenodd" clip-rule="evenodd" d="M148.195 493.626C147.742 495.118 147.26 496.586 146.748 498.027C145.009 497.508 143.224 497.029 141.371 496.623C141.794 495.157 142.189 493.667 142.556 492.155C144.54 492.546 146.268 493.183 148.195 493.626Z" fill="#8F7ECE"/>
<path fill-rule="evenodd" clip-rule="evenodd" d="M171.412 493.048C170.839 495.01 170.132 496.862 169.596 498.857C168.13 498.471 166.949 497.805 165.504 497.4C166.003 495.451 166.325 493.351 166.885 491.453C168.404 491.975 169.874 492.545 171.412 493.048Z" fill="#8F7ECE"/>
<path fill-rule="evenodd" clip-rule="evenodd" d="M149.843 494.1C151.815 494.498 153.541 495.137 155.395 495.651C154.977 497.196 154.465 498.662 154.131 500.275C152.173 499.783 150.471 499.038 148.484 498.572C148.8 496.97 149.499 495.681 149.843 494.1Z" fill="#8F7ECE"/>
<path fill-rule="evenodd" clip-rule="evenodd" d="M172.893 493.605C174.359 494.097 177.218 494.996 177.979 496.262C179.02 497.99 177.568 500.153 177.446 502.017C175.289 501.262 173.325 500.32 171.17 499.566C171.751 497.585 172.434 495.69 172.893 493.605Z" fill="#8F7ECE"/>
<path fill-rule="evenodd" clip-rule="evenodd" d="M139.189 497.798C138.904 499.725 138.266 501.363 137.871 503.199C135.215 502.828 132.478 502.537 129.686 502.301C130.158 500.377 130.651 498.473 131.34 496.729C134.176 496.87 136.564 497.45 139.189 497.798Z" fill="#8F7ECE"/>
<path fill-rule="evenodd" clip-rule="evenodd" d="M157.049 496.202C159.215 496.893 161.334 497.63 163.486 498.336C163.051 499.942 162.614 501.547 162.228 503.193C159.996 502.515 157.987 501.616 155.787 500.904C156.089 499.239 156.632 497.773 157.049 496.202Z" fill="#8F7ECE"/>
<path fill-rule="evenodd" clip-rule="evenodd" d="M146.298 499.594C145.741 501.247 145.28 502.981 144.707 504.621C143.069 504.189 141.342 503.844 139.6 503.516C140.049 501.724 140.501 499.933 141.008 498.188C142.831 498.599 144.629 499.034 146.298 499.594Z" fill="#8F7ECE"/>
<path fill-rule="evenodd" clip-rule="evenodd" d="M165.054 498.969C166.48 499.367 167.682 499.984 169.059 500.429C168.6 502.063 168.072 503.641 167.545 505.219C166.289 504.813 165.115 504.331 163.887 503.899C164.149 502.149 164.78 500.706 165.054 498.969Z" fill="#8F7ECE"/>
<path fill-rule="evenodd" clip-rule="evenodd" d="M153.595 501.849C153.214 503.522 152.685 505.073 152.256 506.708C150.287 506.172 148.402 505.553 146.438 505.014C146.93 503.356 147.467 501.734 147.947 500.067C149.887 500.604 151.721 501.246 153.595 501.849Z" fill="#8F7ECE"/>
<path fill-rule="evenodd" clip-rule="evenodd" d="M170.635 501.139C172.874 501.837 174.803 502.843 176.996 503.586C176.511 505.198 175.981 506.774 175.569 508.449C173.504 507.525 171.388 506.652 169.201 505.847C169.644 504.251 170.26 502.795 170.635 501.139Z" fill="#8F7ECE"/>
<path fill-rule="evenodd" clip-rule="evenodd" d="M161.697 504.844C161.353 506.448 160.847 507.921 160.432 509.467C158.363 508.625 156.187 507.891 153.908 507.259C154.355 505.664 154.832 504.095 155.252 502.477C157.494 503.174 159.637 503.967 161.697 504.844Z" fill="#8F7ECE"/>
<path fill-rule="evenodd" clip-rule="evenodd" d="M137.335 504.772C136.845 506.929 136.22 508.974 135.624 511.041C133.063 510.604 130.511 510.158 127.689 509.978C128.125 507.95 128.669 506.013 129.156 504.028C129.148 503.895 129.212 503.826 129.318 503.789C132.154 503.956 134.71 504.398 137.335 504.772Z" fill="#8F7ECE"/>
<path fill-rule="evenodd" clip-rule="evenodd" d="M144.252 506.111C143.645 508.197 142.99 510.241 142.455 512.385C140.761 512.035 139.06 511.694 137.352 511.357C137.933 509.276 138.564 507.237 139.064 505.088C140.925 505.301 142.499 505.794 144.252 506.111Z" fill="#8F7ECE"/>
<path fill-rule="evenodd" clip-rule="evenodd" d="M163.354 505.472C164.652 505.806 165.702 506.384 167.006 506.713C166.668 508.451 166 509.912 165.58 511.578C164.422 511.102 163.323 510.571 162.09 510.174C162.434 508.542 162.98 507.077 163.354 505.472Z" fill="#8F7ECE"/>
<path fill-rule="evenodd" clip-rule="evenodd" d="M151.805 508.277C151.229 510.289 150.663 512.308 150.084 514.315C148.043 513.848 146.192 513.196 144.102 512.781C144.718 510.729 145.32 508.667 145.902 506.584C147.975 507.045 149.828 507.723 151.805 508.277Z" fill="#8F7ECE"/>
<path fill-rule="evenodd" clip-rule="evenodd" d="M175.12 510.018C174.719 511.95 174.12 513.718 173.726 515.657C171.525 514.57 169.35 513.457 167.238 512.283C167.593 510.563 168.249 509.09 168.664 507.42C170.955 508.151 173.009 509.114 175.12 510.018Z" fill="#8F7ECE"/>
<path fill-rule="evenodd" clip-rule="evenodd" d="M159.982 511.036C159.391 513.109 158.712 515.107 158.093 517.158C155.954 516.44 154.003 515.538 151.74 514.943C152.285 512.881 152.888 510.869 153.457 508.828C155.787 509.411 157.909 510.201 159.982 511.036Z" fill="#8F7ECE"/>
<path fill-rule="evenodd" clip-rule="evenodd" d="M135.176 512.611C134.67 514.555 134.034 516.392 133.527 518.337C130.901 517.909 128.571 517.192 125.916 516.793C126.425 515.025 126.831 513.174 127.32 511.388C130.021 511.714 132.638 512.123 135.176 512.611Z" fill="#8F7ECE"/>
<path fill-rule="evenodd" clip-rule="evenodd" d="M161.555 511.746C162.878 512.083 163.925 512.692 165.13 513.146C164.502 515.189 163.829 517.193 163.329 519.342C162.051 518.907 160.859 518.385 159.748 517.788C160.276 515.713 161.049 513.839 161.555 511.746Z" fill="#8F7ECE"/>
<path fill-rule="evenodd" clip-rule="evenodd" d="M141.919 513.88C141.501 515.948 140.867 517.837 140.454 519.907C138.572 519.659 136.978 519.134 135.176 518.81C135.764 516.857 136.348 514.903 136.904 512.926C138.638 513.183 140.199 513.61 141.919 513.88Z" fill="#8F7ECE"/>
<path fill-rule="evenodd" clip-rule="evenodd" d="M149.55 515.886C149.052 517.888 148.358 519.727 147.818 521.693C145.869 521.272 143.966 520.806 142.1 520.304C142.644 518.343 143.108 516.313 143.653 514.351C145.752 514.733 147.61 515.348 149.55 515.886Z" fill="#8F7ECE"/>
<path fill-rule="evenodd" clip-rule="evenodd" d="M166.708 513.934C168.924 515.03 171.172 516.098 173.198 517.383C172.793 519.411 172.286 521.356 171.905 523.402C169.533 522.35 167.193 521.266 164.906 520.129C165.423 517.995 166.082 515.978 166.708 513.934Z" fill="#8F7ECE"/>
<path fill-rule="evenodd" clip-rule="evenodd" d="M157.558 518.73C157.099 520.614 156.416 522.315 155.986 524.219C153.738 523.638 151.749 522.798 149.471 522.244C150.059 520.293 150.625 518.324 151.287 516.436C153.421 517.155 155.529 517.906 157.558 518.73Z" fill="#8F7ECE"/>
<path fill-rule="evenodd" clip-rule="evenodd" d="M132.992 519.909C132.409 521.963 131.81 524.004 131.188 526.027C128.844 525.512 126.526 524.969 123.928 524.703C124.541 522.597 124.936 520.312 125.635 518.277C128.19 518.719 130.483 519.419 132.992 519.909Z" fill="#8F7ECE"/>
<path fill-rule="evenodd" clip-rule="evenodd" d="M140.004 521.476C139.596 523.627 139.047 525.66 138.637 527.81C136.777 527.302 134.887 526.821 132.92 526.419C133.511 524.372 134.088 522.311 134.723 520.301C136.43 520.744 138.191 521.134 140.004 521.476Z" fill="#8F7ECE"/>
<path fill-rule="evenodd" clip-rule="evenodd" d="M159.217 519.437C160.458 519.933 161.746 520.389 162.801 521.07C162.4 522.876 161.907 524.609 161.478 526.393C160.142 525.908 158.926 525.305 157.555 524.852C158.123 523.058 158.632 521.218 159.217 519.437Z" fill="#8F7ECE"/>
<path fill-rule="evenodd" clip-rule="evenodd" d="M147.283 523.266C146.755 525.44 146.074 527.488 145.489 529.617C143.793 529.163 142.159 528.646 140.373 528.279C140.718 526.078 141.271 524.046 141.74 521.947C143.66 522.315 145.46 522.802 147.283 523.266Z" fill="#8F7ECE"/>
<path fill-rule="evenodd" clip-rule="evenodd" d="M164.46 521.775C166.848 522.838 169.151 523.985 171.542 525.045C171.173 526.903 170.723 528.695 170.314 530.521C167.889 529.411 165.456 528.311 163.137 527.099C163.524 525.281 163.997 523.532 164.46 521.775Z" fill="#8F7ECE"/>
<path fill-rule="evenodd" clip-rule="evenodd" d="M149.017 523.735C151.171 524.41 153.323 525.089 155.451 525.792C154.926 527.97 154.312 530.074 153.833 532.29C151.654 531.559 149.473 530.828 147.227 530.164C147.704 527.921 148.406 525.867 149.017 523.735Z" fill="#8F7ECE"/>
<path fill-rule="evenodd" clip-rule="evenodd" d="M130.738 527.596C130.192 529.531 129.56 531.396 129.005 533.325C127.155 532.771 124.314 532.289 123.489 530.611C122.906 529.427 123.386 527.773 123.57 526.423C123.567 526.345 123.564 526.267 123.561 526.191C126.235 526.384 128.398 527.076 130.738 527.596Z" fill="#8F7ECE"/>
<path fill-rule="evenodd" clip-rule="evenodd" d="M157.106 526.421C158.477 526.899 159.786 527.439 161.032 528.04C160.644 530.206 160.038 532.191 159.756 534.446C158.246 534.024 157 533.343 155.49 532.92C155.979 530.712 156.537 528.563 157.106 526.421Z" fill="#8F7ECE"/>
<path fill-rule="evenodd" clip-rule="evenodd" d="M138.275 529.375C137.949 531.469 137.409 533.386 137.07 535.469C134.862 535.007 132.779 534.42 130.656 533.876C131.247 531.902 131.85 529.938 132.471 527.99C134.515 528.342 136.381 528.872 138.275 529.375Z" fill="#8F7ECE"/>
<path fill-rule="evenodd" clip-rule="evenodd" d="M162.695 528.823C165.146 529.878 167.589 530.94 169.784 532.247C169.394 534.264 168.722 536.045 168.488 538.19C166.055 537.254 163.84 536.098 161.332 535.232C161.741 533.06 162.188 530.916 162.695 528.823Z" fill="#8F7ECE"/>
<path fill-rule="evenodd" clip-rule="evenodd" d="M145.125 531.181C144.576 533.166 144.155 535.255 143.663 537.287C142.009 536.845 140.341 536.417 138.719 535.943C139.165 533.924 139.56 531.862 140.01 529.845C141.794 530.213 143.427 530.728 145.125 531.181Z" fill="#8F7ECE"/>
<path fill-rule="evenodd" clip-rule="evenodd" d="M153.474 533.933C153.159 535.961 152.615 537.8 152.35 539.87C149.96 539.263 147.739 538.491 145.402 537.834C145.717 535.679 146.306 533.755 146.779 531.731C149.083 532.396 151.348 533.096 153.474 533.933Z" fill="#8F7ECE"/>
<path fill-rule="evenodd" clip-rule="evenodd" d="M155.129 534.562C156.716 534.908 157.919 535.633 159.395 536.089C159.128 538.059 158.675 539.873 158.435 541.864C157.087 541.602 155.536 540.846 154.004 540.499C154.275 538.435 154.813 536.59 155.129 534.562Z" fill="#8F7ECE"/>
<path fill-rule="evenodd" clip-rule="evenodd" d="M161.058 536.872C163.493 537.781 165.854 538.765 168.046 539.912C167.696 541.597 167.461 543.601 165.727 543.961C164.667 544.182 163.569 543.764 162.619 543.471C161.686 543.181 160.784 542.909 160.092 542.491C160.363 540.577 160.76 538.764 161.058 536.872Z" fill="#8F7ECE"/>
<g opacity="0.94">
<g opacity="0.94">
<path opacity="0.94" fill-rule="evenodd" clip-rule="evenodd" d="M125.367 485.9C124.949 486.461 124.314 485.981 123.93 485.844C122.623 485.379 121.325 484.555 119.994 483.981C118.16 483.19 116.218 482.544 114.261 481.829C110.511 480.463 106.596 478.992 102.576 477.794C95.3685 475.645 87.5011 474.225 80.0897 472.219C79.1793 471.972 78.0855 471.807 77.4238 471.068C77.5638 470.374 78.2718 470.458 78.8369 470.45C79.8903 470.435 81.1077 470.784 82.3347 471.015C85.5657 471.624 88.8838 472.536 91.8065 473.278C96.1039 474.368 100.286 475.468 104.354 476.445C110.835 477.999 117.064 479.448 121.698 482.432C122.422 482.897 123.145 483.472 123.839 484.007C124.439 484.471 125.455 484.99 125.367 485.9Z" fill="#8F7ECE"/>
<path opacity="0.94" fill-rule="evenodd" clip-rule="evenodd" d="M122.109 489.4C121.081 489.674 119.999 489.149 119.096 488.79C112.734 486.255 105.834 483.649 98.7156 481.516C92.6998 479.715 86.1558 478.213 79.939 476.337C79.0028 476.055 77.9027 475.708 76.9682 475.346C76.1523 475.032 75.0057 474.727 75.0378 473.602C76.1586 473.048 78.0089 473.593 79.7176 473.911C87.3761 475.33 94.8728 477.458 101.422 479.594C107.319 481.516 112.628 483.736 117.828 486.251C118.615 486.631 119.477 487.092 120.285 487.569C120.959 487.969 122.131 488.351 122.109 489.4Z" fill="#8F7ECE"/>
</g>
<g opacity="0.94">
<g opacity="0.94">
<path opacity="0.94" fill-rule="evenodd" clip-rule="evenodd" d="M107.511 533.121C106.179 532.787 104.824 532.461 103.457 532.133C99.3896 531.159 95.2078 530.057 90.9104 528.967C87.989 528.224 84.6682 527.312 81.4369 526.706C80.2115 526.473 78.9941 526.126 77.9391 526.14C77.3753 526.146 76.6673 526.065 76.5273 526.758C77.189 527.497 78.2828 527.661 79.1932 527.908C86.6046 529.914 94.4703 531.334 101.678 533.484C103.366 533.985 105.033 534.537 106.677 535.108C106.925 534.449 107.201 533.787 107.511 533.121Z" fill="#8F7ECE"/>
<path opacity="0.94" fill-rule="evenodd" clip-rule="evenodd" d="M105.992 537.213C104.219 536.538 102.402 535.894 100.525 535.282C93.9746 533.147 86.4797 531.019 78.8211 529.599C77.1124 529.283 75.2621 528.738 74.1413 529.291C74.1092 530.415 75.2558 530.722 76.07 531.036C77.0062 531.398 78.1063 531.745 79.0408 532.026C85.259 533.901 91.8047 535.403 97.8191 537.205C100.39 537.976 102.928 538.812 105.425 539.681C105.577 538.841 105.765 538.022 105.992 537.213Z" fill="#8F7ECE"/>
</g>
<g opacity="0.94">
<path opacity="0.94" fill-rule="evenodd" clip-rule="evenodd" d="M105.991 542.052C104.658 541.718 103.305 541.395 101.938 541.066C97.87 540.09 93.6866 538.989 89.3892 537.897C86.4695 537.157 83.1483 536.245 79.9174 535.636C78.6907 535.405 77.4733 535.056 76.4196 535.071C75.8541 535.077 75.1461 534.995 75.0078 535.689C75.6694 536.428 76.7632 536.593 77.6737 536.839C85.0835 538.845 92.9508 540.266 100.158 542.415C101.846 542.917 103.513 543.47 105.158 544.042C105.405 543.38 105.681 542.718 105.991 542.052Z" fill="#8F7ECE"/>
<path opacity="0.94" fill-rule="evenodd" clip-rule="evenodd" d="M104.473 546.143C102.698 545.47 100.883 544.826 99.0042 544.214C92.4551 542.079 84.9605 539.949 77.2999 538.529C75.5929 538.213 73.7413 537.67 72.6218 538.223C72.5897 539.345 73.7363 539.654 74.5505 539.967C75.4867 540.33 76.5851 540.675 77.5216 540.958C83.7398 542.833 90.2839 544.335 96.2996 546.137C98.8706 546.908 101.407 547.744 103.905 548.612C104.058 547.772 104.244 546.952 104.473 546.143Z" fill="#8F7ECE"/>
</g>
</g>
<g opacity="0.94">
<path opacity="0.94" fill-rule="evenodd" clip-rule="evenodd" d="M92.7871 486.146C93.1515 484.629 95.2539 484.942 96.8053 485.067C100.142 485.337 102.789 485.849 105.529 486.93C106.375 487.264 108.795 488.116 108.567 489.087C108.32 490.131 105.072 489.193 104.547 489.087C101.623 488.488 99.4518 487.874 96.5114 487.322C95.1591 487.067 93.6945 486.982 92.7871 486.146Z" fill="white"/>
<path opacity="0.94" fill-rule="evenodd" clip-rule="evenodd" d="M93.2767 489.086C96.0534 488.632 98.748 489.469 101.509 490.262C102.635 490.585 106.834 491.452 106.606 492.713C106.397 493.867 104.172 493.232 102.98 493.005C100.15 492.469 98.0433 491.945 95.2362 491.34C94.1424 491.104 92.0533 490.919 92.0018 489.969C91.9614 489.178 92.591 489.197 93.2767 489.086Z" fill="white"/>
<path opacity="0.94" fill-rule="evenodd" clip-rule="evenodd" d="M90.0078 494.902C90.3739 493.385 92.4746 493.699 94.026 493.825C97.3632 494.093 100.01 494.605 102.749 495.686C103.596 496.022 106.016 496.871 105.788 497.843C105.541 498.888 102.295 497.95 101.77 497.843C98.8454 497.245 96.6725 496.632 93.7321 496.078C92.3798 495.824 90.9169 495.737 90.0078 494.902Z" fill="white"/>
<path opacity="0.94" fill-rule="evenodd" clip-rule="evenodd" d="M90.4975 497.842C93.2743 497.388 95.9672 498.224 98.7296 499.019C99.8551 499.342 104.052 500.209 103.825 501.468C103.618 502.625 101.392 501.989 100.199 501.762C97.3696 501.226 95.2641 500.703 92.457 500.097C91.3619 499.861 89.2725 499.676 89.2227 498.724C89.1806 497.934 89.8118 497.955 90.4975 497.842Z" fill="white"/>
<path opacity="0.94" fill-rule="evenodd" clip-rule="evenodd" d="M89.0338 502.448C92.8079 502.093 97.7348 503.302 101.091 504.505C102.383 504.971 103.884 505.636 103.834 506.368C103.741 507.746 100.846 506.805 99.8162 506.564C96.4934 505.793 94.6161 505.245 91.0945 504.605C90.2963 504.46 87.1071 504.287 87.1729 503.232C87.2193 502.499 88.1778 502.528 89.0338 502.448Z" fill="white"/>
</g>
<g opacity="0.94">
<path opacity="0.94" fill-rule="evenodd" clip-rule="evenodd" d="M76.8496 480.806C76.9702 480.778 77.7554 480.677 78.3205 480.708C81.1086 480.857 84.5049 481.673 87.3364 482.471C88.5184 482.805 89.554 483.139 89.4929 483.844C89.4064 484.84 87.2285 484.503 85.9647 484.334C83.3727 483.989 81.2208 483.603 78.7122 482.963C77.8676 482.746 75.7925 482.293 75.7718 481.59C75.7541 481.028 76.4031 480.912 76.8496 480.806Z" fill="white"/>
<path opacity="0.94" fill-rule="evenodd" clip-rule="evenodd" d="M72.9062 486.39C73.271 484.871 75.3731 485.186 76.9244 485.311C80.2616 485.581 82.9064 486.091 85.6461 487.174C86.4924 487.508 88.9125 488.359 88.6847 489.329C88.4389 490.374 85.1919 489.438 84.6665 489.329C81.7421 488.732 79.5709 488.12 76.6305 487.566C75.2785 487.312 73.8137 487.225 72.9062 486.39Z" fill="white"/>
<path opacity="0.94" fill-rule="evenodd" clip-rule="evenodd" d="M73.3943 489.329C76.1711 488.874 78.8656 489.712 81.6264 490.506C82.7522 490.828 86.9501 491.695 86.722 492.956C86.5149 494.111 84.2889 493.475 83.0972 493.25C80.2677 492.712 78.1606 492.189 75.3535 491.583C74.2597 491.347 72.1689 491.162 72.1192 490.212C72.0774 489.42 72.707 489.441 73.3943 489.329Z" fill="white"/>
<path opacity="0.94" fill-rule="evenodd" clip-rule="evenodd" d="M70.125 495.145C70.491 493.628 72.5918 493.942 74.1432 494.068C77.4803 494.338 80.1268 494.848 82.8665 495.929C83.7128 496.263 86.1346 497.114 85.9051 498.086C85.658 499.131 82.4123 498.193 81.8869 498.086C78.9609 497.489 76.7913 496.875 73.8493 496.321C72.497 496.067 71.0324 495.982 70.125 495.145Z" fill="white"/>
<path opacity="0.94" fill-rule="evenodd" clip-rule="evenodd" d="M70.615 498.085C73.3917 497.631 76.088 498.469 78.8487 499.261C79.9746 499.585 84.1724 500.451 83.9443 501.713C83.7372 502.866 81.5112 502.232 80.3182 502.006C77.4887 501.469 75.3833 500.946 72.5761 500.34C71.4823 500.103 69.3916 499.92 69.3418 498.967C69.2998 498.177 69.9307 498.198 70.615 498.085Z" fill="white"/>
</g>
<path opacity="0.94" fill-rule="evenodd" clip-rule="evenodd" d="M68.4536 503.617C69.3096 503.36 71.3573 503.71 72.3736 503.911C74.7055 504.373 76.9842 504.578 79.2343 505.38C79.9166 505.626 81.3073 506.355 81.5869 507.145C81.9352 508.135 81.5611 509.956 81.2913 511.163C80.7259 513.704 80.1527 515.389 79.43 518.122C79.1488 519.182 78.773 520.716 77.9591 521.064C76.8687 521.528 75.0909 520.977 74.137 520.768C72.9166 520.502 71.7874 520.206 70.6088 519.985C68.6977 519.625 64.9094 519.357 64.2381 517.534C63.8383 516.45 64.4131 514.949 64.7293 513.712C65.3686 511.202 66.1074 509.161 66.6885 506.656C66.9924 505.346 67.2606 503.975 68.4536 503.617Z" fill="#8F7ECE"/>
<path opacity="0.94" fill-rule="evenodd" clip-rule="evenodd" d="M88.3039 508.401C89.1615 508.145 91.2075 508.493 92.2238 508.697C94.5557 509.158 96.8362 509.362 99.0859 510.165C99.7685 510.411 101.158 511.138 101.437 511.93C101.785 512.918 101.413 514.74 101.143 515.948C100.578 518.487 100.005 520.173 99.2819 522.906C99.001 523.966 98.625 525.5 97.8107 525.847C96.7186 526.311 94.9425 525.762 93.9869 525.553C92.7666 525.286 91.6374 524.989 90.4604 524.769C88.5477 524.41 84.7593 524.141 84.0896 522.319C83.6899 521.234 84.2646 519.733 84.5796 518.496C85.2188 515.985 85.9593 513.945 86.5387 511.44C86.844 510.129 87.1105 508.759 88.3039 508.401Z" fill="#8F7ECE"/>
</g>
<path d="M97.4236 554.666C99.1997 554.537 101.808 548.059 102.324 546.982C102.131 550.333 101.453 556.392 102.939 556.857C105.566 557.677 109.062 541.983 110.459 536.51C115.571 516.532 120.366 496.069 125.669 476.686C124.38 475.788 122.949 475.019 121.442 474.198C120.061 473.447 118.601 472.777 117.087 472.17C111.164 495.374 104.233 518.153 98.8598 541.302C97.9647 545.159 95.7437 554.788 97.4236 554.666Z" fill="#889922"/>
<path opacity="0.37" fill-rule="evenodd" clip-rule="evenodd" d="M120.006 515.712C117.985 514.103 126.236 488.82 128.111 488.744C129.684 488.68 121.817 517.158 120.006 515.712Z" fill="#8F7ECE"/>
<path opacity="0.37" fill-rule="evenodd" clip-rule="evenodd" d="M118.111 519.66C120.407 519.025 117.761 530.699 116.595 534.054C116.087 535.51 110.386 558.933 109.008 558.812C106.317 558.573 116.522 520.096 118.111 519.66Z" fill="#8F7ECE"/>
<path fill-rule="evenodd" clip-rule="evenodd" d="M79.7261 465.283C82.4544 465.066 80.6382 469.593 79.9589 471.021C79.318 472.368 78.4607 474.39 77.0312 473.948C75.7544 473.552 76.6007 470.879 77.0312 469.498C77.6207 467.613 77.9066 465.426 79.7261 465.283Z" fill="white"/>
<path fill-rule="evenodd" clip-rule="evenodd" d="M85.6955 466.102C86.786 465.947 88.2104 466.194 88.0384 467.624C87.8343 469.317 84.0299 468.978 84.2901 467.04C84.3676 466.468 84.5873 466.261 85.6955 466.102Z" fill="white"/>
<path fill-rule="evenodd" clip-rule="evenodd" d="M180.212 494.064C180.195 496.563 179.585 498.994 178.849 501.035C178.178 502.89 177.444 505.364 175.363 505.885C174.216 504.751 175.245 501.976 175.817 499.519C176.467 496.721 177.217 491.895 180.212 494.064Z" fill="white"/>
<path fill-rule="evenodd" clip-rule="evenodd" d="M170.058 508.611C169.701 506.392 172.396 503.26 173.239 505.582C173.766 507.026 171.555 510.821 170.058 508.611Z" fill="white"/>
<path fill-rule="evenodd" clip-rule="evenodd" d="M67.042 526.477C66.9008 529.438 66.4382 531.576 65.677 534.357C65.1841 536.159 64.4243 540.194 62.3415 540.118C59.2776 540.002 61.8743 532.835 62.4958 531.025C62.9103 529.809 63.4627 528.932 63.7085 528.296C64.2399 526.917 64.2112 525.558 65.6774 525.72C66.4863 525.809 66.6022 526.053 67.042 526.477Z" fill="white"/>
<path fill-rule="evenodd" clip-rule="evenodd" d="M70.8308 534.813C72.2666 536.209 70.5129 539.469 69.1639 539.511C66.5542 539.591 68.3867 536.424 69.4675 535.115C69.6328 534.913 70.2641 534.696 70.8308 534.813Z" fill="white"/>
<path fill-rule="evenodd" clip-rule="evenodd" d="M62.1921 541.632C63.9362 541.308 70.6957 542.183 69.7689 545.119C69.2822 546.662 66.1782 545.658 64.6171 545.419C62.9439 545.167 60.111 545.154 60.2219 543.148C60.2907 541.908 61.5174 541.757 62.1921 541.632Z" fill="white"/>
<path fill-rule="evenodd" clip-rule="evenodd" d="M78.99 507.186C78.6607 507.544 77.8304 507.108 77.2283 506.99C75.3396 506.614 73.1603 506.15 71.3071 505.776C70.3405 509.065 69.2273 512.98 68.3363 516.616C68.2047 517.149 68.203 517.844 67.7131 518.194C67.2972 517.894 67.3677 517.241 67.355 516.768C67.3149 515.215 67.4225 513.417 67.2956 511.875C66.8507 511.976 66.8748 512.852 66.2422 512.64C66.2903 512.01 66.9038 511.448 67.3293 511.096C68.0023 511.61 67.8256 512.652 67.84 513.504C67.853 514.408 67.9138 515.357 67.8897 516.19C68.9802 512.709 69.7671 508.725 70.9347 505.368C72.2562 505.289 74.0471 505.925 75.5567 506.107C76.3996 506.21 77.4821 506.515 78.3768 506.799C78.5709 506.861 79.0655 506.823 78.99 507.186Z" fill="white"/>
<path fill-rule="evenodd" clip-rule="evenodd" d="M74.1767 508.524C73.9566 509.068 73.4973 509.211 73.1423 509.53C73.1971 510.047 73.8507 510.459 73.5758 510.974C72.9496 510.847 73.0187 510.3 72.8113 509.921C72.2589 510.09 72.1257 510.947 71.4062 510.836C71.427 510.199 72.1804 509.902 72.5304 509.458C72.5064 508.925 72.0004 508.684 72.1707 508.032C72.7632 508.157 72.7265 508.666 72.8614 509.068C73.3494 509.021 73.6049 508.087 74.1767 508.524Z" fill="white"/>
<path fill-rule="evenodd" clip-rule="evenodd" d="M78.7059 513.489C78.4377 513.619 78.2403 513.303 78.1648 513.121C77.5223 513.38 77.3489 515.047 77.5657 515.572C77.9157 515.635 78.0329 515.445 78.232 515.736C78.1371 516.201 77.6893 516.091 77.2314 515.962C76.9037 515.456 76.8409 513.921 77.3857 513.088C77.7681 512.505 78.7767 512.44 78.7059 513.489Z" fill="white"/>
<path fill-rule="evenodd" clip-rule="evenodd" d="M76.3477 513.149C75.9319 513.311 75.0502 513.21 74.5859 512.953C74.7576 512.439 76.3283 512.601 76.3477 513.149Z" fill="white"/>
<path fill-rule="evenodd" clip-rule="evenodd" d="M73.8076 512.919C73.5137 513.351 72.645 512.949 71.9526 512.779C71.2974 512.62 70.3659 512.569 70.2246 512.119C70.4561 511.768 71.087 512.095 71.5415 512.206C72.3992 512.416 73.4462 512.474 73.8076 512.919Z" fill="white"/>
<path fill-rule="evenodd" clip-rule="evenodd" d="M76.2782 514.075C75.9489 514.385 74.9904 514.156 74.5712 513.972C74.5261 513.452 76.2091 513.621 76.2782 514.075Z" fill="white"/>
<path fill-rule="evenodd" clip-rule="evenodd" d="M70.9727 513.562C71.5331 513.751 71.2602 514.441 71.5348 514.801C71.9362 514.627 71.9506 513.819 72.5882 514.036C72.5624 514.6 71.9619 514.985 71.6857 515.469C71.7144 516.019 72.0825 516.366 71.9345 517.025C71.4175 517.118 71.4269 516.485 71.3741 516.099C70.9663 516.156 71.0368 517.002 70.4313 516.734C70.3782 516.207 70.9356 515.846 71.1477 515.415C71.127 514.812 70.613 514.19 70.9727 513.562Z" fill="white"/>
<path fill-rule="evenodd" clip-rule="evenodd" d="M90.0832 512C89.9162 512.569 89.4456 512.437 89.0732 512.752C87.5797 514.016 86.8906 517.022 87.5429 518.853C87.6842 519.25 87.9991 519.616 87.8866 520.035C87.1478 520.02 86.8893 519.033 86.7497 518.379C86.2357 515.973 87.5927 512.641 89.6757 511.806C89.8825 511.828 90.003 511.904 90.0832 512Z" fill="white"/>
<path fill-rule="evenodd" clip-rule="evenodd" d="M97.324 513.725L97.4943 513.768C98.2795 514.393 98.9926 516.151 98.8466 517.484C98.6603 519.183 97.8477 520.386 97.0174 521.136C96.7829 521.349 96.4763 521.902 96.1774 521.566C95.8434 521.118 96.4987 520.877 96.6737 520.685C97.2953 520.009 98.0357 519.199 98.2445 517.699C98.4418 516.291 97.7819 515.062 97.2599 513.981L97.324 513.725Z" fill="white"/>
<path fill-rule="evenodd" clip-rule="evenodd" d="M96.59 515.914C96.4871 516.473 96.3218 516.931 95.9461 517.032C96.6398 517.528 96.773 518.339 96.2012 518.924C95.9668 519.166 95.5733 519.123 95.212 519.222C94.9421 519.299 94.6789 519.569 94.4395 519.394C94.5727 518.143 95.1555 516.245 95.4094 515.162C96.0069 515.023 96.418 515.564 96.59 515.914ZM95.6872 516.603C95.8335 516.439 95.9988 516.306 96.0326 515.959C95.9234 515.927 95.9411 515.818 95.7964 515.808C95.7901 516.054 95.5156 516.461 95.6872 516.603ZM95.085 518.644C95.5282 518.654 95.9153 518.568 95.9875 517.957C95.923 517.703 95.5683 517.623 95.387 517.441L95.085 518.644Z" fill="white"/>
<path fill-rule="evenodd" clip-rule="evenodd" d="M90.4919 514.021C90.9769 514.556 90.4131 515.722 90.7247 516.362C90.3009 516.852 90.6493 517.888 90.0357 518.017C89.477 517.843 90.026 517.002 89.9522 516.534L89.2649 516.362C88.7863 516.415 88.8938 517.45 88.3608 517.413C87.94 516.979 88.5856 516.159 88.9005 515.63C89.3083 514.943 89.6921 514.31 90.2334 513.957L90.4919 514.021ZM89.482 515.868L89.996 515.998C90.0908 515.6 90.1469 515.225 90.0828 514.923C89.8577 515.196 89.6279 515.466 89.482 515.868Z" fill="white"/>
<path fill-rule="evenodd" clip-rule="evenodd" d="M93.0254 515.202L93.2822 515.268C93.353 515.542 93.356 515.857 93.2181 516.256C93.4205 516.525 94.1993 516.447 93.9472 516.988C93.7448 517.136 93.2501 516.795 93.0461 516.943C92.8407 517.34 93.1456 518.159 92.5725 518.104C92.1724 517.929 92.4793 517.33 92.508 516.901C92.4793 516.673 91.8688 516.797 92.0792 516.428C92.1049 516.106 92.3988 516.23 92.659 516.299C92.7859 515.942 92.7972 515.393 93.0254 515.202Z" fill="white"/>
<path d="M135.507 680.003C133.978 679.854 128.864 680.598 128.714 682.126C128.563 683.651 133.434 685.381 134.961 685.535C136.488 685.686 137.848 684.571 138 683.043C138.151 681.514 137.032 680.156 135.507 680.003Z" fill="#EFAD1B"/>
<path d="M126.314 681.88L126.313 681.898C126.266 682.387 126.619 682.816 127.108 682.87L129.215 683.076L129.39 681.291L127.284 681.084C126.797 681.035 126.362 681.392 126.314 681.88Z" fill="#FF5000"/>
<path d="M178.738 686.68C178.67 687.421 179.21 688.074 179.953 688.144L182.583 688.391C183.322 688.461 183.976 687.921 184.044 687.182C184.116 686.442 183.573 685.787 182.837 685.718L180.201 685.469C179.463 685.4 178.807 685.939 178.738 686.68Z" fill="#FF5000"/>
<path d="M181.539 684.374L180.992 689.907L165.889 688.415L166.433 682.885L181.539 684.374Z" fill="#4D3D87"/>
<path d="M164.824 682.724L164.279 688.256L134.965 685.536L135.509 680.004L164.824 682.724Z" fill="#4D3D87"/>
<path d="M166.434 682.885L165.888 688.415L164.279 688.257L164.825 682.723L166.434 682.885Z" fill="#EFAD1B"/>
<path d="M181.73 682.462L180.996 689.906L180.191 689.826L180.923 682.381L181.73 682.462Z" fill="#EFAD1B"/>
<path d="M181.73 682.461L181.616 683.613L165.672 682.036L165.783 680.887L181.73 682.461Z" fill="#EFAD1B"/>
<path fill-rule="evenodd" clip-rule="evenodd" d="M178.597 686.075C179.496 685.018 176.161 684.328 175.895 685.328C175.583 686.497 177.824 686.509 178.504 686.168C178.546 686.147 178.565 686.112 178.597 686.075Z" fill="white"/>
<path fill-rule="evenodd" clip-rule="evenodd" d="M174.499 685.829C175.103 684.881 172.328 684.144 172.247 685.303C172.188 686.183 174.083 686.485 174.499 685.829Z" fill="white"/>
<path fill-rule="evenodd" clip-rule="evenodd" d="M135.004 685.1C135.775 685.277 137.017 685.385 137.171 684.829C137.369 684.108 136.533 684.065 135.899 683.975C135.267 683.883 134.478 683.794 134.36 684.377C134.23 685.017 134.703 685.029 135.004 685.1Z" fill="white"/>
<path fill-rule="evenodd" clip-rule="evenodd" d="M138.967 684.193C139.529 684.37 140.139 684.278 140.212 683.774C140.337 682.91 138.401 682.618 138.321 683.473C138.292 683.798 138.501 684.047 138.967 684.193Z" fill="white"/>
</svg>
