<svg width="213" height="639" viewBox="0 0 213 639" fill="none" xmlns="http://www.w3.org/2000/svg">
<path fill-rule="evenodd" clip-rule="evenodd" d="M45.2437 142.819C45.0132 143.612 44.8947 144.417 44.5478 145.198C43.6026 144.95 42.7728 144.639 41.6671 144.2C41.1089 143.978 38.9018 143.291 39.5005 142.577C39.9084 142.084 44.309 142.535 45.2437 142.819Z" fill="#8F7ECE"/>
<path d="M76.1021 154.377C78.8316 154.951 81.5376 155.56 84.3273 156.047C84.5282 156.082 84.7473 156.123 84.9769 156.163C86.1178 154.763 85.8326 153.198 85.4349 151.618C82.598 150.772 79.6669 150.181 76.7921 149.448C74.6396 148.901 72.4752 148.393 70.3184 147.884C70.066 149.536 69.8095 151.186 69.1914 152.795C71.4907 153.362 73.7959 153.896 76.1021 154.377Z" fill="#B1BC00"/>
<path d="M43.1035 144.764C44.3913 145.654 46.7631 146.405 48.7208 147.025C50.5835 147.62 52.4826 148.217 54.1543 148.7C58.5804 149.983 63.0813 151.252 67.6111 152.403C67.5738 152.379 67.5321 152.361 67.4917 152.337C67.9472 150.726 68.2286 149.093 68.5656 147.47C67.6429 147.249 66.7205 147.027 65.8034 146.796C60.3153 145.421 54.7446 144.249 49.3204 143.125C47.4967 142.747 45.584 142.261 43.7281 142.52C43.3964 143.253 43.1788 144.002 43.1035 144.764Z" fill="#B1BC00"/>
<path d="M85.702 154.12C85.8161 153.532 86.5136 153.165 87.2563 153.301L90.1417 153.825C90.8863 153.961 91.3958 154.549 91.2789 155.137C91.1647 155.724 90.4688 156.093 89.7242 155.958L86.8394 155.432C86.0951 155.296 85.5862 154.709 85.702 154.12Z" fill="#4D3D87"/>
<path fill-rule="evenodd" clip-rule="evenodd" d="M67.5062 145.717C68.2151 145.441 69.0433 145.685 69.7605 145.792C73.3328 146.314 76.9279 147.043 80.7295 148.017C81.3973 148.186 82.0293 148.357 82.9319 148.65C84.2765 149.087 85.5503 149.647 85.2819 150.862C85.2217 151.139 84.9952 151.73 84.4354 151.663C83.7555 151.582 83.8907 150.479 83.5068 150.137C83.1859 149.846 82.2604 149.727 81.5408 149.529C79.6074 148.991 77.7062 148.44 75.738 148.002C72.8329 147.352 70.0734 146.944 67.9987 146.2C67.7932 146.128 67.4735 146.121 67.5062 145.717Z" fill="#4D3D87"/>
<path d="M67.61 152.403C68.137 152.533 68.6641 152.663 69.1903 152.794C69.8087 151.186 70.0648 149.535 70.3173 147.883C69.7315 147.745 69.1498 147.609 68.5641 147.469C68.2272 149.093 67.9457 150.725 67.4902 152.336C67.531 152.361 67.5729 152.378 67.61 152.403Z" fill="#4D3D87"/>
<path d="M84.9766 156.163C85.8138 156.311 86.7547 156.442 87.1691 156.19C87.3546 156.077 87.5934 155.593 87.7243 155.309C88.1693 154.355 88.2041 153.252 87.757 152.382C86.992 152.1 86.2162 151.851 85.4345 151.618C85.8323 153.198 86.1174 154.763 84.9766 156.163Z" fill="#4D3D87"/>
<path fill-rule="evenodd" clip-rule="evenodd" d="M81.9264 153.085C82.3939 153.943 79.6036 153.607 79.6212 152.927C79.6425 152.132 81.4129 152.638 81.8714 153.004C81.902 153.028 81.9094 153.053 81.9264 153.085Z" fill="white"/>
<path fill-rule="evenodd" clip-rule="evenodd" d="M78.633 152.297C78.8923 153.022 76.534 152.842 76.737 152.108C76.8898 151.551 78.454 151.797 78.633 152.297Z" fill="white"/>
<path fill-rule="evenodd" clip-rule="evenodd" d="M47.2892 143.709C47.9357 143.775 48.9426 143.992 48.9364 144.374C48.9297 144.861 48.2588 144.698 47.7379 144.608C47.2176 144.52 46.5735 144.395 46.6152 144.008C46.6593 143.583 47.0358 143.682 47.2892 143.709Z" fill="white"/>
<path fill-rule="evenodd" clip-rule="evenodd" d="M50.2105 145.176C50.695 145.196 51.1536 145.39 51.0959 145.723C50.9962 146.283 49.4014 146.02 49.5353 145.475C49.5859 145.267 49.8081 145.159 50.2105 145.176Z" fill="white"/>
<path fill-rule="evenodd" clip-rule="evenodd" d="M183.739 330.206L182.687 328.073L125.628 370.198L89.6811 356.11L87.5166 357.791C87.5166 357.791 87.7067 360.267 87.5166 360.267C87.324 360.267 116.102 372.857 116.102 372.857L124.799 375.484L128.047 374.768L184.41 334.383C183.181 333.427 182.958 331.511 183.739 330.206Z" fill="#8F7ECE"/>
<path fill-rule="evenodd" clip-rule="evenodd" d="M88.7516 357.221C88.4187 358.051 88.2999 359.093 88.0178 359.973C91.2639 360.798 94.3514 361.957 97.3747 363.183C104.712 366.159 111.937 369.277 119.298 372.54C121.486 373.511 123.481 375.115 126.361 374.284C127.579 373.933 129.006 372.798 130.305 371.899C138.811 366.018 147.722 359.91 155.991 353.919C164.994 347.396 173.775 340.544 183.327 334.473C183.923 334.093 184.635 333.477 185.437 333.647C185.426 334.508 184.66 335.047 184.152 335.573C180.61 339.25 176.069 342.275 171.861 345.388C162.161 352.562 152.626 359.511 142.415 366.579C138.776 369.098 134.914 371.611 130.948 374.101C129.655 374.912 128.18 375.821 126.82 376.21C124.627 376.837 122.193 375.853 120.124 375.2C114.779 373.517 110.142 371.547 105.172 369.331C102.384 368.086 98.6918 366.394 95.7225 364.927C94.2881 364.217 92.8044 363.429 91.046 362.634C89.7213 362.034 87.1923 361.125 86.8251 359.972C85.9786 357.321 88.5029 356.022 90.2187 354.928C94.0808 352.469 97.961 349.268 101.594 346.764C109.623 341.227 117.236 336.451 124.986 331.077C131.306 326.696 137.835 322.468 143.975 317.502C144.516 317.064 145.184 316.511 145.809 316.034C146.501 315.505 147.453 314.646 148.194 314.658C148.577 314.665 148.978 314.729 149.391 314.831C149.66 314.897 149.439 315.522 149.715 315.613C149.968 315.696 150.718 315.245 150.972 315.339C151.714 315.615 152.455 315.917 153.148 316.126C154.419 316.51 155.67 316.893 156.906 317.279C157.203 317.371 156.885 317.72 157.18 317.812C157.328 317.858 158.089 317.649 158.236 317.696C160.061 318.272 161.857 318.854 163.64 319.449C163.911 319.539 163.91 319.909 164.18 320C164.478 320.1 165.047 319.922 165.345 320.023C169.244 321.349 173.102 322.747 177.088 324.29C178.055 324.663 179.113 325.064 180.206 325.492C180.478 325.598 180.416 325.919 180.691 326.029C180.829 326.084 181.303 325.925 181.442 325.981C182.285 326.32 183.136 326.673 183.97 327.041C184.743 327.384 185.685 327.916 185.711 328.417C185.771 329.47 182.858 330.848 182.135 331.354C178.413 333.951 174.346 336.814 170.76 339.333C165.37 343.121 160.81 346.64 155.991 350.341C151.09 354.107 146.358 357.746 141.406 361.624C138.387 363.99 134.105 367.301 130.215 369.79C128.828 370.676 127.124 371.99 125.354 371.899C123.955 371.828 122.194 370.633 120.858 369.972C116.595 367.865 111.958 365.904 107.374 364.194C104.152 362.992 101.009 361.895 97.9255 360.8C94.7927 359.687 91.5923 358.799 88.7516 357.221Z" fill="#FF5000"/>
<path d="M98.596 355.783C99.4103 355.273 100.209 354.739 100.951 354.254C101.327 353.885 101.387 353.504 101.15 353.203C100.869 352.85 100.5 352.819 100.148 353.033C99.3011 353.549 98.4682 354.089 97.6399 354.634C97.3866 354.799 97.2743 355.066 97.3653 355.367C97.5699 356.038 98.3337 355.947 98.596 355.783Z" fill="white"/>
<path d="M102.655 349.675C103.004 349.509 104.581 348.113 104.809 347.909C105.63 347.17 104.754 346.11 103.916 346.758C103.206 347.307 102.53 347.903 101.84 348.479C101.163 349.173 101.753 350.104 102.655 349.675Z" fill="white"/>
<path d="M112.753 353.509C113.507 353.134 114.136 352.574 114.722 352.105C115.12 351.643 115.154 351.259 114.878 350.955C114.594 350.648 114.207 350.618 113.794 350.951C113.214 351.419 112.62 351.863 111.994 352.267C111.161 352.804 111.841 353.964 112.753 353.509Z" fill="white"/>
<path d="M109.719 349.068C110.393 348.628 111.021 348.118 111.566 347.714C111.937 347.309 112.05 346.967 111.776 346.609C111.501 346.244 111.111 346.243 110.775 346.472C110.133 346.912 109.52 347.389 108.906 347.864C108.468 348.205 108.37 348.544 108.569 348.897C108.776 349.263 109.248 349.375 109.719 349.068Z" fill="white"/>
<path d="M105.58 355.92C106.22 355.49 106.818 355 107.372 354.581C107.732 354.19 107.776 353.816 107.531 353.523C107.242 353.181 106.87 353.148 106.534 353.385C105.904 353.829 105.3 354.313 104.699 354.796C103.935 355.413 104.695 356.512 105.58 355.92Z" fill="white"/>
<path d="M117.152 347.117C116.684 347.418 116.55 347.751 116.739 348.113C117.235 349.063 118.381 348.169 119.216 347.521C119.53 347.186 119.636 346.868 119.411 346.532C118.934 345.824 118.282 346.391 117.152 347.117Z" fill="white"/>
<path d="M110.353 341.899C111.169 341.391 111.966 340.855 112.71 340.371C113.085 340.002 113.145 339.62 112.907 339.319C112.881 339.287 112.855 339.26 112.828 339.234C111.621 340.03 110.411 340.832 109.195 341.638C109.463 342.131 110.113 342.048 110.353 341.899Z" fill="white"/>
<path d="M124.506 339.625C125.261 339.25 125.89 338.69 126.476 338.221C126.874 337.759 126.908 337.374 126.631 337.073C126.349 336.764 125.962 336.734 125.547 337.067C124.968 337.535 124.374 337.979 123.749 338.383C122.914 338.92 123.595 340.08 124.506 339.625Z" fill="white"/>
<path d="M120.324 335.013C120.53 335.381 121.002 335.491 121.474 335.184C122.148 334.745 122.776 334.235 123.321 333.832C123.691 333.426 123.804 333.085 123.531 332.725C123.38 332.527 123.196 332.438 123.005 332.435C122.16 333.012 121.316 333.585 120.473 334.152C120.201 334.435 120.158 334.72 120.324 335.013Z" fill="white"/>
<path d="M117.336 342.037C117.974 341.608 118.574 341.117 119.127 340.7C119.486 340.307 119.53 339.933 119.286 339.642C118.998 339.298 118.625 339.265 118.288 339.503C117.66 339.947 117.055 340.43 116.455 340.914C115.691 341.53 116.45 342.631 117.336 342.037Z" fill="white"/>
<path d="M130.972 333.638C131.286 333.303 131.393 332.985 131.167 332.651C130.69 331.941 130.039 332.509 128.907 333.234C128.439 333.536 128.306 333.869 128.495 334.23C128.99 335.18 130.136 334.286 130.972 333.638Z" fill="white"/>
<path d="M119.307 363.217C118.461 363.732 117.628 364.272 116.8 364.818C116.546 364.984 116.435 365.251 116.525 365.549C116.73 366.221 117.493 366.13 117.756 365.967C118.571 365.458 119.369 364.922 120.112 364.437C120.487 364.069 120.547 363.687 120.31 363.386C120.029 363.035 119.661 363.001 119.307 363.217Z" fill="white"/>
<path d="M122.77 358.835C123.119 358.669 124.696 357.273 124.924 357.069C125.745 356.331 124.869 355.27 124.032 355.918C123.321 356.467 122.645 357.063 121.955 357.639C121.278 358.332 121.868 359.266 122.77 358.835Z" fill="white"/>
<path d="M131.911 363.692C132.665 363.317 133.296 362.757 133.88 362.287C134.278 361.825 134.312 361.441 134.037 361.139C133.753 360.831 133.366 360.8 132.952 361.133C132.373 361.602 131.778 362.046 131.153 362.449C130.319 362.987 130.999 364.147 131.911 363.692Z" fill="white"/>
<path d="M128.877 359.252C129.551 358.811 130.179 358.301 130.724 357.9C131.096 357.494 131.207 357.15 130.934 356.792C130.658 356.427 130.269 356.426 129.933 356.657C129.293 357.095 128.677 357.572 128.064 358.05C127.627 358.389 127.528 358.729 127.728 359.081C127.933 359.448 128.406 359.559 128.877 359.252Z" fill="white"/>
<path d="M125.69 363.569C125.062 364.014 124.457 364.496 123.857 364.981C123.094 365.596 123.853 366.697 124.738 366.103C125.377 365.676 125.976 365.183 126.53 364.766C126.89 364.373 126.934 364.001 126.688 363.709C126.4 363.365 126.029 363.331 125.69 363.569Z" fill="white"/>
<path d="M112.868 359.144C112.164 359.682 112.876 360.791 113.652 360.329C114.317 359.935 114.944 359.471 115.489 359.102C116.272 358.208 115.378 357.436 114.703 357.867C114.074 358.267 113.459 358.691 112.868 359.144Z" fill="white"/>
<path d="M136.311 357.301C135.844 357.602 135.71 357.935 135.899 358.297C136.395 359.246 137.542 358.353 138.378 357.704C138.69 357.371 138.798 357.051 138.572 356.715C138.094 356.007 137.443 356.576 136.311 357.301Z" fill="white"/>
<path d="M138.443 362.438C137.974 362.738 137.841 363.071 138.03 363.433C138.164 363.688 138.344 363.808 138.552 363.836C139.348 363.227 140.107 362.639 140.809 362.091C140.791 362.011 140.756 361.932 140.702 361.852C140.225 361.143 139.574 361.712 138.443 362.438Z" fill="white"/>
<path d="M131.581 368.136C131.113 368.437 130.98 368.769 131.169 369.131C131.174 369.14 131.179 369.146 131.185 369.155C132.025 368.599 132.877 368.012 133.725 367.411C133.259 366.935 132.624 367.468 131.581 368.136Z" fill="white"/>
<path d="M159.132 347.345C158.655 346.635 158.004 347.204 156.872 347.93C156.404 348.23 156.271 348.563 156.46 348.925C156.665 349.318 156.983 349.393 157.343 349.301C157.975 348.817 158.604 348.334 159.233 347.854C159.275 347.686 159.249 347.516 159.132 347.345Z" fill="white"/>
<path d="M119.676 353.069C120.423 352.545 121.544 351.722 120.958 351.032C120.68 350.703 120.252 350.7 119.795 351.062C119.431 351.35 119.065 351.647 118.749 351.987C118.114 352.673 118.974 353.564 119.676 353.069Z" fill="white"/>
<path d="M129.512 352.083C130.326 351.574 131.124 351.04 131.867 350.554C132.242 350.184 132.304 349.804 132.065 349.504C131.785 349.151 131.417 349.119 131.063 349.334C130.217 349.848 129.384 350.389 128.556 350.934C128.302 351.1 128.191 351.367 128.281 351.665C128.485 352.338 129.249 352.247 129.512 352.083Z" fill="white"/>
<path d="M135.788 342.035C135.077 342.584 134.401 343.179 133.71 343.756C133.035 344.449 133.624 345.382 134.526 344.951C134.875 344.785 136.453 343.389 136.681 343.185C137.501 342.447 136.625 341.388 135.788 342.035Z" fill="white"/>
<path d="M143.984 350.976C144.738 350.601 145.366 350.041 145.954 349.57C146.351 349.109 146.386 348.725 146.108 348.422C145.826 348.115 145.439 348.083 145.025 348.417C144.446 348.884 143.852 349.328 143.224 349.734C142.391 350.271 143.073 351.43 143.984 350.976Z" fill="white"/>
<path d="M142.69 342.908C142.414 342.546 142.025 342.543 141.689 342.773C141.047 343.212 140.434 343.69 139.82 344.165C139.383 344.504 139.284 344.845 139.484 345.198C139.689 345.564 140.162 345.677 140.633 345.369C141.307 344.928 141.936 344.418 142.48 344.016C142.852 343.61 142.963 343.268 142.69 342.908Z" fill="white"/>
<path d="M137.448 349.687C136.818 350.131 136.213 350.613 135.613 351.098C134.85 351.715 135.608 352.814 136.494 352.22C137.133 351.792 137.732 351.3 138.285 350.883C138.645 350.49 138.69 350.118 138.444 349.826C138.156 349.482 137.786 349.449 137.448 349.687Z" fill="white"/>
<path d="M124.624 345.261C123.92 345.8 124.633 346.909 125.407 346.448C126.074 346.052 126.7 345.588 127.245 345.219C128.028 344.324 127.134 343.553 126.459 343.984C125.83 344.385 125.215 344.81 124.624 345.261Z" fill="white"/>
<path d="M126.63 369.87C126.152 369.16 125.501 369.73 124.37 370.455C123.902 370.755 123.769 371.09 123.958 371.45C123.984 371.502 124.013 371.543 124.041 371.584C124.315 371.687 124.583 371.773 124.843 371.827C125.352 371.7 125.947 371.237 126.435 370.859C126.749 370.524 126.855 370.205 126.63 369.87Z" fill="white"/>
<path d="M131.431 339.186C132.178 338.662 133.299 337.839 132.716 337.149C132.436 336.82 132.007 336.819 131.551 337.179C131.186 337.467 130.821 337.764 130.506 338.103C129.869 338.79 130.731 339.681 131.431 339.186Z" fill="white"/>
<path d="M100.843 359.61C100.567 359.245 100.178 359.241 99.842 359.473C99.2152 359.901 98.6159 360.367 98.0176 360.833C98.5727 361.029 99.1325 361.227 99.6939 361.425C100.027 361.175 100.343 360.93 100.633 360.715C101.005 360.31 101.116 359.968 100.843 359.61Z" fill="white"/>
<path d="M105.805 361.113C106.301 362.064 107.449 361.17 108.284 360.521C108.596 360.186 108.702 359.867 108.477 359.532C108.001 358.823 107.349 359.391 106.218 360.118C105.75 360.418 105.617 360.751 105.805 361.113Z" fill="white"/>
<path d="M91.9739 356.787C92.7191 356.262 93.8403 355.438 93.2567 354.75C92.9784 354.421 92.5479 354.418 92.0915 354.778C91.7273 355.068 91.3613 355.364 91.0466 355.704C90.4102 356.39 91.2718 357.281 91.9739 356.787Z" fill="white"/>
<path d="M110.027 364.033C109.748 363.704 109.319 363.701 108.863 364.063C108.668 364.215 108.472 364.375 108.285 364.54C108.809 364.738 109.332 364.94 109.856 365.145C110.175 364.779 110.328 364.388 110.027 364.033Z" fill="white"/>
<path d="M144.451 355.794C143.74 356.343 143.065 356.937 142.375 357.514C141.698 358.206 142.288 359.14 143.19 358.711C143.539 358.542 145.118 357.147 145.344 356.945C146.165 356.205 145.29 355.146 144.451 355.794Z" fill="white"/>
<path d="M149.958 351.068C149.593 351.357 149.227 351.654 148.912 351.993C148.276 352.68 149.137 353.571 149.839 353.076C150.585 352.552 151.706 351.728 151.122 351.039C150.843 350.71 150.413 350.707 149.958 351.068Z" fill="white"/>
<path d="M163.638 320.05C163.991 320.728 164.676 320.465 165.344 320.024C164.777 319.832 164.207 319.643 163.638 319.452C163.53 319.642 163.529 319.841 163.638 320.05Z" fill="white"/>
<path d="M134.4 327.784C135.154 327.408 135.784 326.848 136.37 326.378C136.766 325.917 136.803 325.533 136.524 325.231C136.241 324.921 135.856 324.891 135.441 325.224C134.862 325.692 134.268 326.136 133.641 326.54C132.807 327.079 133.488 328.239 134.4 327.784Z" fill="white"/>
<path d="M141.658 321.957C141.971 321.624 142.079 321.304 141.853 320.97C141.376 320.26 140.724 320.829 139.593 321.555C139.125 321.855 138.991 322.19 139.18 322.549C139.677 323.499 140.824 322.605 141.658 321.957Z" fill="white"/>
<path d="M140.196 340.404C141.011 339.894 141.809 339.359 142.554 338.875C142.927 338.506 142.989 338.123 142.75 337.823C142.471 337.47 142.102 337.439 141.749 337.653C140.901 338.168 140.07 338.709 139.241 339.253C138.987 339.419 138.876 339.686 138.967 339.986C139.17 340.659 139.934 340.567 140.196 340.404Z" fill="white"/>
<path d="M145.21 333.271C145.559 333.106 147.137 331.709 147.363 331.506C148.185 330.767 147.31 329.708 146.471 330.356C145.76 330.905 145.085 331.5 144.394 332.075C143.718 332.768 144.308 333.702 145.21 333.271Z" fill="white"/>
<path d="M154.352 338.13C155.106 337.753 155.735 337.195 156.32 336.726C156.718 336.263 156.753 335.879 156.477 335.576C156.193 335.268 155.807 335.237 155.393 335.572C154.814 336.04 154.218 336.482 153.592 336.887C152.758 337.425 153.439 338.584 154.352 338.13Z" fill="white"/>
<path d="M153.375 331.227C153.098 330.865 152.71 330.861 152.374 331.094C151.733 331.531 151.119 332.009 150.504 332.487C150.068 332.825 149.97 333.165 150.168 333.518C150.375 333.883 150.847 333.996 151.318 333.688C151.992 333.249 152.621 332.737 153.166 332.335C153.537 331.93 153.648 331.588 153.375 331.227Z" fill="white"/>
<path d="M147.179 340.54C147.82 340.111 148.417 339.62 148.972 339.202C149.331 338.81 149.376 338.437 149.131 338.144C148.843 337.802 148.471 337.768 148.133 338.006C147.503 338.45 146.898 338.933 146.299 339.416C145.535 340.033 146.294 341.133 147.179 340.54Z" fill="white"/>
<path d="M136.092 334.766C136.758 334.371 137.384 333.909 137.929 333.54C138.714 332.646 137.818 331.873 137.143 332.303C136.514 332.704 135.899 333.128 135.307 333.582C134.604 334.118 135.316 335.229 136.092 334.766Z" fill="white"/>
<path d="M158.751 331.737C158.283 332.039 158.15 332.372 158.339 332.732C158.835 333.684 159.981 332.789 160.817 332.14C161.129 331.807 161.237 331.489 161.011 331.152C160.535 330.443 159.883 331.011 158.751 331.737Z" fill="white"/>
<path d="M142.118 327.507C142.864 326.981 143.986 326.157 143.401 325.468C143.123 325.14 142.693 325.138 142.237 325.497C141.872 325.786 141.506 326.083 141.191 326.423C140.555 327.11 141.416 328 142.118 327.507Z" fill="white"/>
<path d="M151.951 326.522C152.765 326.011 153.563 325.477 154.308 324.992C154.681 324.624 154.743 324.241 154.504 323.941C154.224 323.589 153.856 323.557 153.502 323.771C152.656 324.288 151.825 324.828 150.995 325.372C150.741 325.537 150.63 325.804 150.721 326.105C150.926 326.776 151.69 326.685 151.951 326.522Z" fill="white"/>
<path d="M155.754 320.107C156.104 319.94 157.681 318.545 157.908 318.341C158.134 318.136 158.229 317.908 158.234 317.698C157.793 317.559 157.35 317.419 156.904 317.281C156.235 317.805 155.593 318.364 154.938 318.91C154.263 319.604 154.853 320.536 155.754 320.107Z" fill="white"/>
<path d="M165.315 325.029C166.068 324.653 166.698 324.094 167.283 323.625C167.681 323.163 167.717 322.778 167.439 322.477C167.155 322.168 166.768 322.137 166.356 322.471C165.777 322.939 165.183 323.383 164.555 323.785C163.721 324.324 164.402 325.484 165.315 325.029Z" fill="white"/>
<path d="M158.933 326.657C159.574 326.228 160.171 325.737 160.726 325.318C161.085 324.927 161.13 324.553 160.884 324.26C160.597 323.919 160.225 323.885 159.888 324.123C159.257 324.567 158.653 325.05 158.052 325.533C157.289 326.15 158.048 327.249 158.933 326.657Z" fill="white"/>
<path d="M148.549 320.884C149.215 320.489 149.841 320.026 150.386 319.657C151.171 318.762 150.276 317.991 149.6 318.422C148.971 318.821 148.355 319.245 147.764 319.699C147.061 320.237 147.773 321.346 148.549 320.884Z" fill="white"/>
<path d="M149.07 344.307C148.594 343.598 147.941 344.167 146.81 344.893C146.342 345.194 146.208 345.527 146.397 345.888C146.892 346.838 148.04 345.944 148.875 345.296C149.188 344.963 149.295 344.643 149.07 344.307Z" fill="white"/>
<path d="M149.607 316.645C150.099 316.299 150.751 315.821 150.972 315.34C150.465 315.15 149.958 314.976 149.464 314.851C149.19 315.073 148.92 315.304 148.679 315.562C148.043 316.249 148.904 317.139 149.607 316.645Z" fill="white"/>
<path d="M178.369 326.908C177.605 327.524 178.365 328.625 179.25 328.031C179.889 327.604 180.488 327.112 181.041 326.694C181.286 326.427 181.381 326.171 181.343 325.941C180.961 325.79 180.585 325.641 180.21 325.494C180.207 325.496 180.205 325.497 180.202 325.499C179.574 325.943 178.969 326.424 178.369 326.908Z" fill="white"/>
<path d="M172.487 327.059C173.153 326.663 173.778 326.201 174.323 325.832C175.107 324.937 174.212 324.165 173.537 324.595C172.908 324.996 172.293 325.42 171.702 325.874C170.998 326.413 171.711 327.521 172.487 327.059Z" fill="white"/>
<path d="M154.706 343.462C153.994 344.013 153.319 344.607 152.629 345.183C151.952 345.876 152.542 346.809 153.443 346.379C153.793 346.212 155.372 344.817 155.598 344.613C156.419 343.875 155.544 342.816 154.706 343.462Z" fill="white"/>
<path d="M160.522 341.579C160.156 341.867 159.792 342.164 159.476 342.503C158.84 343.191 159.7 344.08 160.402 343.587C161.148 343.061 162.27 342.239 161.685 341.549C161.407 341.221 160.978 341.218 160.522 341.579Z" fill="white"/>
<path d="M167.856 333.331C168.677 332.593 167.801 331.534 166.963 332.182C166.253 332.731 166.162 332.995 165.472 333.571C164.796 334.264 165.386 335.197 166.288 334.768C166.636 334.6 167.63 333.536 167.856 333.331Z" fill="white"/>
<path d="M172.455 334.18C173.129 333.74 173.759 333.23 174.302 332.826C174.674 332.422 174.785 332.08 174.512 331.721C174.236 331.356 173.849 331.355 173.511 331.585C172.869 332.023 172.255 332.501 171.642 332.977C171.205 333.318 171.106 333.657 171.306 334.011C171.513 334.376 171.984 334.487 172.455 334.18Z" fill="white"/>
<path d="M168.316 341.033C168.956 340.606 169.554 340.113 170.108 339.696C170.467 339.303 170.512 338.929 170.267 338.637C169.978 338.294 169.608 338.262 169.27 338.499C168.641 338.943 168.035 339.426 167.435 339.909C166.672 340.527 167.431 341.626 168.316 341.033Z" fill="white"/>
<path d="M160.923 338.438C161.589 338.042 162.215 337.58 162.76 337.211C163.544 336.317 162.65 335.544 161.973 335.976C161.345 336.375 160.729 336.8 160.14 337.253C159.436 337.792 160.147 338.901 160.923 338.438Z" fill="white"/>
<path d="M179.89 332.231C179.425 332.529 179.292 332.857 179.472 333.215C180.319 332.621 181.16 332.033 181.983 331.459C181.522 331.065 180.895 331.585 179.89 332.231Z" fill="white"/>
<path d="M166.124 328.233C165.486 328.92 166.347 329.81 167.051 329.317C167.795 328.791 168.917 327.969 168.332 327.279C168.055 326.951 167.626 326.947 167.17 327.309C166.804 327.597 166.438 327.893 166.124 328.233Z" fill="white"/>
<path fill-rule="evenodd" clip-rule="evenodd" d="M145.169 322.26C146.134 322.054 147.802 322.58 148.93 322.993C154.571 325.07 158.881 327.097 164.25 329.507C165.163 329.918 166.403 330.403 167.278 330.883C168.16 331.368 169.381 332.296 169.387 333.086C169.398 334.374 166.502 335.951 165.626 336.571C161.912 339.195 158.734 341.444 154.71 343.818C153.904 344.292 153.051 344.886 152.233 344.92C151.25 344.957 150.167 344.325 149.114 343.818C146.179 342.404 143.779 341.053 140.767 339.689C138.113 338.488 135.051 337.11 132.327 335.561C131.567 335.131 130.184 334.386 130.126 333.635C130.03 332.401 132.651 330.93 133.428 330.334C135.799 328.511 138.361 326.411 140.858 324.738C142.141 323.879 143.454 322.886 144.986 322.352C145.031 322.336 145.076 322.28 145.169 322.26Z" fill="#4D3D87"/>
<path fill-rule="evenodd" clip-rule="evenodd" d="M158.365 557.733C158.082 560.083 158.902 563.335 157.815 564.796C156.907 566.017 154.094 565.878 151.301 565.991C146.293 566.19 141.52 566.652 136.533 566.631C129.124 566.602 121.547 566.082 114.058 566.082C109.114 566.082 104.19 566.357 99.0149 566.357C88.9325 566.355 78.831 566.357 68.4681 566.357C63.7451 566.357 58.378 566.164 53.2409 566.357C51.0832 566.438 48.238 566.328 45.7192 566.173C43.1699 566.016 40.886 565.482 40.0312 564.247C39.0934 562.894 39.3406 559.661 39.5717 557.733C49.1681 557.957 58.8209 557.55 68.7428 557.55C71.9241 557.55 75.193 557.514 78.3758 557.366C84.3339 557.089 92.1604 557.276 98.739 557.274C105.477 557.274 112.216 557.423 118.736 557.459C132.182 557.531 145.387 558.275 158.365 557.733Z" fill="#8F7ECE"/>
<path fill-rule="evenodd" clip-rule="evenodd" d="M74.8877 522.142C80.2365 521.887 86.6402 522.214 92.2248 522.325C97.8542 522.436 103.639 522.265 109.471 522.233C117.945 522.188 126.611 521.927 135.156 522.416C136.391 522.487 137.866 522.558 139.375 522.601C141.083 522.648 142.672 522.521 143.595 522.876C146.229 523.887 147.392 527.604 148.64 530.306C151.948 537.471 155.061 544.486 157.63 552.506C158.136 554.08 158.747 556.453 158.181 557.917C156.962 561.059 150.194 560.577 145.247 560.577C134.753 560.577 124.585 560.355 114.425 560.761C109.201 560.969 104.212 560.419 99.2891 560.302C96.7673 560.243 94.2825 560.535 91.8594 560.67C89.3086 560.811 86.7547 560.801 84.1529 560.761C79.3037 560.689 74.1245 560.487 68.8343 560.485C63.97 560.485 58.6942 560.577 53.3318 560.577C48.8362 560.577 40.7853 561.162 39.6642 557.917C39.1485 556.425 39.8336 554.086 40.3051 552.596C42.6788 545.096 45.9641 537.412 49.2954 530.306C50.4014 527.947 51.999 523.458 54.7075 522.693C55.9496 522.34 57.9403 522.591 59.6608 522.508C64.6921 522.271 69.8339 522.382 74.8877 522.142Z" fill="#4D3D87"/>
<path fill-rule="evenodd" clip-rule="evenodd" d="M89.4738 526.729C89.1929 528.313 88.8396 529.824 88.5566 531.407C86.9695 531.593 85.0596 531.456 83.3281 531.499C83.6565 529.84 84.1669 528.361 84.6128 526.82C86.2872 526.845 87.7527 526.658 89.4738 526.729Z" fill="#8F7ECE"/>
<path fill-rule="evenodd" clip-rule="evenodd" d="M94.9777 526.912C94.6355 528.403 94.2726 529.875 93.9699 531.406C92.5941 531.406 91.2175 531.406 89.8418 531.406C90.1041 529.773 90.5355 528.308 90.8503 526.729C92.1087 526.908 93.7418 526.712 94.9777 526.912Z" fill="#8F7ECE"/>
<path fill-rule="evenodd" clip-rule="evenodd" d="M83.2363 526.82C82.7679 528.341 82.4232 529.983 81.9517 531.499C80.1081 531.493 77.8045 531.507 76.2637 531.499C76.8821 530.066 77.4113 528.548 77.9156 527.004C79.6968 526.95 81.4672 526.885 83.2363 526.82Z" fill="#8F7ECE"/>
<path fill-rule="evenodd" clip-rule="evenodd" d="M100.666 527.003C100.728 528.47 100.884 529.844 100.94 531.314C98.9549 531.255 97.1697 531.397 95.2539 531.407C95.5489 529.837 95.959 528.382 96.3537 526.912C97.839 526.895 99.1289 527.072 100.666 527.003Z" fill="#8F7ECE"/>
<path fill-rule="evenodd" clip-rule="evenodd" d="M76.3582 527.004C76.6859 527.152 76.2996 527.729 76.1743 528.104C75.8009 529.222 75.371 530.568 74.8896 531.591C72.8711 531.591 70.8535 531.591 68.8359 531.591C69.3396 530.016 70.0101 528.608 70.5792 527.095C72.4863 527.046 74.5983 527.202 76.3582 527.004Z" fill="#8F7ECE"/>
<path fill-rule="evenodd" clip-rule="evenodd" d="M106.078 527.094C106.242 528.399 106.242 529.866 106.351 531.222C104.685 531.159 103.747 531.337 102.224 531.314C102.012 530.029 102.054 528.488 101.949 527.094C103.001 527.059 104.732 527.122 106.078 527.094Z" fill="#8F7ECE"/>
<path fill-rule="evenodd" clip-rule="evenodd" d="M69.1107 527.094C68.6179 528.651 68.0155 530.099 67.4588 531.59C66.0198 531.531 64.3445 531.71 63.057 531.499C62.7749 531.398 63.2434 530.911 63.4236 530.58C63.9408 529.631 64.5713 528.354 64.8907 527.186C66.3099 527.168 67.6171 527.037 69.1107 527.094Z" fill="#8F7ECE"/>
<path fill-rule="evenodd" clip-rule="evenodd" d="M107.361 527.187C108.646 527.187 109.93 527.187 111.214 527.187C111.512 528.51 111.743 529.899 112.04 531.223C110.543 531.223 109.043 531.223 107.544 531.223C107.477 529.884 107.508 528.448 107.361 527.187Z" fill="#8F7ECE"/>
<path fill-rule="evenodd" clip-rule="evenodd" d="M63.3298 527.279C63.3916 527.279 63.453 527.279 63.5131 527.279C62.9503 528.795 62.2149 530.139 61.4946 531.499C60.1189 531.499 58.7429 531.499 57.3672 531.499C57.5665 530.831 57.8683 530.19 58.1924 529.572C58.4806 529.022 58.791 528.268 59.2937 527.921C60.2837 527.237 61.7921 527.635 63.3298 527.279Z" fill="#8F7ECE"/>
<path fill-rule="evenodd" clip-rule="evenodd" d="M112.592 527.28C114.035 527.334 115.702 527.166 116.994 527.37C117.144 528.812 117.581 529.964 117.82 531.315C116.414 531.191 114.854 531.223 113.325 531.223C113.019 529.97 112.803 528.628 112.592 527.28Z" fill="#8F7ECE"/>
<path fill-rule="evenodd" clip-rule="evenodd" d="M118.277 527.37C120.028 527.303 121.497 527.516 123.232 527.463C123.518 528.888 124.024 530.094 124.24 531.591C122.625 531.401 120.819 531.404 119.104 531.314C118.8 530.027 118.53 528.706 118.277 527.37Z" fill="#8F7ECE"/>
<path fill-rule="evenodd" clip-rule="evenodd" d="M129.743 527.463C130.318 528.845 130.761 530.36 131.213 531.867C129.301 531.79 127.332 531.769 125.525 531.59C125.298 530.166 124.88 528.931 124.607 527.554C126.355 527.56 128.116 527.577 129.743 527.463Z" fill="#8F7ECE"/>
<path fill-rule="evenodd" clip-rule="evenodd" d="M131.213 527.463C133.847 527.651 136.374 527.048 137.909 528.103C139.079 528.911 139.383 530.738 140.018 532.232C137.639 532.044 135.129 531.985 132.589 531.956C132.084 530.506 131.655 528.975 131.213 527.463Z" fill="#8F7ECE"/>
<path fill-rule="evenodd" clip-rule="evenodd" d="M106.078 532.601C106.214 534.114 106.431 535.547 106.72 536.912C104.917 536.97 103.392 536.753 101.582 536.82C101.445 535.366 101.215 534.006 100.939 532.691C102.472 532.48 104.394 532.659 106.078 532.601Z" fill="#8F7ECE"/>
<path fill-rule="evenodd" clip-rule="evenodd" d="M107.27 532.601C108.614 532.601 109.96 532.601 111.306 532.601C111.756 534.015 112.104 535.531 112.498 537.002C110.94 537.001 109.344 537.037 107.911 536.911C107.832 535.34 107.437 534.083 107.27 532.601Z" fill="#8F7ECE"/>
<path fill-rule="evenodd" clip-rule="evenodd" d="M112.592 532.69C114.273 532.477 116.352 532.661 118.186 532.6C118.745 534.06 119.138 535.685 119.745 537.094C117.89 537.36 115.901 536.963 113.876 537.094C113.466 535.607 113.087 534.092 112.592 532.69Z" fill="#8F7ECE"/>
<path fill-rule="evenodd" clip-rule="evenodd" d="M60.8529 532.783C60.4672 534.261 59.8383 535.498 59.2939 536.819C57.9478 536.819 56.6024 536.819 55.2578 536.819C55.7621 535.427 56.3385 534.107 56.8168 532.69C58.2246 532.66 59.4062 532.853 60.8529 532.783Z" fill="#8F7ECE"/>
<path fill-rule="evenodd" clip-rule="evenodd" d="M99.7479 532.689C99.9281 534.039 100.132 535.363 100.297 536.727C98.4632 536.727 96.628 536.727 94.7937 536.727C94.7817 535.276 94.9215 533.98 95.0699 532.689C96.628 532.689 98.1873 532.689 99.7479 532.689Z" fill="#8F7ECE"/>
<path fill-rule="evenodd" clip-rule="evenodd" d="M119.562 532.689C121.597 532.706 123.484 532.867 125.433 532.966C125.843 534.483 126.34 535.913 126.718 537.461C124.815 537.437 123.019 537.307 121.123 537.276C120.636 535.714 120.016 534.284 119.562 532.689Z" fill="#8F7ECE"/>
<path fill-rule="evenodd" clip-rule="evenodd" d="M81.5852 532.782C81.2309 534.232 80.7751 535.579 80.3008 536.91C78.4282 536.872 76.6656 536.943 74.8887 537.002C75.196 535.504 75.7259 534.23 76.1733 532.874C78.0783 532.945 79.7006 532.731 81.5852 532.782Z" fill="#8F7ECE"/>
<path fill-rule="evenodd" clip-rule="evenodd" d="M88.4654 532.783C88.3864 534.171 88.1568 535.411 88.0059 536.728C85.8278 536.659 83.8936 536.834 81.7695 536.819C82.0402 535.502 82.5314 534.402 82.7771 533.058C82.828 532.926 82.9209 532.835 83.0517 532.783C84.8576 532.783 86.6607 532.783 88.4654 532.783Z" fill="#8F7ECE"/>
<path fill-rule="evenodd" clip-rule="evenodd" d="M93.7866 532.783C93.773 534.177 93.4595 535.269 93.5104 536.728C92.1042 536.728 90.6973 536.728 89.291 536.728C89.4925 535.46 89.545 534.047 89.7505 532.783C91.0951 532.783 92.4405 532.783 93.7866 532.783Z" fill="#8F7ECE"/>
<path fill-rule="evenodd" clip-rule="evenodd" d="M67.3659 532.875C66.9172 534.262 66.2877 535.466 65.8983 536.911C64.2167 536.851 62.5405 536.782 60.7617 536.819C61.186 535.471 61.777 534.288 62.1374 532.875C63.8804 532.875 65.6227 532.875 67.3659 532.875Z" fill="#8F7ECE"/>
<path fill-rule="evenodd" clip-rule="evenodd" d="M74.7971 532.875C74.4227 534.334 73.8784 535.626 73.4204 537.002C71.3775 536.967 69.176 537.089 67.2754 536.911C67.6784 535.511 68.2472 534.274 68.6511 532.875C71.101 532.991 71.6651 532.884 74.7971 532.875Z" fill="#8F7ECE"/>
<path fill-rule="evenodd" clip-rule="evenodd" d="M126.717 533.149C128.312 532.932 130.156 533.257 131.854 533.242C132.408 534.674 132.812 536.258 133.321 537.736C131.589 537.666 129.886 537.565 128.093 537.553C127.696 536.021 127.24 534.552 126.717 533.149Z" fill="#8F7ECE"/>
<path fill-rule="evenodd" clip-rule="evenodd" d="M133.322 533.242C135.671 533.432 138.285 533.355 140.57 533.609C141.075 534.968 141.364 536.544 141.763 538.012C139.792 538.026 137.203 537.862 135.065 537.736C134.576 537.229 134.319 536.43 134.056 535.718C133.783 534.979 133.618 534.207 133.323 533.517C133.322 533.425 133.322 533.333 133.322 533.242Z" fill="#8F7ECE"/>
<path fill-rule="evenodd" clip-rule="evenodd" d="M111.124 538.378C111.397 538.637 111.598 539.214 111.766 539.662C112.234 540.918 112.615 542.474 112.957 543.975C102.225 543.839 91.4913 543.944 80.8516 544.341C81.2493 542.261 81.6647 540.201 82.1362 538.195C91.8289 537.866 100.945 538.076 111.124 538.378Z" fill="#8F7ECE"/>
<path fill-rule="evenodd" clip-rule="evenodd" d="M59.569 538.102C58.8306 540.515 57.9264 542.758 57.0935 545.074C55.5709 544.915 53.9174 544.886 53.332 543.79C53.3595 541.401 54.18 539.806 54.891 538.102C56.4516 538.102 58.01 538.102 59.569 538.102Z" fill="#8F7ECE"/>
<path fill-rule="evenodd" clip-rule="evenodd" d="M61.1293 538.102C62.4198 538.249 63.9242 538.181 65.3478 538.194C64.9126 540.603 64.2291 542.764 63.6045 544.983C62.0316 545.121 60.2628 545.065 58.5605 545.074C58.8312 543.973 59.3598 542.869 59.753 541.68C60.1702 540.42 60.3566 539.016 61.1293 538.102Z" fill="#8F7ECE"/>
<path fill-rule="evenodd" clip-rule="evenodd" d="M80.8503 538.194C80.3751 540.287 79.9307 542.411 79.3823 544.432C77.1321 544.445 74.9926 544.567 72.8691 544.708C73.3931 542.417 74.2516 540.464 74.8877 538.287C76.9654 538.346 78.8423 538.205 80.8503 538.194Z" fill="#8F7ECE"/>
<path fill-rule="evenodd" clip-rule="evenodd" d="M73.5136 538.287C72.8999 540.547 72.0923 542.616 71.3128 544.709C69.3575 544.925 67.1412 544.879 65.0742 544.984C65.5109 542.789 66.1876 540.836 66.5428 538.562C66.5382 538.406 66.6104 538.324 66.7261 538.287C68.9884 538.287 71.251 538.287 73.5136 538.287Z" fill="#8F7ECE"/>
<path fill-rule="evenodd" clip-rule="evenodd" d="M112.592 538.378C115.283 538.347 117.728 538.561 120.389 538.561C121.018 540.408 121.542 542.362 122.04 544.341C119.471 544.281 117.067 544.054 114.426 544.066C113.888 542.096 113.298 540.179 112.592 538.378Z" fill="#8F7ECE"/>
<path fill-rule="evenodd" clip-rule="evenodd" d="M121.766 538.654C123.982 538.638 125.958 538.863 128.186 538.838C128.72 540.872 129.322 542.837 129.929 544.8C127.75 544.685 125.597 544.546 123.416 544.433C122.972 542.401 122.298 540.597 121.766 538.654Z" fill="#8F7ECE"/>
<path fill-rule="evenodd" clip-rule="evenodd" d="M129.469 539.02C131.035 538.83 132.911 539.125 134.606 539.112C135.574 540.926 135.954 543.33 136.716 545.35C135.066 545.47 133.235 544.977 131.396 544.983C130.749 543.001 130.102 541.017 129.469 539.02Z" fill="#8F7ECE"/>
<path fill-rule="evenodd" clip-rule="evenodd" d="M136.074 539.112C137.996 539.301 140.152 539.253 142.037 539.48C142.22 540.295 142.569 541.243 142.771 542.232C142.967 543.193 143.24 544.569 142.862 545.258C142.146 546.569 139.594 545.641 138.092 545.625C137.573 543.3 136.722 541.309 136.074 539.112Z" fill="#8F7ECE"/>
<path opacity="0.75" fill-rule="evenodd" clip-rule="evenodd" d="M86.0791 547.001C87.7606 546.703 90.6682 546.91 92.9595 546.91C97.5584 546.91 101.775 547.093 106.259 547.093C108.051 547.093 111.233 546.606 112.497 547.368C113.739 548.114 114.183 550.733 114.424 552.781C114.471 553.178 114.664 554.442 114.332 554.89C113.849 555.539 111.768 555.215 110.571 555.165C102.306 554.832 95.1832 554.982 86.2611 554.982C85.2952 554.982 83.115 555.278 82.6842 554.431C82.2309 553.542 83.1209 551.925 83.5094 550.671C84.1007 548.762 84.1593 547.342 86.0791 547.001Z" fill="white"/>
<path fill-rule="evenodd" clip-rule="evenodd" d="M59.6191 552.913C59.7287 551.869 59.9089 549.686 61.0717 550.144C61.7531 550.411 61.6747 551.966 61.5874 553.005C61.4793 554.298 61.3655 555.477 60.9896 556.52C60.8146 557.001 60.4733 557.417 60.1311 557.399C59.4726 557.362 59.0671 556.437 58.7795 555.945C58.0487 554.705 57.6145 554.008 56.9125 552.629C56.6532 552.119 56.1891 551.202 56.6347 550.67C56.7319 550.554 57.0371 550.44 57.2158 550.454C57.8728 550.5 58.3064 551.133 58.6594 551.561C59.076 552.069 59.355 552.46 59.6191 552.913Z" fill="#FF5000"/>
<path fill-rule="evenodd" clip-rule="evenodd" d="M51.0195 550.922C50.0727 550.09 48.7121 548.766 47.5249 548.35C47.2117 548.241 46.6223 548.108 46.2359 548.457C45.9965 548.676 45.9934 549.186 46.0847 549.537C46.319 550.431 46.9448 551.244 47.5191 551.944C48.0622 552.604 48.6714 553.156 49.2552 553.654C49.7258 554.057 50.4461 554.66 51.1321 555.044C51.7055 555.366 52.8645 555.882 53.5428 555.426C54.3202 554.904 54.1224 553.392 54.0205 552.358C53.8777 550.907 53.5262 548.75 52.4418 547.214C52.1566 546.811 51.7138 546.404 51.2972 546.556C50.6013 546.808 50.7062 548.028 50.7109 548.56C50.7158 549.385 50.7639 550.081 51.0195 550.922Z" fill="#FF5000"/>
<path fill-rule="evenodd" clip-rule="evenodd" d="M42.1324 559.274C43.1387 558.983 44.8437 559.455 46.4895 560.016C47.1946 560.255 48.3299 560.664 48.1846 561.318C48.0136 562.104 46.6515 561.847 46.1654 561.751C44.6231 561.453 42.8221 560.781 41.9689 560.142C41.8519 559.922 41.9491 559.492 42.1324 559.274Z" fill="white"/>
<path fill-rule="evenodd" clip-rule="evenodd" d="M50.0765 558.389C50.1185 556.7 53.7444 557.411 53.3248 558.749C53.1421 559.329 51.259 559.64 50.4681 559.181C50.1845 559.017 50.0691 558.682 50.0765 558.389Z" fill="white"/>
<path fill-rule="evenodd" clip-rule="evenodd" d="M53.8087 560.86C53.7615 560.261 54.5342 559.864 55.3998 559.776C56.0948 559.705 57.4584 559.888 57.2813 560.673C57.2066 561.021 56.6271 561.421 55.9099 561.513C55.0696 561.621 53.871 561.63 53.8087 560.86Z" fill="white"/>
<path fill-rule="evenodd" clip-rule="evenodd" d="M62.3231 460.901C69.2958 460.568 76.5153 461.037 83.421 460.901C90.2431 460.767 97.2034 460.713 104.152 460.992C110.419 461.245 117.517 461.451 124.7 461.451C129.045 461.451 135.187 461.01 140.111 461.083C142.959 461.129 144.749 461.37 145.614 463.103C146.314 464.498 146.158 466.977 146.074 469.982C146.006 472.392 146.029 475.245 145.982 477.504C145.876 482.457 145.707 487.156 145.707 492.457C145.705 497.486 145.736 502.361 145.614 507.409C145.483 512.888 146.462 520.858 143.139 522.82C142.13 523.414 139.915 523.461 137.91 523.461C135.899 523.461 133.848 523.334 132.221 523.278C120.707 522.881 109.029 522.911 97.5466 522.911C90.1039 522.912 82.6943 522.545 74.5221 522.545C68.9847 522.545 62.8693 522.772 57.5516 521.902C55.7781 521.614 53.7747 520.987 53.1489 519.885C52.3237 518.428 52.0704 515.988 51.8645 513.554C50.8385 501.469 51.4973 489.32 51.4973 476.311C51.4973 473.96 51.6655 471.22 51.7735 468.972C51.8954 466.422 51.8244 463.678 52.8733 462.552C53.6797 461.688 55.4121 461.463 57.0943 461.268C58.9394 461.053 60.7601 460.975 62.3231 460.901Z" fill="#8F7ECE"/>
<path fill-rule="evenodd" clip-rule="evenodd" d="M59.7551 463.927C62.8611 463.558 66.9086 464.016 70.3044 464.11C73.7702 464.206 77.2033 464.361 80.5778 464.477C87.4597 464.715 94.4793 464.588 101.491 464.293C108.521 463.997 115.032 463.835 122.406 463.835C125.696 463.835 129.208 463.927 132.955 463.927C134.678 463.927 136.534 463.78 138.093 463.927C139.715 464.08 141.178 464.606 141.763 465.578C142.51 466.821 142.312 469.875 142.312 471.723C142.312 474.179 142.221 476.249 142.221 478.237C142.221 482.859 142.496 487.022 142.496 491.263C142.496 495.899 142.534 499.724 142.679 504.381C142.746 506.503 142.613 508.74 142.679 510.801C142.744 512.827 142.829 515.942 142.038 517.132C141.39 518.101 139.793 518.725 138.002 518.69C132.886 518.592 126.951 519.109 121.766 518.874C114.382 518.539 107.046 518.965 100.299 518.967C92.6663 518.967 85.8998 519.137 78.2834 518.874C73.2456 518.7 67.2585 519.04 62.0476 518.69C60.1766 518.565 58.2411 518.557 57.3697 517.865C56.3519 517.055 56.0714 514.395 55.9026 512.269C55.365 505.537 55.6502 498.551 55.9939 491.814C56.2235 487.315 56.2235 483.094 56.4531 478.237C56.5491 476.21 56.5445 473.987 56.5445 471.541C56.5445 467.995 56.0896 464.041 59.5705 463.927C59.6304 463.925 59.6952 463.934 59.7551 463.927Z" fill="#4D3D87"/>
<path opacity="0.75" fill-rule="evenodd" clip-rule="evenodd" d="M68.78 491.876C69.076 493.418 69.3914 495.394 69.6173 497.214C69.7885 498.562 70.2554 499.909 69.7672 500.897C68.9541 500.869 68.4372 500.075 67.9329 499.6C66.3693 498.122 64.6452 496.668 63.0488 495.12C64.1971 493.499 66.0178 492.356 68.78 491.876Z" fill="white"/>
<path fill-rule="evenodd" clip-rule="evenodd" d="M68.1085 501.101C65.6277 501.559 62.7658 501.723 60.3267 501.795C59.9342 499.633 60.856 497.819 61.9064 496.445C61.9589 496.435 62.0098 496.426 62.0622 496.418C63.0448 497.202 64.0968 497.987 65.1318 498.793C66.148 499.584 67.3756 500.166 68.1085 501.101Z" fill="#8F7ECE"/>
<path fill-rule="evenodd" clip-rule="evenodd" d="M70.9501 492.557C74.9233 492.541 78.3206 494.617 80.0697 497.424C80.6613 498.371 81.117 499.545 81.2075 501.076C81.504 506.046 76.573 511.021 71.2819 511.74C67.1621 512.298 63.5716 510.279 61.8596 507.35C61.2665 506.339 60.623 505.066 60.7113 503.627C61.4633 503.285 62.386 503.233 63.2788 503.144C65.0014 502.972 66.7674 502.745 68.5135 502.381C69.2368 502.23 70.5724 502.165 70.9298 501.843C71.2127 501.588 71.1769 500.388 71.1661 499.767C71.1303 497.501 70.731 494.727 70.7622 492.8C70.7881 492.692 70.8514 492.611 70.9501 492.557Z" fill="#EFAD1B"/>
<path fill-rule="evenodd" clip-rule="evenodd" d="M82.984 499.16C82.7165 498.452 82.7375 497.394 82.7575 496.34C82.7736 495.425 82.5773 494.129 83.0738 493.739C83.7895 493.304 85.2476 493.561 86.344 493.601C89.2858 493.71 92.1011 493.645 95.3333 493.588C97.1747 493.554 99.279 493.624 101.331 493.602C102.228 493.594 103.381 493.596 104.333 493.646C105.272 493.697 106.481 493.789 106.828 494.269C107.306 494.933 107.162 496.301 107.081 497.305C107.016 498.061 106.975 499.579 106.549 499.933C106.078 500.325 104.35 500.211 103.512 500.188C98.5594 500.046 93.6321 499.83 88.6146 499.735C87.6228 499.717 86.581 499.719 85.612 499.691C84.6776 499.666 83.6799 499.789 82.984 499.16Z" fill="#B1BC00"/>
<path fill-rule="evenodd" clip-rule="evenodd" d="M96.8014 501.848C96.8378 501.832 96.8508 501.768 96.9353 501.757C98.6273 501.527 99.7454 501.944 101.792 501.996C102.766 502.018 105.876 501.867 106.335 502.639C106.65 503.169 106.415 504.357 106.36 505.048C106.292 505.909 106.217 506.569 106.159 507.415C106.074 508.693 106.201 511.219 105.261 511.699C104.608 512.033 103.565 511.76 102.779 511.733C101.885 511.702 101.108 511.694 100.29 511.696C98.752 511.7 96.4215 511.925 95.8617 510.816C95.5902 510.279 95.7012 509.311 95.7645 508.417C95.817 507.676 95.8617 506.864 95.9031 506.134C95.9494 505.289 95.925 504.741 95.9592 503.785C95.9882 503.001 96.1533 502.118 96.8014 501.848Z" fill="#8F7ECE"/>
<path opacity="0.75" fill-rule="evenodd" clip-rule="evenodd" d="M94.3508 502.718C94.2968 503.086 94.249 503.458 94.286 503.896C90.415 503.918 86.7705 503.644 82.9214 503.638C82.8591 503.317 82.8452 502.512 83.0211 502.163C86.7767 502.375 90.6711 502.407 94.3508 502.718Z" fill="white"/>
<path opacity="0.75" fill-rule="evenodd" clip-rule="evenodd" d="M94.0442 505.39C94.1485 505.644 94.0624 506.25 93.9781 506.568C90.1207 506.659 86.5271 506.403 82.707 506.443C82.7839 506.05 82.6972 505.533 82.8332 505.185C86.5827 505.237 90.1679 505.502 94.0442 505.39Z" fill="white"/>
<path opacity="0.75" fill-rule="evenodd" clip-rule="evenodd" d="M93.8751 508.556C93.8242 508.97 93.8227 509.422 93.7489 509.815C90.1485 509.594 86.4843 509.46 82.6704 509.517C82.6346 508.973 82.6377 508.46 82.6886 507.979C86.4195 508.169 90.0556 508.481 93.8751 508.556Z" fill="white"/>
<path fill-rule="evenodd" clip-rule="evenodd" d="M113.097 499.513C112.83 498.805 112.853 497.747 112.872 496.693C112.889 495.778 112.693 494.483 113.189 494.092C113.904 493.658 115.362 493.914 116.459 493.954C119.401 494.062 122.218 493.997 125.449 493.94C127.291 493.908 129.396 493.977 131.445 493.957C132.342 493.946 133.497 493.948 134.447 493.999C135.388 494.05 136.596 494.142 136.943 494.621C137.422 495.286 137.279 496.653 137.196 497.658C137.134 498.413 137.089 499.931 136.664 500.286C136.194 500.677 134.464 500.564 133.628 500.541C128.674 500.399 123.747 500.183 118.729 500.087C117.737 500.069 116.697 500.071 115.727 500.044C114.792 500.019 113.794 500.142 113.097 499.513Z" fill="#B1BC00"/>
<path fill-rule="evenodd" clip-rule="evenodd" d="M126.914 502.202C126.95 502.185 126.966 502.122 127.048 502.11C128.741 501.881 129.86 502.299 131.905 502.348C132.878 502.373 135.989 502.221 136.448 502.994C136.763 503.522 136.527 504.71 136.474 505.403C136.405 506.261 136.33 506.921 136.272 507.768C136.187 509.048 136.314 511.571 135.373 512.052C134.721 512.387 133.68 512.113 132.893 512.086C131.997 512.057 131.22 512.047 130.403 512.049C128.865 512.054 126.534 512.279 125.976 511.17C125.703 510.634 125.814 509.665 125.877 508.77C125.931 508.029 125.977 507.217 126.016 506.486C126.062 505.642 126.038 505.094 126.075 504.138C126.101 503.356 126.266 502.473 126.914 502.202Z" fill="#8F7ECE"/>
<path opacity="0.75" fill-rule="evenodd" clip-rule="evenodd" d="M124.463 503.073C124.409 503.438 124.361 503.813 124.399 504.249C120.528 504.271 116.883 503.997 113.035 503.991C112.973 503.669 112.958 502.866 113.133 502.516C116.891 502.727 120.784 502.761 124.463 503.073Z" fill="white"/>
<path opacity="0.75" fill-rule="evenodd" clip-rule="evenodd" d="M124.157 505.744C124.262 505.997 124.175 506.603 124.093 506.922C120.233 507.013 116.641 506.756 112.82 506.797C112.898 506.405 112.811 505.886 112.946 505.538C116.696 505.591 120.28 505.857 124.157 505.744Z" fill="white"/>
<path opacity="0.75" fill-rule="evenodd" clip-rule="evenodd" d="M123.989 508.908C123.937 509.323 123.937 509.775 123.862 510.168C120.261 509.949 116.597 509.815 112.784 509.87C112.747 509.325 112.752 508.812 112.801 508.334C116.533 508.522 120.168 508.835 123.989 508.908Z" fill="white"/>
<path fill-rule="evenodd" clip-rule="evenodd" d="M75.9304 472.923C75.5913 471.934 75.4537 470.511 75.8764 469.812C76.5717 469.348 78.0897 469.553 79.171 469.482C82.1554 469.283 85.141 469.215 88.1285 469.069C97.9989 468.583 107.574 468.649 117.082 469.023C118.678 469.086 121.738 468.833 122.406 469.649C123.115 470.517 122.938 473.002 122.506 473.389C121.996 473.844 120.677 473.743 119.534 473.737C116.805 473.721 113.067 473.737 110.729 473.719C106.599 473.686 102.957 473.434 99.2188 473.356C93.358 473.233 87.5079 473.206 81.5333 473.334C80.5637 473.355 79.5641 473.377 78.5785 473.358C77.7055 473.341 76.6779 473.511 75.9304 472.923Z" fill="#EFAD1B"/>
<path opacity="0.75" fill-rule="evenodd" clip-rule="evenodd" d="M117.339 476.735C110.752 476.708 104.151 476.714 97.5697 476.646C85.3053 476.516 72.4845 476.575 59.4062 477.217L59.6763 479.203C65.6618 478.995 71.5503 478.664 77.326 478.532C91.0522 478.219 104.068 478.567 117.109 478.68C123.683 478.736 130.292 478.664 136.889 478.847C137.045 478.163 137.269 477.512 137.221 476.73C130.46 477.084 123.923 476.763 117.339 476.735Z" fill="white"/>
<path opacity="0.75" fill-rule="evenodd" clip-rule="evenodd" d="M60.1455 480.65C73.4943 480.584 124.08 481.964 137.274 482.114C137.292 482.743 137.212 483.304 137.177 483.895C130.878 483.491 86.4 482.823 79.852 482.641C73.3434 482.461 66.7296 482.578 60.1291 482.419C60.1023 481.805 60.0072 481.148 60.1455 480.65Z" fill="white"/>
<path opacity="0.75" fill-rule="evenodd" clip-rule="evenodd" d="M137.242 486.443C137.184 487.202 137.179 487.997 137.255 488.849C126.775 488.347 71.1788 487.276 60.3937 487.189C60.3595 486.434 60.3533 485.7 60.2363 484.889C71.0828 484.916 126.644 486.071 137.242 486.443Z" fill="white"/>
<path fill-rule="evenodd" clip-rule="evenodd" d="M142.133 466.688C142.969 466.859 142.723 468.739 142.526 469.912C142.382 470.781 142.055 471.722 141.43 471.464C141.092 471.328 140.972 470.722 140.904 470.272C140.744 469.223 140.862 467.403 141.302 466.993C141.506 466.802 141.847 466.631 142.133 466.688Z" fill="white"/>
<path fill-rule="evenodd" clip-rule="evenodd" d="M141.977 474.18C142.422 474.852 142.343 476.576 141.286 476.226C140.29 475.896 141.149 472.927 141.977 474.18Z" fill="white"/>
<path fill-rule="evenodd" clip-rule="evenodd" d="M55.7936 504.881C56.6484 505.6 57.136 510.115 55.5906 510.186C54.3303 510.24 53.9911 506.247 54.7744 505.187C54.9768 504.914 55.1866 504.808 55.7936 504.881Z" fill="white"/>
<path fill-rule="evenodd" clip-rule="evenodd" d="M55.9986 512.122C57.4024 511.895 57.6079 515.348 56.3044 515.387C55.7535 515.404 55.5934 515.038 55.3848 514.367C55.0796 513.377 55.0157 512.281 55.9986 512.122Z" fill="white"/>
<path fill-rule="evenodd" clip-rule="evenodd" d="M174.729 566.736C171.02 567.679 167.451 568.617 164.282 570.062C159.955 572.034 156.232 574.684 152.781 577.306C145.503 582.835 139.164 589.087 131.908 594.425C128.297 597.082 124.505 599.594 119.838 600.99C115.214 602.373 109.82 603.139 103.56 602.618C97.4402 602.11 91.896 600.724 87.4773 598.52C83.1573 596.365 79.5267 593.56 78.4543 588.435C85.5927 588.084 92.5712 586.682 97.2689 583.017C98.9779 581.685 101.441 578.827 100.403 576.054C99.2387 572.945 94.3537 572.582 90.7511 573.075C88.0803 573.444 85.8701 574.357 84.0219 575.314C79.8923 577.454 76.6669 580.236 75.7572 585.992C66.824 585.954 58.3074 584.792 51.5199 582.433C44.5997 580.028 39.1043 576.336 35.1783 571.463C33.1515 568.953 31.6169 566.089 31.5073 562.247C31.3811 557.802 33.128 554.6 35.2302 552.189C36.946 550.22 38.9645 548.699 41.2811 547.528C41.2811 547.528 42.7383 544.323 42.7414 544.3C42.0973 544.397 40.983 544.782 40.2606 545.158C37.1324 546.778 34.5139 548.87 32.4544 551.548C30.2581 554.409 28.759 558.42 29.0321 562.658C29.299 566.777 30.7395 569.849 32.8744 572.598C36.9401 577.834 42.6321 581.837 50.0766 584.509C57.4332 587.147 66.2167 588.554 75.9272 588.528C77.3196 596.25 84.0923 600.622 91.9593 603.01C98.4533 604.981 106.051 605.623 112.482 604.981C114.613 604.77 116.627 604.251 118.703 604.038C120.761 603.825 122.945 603.57 125.203 603.511C129.849 603.389 134.858 603.876 139.277 603.654C141.503 603.541 143.658 603.249 145.711 602.965C152.675 601.998 159.733 600.14 165.484 597.396C166.481 596.919 167.547 596.459 167.531 595.609C167.493 593.481 163.996 595.493 163.43 595.719C158.817 597.562 154.01 598.964 149.132 599.883C142.255 601.178 134.539 601.481 126.366 601.018C135.33 595.96 142.483 588.968 150.439 582.451C156.191 577.737 162.147 572.961 170.218 570.586C171.422 570.232 172.68 569.86 174.174 569.441C175.147 569.168 177.58 569.03 177.64 567.623C177.715 565.9 175.76 566.473 174.729 566.736ZM84.0923 578.076C86.9391 576.388 90.5833 575.172 94.249 575.353C95.8797 575.435 97.8614 576.02 98.1065 577.111C98.5036 578.877 96.0583 580.806 95.1221 581.491C90.8409 584.619 84.8305 585.461 78.4419 585.916C78.8468 582.05 81.302 579.729 84.0923 578.076Z" fill="#8F7ECE"/>
<path opacity="0.75" fill-rule="evenodd" clip-rule="evenodd" d="M174.729 566.736C171.02 567.679 167.451 568.617 164.282 570.062C159.955 572.034 156.232 574.684 152.781 577.306C145.503 582.835 139.164 589.087 131.908 594.425C128.297 597.082 124.505 599.594 119.838 600.99C115.214 602.373 109.82 603.139 103.56 602.618C97.4402 602.11 91.896 600.724 87.4773 598.52C83.1573 596.365 79.5267 593.56 78.4543 588.435C85.5927 588.084 92.5712 586.682 97.2689 583.017C98.9779 581.685 101.441 578.827 100.403 576.054C99.2387 572.945 94.3537 572.582 90.7511 573.075C88.0803 573.444 85.8701 574.357 84.0219 575.314C79.8923 577.454 76.6669 580.236 75.7572 585.992C66.824 585.954 58.3074 584.792 51.5199 582.433C44.5997 580.028 39.1043 576.336 35.1783 571.463C33.1515 568.953 31.6169 566.089 31.5073 562.247C31.3811 557.802 33.128 554.6 35.2302 552.189C36.946 550.22 38.9645 548.699 41.2811 547.528C41.2811 547.528 42.7383 544.323 42.7414 544.3C42.1893 544.362 40.983 544.782 40.2606 545.158C37.1324 546.778 34.5139 548.87 32.4544 551.548C30.2581 554.409 28.759 558.42 29.0321 562.658C29.299 566.777 30.7395 569.849 32.8744 572.598C36.9401 577.834 42.6321 581.837 50.0766 584.509C57.4332 587.147 66.2167 588.554 75.9272 588.528C77.3196 596.25 84.0923 600.622 91.9593 603.01C98.4533 604.981 106.051 605.623 112.482 604.981C114.613 604.77 116.627 604.251 118.703 604.038C120.761 603.825 122.945 603.57 125.203 603.511C129.849 603.389 134.858 603.876 139.277 603.654C141.503 603.541 143.658 603.249 145.711 602.965C152.675 601.998 159.733 600.14 165.484 597.396C166.481 596.919 167.547 596.459 167.531 595.609C167.493 593.481 163.996 595.493 163.43 595.719C158.817 597.562 154.01 598.964 149.132 599.883C142.255 601.178 134.539 601.481 126.366 601.018C135.33 595.96 142.483 588.968 150.439 582.451C156.191 577.737 162.147 572.961 170.218 570.586C171.422 570.232 172.68 569.86 174.174 569.441C175.147 569.168 177.58 569.03 177.64 567.623C177.715 565.9 175.76 566.473 174.729 566.736ZM84.0923 578.076C86.9391 576.388 90.5833 575.172 94.249 575.353C95.8797 575.435 97.8614 576.02 98.1065 577.111C98.5036 578.877 96.0583 580.806 95.1221 581.491C90.8409 584.619 84.8305 585.461 78.4419 585.916C78.8468 582.05 81.302 579.729 84.0923 578.076Z" fill="white"/>
<path fill-rule="evenodd" clip-rule="evenodd" d="M172.27 591.025C169.534 592.419 166.798 593.812 164.055 595.272C164.364 596.11 164.637 596.941 165.017 597.79C168.385 596.423 175.077 594.17 178.828 590.47C180.345 588.975 181.608 586.301 179.263 584.611C177.109 583.062 172.148 585.052 171.722 588.171C171.584 589.164 171.971 589.963 172.27 591.025Z" fill="#8F7ECE"/>
<path fill-rule="evenodd" clip-rule="evenodd" d="M173.97 590.062C174.69 590.136 177.244 588.989 176.726 588.051C176.381 587.427 175.381 588.023 174.781 588.325C174.322 588.559 173.172 588.866 173.322 589.606C173.4 590.009 173.772 590.042 173.97 590.062Z" fill="white"/>
<path fill-rule="evenodd" clip-rule="evenodd" d="M177.516 585.168C176.849 584.775 175.871 585.551 176.139 586.176C176.477 586.953 178.673 585.857 177.516 585.168Z" fill="white"/>
<path fill-rule="evenodd" clip-rule="evenodd" d="M177.417 568.954C174.446 569.723 171.474 570.491 168.454 571.216C168.127 570.383 167.783 569.58 167.504 568.695C170.932 567.486 177.438 564.736 182.698 565.019C184.824 565.137 187.543 566.3 186.906 569.118C186.32 571.706 181.286 573.504 178.9 571.453C178.142 570.8 177.899 569.949 177.417 568.954Z" fill="#8F7ECE"/>
<path fill-rule="evenodd" clip-rule="evenodd" d="M179.329 568.547C179.818 568.014 182.492 567.181 182.727 568.227C182.883 568.921 181.736 569.141 181.087 569.309C180.589 569.435 179.525 569.97 179.145 569.317C178.94 568.964 179.196 568.696 179.329 568.547Z" fill="white"/>
<path fill-rule="evenodd" clip-rule="evenodd" d="M185.229 569.863C184.993 570.596 183.743 570.664 183.533 570.018C183.266 569.214 185.641 568.579 185.229 569.863Z" fill="white"/>
</svg>
