<svg width="280" height="240" fill="none" xmlns="http://www.w3.org/2000/svg"><path d="M224.578 196.042c-11.37 7.13-28.15 4.43-42.79 6.15-12.4 1.42-23.7 6.12-35.44 9.66-11.65 3.49-24.31 5.74-36.18 2.27-8.14-2.38-15.15-7.27-22.83-10.7-9.22-4.16-19.28-6.14-28.77-9.54-9.42-3.44-18.7-8.83-23.1-17.32-5.2-10.26-2.41-22.24-4.41-33.41-2.23-12.62-10.36-23.8-13.76-36.27-2.36-8.83.04-18.97 2.86-27.23 2.96-8.72 11.2-18.07 19.1-22.54 2.57-1.44 5.1-2.87 7.51-4.51 1.05-.72 6.59-3.72 6.56-5.01 6.15-5.24 9.73-12.27 14.97-17.98 5.41-5.82 13.44-8.86 21.9-9.67 7.64-.74 15.48-.62 23.33.26 8.36.85 16.3 2.2 23.95.04 1.57-.48 3.1-1.1 4.65-1.63 10.41-3.65 24.65-1.96 34.94 3.21 3.96 1.96 7.41 4.88 10.77 7.82 4.19 3.47 8 7.46 11.32 11.85 3.11 4.23 4.61 9.3 8.45 13.23 2.6 2.62 5.22 5.49 7.8 8 4.02 3.86 9.57 5.52 13.5 9.66 3.97 4.14 6.38 9.33 8.31 14.38 2.47 6.46 4.41 13.18 5.07 20.21 1.69 11.94-2.09 21.52-6.03 31.85-1.38 3.43-2.75 6.96-2.68 10.86.11 1.86.35 3.74.72 5.63.9 5.51.66 10.64.8 16.02.19 9.44-2.13 19.24-10.52 24.71z" fill="#EFF2FD"/></svg>