<svg width="228" height="207" fill="none" xmlns="http://www.w3.org/2000/svg"><path d="M38.158 205.099a4.887 4.887 0 01-.825-1.105 5.141 5.141 0 01-.722-2.627v-36.143h-5.159a30.985 30.985 0 01-21.878-9.085 31.026 31.026 0 01-9.076-21.895V30.979A31.024 31.024 0 019.574 9.085 30.98 30.98 0 0131.452 0h165.091a30.982 30.982 0 0121.878 9.085 31.026 31.026 0 019.076 21.894v103.265a31.026 31.026 0 01-9.076 21.895 30.983 30.983 0 01-21.878 9.085H85.333L45.93 204.785a5.925 5.925 0 01-4.174 1.781 5.023 5.023 0 01-3.61-1.467h.012zm8.771-45.039v28.744l31.987-32.116a5.916 5.916 0 014.127-1.792h113.502a20.628 20.628 0 0014.592-6.049 20.66 20.66 0 006.044-14.603V30.978a20.66 20.66 0 00-6.044-14.603 20.628 20.628 0 00-14.592-6.049H31.455a20.628 20.628 0 00-14.592 6.049 20.661 20.661 0 00-6.044 14.603v103.266a20.66 20.66 0 006.044 14.603 20.628 20.628 0 0014.591 6.049h10.319a5.16 5.16 0 015.158 5.164h-.002zm108.342-77.448c0-2.74 1.087-5.366 3.022-7.303a10.313 10.313 0 0114.592 0 10.331 10.331 0 010 14.605 10.315 10.315 0 01-14.592 0 10.331 10.331 0 01-3.022-7.302zm-51.593 0c0-2.74 1.087-5.366 3.022-7.303a10.316 10.316 0 0117.615 7.303 10.33 10.33 0 01-3.022 7.302 10.313 10.313 0 01-14.593 0 10.331 10.331 0 01-3.022-7.302zm-51.592 0h.001c0-2.74 1.087-5.366 3.022-7.303a10.314 10.314 0 0114.592 0 10.331 10.331 0 010 14.605 10.314 10.314 0 01-14.592 0 10.331 10.331 0 01-3.022-7.302h-.001z" fill="#EDF0F2" fill-opacity=".8"/></svg>