<svg width="280" height="240" fill="none" xmlns="http://www.w3.org/2000/svg"><path d="M210.942 207.383c-11.62 4.32-26.69-1.26-40.34-2.45-11.51-1-22.25.95-33.22 1.89-10.84 1.37-22.48 2.46-33.06-.88-7.28-2.29-13.45-6.56-20.32-9.65-8.3-3.67-17.47-5.53-26.11-8.42-8.61-2.79-17.14-6.92-21.22-13.3-4.9-7.54-2.41-16.85-4.43-25.25-2.34-9.54-10.12-16.97-13.81-26.42-3.08-7.51-2.25-17.84-.75-26.44 1.61-9.06 8.41-19.57 15.76-25.14 2.42-1.79 4.83-3.56 7.12-5.52 1.01-.86 6.44-4.6 6.29-5.87 5.98-6.09 9.21-13.67 14.44-20.25 5.52-6.8 14.19-11.2 23.53-13.35 8.47-1.97 17.23-3.05 26.09-3.24 9.54-.13 18.83.66 27.89-2.21 1.9-.6 3.75-1.34 5.64-1.96 12.86-4.17 30.42-2.32 42.83 3.43 4.72 2.2 8.71 5.48 12.54 8.81 4.73 3.96 8.87 8.55 12.31 13.61 3.12 4.92 4.17 10.75 8.09 15.43 2.62 3.16 5.2 6.64 7.78 9.72 3.97 4.78 10.05 7.28 13.8 12.52 3.77 5.29 5.56 11.63 6.81 17.75 1.59 7.84 2.47 15.85 1.64 23.65-1.34 12.46-8.18 21.21-15.16 30.73-2.32 3.13-4.65 6.37-5.53 10.2-.35 1.84-.56 3.71-.64 5.61-.41 5.49-1.87 10.41-2.96 15.61-1.91 9.04-6.14 17.86-15.01 21.39z" fill="#EFF2FD"/></svg>