<svg width="42" height="252" fill="none" xmlns="http://www.w3.org/2000/svg"><rect x="4" y="88" width="34" height="34" rx="17" fill="#fff"/><path d="M24.34 104.794l-5.404 2.8-.002-5.62 5.405 2.82z" fill="#EA412C"/><path fill-rule="evenodd" clip-rule="evenodd" d="M1 105c0-11.046 8.954-20 20-20s20 8.954 20 20c0 11.045-8.954 20-20 20s-20-8.955-20-20zm29.8 3.993s.2-1.619.2-3.238v-1.517c0-1.619-.2-3.237-.2-3.237s-.195-1.379-.795-1.986c-.686-.718-1.446-.792-1.876-.833L28 98.169c-2.799-.203-6.997-.203-6.997-.203h-.008s-4.198 0-6.997.203l-.128.013c-.43.041-1.19.115-1.876.833-.6.608-.795 1.986-.795 1.986s-.2 1.618-.2 3.237v1.517c0 1.619.2 3.238.2 3.238s.195 1.377.795 1.984c.63.66 1.425.756 1.932.817.104.013.197.024.273.039 1.6.152 6.8.199 6.8.199s4.203-.006 7.001-.208c.039-.005.081-.009.128-.013.43-.042 1.19-.115 1.876-.834.6-.607.795-1.984.795-1.984z" fill="#EA412C"/><rect x="4" y="130" width="34" height="34" rx="17" fill="#fff"/><path d="M21 127c-11.046 0-20 8.954-20 20s8.954 20 20 20 20-8.954 20-20-8.954-20-20-20zm11.737 27.308l-3.45.047s-.742.148-1.716-.526c-1.292-.887-2.508-3.19-3.455-2.895-.947.295-.932 2.369-.932 2.369a1.14 1.14 0 01-.213.679 1.32 1.32 0 01-.705.307h-1.529s-3.421.203-6.408-2.918c-3.284-3.389-6.176-10.161-6.176-10.161s-.17-.392.016-.657c.16-.23.557-.254.757-.264.864-.04 3.458-.023 3.458-.023.217-.006.363.006.632.123.23.115.406.285.518.558.4.994.863 1.961 1.387 2.895 1.542 2.666 2.26 3.247 2.784 2.963.76-.416.527-3.766.527-3.766s0-1.218-.384-1.757a1.736 1.736 0 00-1.14-.598c-.208-.029.134-.51.576-.726.664-.326 1.837-.326 3.221-.326a6.569 6.569 0 011.81.184c1.275.308.843 1.492.843 4.339 0 .911-.166 2.195.492 2.632.284.181.974.026 2.705-2.911a22.555 22.555 0 001.435-3.026c.077-.166.195-.31.342-.419a.89.89 0 01.502-.086l3.885-.027s1.165-.139 1.355.39c.19.529-.437 1.842-2.024 3.947-2.605 3.474-2.895 3.158-.731 5.155 2.065 1.919 2.494 2.853 2.565 2.969.858 1.416-.947 1.529-.947 1.529z" fill="#4C75A3"/><rect x="4" y="214" width="34" height="34" rx="17" fill="#fff"/><path fill-rule="evenodd" clip-rule="evenodd" d="M41 231c0 11.046-8.954 20-20 20s-20-8.954-20-20 8.954-20 20-20 20 8.954 20 20zm-23.039-3.422v-3.195c-.003-.694-.016-4.399 4.875-4.406h3.516v4.015h-2.586c-.516 0-1.031.532-1.031.922v2.641h3.609a51.981 51.981 0 01-.445 3.875H22.71v10.586h-4.75v-10.578h-2.31v-3.86h2.312z" fill="#3F65A6"/><rect x="4" y="172" width="34" height="34" rx="17" fill="#fff"/><path d="M16.447 189a4.552 4.552 0 109.104 0 4.552 4.552 0 00-9.104 0z" fill="url(#paint0_linear_442_1560)"/><path fill-rule="evenodd" clip-rule="evenodd" d="M26.516 177.888c-1.44-.068-1.872-.08-5.516-.08s-4.076.012-5.516.08c-1.332.064-2.056.284-2.536.472a4.242 4.242 0 00-1.568 1.02 4.242 4.242 0 00-1.02 1.568c-.188.48-.412 1.204-.472 2.536-.068 1.44-.08 1.872-.08 5.516s.016 4.076.08 5.516c.064 1.332.284 2.056.472 2.536a4.242 4.242 0 001.02 1.568c.476.476.932.772 1.568 1.02.48.188 1.204.412 2.536.472 1.44.068 1.872.08 5.516.08s4.076-.016 5.516-.08c1.332-.064 2.056-.284 2.536-.472a4.242 4.242 0 001.568-1.02 4.242 4.242 0 001.02-1.568c.188-.48.412-1.204.472-2.536.068-1.44.08-1.872.08-5.516s-.016-4.076-.08-5.516c-.064-1.332-.284-2.056-.472-2.536a4.242 4.242 0 00-1.02-1.568 4.242 4.242 0 00-1.568-1.02c-.48-.188-1.204-.412-2.536-.472zM13.987 189a7.013 7.013 0 1114.026.002A7.013 7.013 0 0113.987 189zm14.301-5.648a1.64 1.64 0 100-3.28 1.64 1.64 0 000 3.28z" fill="url(#paint1_linear_442_1560)"/><path fill-rule="evenodd" clip-rule="evenodd" d="M1 189c0 11.044 8.956 20 20 20s20-8.956 20-20-8.956-20-20-20-20 8.956-20 20zm14.372-13.568c1.456-.068 1.92-.084 5.628-.084s4.172.016 5.624.08c1.456.068 2.448.3 3.316.636.9.352 1.66.816 2.42 1.576a6.673 6.673 0 011.576 2.412c.34.872.568 1.864.636 3.316.068 1.456.084 1.92.084 5.628s-.016 4.172-.084 5.628c-.068 1.456-.3 2.448-.636 3.316a6.72 6.72 0 01-1.576 2.42 6.673 6.673 0 01-2.412 1.576c-.872.34-1.864.568-3.316.636-1.456.068-1.92.084-5.628.084s-4.172-.016-5.628-.084c-1.456-.068-2.448-.3-3.316-.636a6.72 6.72 0 01-2.42-1.576 6.673 6.673 0 01-1.576-2.412c-.34-.872-.568-1.864-.636-3.316-.068-1.456-.084-1.92-.084-5.628s.016-4.172.084-5.628c.068-1.456.3-2.448.636-3.316a6.72 6.72 0 011.576-2.42 6.59 6.59 0 012.416-1.572c.872-.34 1.864-.568 3.316-.636z" fill="url(#paint2_linear_442_1560)"/><circle cx="21" cy="21" r="20" fill="#2F89CE"/><path d="M10.35 21.374l4.599 1.715 1.792 5.767c.078.39.546.467.858.233l2.571-2.104c.234-.233.624-.233.935 0l4.599 3.351c.311.234.779.078.857-.311l3.429-16.366c.078-.39-.312-.78-.701-.624L10.35 20.361c-.468.156-.468.857 0 1.013zm6.158.857l9.04-5.533c.156-.078.312.156.156.234L18.3 23.868c-.234.234-.468.546-.468.935l-.233 1.87c0 .234-.39.312-.468 0l-.935-3.428c-.234-.39-.078-.858.311-1.014z" fill="#fff"/><circle cx="21" cy="63" r="20" fill="#48C95F"/><path d="M28.927 55.063A10.428 10.428 0 0021.537 52c-5.78 0-10.464 4.667-10.464 10.427 0 1.823.512 3.646 1.39 5.177L11 73l5.561-1.458c1.537.802 3.22 1.24 4.976 1.24 5.78 0 10.463-4.667 10.463-10.428-.073-2.698-1.098-5.323-3.073-7.291zm-2.342 11.083c-.22.583-1.244 1.166-1.756 1.24a4.104 4.104 0 01-1.61-.073c-.365-.146-.878-.292-1.463-.584-2.634-1.094-4.317-3.719-4.463-3.937-.147-.146-1.098-1.386-1.098-2.698 0-1.313.659-1.896.878-2.188.22-.291.512-.291.732-.291h.512c.146 0 .366-.073.585.437.22.51.732 1.823.805 1.896a.463.463 0 010 .437 1.527 1.527 0 01-.292.438c-.147.146-.293.364-.366.437-.147.146-.293.292-.147.51.147.292.659 1.095 1.464 1.824 1.024.875 1.83 1.166 2.122 1.312.293.146.439.073.585-.073.146-.145.659-.729.805-1.02.146-.292.366-.22.585-.146.22.073 1.537.729 1.756.875.293.145.44.218.513.291.073.22.073.73-.147 1.313z" fill="#fff"/><defs><linearGradient id="paint0_linear_442_1560" x1="6.858" y1="203.142" x2="35.142" y2="174.858" gradientUnits="userSpaceOnUse"><stop stop-color="#FFD521"/><stop offset=".055" stop-color="#FFD020"/><stop offset=".124" stop-color="#FEC01E"/><stop offset=".2" stop-color="#FCA71B"/><stop offset=".282" stop-color="#FA8316"/><stop offset=".368" stop-color="#F85510"/><stop offset=".456" stop-color="#F51E09"/><stop offset=".5" stop-color="#F30005"/><stop offset=".503" stop-color="#F20007"/><stop offset=".597" stop-color="#E1003B"/><stop offset=".688" stop-color="#D30067"/><stop offset=".776" stop-color="#C70088"/><stop offset=".859" stop-color="#BF00A0"/><stop offset=".936" stop-color="#BB00AF"/><stop offset="1" stop-color="#B900B4"/></linearGradient><linearGradient id="paint1_linear_442_1560" x1="6.858" y1="203.142" x2="35.142" y2="174.858" gradientUnits="userSpaceOnUse"><stop stop-color="#FFD521"/><stop offset=".055" stop-color="#FFD020"/><stop offset=".124" stop-color="#FEC01E"/><stop offset=".2" stop-color="#FCA71B"/><stop offset=".282" stop-color="#FA8316"/><stop offset=".368" stop-color="#F85510"/><stop offset=".456" stop-color="#F51E09"/><stop offset=".5" stop-color="#F30005"/><stop offset=".503" stop-color="#F20007"/><stop offset=".597" stop-color="#E1003B"/><stop offset=".688" stop-color="#D30067"/><stop offset=".776" stop-color="#C70088"/><stop offset=".859" stop-color="#BF00A0"/><stop offset=".936" stop-color="#BB00AF"/><stop offset="1" stop-color="#B900B4"/></linearGradient><linearGradient id="paint2_linear_442_1560" x1="6.858" y1="203.142" x2="35.142" y2="174.858" gradientUnits="userSpaceOnUse"><stop stop-color="#FFD521"/><stop offset=".055" stop-color="#FFD020"/><stop offset=".124" stop-color="#FEC01E"/><stop offset=".2" stop-color="#FCA71B"/><stop offset=".282" stop-color="#FA8316"/><stop offset=".368" stop-color="#F85510"/><stop offset=".456" stop-color="#F51E09"/><stop offset=".5" stop-color="#F30005"/><stop offset=".503" stop-color="#F20007"/><stop offset=".597" stop-color="#E1003B"/><stop offset=".688" stop-color="#D30067"/><stop offset=".776" stop-color="#C70088"/><stop offset=".859" stop-color="#BF00A0"/><stop offset=".936" stop-color="#BB00AF"/><stop offset="1" stop-color="#B900B4"/></linearGradient></defs></svg>