<svg width="236" height="67" fill="none" xmlns="http://www.w3.org/2000/svg"><path d="M81.565 27.239c0 .559.125 1.024.435 1.335.31.341.745.497 1.304.497H99.11c.56 0 1.025-.156 1.335-.497.311-.342.466-.776.466-1.335V15.656c0-.497-.155-.932-.466-1.273-.31-.342-.714-.528-1.273-.528-.559 0-.962.186-1.273.528-.31.341-.435.776-.435 1.273V26.09h-4.502V15.656c0-.497-.156-.932-.466-1.273-.31-.342-.714-.528-1.273-.528-.56 0-.963.186-1.273.528-.31.341-.435.776-.435 1.273V26.09h-4.503V7.375c0-.497-.155-.931-.466-1.273-.31-.341-.714-.528-1.273-.528-.559 0-.962.187-1.273.528-.31.342-.435.776-.435 1.273V27.24zm24.113.031c0 .528.124.962.434 1.304.28.341.715.497 1.274.497s.962-.156 1.273-.497c.31-.342.466-.776.466-1.304v-4.876l5.744 5.838c.994 1.056 1.894 1.118 2.702.249.31-.31.435-.715.372-1.18a2.194 2.194 0 00-.652-1.273l-4.937-4.627 4.409-4.69c.373-.403.59-.838.653-1.272.031-.435-.094-.808-.404-1.118-.807-.746-1.677-.621-2.609.434l-5.278 5.994v-5.093c0-.497-.156-.932-.466-1.273-.311-.342-.714-.528-1.273-.528-.559 0-.963.186-1.274.528-.31.341-.434.776-.434 1.273V27.27zm15.667-5.807c0 2.36.653 4.254 1.957 5.713 1.304 1.491 3.105 2.205 5.465 2.205 2.329 0 4.161-.714 5.465-2.204 1.305-1.491 1.988-3.385 1.988-5.714 0-2.298-.683-4.192-1.988-5.683-1.304-1.49-3.136-2.236-5.465-2.236-2.36 0-4.161.746-5.465 2.205-1.304 1.49-1.957 3.385-1.957 5.714zm3.603 0c0-1.429.31-2.609.993-3.54.652-.932 1.584-1.398 2.826-1.398s2.174.466 2.857 1.367c.652.931.994 2.111.994 3.57 0 1.491-.342 2.671-.994 3.572-.683.931-1.615 1.366-2.857 1.366-1.242 0-2.174-.435-2.826-1.366-.683-.9-.993-2.08-.993-3.571zm24.581 13.052c0 .528.124.963.435 1.304.31.342.745.497 1.304.497s.994-.155 1.304-.497c.311-.341.466-.776.466-1.304V15.656c0-.497-.155-.9-.466-1.273-.31-.342-.745-.528-1.304-.528h-6.831c-.497 0-.932.155-1.274.466-.372.31-.559.745-.559 1.335-.186 4.41-.496 7.39-.931 8.912-.28.963-.776 1.428-1.46 1.428-.993 0-1.521.497-1.521 1.429-.031.59.155 1.025.559 1.304.372.31.9.435 1.521.435 1.926 0 3.23-1.118 3.913-3.354.621-1.956.994-4.906 1.118-8.85h3.726v17.555zm17.811-7.245c0 .528.124.962.404 1.304.279.341.714.497 1.273.497.559 0 .963-.156 1.242-.497.28-.31.435-.745.435-1.304v-7.95c0-3.85-2.05-5.776-6.118-5.776-2.235 0-3.943.404-5.061 1.15-.776.496-1.025 1.117-.776 1.831.124.373.341.59.683.715.341.124.714.124 1.087 0a5.22 5.22 0 00.745-.218l.745-.217c.155-.062.373-.124.621-.186.249-.063.528-.094.776-.125.249 0 .497-.03.777-.03 1.242 0 2.08.279 2.515.838.435.559.652 1.304.652 2.298v.341a23.085 23.085 0 00-3.26-.217c-1.926 0-3.509.435-4.782 1.242-1.274.807-1.895 2.112-1.895 3.85 0 1.398.435 2.516 1.305 3.323.869.839 2.111 1.242 3.664 1.242 2.298 0 3.943-.87 4.968-2.67v.559zm-4.037-.621c-.776 0-1.366-.187-1.801-.56-.434-.372-.652-.9-.652-1.552 0-1.739 1.242-2.608 3.726-2.608 1.18 0 2.081.062 2.764.155v.528c0 1.056-.372 2.018-1.087 2.826-.745.807-1.708 1.21-2.95 1.21zm-74.13 12.98c.497-.187 1.18-.435 2.05-.746.838-.28 1.428-.497 1.739-.652 1.055-.497 1.46-1.18 1.149-2.08-.31-.87-1.15-1.056-2.454-.59l-3.602 1.335c-2.794 1.087-4.689 2.453-5.713 4.099-1.056 1.646-1.553 4.068-1.553 7.266 0 2.92.621 5.186 1.863 6.739 1.242 1.552 3.074 2.329 5.528 2.329 2.204 0 3.974-.684 5.31-2.112 1.304-1.397 1.987-3.167 1.987-5.341 0-2.174-.59-3.913-1.739-5.217-1.18-1.304-2.764-1.987-4.813-1.987-1.056 0-2.08.248-3.074.745a5.32 5.32 0 00-2.33 2.205c.063-1.74.746-3.168 2.081-4.223.683-.528 1.863-1.118 3.571-1.77zM91.875 50c0 1.367-.342 2.453-.994 3.199-.652.776-1.552 1.148-2.733 1.148-1.148 0-2.049-.372-2.67-1.117-.652-.746-.963-1.801-.963-3.168 0-1.366.31-2.422.994-3.23.652-.776 1.553-1.18 2.67-1.18 1.18 0 2.081.404 2.733 1.15.621.776.963 1.832.963 3.198zm12.032 7.018c-.466 1.18-.901 2.08-1.305 2.67-.434.59-.962.87-1.614.87-.342 0-.901-.124-1.677-.373-.932-.248-1.522-.062-1.832.621-.404.87-.093 1.615.962 2.174.684.373 1.522.56 2.516.56 1.335 0 2.422-.436 3.26-1.336.839-.9 1.708-2.578 2.64-5.03l4.844-12.825c.466-1.305.248-2.112-.683-2.422-1.118-.373-1.863.093-2.298 1.428l-3.199 9.502-3.633-9.626c-.497-1.273-1.335-1.708-2.453-1.273-.559.217-.87.59-.994 1.117a2.064 2.064 0 00.187 1.491l5.279 12.452zm23.039 0v1.925c0 .497.124.9.372 1.211.249.31.652.466 1.149.466.994 0 1.491-.559 1.491-1.677v-3.105c0-.435-.124-.838-.373-1.149-.248-.31-.621-.466-1.118-.466h-.807v-10.62c0-.528-.155-.962-.466-1.304-.31-.31-.745-.497-1.304-.497h-7.018c-1.18 0-1.77.621-1.832 1.801 0 .093-.031.373-.031.839-.031.497-.062.9-.062 1.273-.031.373-.062.87-.093 1.49-.063.622-.094 1.15-.156 1.615l-.155 1.584c-.062.59-.155 1.087-.248 1.521-.125.435-.218.808-.342 1.18-.124.373-.279.653-.435.839-.186.186-.341.28-.528.28h-.155c-.497 0-.838.155-1.087.465-.248.31-.372.683-.372 1.15v3.104c0 1.118.496 1.677 1.49 1.677.497 0 .87-.155 1.118-.466.248-.31.404-.714.404-1.21v-1.926h10.558zm-8.105-2.795c.714-1.925 1.118-5.061 1.242-9.44h4.13v9.44h-5.372zm20.289 2.795c-.466 1.18-.901 2.08-1.304 2.67-.435.59-.963.87-1.615.87-.342 0-.9-.124-1.677-.373-.931-.248-1.521-.062-1.832.621-.404.87-.093 1.615.963 2.174.683.373 1.521.56 2.515.56 1.335 0 2.422-.436 3.261-1.336.838-.9 1.707-2.578 2.639-5.03l4.844-12.825c.466-1.305.249-2.112-.683-2.422-1.118-.373-1.863.093-2.298 1.428l-3.198 9.502-3.633-9.626c-.497-1.273-1.336-1.708-2.454-1.273-.559.217-.869.59-.993 1.117a2.067 2.067 0 00.186 1.491l5.279 12.452zm13.586 0h16.675v1.925c0 .497.124.9.373 1.211.248.31.652.466 1.149.466.993 0 1.49-.559 1.49-1.677v-3.291c0-.435-.124-.839-.372-1.15-.249-.31-.621-.465-1.118-.465h-.59V43.603c0-.497-.156-.931-.466-1.273-.311-.341-.714-.528-1.273-.528-.559 0-.963.187-1.273.528-.311.342-.435.776-.435 1.273v10.434h-4.503V43.603c0-.497-.155-.931-.466-1.273-.31-.341-.714-.528-1.273-.528-.559 0-.962.187-1.273.528-.31.342-.435.776-.435 1.273v10.434h-4.502V43.603c0-.497-.156-.931-.466-1.273-.311-.341-.714-.528-1.273-.528-.559 0-.963.187-1.273.528-.311.342-.435.776-.435 1.273v11.583c0 .559.124 1.025.435 1.335.31.342.745.497 1.304.497zm34.877-6.335c.59 0 1.056-.124 1.367-.372.31-.249.528-.621.683-1.18.093-.373.155-.839.155-1.46 0-1.863-.59-3.353-1.708-4.471-1.118-1.118-2.67-1.708-4.658-1.708-2.235 0-3.974.745-5.279 2.173-1.304 1.46-1.956 3.385-1.956 5.807 0 2.516.59 4.44 1.832 5.807 1.242 1.366 3.012 2.05 5.341 2.05 2.05 0 3.695-.404 4.907-1.211.372-.249.621-.56.745-.932.124-.373.093-.745-.093-1.056-.373-.652-1.025-.807-1.926-.435-1.304.56-2.391.808-3.291.808-1.211 0-2.174-.342-2.888-1.025-.745-.683-1.118-1.615-1.149-2.795h7.918zm-4.161-6.365c1.025 0 1.801.31 2.329.869.528.59.808 1.335.808 2.267 0 .31-.031.59-.031.776h-6.863c.093-1.242.466-2.205 1.118-2.888.652-.683 1.521-1.024 2.639-1.024zm13.059-2.516c-.559 0-.963.187-1.273.528a1.893 1.893 0 00-.466 1.273v17.825c0 .527.124.962.435 1.304.31.341.745.497 1.304.497s.993-.156 1.304-.497c.31-.342.466-.777.466-1.304v-16.52h5.186c1.117 0 1.676-.497 1.676-1.522 0-1.056-.559-1.584-1.676-1.584h-6.956zm10.866 7.608c0 2.36.652 4.254 1.956 5.714 1.304 1.49 3.105 2.205 5.465 2.205 2.329 0 4.161-.715 5.466-2.205 1.304-1.49 1.987-3.385 1.987-5.714 0-2.298-.683-4.192-1.987-5.682-1.305-1.491-3.137-2.236-5.466-2.236-2.36 0-4.161.745-5.465 2.205-1.304 1.49-1.956 3.384-1.956 5.713zm3.602 0c0-1.428.31-2.608.994-3.54.652-.931 1.583-1.397 2.825-1.397 1.243 0 2.174.466 2.857 1.366.652.932.994 2.112.994 3.571 0 1.49-.342 2.67-.994 3.571-.683.932-1.614 1.366-2.857 1.366-1.242 0-2.173-.434-2.825-1.366-.684-.9-.994-2.08-.994-3.57z" fill="#243976"/><path d="M180.105 19.18c0-5.8 4.701-10.5 10.5-10.5H225.5c5.799 0 10.5 4.7 10.5 10.5v.736c0 5.8-4.701 10.5-10.5 10.5h-44.395a1 1 0 01-1-1V19.18z" fill="#49B3F7"/><path d="M187.352 20.813c0 1.011.284 1.823.854 2.449.569.638 1.356.944 2.386.944 1.017 0 1.817-.306 2.387-.944.569-.64.868-1.451.868-2.45 0-.984-.299-1.796-.868-2.435-.57-.638-1.37-.958-2.387-.958-1.03 0-1.817.32-2.386.945-.57.639-.854 1.45-.854 2.449zm1.572 0c0-.612.136-1.118.434-1.517.285-.4.692-.6 1.234-.6.543 0 .949.2 1.248.586.284.4.434.905.434 1.53 0 .64-.15 1.145-.434 1.531-.299.4-.705.586-1.248.586-.542 0-.949-.186-1.234-.586-.298-.386-.434-.891-.434-1.53zm6.208 2.489c0 .226.055.412.19.558.136.147.326.213.57.213.244 0 .434-.066.569-.213a.789.789 0 00.204-.558v-1.717c0-.4.027-.759.081-1.078.054-.306.135-.6.244-.879.108-.28.285-.492.502-.652.217-.146.488-.226.813-.226.76 0 1.153.506 1.153 1.49v3.062c0 .226.054.412.19.558.135.147.325.213.569.213.244 0 .434-.066.57-.213a.793.793 0 00.203-.558v-3.035c0-.931-.176-1.65-.529-2.13-.352-.478-.949-.718-1.79-.718a2.48 2.48 0 00-1.179.28 1.954 1.954 0 00-.827.825v-.2c0-.213-.068-.4-.204-.546-.135-.146-.325-.226-.569-.226-.244 0-.434.08-.57.227-.135.146-.19.332-.19.545v4.977zm10.777-2.117c.217 0 .393-.053.529-.173.135-.106.203-.279.203-.492a.61.61 0 00-.203-.48.774.774 0 00-.529-.185H202.6a.774.774 0 00-.529.186.61.61 0 00-.203.479c0 .213.068.386.203.492.136.12.312.173.529.173h3.309zm1.617.839c0 1.464.678 2.182 2.048 2.182.569 0 1.017-.093 1.369-.292.434-.24.583-.546.434-.945a.527.527 0 00-.339-.293.772.772 0 00-.488.04c-.271.106-.502.16-.718.16-.285 0-.489-.08-.597-.253-.122-.16-.176-.44-.176-.812v-6.149a.778.778 0 00-.204-.545c-.135-.147-.325-.226-.569-.226-.244 0-.434.08-.57.226-.135.146-.19.333-.19.545v6.362zm4.569 1.278c0 .226.054.412.19.558.135.147.325.213.569.213.244 0 .434-.066.57-.213a.793.793 0 00.203-.558v-4.978c0-.213-.068-.4-.203-.546-.136-.146-.326-.226-.57-.226-.244 0-.434.08-.569.227-.136.146-.19.332-.19.545v4.977zm-.122-7.466c0 .266.068.479.23.612.163.133.38.2.651.2s.488-.067.651-.214c.163-.133.244-.332.244-.599a.754.754 0 00-.244-.585c-.163-.146-.38-.226-.651-.226s-.488.08-.651.226c-.162.146-.23.346-.23.585zm3.287 7.466c0 .226.054.412.189.558.136.147.326.213.57.213.244 0 .434-.066.569-.213a.789.789 0 00.204-.558v-1.717c0-.4.027-.759.081-1.078.054-.306.136-.6.244-.879a1.45 1.45 0 01.502-.652c.217-.146.488-.226.813-.226.76 0 1.153.506 1.153 1.49v3.062c0 .226.054.412.19.558.135.147.325.213.569.213.244 0 .434-.066.57-.213a.793.793 0 00.203-.558v-3.035c0-.931-.176-1.65-.529-2.13-.352-.478-.949-.718-1.789-.718-.434 0-.828.093-1.18.28a1.96 1.96 0 00-.827.825v-.2c0-.213-.068-.4-.204-.546-.135-.146-.325-.226-.569-.226-.244 0-.434.08-.57.227-.135.146-.189.332-.189.545v4.977zm12.118-1.944c.258 0 .461-.053.597-.16.136-.106.23-.265.298-.505.041-.16.068-.36.068-.626 0-.798-.258-1.437-.746-1.916-.488-.479-1.166-.732-2.034-.732-.976 0-1.735.32-2.305.932-.569.625-.854 1.45-.854 2.488 0 1.078.258 1.904.8 2.49.542.585 1.315.877 2.332.877.895 0 1.614-.173 2.143-.519a.774.774 0 00.325-.399.525.525 0 00-.041-.452c-.162-.28-.447-.346-.84-.187-.57.24-1.044.346-1.438.346-.528 0-.949-.146-1.261-.439-.325-.293-.488-.692-.501-1.198h3.457zm-1.817-2.728c.448 0 .787.133 1.017.373.231.253.353.572.353.971 0 .134-.014.253-.014.333h-2.996c.04-.532.203-.945.488-1.238.285-.292.664-.439 1.152-.439z" fill="#fff"/><path d="M8.174 45.21l5.723 11.445C34.824 44.884 33.925 24.91 31.472 16.19L19.62 23.139S22.48 34.175 8.174 45.21z" fill="#49B3F7"/><path d="M46.052 5.823l-12.77-.828c-.385 24.008 17.318 33.302 26.085 35.58l-.024-13.74S48.368 23.742 46.052 5.823z" fill="#864FF1"/><path d="M61.499 58.609l7.279-10.524c-20.39-12.68-37.467-2.28-43.93 4.067l11.795 7.046S44.94 51.38 61.5 58.61z" fill="#49B3F7"/></svg>