<svg width="170" height="220" fill="none" xmlns="http://www.w3.org/2000/svg"><path d="M130.342 184l-67.158 4.169v16.03l65.868-5.449s4.545-4.705 1.29-14.75z" fill="#F8CC90" opacity=".95"/><path d="M130.922 180.463l-73.91 4.59v17.64l72.46-6s4.98-5.17 1.45-16.23z" fill="#FF6551"/><path d="M130.922 180.463l-73.91 4.59v17.64l72.46-6s4.98-5.17 1.45-16.23z" fill="#F8CC90" opacity=".95"/><path d="M81.352 188.473s3.15 4.73 0 9.17l40.27-3.32a11.376 11.376 0 000-8.36l-40.27 2.51zm-53.491-6.95l56.94-3.42 46.12 2.36-73.88 4.59-29.18-3.53z" fill="#FF6551"/><path d="M29.271 182.692s2.47 8.47.71 14.36l26.33 4.47s3.32-.47 3.9-5.42c.58-4.95-3.9-11.1-3.9-11.1l-27.04-2.31z" fill="#FFEBDD"/><path d="M56.313 185.002l-27-2.27s.35 1.27.7 3.27l21.73 2.42a4.715 4.715 0 014.14 3.77v.12a4.728 4.728 0 01-5.57 5.29l-19.82-3.53a15.092 15.092 0 01-.54 3l26.33 4.47s3.32-.47 3.9-5.42c.58-4.95-3.87-11.12-3.87-11.12z" fill="#E79E82" opacity=".41"/><path d="M30.363 188.252c.07.54.13 1.1.17 1.67l20.15 1.66-20.32-3.33zm15.079 5.751l-14.84-2.32v1.22l14.84 1.1z" fill="#E79E82" opacity=".41"/><path d="M27.862 183.522l27.15 3.41a9.872 9.872 0 013.29 6.5 9.3 9.3 0 01-2.91 6.57l-27.06-4.36.12 2.59 27.86 4.47s5.08-1.76 5-8.7c-.08-6.94-4.3-8.95-4.3-8.95l-29.18-3.53.03 2z" fill="#FF6551"/><path d="M126.572 164.191s-2.94 9.09 0 16.15l-9.3 3.18s-7.53-4.59-1.53-15.89l10.83-3.44z" fill="#FFEBDD"/><path d="M117.272 183.522l9.3-3.18a15.62 15.62 0 01-.88-2.9l-7.68 2.56s-.94-.47-1.65-3.78a7.895 7.895 0 011.65-6.1l7.8-2.84c.187-1.034.434-2.055.74-3.06l-10.83 3.44c-5.98 11.27 1.55 15.86 1.55 15.86z" fill="#E79E82" opacity=".41"/><path d="M125.362 170.721c0-.53.1-1 .16-1.52l-6.43 3.12 6.27-1.6zm-5.35 5.471l5.38-.89c-.06-.64-.1-1.27-.11-1.89l-5.27 2.78z" fill="#E79E82" opacity=".41"/><path d="M34.103 164.192s-4.77 11.21 2.29 19l77.94 2.59s-3.68-6-1.19-18.77l-79.04-2.82z" fill="#49B3F7"/><path d="M40.444 168.002s-3.07 5.24.88 12.48l59.119 1.69s-3.53-3.49-1.59-12.33l-58.41-1.84z" fill="#89CEFA"/><path d="M128.514 161.322l-15.37 5.68s-3.64 10.42 1.19 18.77l13.47-4.35v-3.18l-10.53 3.88s-4.23-3-1.06-13.17l12.18-3.76.12-3.87zm-94.412 2.87l29.53-5.69 64.88 2.82-15.37 5.66-79.04-2.79z" fill="#0071BC"/><path d="M66.632 192.803s0 3.3-1.7 5.07c-1.7 1.77-7 4.41-6.6 7.59.4 3.18 11.3 1.42 17.47-3.35 6.17-4.77 1.7-7.58 0-9.89l-9.17.58z" fill="gray"/><path d="M59.572 150.662s-7.94 15.78-4.77 25.5c3.17 9.72 11.65 19.06 11.65 19.06s7.23 1.41 9.35-3c0 0-6.35-8.29-1.41-21.7 0 0 4.06-12.76-1.76-18.38-5.82-5.62-10.24-4.4-13.06-1.48z" fill="#2435A1"/><path d="M96.713 192.803s0 3.3 1.7 5.07c1.7 1.77 6.95 4.41 6.6 7.59-.35 3.18-11.3 1.42-17.48-3.35s-1.69-7.58 0-9.89l9.18.58z" fill="gray"/><path d="M103.773 150.662s7.94 15.78 4.76 25.5c-3.18 9.72-11.64 19.06-11.64 19.06s-7.24 1.41-9.36-3c0 0 6.36-8.29 1.42-21.7 0 0-4.06-12.76 1.76-18.38 5.82-5.62 10.24-4.4 13.06-1.48z" fill="#2435A1"/><path d="M114.013 122.673v.29a4.275 4.275 0 01-2.51 3.04 17.485 17.485 0 01-3.92 1.15c-2 .46-3.92 1.11-5.9 1.56a55.86 55.86 0 01-7.4 1c-4 .36-8.08.71-12.13.71a122.434 122.434 0 01-21.23-2.36 46.23 46.23 0 01-11.2-3c-1.88-.86-3.83-2.22-4.12-4.27-.29-2.05 1.39-4.32 2.43-6a30.27 30.27 0 014.14-5.17 31.177 31.177 0 0111-7.47c1.63-.64 3.27-1.27 4.94-1.78l.73-.22c.53-.15 1.06-.28 1.6-.4a39.299 39.299 0 0120.82 1.36c1.26.41 2.52.88 3.74 1.39.53.22 1.06.45 1.58.69a35.444 35.444 0 0110.43 6.81 26.709 26.709 0 016.38 10.09c.373.811.583 1.688.62 2.58z" fill="#FF6551"/><path d="M113.403 120.053a26.306 26.306 0 00-9.13-12.45c-4.86 4.42-11.75 6.23-17.59 7-9 1.79-21.17-2.86-25-11.791a31.721 31.721 0 00-9.49 6.82 30.31 30.31 0 00-4.18 5.131c-1 1.72-2.72 3.92-2.43 6 .29 2.08 2.24 3.41 4.12 4.27a46.23 46.23 0 0011.2 3 122.532 122.532 0 0021.23 2.36c4 0 8.09-.36 12.13-.71a55.867 55.867 0 007.4-1c2-.45 3.92-1.1 5.9-1.57a17.011 17.011 0 003.94-1.11 4.277 4.277 0 002.51-3v-.29a6.86 6.86 0 00-.61-2.66z" fill="#F8CC90" opacity=".95"/><path d="M91.293 101.083c-.26.44-4.17 4-11.2 3.28-6.31-.67-8.95-3.31-9.62-4.64a39.297 39.297 0 0120.82 1.36z" fill="#F7A845"/><path d="M88.083 100.442s-1.8 2.73-7.71 2-7.23-3-7.23-3v-5.44l14-1.14 1.32-.11v.82l-.2 4.25-.18 2.62z" fill="#EA9573"/><path d="M88.203 97.832c-1.88 1.26-4.28 2.49-6.41 2.41-4.23-.16-8.54-2.95-8.65-3v-3.24l14-1.14 1.28.71-.22 4.26z" fill="#DD7258" opacity=".31"/><path d="M116.064 58.002s5.57-2.61 8.68 1.33c3.11 3.94-1.82 13.91-5.59 14.89-3.77.98-5.24 0-5.24 0l2.15-16.22zm-69.762-.14s-5.57-2.62-8.69 1.3c-3.12 3.92 1.79 13.93 5.55 14.91 3.76.98 5.24 0 5.24 0l-2.1-16.21z" fill="#FFBF94"/><path d="M118.703 43.002s-1 14.65-2.66 26.43c-.24 1.77-.5 3.47-.76 5-.8 4.73-1.71 8.33-2.67 9.23-3.47 3.34-23.13 13.9-30.83 13.39-7.7-.51-28-10.27-31.26-13.8-1-1.12-2.18-5.09-3.22-10-2.23-10.36-4.11-24.82-4.11-24.82.82-23.77 14.13-31.8 39.82-32.61 25.69-.81 35.69 27.18 35.69 27.18z" fill="#FFBF94"/><path opacity=".27" d="M99.693 24.092s-3.07-16.23-20.4-16a49.22 49.22 0 00-37.73 18.74 27.16 27.16 0 004.58 37.83s4-7.38 7.93-13.16c0 0 22.15 9.68 43-8.43-.01 0 5.69-8.88 2.62-18.98z" fill="#DA8966"/><path opacity=".27" d="M96.013 33.792s-.66 10.34 6.14 16.55c6.8 6.21 12.06 6.87 12.06 6.87s3.73 7 1.1 14.48c0 0 9.5-8.92 8-27.43-1.5-18.51-10.5-24.56-27.37-24.34l.07 13.87z" fill="#DA8966"/><path d="M95.324 52.052c.28.44.78.39 1.26.44.48.05 1.1.06 1.66.08a8.772 8.772 0 013.17.58c.923.423 1.795.95 2.6 1.57.386.303.79.584 1.21.84.235.148.487.268.75.36.26.07.51 0 .75.12s.48-.25.37-.48c-.11-.23-.08-.55-.21-.81a4.025 4.025 0 00-.55-.79 8.585 8.585 0 00-1.32-1.23 10.828 10.828 0 00-3.29-1.73 9.182 9.182 0 00-3.83-.28c-.4 0-3.14.44-2.57 1.33z" fill="#5F130F"/><path d="M45.953 70.302a9.37 9.37 0 01-4.63-5c-.33-1-.25-2.52 1-2.69 1.06-.14 1.49 1.24 2 2 .25.37.92.15.76-.32-.43-1.26-.85-2.85-2.42-3a2.87 2.87 0 00-3 2.71c-.21 1.82.89 3.52 1.92 4.92 1.03 1.4 2.43 2.49 4.27 2.08a.41.41 0 00.1-.7zm77.26-6.47c-.09-1.37-1.23-2.6-2.68-2-1 .39-2.55 2.28-1.48 3.26a.258.258 0 00.39-.05c.54-.71.6-1.88 1.64-2.15 1.42-.36 1 2 .8 2.73a6.015 6.015 0 01-1 2.36 5.698 5.698 0 01-2.2 1.44.293.293 0 00-.098.093.28.28 0 00-.047.127.293.293 0 00.085.25c1.13 1.24 2.78-.42 3.41-1.42a8.313 8.313 0 001.18-4.64z" fill="#DA8966" opacity=".44"/><path d="M63.633 52.753c-.76-.81-2.27-.51-3.25-.37-1.116.176-2.2.513-3.22 1a13.208 13.208 0 00-2.77 1.72c-.73.58-2 1.65-1.65 2.7a.72.72 0 00.67.51c.89.1 1.79-1 2.44-1.48a11.69 11.69 0 012.39-1.4 14.14 14.14 0 012.55-.78c.91-.2 2.13 0 2.84-.71a.83.83 0 000-1.16v-.03z" fill="#5F130F"/><path d="M91.224 81.053c-.514 2-1.452 3.865-2.75 5.47a9.59 9.59 0 01-7.46 3.48 9.27 9.27 0 01-8.14-4.08 15.72 15.72 0 01-2.31-5.08 1.06 1.06 0 01.07-.75 1.1 1.1 0 011.38-.6l.36.12a28.25 28.25 0 0017.35 0 1.2 1.2 0 011.52.76c.063.223.056.46-.02.68z" fill="#831532"/><path d="M91.203 80.342a18.24 18.24 0 01-10.3 3.47 17.89 17.89 0 01-10.28-3.73 1.1 1.1 0 011.39-.59l.36.12a28.25 28.25 0 0017.35 0c.123-.038.251-.058.38-.06a1.2 1.2 0 011.1.79z" fill="#fff"/><path d="M88.473 86.523a9.589 9.589 0 01-7.46 3.48 9.27 9.27 0 01-8.14-4.08 28.59 28.59 0 0115.6.6z" fill="#FF6551"/><path d="M65.687 77.665c.401-1.67-1.803-3.631-4.923-4.381-3.12-.75-5.974-.003-6.375 1.667-.402 1.67 1.802 3.631 4.922 4.38 3.12.75 5.975.004 6.376-1.666zm37.36 1.777c3.177-.447 5.559-2.19 5.319-3.89-.24-1.7-3.01-2.717-6.187-2.269-3.177.448-5.559 2.19-5.32 3.89.24 1.701 3.01 2.717 6.188 2.27z" fill="#F2786B"/><path d="M80.443 72.303a6.76 6.76 0 00-3 .8.67.67 0 00-.19.14c-.18.24.11.55.38.69a8 8 0 005.56.32 2.51 2.51 0 001.23-.55c.2-.2.32-.56.12-.75a.75.75 0 00-.33-.14 12.75 12.75 0 00-5.22 0l1.45-.51z" fill="#DA8966" opacity=".21"/><path d="M77.334 73.493c.47-.17.86-.49 1.35-.64a5.814 5.814 0 011.76-.2 10.45 10.45 0 011.68.09 3 3 0 011.51.75c.47.4 1.25-.1.9-.69-.77-1.3-2.68-1.31-4-1.29-1.12 0-3.32.14-3.63 1.55 0 .24.16.53.43.43z" fill="#D88261"/><path d="M93.084 69.002a6.09 6.09 0 01-1.6-5 7.07 7.07 0 012.65-4.57 6.87 6.87 0 015-1.48 5.686 5.686 0 014.31 2.9 8.69 8.69 0 01.58 1.57 7.568 7.568 0 01.28 3.13 6.659 6.659 0 01-2.68 4 5.88 5.88 0 01-3.52 1.36 8.221 8.221 0 01-3.82-1.37 3.51 3.51 0 01-1.86-1.83l.66 1.29zm-22.881-.169a6.15 6.15 0 000-5.25 7.15 7.15 0 00-3.9-3.58 6.89 6.89 0 00-5.26.12 5.71 5.71 0 00-3.22 4.07 7.858 7.858 0 00-.08 1.68 7.47 7.47 0 00.68 3.13 6.61 6.61 0 003.77 3 5.89 5.89 0 003.77.23 8.11 8.11 0 003.22-2.46 3.46 3.46 0 001.22-2.31l-.2 1.37z" fill="#fff"/><path d="M44.192 55.453l-4.38-9.45s-25.45 4.67-24.8 41a37.523 37.523 0 005.34 2.16 18.34 18.34 0 011.86-9.16 68.3 68.3 0 001.68 10.1 33.32 33.32 0 006.61.86 31.252 31.252 0 01.27-10.96 76.01 76.01 0 003.24 10.77 20 20 0 005.77-1.51s-5.46-21.53 4.41-33.81zm78.091-13.82l-3.73 12.18a28.003 28.003 0 01-.73 31.32 21.983 21.983 0 00-1.09 2.17c-.19.36-.38.71-.59 1.07a26.337 26.337 0 006.52 3.27 33.247 33.247 0 003.26-9.38s.7 5.87-.56 10.17c2.552.626 5.191.829 7.81.6a24.016 24.016 0 003.15-9.93c.392 3.09.509 6.209.35 9.32a23.135 23.135 0 005.13-2s17.55-41.11-19.52-48.79z" fill="#672410"/><path d="M20.832 73.493h-.05a.92.92 0 01-.88-1c.48-9.06 7.11-17.49 13.53-21.76a.93.93 0 011.433.952.94.94 0 01-.393.598c-5.81 3.91-12.27 11.94-12.71 20.33a.93.93 0 01-.93.88z" fill="#772F1E"/><path d="M26.872 79.743a.93.93 0 01-.93-.92c-.16-10.82 2.75-18.72 9.42-25.45a.933.933 0 011.33 1.31c-6.29 6.35-9 13.79-8.89 24.12a.929.929 0 01-.92.94h-.01zm7.891 1.32a.94.94 0 01-.92-.8c-2.12-14.84 4.23-22.3 4.5-22.61a.93.93 0 111.4 1.22c-.07.09-6 7.21-4.05 21.12a.94.94 0 01-.79 1.06l-.14.01zm93.79-2.28h-.15a.924.924 0 01-.761-.705.933.933 0 01-.009-.365c.65-4 1.6-13.91-3.71-18.74a.925.925 0 01-.305-.648.942.942 0 01.536-.889.92.92 0 011.019.157c5.77 5.25 5.17 15.05 4.3 20.42a.936.936 0 01-.92.77z" fill="#772F1E"/><path d="M134.552 82.283h-.16a.923.923 0 01-.605-.381.948.948 0 01-.155-.699c2.14-12.07-.08-21.16-7-28.6a.928.928 0 010-1.32 1.002 1.002 0 011.32.05c7.34 7.91 9.71 17.5 7.47 30.2a.938.938 0 01-.87.75z" fill="#772F1E"/><path d="M141.302 77.873h-.11a.92.92 0 01-.82-1c1-9.28-1.6-25.21-13.06-28.44a.93.93 0 01.51-1.79c12.56 3.54 15.5 20.55 14.4 30.44a.918.918 0 01-.92.79z" fill="#772F1E"/><path d="M41.632 64.662a2.08 2.08 0 01-2-2.68 2.13 2.13 0 01-2.84-.41 3.509 3.509 0 01-.58-3 10.43 10.43 0 011.32-2.88c-1.65.16-3.6.2-4.63-1.1-1.03-1.3-.32-3.59 1.11-4.76a5.33 5.33 0 01-2.65-1.61c-1.25-1.61-.18-4.55 1.47-5.48 2.72-1.51 6.86.45 8.47 2.8.603.956 1.09 1.98 1.45 3.05 1.14 3 2.91 6.91 2.35 10.22-.34 1.79-1.22 5.7-3.47 5.85zm89.29-21.1a3.895 3.895 0 01-.437 2.946 3.888 3.888 0 01-2.393 1.774c.66 1.06 2 1.65 2.44 2.81a3.07 3.07 0 01-1.31 3.42 8.903 8.903 0 01-3.7 1.26c.475 1.58.681 3.23.61 4.88a5.557 5.557 0 01-2.25 4.22 3.481 3.481 0 01-4.49-.46 5.626 5.626 0 01-1-2.88 30.03 30.03 0 01-.41-8.4c.208-1.334.512-2.65.91-3.94.82-3 1.93-5.5 4.74-6.95 2.45-1.24 6.21-2.24 7.29 1.32z" fill="#FF6551"/><path d="M99.692 21.002s-3.07-16.22-20.4-16a49.2 49.2 0 00-37.73 18.76c-7.45 9.32-8.77 30.59 4.83 41.78 0 0 2.85-12.79 6.8-18.57 0 0 23 11.13 43.87-7 0 .03 5.7-8.86 2.63-18.97z" fill="#672410"/><path d="M96.012 30.722s-.66 10.33 6.14 16.54c6.8 6.21 12.06 6.87 12.06 6.87s3.73 10.11 1.1 17.56a35.679 35.679 0 0010.53-28.88c-1.54-18.51-13-26.18-29.85-26l.02 13.91z" fill="#672410"/><path d="M45.933 64.532a.93.93 0 01-.55-.18c-6.38-4.62-7.74-14.7-6.26-22.63a.94.94 0 011.09-.72.929.929 0 01.8 1.06c-1.33 7.12-.18 16.66 5.51 20.78a.94.94 0 01.21 1.31.93.93 0 01-.8.38z" fill="#772F1E"/><path d="M45.552 60.372a.94.94 0 01-.91-.75c-2.27-10.91-1.61-27 7.73-36.35 2.43-2.44 5.45-5.47 9.39-6.41a.93.93 0 01.43 1.81c-3.42.82-6.24 3.64-8.5 5.91-8.82 8.85-9.4 24.2-7.22 34.66a.94.94 0 01-.72 1.11l-.2.02z" fill="#772F1E"/><path d="M49.423 53.142h-.21a1 1 0 01-.7-1.14c1.72-7.19 5.86-13.39 9.2-16.34a28.69 28.69 0 0115.55-7.24.93.93 0 011 .82.92.92 0 01-.82 1 26.93 26.93 0 00-14.5 6.76c-3.12 2.76-7 8.59-8.61 15.39a.94.94 0 01-.91.75z" fill="#772F1E"/><path d="M56.892 46.472a.92.92 0 01-.76-.39.931.931 0 01.21-1.3 43.162 43.162 0 0114.58-6.78.933.933 0 11.46 1.81 41.24 41.24 0 00-13.95 6.47.9.9 0 01-.54.19zm8.819.35a.93.93 0 01-.93-.88.94.94 0 01.88-1 59.281 59.281 0 0010.27-1.24 29.241 29.241 0 0019.72-16.12.93.93 0 011.69.78 31.06 31.06 0 01-21 17.16 60.788 60.788 0 01-10.59 1.29l-.04.01zm50.561 9.6a.93.93 0 01-.85-.54c-1.32-2.88-3.25-4.22-5.69-5.88-.7-.48-1.44-1-2.19-1.53-2-1.46-4.33-3.86-4.44-7a.964.964 0 01.553-.907.958.958 0 011.269.465.948.948 0 01.088.362c.09 2.42 2 4.38 3.69 5.59.73.54 1.44 1 2.13 1.49 2.47 1.67 4.8 3.25 6.34 6.64a.922.922 0 01.021.713.938.938 0 01-.921.597z" fill="#772F1E"/><path d="M120.012 65.362h-.17a.928.928 0 01-.75-1.08c1.34-7.58.38-17.8-6.31-23.77a.94.94 0 01.562-1.63.93.93 0 01.668.22c7.26 6.47 8.33 17.41 6.9 25.49a.93.93 0 01-.9.77z" fill="#772F1E"/><path d="M125.792 42.812c-1.46-17.64-11.93-25.43-27.52-25.94-2.17-4.79-7.38-12-19-11.87a49.2 49.2 0 00-37.71 18.76c-6.48 8.1-8.32 25.25.26 36.94-2.56-7.25-3.51-15.47-1.37-22.7 3-10 10.84-18.37 20.15-22.84 10.25-4.92 22.63-2.51 31.29 4.71a21.26 21.26 0 00-2.75-7.08 27.74 27.74 0 017.34 10.07l1.2-3.35c.26 1 .51 1.94.76 2.91a25.061 25.061 0 0111.8.49l-7.31 2.42c3.22-1.06 8.46.71 11.1 2.44a24.633 24.633 0 017.8 9.08 40.215 40.215 0 014.06 10.82c.065-1.62.031-3.244-.1-4.86z" fill="#772F1E" opacity=".27"/><path d="M26.56 112.602s6.88-3.47 5.12-13.57c0 0 35.06 6.84 48 23.92 0 0 19.44-14 51.731-20.14 0 0-.53 8.54 4.77 12.28l-51.8 29.59-57.82-32.08z" fill="#FFEBDD"/><path d="M65.34 134.112l48.091-6 22.72-13a10.682 10.682 0 01-3.83-5.53l-41.73 11.21s-4.56 4.47-9.93 4.81a7.321 7.321 0 01-7.24-3.75l-43.33-12.73a10.227 10.227 0 01-3.53 3.48l38.78 21.51z" fill="#E79E82" opacity=".41"/><path d="M64.272 116.551s-18.11-9-32.41-12.53a12.48 12.48 0 01-.52 2.38 247.177 247.177 0 0132.93 10.15zm40.109-1.879s17.16-5 27.51-6.67a18.446 18.446 0 01-.42-2.58c-6.2 1.81-19.46 5.84-27.09 9.25z" fill="#E79E82" opacity=".41"/><path d="M131.382 102.812c-32.29 6.19-51.73 20.19-51.73 20.19-12.91-17.13-47.97-24-47.97-24 .12.7.19 1.36.24 2 7.53 1.3 31.85 6.6 48 22.94 0 0 24.82-15.8 51.47-19.84-.04-.78-.01-1.29-.01-1.29z" fill="#E79E82" opacity=".41"/><path d="M22.121 112.602l2-2.61 48.03 13.11s2.41 4.05 8.9 4.05c4.28 0 9.33-4.2 9.33-4.2l47.36-13 1.53 2.61-53.06 26.52-64.09-26.48z" fill="#B695F7"/><path d="M30.8 160.482l-8.67-47.88 49.37 13.96 4 47.6-44.7-13.68zm58.58-33.92l49.891-13.96-7.3 49.29-41.38 11.18-1.21-46.51z" fill="#864FF1"/><path d="M71.5 126.562a15.397 15.397 0 0017.88 0l1.21 46.511s-6.21 8.3-15.09 1.09l-4-47.601z" fill="#864FF1"/><path d="M71.5 126.562a15.397 15.397 0 0017.88 0l1.21 46.511s-1 3.74-7.36 4c-2.21.1-4.82-.57-7.73-2.93l-4-47.581z" fill="#864FF1"/><path d="M71.5 126.562a15.397 15.397 0 0017.88 0l1.21 46.511s-1 3.74-7.36 4c-2.21.1-4.82-.57-7.73-2.93l-4-47.581z" fill="#8E487A" opacity=".37"/><path d="M30.802 160.482l44.7 13.68-3.07-36.59c-1 6.75-2.78 16-5.16 19.48-3.92 5.64-14.08 10.23-29.34-.71-3.7-2.65-7-6.67-9.92-11.22l2.79 15.36zm94.719-6.75c-12.4 8.31-26.44 2.19-35.73-11.66l.8 31 41.42-11.18 3-20.24c-2.32 4.89-5.38 9.35-9.49 12.08z" fill="#8E487A" opacity=".13"/><path d="M72.182 134.572s8.88 4.71 17.41 0l.12 4.51s-6.4 5.35-17.16 0l-.37-4.51zm2.509 29.97a17.52 17.52 0 0015.68 0l.13 5a14.38 14.38 0 01-15.38 0l-.43-5z" fill="#8E487A" opacity=".37"/><path d="M138.652 127.903s-2.4-2.55-4.06-2.28c-1.66.27.06 2.8 1.61 4.1 0 0-6.13-1.6-6.38-.27s5.18 3.3 5.18 3.3-5.81-.66-5.39.9c.42 1.56 5.31 2.2 5.31 2.2s-5.45-.24-5.42 1c.03 1.24 4.69 2.33 7.32 1a6.208 6.208 0 003.36-5.43 5.713 5.713 0 00-1.53-4.52zm-115.059 0s2.4-2.55 4.06-2.28c1.66.27-.06 2.8-1.61 4.1 0 0 6.13-1.6 6.38-.27s-5.18 3.3-5.18 3.3 5.81-.66 5.39.9c-.42 1.56-5.31 2.2-5.31 2.2s5.45-.24 5.42 1c-.03 1.24-4.69 2.33-7.32 1a6.213 6.213 0 01-3.36-5.43 5.71 5.71 0 011.53-4.52z" fill="#FFBF94"/><path d="M103.594 66.133a5.531 5.531 0 00-3.58-4.75c-2.73-.89-6.26.47-7.15 3.15a4.004 4.004 0 00-.39.9c-1.43 4.69 4.44 6.66 8 5.29a4.52 4.52 0 003.12-4.59zm-34.77-1.819l-.24-.31a5.42 5.42 0 00-5.2-1.3 5.25 5.25 0 00-4 3.84c-.45 2-.07 4.31 1.85 5.44 3.2 1.9 9.34-.16 9.26-4.38a4.25 4.25 0 00-1.67-3.29z" fill="#2D2D2D"/><path d="M95.944 67.443a1.769 1.769 0 00.07 1.41 1.51 1.51 0 001.57 1.25 2 2 0 001.87-1.59c.41-2.07-2.73-3.1-3.51-1.07zm-28.931.5a1.731 1.731 0 01.36 1.37 1.52 1.52 0 01-1.15 1.69 2 2 0 01-2.27-1c-1.02-1.82 1.66-3.75 3.06-2.06z" fill="#fff"/></svg>