<svg width="145" height="370" fill="none" xmlns="http://www.w3.org/2000/svg"><path d="M76.42 225.842c-52.11-.583-63.355-25.618-66.022-42.321-1.36-8.524.991-15.245 3.676-22.163 2.576-6.639 5.457-13.458 5.658-22.228.07-3.099.182-6.774.548-10.671 1.74-18.63 9.248-42.35 45.598-32.588 0 0 6.73-8.052 22.723-5.296 14.814 2.551 27.965 16.366 31.113 37.475.251 1.677.437 3.401.558 5.17 1.143 16.882 5.999 22.65 9.947 31.252a52.67 52.67 0 014.169 13.468c3.352 19.18-5.86 48.485-57.969 47.902z" fill="#672410"/><path d="M76.42 225.842c-52.11-.583-63.355-25.618-66.022-42.321-1.36-8.524.991-15.245 3.676-22.164-.018 5.297 1.497 16.746 14.322 21.128 16.933 5.785 19.29-13.031 43.94-12.921 24.648.107 26.705 4.663 41.788 7.02 9.179 1.436 13.847-6.04 16.095-12.112a52.67 52.67 0 014.169 13.468c3.352 19.18-5.86 48.485-57.969 47.902z" fill="#772F1E" opacity=".28"/><path d="M34.276 211.971a22.704 22.704 0 01-2.568-.131 21.12 21.12 0 01-2.294-.488 16.06 16.06 0 01-4.316-1.909 13.116 13.116 0 01-5.006-5.503 13.229 13.229 0 01-.84-7.313 51.049 51.049 0 011.902-7.475c.717-2.435 1.513-5.009 1.33-7.579a.372.372 0 01.73-.11c.49 2.577.438 5.228-.153 7.785-.92 4.349-2.972 9.361-.817 13.663a11.463 11.463 0 004.698 4.806 22.11 22.11 0 003.6 1.589 47.8 47.8 0 002.1.662c.616.186 1.172.471 1.796.646.721.2.617 1.395-.162 1.357zm88.814-37.27a28.872 28.872 0 01-4.166 12.006 46.488 46.488 0 01-6.397 8.258 43.23 43.23 0 01-3.757 3.44 27.15 27.15 0 01-2.251 1.638 7.454 7.454 0 01-2.125 1.144.635.635 0 01-.618-1.045 14.999 14.999 0 012.194-1.942c.74-.652 1.504-1.28 2.242-1.935a53.01 53.01 0 004.028-3.975c4.174-4.586 7.822-10.259 8.914-16.512.086-.497.156-.997.209-1.5a18.578 18.578 0 00-1.598-10.122c-1.272-2.577-3.535-5.438-2.314-8.465.106-.26.441-.059.411.17-.284 2.132.877 3.934 1.947 5.654a22.238 22.238 0 012.516 5.211 20.538 20.538 0 01.765 7.975z" fill="#772F1E"/><path d="M114.122 176.584a12.022 12.022 0 01-2.943 6.69 33.2 33.2 0 01-5.306 4.456 17.952 17.952 0 00-4.803 4.746 12.115 12.115 0 00-1.646 7.736c.05.419-.535.43-.665.101a10.345 10.345 0 01.47-8.585c2.207-4.229 6.874-6.099 10.11-9.317a11.247 11.247 0 003.168-6.096c.027-.146.051-.294.072-.443.164-1.35.211-2.712.139-4.07-.043-1.377-.077-2.792-.214-4.163a.326.326 0 01.274-.321.324.324 0 01.358.225c.394 1.489.711 2.998.95 4.52.197 1.499.209 3.018.036 4.521z" fill="#772F1E"/><path d="M108.286 173.757a11.566 11.566 0 01-.487 1.568 13.058 13.058 0 01-3.337 4.77c-2.106 1.986-4.605 3.463-6.768 5.378-1.893 1.681-3.693 3.797-4.11 6.406a7.206 7.206 0 001.933 6.002c.307.329.022 1.023-.464.838-2.28-.868-3.382-3.307-3.406-5.694a10.836 10.836 0 013.067-7.153c2.03-2.277 4.663-3.877 7.096-5.659a19.069 19.069 0 005.172-5.091 8.88 8.88 0 00.743-1.513.29.29 0 01.561.148zM90.49 185.978c-3.987 2.447-4.07 8.167-1.86 11.87a.401.401 0 01-.618.5 9.25 9.25 0 01-2.222-3.522 7.681 7.681 0 01-.177-4.082 7.785 7.785 0 014.574-5.469c.408-.177.66.484.303.703zm40.419 3.215a21.282 21.282 0 01-4.656 13.271 39.697 39.697 0 01-5.185 5.587 88.69 88.69 0 01-3.031 2.591c-.87.914-2 1.54-3.237 1.795a.689.689 0 01-.296-.07.662.662 0 01-.361-.469.678.678 0 01.007-.304 6.227 6.227 0 012.348-2.686 91.939 91.939 0 002.721-2.273 47.087 47.087 0 005.127-5.087c2.887-3.438 5.301-7.766 5.736-12.343a.413.413 0 01.827-.012z" fill="#772F1E"/><path d="M34.276 211.971a22.704 22.704 0 01-2.568-.131 21.12 21.12 0 01-2.294-.488 16.06 16.06 0 01-4.316-1.909 13.116 13.116 0 01-5.006-5.503 13.229 13.229 0 01-.84-7.313 51.049 51.049 0 011.902-7.475c.717-2.435 1.513-5.009 1.33-7.579a.372.372 0 01.73-.11c.49 2.577.438 5.228-.153 7.785-.92 4.349-2.972 9.361-.817 13.663a11.463 11.463 0 004.698 4.806 22.11 22.11 0 003.6 1.589 47.8 47.8 0 002.1.662c.616.186 1.172.471 1.796.646.721.2.617 1.395-.162 1.357zm56.214-25.993c-3.987 2.447-4.07 8.167-1.86 11.87a.401.401 0 01-.618.5 9.25 9.25 0 01-2.222-3.522 7.681 7.681 0 01-.177-4.082 7.785 7.785 0 014.574-5.469c.408-.177.66.484.303.703zm13.972-5.883c-2.106 1.986-4.605 3.462-6.768 5.378-1.893 1.681-3.693 3.797-4.11 6.405a7.209 7.209 0 001.933 6.003c.307.329.022 1.022-.464.837-2.28-.868-3.382-3.307-3.406-5.693a10.832 10.832 0 013.067-7.153c2.03-2.277 4.663-3.878 7.096-5.66a19.054 19.054 0 005.172-5.091c.268.069.54.137.817.204a13.066 13.066 0 01-3.337 4.77z" fill="#772F1E" opacity=".28"/><path d="M105.873 187.73a17.952 17.952 0 00-4.803 4.746 12.115 12.115 0 00-1.646 7.736c.05.419-.535.431-.665.101a10.343 10.343 0 01.47-8.585c2.207-4.228 6.874-6.098 10.11-9.317a11.244 11.244 0 003.168-6.096c.522.092 1.059.183 1.615.269a12.028 12.028 0 01-2.943 6.691 33.194 33.194 0 01-5.306 4.455zm13.051-1.023a46.488 46.488 0 01-6.397 8.258 43.07 43.07 0 01-3.757 3.44 27.15 27.15 0 01-2.251 1.638 7.482 7.482 0 01-2.125 1.145.635.635 0 01-.618-1.046 15.057 15.057 0 012.194-1.942c.74-.652 1.504-1.28 2.242-1.935a53.01 53.01 0 004.028-3.975c4.174-4.586 7.822-10.259 8.914-16.512a11.972 11.972 0 001.936-1.077 28.867 28.867 0 01-4.166 12.006zm11.985 2.486a21.282 21.282 0 01-4.656 13.271 39.697 39.697 0 01-5.185 5.587 88.69 88.69 0 01-3.031 2.591c-.87.914-2 1.54-3.237 1.795a.689.689 0 01-.296-.07.662.662 0 01-.361-.469.678.678 0 01.007-.304 6.227 6.227 0 012.348-2.686 91.939 91.939 0 002.721-2.273 47.087 47.087 0 005.127-5.087c2.887-3.438 5.301-7.766 5.736-12.343a.413.413 0 01.827-.012z" fill="#772F1E" opacity=".28"/><path d="M57.91 270.74s2.265 41.149 4.618 61.135c0 0-3.355 11.521-4.619 15.989-1.264 4.468-.694 6.819 5.728 6.819s6.807-8.935 6.262-16.695c0 0-1.222-12.697-1.12-18.575.103-5.879.876-36.222 0-46.204l-10.87-2.469z" fill="#FFBF94"/><path d="M66.293 302.366a94.58 94.58 0 012.58 12.39c.217-10.606.638-33.196-.094-41.547l-10.87-2.469s1.236 19.641 1.846 29.161c3.102.522 6.538 1.761 6.538 2.465z" fill="#DA8966" opacity=".21"/><path d="M60.483 338.916s-4.191 10.006-5.956 14.826c-1.765 4.82 1.412 6.819 5.412 7.172 4.001.353 9.09-.353 10.135-2.704 1.044-2.352 1.427-12.723 0-19.294 0 0-.133 9.771-3.663 10.476-3.53.706-6.942 1.176-7.06-1.293-.118-2.469 1.132-9.183 1.132-9.183z" fill="#FF6551"/><path d="M70.074 338.916a28.067 28.067 0 01-1.185 7.554c.239 3.429.092 6.958-2.419 10.094-1 .999-4 1.998-7.001.999a7.905 7.905 0 01-4.744-4.356c-.069.184-.136.364-.198.535-1.765 4.82 1.412 6.819 5.412 7.172 4.001.352 9.09-.353 10.135-2.704 1.044-2.352 1.426-12.723 0-19.294z" fill="#DF4C4B"/><path d="M86.276 270.74s-2.266 41.149-4.62 61.135c0 0 3.356 11.521 4.62 15.989 1.264 4.468.694 6.819-5.728 6.819s-6.807-8.935-6.261-16.695c0 0 1.221-12.697 1.118-18.575-.102-5.879-.874-36.222 0-46.204l10.871-2.469z" fill="#FFBF94"/><path d="M78.492 301.357c-2.216 8.855-3.18 13.399-3.18 13.399-.216-10.606-.637-33.196.095-41.547l10.87-2.469s-1.17 18.7-1.78 28.221c-3.102.521-6.005 1.692-6.005 2.396z" fill="#DA8966" opacity=".21"/><path d="M83.702 338.916s4.192 10.006 5.957 14.826c1.765 4.82-1.412 6.819-5.413 7.172-4 .353-9.09-.353-10.134-2.704-1.044-2.352-1.427-12.723 0-19.294 0 0 .132 9.771 3.662 10.476 3.53.706 6.943 1.176 7.06-1.293.118-2.469-1.132-9.183-1.132-9.183z" fill="#FF6551"/><path d="M74.112 338.916c.048 2.56.447 5.102 1.184 7.554-.238 3.429-.091 6.958 2.42 10.094 1 .999 4 1.998 7 .999a7.906 7.906 0 004.745-4.356l.198.535c1.765 4.82-1.412 6.819-5.413 7.172-4 .352-9.09-.353-10.134-2.704-1.044-2.352-1.427-12.723 0-19.294z" fill="#DF4C4B"/><path d="M41.964 268.507c-.824-2.352-3.295-8.465-2.283-11.639 1.012-3.175 2.636-4.938 3.106-7.877.47-2.94 3.766-25.902 3.766-25.902l6.094 1.203s-2.564 14.588-3.506 18.468c-.941 3.879-1.765 5.408-1.412 7.994.353 2.587 2.589 10.228 1.412 10.934-1.176.705-1.791-.941-2.38-1.293-.588-.353-.68 2.233-.09 5.173.588 2.939-.697 3.644-1.408 2.939-.71-.706-1.675-5.408-1.675-5.408s1.317 5.208.611 5.661c-.706.452-2.235-.253-2.235-.253z" fill="#FFBF94"/><path d="M59.88 196.162s-5.648-.387-8.001 2.472c-2.353 2.86-7.084 20.535-8.543 23.395 0 0 2.189 5.212 10.661 3.566 0 0 4.975-19.158 5.883-23.83.91-4.672 0-5.603 0-5.603z" fill="#FFC652"/><path d="M44.748 218.201a35.126 35.126 0 01-1.412 3.828s2.189 5.211 10.661 3.565c0 0 .53-2.037 1.272-4.939-3.769.533-7.564.004-10.521-2.454z" fill="#F7A845"/><path d="M98.989 268.508c.823-2.352 3.294-8.465 2.282-11.639-1.012-3.175-2.636-4.938-3.106-7.877-.47-2.94-3.766-25.902-3.766-25.902l-6.094 1.203s2.564 14.588 3.506 18.468c.941 3.879 1.765 5.408 1.412 7.994-.353 2.587-2.589 10.228-1.412 10.934 1.176.705 2-2.469 2.588-2.822.589-.352.471 3.762-.117 6.702-.589 2.939.696 3.644 1.407 2.939.71-.706 1.675-5.408 1.675-5.408s-1.317 5.208-.611 5.661c.706.452 2.236-.253 2.236-.253z" fill="#FFBF94"/><path d="M81.18 196.163s5.354-.505 7.448 1.377c2.094 1.881 4.477 9.076 5.848 14.401 1.224 4.752 3.648 12.113 3.648 12.113s-5.99 2.835-10.82 2.247l-5.183-25.94-.941-4.198z" fill="#FFC652"/><path d="M86.385 221.7l.92 4.601c4.83.588 10.819-2.247 10.819-2.247s-.564-1.714-1.284-4.015c-3.082 1.699-6.83 1.728-10.455 1.661z" fill="#F7A845"/><path d="M54.886 246.001c-4.59 9.009-9.307 18.074-14.613 26.688a16.377 16.377 0 004.422 10.219 231.938 231.938 0 0013.972-32.638 48.293 48.293 0 00-3.781-4.269z" fill="#6640D0"/><path d="M43.316 270.487s6.724-14.044 9.85-16.407c3.125-2.364 2.744.847 2.299 2.47-.445 1.622-7.673 17.172-8.892 20.335 0 0-3.198-1.045-3.257-6.398z" fill="#864FF1"/><path d="M57.47 247.975c-4.867 11.129-9.989 21.635-15.876 32.258a8.997 8.997 0 006.415 8.526c7.012-11.517 11.32-24.515 13.84-37.707-1.712-1.298-2.58-1.919-4.38-3.077z" fill="#6640D0"/><path d="M44.984 277.688s8.076-18.452 11.04-21.515c2.963-3.063 2.824.326 2.437 1.953-2.027 8.527-6.053 17.266-9.313 25.585 0 0-3.852-.661-4.164-6.023z" fill="#864FF1"/><path d="M60.71 245.847a271.597 271.597 0 01-14.665 41.768s3.318 5.149 11.002 5.422a427.457 427.457 0 008.311-45.388c-1.84-.781-2.77-1.147-4.649-1.802z" fill="#6640D0"/><path d="M49.917 283.561a137.508 137.508 0 0110.641-27.133c1.953-3.674 3.11-.412 2.647 1.253-2.698 9.691-5.337 20.001-6.465 30.097 0 0-7.442-1.991-6.823-4.217z" fill="#864FF1"/><path d="M64.602 248.136c-2.167 15.478-4.81 30.814-7.782 46.157 0 0 6.946 4.57 14.329 1.17a74344.31 74344.31 0 01-.027-47.225 80.067 80.067 0 00-6.52-.102z" fill="#6640D0"/><path d="M60.887 289.382a121.697 121.697 0 015.066-32.125c1.367-4.461 2.725-1.519 2.785.205.38 10.995.079 22.086.344 33.13 0 0-8.25.937-8.195-1.21z" fill="#864FF1"/><path d="M87.804 246c4.59 9.009 9.307 18.074 14.613 26.689a16.373 16.373 0 01-4.42 10.219 231.905 231.905 0 01-13.974-32.638 48.294 48.294 0 013.781-4.27z" fill="#6640D0"/><path d="M99.375 270.487s-6.724-14.044-9.85-16.407c-3.125-2.364-2.744.847-2.299 2.47.446 1.623 7.673 17.173 8.892 20.336 0 0 3.198-1.046 3.257-6.399z" fill="#864FF1"/><path d="M84.63 247.974c4.875 11.119 10.002 21.635 15.878 32.259a8.994 8.994 0 01-1.808 5.314 9.014 9.014 0 01-4.608 3.212c-7.011-11.518-11.321-24.516-13.84-37.708 1.712-1.298 2.581-1.919 4.379-3.077z" fill="#6640D0"/><path d="M97.116 277.688s-8.076-18.453-11.04-21.516c-2.963-3.063-2.821.321-2.437 1.953 2.011 8.552 6.046 17.278 9.313 25.585 0 0 3.851-.66 4.164-6.022z" fill="#864FF1"/><path d="M80.047 246.694a335.33 335.33 0 0014.812 41.825 15.189 15.189 0 01-11.612 5.719 495.119 495.119 0 01-7.839-45.661 67.57 67.57 0 014.64-1.883z" fill="#6640D0"/><path d="M90.556 283.718a161.507 161.507 0 00-10.338-27.388c-1.849-3.682-3.174-.361-2.65 1.287a138.854 138.854 0 016.093 30.307s7.546-1.943 6.895-4.206z" fill="#864FF1"/><path d="M75.714 246.332c2.517 15.923 5.269 31.798 8.069 47.673 0 0-6.11 5.165-13.57 1.845.28-16.386.499-32.773.657-49.16a74.655 74.655 0 014.844-.358z" fill="#6640D0"/><path d="M81.007 289.35a161.075 161.075 0 00-5.796-33.515c-1.33-4.53-2.77-1.419-2.83.342-.39 11.469.054 23.212.382 34.871 0 0 8.404.507 8.244-1.698z" fill="#864FF1"/><path d="M67.117 193.687s-8.566 1.73-9.401 2.476c-.836.746-5.118 23.789-5.625 27.669-.506 3.88-1.212 20.456-1.212 22.573 0 2.116 4.942 7.641 17.533 7.994 12.59.353 19.65-3.644 20.944-4.232 1.295-.588 2.253-1.881 2.303-6.231.05-4.35-3.244-29.51-4.538-34.918-1.295-5.408-2.471-12.191-4.119-12.855a52.25 52.25 0 00-15.885-2.476z" fill="#F7A845"/><path d="M65.01 196.162s-4.129-.865-5.894 1.645c-1.765 2.511-3.764 11.783-3.235 18.287.529 6.503 4.53 15.203 4.53 15.203-.824 2.077-4.318-3.53-5.142-2.825-.823.706-1.447 11.181.612 15.908 2.058 4.728 8.375 7.432 16.63 6.844 8.256-.588 10.767-5.408 12.924-9.052 2.157-3.645 2.791-12.171 1.975-11.936-.816.235.432-.82-5.231 1.413 0 0-2.766 1.059-.53-1.528 2.236-2.586 3.59-1.469 4.413-10.052.824-8.582-2.236-21.01-3.53-22.262-1.294-1.251-4.942-1.134-6.119-.781-1.176.353-10.364-.08-12.358-1.151" fill="#FFC652"/><path d="M67.117 193.687s-1.99.402-4.142.901a8.23 8.23 0 007.475 5.361 7.99 7.99 0 008.567-4.905 58.52 58.52 0 00-11.9-1.357z" fill="#F7A845"/><path d="M76.454 195.115s-1.474 3.112-6.018 2.645c-4.545-.467-5.495-2.824-5.495-2.824l.071-2.467h-.001l.1-3.536 10.85-2.113 1.02-.199-.056.907-.292 4.701-.179 2.886z" fill="#EA9573"/><path d="M76.634 192.229c-1.49 1.499-3.387 3.004-5.033 3.046-3.262.084-6.506-2.734-6.588-2.805l-.001-.001.1-3.535 10.85-2.114.964.709-.292 4.7z" fill="#DD7258" opacity=".31"/><path d="M104.073 150.459s5.286-2.8 8.311 1.235c3.025 4.035-1.537 14.475-5.123 15.549-3.586 1.074-5.007.076-5.007.076l1.819-16.86zm-66.651 1.004s-5.354-2.64-8.275 1.485c-2.921 4.124 1.905 14.423 5.517 15.389 3.612.966 5.007-.075 5.007-.075l-2.249-16.799z" fill="#FFBF94"/><path d="M106.38 134.924s-.781 15.219-2.157 27.48l-.002.005.001.003-.006.051c-.207 1.84-.427 3.613-.659 5.257l-.005.033c-.699 4.917-1.512 8.672-2.422 9.614-3.243 3.355-21.88 14.623-29.24 14.212-7.36-.411-26.892-10.222-30.068-13.829-1.016-1.155-2.15-5.257-3.222-10.303-2.28-10.72-4.28-25.695-4.28-25.695.467-24.722 13.035-33.266 37.59-34.506 24.554-1.24 34.47 27.678 34.47 27.678z" fill="#FFBF94"/><path d="M32.902 135.811c-.543-2.656 1.331-5.184 3.23-7.222a70.478 70.478 0 0123.327-16.428c7.134-3.113 15.269-5.096 22.85-3.17a45.78 45.78 0 0110.23 4.459 22.474 22.474 0 014.303 2.75 18.574 18.574 0 012.92 3.492 70.15 70.15 0 018.534 16.832 8.174 8.174 0 01.629 4.018 7.167 7.167 0 01-1.797 3.306 18.753 18.753 0 01-6.566 4.866 75931.24 75931.24 0 00-3.158-11.717 8.558 8.558 0 01-6.96 3.616 20.446 20.446 0 00-5.356-9.489c-1.792 3.153-5.192 5.256-8.755 6.5a30.429 30.429 0 00-2.87-10.671l-3.149 9.875a10.086 10.086 0 01-7.357-4.981 11.587 11.587 0 00-2.693 8.828 11.28 11.28 0 01-11.284-5.262l-2.302 10.843a12.285 12.285 0 01-7.86-4.802 15.087 15.087 0 00-.6 8.585s-2.31-.53-2.822-2.206c-.51-1.677-2.494-12.022-2.494-12.022z" fill="#DA8966" opacity=".28"/><path d="M79.297 113.171s-12.292 6.041-10.294 21.43c0 0-5.892-2.262-6.303-8.624 0 0-6.274 5.62-5.031 13.311 0 0-7.852-2.737-7.01-12.804 0 0-6.76 5.794-4.154 17.991 0 0-6.41-4.434-6.652-10.296 0 0-4.592 9.618-1.879 17.623a9.294 9.294 0 01-4.832-2.193c-2.29-2.044-4.138-5.967-4.824-13.589-1.34-14.896 16.646-33.42 40.103-32.581 23.456.838 40.437 16.516 42.723 29.053a23.345 23.345 0 01-5.833 20.277c1.942-2.488-.984-39.672-26.014-39.598z" fill="#672410"/><path d="M73.772 113.92s5.02 10.151 4.677 20.882c0 0 6.762-5.627 7.368-8.987 0 0 6.42 5.271 7.024 13.809 0 0 4.834-3.756 4.287-8.105 0 0 5.768 5.113 5.27 16.516 0 0 4.796-2.927 4.989-8.54 0 0-3.769-33.877-33.615-25.575z" fill="#672410"/><path d="M84.486 144.118c.288.448.778.392 1.255.435.554.051 1.102.044 1.657.049a8.597 8.597 0 013.159.551c.914.418 1.775.942 2.566 1.563.388.305.794.587 1.216.844.239.143.492.262.756.353.251.072.5.023.747.111.295.107.471-.26.361-.497-.121-.261-.095-.563-.23-.825a4.485 4.485 0 00-.555-.801 8.642 8.642 0 00-1.33-1.232 10.24 10.24 0 00-3.258-1.719 8.88 8.88 0 00-3.812-.236c-.398.052-3.114.502-2.532 1.404zm-31.483 1.21c-.769-.818-2.265-.488-3.238-.333a11.437 11.437 0 00-3.186 1.048 12.889 12.889 0 00-2.726 1.797c-.719.61-1.916 1.717-1.6 2.791a.719.719 0 00.675.514c.885.087 1.757-1.05 2.398-1.558a11.695 11.695 0 012.356-1.467 13.68 13.68 0 012.525-.838c.898-.215 2.116-.079 2.811-.769a.868.868 0 00-.016-1.185z" fill="#5F130F"/><path d="M37.268 164.374a9.452 9.452 0 01-4.495-5.161c-.329-.997-.27-2.609.956-2.803 1.013-.161 1.447 1.264 1.91 1.99a.4.4 0 00.714-.056.4.4 0 00.009-.287c-.432-1.302-.85-2.945-2.357-3.119-1.545-.178-2.686 1.317-2.828 2.862-.174 1.89.9 3.639 1.908 5.072 1.04 1.477 2.306 2.683 4.101 2.26a.432.432 0 00.082-.758zm73.721-7.925c-.109-1.428-1.214-2.687-2.585-2.067-.927.418-2.403 2.407-1.371 3.401a.222.222 0 00.093.058.225.225 0 00.109.009.23.23 0 00.172-.125c.5-.747.549-1.955 1.535-2.249 1.352-.402.94 2.098.799 2.814a6.474 6.474 0 01-.959 2.469 5.42 5.42 0 01-2.073 1.529.32.32 0 00-.092.102.334.334 0 00.04.387c1.096 1.27 2.644-.483 3.234-1.527a9.169 9.169 0 001.098-4.801z" fill="#DA8966" opacity=".44"/><path d="M79.634 173.663a13.216 13.216 0 01-2.341 4.977 8.346 8.346 0 01-6.496 3.231 8.061 8.061 0 01-7.185-3.571 14.445 14.445 0 01-2.09-4.551.993.993 0 01.047-.673.964.964 0 011.173-.555l.325.101a24.029 24.029 0 0015.193-.261 1.047 1.047 0 011.145.303c.091.107.16.231.202.365.072.203.081.424.027.634z" fill="#831532"/><path d="M79.606 173.029a15.704 15.704 0 01-8.98 3.264 15.404 15.404 0 01-9.058-3.217.964.964 0 011.174-.555l.325.101a24.029 24.029 0 0015.193-.261 1.047 1.047 0 011.145.303c.091.107.16.231.201.365z" fill="#fff"/><path d="M77.293 178.639a8.36 8.36 0 01-6.497 3.232 8.068 8.068 0 01-7.185-3.571 24.376 24.376 0 0113.682.339z" fill="#FF6551"/><path d="M55.404 170.814c.405-1.709-1.788-3.69-4.9-4.426-3.11-.736-5.96.052-6.364 1.761-.406 1.708 1.788 3.69 4.898 4.426 3.111.736 5.961-.053 6.366-1.761zm37.21 1.202c3.151-.52 5.474-2.347 5.187-4.08-.287-1.734-3.074-2.717-6.225-2.197-3.152.52-5.474 2.347-5.188 4.081.287 1.733 3.074 2.717 6.226 2.196z" fill="#F2786B"/><path d="M104.618 157.348l-.401 5.116-.659 5.257-.004.033c-.7 4.917-1.513 8.672-2.422 9.614-3.244 3.355-21.88 14.623-29.241 14.212-7.36-.411-26.892-10.222-30.068-13.829-1.016-1.155-2.15-5.258-3.222-10.303-1.174-5.165-2.066-11.087-2.066-11.087.434 3.24 3.163 14.008 6.175 19.644 2.033 3.804 22.79 12.461 30.016 12.716 7.226.257 17.82-7.433 23.49-10.763 5.581-3.277 8.33-20.238 8.402-20.61z" fill="#DA8966" opacity=".21"/><path d="M119.706 128.475c-17.999-26.708-38.82-26.947-48.397-25.28a55.874 55.874 0 01-11.871.789c-24.467-1-34.835 13.725-39.167 24.889 1.738-18.835 9.242-42.814 45.593-32.94 0 0 6.729-8.14 22.722-5.351 14.815 2.582 27.968 16.55 31.12 37.893z" fill="#772F1E" opacity=".27"/><path d="M70.008 165.071a6.554 6.554 0 00-2.987.86.525.525 0 00-.18.144c-.175.249.115.565.38.704a7.804 7.804 0 005.53.244 2.465 2.465 0 001.216-.585c.198-.208.316-.576.107-.772a.636.636 0 00-.323-.132 12.361 12.361 0 00-5.195.083l1.452-.546z" fill="#DA8966" opacity=".21"/><path d="M66.927 166.334c.465-.185.846-.52 1.335-.682a5.851 5.851 0 011.745-.233 9.69 9.69 0 011.668.075c.567.092 1.093.35 1.512.743a.578.578 0 00.885-.724c-.778-1.316-2.683-1.298-3.99-1.256-1.113.035-3.298.198-3.587 1.645-.049.244.17.536.431.432z" fill="#D88261"/><path d="M78.754 146.554c.14-4.876-5.547-5.784-9.146-5.268-2.133.306-5.58.224-7.382 1.391a4.828 4.828 0 00-1.899 5.463c.376.924.885 1.789 1.51 2.567a53.842 53.842 0 014.463 7.459c.573 1.162 1.225 2.459 2.428 2.866a3.182 3.182 0 002.52-.37 8.45 8.45 0 003.319-4.084c.738-1.639 1.242-3.387 2.07-4.98.849-1.633 2.063-3.193 2.117-5.044z" fill="#F8A37A" opacity=".11"/><g style="mix-blend-mode:screen" opacity=".27" fill="#772F1E"><path d="M66.971 100.04c-2.61.877-4.803 3.264-6.632 5.281a43.743 43.743 0 00-5.137 6.816c-2.843 4.726-4.584 10.285-3.765 15.876.406 2.766 1.324 6.116 3.837 7.612.043.022.09.031.138.027a.247.247 0 00.209-.17.245.245 0 00.002-.14c-.542-2.368-1.642-4.547-1.969-6.98a20.335 20.335 0 01.341-7.27c1.191-5.132 4.033-9.608 7.291-13.605a46.804 46.804 0 012.98-3.32c1.063-1.079 2.273-2 3.29-3.125.386-.427-.01-1.195-.585-1.002z" opacity=".27"/><path d="M67.899 107.089c.424-.608-.442-1.461-1.02-1.022-3.552 2.698-4.841 7.722-4.796 12.075.042 2.541.486 5.06 1.315 7.463.756 2.214 1.69 4.994 3.54 6.505.084.069.253.032.238-.106-.244-2.268-1.507-4.404-2.149-6.572a24.633 24.633 0 01-1.117-6.923 17.874 17.874 0 011.02-6.051 23.04 23.04 0 012.969-5.369zm-5.489-7.434c-2.854.582-5.472 2.328-7.82 4.038a48.165 48.165 0 00-6.674 5.861c-4.22 4.468-8.023 9.657-8.575 16.052-.26 3.433.53 6.863 2.267 9.836a.46.46 0 00.575.173.461.461 0 00.25-.545 20.933 20.933 0 011.485-16.696 46.077 46.077 0 0111.228-12.66c2.44-1.959 5.206-3.513 7.52-5.621.209-.19-.028-.484-.256-.438z" opacity=".27"/><path d="M62.901 97.281c-3.67-.382-7.573 1.246-10.798 2.905a35.958 35.958 0 00-9.014 6.628c-6.092 6.133-9.295 14.401-11.246 22.808a36.707 36.707 0 00-1.058 7.849 20.267 20.267 0 00.303 4.026c.123.634.289 1.26.497 1.872.258.605.555 1.194.887 1.762.27.563.984.115.901-.406-.1-.628-.042-1.271-.112-1.913a41.694 41.694 0 01-.129-1.479c-.08-1.096-.16-2.192-.153-3.291.025-2.234.263-4.461.713-6.65a64.699 64.699 0 014.07-13.098 34.255 34.255 0 017.91-11.124 34.296 34.296 0 0111.628-7.156c1.896-.688 3.852-1.165 5.715-1.949a.404.404 0 00-.114-.784z" opacity=".27"/><path d="M57.512 95.98a17.887 17.887 0 00-2.62.05c-.88.118-1.756.255-2.63.418a54.15 54.15 0 00-5.285 1.278 30.238 30.238 0 00-9.498 4.567c-5.242 3.858-8.745 9.661-10.78 15.88a44.5 44.5 0 00-1.946 9.619c-.374 3.91-.055 7.867-.517 11.768a32.34 32.34 0 01-3.543 11.016c-1.642 3.204-3.507 6.406-4.218 9.997-1.338 6.76 1.942 14.502 8.421 16.973.196.075.373-.241.204-.373-4.48-3.494-7.649-9.433-6.818-15.327.483-3.428 2.183-6.493 3.786-9.479a40.347 40.347 0 004.047-10.064c.88-3.862.781-7.745.91-11.678a46.174 46.174 0 011.277-9.37 32.764 32.764 0 018.613-15.84 28.39 28.39 0 019.41-5.917 39.482 39.482 0 015.587-1.726 79.413 79.413 0 012.726-.591c1.002-.202 1.95-.508 2.934-.785a.214.214 0 00-.06-.417z" opacity=".27"/><path d="M30.752 198.816a.797.797 0 01-.905-.464.795.795 0 01.293-.973 11.108 11.108 0 004.786-5.725 11.31 11.31 0 00.056-7.047 17.17 17.17 0 00-4.106-6.808c-3.618-3.764-9.567-6.495-9.21-12.657a.181.181 0 01.309-.132.182.182 0 01.055.127c.436 3.548 3.688 6.048 6.296 7.974a27.865 27.865 0 016.386 6.026c1.141 1.577 2 3.34 2.535 5.211.236.833.402 1.683.495 2.544.522 4.809-1.985 10.886-6.99 11.924z" opacity=".27"/><path d="M45.672 190.115c-.006 2.64-1.094 5.885-4.094 6.046-.905.048-.915-1.175-.216-1.485 2.455-1.091 2.484-4.414 2.163-6.719a12.214 12.214 0 00-1.917-5.151 9.934 9.934 0 00-1.114-1.367c-1.665-1.699-3.77-2.857-5.483-4.508a8.959 8.959 0 01-2.923-5.615c-.038-.364.504-.419.6-.092.737 2.533 3.01 4.326 5.041 5.763 2.04 1.444 4.123 2.799 5.568 4.892.106.154.209.313.309.476a14.976 14.976 0 012.066 7.76zm6.385.482c-.183 1.383-1.393 3.405-3.003 3.047a.527.527 0 01-.235-.864c.421-.43.907-.64 1.248-1.181.295-.467.48-.994.54-1.543a5.619 5.619 0 00-1.22-3.946c-.234-.318.275-.725.525-.43 1.156 1.356 2.4 2.998 2.145 4.917zm-35.013 3.529a7.276 7.276 0 01-1.306-1.221c-.372-.508-.71-1.04-1.01-1.593a22.665 22.665 0 01-1.47-3.348 30.468 30.468 0 01-1.474-14.582c.21-2.394.939-4.715 2.134-6.801a.376.376 0 01.489-.101.257.257 0 01.114.26 12.9 12.9 0 01-.03.254c-.256 2.215-.825 4.372-.992 6.601a34.494 34.494 0 00.175 6.919 32.865 32.865 0 001.592 6.709 45.877 45.877 0 001.313 3.256c.219.5.444.995.655 1.498.203.563.368 1.14.494 1.725a.42.42 0 01-.181.472.415.415 0 01-.26.06.412.412 0 01-.243-.108zm66.412-76.037a22.981 22.981 0 00-4.578-6.732c-.964-1.061-1.95-2.102-2.92-3.157a27.9 27.9 0 01-1.367-1.589 9.165 9.165 0 00-1.218-1.524.123.123 0 00-.056-.031.129.129 0 00-.119.034.128.128 0 00-.031.056c-.327 1.07.611 2.282 1.194 3.069.806 1.087 1.677 2.111 2.559 3.133a27.797 27.797 0 014.608 6.544 10.27 10.27 0 01.55 7.516 16.934 16.934 0 01-1.563 3.379 8.7 8.7 0 00-1.51 3.177c-.014.142.171.185.256.104.453-.515.863-1.067 1.226-1.65.364-.491.744-.969 1.124-1.447a14.088 14.088 0 002.15-3.144c.91-2.521.8-5.297-.305-7.738z" opacity=".27"/><path d="M93.352 119.226c-3.33-4.717-8.259-7.64-12.734-11.037a45.25 45.25 0 01-3.708-3.086c-1.203-1.134-2.297-2.368-3.458-3.54a.192.192 0 00-.232-.023.193.193 0 00-.084.218 16.166 16.166 0 004.808 6.186c2.063 1.812 4.328 3.372 6.519 5.012 4.224 3.163 8.701 6.924 10 12.397a17.611 17.611 0 01-.767 9.688c-.132.38.398.53.593.247 3.359-4.879 2.33-11.431-.937-16.062z" opacity=".27"/><path d="M104.953 130.486a33.086 33.086 0 00-3.209-11.662 24.347 24.347 0 00-7.689-8.808 50.02 50.02 0 00-9.8-5.09 48.867 48.867 0 01-5.44-2.538 36.044 36.044 0 01-4.737-3.558c-.176-.145-.533-.008-.425.263 1.248 3.137 4.605 5.008 7.412 6.427 3.241 1.637 6.653 2.844 9.771 4.744a23.88 23.88 0 018.052 7.667 28.409 28.409 0 013.773 11.314 68.32 68.32 0 01.518 7.551c.024 1.33.046 2.649.122 3.977.014 1.242.162 2.478.44 3.688a.181.181 0 00.177.13.184.184 0 00.11-.039.179.179 0 00.063-.096 21.777 21.777 0 001.039-6.859 55.518 55.518 0 00-.177-7.111z" opacity=".27"/><path d="M111.379 128.433a32.58 32.58 0 00-3.912-13.952A34.975 34.975 0 0086.254 97.95a37.848 37.848 0 00-7.886-1.369c-2.712-.178-5.497.184-8.147-.561a.205.205 0 00-.188.344c1.688 1.412 3.915 1.414 5.988 1.516a42 42 0 016.987.944 36.28 36.28 0 0112.816 5.521 31.732 31.732 0 0113.501 22.053c.325 2.967.349 5.959.07 8.93-.253 2.94-.892 5.918-.812 8.876.001.056.02.11.054.155a.257.257 0 00.302.079.251.251 0 00.124-.108 25.32 25.32 0 001.958-7.828 45.92 45.92 0 00.358-8.069z" opacity=".27"/><path d="M130.065 182.025a26.934 26.934 0 01-5.18 12.151 20.94 20.94 0 01-10.487 7.564.58.58 0 01-.447-1.051 23.59 23.59 0 002.64-1.615c6.89-4.874 11.796-12.667 11.521-21.479a28.644 28.644 0 00-.914-6.217c-1.667-6.515-5.258-12.522-8.084-18.526a50.307 50.307 0 01-4.367-12.631c-.937-5.359-.146-10.787-.731-16.17-.576-5.313-3.419-9.762-6.045-14.232-2.449-4.168-5.123-8.322-8.87-11.382-7.507-6.134-17.541-5.608-26.447-3.995a.426.426 0 01-.23-.818 27.97 27.97 0 013.393-1.04c9.388-2.085 19.617-.793 26.779 6.283 3.541 3.499 6.183 7.86 8.726 12.144a46.318 46.318 0 013.703 7.303 26.577 26.577 0 011.487 8.374c.106 2.911-.051 5.826.067 8.737a32.102 32.102 0 001.144 7.326 74.437 74.437 0 005.317 12.788 93.865 93.865 0 015.7 13.208 29.591 29.591 0 011.325 13.278z" opacity=".27"/><path d="M17.728 193.702a.42.42 0 01-.181.472.415.415 0 01-.26.06.412.412 0 01-.243-.108 7.276 7.276 0 01-1.306-1.221c-.372-.508-.71-1.04-1.01-1.593a22.665 22.665 0 01-1.47-3.348 30.468 30.468 0 01-1.474-14.582c.21-2.394.939-4.715 2.134-6.801a.376.376 0 01.489-.101c.026.169.055.341.085.514-.257 2.215-.826 4.372-.993 6.601a34.494 34.494 0 00.175 6.919 32.865 32.865 0 001.592 6.709 45.83 45.83 0 001.313 3.256c.219.5.444.995.655 1.498.203.563.368 1.14.494 1.725zm20.015-6.811c.523 4.809-1.984 10.886-6.99 11.925a.797.797 0 01-.934-1.004.796.796 0 01.322-.434 11.1 11.1 0 004.786-5.724c.77-2.283.789-4.752.057-7.048a14.48 14.48 0 002.264-.258c.237.832.402 1.683.495 2.543zm5.862-4.537a14.979 14.979 0 012.066 7.76c-.007 2.64-1.094 5.885-4.094 6.047-.904.048-.914-1.176-.215-1.485 2.455-1.091 2.483-4.415 2.162-6.72a12.22 12.22 0 00-1.917-5.151 26.187 26.187 0 001.689-.927c.106.154.21.314.31.476zm6.307 3.326c1.156 1.356 2.4 2.998 2.145 4.917-.183 1.383-1.393 3.405-3.003 3.047a.527.527 0 01-.235-.864c.421-.43.907-.64 1.248-1.181.295-.467.48-.994.54-1.543a5.619 5.619 0 00-1.22-3.946c-.234-.318.275-.725.525-.43zm80.153-3.656a26.96 26.96 0 01-5.18 12.152 20.947 20.947 0 01-10.488 7.564.58.58 0 01-.447-1.051 23.5 23.5 0 002.64-1.615c6.89-4.874 11.796-12.667 11.521-21.48a28.583 28.583 0 00-.914-6.216 24.294 24.294 0 001.543-2.631 29.616 29.616 0 011.325 13.277z" opacity=".28"/></g><path d="M53.813 164.01c3.757 0 6.802-3.134 6.802-7 0-3.867-3.045-7.001-6.802-7.001-3.756 0-6.801 3.134-6.801 7.001 0 3.866 3.045 7 6.801 7z" fill="#fff"/><path d="M59.563 158.292a5.271 5.271 0 01-6.544 3.73 5.473 5.473 0 01-3.625-6.737 5.273 5.273 0 012.487-3.241 5.28 5.28 0 014.058-.489 5.473 5.473 0 013.624 6.737z" fill="#000"/><path d="M57.263 159.403a1.534 1.534 0 01-1.298 1.132 1.539 1.539 0 01-.604-.048 1.589 1.589 0 01-1.053-1.957 1.529 1.529 0 011.902-1.085 1.594 1.594 0 011.053 1.958zm24.466-2.122a6.833 6.833 0 004.957 5.819 6.847 6.847 0 002.68.2 6.97 6.97 0 005.848-7.86 6.827 6.827 0 00-2.562-4.602 6.853 6.853 0 00-5.075-1.417 6.969 6.969 0 00-5.848 7.86z" fill="#fff"/><path d="M82.776 156.768a5.308 5.308 0 001.993 3.58 5.325 5.325 0 003.947 1.102 5.416 5.416 0 004.548-6.114 5.311 5.311 0 00-1.992-3.579 5.329 5.329 0 00-3.948-1.103 5.423 5.423 0 00-4.548 6.114z" fill="#000"/><path d="M84.322 157.407a1.54 1.54 0 001.12 1.315c.197.055.403.071.606.046a1.579 1.579 0 001.321-1.777 1.548 1.548 0 00-1.12-1.315 1.547 1.547 0 00-.605-.045 1.571 1.571 0 00-1.322 1.776z" fill="#fff"/></svg>