<svg width="350" height="700" fill="none" xmlns="http://www.w3.org/2000/svg"><path d="M179.352 635.078c79.962 0 144.784-2.459 144.784-5.492s-64.822-5.492-144.784-5.492c-79.962 0-144.784 2.459-144.784 5.492s64.822 5.492 144.784 5.492z" fill="#D2CBEC"/><path d="M306.996 155.606v7.434h-30v-6.664l30-.77z" fill="#FF6551"/><path d="M306.996 157.093v5.947h-30v-4.565c1.517.638 4.383 1.276 9.644 1.346 10.301.114 17.91-.236 20.356-2.728z" fill="#F46D36" opacity=".36"/><path d="M151.228 220.281l-3.84 9.812-17.604 44.936h-5.733s9.398-32.945 13.772-48.32c1.28-4.504 2.14-7.495 2.201-7.723l5.365.595 5.839.7z" fill="#FF6551"/><path d="M151.228 220.237l-3.84 9.813-17.603 44.979h-1.771l17.375-55.448 5.839.656z" fill="#CC9281" opacity=".44"/><path d="M140.025 218.986l11.204 1.295-3.84 9.812a78.023 78.023 0 01-9.565-3.34c1.28-4.548 2.139-7.539 2.201-7.767z" fill="#CC9281" opacity=".44"/><path d="M186.375 275.03h-5.558l-5.549-41.105-2.157-15.987.649.087 10.52 1.443c0 .332.228 6.297.526 14.203.623 16.477 1.569 41.359 1.569 41.359z" fill="#FF6551"/><path d="M182.728 275.029h-1.911l-5.549-41.088-2.157-15.987.649.088 4.611 7.993.079.866 4.278 48.128z" fill="#CC9281" opacity=".44"/><path d="M184.28 219.485c0 .332.228 6.297.526 14.203-3.314.218-6.496.297-9.538.253l-2.157-15.987 11.169 1.531z" fill="#CC9281" opacity=".44"/><path d="M232.322 275.029h-5.734l-17.7-45.241-3.743-9.507 4.988-.56 6.224-.691c.062.228.938 3.324 2.253 7.941 4.41 15.428 13.712 48.058 13.712 48.058z" fill="#FF6551"/><path d="M228.28 275.029h-1.692l-17.7-45.242-3.743-9.507 4.988-.559c3.156 9.839 14.351 43.798 18.147 55.308z" fill="#CC9281" opacity=".44"/><path d="M218.637 226.928a146.168 146.168 0 01-9.723 2.86l-3.769-9.507 11.212-1.251c.062.184.938 3.28 2.28 7.898z" fill="#CC9281" opacity=".44"/><path d="M233.487 171.077a75.15 75.15 0 01-.359 2.554 68.65 68.65 0 01-1.754 8.221 8.287 8.287 0 01-.149.533c-2.674 9.699-4.146 19.294-14.763 25.643-2.051 1.224-4.699 2.099-6.794 3.245l-.105.061a57.992 57.992 0 01-13.212 5.247c-13.746 3.761-29.185 5.405-43.054 1.4a28.033 28.033 0 01-10.923-6.122 35.934 35.934 0 01-3.507-3.656 35.945 35.945 0 01-.719-.875 95.175 95.175 0 00-.701-.874 70.297 70.297 0 01-2.569-3.787 59.51 59.51 0 01-1.429-2.493c-.184-.332-.359-.673-.535-1.014l-.263-.516c-.166-.333-.341-.682-.499-1.024a13.371 13.371 0 01-.246-.515c-.079-.175-.289-.621-.429-.928-.141-.306-.272-.629-.412-.935a82.54 82.54 0 01-2.21-5.729 127.997 127.997 0 01-1.955-6.122l-.114-.376a382.361 382.361 0 01-1.805-6.402c-2.631-9.62-5.261-19.476-4.875-29.464a44.644 44.644 0 016.997-22.389 44.777 44.777 0 0117.392-15.777c6.479-3.28 13.738-4.898 20.892-5.799 7.793-.979 15.78-1.627 23.67-.979a46.35 46.35 0 0115.447 4.084 50.294 50.294 0 0117.455 13.311c7.653 9.087 10.748 22.153 11.826 33.741a84.67 84.67 0 01-.298 17.736z" fill="#864FF1"/><path d="M233.486 170.325c-4.05-22.345-17.314-64.403-59.474-58.281-48.594 7.066-48.305 56.217-47.174 70.63l-.114-.376a382.381 382.381 0 01-1.806-6.402c-2.63-9.62-5.26-19.476-4.874-29.464a44.662 44.662 0 016.998-22.391 44.807 44.807 0 0117.391-15.784c6.479-3.271 13.737-4.889 20.891-5.79 7.794-.979 15.78-1.626 23.671-.979a46.394 46.394 0 0115.438 4.049 50.2 50.2 0 0117.455 13.294c7.653 9.086 10.748 22.153 11.826 33.741a84.69 84.69 0 01-.228 17.753z" fill="#A277F4"/><path style="mix-blend-mode:multiply" opacity=".45" d="M233.486 170.325a62.8 62.8 0 01-.35 2.554 70.292 70.292 0 01-1.754 8.221c-.044.184-.096.358-.14.533-2.63 9.621-2.691 18.113-10.52 24.488-1.85 1.505-8.767 3.236-11.029 4.417l-.105.061-67.189.534a35.82 35.82 0 01-3.506-3.656 31.813 31.813 0 01-.719-.875c-.237-.297-.474-.594-.702-.874a70.284 70.284 0 01-2.568-3.787c-.5-.822-.982-1.653-1.429-2.493-.184-.332-.36-.673-.535-1.014l-.263-.516-.5-1.023a15.05 15.05 0 01-.245-.516c-.149-.306-.29-.621-.43-.927-.14-.306-.272-.63-.412-.936a87.702 87.702 0 01-1.157-2.843 80.555 80.555 0 01-1.052-2.886l.71-5.553s9.477 8.177 50.234 5.685c40.757-2.493 52.337-16.74 53.661-18.594z" fill="url(#paint0_linear_155_1511)"/><path d="M223.572 198.696c-.28.438-.561.875-.877 1.295a38.658 38.658 0 01-6.285 7.285 41.422 41.422 0 01-10.643 6.472 85.79 85.79 0 01-43.554 6.533 45.029 45.029 0 01-8.661-1.609 31.794 31.794 0 01-17.63-14.134 26.41 26.41 0 01-1.289-2.44 36.48 36.48 0 01-.535-1.207c-.193-.454 11.02-4.539 44.869-4.372 32.437.122 41.282-.245 44.254 1.915.122.081.239.168.351.262z" fill="#864FF1"/><path d="M223.221 198.417a5.504 5.504 0 00-.499.559c-1.841 2.362-9.582 9.551-41.292 11.177-31.709 1.627-43.79-5.247-43.79-5.247l-3.007-2.781c-.184-.394-.36-.796-.535-1.207-.193-.455 11.02-4.539 44.869-4.373 32.446.07 41.282-.297 44.254 1.872z" fill="#FFAE43" opacity=".56"/><path d="M119.668 205.571s-16.543-32.683-5.628-39.225c10.792-6.411 14.711 10.206 17.805 20.894 3.095 10.687 18.41 32.814 46.552 31.432 34.787-1.706 45.964-16.189 51.102-33.085 5.137-16.897 6.233-19.871 12.545-19.871s11.283 19.932-8.364 42.924c-19.646 22.993-61.367 22.573-74.105 20.256-12.739-2.318-29.308-6.315-39.907-23.325z" fill="#864FF1"/><path d="M193.686 180.051c-3.06-.324-22.241 1.749-30.053 1.53-.929-4.198-2.279-9.262-3.419-13.914a90.963 90.963 0 01-1.753-11.737c-.219-2.239 2.63-3.901 6.566-4.469 7.505-1.076 17.665-1.968 23.557-.962 1.148.192 6.496 1.749 6.882 2.825 1.604 4.451-1.377 23.01-1.78 26.727z" fill="#fff"/><path d="M195.605 161.851c.342 3.349.973 28.047.255 28.694-3.761 3.394-8.592 3.691-12.958 3.831-6.137.184-12.563 0-17.735-3.219-.763-.481-1.122-3.498-1.306-4.425-1.754-8.597-5.006-21.934-5.611-24.881h37.355z" fill="#fff"/><path d="M185.629 173.789c-4.786.481-10.195.936-13.623 4.723l8.057.157c2.466.153 4.943-.02 7.364-.516-.044-.376-.614-4.478-.93-4.443l-.868.079z" fill="#FFBF94"/><path d="M194.546 152.667s20.163 15.55 21.382 18.366c1.218 2.817-.509 5.799-4.559 5.335-4.05-.463-17.928-12.174-17.928-12.174s-5.374-4.014-4.848-6.848c.526-2.833 2.577-5.982 5.953-4.679z" fill="#fff"/><path d="M213.841 169.092c-7.715-4.548-22.794 1.347-29.974 4.609 2.63 2.178 1.754 4.373 1.973 4.758 0 0 17.945-.306 24.301-.49 6.356-.184 8.18-6.227 3.7-8.877z" fill="#fff"/><path d="M184.708 173.421c2.42-.481 4.778-1.697 7.092-2.536a55.786 55.786 0 017.014-2.082 36.816 36.816 0 016.706-.822 25.602 25.602 0 017.014.472v-.043a18.717 18.717 0 00-6.461-1.286 32.8 32.8 0 00-6.97.761 46.116 46.116 0 00-7.276 2.326 42.622 42.622 0 00-7.128 3.157v.053h.009z" fill="#D6D6D6"/><path d="M168.236 251.993a.457.457 0 01-.29.253 24.31 24.31 0 01-3.156.98l-4.12 1.076c-4.252 1.119-8.522 2.238-12.844 3.069a7.845 7.845 0 01-2.586.21 1.755 1.755 0 01-1.078-.481 1.894 1.894 0 01-.377-.778 8.21 8.21 0 01-.175-3.717 8.978 8.978 0 013.41-5.624 9.666 9.666 0 019.968-.717c.366.227.765.396 1.183.499a1.084 1.084 0 001.131-.42c.105-.209.159-.44.158-.673a9.342 9.342 0 00-.982-4.592l4.936-.411a102.7 102.7 0 013.436 7.574c.474 1.154.877 2.317 1.35 3.498.04.078.053.168.036.254zm52.154 4.329a1.894 1.894 0 01-.377.778c-.293.28-.674.45-1.078.481a7.853 7.853 0 01-2.587-.21c-4.322-.874-8.582-1.95-12.843-3.069l-4.12-1.076a24.833 24.833 0 01-3.156-.98.44.44 0 01-.29-.253.453.453 0 010-.263c.421-1.154.877-2.3 1.333-3.437a106.405 106.405 0 013.454-7.626l4.944.411a9.156 9.156 0 00-.973 4.565c-.004.233.047.464.149.674a1.096 1.096 0 001.131.42c.42-.1.82-.269 1.184-.499a9.668 9.668 0 019.968.717 9.033 9.033 0 012.463 2.902 8.986 8.986 0 011.043 3.657 8.056 8.056 0 01-.245 2.808z" fill="#495059"/><path d="M219.512 206.725a9.7 9.7 0 00-.456-2.746 10.048 10.048 0 00-1.578-2.799c-2.56-3.297-6.303-5.457-10.099-7.215a44.003 44.003 0 00-6.943-2.624 27.691 27.691 0 00-3.288-.673c-4.226-.578-8.504 0-12.773.105v-.097c-.78.07-1.561.105-2.332.123-.772.017-1.561-.053-2.332-.123a.316.316 0 000 .097c-4.261-.123-8.548-.683-12.773-.105a28.484 28.484 0 00-4.866 1.145 48.695 48.695 0 00-5.365 2.134c-3.787 1.75-7.54 3.918-10.091 7.216a10.107 10.107 0 00-1.587 2.798 10.47 10.47 0 00-.455 3.621c.013.878.077 1.754.192 2.624a53.829 53.829 0 003.209 11.238c.14.385.298.787.465 1.198 3.235 8.046 10.73 20.727 10.73 20.727.877.315 2.858-.297 4.129-.76.684-.245 1.166-.455 1.166-.455s-.385-3.149-.517-4.565a107.694 107.694 0 00-1.341-9.472 43.37 43.37 0 01-1.157-8.982 7.185 7.185 0 01.982-3.839c1.157-1.749 3.331-2.432 5.356-2.93 2.025-.499 4.278-.953 6.417-1.426a35.998 35.998 0 0115.632 0c2.139.473 4.295.875 6.417 1.426 2.121.551 4.199 1.198 5.356 2.93a7.197 7.197 0 01.991 3.839c.079 3.017-.614 6.008-1.166 8.982a107.694 107.694 0 00-1.341 9.472c-.132 1.416-.509 4.565-.509 4.565s.798.35 1.806.682c1.228.402 2.744.796 3.507.533 0 0 8.285-13.993 11.195-21.925.421-1.146.877-2.3 1.236-3.455a34.192 34.192 0 002.183-10.39v-.874z" fill="#49B3F7"/><path d="M200.445 191.359s-4.059 5.545-17.718 6.472c-11.555.787-18.682-4.373-20.602-6a28.41 28.41 0 014.874-1.146c4.217-.577 8.504 0 12.765.105v-.096c.771.07 1.552.105 2.332.122.78.018 1.551-.052 2.332-.122v.096c4.269-.122 8.547-.682 12.773-.105a27.79 27.79 0 013.244.674z" fill="#3DA6C0" opacity=".4"/><path d="M168.236 251.993a.46.46 0 01-.116.16.46.46 0 01-.174.094 24.462 24.462 0 01-3.156.979l-4.12 1.076c-4.252 1.119-8.522 2.239-12.844 3.07a7.845 7.845 0 01-2.586.21 1.755 1.755 0 01-1.078-.481 1.898 1.898 0 01-.377-.779 8.21 8.21 0 01-.175-3.717c1.753.875 7.373 3.026 16.508-.332a17.832 17.832 0 006.732-4.032c.474 1.155.877 2.318 1.35 3.499.04.078.053.167.036.253zm52.154 4.329a1.9 1.9 0 01-.377.778c-.293.28-.674.45-1.078.481a7.853 7.853 0 01-2.587-.21c-4.322-.875-8.582-1.95-12.843-3.07l-4.12-1.075a24.995 24.995 0 01-3.156-.98.44.44 0 01-.29-.254.45.45 0 010-.262c.421-1.154.877-2.3 1.333-3.437a25.95 25.95 0 0012.528 5.606c3.61.543 7.29.413 10.853-.385a8.064 8.064 0 01-.263 2.808z" fill="#495059" opacity=".4"/><path d="M201.445 242.888a22.552 22.552 0 01-1.805-.682s.376-3.148.508-4.565c.307-3.175.754-6.341 1.341-9.472.553-2.973 1.245-5.964 1.166-8.982a7.196 7.196 0 00-.99-3.839c-1.158-1.749-3.332-2.431-5.357-2.93-2.025-.498-4.278-.953-6.417-1.425a35.963 35.963 0 00-15.631 0c-2.139.472-4.296.874-6.418 1.425-2.121.551-4.199 1.198-5.356 2.93a7.185 7.185 0 00-.982 3.839c.073 3.021.46 6.025 1.157 8.965a106.978 106.978 0 011.341 9.471c.132 1.417.518 4.566.518 4.566s-.482.21-1.166.454c0 0-10.143-24.671-5.024-30.006 5.12-5.335 17.701-7.81 24.679-7.74 6.978.07 18.261 2.204 22.136 6.402s-4.427 27.077-3.7 31.589zm18.066-35.289a34.22 34.22 0 01-2.174 10.443 8.892 8.892 0 01-.667-.49 7.94 7.94 0 01-2.761-4.093 1.824 1.824 0 010-.875c.167-.568.763-.874 1.28-1.163a10.655 10.655 0 004.383-4.652c-.061.244-.061.542-.061.83zm-67.747 10.268c-.167 1.355-1.272 2.37-2.166 3.402-.4.449-.769.925-1.104 1.425a34.912 34.912 0 01-.465-1.198 53.768 53.768 0 01-3.209-11.238 19.647 19.647 0 001.973 2.291c1.359 1.356 2.867 2.554 4.339 3.805.179.139.336.304.465.489.169.313.228.674.167 1.024z" fill="#3DA6C0" opacity=".4"/><path d="M188.591 150.534c-.175.411-2.577 6.008-8.766 6.253-5.567.219-9.512-4.932-10.266-6.008 6.391-.849 12.904-1.295 19.032-.245z" fill="#D6D6D6"/><path d="M187.26 143.546l-.763 3.35-.675 2.999-.053.254s-1.306 3.988-6.531 4.084c-5.225.097-6.698-3.813-6.698-3.813v-.804l-.114-3.026-.131-3.682c0-13.994 11.607 1.04 11.607 1.04l1.122-.262.07.717 2.166-.857z" fill="#EA9573"/><path d="M186.497 146.896l-.675 2.999a11.63 11.63 0 01-6.032 1.951 15.807 15.807 0 01-7.215-2.23l-.114-3.026 11.476-2.624 1.192.455 1.368 2.475z" fill="#DD664A" opacity=".09"/><path d="M212.088 130.383l-.158.394a20.84 20.84 0 01-3.568 5.859c-2.078 2.274-4.857 3.761-7.574 5.248a106.24 106.24 0 01-14.641 6.848c-2.683.935-5.558 1.661-8.346 1.137a17.365 17.365 0 01-6.224-2.922 82.322 82.322 0 01-15.728-13.652 17.308 17.308 0 01-3.717-5.649 18.125 18.125 0 01-.57-6.997c0-.603.07-1.198.114-1.749a167.385 167.385 0 015.9-34.248l.342-.927c.061-5.248 5.181-8.99 10.082-10.932a45.771 45.771 0 0135.12.752c4.795 2.151 9.319 5.247 12.273 9.62 3.296 4.863 4.384 10.95 4.121 16.818-.263 5.868-1.754 11.606-3.253 17.282a97.406 97.406 0 01-4.173 13.118z" fill="#FFBF94"/><path d="M211.93 130.777a20.86 20.86 0 01-3.568 5.86c-2.078 2.274-4.857 3.76-7.574 5.247a106.007 106.007 0 01-14.641 6.848c-2.683.936-5.558 1.662-8.346 1.137a17.363 17.363 0 01-6.224-2.921 82.392 82.392 0 01-15.728-13.652 17.302 17.302 0 01-3.717-5.65 18.12 18.12 0 01-.57-6.996c0-.604.07-1.199.114-1.75.263.245 1.464 0 1.753.735 3.007 8.396 14.904 21.287 26.09 24.016 11.187 2.728 31.017-13.477 31.017-13.477l1.394.603zm-55.748-28.564l-.395 2.851s8.495-8.64 9.24-16.844c0 0 4.743 6.997 15.728 10.32 10.985 3.323 17.656.341 17.656.341s-2.963-2.877-3.673-5.379c0 0 9.249 4.68 15.412 1.662 0 0-2.288 5.746 1.569 13.25 3.858 7.504 3.954 10.119 3.954 10.119l3.84-19.556-6.233-16.94-18.463-3.044-25.976.481-6.084-1.04s-3.437 5.632-3.761 6.874c-.325 1.242-2.814 16.905-2.814 16.905z" fill="#DD664A" opacity=".09"/><path d="M152.736 108.957a217.91 217.91 0 01-1.323-7.145l-.132-.779c-1.07-6.612-1.753-13.512.509-19.809a19.129 19.129 0 015.014-7.617 17.187 17.187 0 012.253-1.75 13.036 13.036 0 018.25-2.204v.28c-2.7 3.892-3.665 8.492-4.384 13.233a99.073 99.073 0 01-1.946 11.23 33.933 33.933 0 01-8.241 14.561z" fill="#672410"/><path d="M218.067 131.949a12.092 12.092 0 01-7.566-1.828 14.769 14.769 0 01-1.605-1.137l4.48-8.405c2.008-2.623 5.786-4.031 8.767-2.623a6.298 6.298 0 013.191 3.498 7.162 7.162 0 01.158 4.836 8.936 8.936 0 01-2.914 3.873 8.97 8.97 0 01-4.511 1.786z" fill="#FFBF94"/><path d="M221.642 112.166a35.735 35.735 0 01-6.084 7.626c.596-4.154-1.14-8.238-2.121-12.323a35.578 35.578 0 01-.675-3.708 34.722 34.722 0 01.789-12.83l9.178-5.335.772-.446.447.289c2.236 1.636 2.849 4.836 2.884 7.67a36.39 36.39 0 01-5.19 19.057z" fill="#672410"/><path d="M221.642 112.166c2.043-6.235 4.612-16.345-.385-15.742-4.997.603-7.417 4.767-8.495 7.32a34.722 34.722 0 01.789-12.83l9.178-5.317 1.219-.157c2.236 1.635 2.849 4.836 2.884 7.67a36.388 36.388 0 01-5.19 19.056z" fill="#672410" opacity=".32"/><path d="M171.024 99.757a1.032 1.032 0 00-.254-.499 1.406 1.406 0 00-.578-.297c-1.324-.35-2.893.236-4.156.63a9.91 9.91 0 00-4.225 2.334c-.702.709-1.684 2.064-.562 2.878 1.254.874 3.165 0 4.384-.516 1.753-.744 5.409-1.819 5.435-4.154a1.365 1.365 0 00-.044-.376zm37.4 10.327c-.342-1.626-2.341-2.956-3.709-3.655a9.322 9.322 0 00-6.759-.98 1.545 1.545 0 00-.815.455 1.149 1.149 0 000 1.242c.222.373.521.694.876.944a30.538 30.538 0 003.691 2.327 14.134 14.134 0 003.779 1.626c1.306.298 3.305-.209 2.937-1.959z" fill="#672410"/><path d="M187.234 137.809a7.901 7.901 0 01-6.426 2.51 8.517 8.517 0 01-6.435-3.376 14.238 14.238 0 01-2.402-5.082 12.992 12.992 0 01-.342-1.749c.263 0 10.915 4.233 18.84.945-.155.859-.39 1.703-.702 2.519a12.614 12.614 0 01-2.533 4.233z" fill="#A33"/><path d="M189.775 133.549a16.221 16.221 0 01-8.688 1.531 21.777 21.777 0 01-9.108-3.219 12.992 12.992 0 01-.342-1.749c.263 0 10.914 4.233 18.84.945a13.98 13.98 0 01-.702 2.492z" fill="#fff"/><path d="M187.234 137.809a7.906 7.906 0 01-6.426 2.51 8.517 8.517 0 01-6.435-3.376 7.738 7.738 0 016.137.708s1.367-1.67 6.724.158z" fill="#FF6551"/><path d="M217.234 124.672c2.192-.761 4.384-2.545 4.577-4.941a.143.143 0 00-.09-.147.142.142 0 00-.165.051c-1.332 1.994-2.709 3.726-5.19 4.276a.503.503 0 00-.409.555.5.5 0 00.094.233 5.482 5.482 0 011.043 2.431 5.838 5.838 0 00.368 2.055.229.229 0 00.065.083.233.233 0 00.295.005c1.166-1.146.28-3.28-.588-4.601z" fill="#DD664A" opacity=".25"/><path d="M176.239 141.701a5.5 5.5 0 004.383 2.449c.938 0 3.262-.455 3.27-1.688 0-.07 0-.149-.114-.149-.491 0-.666.263-1.113.499a4.446 4.446 0 01-2.095.463 6.23 6.23 0 01-3.998-1.941c-.228-.219-.535.14-.368.367h.035z" fill="#DD664A"/><path d="M224.397 87.127c-2.166 2.562-5.26 4.067-8.443 5.457a67.094 67.094 0 01-13.536 4.382c-9.003 1.871-18.98 1.635-26.861-3.603-1.105-.735-9.933-6.647-13.729-10.32l-1.052-3.639-1.999-6.848c.2-1.236.493-2.455.877-3.647 2.998-9.366 11.134-12.515 19.866-14.649 10.415-2.545 23.065.403 32.367 5.248.789.41 1.56.874 2.332 1.294 4.138 2.431 8.004 5.527 10.52 9.62 2.516 4.094 3.375 9.332 1.534 13.758a11.553 11.553 0 01-1.876 2.947z" fill="#672410"/><path d="M152.737 108.957a215.3 215.3 0 01-1.324-7.145l-.132-.779c9.898-5.247 5.523-27.426 5.523-27.426a17.187 17.187 0 012.253-1.75 35.287 35.287 0 013.875 11.309 99.073 99.073 0 01-1.946 11.23 33.928 33.928 0 01-8.249 14.561z" fill="#56170D"/><path d="M155.235 118.349c-.587.403-1.201.814-1.832 1.181-1.806 1.058-3.752 1.845-5.751 1.426-2.788-.578-5.795-3.114-6.558-5.877a7.447 7.447 0 01.316-4.513c.256-.684.576-1.343.955-1.968a9.025 9.025 0 011.964-2.423c3.419-2.903 7.347-1.119 10.757.77l.149 11.404z" fill="#FFBF94"/><path d="M150.105 113.452c-1.797-1.46-2.305-3.691-2.253-5.903a.207.207 0 00-.035-.143.21.21 0 00-.368.038c-.964 2.221-.044 4.679 1.56 6.34-.668.453-1.298.959-1.884 1.513a4.954 4.954 0 00-1.578 2.099.609.609 0 00.211.694.616.616 0 00.727.006c.595-.566 1.122-1.2 1.569-1.889a11.834 11.834 0 012.06-1.959.494.494 0 00.194-.4.491.491 0 00-.203-.396z" fill="#DD664A" opacity=".25"/><path d="M199.349 78.075c.225-.052.459-.052.684 0 1.249.311 2.436.835 3.507 1.548a28.75 28.75 0 0010.765 3.498 9.936 9.936 0 01-1.893-6.638c.002-.35.108-.69.307-.98a1.288 1.288 0 011.446-.253c.471.217.901.513 1.271.875a8.38 8.38 0 003.717 1.994c5.138 1.014 3.551-3.857 4.103-6.953-.052.324.702 1.408.833 1.75.285.739.503 1.503.649 2.282a13.22 13.22 0 01.044 4.731 10.7 10.7 0 01-4.217 6.997c-3.507 2.501-8.232 2.466-12.204 1.312a13.04 13.04 0 01-4.672-2.458 20.32 20.32 0 004.559 8.623c-6.076-1.014-10.933-3.935-15.974-7.346 1.92 3.227 3.937 6.55 7.014 8.746a16.162 16.162 0 01-6.446-2.222 16.114 16.114 0 01-4.951-4.679 14.956 14.956 0 005.321 8.834c-1.753.052-3.568.28-5.303.166a23.625 23.625 0 01-5.602-1.207c-3.647-1.207-13.019-6.288-19.428-13.346v-.193a36.054 36.054 0 00-1.367-5.57c.131.41 7.013 9.209 21.864 14.517-.64-.227-1.026-3.498-1.122-4.119-.288-1.56-.273-3.16.044-4.714a2 2 0 01.727-1.058c1.035-.7 1.666.49 2.245 1.172a15.966 15.966 0 004.322 3.91c-.447-2.257-.877-4.662.105-6.858.482-1.084 3.831 2.16 4.12 2.388a27.19 27.19 0 003.507 2.563c1.057.421 2.058.97 2.981 1.635a11.702 11.702 0 01-1.578-8.072c.015-.292.14-.567.35-.77a.724.724 0 01.272-.105z" fill="#56170D"/><path d="M223.221 63.733a6.988 6.988 0 01-.333.498 15.562 15.562 0 01-5.966 5.004 15.608 15.608 0 01-7.649 1.494c-4.111-.297-7.96-2.239-12.072-2.624a4.893 4.893 0 00-2.919.411c-1.333.761-1.911 2.484-3.279 3.193-1.367.708-2.875.227-4.103-.543-1.227-.77-2.244-1.836-3.506-2.562-1.263-.726-2.893-1.067-4.103-.28-1.946 1.26-1.491 4.277-2.797 6.183-1.122 1.636-3.349 2.134-5.348 2.02-4.804-.27-9.029-3.419-11.554-7.573 4.383-13.617 19.751-15.742 29.544-13.836 17.989 3.498 22.557 9.262 28.659 9.192a31.22 31.22 0 005.426-.577z" fill="#672410" opacity=".28"/><path d="M186.489 122.521a3.909 3.909 0 00-2.183-2.274 6.79 6.79 0 00-3.183-.472c-1.481.096-3.007.516-3.769 1.915-.174.28-.253.607-.228.936a.925.925 0 00.946.822c.235-.051.459-.146.658-.28a5.034 5.034 0 013.577-.07c1.146.419 2.356.641 3.577.656a.89.89 0 00.333-.07c.394-.184.412-.744.272-1.163z" fill="#DD664A" opacity=".09"/><path d="M185.577 125.373c-.255-1.347-2.902-1.522-4.016-1.566-1.481-.061-3.182.096-4.26 1.216 0 0 0 .122.052.131 1.429.079 2.823-.297 4.261-.14a8.244 8.244 0 012.323.586c.553.219.877.464 1.412.192a.401.401 0 00.228-.419z" fill="#DD664A"/><path d="M153.403 119.53c-1.806 1.058-3.752 1.845-5.751 1.425-2.788-.577-5.795-3.113-6.558-5.877a7.448 7.448 0 01.316-4.513c.256-.684.576-1.343.955-1.967-.078 1.723.448 8.64 11.038 10.932zm64.663 12.419a12.094 12.094 0 01-7.566-1.828c11.3 1.443 14.851-8.746 14.851-8.746a7.162 7.162 0 01.158 4.836 8.937 8.937 0 01-2.905 3.923 8.976 8.976 0 01-4.538 1.815z" fill="#DD664A" opacity=".09"/><path d="M167.605 122.678c3.563 0 6.452-2.881 6.452-6.436s-2.889-6.437-6.452-6.437c-3.564 0-6.453 2.882-6.453 6.437s2.889 6.436 6.453 6.436z" fill="#fff"/><path d="M171.226 118.599a4.8 4.8 0 00-3.579-5.776 4.813 4.813 0 00-5.789 3.57 4.8 4.8 0 003.578 5.776 4.814 4.814 0 005.79-3.57z" fill="#191919"/><path d="M165.622 119.556a1.282 1.282 0 01-1.54 1.261 1.281 1.281 0 01-.939-1.753 1.288 1.288 0 011.191-.793 1.282 1.282 0 011.288 1.285zm32.578 6.454c3.564 0 6.453-2.881 6.453-6.436s-2.889-6.437-6.453-6.437c-3.563 0-6.452 2.882-6.452 6.437s2.889 6.436 6.452 6.436z" fill="#fff"/><path d="M200.542 124.243a4.794 4.794 0 000-6.79 4.82 4.82 0 00-6.807 0 4.794 4.794 0 000 6.79 4.822 4.822 0 006.807 0z" fill="#191919"/><path d="M196.228 122.897a1.29 1.29 0 01-.801 1.196 1.3 1.3 0 01-1.769-.944 1.29 1.29 0 011.272-1.546 1.276 1.276 0 011.201.797c.065.158.098.327.097.497z" fill="#fff"/><path d="M168.936 184.038a.126.126 0 01-.075-.024.135.135 0 01-.048-.063l-.666-2.16a.151.151 0 01-.006-.052.152.152 0 01.015-.05.126.126 0 01.033-.04.126.126 0 01.046-.024.11.11 0 01.051-.006.133.133 0 01.091.047.135.135 0 01.024.046l.667 2.16a.144.144 0 01-.012.1.137.137 0 01-.076.066h-.044z" fill="#2A2B2A"/><path d="M164.281 161.098c-1.753 2.327-4.304 4.312-6.408 6.341-1.087 1.041-2.358 2.038-3.34 3.157a48.393 48.393 0 01-5.208 5.589 17.33 17.33 0 01-2.279 1.749c-3.042 1.81-9.118 2.081-8.285-2.904.535-3.244 12.274-15.243 18.945-20.019 1.482-1.058 3.086-2.125 4.901-2.186a4.249 4.249 0 012.937 1.102c.561.487.907 1.175.964 1.915.123 1.741-1.183 3.91-2.227 5.256z" fill="#fff"/><path d="M164.545 175.302s3.349 8.413 4.287 8.204c.938-.21-1.815-9.516-1.815-9.516l-2.472 1.312zm.365-3.792c-.28-.6-.498-1.169-.808-1.856-1.226-2.792-2.415-5.944-1.935-6.823.747-1.389 4.103 4.2 5.644 8.791l-2.901-.112z" fill="#2435A1"/><path d="M172.34 176.552c.105.971-.158 1.67-1.254 1.478a2.626 2.626 0 01-1.271-.875c-.053.324.096.683 0 .989a.797.797 0 01-1.026.323 2.193 2.193 0 01-.876-.778c.034.29.034.584 0 .874a.363.363 0 01-.088.202.288.288 0 01-.202.061 3.57 3.57 0 01-3.033-1.329c-.263 2.877-3.831.419-5.102 0-.807-.272-2.017-.569-2.341-1.47-1.175-3.306 3.507-4.81 5.83-5.125a16.733 16.733 0 014.62-.271c1.262.184 2.683.56 3.314 1.749a14.52 14.52 0 011.429 4.172z" fill="#FFBF94"/><path d="M141.016 179.018a3.19 3.19 0 01-2.338-2.702 3.184 3.184 0 01.102-1.251 5.25 5.25 0 014.384-4.084 76.111 76.111 0 0111.8-.359c2.174.105 4.383-.139 6.566.14-1.92 2.134-1.928 6-1.323 8.519.008 0-15.386.647-19.191-.263z" fill="#fff"/><path d="M159.609 165.069l-6.137 5.248c-1.419.252-2.81.638-4.156 1.154 3.866-.157 7.738-.113 11.599.131l.614-.874-6.672-.437 4.383-3.971.369-1.251z" fill="#D6D6D6"/><path d="M210.597 177.969h-61.271v1.312h61.271v-1.312z" fill="#2435A1"/><path d="M122.588 191.909l-.877 2.029-2.455 5.405-37.381 82.429H74.86s21.917-58.789 30.579-82.394c2.069-5.641 3.375-9.279 3.437-9.62l13.711 2.151z" fill="#FF6551"/><path d="M108.788 189.767l13.799 2.142-3.366 7.434h-13.869c2.069-5.606 3.375-9.244 3.436-9.576z" fill="#CC9281" opacity=".44"/><path d="M283.431 281.772h-7.057l-37.355-82.359-3.402-7.504 2.209-.341 11.59-1.801c.061.332 1.377 3.988 3.454 9.62 8.653 23.675 30.561 82.385 30.561 82.385z" fill="#FF6551"/><path d="M252.87 199.431h-13.851l-3.402-7.504 13.799-2.143c.061.315 1.377 3.971 3.454 9.647z" fill="#CC9281" opacity=".44"/><path d="M278.68 281.772h-2.306l-37.355-82.359-3.402-7.504 2.209-.341 5.147 2.37 35.707 87.834z" fill="#CC9281" opacity=".44"/><path d="M132.344 188.342h-31.403v5.597h31.403v-5.597zm124.918 0h-31.403v5.597h31.403v-5.597z" fill="#CC9281"/><path d="M132.344 188.342h-31.403v5.597h31.403v-5.597z" fill="#FF6551"/><path d="M132.344 188.342h-31.403v5.597h31.403v-5.597z" fill="#CC9281"/><path d="M257.262 188.342h-31.403v5.597h31.403v-5.597z" fill="#FF6551"/><path d="M257.262 188.342h-31.403v5.597h31.403v-5.597z" fill="#CC9281"/><path d="M121.667 193.938l-2.446 5.405-37.39 82.429h-3.34l35.478-87.834h7.698z" fill="#CC9281" opacity=".44"/><path d="M305.935 179.281H51.855v10.495h254.08v-10.495z" fill="#FF8777"/><path d="M305.935 183.697H51.855v6.07h254.08v-6.07z" fill="#FF6551"/><path d="M306.998 161.973v8.649h-34.664v-7.416l34.664-1.233z" fill="#FFC652"/><path d="M306.998 165.69v4.933h-34.664v-4.565c.728.874 2.306 1.81 5.716 1.81 5.234 0 21.61.56 28.948-2.178z" fill="#FFDF7B"/><path d="M308.399 169.092v10.189h-30.623l-.359-4.015-.421-4.644 31.403-1.53z" fill="#67D449"/><path d="M308.4 174.182v5.098h-30.623l-.359-4.014c0 .053 1.105 1.697 5.786 1.959 4.682.263 24.214.779 25.196-3.043z" fill="#2D7F75" opacity=".36"/><path d="M258.087 167.064a1.046 1.046 0 01-.359.061 1.058 1.058 0 01-1.009-.7l-2.288-6.236-1.183-3.235-4.199-11.44a1.062 1.062 0 01.644-1.343 1.071 1.071 0 011.363.608l4.471 12.175.877 2.422.342.875.596 1.644 1.385 3.761a1.068 1.068 0 01-.27 1.188 1.086 1.086 0 01-.37.22z" fill="#F7A845"/><path d="M257.71 160.915l.079 1.067h-.114a1.092 1.092 0 01-.35-.052c-.579-.193-.684-.875-.754-1.382v-.263l-.141-.874-.359-2.423-1.245-8.221a1.069 1.069 0 01.903-1.215 1.072 1.072 0 011.219.9c.342 2.336.876 5.851 1.28 8.536.228 1.478.412 2.712.508 3.332.044.263.061.42.07.455l-1.052.166-.044-.026z" fill="#FFC652"/><path d="M267.975 141.141l-2.63 15.813-.552 3.332-.096.586a1.075 1.075 0 01-1.052.874h-.185a1.053 1.053 0 01-.865-.809 1.054 1.054 0 01-.011-.415l.044-.236.552-3.332 2.7-16.163a1.076 1.076 0 01.411-.748 1.063 1.063 0 01.83-.208 1.067 1.067 0 01.863 1.306h-.009z" fill="#2435A1"/><path d="M258.692 160.285h-3.919l-.359-.096-1.184-3.236h2.28l.877 2.423-.36-2.423h2.157c.228 1.478.412 2.711.508 3.332z" fill="#FC9630" opacity=".26"/><path d="M265.337 156.953l-.561 3.332h-2.157l.552-3.332h2.166z" fill="#2D7F75" opacity=".36"/><path d="M268.186 158.492h-14.624v20.789h14.624v-20.789z" fill="#49B3F7"/><path d="M268.186 171.479v7.802h-14.624v-7.198a12.211 12.211 0 007.312 2.624 9.822 9.822 0 007.312-3.228z" fill="#F2704F" opacity=".42"/><path d="M268.186 158.492v3.192a12.944 12.944 0 01-7.312 2.073 14.835 14.835 0 01-7.312-1.863v-3.437l14.624.035z" fill="#fff" opacity=".24"/><path d="M102.696 174.304l-46.622 1.329-3.182-1.329-14.58-33.802v-.009h51.97l10.257 27.943 2.157 5.868z" fill="#545454"/><path d="M118.668 174.305H52.891v4.967h65.777v-4.967z" fill="#686868"/><path d="M118.695 174.304v4.968h-65.75v-4.968l-14.633-33.802c.255.437 16.842 29.508 61.771 27.943h.456l2.157 5.868 15.999-.009z" fill="#545454" opacity=".35"/><defs><linearGradient id="paint0_linear_155_1511" x1="128.793" y1="190.72" x2="233.486" y2="190.72" gradientUnits="userSpaceOnUse"><stop stop-color="#FFD247"/><stop offset="1" stop-color="#FFDF7B"/></linearGradient></defs></svg>