<svg width="213" height="639" fill="none" xmlns="http://www.w3.org/2000/svg"><path d="M97.7 170.845l6.638 2.015 4.3 1.043-4.155-1.525-6.639-2.018-.145.485z" fill="#8F7ECE"/><path d="M100.464 169.706l-5.786-1.756-.934 3.117 5.763 1.75c.183.81.65 1.593 1.335 2.245l1.962-6.452c-.923.154-1.739.534-2.34 1.096z" fill="#FF5000"/><path d="M94.703 166.516c.258.078.403.35.325.609l-1.437 4.79a.483.483 0 01-.605.326.491.491 0 01-.325-.609l1.436-4.79a.484.484 0 01.606-.326z" fill="#FF5000"/><path fill-rule="evenodd" clip-rule="evenodd" d="M41.342 165.716c-.077-.04-.049-.089-.012-.141 1.362-.485 2.709-1.139 4.072-1.618.78 1.133 2.053 1.088 2.886.107.958.259 4.73 1.209 5.694 1.539-.796 1.252-2.226 1.797-3.272 2.822-2.187-.697-7.171-1.881-9.368-2.709z" fill="#8F7ECE"/><path opacity=".62" fill-rule="evenodd" clip-rule="evenodd" d="M41.342 165.716c-.077-.04-.049-.089-.012-.141 1.362-.485 2.709-1.139 4.072-1.618.78 1.133 2.053 1.088 2.886.107.958.259 4.73 1.209 5.694 1.539-.796 1.252-2.226 1.797-3.272 2.822-2.187-.697-7.171-1.881-9.368-2.709z" fill="#fff"/><path fill-rule="evenodd" clip-rule="evenodd" d="M47.482 166.319c.823-1.744 3.306-2.946 4.713-3.023 1.624-.089 3.673.801 5.564 1.432 1.99.664 3.798 1.184 5.527 1.73 3.68 1.16 7.044 2.147 11.056 3.46 3.942 1.292 7.74 2.649 11.076 3.699 1.742.548 3.57 1.252 5.55 1.967 1.71.616 3.493 1.213 4.993 2.299.214.155.261 1.045.463 1.221 2.54 2.223 3.344 4.801 3.601 7.509.089.933.112 1.852-.408 2.466-.72.845-1.687.252-2.747 0-1.157-.275-2.32.046-3.369-.321-1.242-.433-2.462-.913-3.789-1.398-1.55-.567-2.964-.894-4.267-2.195-.858-.859-1.098-1.924-2.01-2.805-1.263-1.224-2.993-1.696-4.511-2.295-1.567-.617-2.958-1.082-4.452-1.584-6.142-2.07-11.616-3.769-17.71-5.929-1.39-.491-2.743-.905-4.453-1.585-1.208-.482-3.532-1.226-4.448-2.24-.465-.515-.757-1.608-.379-2.408z" fill="#FF5000"/><path d="M100.181 189.443c.52-.614.501-1.902.411-2.835-.257-2.708-1.465-6.008-4.006-8.23a8.306 8.306 0 00-.501-.399c-1.149.805-1.101 2.234-1.384 3.299-.665 2.501-1.346 5.261-1.198 7.477a32.69 32.69 0 003.27.978c1.06.252 2.69.555 3.408-.29z" fill="#EFAD1B"/><path fill-rule="evenodd" clip-rule="evenodd" d="M49.324 167.114c-.09-.632 1.49-1.59 2.22-1.737 1.18-.24 3.596.692 5.06 1.116 5.056 1.456 10.262 3.099 15.3 4.646 5.45 1.673 9.867 2.975 15.326 5.002 1.626.603 4.036 1.454 5.093 2.898.631.864 1 3.308.071 4.341-1.136 1.261-3.85.353-5.194-.569-.741-.51-1.335-1.26-2.05-1.848-1.444-1.193-3.02-1.795-4.574-2.349-4.306-1.535-9.15-3.104-13.462-4.625a425.866 425.866 0 01-9.028-3.276c-1.468-.557-2.991-1.048-4.507-1.52-1.456-.455-3.21-.749-4.255-2.079z" fill="#8F7ECE"/><path opacity=".62" fill-rule="evenodd" clip-rule="evenodd" d="M49.324 167.114c-.09-.632 1.49-1.59 2.22-1.737 1.18-.24 3.596.692 5.06 1.116 5.056 1.456 10.262 3.099 15.3 4.646 5.45 1.673 9.867 2.975 15.326 5.002 1.626.603 4.036 1.454 5.093 2.898.631.864 1 3.308.071 4.341-1.136 1.261-3.85.353-5.194-.569-.741-.51-1.335-1.26-2.05-1.848-1.444-1.193-3.02-1.795-4.574-2.349-4.306-1.535-9.15-3.104-13.462-4.625a425.866 425.866 0 01-9.028-3.276c-1.468-.557-2.991-1.048-4.507-1.52-1.456-.455-3.21-.749-4.255-2.079z" fill="#fff"/><path d="M55.23 166.065a97.579 97.579 0 00-.536-.168c-1.136.799-2.264 1.699-3.393 2.586.184.072.37.137.558.199.583-.427 1.164-.886 1.742-1.337.544-.426 1.098-.845 1.629-1.28zm4.554 1.361c-.184.142-.35.325-.518.447-.922.674-1.972 1.454-2.88 2.232.207.069.414.138.62.212 1.049-.817 2.077-1.867 3.117-2.791a43.618 43.618 0 00-.34-.1zm6.037 1.835c-1.282.879-2.672 1.841-3.905 2.868.152.056.303.112.456.166a72.444 72.444 0 003.867-2.904c-.14-.042-.279-.087-.418-.13zm4.853 1.501a33.008 33.008 0 00-3.662 3.19l.101.036c.094.035.194.068.291.101a59.374 59.374 0 003.658-3.21l-.388-.117zm5.101 1.563c-1.278.916-2.538 2.029-3.783 3.343l.43.144c1.239-1.072 2.528-2.284 3.718-3.374a26.65 26.65 0 01-.365-.113zm5.029 1.583c-1.222.955-2.767 2.177-3.98 3.4.159.054.316.109.474.161 1.277-1.108 2.543-2.356 3.822-3.458-.105-.033-.211-.069-.316-.103zm4.766 1.625c-.15-.053-.3-.107-.449-.158-1.288 1.075-2.59 2.283-3.84 3.496.2.074.401.152.6.232l.2-.201a116.982 116.982 0 013.488-3.369zm4.14 1.606c-.118-.054-.236-.109-.355-.161-.33.362-.665.731-1.018 1.092-.966.989-2.055 2.067-2.849 3.189.123.115.246.233.367.35 1.294-1.367 2.569-2.982 3.854-4.47zm.321 6.798c.138.022.274.037.41.048.83-.939 1.664-1.998 2.488-2.979a4.869 4.869 0 00-.038-.333c-.955 1.07-1.904 2.213-2.86 3.264z" fill="#8F7ECE"/><path fill-rule="evenodd" clip-rule="evenodd" d="M90.984 185.96c.765-.27 2.1.02 3.398.383.554.158 1.448.423 1.365.94-.098.617-1.16.476-1.54.425-1.203-.164-2.625-.608-3.311-1.066-.099-.166-.043-.502.088-.682zm3.671-.899c-.042-1.316 2.79-.923 2.523.137-.115.458-1.554.782-2.186.461-.226-.116-.33-.372-.337-.598z" fill="#fff"/><path d="M50.808 185.479a2.883 2.883 0 003.655 1.827l6.916-2.338a.407.407 0 00.255-.517.404.404 0 00-.515-.258l-6.917 2.339a2.069 2.069 0 01-2.62-1.312 2.086 2.086 0 011.302-2.638l7.99-2.703a1.446 1.446 0 011.832.917 1.457 1.457 0 01-.911 1.841l-6.604 2.235a.852.852 0 01-1.079-.54.865.865 0 01.536-1.089l4.888-1.651a.407.407 0 00.254-.518.403.403 0 00-.514-.258l-4.887 1.651a1.686 1.686 0 00-1.048 2.128 1.669 1.669 0 002.11 1.056l6.604-2.232a2.284 2.284 0 001.422-2.883 2.259 2.259 0 00-2.86-1.435l-7.993 2.703c-1.508.509-2.32 2.157-1.816 3.675z" fill="#B1BC00"/><path d="M145.733 390.159a.669.669 0 01-.834-.443l-2.932-9.569a.676.676 0 01.441-.84l20.417-5.632a.666.666 0 01.836.446l2.536 8.279a.67.67 0 01-.44.84l-19.258 6.654-.766.265z" fill="#4D3D87"/><path d="M132.993 389.865l-8.251 2.561-1.652-1.694-.922-.947 9.864-3.06.961 3.14z" fill="#B1BC00"/><path d="M138.538 393.939l-4.328 1.344a.84.84 0 01-1.051-.561l-1.005-3.273a.84.84 0 00-1.053-.561l-2.817.873a.84.84 0 01-1.054-.56l-.693-2.265a.853.853 0 01.556-1.06l2.819-.875a.85.85 0 00.557-1.06l-1.005-3.273a.854.854 0 01.557-1.061l4.327-1.344a.844.844 0 011.054.561l3.693 12.054a.846.846 0 01-.557 1.061z" fill="#4D3D87"/><path d="M138.39 394.149a.88.88 0 01-.516-.003.876.876 0 01-.558-.571l-3.774-12.32a.88.88 0 01.142-.787.884.884 0 01.425-.295l26.294-7.254a.856.856 0 011.074.575l3.266 10.659a.869.869 0 01-.566 1.087l-24.799 8.566-.988.343z" fill="#B1BC00"/><path fill-rule="evenodd" clip-rule="evenodd" d="M155.559 375.709c.687.322 1.96.178 3.203-.041.529-.093 1.387-.258 1.356-.748-.034-.581-1.038-.551-1.395-.538-1.136.041-2.5.323-3.182.685-.109.145-.088.464.018.642zm3.339 1.183c-.16 1.219 2.513 1.118 2.362.107-.066-.439-1.379-.876-1.995-.636-.222.088-.34.314-.367.529zm-21.423 9.635c.725.451 1.373 1.74 1.937 3.047.239.56.613 1.469.14 1.743-.566.328-1.155-.639-1.364-.984-.662-1.097-1.241-2.559-1.323-3.427.067-.19.377-.366.61-.379zm3.157 2.423c1.039-.905 2.592 1.682 1.557 2.164-.448.208-1.663-.76-1.821-1.491-.056-.263.084-.514.264-.673z" fill="#fff"/><path d="M122.951 398.94l-1.008.278-5.963.981a.861.861 0 01-1.076-.576l-3.265-10.659a.868.868 0 01.567-1.087l6.463-2.911a.858.858 0 011.074.573l3.776 12.32a.862.862 0 01-.568 1.081z" fill="#4D3D87"/><path fill-rule="evenodd" clip-rule="evenodd" d="M115.645 396.223c-.74-.414-1.763-3.718-.624-3.999.929-.227 1.764 2.71 1.338 3.617-.111.237-.251.345-.714.382zm1.649-4.45c-.967.6-1.414-1.074-.829-1.421.787-.468 1.683.891.829 1.421zm-2.86-.939c-1.011.378-1.67-2.174-.706-2.396.406-.093.58.157.833.629.374.696.579 1.503-.127 1.767z" fill="#fff"/><path d="M167.011 500.121a159.882 159.882 0 00-1.963-12.844c-.411-2.084-.74-4.103-1.339-6.019-.578-1.85-1.085-3.767-1.778-5.347-.035-.028-.068-.091-.096-.131-1.293-1.851-2.738-5.126-6.068-4.94-2.408.133-4.169 2.921-5.265 5.029-.704 1.353-1.229 2.761-1.688 4.194a.738.738 0 00.348.028c1.983 2.804 3.073 7.183 3.927 11.497 1.608 8.133 2.119 16.671 2.678 25.688.809 13.108 2.101 27.843.447 40.866-1.444 11.355-1.94 16.861-13.47 23.582 9.43 1.223 19.711-3.296 22.213-13.162 1.01-3.978 1.763-8.32 2.232-12.577.987-8.98 1.517-18.145 1.517-28.023-.001-9.661-.698-18.984-1.695-27.841z" fill="#4D3D87"/><path d="M155.767 470.839c3.329-.186 4.774 3.09 6.067 4.94.029.041.062.103.097.132.028.024.056.023.082-.043-1.507-3.536-2.562-6.02-4.64-8.353a13.806 13.806 0 00-6.004-3.92c-.494-.159-1.891.734-2.407.637-.658-.124-.44-1.219-1.124-1.23a11.7 11.7 0 00-4.297.741c-3.877 1.441-7.437 5.179-9.192 9.431-.885 2.149-1.608 4.519-2.23 7.096-.643 2.661-1.341 5.501-1.071 8.263.287 2.957 1.947 4.885 3.747 6.558 1.169 1.085 2.551 2.416 4.552 2.425 3.654.017 5.115-3.497 6.068-6.287.865-2.529 1.65-5.149 2.409-7.815.321-1.124.636-2.245.991-3.352.458-1.432.983-2.841 1.687-4.193 1.095-2.109 2.857-4.896 5.265-5.03z" fill="#8F7ECE"/><path d="M141.666 477.126c1.138-3.009 2.605-5.845 4.55-8.444 1.392-1.857 3.215-3.259 4.908-4.85.066-.062.147-.143.236-.24a12.235 12.235 0 00-3.551-.589c-1.391.872-2.577 1.977-3.644 3.074-5.053 5.195-7.548 11.348-9.28 19.582-.562 2.666-1.018 4.846-.804 7.994.017.256.047.542.09.838.206.204.414.403.623.599.485.45 1.008.942 1.595 1.365.145-.391.25-.88.369-1.365 1.53-6.206 2.901-12.659 4.908-17.964z" fill="#EFAD1B"/><path fill-rule="evenodd" clip-rule="evenodd" d="M156.117 475.405c.599-.54 1.512.255 1.963.808.538.662 1.095 1.859 1.428 2.874.394 1.208.757 2.542.623 3.593-.082.662-.527 1.142-.891 1.167-1.089.077-1.937-2.989-2.232-3.772-.578-1.544-1.246-3.068-.891-4.67zm4.281 12.485c1.501-.693 2.273 4.294.892 4.222-.766-.04-1.9-3.756-.892-4.222z" fill="#fff"/><path d="M49.777 500.121a159.88 159.88 0 011.964-12.844c.41-2.084.74-4.103 1.338-6.019.578-1.85 1.085-3.767 1.779-5.347.033-.028.067-.091.096-.131 1.29-1.851 2.738-5.126 6.068-4.94 2.408.133 4.167 2.921 5.264 5.029.703 1.353 1.23 2.761 1.688 4.194a.744.744 0 01-.349.028c-1.983 2.804-3.073 7.183-3.927 11.497-1.61 8.133-2.12 16.671-2.676 25.688-.811 13.108-2.102 27.843-.447 40.866 1.442 11.355 1.938 16.861 13.468 23.582-9.43 1.223-19.71-3.296-22.214-13.162-1.009-3.978-1.762-8.32-2.23-12.577a253.958 253.958 0 01-1.517-28.023c0-9.661.696-18.984 1.695-27.841z" fill="#4D3D87"/><path d="M61.021 470.839c-3.33-.186-4.777 3.09-6.067 4.94-.029.041-.063.103-.097.132-.03.024-.058.024-.082-.043 1.507-3.536 2.56-6.02 4.64-8.353a13.805 13.805 0 015.977-3.912c.548-.177 2.124.349 2.699.248.604-.107.21-.837.836-.849 1.41-.027 2.864.2 4.319.741 3.878 1.441 7.438 5.179 9.191 9.431.887 2.149 1.61 4.519 2.232 7.096.64 2.661 1.34 5.501 1.07 8.263-.288 2.957-1.947 4.885-3.748 6.558-1.166 1.085-2.549 2.416-4.55 2.425-3.655.017-5.115-3.497-6.07-6.287-.863-2.529-1.648-5.149-2.407-7.815-.322-1.124-.638-2.245-.99-3.351-.459-1.433-.985-2.841-1.689-4.194-1.096-2.109-2.855-4.896-5.264-5.03z" fill="#8F7ECE"/><path d="M75.121 477.126c-1.138-3.009-2.606-5.845-4.551-8.444-1.392-1.857-3.215-3.259-4.91-4.85a5.375 5.375 0 01-.232-.24 12.211 12.211 0 013.549-.589c1.39.872 2.578 1.977 3.644 3.074 5.053 5.195 7.55 11.348 9.28 19.582.562 2.666 1.018 4.846.805 7.994-.018.256-.049.542-.092.838a23.45 23.45 0 01-.623.599c-.485.45-1.006.942-1.594 1.365-.143-.391-.25-.88-.37-1.365-1.53-6.206-2.9-12.659-4.906-17.964z" fill="#EFAD1B"/><path fill-rule="evenodd" clip-rule="evenodd" d="M60.669 475.405c-.6-.54-1.513.255-1.964.808-.538.662-1.095 1.859-1.428 2.874-.395 1.208-.757 2.542-.624 3.593.084.662.529 1.142.893 1.167 1.089.077 1.936-2.989 2.23-3.772.58-1.544 1.247-3.068.893-4.67zm-4.283 12.485c-1.5-.693-2.272 4.294-.893 4.222.767-.04 1.9-3.756.893-4.222z" fill="#fff"/><path fill-rule="evenodd" clip-rule="evenodd" d="M127.812 488.732c-.125.281-4.025-1.293-5.166-1.298.013-1.709.094-6.689-.013-8.266-.096-1.411-.222-2.981-.95-3.613-.854-.741-3.724-.845-5.701-.957-4.499-.256-8.209-.318-12.984-.318-2.263 0-4.661.038-5.807.743-1.837 1.132-2.43 8.82-3.278 11.026-1.828 0-3.606-.052-5.277-.212-.068-3.872 1.095-10.696 2.432-12.939 1.681-2.814 4.63-3.88 9.051-4.203.251-.018.507 1.46.767 1.447 1.926-.102 4.646.03 7.284.212 3.967.273 8.483-1.471 12.21-.849 2.452.409 4.562 1.195 5.949 2.755 2.146 2.416 2.065 12.144 1.483 16.472z" fill="#4D3D87"/><path fill-rule="evenodd" clip-rule="evenodd" d="M101.097 471.836c.737.566 2.672.607 4.328.531 3.403-.156 6.308-.107 9.607-.107 1.695 0 3.691.115 4.433-.424.576-.419.81-1.404.845-2.341-3.713-.608-8.197-.364-12.141-.635-2.637-.181-5.358-.314-7.284-.212-.268.014-.531.031-.789.05-.084 1.051.282 2.584 1.001 3.138z" fill="#8F7ECE"/><path fill-rule="evenodd" clip-rule="evenodd" d="M108.279 478.322c7.949-.381 15.376.74 21.429 2.553 1.512.453 2.954 1.042 4.353 1.659 1.385.61 2.749 1.249 4.016 1.958 2.575 1.438 4.672 3.411 6.384 5.616.889 1.147 1.713 2.305 2.408 3.616 2.053 3.88 3.449 8.56 4.269 13.742 1.08 6.823 1.333 15.134 1.016 22.713-.159 3.761-.56 7.459-.889 11.147-.324 3.643-.708 7.314-1.015 11.02-.622 7.524-.758 15.337-2.156 21.911-.357 1.685-.825 3.193-1.478 4.552-.659 1.371-1.372 2.613-2.368 3.617-1.029 1.038-2.245 1.739-3.719 2.298-.731.277-1.44.575-2.241.766-.792.188-1.624.31-2.535.424-5.184.657-11.074.937-17.034.937-1.941 0-3.872.17-5.79.17-1.943 0-3.934.043-5.96-.044a141.08 141.08 0 00-5.876-.126c-3.917 0-7.817-.204-11.453-.511-1.909-.161-3.723-.317-5.412-.596a17.608 17.608 0 01-4.563-1.403c-2.776-1.299-4.334-3.652-5.496-6.51-1.168-2.872-1.619-6.359-2.028-9.999-.204-1.796-.434-3.634-.55-5.488-.12-1.899-.188-3.804-.297-5.701-.21-3.649-.654-7.431-.971-11.062-.661-7.567-1.437-14.565-1.438-22.549 0-3.9.246-7.768.634-11.396.39-3.634.982-7.087 1.861-10.169.892-3.131 1.916-6.073 3.423-8.594 2.246-3.759 5.205-6.843 9.171-8.85 1.298-.657 2.639-1.344 4.058-1.915 2.848-1.144 5.966-1.977 9.342-2.638 3.357-.656 6.93-1.148 10.821-1.148h.084z" fill="#FF5000"/><path fill-rule="evenodd" clip-rule="evenodd" d="M108.279 478.322c7.949-.381 15.376.74 21.429 2.553 1.512.453 2.954 1.042 4.353 1.659 1.385.61 2.749 1.249 4.016 1.958 2.575 1.438 4.672 3.411 6.384 5.616.889 1.147 1.713 2.305 2.408 3.616 2.053 3.88 3.449 8.56 4.269 13.742 1.08 6.823 1.333 15.134 1.016 22.713-.159 3.761-.56 7.459-.889 11.147-.324 3.643-.708 7.314-1.015 11.02-.622 7.524-.758 15.337-2.156 21.911-.357 1.685-.825 3.193-1.478 4.552-.659 1.371-1.372 2.613-2.368 3.617-1.029 1.038-2.245 1.739-3.719 2.298-.731.277-1.44.575-2.241.766-.792.188-1.624.31-2.535.424-5.184.657-11.074.937-17.034.937-1.941 0-3.872.17-5.79.17-1.943 0-3.934.043-5.96-.044a141.08 141.08 0 00-5.876-.126c-3.917 0-7.817-.204-11.453-.511-1.909-.161-3.723-.317-5.412-.596a17.608 17.608 0 01-4.563-1.403c-2.776-1.299-4.334-3.652-5.496-6.51-1.168-2.872-1.619-6.359-2.028-9.999-.204-1.796-.434-3.634-.55-5.488-.12-1.899-.188-3.804-.297-5.701-.21-3.649-.654-7.431-.971-11.062-.661-7.567-1.437-14.565-1.438-22.549 0-3.9.246-7.768.634-11.396.39-3.634.982-7.087 1.861-10.169.892-3.131 1.916-6.073 3.423-8.594 2.246-3.759 5.205-6.843 9.171-8.85 1.298-.657 2.639-1.344 4.058-1.915 2.848-1.144 5.966-1.977 9.342-2.638 3.357-.656 6.93-1.148 10.821-1.148h.084z" fill="#FF5000"/><path d="M142.763 569.348c-.276 3.29-.648 6.47-1.272 9.404-.358 1.685-.824 3.192-1.478 4.551a18.78 18.78 0 01-1.101 2.012c.555-.175 1.081-.389 1.617-.591 1.474-.56 2.69-1.26 3.719-2.298.996-1.004 1.709-2.246 2.368-3.617.653-1.36 1.121-2.867 1.478-4.552.419-1.964.721-4.038.961-6.182-2.026 0-4.896.595-6.292 1.273z" fill="#EFAD1B"/><path opacity=".21" d="M144.249 582.426c.996-1.004 1.709-2.246 2.368-3.617.652-1.36 1.12-2.867 1.478-4.552 1.397-6.574 1.533-14.387 2.155-21.911.308-3.706.692-7.377 1.016-11.02.328-3.689.729-7.386.888-11.147.318-7.579.065-15.89-1.016-22.713-.819-5.182-2.215-9.862-4.269-13.742-.694-1.311-1.518-2.469-2.408-3.616-1.712-2.205-3.809-4.179-6.383-5.617-1.267-.708-2.632-1.347-4.016-1.957-1.4-.617-2.841-1.206-4.353-1.659-6.053-1.813-13.48-2.934-21.429-2.553h-.084c-3.891 0-7.465.492-10.821 1.149-3.376.661-6.494 1.493-9.342 2.638-1.42.571-2.76 1.257-4.058 1.914a20.855 20.855 0 00-5.301 3.842 37.98 37.98 0 012.756-1.261c2.847-1.145 5.965-1.977 9.34-2.638 3.356-.657 6.93-1.149 10.821-1.149h.086c7.948-.381 15.376.74 21.429 2.553 1.513.452 2.953 1.042 4.353 1.659 1.384.61 2.748 1.249 4.016 1.957 2.573 1.438 4.671 3.412 6.382 5.616.891 1.148 1.715 2.305 2.409 3.616 2.054 3.881 3.45 8.561 4.27 13.743 1.079 6.82 1.33 15.132 1.013 22.714-.157 3.761-.559 7.457-.887 11.145-.324 3.643-.708 7.316-1.015 11.02-.621 7.526-.758 15.337-2.155 21.911-.358 1.686-.824 3.193-1.478 4.552a18.667 18.667 0 01-1.101 2.011c.555-.175 1.081-.389 1.617-.59 1.474-.56 2.689-1.26 3.719-2.298z" fill="#000"/><path fill-rule="evenodd" clip-rule="evenodd" d="M101.676 482.816c7.949-.381 15.376.741 21.43 2.553 1.513.453 2.952 1.043 4.352 1.66 1.384.61 2.749 1.248 4.017 1.957 2.573 1.438 4.671 3.411 6.381 5.616.892 1.147 1.715 2.305 2.41 3.616 2.054 3.88 3.45 8.561 4.269 13.742 1.08 6.821 1.331 15.133 1.014 22.714-.158 3.761-.559 7.457-.887 11.146-.325 3.643-.708 7.315-1.015 11.019-.344 4.168-.54 8.423-.883 12.508-.828 2.973-1.366 5.935-1.99 8.868-.358 1.686-1.207 2.915-1.862 4.275-.66 1.371-1.053 2.386-2.049 3.389-1.029 1.038-1.819 1.697-3.291 2.257-.731.278-1.031.57-1.83.76-.793.19-1.699.753-2.609.867-1.534.194-3.112 1-4.752 1.131-3.906.311-8.069.45-12.266.451-1.94 0-3.873.169-5.791.17-1.942 0-3.932.044-5.958-.043a139.448 139.448 0 00-5.876-.127c-3.714 0-7.413-.182-10.888-.463-.19-.015-1.18-.91-1.369-.926-1.907-.161-2.772-.388-4.46-.667-1.691-.277-2.483-.526-3.8-1.143-2.776-1.298-3.926-3.37-5.088-6.228-1.169-2.873-2.24-5.825-2.65-9.463-.11-.982-.929-2.105-1.033-3.108a61.347 61.347 0 01-.214-2.509c-.12-1.899-.188-3.804-.297-5.701-.21-3.65-.654-7.43-.972-11.063-.662-7.567-1.436-14.564-1.438-22.548 0-3.903.245-7.769.635-11.399.388-3.631.98-7.084 1.858-10.167.893-3.13 1.918-6.071 3.424-8.593 2.248-3.759 5.207-6.843 9.173-8.85 1.297-.656 2.637-1.344 4.058-1.914 2.847-1.145 5.965-1.978 9.341-2.639 3.355-.656 6.929-1.149 10.82-1.149.029.001.057.003.086.001z" fill="#FF5000"/><path d="M73.397 571.933c-2.032-1.279-4.825-2.559-8.194-2.585.103 1.004.222 1.999.333 2.98.41 3.638.86 7.125 2.03 9.999 1.161 2.857 2.72 5.21 5.494 6.508a17.547 17.547 0 004.566 1.404c1.688.279 3.501.435 5.408.597l.567.043c-.558-5.292-1.907-9.288-4.37-12.949-1.61-2.392-3.337-4.429-5.834-5.997zm58.287 18.05c.799-.189 1.509-.486 2.24-.765 1.473-.56 2.69-1.26 3.72-2.298.996-1.003 1.707-2.246 2.367-3.617.655-1.36 1.12-2.866 1.479-4.552.623-2.933.996-6.113 1.271-9.402-3.361.03-6.148 1.308-8.178 2.583-2.497 1.568-4.221 3.605-5.832 5.998-2.465 3.663-3.815 7.663-4.372 12.963 1.64-.13 3.236-.29 4.769-.485.91-.114 1.743-.235 2.536-.425z" fill="#EFAD1B"/><path fill-rule="evenodd" clip-rule="evenodd" d="M81.757 491.692c-1.59-.997 2.531-3.579 2.712-1.731.096.964-1.805 1.662-2.712 1.731zm-3.267-.079c.39-.067 1.228.008 1.3.807.1 1.045-1.598 2.276-2.178 2.892-.707.751-1.701 2.483-2.825 2.204-1.603-.398.283-2.73.965-3.505.364-.412.758-.78 1.08-1.113.557-.57.904-1.155 1.658-1.285zm58.273 16.991c-.86-.714-1.474-2.501-1.972-4.293-.215-.769-.538-2.016.122-2.285.793-.325 1.384 1.034 1.594 1.518.666 1.543 1.159 3.538 1.114 4.677-.121.236-.554.412-.858.383zm-3.958-5.832c-1.507.986-3.065-2.645-1.639-3.084.62-.189 2.025 1.284 2.098 2.259.025.35-.198.653-.459.825zm-2.055-7.427c-.496.404-1.311-.037-1.907-.748-.48-.571-1.14-1.883-.347-2.203.35-.142 1.049.124 1.56.701.599.677 1.33 1.728.694 2.25z" fill="#fff"/><path d="M147.032 514.839c-.646.378-1.868 1.062-2.243.717-.212-.197.04-.692.281-1.104.287-.488.729-.981 1.197-1.503.826-.924 1.683-1.88 1.903-3.052.112-.598-.086-.955-.269-1.149-.57-.596-1.706-.426-2.911-.247-.696.104-1.995.298-2.185.014-.021-.033-.205-.373.597-1.762.069-.119.199-.309.348-.528.885-1.299 1.727-2.651 1.438-3.651-.114-.388-.382-.681-.779-.851-.519-.223-1.243-.058-2.085.131-.677.153-1.604.362-1.895.156-.022-.016-.075-.053-.092-.206-.04-.326.317-.96.556-1.38a9.83 9.83 0 00.238-.44c.07-.14.143-.282.213-.424.366-.718.743-1.463.96-2.271.328-1.223.145-2.057-.537-2.476-.776-.474-1.799-.032-2.546.291-.158.068-.303.131-.429.176-.078.029-.172.067-.277.109-.632.258-1.008.354-1.122.283-.088-.244.294-1.186.42-1.496.067-.166.125-.31.162-.414.046-.141.119-.315.198-.507.299-.714.669-1.606.486-2.28-.113-.41-.346-.614-.523-.713-.482-.272-1.071-.1-1.542.037l-.164.047a8.095 8.095 0 00-.762.276c-.534.212-1.263.502-1.636.391-.31-.093-.411-.552-.317-1.446.015-.149.084-.445.155-.759.291-1.256.691-2.976-.013-3.81a1.269 1.269 0 00-.133-.13c-.002-.008 0-.014 0-.023-.015-.009-.03-.012-.046-.021a1.336 1.336 0 00-.18-.082c-1.032-.348-2.47.663-3.522 1.401a7.966 7.966 0 01-.643.429c-.788.419-1.249.495-1.45.238-.24-.307-.243-1.096-.246-1.672-.002-.297-.002-.577-.028-.817l-.019-.169c-.047-.493-.106-1.106-.537-1.456-.158-.129-.431-.271-.851-.224-.691.079-1.375.756-1.925 1.3a8.61 8.61 0 01-.392.374c-.084.073-.195.18-.322.304-.24.233-.968.941-1.225.949-.107-.08-.159-.468-.156-1.155 0-.113.001-.215-.002-.299a7.528 7.528 0 01.005-.466c.02-.819.048-1.939-.677-2.487-.641-.484-1.477-.345-2.483.416-.667.503-1.212 1.131-1.74 1.739-.104.121-.209.24-.312.358-.094.107-.202.241-.318.387-.299.378-.75.948-1.065 1.031-.149.04-.203.005-.225-.01-.299-.196-.45-1.14-.56-1.829-.137-.857-.255-1.596-.652-1.998-.304-.308-.674-.449-1.074-.411-1.028.101-1.965 1.387-2.836 2.698-.146.221-.272.412-.357.52-.982 1.266-1.364 1.221-1.404 1.213-.332-.073-.635-1.357-.798-2.048-.282-1.191-.546-2.317-1.308-2.628-.247-.1-.65-.152-1.16.174-.999.641-1.562 1.795-2.109 2.913-.307.63-.599 1.226-.944 1.676-.29.378-.652.798-.915.671-.492-.238-.249-1.834-.145-2.516.033-.218.061-.409.075-.555a.51.51 0 00-.456-.555.502.502 0 00-.549.458 10.72 10.72 0 01-.07.498c-.182 1.203-.458 3.021.706 3.586 1.029.499 1.845-.565 2.153-.966.406-.531.734-1.201 1.052-1.849.483-.991.985-2.016 1.744-2.503.142-.09.218-.098.238-.09.278.114.545 1.245.705 1.921.315 1.335.613 2.597 1.565 2.806.703.155 1.447-.332 2.416-1.579.106-.138.237-.334.401-.582.435-.655 1.453-2.188 2.093-2.251.07-.007.148.003.26.116.169.17.285.905.372 1.442.162 1.022.331 2.078 1.005 2.52.205.134.551.269 1.032.142.639-.168 1.173-.84 1.601-1.381.103-.13.196-.25.282-.345l.317-.364c.494-.569 1.004-1.157 1.586-1.596.603-.456 1.031-.596 1.27-.416.309.234.288 1.085.272 1.648-.004.195-.009.376-.004.527.003.074.003.162.002.26-.003.712-.01 2.036 1.045 2.168.651.08 1.309-.507 2.047-1.226.111-.107.207-.201.279-.263.126-.109.277-.257.443-.421.368-.365.986-.975 1.33-1.015.071-.008.099.002.102.005.102.082.147.543.168.764l.019.182c.02.185.022.439.022.708.002.805.005 1.717.463 2.3.816 1.038 2.245.28 2.716.03.188-.099.436-.274.749-.494.513-.361 1.896-1.573 2.585-1.25.475.716-.111 2.237-.253 2.85a8.635 8.635 0 00-.177.884c-.056.531-.225 2.149 1.034 2.527.709.211 1.551-.124 2.296-.42.248-.099.482-.192.662-.242l.174-.05c.212-.062.652-.192.766-.127.003.002.024.026.042.094.091.337-.243 1.14-.441 1.62a9.478 9.478 0 00-.225.57c-.031.091-.082.215-.139.358-.389.957-.687 1.791-.372 2.369.514.937 1.733.44 2.389.172.09-.037.171-.071.24-.095.14-.051.307-.122.484-.199.514-.222 1.29-.558 1.621-.356.257.157.285.608.089 1.341-.191.707-.542 1.402-.884 2.074l-.218.432c-.057.115-.132.247-.214.392-.339.601-.763 1.348-.681 2.01.063.496.315.769.516.911.656.465 1.694.231 2.698.005.526-.119 1.248-.282 1.467-.189.147.063.183.132.203.2.18.621-.858 2.142-1.299 2.792-.168.246-.299.439-.388.591-.791 1.368-.965 2.244-.561 2.844.548.813 1.82.623 3.17.422.683-.101 1.824-.273 2.034-.054.015.016.036.09.004.255-.167.892-.926 1.74-1.661 2.559-.48.537-.977 1.091-1.316 1.669-.256.436-.934 1.593-.093 2.37.735.677 1.841.276 2.786-.224-.042-.419.003-.85.14-1.244z" fill="#fff"/><path fill-rule="evenodd" clip-rule="evenodd" d="M146.918 514.588c.819-.096 1.442.231 1.538 1.711.052.824-.363 1.42-.336 1.841.048.743.558 1.526.7 2.245.119.601.11 1.417-.304 1.751-.611.493-1.603.295-1.897-.23-.394-.706-.277-1.545-.211-2.168.034-.32.25-1.14-.1-1.823-.2-.387-.471-.754-.595-1.582-.205-1.345.572-1.672 1.205-1.745z" fill="#EFAD1B"/><path fill-rule="evenodd" clip-rule="evenodd" d="M100.653 524.114a88.006 88.006 0 0114.075.468c2.154.247 4.279.545 6.214 1.064 1.973.526 3.776 1.049 5.368 1.871 2.483 1.281 4.38 2.878 5.79 5.148 1.409 2.269 2.208 4.898 2.578 8.339.238 2.208.235 4.571.338 6.935.431 9.84.072 19.285-4.776 24.165-2.347 2.363-6.08 3.658-9.933 4.596-3.014.734-6.097 1.117-9.552 1.361-3.398.24-7.051.129-10.566.129-2.323 0-4.6-.254-6.764-.512-4.381-.523-8.27-1.481-11.54-2.978-1.742-.798-3.191-1.7-4.352-2.937-1.133-1.206-2.022-2.788-2.705-4.551-1.338-3.459-1.704-7.828-1.818-12.764-.054-2.349.042-4.55.127-6.851.09-2.382.063-4.714.337-6.977.27-2.21.803-4.147 1.48-5.828 1.367-3.394 3.867-5.841 7.143-7.404 3.243-1.546 7.33-2.349 11.666-2.849 2.171-.252 4.418-.307 6.89-.425z" fill="#4D3D87"/><path opacity=".21" fill-rule="evenodd" clip-rule="evenodd" d="M104.036 538.239c2.276-.11 4.978-.002 7.354 0 3.678 0 7.16.084 10.947.084 2.753 0 4.556.108 7.186.17.792.02 1.173.043 1.691.128.542.091 1.124.26 1.184.638.163 1.036-1.674 1.363-2.707 1.446-1.381.113-2.848.086-4.057.086-2.82 0-5.573-.042-8.116-.042-2.773 0-5.441-.103-7.947.127-2.507.23-4.912.593-7.015 1.234-1.985.604-3.998 1.563-6.299 1.999-4.966.944-10.09.006-14.666-.894-1.046-.205-2.295-.366-3.466-.679-.876-.236-2.6-.684-2.62-1.491-.035-1.305 2.88-1.474 4.268-1.615 2.99-.307 6.015-.495 9.089-.682 3.606-.22 7.46-.425 11.284-.425 1.262 0 2.585-.022 3.89-.084z" fill="#000"/><path fill-rule="evenodd" clip-rule="evenodd" d="M131.736 538.597c.821.066 1.369.509 1.178 1.979-.107.82-.63 1.323-.684 1.742-.097.738.251 1.607.253 2.34.002.613-.165 1.413-.633 1.659-.697.365-1.633-.023-1.818-.596-.251-.768.026-1.57.211-2.169.095-.307.466-1.07.253-1.809-.121-.42-.316-.832-.281-1.669.059-1.359.886-1.529 1.521-1.477z" fill="#fff"/><path d="M114.287 527.373c-.59-.629-1.504-.887-1.803-1.696-.303-.811-.15-2.266-.109-3.446.05-1.41.013-2.746.35-3.857.483-1.589 2.033-2.233 2.811-3.442 2.624-4.085.557-9.673-3.448-10.276-3.387-.511-6.136 2.66-6.349 6.571-.137 2.551 1.105 4.297 2.474 5.604.614.587 1.315.914 1.641 1.843.365 1.041.258 2.432.249 3.763-.012 1.363-.335 2.821-.208 4.174.087.941.67 1.508.771 2.384.129 1.14-.046 2.414-.263 3.733.809-1.577 1.665-3.143 2.582-4.225.323-.377.872-.733 1.302-1.13zm-3.501-11.969c-2.171-.228-2.942-2.489-2.742-4.573.223-2.319 1.97-4.671 4.326-3.778 3.55 1.348 2.257 8.754-1.584 8.351zm4.048 15.593c-.875 1.373-1.658 3.392-2.247 4.59-.707 1.438-1.617 3.29-2.591 5.257a42.152 42.152 0 012.645-.112c.333-1.518.665-3.021 1.002-4.477.379-1.635.955-3.554 1.191-5.258z" fill="#8F7ECE"/><path d="M127.008 510.892c-.387-1.047-1.421-2.306-2.855-2.734-2.63-.787-4.652 1.12-5.792 2.648-2.318 3.107-3.825 8.586-3.637 13.093.037.888.35 1.962.138 2.669-.086.294-.308.558-.576.805-.43.397-.979.752-1.301 1.13-.917 1.081-1.774 2.648-2.582 4.225-.131.254-.26.508-.387.76-.891 1.764-1.748 3.611-2.656 5.431a198.82 198.82 0 00-1.163 2.374 47.897 47.897 0 013.01-.381l.362-.036c.141-.013.284-.022.426-.032.974-1.967 1.884-3.819 2.591-5.257.589-1.198 1.372-3.217 2.247-4.59.34-.533.693-.971 1.054-1.221.436-.301 1.258-.283 1.579-.713.492-1.321-.732-3.258.476-4.034.33-.211.686.001 1.072-.015 2.377-.101 3.911-1.879 5.478-4.267 1.809-2.755 3.701-6.653 2.516-9.855zm-13.375 20.884a.95.95 0 01-1.092.786.957.957 0 01.312-1.888c.518.09.868.583.78 1.102zm11.779-17.727c-.284 2.195-1.488 4.495-2.814 6.38-1.245 1.772-3.356 3.823-5.27 2.442-2.124-1.537.926-9.517 3.227-11.794.63-.623 1.665-1.32 2.541-1.238 1.982.191 2.579 2.17 2.316 4.21z" fill="#8F7ECE"/><path opacity=".62" d="M127.008 510.892c-.387-1.047-1.421-2.306-2.855-2.734-2.63-.787-4.652 1.12-5.792 2.648-2.318 3.107-3.825 8.586-3.637 13.093.037.888.35 1.962.138 2.669-.086.294-.308.558-.576.805-.43.397-.979.752-1.301 1.13-.917 1.081-1.774 2.648-2.582 4.225-.131.254-.26.508-.387.76-.891 1.764-1.748 3.611-2.656 5.431a198.82 198.82 0 00-1.163 2.374 47.897 47.897 0 013.01-.381l.362-.036c.141-.013.284-.022.426-.032.974-1.967 1.884-3.819 2.591-5.257.589-1.198 1.372-3.217 2.247-4.59.34-.533.693-.971 1.054-1.221.436-.301 1.258-.283 1.579-.713.492-1.321-.732-3.258.476-4.034.33-.211.686.001 1.072-.015 2.377-.101 3.911-1.879 5.478-4.267 1.809-2.755 3.701-6.653 2.516-9.855zm-13.375 20.884a.95.95 0 01-1.092.786.957.957 0 01.312-1.888c.518.09.868.583.78 1.102zm11.779-17.727c-.284 2.195-1.488 4.495-2.814 6.38-1.245 1.772-3.356 3.823-5.27 2.442-2.124-1.537.926-9.517 3.227-11.794.63-.623 1.665-1.32 2.541-1.238 1.982.191 2.579 2.17 2.316 4.21z" fill="#fff"/><path d="M112.542 532.563a.95.95 0 001.091-.786.956.956 0 00-.78-1.102.95.95 0 00-1.092.786.957.957 0 00.781 1.102z" fill="#4D3D87"/><path d="M122.742 540.779l1.208-4.655-2.206-.487-1.33 5.126c.764.004 1.54.01 2.328.016zm-1.794-5.317l-1.186-.261a238.107 238.107 0 00-1.45 5.55l1.263.006 1.373-5.295zm5.078 1.144c.001-.009-.003-.017 0-.026l-1.282-.283-1.166 4.486c.457.003.922.005 1.385.005.262-1.009.513-2.01.73-2.979.093-.421.312-.849.333-1.203z" fill="#B1BC00"/><path d="M125.96 536.091c-.011-.178-.005-.353-.002-.519.042-1.756.035-3.304-.158-5.066l-2.637-.84c.1-.123.202-.251.311-.381-1.101 1.308-1.763 2.352-2.485 3.533-.377.603-.835 1.187-1.091 1.773-.073.166-.073.381-.132.598-.003.003-.003.008-.003.013l1.187.26-1.374 5.295.839.006 1.33-5.126 2.207.487-1.209 4.656.837.004 1.166-4.487 1.281.284c0-.151-.059-.327-.067-.49z" fill="#EFAD1B"/><path d="M125.8 530.506c-.007-.054-.011-.105-.016-.161-.063-.552-.167-1.787-.722-2.067-.41-.205-1.043.361-1.589 1.007-.109.13-.211.258-.311.381l2.638.84z" fill="#fff"/><path d="M98.897 510.603a1.354 1.354 0 10-2.706-.047l-.027 1.451 2.704.038.03-1.442z" fill="#EFAD1B"/><path d="M94.247 529.015l-.31 15.4c.776-.063 1.55-.16 2.32-.306 1.166-.222 2.258-.576 3.31-.952l.284-14.059-5.604-.083z" fill="#B1BC00"/><path d="M94.246 529.013l5.605.084.02-1.641-5.6-.081-.025 1.638z" fill="#fff"/><path d="M98.854 512.869l-2.707-.041-1.666-.024.013-.818h-.002l-.219 15.389 5.597.082.213-14.571-1.23-.017zm-.745 8.452c-.888-.042-.975-1.985-.271-2.327 1.017-.501 1.441 2.378.271 2.327zm.39-3.677c-1.207.181-.965-2.079-.547-2.724.027-.041.064-.056.105-.084 1.16-.784 1.472 2.654.442 2.808z" fill="#B1BC00"/><path d="M98.87 512.046v.002l-2.705-.039-1.67-.024-.013.818 1.666.024 2.707.041 1.229.018.769.012-.218 15.424 1.165.019.221-15.426.01-.822-3.162-.047z" fill="#fff"/><path d="M98.056 514.835c-.04.028-.078.043-.105.084-.418.646-.66 2.905.546 2.724 1.03-.153.72-3.592-.441-2.808zm-.218 4.158c-.704.342-.617 2.285.271 2.326 1.17.052.747-2.827-.27-2.326z" fill="#fff"/><path d="M94.155 542.145l-2.14.376a.277.277 0 01-.323-.227.283.283 0 01.224-.326l2.142-.374a.275.275 0 01.282.12l-.48-2.784a.274.274 0 01-.224.239l-2.142.38a.282.282 0 01-.322-.229.282.282 0 01.23-.326l2.138-.379a.279.279 0 01.294.154l-.488-2.843a.28.28 0 01-.228.27l-2.139.377a.277.277 0 01-.323-.226.281.281 0 01.225-.326l2.142-.378a.276.276 0 01.303.179l-.499-2.9a.271.271 0 01-.224.296l-2.142.381a.28.28 0 01-.096-.552l2.14-.379a.279.279 0 01.315.209l-.506-2.952a.285.285 0 01-.226.322l-2.142.378a.281.281 0 01-.099-.554l2.143-.376a.277.277 0 01.323.225l-4.696-27.309-11.119 1.936 6.702 38.979c3.69.695 7.667 1.27 11.589.804l-.412-2.398a.285.285 0 01-.222.213zM78.99 505.526c.488.005.498.575.633 1.177.14.633.297.979-.113 1.249-1.166.767-1.989-2.446-.52-2.426zm1.982 7.751c-.774.458-1.17-.349-1.407-1.382-.2-.871-.453-3.033.675-2.629.24.089.68 1.076.873 1.606.376 1.035.422 2.075-.141 2.405zm1.786-4.9a.684.684 0 01-.342.494c-1.111.658-1.363-1.848-.517-2.044.498-.117.945.987.86 1.55zm2.722-1.767a.278.278 0 01.225-.323l2.138-.379a.28.28 0 01.1.552l-2.143.378a.278.278 0 01-.32-.228zm.517 2.974a.28.28 0 01.228-.324l2.138-.378a.28.28 0 11.097.551l-2.14.379a.279.279 0 01-.323-.228zm.518 2.974a.28.28 0 01.225-.324l2.142-.379a.282.282 0 01.322.23.279.279 0 01-.226.323l-2.139.377a.276.276 0 01-.324-.227zm.517 2.974a.282.282 0 01.229-.327l2.137-.378a.278.278 0 01.324.231.277.277 0 01-.227.323l-2.141.379a.283.283 0 01-.322-.228zm.518 2.972a.287.287 0 01.227-.327l2.141-.373a.277.277 0 01.322.222.284.284 0 01-.226.329l-2.14.375a.277.277 0 01-.324-.226zm.518 2.971a.281.281 0 01.23-.324l2.137-.376a.282.282 0 01.325.228.28.28 0 01-.226.322l-2.146.38a.28.28 0 01-.32-.23zm.522 2.972a.28.28 0 01.223-.324l2.142-.375a.277.277 0 01.322.226.283.283 0 01-.225.325l-2.143.377a.272.272 0 01-.32-.229zm.515 2.975a.281.281 0 01.228-.324l2.139-.378a.283.283 0 01.323.227.281.281 0 01-.225.326l-2.143.38a.282.282 0 01-.322-.231z" fill="#EFAD1B"/><path d="M88.168 506.136a.28.28 0 00-.325-.228l-2.139.378a.279.279 0 00-.225.324.278.278 0 00.32.227l2.143-.378a.28.28 0 00.226-.323zm.519 2.974a.283.283 0 00-.325-.229l-2.138.378a.281.281 0 00-.228.324c.027.155.17.254.323.228l2.14-.379a.28.28 0 00.228-.322zm.516 2.974a.283.283 0 00-.322-.23l-2.142.38a.28.28 0 00-.225.324.276.276 0 00.324.226l2.139-.377a.278.278 0 00.226-.323zm.518 2.974a.279.279 0 00-.323-.231l-2.138.378a.282.282 0 00.093.555l2.142-.379a.276.276 0 00.226-.323zm.519 2.968a.28.28 0 00-.321-.223l-2.142.373a.287.287 0 00-.226.328.279.279 0 00.323.226l2.14-.375a.284.284 0 00.227-.329zm.52 2.976a.282.282 0 00-.325-.227l-2.138.376a.28.28 0 00.092.553l2.145-.38a.279.279 0 00.226-.322zm.516 2.972a.277.277 0 00-.322-.226l-2.142.375a.28.28 0 00-.223.324.272.272 0 00.319.229l2.143-.377a.283.283 0 00.225-.325zm.517 2.972a.281.281 0 00-.323-.226l-2.139.377a.282.282 0 00.094.555l2.144-.38a.281.281 0 00.224-.326zm.197 2.749l-2.144.376a.281.281 0 00.099.554l2.142-.378a.284.284 0 00.227-.322l-.002-.005a.277.277 0 00-.323-.225zm.512 2.973l-2.139.379a.28.28 0 00.096.552l2.141-.381a.271.271 0 00.225-.296l-.008-.045a.278.278 0 00-.315-.209zm.521 2.975l-2.141.378a.28.28 0 00-.226.325.277.277 0 00.324.226l2.138-.376a.281.281 0 00.228-.27l-.02-.104a.276.276 0 00-.303-.179zm.517 2.973l-2.139.378a.282.282 0 00-.229.326.282.282 0 00.322.229l2.142-.38a.273.273 0 00.225-.239l-.027-.16a.278.278 0 00-.294-.154zm.519 2.978l-2.143.373a.285.285 0 00-.224.327.28.28 0 00.323.227l2.14-.376a.285.285 0 00.222-.213l-.037-.219a.276.276 0 00-.281-.119zM80.24 509.266c-1.128-.405-.875 1.757-.675 2.628.237 1.034.632 1.841 1.406 1.383.564-.331.518-1.37.14-2.406-.192-.53-.63-1.517-.872-1.605zm1.658-2.439c-.846.196-.594 2.703.517 2.044a.683.683 0 00.342-.494c.086-.563-.36-1.667-.859-1.55zm-2.275-.124c-.136-.602-.145-1.172-.633-1.177-1.469-.02-.647 3.193.52 2.426.41-.27.253-.616.112-1.249z" fill="#fff"/><path fill-rule="evenodd" clip-rule="evenodd" d="M127.791 569.619c.068-1.218 1.23-2.907 2.47-4.498.53-.681 1.409-1.769 2.066-1.36.793.491-.01 1.887-.297 2.383-.915 1.578-2.334 3.294-3.356 3.985-.281.045-.713-.225-.883-.51zm2.534-7.237c-1.827-.695.332-4.401 1.63-3.425.563.425.183 2.608-.617 3.3-.289.247-.695.244-1.013.125zm.151-9.935c-.67-.178-.81-1.18-.575-2.162.188-.789.908-2.214 1.694-1.72.35.218.567 1.005.393 1.825-.202.965-.649 2.284-1.512 2.057zm-52.286 2.796c-2.058.95-1.897-4.949.074-3.903 1.028.543.462 2.936-.074 3.903zm-2.254 3.261c.191-.442.825-1.241 1.675-.785 1.111.595 1.213 3.138 1.443 4.138.282 1.217 1.353 3.378.326 4.333-1.465 1.359-2.544-2.107-2.867-3.314-.17-.642-.276-1.287-.394-1.837-.201-.942-.554-1.686-.183-2.535z" fill="#fff"/></svg>