<svg width="280" height="480" fill="none" xmlns="http://www.w3.org/2000/svg"><path d="M248.78 306.401l-.016 1.026-.795 53.86-.033 2.239-1.121 75.781H39.955l-1.096-18.742-4.01-68.588-2.665-45.576H248.78z" fill="#5B5B5C"/><path d="M240.775 433.541H45.578l-6.752-115.842 203.823-.354-1.874 116.196z" fill="#545554"/><path d="M141.095 315.513c2.262 0 4.095-1.813 4.095-4.05s-1.833-4.05-4.095-4.05c-2.262 0-4.095 1.813-4.095 4.05s1.833 4.05 4.095 4.05z" fill="#3F4040"/><path d="M241.056 433.541H45.858l-7.032-115.842 203.823-.354-1.593 116.196z" fill="#49B3F7"/><path d="M242.519 326.794l.055-3.969H39.137l.24 3.969H242.52z" fill="#3A77BA"/><path d="M39.246 324.621H242.55l.099-7.276-203.823.354.42 6.922z" fill="#864FF1"/><path d="M234.561 323.41c1.235 0 2.236-.989 2.236-2.21s-1.001-2.211-2.236-2.211c-1.234 0-2.235.99-2.235 2.211 0 1.221 1.001 2.21 2.235 2.21zm-7.5 0c1.235 0 2.236-.989 2.236-2.21s-1.001-2.211-2.236-2.211c-1.234 0-2.235.99-2.235 2.211 0 1.221 1.001 2.21 2.235 2.21zm-7.732 0c1.234 0 2.235-.989 2.235-2.21s-1.001-2.211-2.235-2.211c-1.235 0-2.235.99-2.235 2.211 0 1.221 1 2.21 2.235 2.21z" fill="#fff"/><path d="M164.874 313.252h-13.155c-.48 0-.94-.189-1.279-.524a1.782 1.782 0 01-.392-1.95 1.786 1.786 0 01.979-.968 1.82 1.82 0 01.692-.136h13.155a1.829 1.829 0 011.279.524c.168.166.302.363.393.58a1.778 1.778 0 01-.393 1.95 1.82 1.82 0 01-1.279.524zm-34.986 0h-13.155c-.48 0-.94-.189-1.279-.524a1.778 1.778 0 01.586-2.918c.22-.09.455-.136.693-.136h13.155a1.82 1.82 0 011.279.524 1.786 1.786 0 01.53 1.265c0 .474-.191.929-.53 1.265a1.82 1.82 0 01-1.279.524z" fill="#545554"/><path d="M200.181 306.402c-47.994 27.855-127.69 40.782-165.33 45.575l-2.666-45.575h167.996z" fill="#EBF7FD" opacity=".28"/><path d="M45.594 429.183l.264 4.357h195.198l.06-4.357H45.594z" fill="#864FF1"/><path d="M239.53 432.746a5.928 5.928 0 001.539-.213l.046-3.349H45.594l.216 3.562h193.72z" fill="#864FF1"/><path d="M216.548 376.578v52.592h-7.88l-.15-5.081-.138-4.616-.117-3.904-.13-4.398-.002-.003-1.037-34.59h9.454z" fill="#FF6551"/><path d="M228.624 372.115l-2.181 47.358-.114 2.465-.099 2.151-.232 5.08h-9.451v-57.054h12.077z" fill="#864FF1"/><path d="M219.367 424.089h-10.85l-.138-4.615h10.685c.108 1.644.208 3.194.303 4.615z" fill="#F7A845"/><path d="M229.321 424.089h-12.774v-4.615h12.471l.303 4.615z" fill="#2435A1"/><path d="M210.025 411.87v-32.656c0-.394.159-.773.441-1.051a1.511 1.511 0 011.063-.436h1.722c.399 0 .781.157 1.063.436.282.278.441.657.441 1.051v32.656c0 .394-.159.772-.441 1.051a1.51 1.51 0 01-1.063.435h-1.722a1.51 1.51 0 01-1.063-.435 1.479 1.479 0 01-.441-1.051z" fill="#FF8D7E"/><path d="M218.684 375.331v40.647c0 1 .819 1.81 1.83 1.81h1.98a1.82 1.82 0 001.83-1.81v-40.647c0-1-.819-1.81-1.83-1.81h-1.98a1.82 1.82 0 00-1.83 1.81z" fill="#A880F5"/><path d="M226.23 416.604v-1.372s.027.545 0 1.372z" fill="#471E44" opacity=".25"/><path d="M241.055 429.167v.003H226l.069-5.064.03-2.201.035-2.449.659-47.34.098-7.021h14.877l-.807 54.049.003.312.045 4.65.046 5.061z" fill="#2435A1"/><path d="M241.009 424.106H226.07l.065-4.649h14.831l.043 4.649z" fill="#F7A845"/><path d="M230.092 415.656v-45.991c0-.566.227-1.108.631-1.508a2.17 2.17 0 011.525-.625h2.583c.572 0 1.12.225 1.525.625.404.4.631.942.631 1.508v45.991a2.12 2.12 0 01-.631 1.508 2.16 2.16 0 01-1.525.624h-2.583c-.572 0-1.12-.225-1.525-.624a2.123 2.123 0 01-.631-1.508z" fill="#525FB5"/><path d="M215.717 376.578v52.619l.83-.027v-52.592h-.83z" fill="#471E44" opacity=".23"/><path d="M225.516 372.115v57.051l.484.003.792-57.054h-1.276z" fill="#243976"/><path d="M247.936 363.525l-1.12 75.782H109.588c44.454-12.843 101.567-35.994 138.348-75.782z" fill="#29ABE2" opacity=".15"/><path d="M141.095 75.512c2.262 0 4.095-1.813 4.095-4.05s-1.833-4.05-4.095-4.05c-2.262 0-4.095 1.813-4.095 4.05s1.833 4.05 4.095 4.05z" fill="#3F4040"/><path d="M164.874 73.252h-13.155c-.48 0-.94-.189-1.279-.524a1.78 1.78 0 01-.392-1.95 1.788 1.788 0 01.979-.968 1.82 1.82 0 01.692-.136h13.155a1.83 1.83 0 011.279.524c.168.166.302.363.393.58a1.776 1.776 0 01-.393 1.95 1.818 1.818 0 01-1.279.524zm-34.986 0h-13.155c-.48 0-.94-.189-1.279-.524a1.776 1.776 0 010-2.53 1.812 1.812 0 011.279-.524h13.155a1.822 1.822 0 011.279.524 1.788 1.788 0 01.53 1.265c0 .474-.191.93-.53 1.265a1.818 1.818 0 01-1.279.524z" fill="#545554"/><path d="M85.619 123.924a19.534 19.534 0 003.801 2.318 11.917 11.917 0 013.29 1.814 7.977 7.977 0 011.644 2.494c3.314 6.981 2.732 17.176 8.515 22.802 3.673 3.575 10.385 5 15.336 5.186 6.338.239 12.503 2.174 18.822 2.298 6.629.131 12.905-2.992 18.276-6.838a26.234 26.234 0 014.782-3.021c5.975-2.561 13.768.275 18.89-3.701 3.995-3.102 4.407-8.905 7.183-13.111 3.407-5.164 9.957-7.364 14.213-11.869 6.223-6.587 6.4-16.92 3.735-25.541-1.588-5.136-2.431-8.791.353-13.538 2.198-3.75 6.22-7.57 7.053-11.92.333-1.765.4-3.57.2-5.354a20.583 20.583 0 00-6.17-12.471c-4.706-4.51-11.489-6.95-14.917-12.473-4.479-7.22.781-16.095-3.318-23.628-2.901-5.332-9.099-8.096-15.119-9.207a43.698 43.698 0 00-18.537.607c-5.984 1.511-11.949 3.318-18.164 2.07-5.97-1.198-11.646-4.372-17.897-3.765-6.854.665-12.392 5.834-16.394 11.377-3.711 5.136-6.672 10.768-11.024 15.436-4.103 4.403-8.39 8.881-10.857 14.438-3.727 8.387-1.486 15.483 1.45 23.521 2.573 7.048-2.052 12.453-4.248 18.827-2.237 6.493-.965 16.228 1.417 22.56a24.43 24.43 0 007.685 10.689z" fill="#732C15"/><path d="M101.339 108.767c-1.547-1.285-2.997-2.679-4.582-3.919-.606-.475.14-1.397.786-1.05 1.792.962 3.614 1.823 5.317 2.937a50.914 50.914 0 014.552 3.393c2.748 2.267 5.628 4.999 6.399 8.604.739 3.458-.771 6.622-2.2 9.684a13.92 13.92 0 00-1.673 5.538c-.037.869.036 1.74.218 2.591.242.733.552 1.441.926 2.117.158.364-.284.734-.628.636a4.91 4.91 0 01-1.701-1.167 4.842 4.842 0 01-1.066-1.755 7.57 7.57 0 01-.242-4.479c.747-3.587 3.304-6.605 3.746-10.268.473-3.909-2.584-6.865-5.349-9.182-1.487-1.245-3.012-2.441-4.503-3.68zm86.193 17.343a15.582 15.582 0 00-7.124 8.144 6.53 6.53 0 01-.966 2.002 1.784 1.784 0 01-2.003.611c-1.035-.484-.921-1.979-.501-3.033 1.802-4.515 6.032-7.622 10.353-9.925a28.252 28.252 0 0010.531-10.301 17.692 17.692 0 002.353-5.145c.538-2.472.652-5.015.335-7.524a59.575 59.575 0 00-1.51-6.346c-.016-.069.064-.156.134-.105 2.633 1.892 3.725 5.298 4.042 8.393a21.2 21.2 0 01-2.483 12.434 21.532 21.532 0 01-9.157 8.865c-1.318.676-2.703 1.224-4.004 1.93zm-10.94-7.686a7.364 7.364 0 011.161-6.001c2.409-3.35 7.074-4.987 8.434-9.083a.154.154 0 01.053-.077.159.159 0 01.089-.03c.032 0 .063.01.089.028a.152.152 0 01.055.075c1.342 3.669-2.338 6.366-4.716 8.466-1.616 1.427-2.844 2.931-2.847 5.173-.003 2.495 1.376 4.481 1.831 6.845a.68.68 0 01-.315.751.7.7 0 01-.818-.078c-1.713-1.353-2.602-4.006-3.016-6.069zm-13.703-1.077a10.508 10.508 0 01.919-5.396c.329-.799 1.385-.191 1.295.512-.155 1.593.032 3.2.549 4.716.408 1.318 1.249 2.633 1.383 3.992a1.097 1.097 0 01-1.08 1.08 1.106 1.106 0 01-.544-.13c-1.595-.828-2.306-3.129-2.522-4.774z" fill="#7F391F"/><path d="M86.77 157.603a89.695 89.695 0 01-10.658 7.022c-.653.371-1.316.734-1.985 1.087a16.783 16.783 0 01-6.455 2.259 16.232 16.232 0 01-5.551-.799 65.296 65.296 0 01-28.633-16.838c-.87-.879-1.77-1.938-1.67-3.163.132-1.567 1.936-2.55 3.518-2.42 1.57.274 3.05.914 4.318 1.868a71.647 71.647 0 0015.688 7.283 25.9 25.9 0 009.59 1.59 17.728 17.728 0 004.11-.783 24.989 24.989 0 003.513-1.404 62.215 62.215 0 007.022-4.169l7.193 8.467z" fill="#FFBF94"/><path d="M86.77 157.603a89.678 89.678 0 01-7.689 5.279 23.139 23.139 0 01-6.526-9.576 62.347 62.347 0 007.022-4.169l7.193 8.466z" fill="#F49B73"/><path d="M171.378 180.343a46.37 46.37 0 004.476 6.011 51.375 51.375 0 004.618 4.703c2.819-.108 12.172.397 15.043 0-4.583-3.997-8.944-11.724-12.871-16.338a79.957 79.957 0 01-1.549-1.862 27.946 27.946 0 01-3.062-4.427 13.194 13.194 0 01-1.1-2.747l-13.615-1.094a192.456 192.456 0 003.098 6.739 91.079 91.079 0 004.962 9.015z" fill="#FFBF94"/><path d="M166.416 171.328a90.957 90.957 0 004.961 9.015c6.391-.389 9.687-3.4 11.266-5.624a85.32 85.32 0 01-1.549-1.862 28.007 28.007 0 01-3.061-4.427l-8.307.292a37.686 37.686 0 00-3.31 2.606z" fill="#F49B73"/><path d="M161.368 131.253c-7.289-2.433-13.048-3.352-20.336-5.785-2.753-.919-.234.499-3.123.198a37.098 37.098 0 00-7.352.175 261.612 261.612 0 00-20.72 2.804c-2.123.243-4.176.9-6.04 1.934-2.152 1.378-10.203 3.691-27.302 19.268-2.339 1.082 8.073 13.942 13.373 16.381 6.619 3.046 20.762-12.006 25.641-19.597.142-.381.42-.697.781-.889a1.702 1.702 0 011.18-.156l33.485 2.62c.447-.011.885.119 1.252.37.288.306.478.688.547 1.101a64.864 64.864 0 0014.036 25.933c.329.439.77.785 1.278 1.002.493.121 1.009.12 1.502-.004a38.796 38.796 0 0015.574-6.423c.376-.204.661-.54.798-.941a1.728 1.728 0 00-.38-1.195 159.16 159.16 0 01-13.708-27.605c-.17-.447-.341-.899-.52-1.349a11.047 11.047 0 00-2.722-3.993 11.218 11.218 0 00-4.179-2.471l-3.065-1.378z" fill="#FFC652"/><path d="M126.336 105.302l.06 2.835.045 2.118c.017.947.037 1.895.057 2.843.018.882.038 1.767.055 2.652l.015.769.103 5.02.097 4.707c-.025.476.06.952.248 1.392.263.421.635.765 1.077.998a15.628 15.628 0 0015.514.322c.313-.172.566-.435.724-.752.159-.318.216-.675.163-1.026a41.587 41.587 0 01.698-16.131l.047-.195-.507-.149-5.119-1.5-1.897-.559-11.38-3.344z" fill="#FFAF79"/><path d="M15.829 132.683a1.52 1.52 0 01.89-.29c2.24-.138 9.06 5.37 9.848 4.631-1.807-1.446-2.825-2.576-4.632-4.023-.907-.727-2.623-2.467-1.692-3.164a1.672 1.672 0 011.46-.106c3.133.904 4.777 4.417 7.723 5.807-.127-1.59.018-3.191.429-4.734.148-.559.404-1.184.961-1.359.328-.053.665.015.946.19.28.176.487.447.58.763.163.638.237 1.294.22 1.951.22 2.77 2.389 4.926 4.073 7.15 1.684 2.225 4.764 6.168 3.148 8.441l-1.76 2.93c-2.955 1.96-5.308 2.331-8.231.323-2.064-1.417-3.64-3.748-6.106-4.222-1.097-.211-1.95-.578-3.024-.886-1.074-.308-2.667-1.321-2.157-2.306 1.827.117 3.961.638 5.79.755-1.41-1.271-3.352-1.739-5.129-2.424-1.777-.684-4.729-3.069-4.072-4.319.192-.366.725-.347 1.134-.266 1.758.345 8.25 3.354 8.324 2.827a68.306 68.306 0 01-7.969-5.056c-.787-.682-1.554-1.945-.754-2.613z" fill="#FFBF94"/><path d="M110.022 145.423a62.497 62.497 0 01-2.813 9.612 42.229 42.229 0 00-2.306 5.852c-.947 3.84-.038 7.867.951 11.697 1.08 4.186 5.055 11.951 6.75 12.958.984.584 3.32.414 4.467.472 3.999.204 7.961.46 11.963.421a233.613 233.613 0 0020.254-1.078 3.108 3.108 0 002.466-1.252c2.144-2.659 4.599-5.573 5.429-8.957.202-.827.307-1.654.548-2.491l.857-2.977 1.713-5.952 2.192-7.618-3.216-12.321-15.6-6.061s-34.823.551-34.544 1.377a32.447 32.447 0 010 5.235l.889 1.083z" fill="#FFC652"/><path d="M105.548 156.003c1.122-3.72 2.432-7.311 3.824-10.936a.058.058 0 01.106-.012.054.054 0 01.007.043c-.626 3.261-1.229 6.484-2.096 9.696-.83 3.071-1.825 5.892-1.778 9.091a31.73 31.73 0 001.757 9.185c1.044 3.244 2.819 6.505 3.529 9.787.046.214-.022.545-.235.491a.332.332 0 01-.179-.174 55.829 55.829 0 01-4.06-8.11 55.296 55.296 0 01-.896-2.408 33.37 33.37 0 01-1.283-4.726c-1.044-4.971.308-8.623 1.304-11.927zm47.454 25.535c.084-.125.172-.247.257-.368.6-.857 1.105-1.782 1.666-2.651a18.749 18.749 0 001.627-3.34 28.642 28.642 0 002.309-8.486c.171-2.823-.717-5.642-1.036-8.436a44.779 44.779 0 01-.05-9.267.156.156 0 01.157-.149.155.155 0 01.156.149c.282 3.457.712 6.973 1.244 10.402.137.878.294 1.746.436 2.611a.45.45 0 01.318.303 36.676 36.676 0 006.856 12.607c1.156 1.342 2.581.792 4.109.465a107.21 107.21 0 003.719-.868c2.542-.641 4.93-1.683 7.431-2.43.035-.01.07.041.038.065a31.637 31.637 0 01-7.816 3.958c-2.084.815-5.813 2.464-7.789.682a19.09 19.09 0 01-2.282-2.869 40.507 40.507 0 01-2.508-3.662 27.202 27.202 0 01-1.686-3.307c-.025.478-.076.954-.155 1.426a32.324 32.324 0 01-2.791 8.191 25.185 25.185 0 01-1.346 2.488c-.528.85-1.306 1.566-1.894 2.388-.268.47-.654.864-1.121 1.142a.836.836 0 01-.29.08c.035-.409.188-.799.441-1.124zm-36.179-1.835c1.235.185 2.445.811 3.682 1.084 1.244.274 2.521.466 3.783.649a57.37 57.37 0 008.737.552 60.05 60.05 0 0016.872-2.519c.135-.041.232.172.098.23a45.221 45.221 0 01-8.311 2.953 51.221 51.221 0 01-9.161 1.226 48.442 48.442 0 01-9.028-.525c-2.253-.332-5.889-.841-7.225-2.939-.251-.394.162-.77.553-.711zm-.856-3.869c2.018.172 4.016.525 5.97 1.054 2.202.455 4.431.776 6.673.962 4.447.308 8.916.072 13.305-.702.004-.001.008-.001.011.001a.016.016 0 01.006.008c.001.004 0 .007-.001.011a.016.016 0 01-.008.006 36.234 36.234 0 01-13.562 2.197c-4.01-.079-9.323-.549-12.574-3.107-.177-.139-.026-.434.18-.43z" fill="#F7A845"/><path d="M126.498 113.099c.018.882.038 1.767.055 2.652l.015.769c.035 1.673.069 3.347.102 5.02 4.959 4.975 13.915 3.385 17.379 1.06a41.297 41.297 0 01.103-5.106 40.63 40.63 0 01.329-2.846c-.734-.459-1.277-.788-1.277-.788s-2.259-.121-5.204-.269c-3.821-.191-8.8-.426-11.502-.492z" fill="#F59D75"/><path d="M124.115 127.339c.032-.205.29-.256.446-.179.748.366 1.153 1.208 1.716 1.802a11.152 11.152 0 002.448 1.915 17.267 17.267 0 006.813 2.323c2.29.316 4.624.005 6.749-.898a17.22 17.22 0 004.795-3.74.065.065 0 01.034-.015.059.059 0 01.062.035.06.06 0 01.003.037c-1.174 4.663-7.636 6.687-11.889 6.244a16.128 16.128 0 01-7.384-2.603c-1.403-.963-4.093-2.99-3.793-4.921z" fill="#F7A845"/><path d="M29.854 130.804a1.612 1.612 0 01.961-1.359c.328-.053.665.015.946.19.281.176.487.447.58.763.163.638.238 1.294.221 1.951.22 2.77 2.388 4.926 4.072 7.151 1.684 2.224 4.764 6.167 3.148 8.44l-1.76 2.93c-2.955 1.96-3.585 1.594-6.508-.413-.922-.633 1.076-4.212.476-7.12-.856-4.147-3.012-6.594-2.136-12.533zm147.985-58.908a65.79 65.79 0 01-6.433 27.225 30.29 30.29 0 01-4.704 7.402 31.9 31.9 0 01-6.95 5.453 81.96 81.96 0 01-19.077 8.663c-2.17.815-4.5 1.125-6.81.906-2.727-.435-20.759-8.482-25.867-21.736-1.131-2.934-3.309-9.496-2.707-12.58 1.787-9.152 3.576-18.31 5.815-27.364 1.787-7.232 4.038-14.71 9.257-20.075a41.627 41.627 0 017.45-5.731 37.446 37.446 0 018.112-4.257c5.359-1.819 11.208-1.37 16.831-.679 4.023.495 8.142 1.138 11.646 3.154a23.434 23.434 0 016.947 6.586 41.982 41.982 0 018.07 27.395l-1.58 5.638z" fill="#FFBF94"/><path d="M174.243 82.761s-4.855-3.076-4.502-6.898a11.478 11.478 0 01-7.704-2.772 11.238 11.238 0 01-3.832-7.167 17.906 17.906 0 01-12.28-1.425c-5.848-3.229-5.755-10.987-5.755-10.987s-.541 2.156-4.945 3.964c-4.405 1.807-7.84-2.098-7.84-2.098a8.522 8.522 0 01-.239 5.166 8.632 8.632 0 01-3.186 4.099 8.462 8.462 0 01-9.913.774s-.704 5.213-4.95 5.757c-4.247.544-4.142-13.23-4.142-13.23s19.19-8.817 19.382-9.157c.192-.34 23.246-8.808 23.59-8.618.344.19 19.3 11.771 20.332 12.341 1.032.57 9.598 21.364 10.246 22.614.648 1.25-4.262 7.637-4.262 7.637z" fill="#F49B73"/><path d="M168.795 80.817a5.73 5.73 0 00-1.629-2.916 14.287 14.287 0 00-4.737-3.559 9.254 9.254 0 00-5.849-.637c-.989.24-2.083.903-2.054 1.91a1.81 1.81 0 00.936 1.402c.52.277 1.076.481 1.653.607a22.633 22.633 0 017.415 3.648 5.934 5.934 0 002.236 1.263c.419.111.864.064 1.249-.133a1.72 1.72 0 00.83-.932c.193-.866-.57-1.625-1.26-2.19l1.21 1.537zM126.83 71.71a23.251 23.251 0 00-3.703-.346 9.415 9.415 0 00-4.201 1.56 4.015 4.015 0 01-2.194.826 1.916 1.916 0 01-1.335-.75 1.888 1.888 0 01-.35-1.48 3.312 3.312 0 011.53-1.796c3.63-2.457 10.763-4.972 13.641-.768.681.996 1.021 3.191-3.388 2.754z" fill="#692E12"/><path d="M141.316 99.137a5.136 5.136 0 00-2.855-1.703c-.145-.033-.291-.058-.438-.084a2.715 2.715 0 00-.315-.034 6.221 6.221 0 00-.889 0 5.332 5.332 0 00-1.666.428.849.849 0 01-.635-.075.83.83 0 01-.397-.494.84.84 0 01.081-.625.86.86 0 01.495-.396 7.008 7.008 0 014.176-.323 6.952 6.952 0 013.602 2.114.847.847 0 01.023 1.169.846.846 0 01-1.182.023z" fill="#DD664A"/><path d="M178.397 85.996a9.672 9.672 0 01-5.245-5.192 9.524 9.524 0 01-.014-7.34 8.77 8.77 0 01-5.162.71 8.718 8.718 0 01-4.644-2.34 8.558 8.558 0 01-2.453-4.547 8.5 8.5 0 01.621-5.118 9.747 9.747 0 01-5.099 1.925c-4.67.425-9.304-2.165-12.004-5.957a20.863 20.863 0 01-3.39-13.237c.155 4.491-2.191 7.817-5.936 9.095a11.896 11.896 0 01-5.865.22 11.816 11.816 0 01-5.242-2.607c2.759 2.786 2.257 7.859-.711 10.428-2.967 2.569-7.704 2.593-11.01.466a6.955 6.955 0 01.256 3.684 7.008 7.008 0 01-1.664 3.305 17.795 17.795 0 01-6.131 4.301c-2.513-2.845-3.329-6.789-3.505-10.562-.433-10.353 3.198-20.47 10.134-28.235a67.021 67.021 0 018.303-7.497 32.027 32.027 0 016.013-4.012c4.408-2.092 9.484-2.246 14.369-2.05 4.229.091 8.435.648 12.54 1.661 6.209 1.657 11.873 4.841 17.459 7.994 3.668 2.07 7.483 4.276 9.743 7.806 1.808 2.822 2.432 6.212 3.745 9.29 1.077 2.529 2.627 4.863 3.444 7.485 1.687 5.416.054 11.24-1.631 16.656a831.002 831.002 0 01-3.571 11.201c-.35 1.074-1.083 2.386-2.203 2.175l-1.147.292z" fill="#732C15"/><path d="M173.899 83.968a2.587 2.587 0 011.142-1.345 2.631 2.631 0 011.748-.31 3.686 3.686 0 012.062 1.406 8.223 8.223 0 011.605 5.617 16.416 16.416 0 01-1.592 5.722 9.31 9.31 0 01-1.587 2.6 5.459 5.459 0 01-2.485 1.516 5.513 5.513 0 01-2.92.032 5.466 5.466 0 01-2.518-1.462 5.372 5.372 0 01-1.395-2.537l5.94-11.239z" fill="#FFBF94"/><path d="M174.732 86.205s3.712-.182 2.475 5.606c-1.236 5.787-5.824 3.923-5.824 3.923a12.419 12.419 0 002.695-4.413c.577-1.642.8-3.385.654-5.116z" fill="#F49B73"/><path d="M109.647 73.133a5.132 5.132 0 00-.87-1.917 5.198 5.198 0 00-1.569-1.417 3.46 3.46 0 00-1.512-.498c-1.432-.084-2.663 1.012-3.455 2.195a11.668 11.668 0 00-.954 10.585 5.85 5.85 0 001.237 2.057 3.975 3.975 0 002.797 1.042 3.97 3.97 0 002.735-1.194l1.591-10.853z" fill="#FFBF94"/><path d="M105.812 82.799s-4.361.647-3.3-5.174c1.23-6.742 5.277-3.662 5.277-3.662a19.848 19.848 0 00-1.977 8.836z" fill="#F49B73"/><path d="M170.062 99.891c.13.453.392.858.755 1.163a2.43 2.43 0 002.656.308 2.398 2.398 0 001.006-.959 2.36 2.36 0 00-.214-2.637 2.405 2.405 0 00-1.147-.788 2.432 2.432 0 00-1.397-.025 2.402 2.402 0 00-1.445 1.13 2.357 2.357 0 00-.214 1.808zm-67.09-13.464c.13.452.393.857.755 1.162a2.43 2.43 0 002.656.307 2.394 2.394 0 001.006-.958 2.358 2.358 0 00-.214-2.636 2.405 2.405 0 00-1.147-.789 2.432 2.432 0 00-2.233.397 2.384 2.384 0 00-.898 1.59 2.36 2.36 0 00.075.927z" fill="#EECAB9"/><path d="M171.254 98.86c.067.233.203.442.39.6a1.249 1.249 0 001.891-.337 1.222 1.222 0 00-.703-1.768 1.255 1.255 0 00-1.153.205 1.224 1.224 0 00-.425 1.3zm-67.285-13.17c.067.234.203.443.39.6a1.248 1.248 0 001.372.16c.218-.111.399-.283.519-.496a1.222 1.222 0 00-.703-1.768 1.255 1.255 0 00-.721-.013 1.239 1.239 0 00-.746.583c-.161.285-.201.62-.111.934z" fill="#fff"/><path d="M84.497 76.754a11.4 11.4 0 004.216-6.042c1.454-5.353-1.409-11.008-.724-16.509 1.19-9.584 11.964-14.648 17.402-22.668 3.261-4.808 5.319-11.407 10.948-12.994 5.016-1.412 9.911 2.06 14.727 4.032a26.787 26.787 0 0016.786 1.113c4.986-1.303 9.929-4.083 14.974-3.029 5.382 1.129 8.885 6.258 11.041 11.266 2.156 5.005 3.684 10.508 7.532 14.397 6.193 6.262 16.431 6.47 23.648 11.546a20.157 20.157 0 016.664 8.077 20.576 20.576 0 00-6.169-12.471c-4.707-4.51-11.49-6.95-14.917-12.473-4.479-7.22.781-16.095-3.318-23.628-2.901-5.332-9.099-8.096-15.119-9.207a43.698 43.698 0 00-18.537.607c-5.984 1.511-11.949 3.318-18.164 2.07-5.97-1.198-11.646-4.372-17.897-3.765-6.855.665-12.392 5.834-16.394 11.377-3.711 5.136-6.672 10.768-11.024 15.436-4.103 4.403-8.39 8.881-10.857 14.438a26.32 26.32 0 00-1.652 14.97 26.484 26.484 0 006.834 13.457z" fill="#7F391F"/><path d="M149.535 27.537a11.568 11.568 0 017.788-1.47 13.799 13.799 0 017.345 3.657c4.498 4.235 6.035 10.302 8.757 15.613a18.226 18.226 0 005.458 6.804 22.566 22.566 0 007.603 3.3c3.021.756 6.048 1.142 8.777 2.745a17.146 17.146 0 015.911 5.732c1.843 2.994 1.491 6.068-.367 8.975-1.624 2.54-4.028 4.49-7.114 4.719a.639.639 0 01-.574-.38.622.622 0 01.116-.673 20.592 20.592 0 004.84-5.174 6.579 6.579 0 001.075-3.41 6.263 6.263 0 00-1.869-3.374 13.379 13.379 0 00-5.78-3.84c-2.589-.846-5.341-1.03-7.95-1.813a21.074 21.074 0 01-12.084-9.122c-2.834-4.653-3.978-10.1-6.871-14.72a13.719 13.719 0 00-6.019-5.469 15.267 15.267 0 00-8.515-.903c-.696.136-1.224-.813-.527-1.197zM95.868 62.102a13.883 13.883 0 001.54-5.771c-.024-1.935-.37-3.852-.306-5.79a9.666 9.666 0 011.663-5.459c1.346-1.864 3.35-2.862 5.171-4.184 3.427-2.486 4.894-7.031 7.466-10.268 2.835-3.567 6.856-5.575 11.455-4.458a36.012 36.012 0 016.878 2.883 15.724 15.724 0 003.637 1.3c1.246.25 2.504.136 3.744.33.029.004.033.041.017.06-1.155 1.378-3.342 1.361-4.982 1.168a27.433 27.433 0 01-6.306-1.765c-1.955-.726-4.139-1.49-6.257-1.134a8.204 8.204 0 00-5.041 3.64c-2.536 3.54-3.705 7.905-7.061 10.881-1.587 1.407-3.693 2.15-5.213 3.587a7.876 7.876 0 00-1.923 4.81c-.445 3.436.18 9.392-3.782 11.045-.547.228-.876-.46-.7-.875z" fill="#7F391F"/><path d="M120.092 46.938c.268-4.42 4.326-7.415 8.351-8.623 2.365-.71 4.708-.488 7.138-.42a12.474 12.474 0 003.993-.386c1.221-.372 2.323-.943 3.496-1.417.083-.034.133.069.106.132-2.022 4.703-7.968 3.484-11.965 4.073-4.515.665-7.34 3.845-10.291 6.968a.49.49 0 01-.74-.066.473.473 0 01-.088-.26zm26.489 1.966a18.989 18.989 0 011.333-5.646c.742-1.913 2.142-4.138 1.659-6.265a.293.293 0 01.136-.325.302.302 0 01.354.035c2.221 2.081.672 5.136.076 7.615-.673 2.797-.9 5.937.664 8.497 1.512 2.474 4.329 2.915 7.054 2.805a6.395 6.395 0 003.948-1.325 6.257 6.257 0 001.506-2.943 1.028 1.028 0 01.711-.706 1.038 1.038 0 01.979.232c2.812 2.572-.083 6.84-2.766 8.11a12.796 12.796 0 01-11.515-.928 10.339 10.339 0 01-3.271-4.047 10.213 10.213 0 01-.868-5.109zm19.496 16.499a6.772 6.772 0 01.75-3.773 5.795 5.795 0 012.688-2.573c.03-.016.075.017.052.049-1.848 2.527-2.409 6.434.059 8.766a4.144 4.144 0 001.938 1.073c.732.176 1.5.15 2.219-.075.572-.192 1.504-.703 1.641-1.356.165-.789-.685-1.382-1.294-1.705a.665.665 0 01-.337-.563.662.662 0 01.316-.575c2.479-1.161 4.625 1.505 3.901 3.88-.855 2.804-4.608 3.654-7.14 2.9a6.903 6.903 0 01-3.339-2.294 6.791 6.791 0 01-1.454-3.754zm12.763 13.039a8.36 8.36 0 01.735-4.012 8.464 8.464 0 012.548-3.205c.089-.073.251.015.177.13a9.294 9.294 0 00-.307 9.32 7.84 7.84 0 003.561 3.186c1.495.672 3.192.798 4.608 1.667 2.465 1.513 3.273 4.776 3.345 7.462.071 2.655-.668 5.389-3.124 6.791-.507.289-1.139-.412-.666-.821 2.339-2.024 2.105-5.729 1.141-8.383a5.03 5.03 0 00-1.251-2.074 5.113 5.113 0 00-2.084-1.262 16.352 16.352 0 01-4.327-1.697 9.755 9.755 0 01-2.984-3.067 9.632 9.632 0 01-1.372-4.035zm-67.823-27.204a.877.877 0 01.636 1.06.88.88 0 01-.218.395c-1.621 1.31-.59 3.108 1.211 3.529.896.152 1.818.01 2.625-.404a4.136 4.136 0 001.844-1.89c.836-1.703-1.18-3.509-1.397-5.237a5.883 5.883 0 011.139-4.221c.01-.013.025.001.024.013a7.735 7.735 0 00.925 4.93c.704 1.225 1.729 2.282 1.761 3.775.056 2.554-2.448 4.92-4.767 5.592a5.085 5.085 0 01-3.551-.213 5.007 5.007 0 01-2.522-2.482c-.823-1.96-.507-5.191 2.29-4.847zM90.546 77.975a8.078 8.078 0 011.778-5.815 14.143 14.143 0 015.755-4.1c2.421-1.046 4.714-1.77 5.925-4.296a.175.175 0 01.066-.067.189.189 0 01.184-.004.186.186 0 01.069.065c1.828 4.078-4.91 5.818-7.29 7.267a8.049 8.049 0 00-2.604 2.17 7.944 7.944 0 00-1.468 3.038c-.38 2.29 1.118 4.747 2.492 6.474.503.632-.487 1.235-1.031.817a11.08 11.08 0 01-2.63-2.411 6.814 6.814 0 01-1.246-3.138zM80.15 97.185a28.73 28.73 0 011.695-5.684 54.34 54.34 0 011.347-2.995c.498-1.017 1.16-1.849 1.74-2.793a.13.13 0 01.16-.053.127.127 0 01.079.148c-.144.784-.122 1.551-.311 2.351-.219.92-.46 1.836-.679 2.757-.418 1.76-.849 3.53-1.14 5.315a22.904 22.904 0 00.672 11.211c2.306 6.772 7.973 11.05 14.897 12.559.288.083.537.264.703.512a1.24 1.24 0 01-.2 1.609 1.271 1.271 0 01-.809.328c-7.911.013-14.536-5.971-17.201-13.036a22.94 22.94 0 01-.953-12.23z" fill="#7F391F"/><path d="M128.206 100.709s-.085.698-.097 1.773a17.274 17.274 0 001.179 6.802 7.044 7.044 0 002.158 2.988 7.16 7.16 0 003.386 1.505 7.48 7.48 0 003.871-.454 7.396 7.396 0 003.1-2.338 19.416 19.416 0 003.417-6.119c.396-1.106.576-1.857.576-1.857a26.28 26.28 0 01-17.59-2.3z" fill="#9F2236"/><path d="M128.206 100.709s-.085.698-.097 1.773a15.965 15.965 0 007.146 4.08c4.126 1.046 8.195-.741 9.965-1.696.396-1.106.576-1.857.576-1.857a26.28 26.28 0 01-17.59-2.3z" fill="#fff"/><path d="M129.289 109.285a7.042 7.042 0 002.158 2.988 7.16 7.16 0 003.386 1.505 7.48 7.48 0 003.871-.454 7.387 7.387 0 003.099-2.338 7.714 7.714 0 00-6.384-.811s-2.214-1.848-6.13-.89z" fill="#FF6551"/><path d="M125.079 90.582c3.356-1.481 4.863-5.373 3.366-8.692-1.498-3.32-5.433-4.81-8.789-3.33-3.357 1.482-4.864 5.373-3.366 8.693 1.497 3.32 5.432 4.81 8.789 3.329z" fill="#fff"/><path d="M126.832 88.346A5.25 5.25 0 00125.421 81c-2.441-1.643-5.767-1.018-7.428 1.397a5.25 5.25 0 001.411 7.346c2.441 1.643 5.767 1.017 7.428-1.397z" fill="#000"/><path d="M125.477 85.56a1.726 1.726 0 01-.222 1.918 1.775 1.775 0 01-2.717-.042 1.724 1.724 0 01-.161-1.925 1.752 1.752 0 011.392-.889 1.772 1.772 0 011.281.406c.176.148.321.328.427.531zm37.512 6.072c.301-3.623-2.424-6.801-6.087-7.1-3.664-.297-6.877 2.398-7.179 6.02-.301 3.623 2.424 6.802 6.087 7.1 3.664.298 6.877-2.397 7.179-6.02z" fill="#fff"/><path d="M157.976 96.611c2.762-1.032 4.155-4.083 3.112-6.815-1.044-2.732-4.129-4.11-6.891-3.077-2.763 1.032-4.156 4.083-3.112 6.815 1.044 2.732 4.129 4.11 6.891 3.077z" fill="#000"/><path d="M152.065 91.882c.016.312.126.613.315.864a1.615 1.615 0 002.469.114 1.576 1.576 0 00.257-1.74 1.61 1.61 0 00-2.632-.38 1.57 1.57 0 00-.409 1.142z" fill="#fff"/><path d="M181.065 183.699l-.428 1.241-.847 2.463-48.732 1.144-48.732-1.144-1.275-3.704a101.55 101.55 0 0022.552-2.91c11.113-2.909 22.552-3.232 27.455 1.617 4.902-4.849 16.342-4.526 27.455-1.617a101.538 101.538 0 0022.552 2.91z" fill="#FFEBDD"/><path d="M180.41 189.194H81.703v-2.263h98.707v2.263z" fill="#FF6551"/><path d="M181.064 183.699l-.429 1.241c-6.311.274-16.894-.918-28.334-3.827-11.439-2.909-20.918 2.586-21.244 2.586v-1.293c4.902-4.849 16.342-4.526 27.454-1.617a101.554 101.554 0 0022.553 2.91z" fill="#F5C6B1"/><path d="M81.05 183.699l.429 1.241c6.311.274 16.895-.918 28.334-3.827s20.918 2.586 21.245 2.586v-1.293c-4.903-4.849-16.342-4.526-27.455-1.617a101.55 101.55 0 01-22.552 2.91z" fill="#F5C6B1"/></svg>