<svg width="321" height="2310" fill="none" xmlns="http://www.w3.org/2000/svg"><path d="M158.106 2095.63l14.489 9.22c15.97-28 1.146-50.37-7.697-58.72l-8.851 16.18s10.912 10.74 2.059 33.32zm-46.502-936.76l26.117-22.75c-45.028-46.87-96.765-30.98-117.955-18.64l26.24 26.35s26.984-14.97 65.598 15.04zm89.303 250.4l-5.851 34.14c64.519 7.84 94.558-37.17 103.178-60.13l-36.994-3.83s-11.439 28.66-60.333 29.82zm-61.782-37.04l16.234-30.6c-58.83-27.63-101.441 5.74-116.807 24.85l33.94 15.21s19.83-23.65 66.633-9.46zm3.672-1219.005l-72.318 2.407C81.6 290.956 186.372 333.459 236.97 341.428l-7.744-77.311s-63.465-11.334-86.43-110.892z" fill="#fff"/></svg>