<svg width="213" height="639" fill="none" xmlns="http://www.w3.org/2000/svg"><path fill-rule="evenodd" clip-rule="evenodd" d="M169.059 151.824c-.068 1.511-1.169 3.055-1.256 4.854-.066 1.333.108 2.866.589 4.229.924 2.625 3.527 3.546 4.503 5.565-10.356 4.617-21.885 8.525-33.615 12.784-3.4 1.233-9.191 3.406-12.406 2.225-3.182-1.171-5.737-7.822-3.325-11.364 1.522-2.231 5.981-4.182 9.988-5.59 7.551-2.646 16.797-5.097 23.804-7.923 4.242-1.71 8.087-3.358 11.718-4.78z" fill="#8F7ECE"/><path opacity=".81" fill-rule="evenodd" clip-rule="evenodd" d="M169.059 151.824c-.068 1.511-1.169 3.055-1.256 4.854-.066 1.333.108 2.866.589 4.229.924 2.625 3.527 3.546 4.503 5.565-10.356 4.617-21.885 8.525-33.615 12.784-3.4 1.233-9.191 3.406-12.406 2.225-3.182-1.171-5.737-7.822-3.325-11.364 1.522-2.231 5.981-4.182 9.988-5.59 7.551-2.646 16.797-5.097 23.804-7.923 4.242-1.71 8.087-3.358 11.718-4.78z" fill="#fff"/><path fill-rule="evenodd" clip-rule="evenodd" d="M160.496 160.449c.111 1.335-32.357 12.905-32.914 11.519-.393-.961 7.946-3.426 16.056-6.211 8.491-2.916 16.788-6.123 16.858-5.308zm7.168 1.315c.111 1.331-32.357 12.903-32.92 11.517-.389-.96 7.952-3.425 16.061-6.21 8.495-2.919 16.789-6.124 16.859-5.307z" fill="#8F7ECE"/><path fill-rule="evenodd" clip-rule="evenodd" d="M126.362 169.643c-2.202 2.497-1.699 8.066 1.277 9.637 13.071-4.196 26.478-9.073 40.266-12.866 1.697-.465 4.892-2.132 5.696 0 .834 2.188-2.847 2.812-4.459 3.461-10.987 4.433-23.035 9.49-36.015 12.506-2.32.542-5.094 1.332-7.04 1.062-1.54-.213-3.485-1.795-4.992-2.909-7.352-5.409-15.105-12.14-21.727-18.377-2.518-2.371-6.347-5.519-7.59-8.395-2.554-5.91 1.669-8.373 6.466-10.755 3.446-1.711 7.014-2.842 10.123-3.934 7.899-2.77 13.813-5.505 20.015-7.844 4.684-1.77 10.315 2.233 13.861 3.83 7.726 3.48 12.898 5.809 20.565 10.158 1.986 1.132 8.558 4.741 8.178 6.925-.403 2.326-7.942 3.955-10.516 4.915-11.493 4.283-22.765 8.54-34.108 12.586z" fill="#4D3D87"/><path opacity=".21" fill-rule="evenodd" clip-rule="evenodd" d="M121.339 171.027c-2.409 1.436-27.758-21.047-26.859-22.24.588-.787 5.976 4.407 12.217 9.587 7.236 6.003 15.378 12.216 14.642 12.653z" fill="#000"/><path fill-rule="evenodd" clip-rule="evenodd" d="M99.426 142.908c.426-2.03 1.903-2.993 2.435-4.953.359-1.325.251-3.273.548-4.795 1.833.039 3.665 2.698 5.115 4.322 3.028 3.384 5.089 6.08 8.415 9.749 1.225 1.354 3.329 3.918 4.622 4.128 2.898.474 7.686-1.996 10.675-3.028 7.131-2.461 12.399-4.485 20.344-6.685 4.466-1.239 10.573-2.418 11.583 2.12.956 4.297-3.414 6.622-6.901 8.416-3.645 1.877-7.556 3.554-10.753 4.935-3.442 1.487-6.855 3.189-11.242 4.738-3.612 1.279-8.902 3.536-12.583 2.953-2.082-.328-4.79-3.178-6.335-4.698-5.874-5.793-10.132-11.347-15.923-17.202z" fill="#8F7ECE"/><path opacity=".81" fill-rule="evenodd" clip-rule="evenodd" d="M99.426 142.908c.426-2.03 1.903-2.993 2.435-4.953.359-1.325.251-3.273.548-4.795 1.833.039 3.665 2.698 5.115 4.322 3.028 3.384 5.089 6.08 8.415 9.749 1.225 1.354 3.329 3.918 4.622 4.128 2.898.474 7.686-1.996 10.675-3.028 7.131-2.461 12.399-4.485 20.344-6.685 4.466-1.239 10.573-2.418 11.583 2.12.956 4.297-3.414 6.622-6.901 8.416-3.645 1.877-7.556 3.554-10.753 4.935-3.442 1.487-6.855 3.189-11.242 4.738-3.612 1.279-8.902 3.536-12.583 2.953-2.082-.328-4.79-3.178-6.335-4.698-5.874-5.793-10.132-11.347-15.923-17.202z" fill="#fff"/><path fill-rule="evenodd" clip-rule="evenodd" d="M98.555 141.128c1.075-.954 12.726 11.73 17.816 16.995 1.864 1.928 3.705 5.144 5.682 5.464 2.596.42 8.885-2.431 11.13-3.303 7.31-2.828 12.953-5.153 19.954-8.555 2.439-1.186 7.908-3.269 8.591-5.228.402-1.169.419-3.166-.314-3.775-1.423-1.185-7.091.88-10.303 1.809-8.396 2.425-16.011 5.512-24.475 8.458-1.745.607-3.795 1.478-5.11 1.374-2.088-.16-3.989-3.049-5.625-4.755-5.127-5.343-14.485-14.761-14.001-16.888.524-2.31 25.91-10.616 36.33-11.582 1.213-.114 3.624-.421 5.49.254 5.565 2.02 11.973 9.567 15.962 14.819 1.513 1.995 3.579 4.375 4.091 6.315 1.436 5.467-1.219 6.807-4.739 8.706-8.57 4.625-16.493 7.678-26.127 11.445-1.455.569-3.522 1.469-5.521 2.128-2.038.668-4.548 1.51-6.314 1.238-1.925-.297-4.408-3.815-5.917-5.448-3.957-4.279-17.485-18.681-16.6-19.471z" fill="#EFAD1B"/><path opacity=".12" fill-rule="evenodd" clip-rule="evenodd" d="M155.145 139.13c-.388.846-2.409-1.17-3.481-2.307-2.046-2.187-6.426-5.952-8.651-8.666-1.317-1.603-3.843-4.559-3.055-5.212.619-.508 2.646 1.829 3.707 2.984 2.238 2.434 6.615 6.529 8.982 9.045.938.998 2.992 3.08 2.498 4.156z" fill="#fff"/><path d="M117.907 155.985c1.282 1.141 2.518 2.319 3.8 3.362.485.381 1.033.775 1.432.938.098.042.171.037.112.027-.087.015.069-.015.097-.023l.193-.055c.285-.087.592-.191.893-.297a122.1 122.1 0 003.692-1.335c2.479-.884 4.96-1.786 7.481-2.592 1.613-.52 3.234-1.026 4.877-1.471.923-.253 1.238.181.45.599a85.084 85.084 0 01-4.771 2.31c-2.414 1.101-4.872 2.082-7.365 3.01-1.258.432-2.507.878-3.807 1.254-.328.092-.652.184-1.01.26l-.29.054c-.138.023-.143.038-.397.046a1.906 1.906 0 01-.839-.205c-.803-.401-1.264-.891-1.774-1.376-1.26-1.287-2.342-2.666-3.363-4.086-.531-.737-.112-1.05.589-.42z" fill="#8F7ECE"/><path fill-rule="evenodd" clip-rule="evenodd" d="M159.128 144.066c.111 1.335-32.358 12.904-32.916 11.52-.391-.96 7.948-3.428 16.059-6.212 8.49-2.917 16.786-6.122 16.857-5.308z" fill="#8F7ECE"/><path fill-rule="evenodd" clip-rule="evenodd" d="M119.215 144.911c.184 1.098 1.409 2.515 2.699 3.835.551.562 1.46 1.463 2.021 1.025.672-.522-.197-1.707-.508-2.131-.988-1.336-2.455-2.752-3.454-3.278-.262-.011-.63.275-.758.549zm1.347 5.003c-1.598.81.738 3.955 1.826 2.941.471-.44-.09-2.383-.89-2.93-.288-.196-.658-.152-.936-.011z" fill="#fff"/><path fill-rule="evenodd" clip-rule="evenodd" d="M103.015 139.025c-.469-.246-.46-1.146-.435-1.719.098-2.272 1.875-3.126 3.925-4.422 2.739-1.732 5.495-3.276 8.191-4.775 1.75-.973 4.076-2.485 6.606-2.694 3.088-.255 6.025.157 8.92.531 7.022.908 13.392 2.11 20.197 3.596 1.37.299 3.359.461 3.521 1.269.309 1.546-1.985 1.349-3.522 1.072-1.088-.195-2.878-.579-4.067-.833-7.103-1.523-13.404-2.56-20.877-3.542-2.028-.264-4.062-.572-5.934.2-1.436.59-2.778 1.881-4.151 2.879-2.73 1.984-5.341 3.998-7.989 6.026-1.274.974-2.508 2.356-4.385 2.412z" fill="#4D3D87"/><path fill-rule="evenodd" clip-rule="evenodd" d="M148.944 148.773c.975.354 1.777-2.012 1.833-2.555.144-1.418-3.292-6.535-4.791-9.05-.974-1.635-2.165-3.987-4.142-5.363-2.415-1.683-5.022-2.747-7.579-3.82-6.2-2.605-12.004-4.657-18.303-6.683-1.269-.407-2.979-1.222-3.497-.636-.992 1.122.988 2.055 2.381 2.559.987.36 2.64.9 3.739 1.258 6.559 2.138 12.23 4.29 18.834 7.05 1.792.749 3.609 1.467 4.778 2.993.897 1.172 1.385 2.872 2.037 4.346 1.294 2.933 3.035 9.29 4.71 9.901z" fill="#4D3D87"/><path fill-rule="evenodd" clip-rule="evenodd" d="M121.507 114.682c5.016-.46 9.445 2.132 10.403 6.71.687 3.287-.889 6.05-2.43 7.778-2.476 2.774-6.98 5.131-11.278 5.442-5.665.414-10.355-2.412-10.111-8.262.116-2.803 1.923-5.145 3.5-6.806 1.978-2.083 4.073-3.529 7.098-4.375.848-.238 1.679-.381 2.818-.487zm-6.027 4.571c-1.61 1.046-3.565 2.883-4.277 4.667-2.027 5.073 2.486 7.945 7.194 7.583 4.63-.357 9.074-3.323 10.596-6.515.338-.71.712-1.723.682-2.915-.103-3.769-3.959-5.423-7.584-5.058-2.819.287-4.737 1.019-6.611 2.238zm31.341-.239c5.018-.463 9.447 2.13 10.403 6.707.689 3.288-.888 6.051-2.43 7.778-2.476 2.775-6.979 5.132-11.277 5.444-5.665.412-10.354-2.411-10.109-8.264.115-2.803 1.921-5.143 3.499-6.806 1.977-2.083 4.073-3.528 7.097-4.374.848-.237 1.679-.381 2.817-.485zm-6.026 4.569c-1.609 1.046-3.565 2.882-4.278 4.667-2.025 5.073 2.486 7.945 7.195 7.581 4.629-.356 9.074-3.321 10.596-6.513.34-.71.712-1.723.682-2.916-.1-3.767-3.957-5.422-7.584-5.055-2.82.285-4.737 1.018-6.611 2.236z" fill="#4D3D87"/><path opacity=".6" fill-rule="evenodd" clip-rule="evenodd" d="M115.479 119.253c-1.61 1.046-3.566 2.883-4.278 4.667-2.027 5.073 2.486 7.945 7.195 7.582 4.63-.356 9.074-3.322 10.595-6.514.339-.71.712-1.723.682-2.915-.103-3.769-3.958-5.423-7.584-5.058-2.819.287-4.737 1.019-6.61 2.238zm25.315 4.33c-1.609 1.046-3.565 2.882-4.277 4.667-2.025 5.072 2.486 7.945 7.194 7.581 4.63-.356 9.075-3.321 10.597-6.513.34-.71.711-1.723.681-2.916-.1-3.767-3.957-5.422-7.584-5.055-2.82.285-4.737 1.018-6.611 2.236z" fill="#fff"/><path fill-rule="evenodd" clip-rule="evenodd" d="M148.448 120.898c.571.871-1.212 1.298-2.136 1.504-.968.218-1.969.5-2.145-.094-.091-.304.213-.526.453-.753.573-.551 2.956-1.082 3.516-.904.103.034.25.146.312.247zm-2.826 3.048c.667 1.049-2.071 1.684-2.247.688-.149-.842 1.888-1.258 2.247-.688zm-2.902-1.232c.096.146.166.359.101.552-.205.584-2.624 1.51-2.843.423-.088-.438.623-.878 1.33-1.122.564-.197 1.16-.237 1.412.147zm-21.171 7.365c-.305 1.504 3.538.489 2.548-.651-.517-.594-1.997.149-2.548.651zm-1.789 1.99c.259-.197.686-.737.254-1.228-.562-.642-2.244-.318-2.936-.316-.84.003-2.425-.372-2.89.452-.665 1.176 1.775 1.355 2.615 1.383.448.013.888-.016 1.266-.023.649-.013 1.192.106 1.691-.268z" fill="#fff"/><path fill-rule="evenodd" clip-rule="evenodd" d="M66.454 103.123c-.74-2.872-.353-7.15-2.375-10.366-.462-.737-1.269-1.597-1.932-1.291-1.058.486-.468 3.746-.382 4.659.178 1.83.415 3.306.72 4.982-.81-1.566-1.421-3.588-2.514-5.637-.774-1.449-2.41-4.388-3.648-3.912-1.718.658.227 5.476.761 6.98.772 2.168 2.018 5.264 3.574 7.802 1.547 2.527 4.493 5.673 6.903 2.873.55-.642 1.091-1.663 1.523-2.539.85-1.733 1.317-3.449 1.661-5.35.169-.935.399-1.967.34-2.815-.057-.866-.289-1.803-1.218-2.08-1.463.517-1.955 1.913-2.401 3.014-.483 1.182-.766 2.465-1.054 3.602l.042.078z" fill="#FF5000"/><path fill-rule="evenodd" clip-rule="evenodd" d="M84.635 141.763c-.014 2.42-.072 5.015-.256 7.351-.057.79-.024 1.641-.25 2.282-.403 1.135-1.959 2.178-2.45 3.55-.566 1.575-.413 3.825-.509 5.916-.099 2.116-.135 4.202-.253 6.168-.255 4.201.31 8.708-.932 11.832l-.082.169c-1.68 3.067-7.36 4.16-11.494 4.647-6.619.779-14.937.416-17.069-4.225-.367-.8-.51-1.905-.676-2.959-.834-5.246-1.035-10.878-1.692-16.308-.128-1.08-.278-2.163-.42-3.213-.145-1.06-.286-2.12-.591-2.956-.507-1.373-1.866-1.965-2.369-3.211-.924-2.303-.475-6.247-.505-9.297.953-.942 2.135-1.658 3.38-2.366 3.607-2.045 8.234-3.123 13.774-3.38 4.375-.202 9.32.407 13.1 1.184 4.057.835 7.736 2.162 9.294 4.816z" fill="#4D3D87"/><path fill-rule="evenodd" clip-rule="evenodd" d="M82.217 143.61c.103.715-.662 1.032-1.147 1.314-7.19 4.185-21.085 4.119-31.088 1.623-.606-.151-1.358-.323-1.746-.821-.09-.402.298-.395.526-.574.51-.399 1.092-.994 1.74-1.379 1.87-1.101 4.335-1.99 6.854-2.55 7.313-1.628 18.287-1.433 24.188 2.194.17.446.606-.183.673.193z" fill="#EFAD1B"/><path fill-rule="evenodd" clip-rule="evenodd" d="M64.099 135.596c4.351-.209 8.724.152 12.338 1.012 1.823.436 3.158.724 5.069 1.606 1.501.691 3.275 1.933 3.465 3.211.278 1.87-1.194 3.457-2.449 4.311-1.453.989-3.19 1.504-4.818 1.943-3.654.979-8.09 1.183-12.254 1.183-3.897 0-8.566-.096-12.422-1.014-1.559-.372-3.278-1.028-4.898-1.859-1.468-.752-3.123-1.989-3.297-3.381-.451-3.539 4.992-4.802 7.605-5.492 3.68-.972 7.14-1.306 11.66-1.52zm-13.858 9.041c4.224 1.455 9.541 1.757 14.958 1.944 5.81.201 10.505-.697 14.449-2.367.867-.367 3.353-1.243 3.295-2.366-.05-.952-2.403-1.934-3.464-2.366-4.222-1.72-9.737-2.22-15.633-1.945-4.776.229-10.334 1.131-13.944 2.621-1.263.52-2.61 1.206-3.127 2.365.712 1.157 2.127 1.653 3.466 2.114z" fill="#8F7ECE"/><path opacity=".21" fill-rule="evenodd" clip-rule="evenodd" d="M50.41 154.779c6.017.954 10.553 1.26 16.056 1.011 6.073-.275 15.04-2.28 15.04-2.28s-5.209 3.591-14.956 3.971c-6.099.238-12.024-.481-16.14-2.702z" fill="#000"/><path fill-rule="evenodd" clip-rule="evenodd" d="M55.46 175.637c-1.178.312-.984 4.414.508 4.023 1.045-.272.556-3.689-.508-4.023zm-1.531-2.608c.979-.055.828-1.094.86-1.906.03-.719.233-1.607.214-2.232-.022-.825-.241-1.861-.842-2.157-.7.611-.818 1.951-.909 3.002-.088 1.034-.227 2.448.677 3.293zm-.403-9.871c.981-.965.831-2.499.872-3.936a.656.656 0 01-.486-.246c-.724.199-.973 1.359-1.067 2.107-.093.757-.258 1.969.681 2.075zm4.566 4.852c.914-.537 1.086-2.859-.105-3.208-1.188.386-1.089 2.894.105 3.208z" fill="#fff"/><path fill-rule="evenodd" clip-rule="evenodd" d="M58.337 140.194c.25 1.186.51 2.37.783 3.55h11.63c.484-.661.814-2.158 1.151-3.245 1.09-3.509 2.117-6.961 2.558-10.588.321-2.662.233-5.139.075-7.533-.175-2.601-.586-5.676-1.639-8.032-1.011-2.277-2.728-4.372-4.24-5.014-1.904-.807-5.753-.128-8.232.982-2.667 1.194-4.348 2.906-5.074 4.751-.854 2.168-.744 5.219-.47 7.951.561 5.639 2.262 11.51 3.458 17.178z" fill="#B1BC00"/><path opacity=".21" d="M59.477 142.316c.057.478.13.952.201 1.428h1.677c-.426-3.581-.973-7.218-1.356-10.821-.342-3.215-.677-6.457-.826-9.785-.144-3.137-.532-6.618.314-9.383.438-1.425 1.276-2.607 2.001-3.86-.373.13-.732.271-1.064.418-.138.062-.262.131-.395.194-.457.721-.897 1.466-1.21 2.19-1.158 2.659-1.045 6.477-.963 9.528.178 6.576.808 13.301 1.62 20.091zm4.263 1.428h1.587c.078-4.712-.132-9.54-.23-14.373-.069-3.453-.634-7.131-.769-10.826-.06-1.688.084-3.509.167-5.254.07-1.424.21-2.853.19-4.175a15.46 15.46 0 00-.83.14c-1.318 6.353-.443 13.1-.262 19.811.128 4.86-.026 9.742.146 14.677zm4.217-25.935c1.486 8.993.674 17.533-.118 25.934h1.457c.239-1.535.422-3.145.553-4.571.312-3.337.339-6.852.422-10.151.087-3.414-.074-6.926-.721-10.548-.563-3.154-1.676-6.231-2.64-9.484a10.66 10.66 0 00-.994.004c.053.245.113.486.16.715.538 2.6 1.439 5.439 1.88 8.101z" fill="#000"/><path fill-rule="evenodd" clip-rule="evenodd" d="M56.252 115.97c.343 1.202 1.521 1.527 2.274 2.119.128.455-.6.663-.298 1.172.32.256.854-.178 1.328-.409.77.037 1.506 1.268 2.352.355-.052-.668-.75-.97-1.157-1.201.275-.669 1.232-1.142.642-2.065-.748-.073-1.12.841-1.713 1.224-1.233-.112-2.052-1.552-3.428-1.195zm13.228 1.397c-.484-.375-.847-1.139-1.52-.906.039.078-.066.114-.118.165.074.674.71 1.255 1.09 1.643-.08.508-1.135.732-.943 1.317.32-.104.64-.203 1.002-.438.203.544-.152 1.211-.241 1.851-.09.67-.147 1.38-.035 2.046.441-.338.689-1.071.853-1.674.174-.646.246-1.353.403-1.938.7.51 1.61 1.255 2.268 1.92.201.206.238.675.617.578.59-.365-.02-1.069-.231-1.394-.536-.821-1.62-1.642-2.114-2.206.48-.522 1.632-.851 1.057-1.681-.293-.037-.78.313-.962.517-.042-.853.62-1.499.351-2.417-1.224.398-.972 1.789-1.478 2.617zm-6.533 6.648c-.483.679.124 1.672.584 2.622-.498-.034-.82-.645-1.386-.468.157.816.981 1.253 1.493 1.626-.186.476-1.074.748-.94 1.317.463-.062 1.04-.49 1.56-.738.87 1.203 1.575 2.937 2.479 4.036.477-.767-.402-1.929-.752-2.938.767.096 1.252 1.109 2.198.641-.212-1.386-1.943-1.418-2.76-2.264.428-.514 1.535-.833 1.586-1.459-.073-.131-.141-.262-.213-.391-.669-.098-1.244.658-1.96.951-.526-.948-.855-2.83-1.889-2.935zm1.008 14.344c-.14.601-1.124.956-.733 1.709.497.026.776-.503 1.281-.689.53.951 1.258 2.44 1.825 3.422h.247c.215-.967-.54-2.212-.776-3.308.62.082 1.04.8 1.831.335.2-.961-1.067-1.161-1.655-1.542.375-.651 1.917-1.163 1.577-1.862-.424-.875-1.737.502-2.445 1.011-.629-.533-.662-2.553-1.714-2.421-.433.515-.044 1.269.248 1.995-.498.176-.77-.385-1.297-.113.176.822 1.05 1.17 1.611 1.463z" fill="#fff"/><path fill-rule="evenodd" clip-rule="evenodd" d="M56.252 115.97c.343 1.202 1.521 1.527 2.274 2.119.128.455-.6.663-.298 1.172.32.256.854-.178 1.328-.409.77.037 1.506 1.268 2.352.355-.052-.668-.75-.97-1.157-1.201.275-.669 1.232-1.142.642-2.065-.748-.073-1.12.841-1.713 1.224-1.233-.112-2.052-1.552-3.428-1.195zm13.228 1.397c-.484-.375-.847-1.139-1.52-.906.039.078-.066.114-.118.165.074.674.71 1.255 1.09 1.643-.08.508-1.135.732-.943 1.317.32-.104.64-.203 1.002-.438.203.544-.152 1.211-.241 1.851-.09.67-.147 1.38-.035 2.046.441-.338.689-1.071.853-1.674.174-.646.246-1.353.403-1.938.7.51 1.61 1.255 2.268 1.92.201.206.238.675.617.578.59-.365-.02-1.069-.231-1.394-.536-.821-1.62-1.642-2.114-2.206.48-.522 1.632-.851 1.057-1.681-.293-.037-.78.313-.962.517-.042-.853.62-1.499.351-2.417-1.224.398-.972 1.789-1.478 2.617zm-6.533 6.648c-.483.679.124 1.672.584 2.622-.498-.034-.82-.645-1.386-.468.157.816.981 1.253 1.493 1.626-.186.476-1.074.748-.94 1.317.463-.062 1.04-.49 1.56-.738.87 1.203 1.575 2.937 2.479 4.036.477-.767-.402-1.929-.752-2.938.767.096 1.252 1.109 2.198.641-.212-1.386-1.943-1.418-2.76-2.264.428-.514 1.535-.833 1.586-1.459-.073-.131-.141-.262-.213-.391-.669-.098-1.244.658-1.96.951-.526-.948-.855-2.83-1.889-2.935zm1.008 14.344c-.14.601-1.124.956-.733 1.709.497.026.776-.503 1.281-.689.53.951 1.258 2.44 1.825 3.422h.247c.215-.967-.54-2.212-.776-3.308.62.082 1.04.8 1.831.335.2-.961-1.067-1.161-1.655-1.542.375-.651 1.917-1.163 1.577-1.862-.424-.875-1.737.502-2.445 1.011-.629-.533-.662-2.553-1.714-2.421-.433.515-.044 1.269.248 1.995-.498.176-.77-.385-1.297-.113.176.822 1.05 1.17 1.611 1.463z" fill="#B1BC00"/><path opacity=".21" d="M56.252 115.97c.343 1.202 1.521 1.527 2.274 2.119.128.455-.6.663-.298 1.172.32.256.854-.178 1.328-.409.77.037 1.506 1.268 2.352.355-.052-.668-.75-.97-1.157-1.201.275-.669 1.232-1.142.642-2.065-.748-.073-1.12.841-1.713 1.224-1.233-.112-2.052-1.552-3.428-1.195zm13.228 1.397c-.484-.375-.847-1.139-1.52-.906.039.078-.066.114-.118.165.074.674.71 1.255 1.09 1.643-.08.508-1.135.732-.943 1.317.32-.104.64-.203 1.002-.438.203.544-.152 1.211-.241 1.851-.09.67-.147 1.38-.035 2.046.441-.338.689-1.071.853-1.674.174-.646.246-1.353.403-1.938.7.51 1.61 1.255 2.268 1.92.201.206.238.675.617.578.59-.365-.02-1.069-.231-1.394-.536-.821-1.62-1.642-2.114-2.206.48-.522 1.632-.851 1.057-1.681-.293-.037-.78.313-.962.517-.042-.853.62-1.499.351-2.417-1.224.398-.972 1.789-1.478 2.617zm-6.533 6.648c-.483.679.124 1.672.584 2.622-.498-.034-.82-.645-1.386-.468.157.816.981 1.253 1.493 1.626-.186.476-1.074.748-.94 1.317.463-.062 1.04-.49 1.56-.738.87 1.203 1.575 2.937 2.479 4.036.477-.767-.402-1.929-.752-2.938.767.096 1.252 1.109 2.198.641-.212-1.386-1.943-1.418-2.76-2.264.428-.514 1.535-.833 1.586-1.459-.073-.131-.141-.262-.213-.391-.669-.098-1.244.658-1.96.951-.526-.948-.855-2.83-1.889-2.935zm1.008 14.344c-.14.601-1.124.956-.733 1.709.497.026.776-.503 1.281-.689.53.951 1.258 2.44 1.825 3.422h.247c.215-.967-.54-2.212-.776-3.308.62.082 1.04.8 1.831.335.2-.961-1.067-1.161-1.655-1.542.375-.651 1.917-1.163 1.577-1.862-.424-.875-1.737.502-2.445 1.011-.629-.533-.662-2.553-1.714-2.421-.433.515-.044 1.269.248 1.995-.498.176-.77-.385-1.297-.113.176.822 1.05 1.17 1.611 1.463z" fill-rule="evenodd" clip-rule="evenodd" fill="#000"/><path opacity=".21" d="M56.252 115.97c.343 1.202 1.521 1.527 2.274 2.119.128.455-.6.663-.298 1.172.32.256.854-.178 1.328-.409.77.037 1.506 1.268 2.352.355-.052-.668-.75-.97-1.157-1.201.275-.669 1.232-1.142.642-2.065-.748-.073-1.12.841-1.713 1.224-1.233-.112-2.052-1.552-3.428-1.195zm13.228 1.397c-.484-.375-.847-1.139-1.52-.906.039.078-.066.114-.118.165.074.674.71 1.255 1.09 1.643-.08.508-1.135.732-.943 1.317.32-.104.64-.203 1.002-.438.203.544-.152 1.211-.241 1.851-.09.67-.147 1.38-.035 2.046.441-.338.689-1.071.853-1.674.174-.646.246-1.353.403-1.938.7.51 1.61 1.255 2.268 1.92.201.206.238.675.617.578.59-.365-.02-1.069-.231-1.394-.536-.821-1.62-1.642-2.114-2.206.48-.522 1.632-.851 1.057-1.681-.293-.037-.78.313-.962.517-.042-.853.62-1.499.351-2.417-1.224.398-.972 1.789-1.478 2.617zm-6.533 6.648c-.483.679.124 1.672.584 2.622-.498-.034-.82-.645-1.386-.468.157.816.981 1.253 1.493 1.626-.186.476-1.074.748-.94 1.317.463-.062 1.04-.49 1.56-.738.87 1.203 1.575 2.937 2.479 4.036.477-.767-.402-1.929-.752-2.938.767.096 1.252 1.109 2.198.641-.212-1.386-1.943-1.418-2.76-2.264.428-.514 1.535-.833 1.586-1.459-.073-.131-.141-.262-.213-.391-.669-.098-1.244.658-1.96.951-.526-.948-.855-2.83-1.889-2.935zm1.008 14.344c-.14.601-1.124.956-.733 1.709.497.026.776-.503 1.281-.689.53.951 1.258 2.44 1.825 3.422h.247c.215-.967-.54-2.212-.776-3.308.62.082 1.04.8 1.831.335.2-.961-1.067-1.161-1.655-1.542.375-.651 1.917-1.163 1.577-1.862-.424-.875-1.737.502-2.445 1.011-.629-.533-.662-2.553-1.714-2.421-.433.515-.044 1.269.248 1.995-.498.176-.77-.385-1.297-.113.176.822 1.05 1.17 1.611 1.463z" fill-rule="evenodd" clip-rule="evenodd" fill="#000"/><path fill-rule="evenodd" clip-rule="evenodd" d="M174.518 271.854c-11.084-6.81-21.499-15.268-31.089-24.151-1.281-1.184-3.342-2.51-2.79-4.896 1.778-1.031 4.453 1.22 6.016 2.284 4.902 3.346 8.28 6.426 13.198 10.282 4.313 3.384 8.753 6.713 13.05 10.607 1.575 1.427 3.273 3.025 3.668 4.243.121.376.294 1.88.294 2.12.001 2.053-1.063 3.737-1.761 5.55-3.989 10.368-8.347 19.71-13.051 29.536-.335.699-.769 1.638-1.174 2.447-.446.896-1.083 1.705-1.172 2.285-.137.874.14 2.225.146 3.429.011 2.36.595 37.718-1.209 38.137-3.553.823-1.87-29.486-1.87-31.629 0-5.628.657-13.293 2.199-17.116 4.522-11.213 10.882-22.051 15.545-33.128z" fill="#FF5000"/><path opacity=".21" fill-rule="evenodd" clip-rule="evenodd" d="M174.518 271.854c-11.084-6.81-21.499-15.268-31.089-24.151-1.281-1.184-3.342-2.51-2.79-4.896 1.778-1.031 4.453 1.22 6.016 2.284 4.902 3.346 8.28 6.426 13.198 10.282 4.313 3.384 8.753 6.713 13.05 10.607 1.575 1.427 3.273 3.025 3.668 4.243.121.376.294 1.88.294 2.12.001 2.053-1.063 3.737-1.761 5.55-3.989 10.368-8.347 19.71-13.051 29.536-.335.699-.769 1.638-1.174 2.447-.446.896-1.083 1.705-1.172 2.285-.137.874.14 2.225.146 3.429.011 2.36.595 37.718-1.209 38.137-3.553.823-1.87-29.486-1.87-31.629 0-5.628.657-13.293 2.199-17.116 4.522-11.213 10.882-22.051 15.545-33.128z" fill="#000"/><path fill-rule="evenodd" clip-rule="evenodd" d="M179.286 272.486c0 2.511-1.831 4.55-4.089 4.55-2.255 0-4.086-2.039-4.086-4.55 0-2.51 1.831-4.548 4.086-4.548 2.258 0 4.089 2.038 4.089 4.548z" fill="#FF5000"/><path fill-rule="evenodd" clip-rule="evenodd" d="M177.144 272.486c0 1.199-.871 2.167-1.948 2.167-1.074 0-1.946-.968-1.946-2.167 0-1.196.872-2.167 1.946-2.167 1.077.001 1.948.971 1.948 2.167z" fill="#fff"/><path fill-rule="evenodd" clip-rule="evenodd" d="M149.076 230.034c3.349-.265 6.363 1.04 8.377 2.657 1.952 1.568 3.643 3.707 3.905 6.438.451 4.76-1.755 8.328-2.115 12.804-.801 9.927 3.8 15.931 9.024 21.268 3.949 4.032 7.928 7.942 7.564 15.392-.109 2.209-.711 4.323-1.383 6.088-2.791 7.338-8.041 12.379-10.896 19.799-.489 1.27-1.588 26.361-1.821 28.858-.078.833-.121 2.261-.162 3.5-.035 1.142.011 2.491-1.301 2.519-1.538.029-1.27-1.516-1.219-2.519.108-2.13.711-26.773 1.088-28.696 1.016-5.198 3.758-9.817 6.26-13.878 1.968-3.185 4.135-6.442 5.53-9.932 1.462-3.65 1.95-8.607.166-12.454-1.53-3.293-4.451-5.977-6.996-8.677-4.94-5.238-9.508-11.976-8.295-21.968.252-2.072.772-4.159 1.302-6.227.496-1.941 1.12-4.327.57-6.577-.602-2.446-2.702-4.36-5.043-5.457-2.198-1.029-5.344-1.117-7.725.14-.682.359-1.261.947-1.872 1.469-.697.599-1.712 1.135-2.357.49-.666-.663.189-1.387.73-1.889 1.747-1.618 3.575-2.903 6.669-3.148z" fill="#4D3D87"/><path fill-rule="evenodd" clip-rule="evenodd" d="M180.529 356.213c-.211-1.568-.312-3.787-1.225-4.866-1.657-1.962-4.65-1.026-7-2.143-1.323-.631-1.938-3.28-3.675-4.088-.963-.45-1.974-.307-2.974-.391a58.964 58.964 0 00-3.859-.183c0-.005 0-.008.002-.013h-.645a209.806 209.806 0 00-3.466-.008c-1.169-.005-2.33-.006-3.464.008h-.643a.027.027 0 01.002.013 58.797 58.797 0 00-3.859.183c-.999.084-2.014-.059-2.976.391-1.737.808-2.351 3.457-3.675 4.088-2.35 1.116-5.344.181-7.001 2.143-.913 1.079-1.013 3.298-1.223 4.866 7.967.203 37.714.203 45.681 0zm-44.483-80.852c-9.882-5.489-18.735-12.048-26.861-19.349-2.688-2.415-5.316-4.911-7.664-7.664 5.416-4.593 11.67-8.731 20.641-9.563 10.05-.929 16.478 4.743 18.59 12.217 1.185 4.201.833 9.486-.228 13.584a40.645 40.645 0 01-4.478 10.775z" fill="#FF5000"/><path opacity=".21" d="M140.754 251.002c-1.573-5.565-5.544-10.133-11.619-11.716 2.861 2.222 4.829 5.354 5.829 8.893 1.186 4.2.834 9.486-.227 13.582a40.69 40.69 0 01-4.232 10.345 135.491 135.491 0 005.542 3.255 40.645 40.645 0 004.478-10.775c1.061-4.098 1.414-9.383.229-13.584z" fill="#000"/><path fill-rule="evenodd" clip-rule="evenodd" d="M136.047 275.361c-.439.681-2.138-.548-2.959-.987-5.779-3.082-10.854-7.265-15.859-11.154-4.334-3.367-8.502-6.924-12.596-10.623a50.784 50.784 0 01-1.972-1.897c-.605-.609-1.593-1.791-1.139-2.352.307-.379 1.77.593 2.731 1.214 2.297 1.483 4.876 2.944 6.981 4.478 3.053 2.221 5.872 4.563 8.574 6.752 4.341 3.516 8.427 6.807 12.596 10.395.653.563 1.393 1.145 2.05 1.747.594.543 2.035 1.741 1.593 2.427z" fill="#8F7ECE"/><path d="M119.808 260.792c-1.787-1.447-3.631-2.964-5.555-4.468-1.189.593-2.323 1.223-3.162 1.917-.301.25-.565.508-.779.774a7.932 7.932 0 0012.394 9.901c.222-.281.423-.61.605-.978.471-.954.811-2.16 1.105-3.41-1.514-1.232-3.044-2.468-4.608-3.736z" fill="#EFAD1B"/><path fill-rule="evenodd" clip-rule="evenodd" d="M119.741 242.095c-.807-1.16 2.812-1.705 2.391-.381-.219.692-1.741.605-2.391.381zm-2.24-1.029c.291.07.847.37.662.944-.24.748-1.781 1.087-2.367 1.34-.712.303-1.914 1.199-2.609.671-.991-.752 1.006-1.794 1.707-2.122.374-.175.756-.31 1.08-.444.553-.227.968-.524 1.527-.389zm15.053 26.955c-.092-.863.532-2.185 1.225-3.446.295-.541.791-1.407 1.303-1.196.616.252.211 1.326.066 1.708-.464 1.214-1.268 2.586-1.909 3.19-.195.064-.531-.075-.685-.256zm.951-5.377c-1.37-.275-.273-3.129.756-2.595.446.232.432 1.81-.054 2.391-.175.205-.464.252-.702.204zm2.873-5.222c-.493-.047-.708-.734-.655-1.451.042-.577.385-1.661.996-1.405.274.113.52.638.49 1.235-.031.701-.191 1.68-.831 1.621z" fill="#fff"/><path fill-rule="evenodd" clip-rule="evenodd" d="M144.925 237.268c-.396-2.357-4.14-4.178-6.677-3.945-2.399.221-3.947 1.576-5.54 3.112-.971.935-2.032 1.953-2.96 2.959a3.842 3.842 0 01-.16.167c.953.184 1.593.798 1.914 1.561.876.738 1.684 1.585 2.459 2.346 1.369 1.336 2.472 2.895 3.721 4.338.209.243.369.498.486.756.596-.131 1.229-1.129 1.75-1.808a93.355 93.355 0 001.593-2.123c1.094-1.526 2.108-2.79 2.883-4.477.303-.664.719-1.764.531-2.886zm-11.458 3.112c-.403.411-.958 1.007-1.67.759-.274-.558.278-1.146.684-1.669.858-1.11 2.693-3.168 3.868-3.644.231-.092.464-.062.683.153-.038.65-.556 1.203-.986 1.668-.866.939-1.644 1.778-2.579 2.733zm.987 2.959c-.368-.719.416-1.429.909-2.048 1.3-1.629 3.457-3.681 4.934-4.856.213-.172.65-.084.834.151-.093.864-.761 1.517-1.29 2.125-1.067 1.229-2.277 2.19-3.492 3.339-.538.51-1.035 1.381-1.895 1.289zm5.311.076c-.319.344-.715.725-1.061 1.062-.365.356-.754.776-1.292.834-.463-.675.403-1.504.91-2.123.818-.993 1.553-1.941 2.582-2.656.293-.066.268.186.455.227-.268 1.054-.943 1.95-1.594 2.656z" fill="#FF5000"/><path opacity=".21" fill-rule="evenodd" clip-rule="evenodd" d="M144.925 237.268c-.396-2.357-4.14-4.178-6.677-3.945-2.399.221-3.947 1.576-5.54 3.112-.971.935-2.032 1.953-2.96 2.959a3.842 3.842 0 01-.16.167c.953.184 1.593.798 1.914 1.561.876.738 1.684 1.585 2.459 2.346 1.369 1.336 2.472 2.895 3.721 4.338.209.243.369.498.486.756.596-.131 1.229-1.129 1.75-1.808a93.355 93.355 0 001.593-2.123c1.094-1.526 2.108-2.79 2.883-4.477.303-.664.719-1.764.531-2.886zm-11.458 3.112c-.403.411-.958 1.007-1.67.759-.274-.558.278-1.146.684-1.669.858-1.11 2.693-3.168 3.868-3.644.231-.092.464-.062.683.153-.038.65-.556 1.203-.986 1.668-.866.939-1.644 1.778-2.579 2.733zm.987 2.959c-.368-.719.416-1.429.909-2.048 1.3-1.629 3.457-3.681 4.934-4.856.213-.172.65-.084.834.151-.093.864-.761 1.517-1.29 2.125-1.067 1.229-2.277 2.19-3.492 3.339-.538.51-1.035 1.381-1.895 1.289zm5.311.076c-.319.344-.715.725-1.061 1.062-.365.356-.754.776-1.292.834-.463-.675.403-1.504.91-2.123.818-.993 1.553-1.941 2.582-2.656.293-.066.268.186.455.227-.268 1.054-.943 1.95-1.594 2.656z" fill="#000"/><path fill-rule="evenodd" clip-rule="evenodd" d="M53.102 498.72c.256.01.54-.283.626.627.08.842-.383 1.956-.537 2.773-.278 1.48-.683 3.495-.716 3.668-.534 2.894-.905 5.313-1.253 7.517-.883 5.594-1.467 10.524-2.055 15.478-.943 7.917-1.264 15.988-1.612 24.695-.116 2.877-.006 6.073-.894 7.873-.428.867-1.437 1.991-2.327 2.237-.964.268-2.622-.003-3.49-.178-.816-.165-2.007-.451-2.863-.628-1.807-.368-4.56-.807-5.28-2.593-.433-1.075-.17-3.062.09-4.563.723-4.181 2.181-8.601 3.221-12.169 1.528-5.243 3.125-10.271 4.742-15.747 1.609-5.447 3.084-10.959 4.742-15.836.77-2.261 1.67-4.885 2.774-7.517.89-2.12 2.447-4.826 4.564-5.638.06-.023.203-.001.268.001z" fill="#8F7ECE"/><path fill-rule="evenodd" clip-rule="evenodd" d="M79.855 495.589c4.653-.223 10.21-.193 15.031 0 4.845.194 9.617.111 14.586.446 4.486.303 9.092.777 13.778 1.254 4.38.444 9.304 1.014 12.168 2.772 2.06 1.265 2.926 2.974 3.58 5.638 1.645 6.71 1.96 17.888 2.416 25.052.182 2.884.31 5.886.446 8.768.138 2.896.448 5.798.448 8.679-.002 5.815.816 12.515-1.165 16.732-.576 1.228-1.332 2.118-2.952 2.684-2.73.954-7.11.315-10.558 0-10.677-.973-22.489-1.093-33.642-.358-7.526.497-14.505.513-22.1 1.164-3.285.28-7.2.676-10.916.716-6.246.065-12.157-.357-13.779-4.833-.732-2.019-.996-4.956-1.163-7.784-.493-8.326-.104-18.163.27-26.037.482-10.239.691-19.863 3.22-28.095.519-1.689 1.194-3.475 2.683-4.383 1.4-.852 3.606-1.268 5.996-1.522 4.503-.477 9.516-.567 14.227-.715 2.433-.077 4.894-.059 7.426-.178z" fill="#fff"/><path fill-rule="evenodd" clip-rule="evenodd" d="M79.855 495.589c4.653-.223 10.21-.193 15.031 0 4.845.194 9.617.111 14.586.446 4.486.303 9.092.777 13.778 1.254 4.38.444 9.304 1.014 12.168 2.772 2.06 1.265 2.926 2.974 3.58 5.638 1.645 6.71 1.96 17.888 2.416 25.052.182 2.884.31 5.886.446 8.768.138 2.896.448 5.798.448 8.679-.002 5.815.816 12.515-1.165 16.732-.576 1.228-1.332 2.118-2.952 2.684-2.73.954-7.11.315-10.558 0-10.677-.973-22.489-1.093-33.642-.358-7.526.497-14.505.513-22.1 1.164-3.285.28-7.2.676-10.916.716-6.246.065-12.157-.357-13.779-4.833-.732-2.019-.996-4.956-1.163-7.784-.493-8.326-.104-18.163.27-26.037.482-10.239.691-19.863 3.22-28.095.519-1.689 1.194-3.475 2.683-4.383 1.4-.852 3.606-1.268 5.996-1.522 4.503-.477 9.516-.567 14.227-.715 2.433-.077 4.894-.059 7.426-.178z" fill="#8F7ECE"/><path opacity=".57" fill-rule="evenodd" clip-rule="evenodd" d="M79.855 495.589c4.653-.223 10.21-.193 15.031 0 4.845.194 9.617.111 14.586.446 4.486.303 9.092.777 13.778 1.254 4.38.444 9.304 1.014 12.168 2.772 2.06 1.265 2.926 2.974 3.58 5.638 1.645 6.71 1.96 17.888 2.416 25.052.182 2.884.31 5.886.446 8.768.138 2.896.448 5.798.448 8.679-.002 5.815.816 12.515-1.165 16.732-.576 1.228-1.332 2.118-2.952 2.684-2.73.954-7.11.315-10.558 0-10.677-.973-22.489-1.093-33.642-.358-7.526.497-14.505.513-22.1 1.164-3.285.28-7.2.676-10.916.716-6.246.065-12.157-.357-13.779-4.833-.732-2.019-.996-4.956-1.163-7.784-.493-8.326-.104-18.163.27-26.037.482-10.239.691-19.863 3.22-28.095.519-1.689 1.194-3.475 2.683-4.383 1.4-.852 3.606-1.268 5.996-1.522 4.503-.477 9.516-.567 14.227-.715 2.433-.077 4.894-.059 7.426-.178z" fill="#fff"/><g opacity=".78" fill-rule="evenodd" clip-rule="evenodd"><path opacity=".78" d="M121.908 507.13c.209 2.505.288 5.139.267 7.875-2.426.136-4.93.198-7.425.268.108-2.822-.283-5.623-.09-8.232 2.408.037 4.979-.088 7.248.089z" fill="#fff"/><path opacity=".78" d="M112.155 507.13c.01 2.764-.048 5.596.09 8.232-3.015.088-6.122.083-9.036.269.059-2.745.124-5.483.088-8.322 2.993-.022 5.807-.217 8.858-.179z" fill="#B1BC00"/><path opacity=".78" d="M124.234 507.398c5.103-.003 8.38 2.595 9.038 7.337-2.848.047-5.631.157-8.5.18-.075-2.609-.192-5.178-.538-7.517zm-23.353 0c-.09 2.774-.138 5.588-.268 8.322-3.69.097-7.282.292-10.916.446.02-2.755.218-5.697 0-8.41 3.68-.165 7.45-.243 11.184-.358zm-13.599.448c.134 2.611-.2 5.524-.09 8.412-2.923.208-5.977.285-8.946.447v-8.679c2.95-.061 6.294-.207 9.036-.18zm-22.637.268c-.153 2.979-.088 6.176-.267 9.128-3.48-.018-6.904.015-10.202.177.41-2.712.781-5.482 2.238-7.247 1.673-2.028 4.623-1.948 8.231-2.058zm11.183 0c-.025 2.929-.242 5.663-.18 8.679-2.859.153-5.758.266-8.68.358.163-3.028-.037-6.151.092-9.037 3.236.03 5.48.005 8.768 0zm58.963 16.286c-3.384.015-6.857-.058-10.11.088-.066-2.421.144-4.569.09-6.979 2.765-.318 6.041.035 8.41-.178.6-.054.605-.165.805.536.505 1.772.524 4.816.805 6.533zm-12.616-6.8c-.057 2.269.116 4.767-.089 6.888-2.374.131-4.882.13-7.336.181.058-2.268-.119-4.771.089-6.892 2.547.044 4.821-.189 7.336-.177zm-10.11.266c.328.284.179 1.009.179 1.611v5.191c-3.204-.044-6.164.158-9.394.088.09-2.206.176-4.416.268-6.621 2.933-.14 6.036-.106 8.947-.269zm-11.542.359c.053 2.319-.211 4.323-.179 6.621-3.602.157-7.321.195-10.827.449-.048-2.255.158-4.257.09-6.533 3.53-.288 7.316-.32 10.916-.537z" fill="#fff"/><path opacity=".78" d="M87.101 518.851c-.093 2.144-.023 4.451-.179 6.532-2.879.164-5.79.293-8.678.447v-6.62c3.033-.039 5.848-.296 8.857-.359z" fill="#FF5000"/><path opacity=".78" d="M75.65 519.389v6.53c-3.056.105-6.12.203-9.037.448.05-2.277.13-4.524.269-6.71 3.044.032 5.762-.262 8.768-.268zm-21.743.356c3.489-.046 6.979.246 10.38 0a188.048 188.048 0 01-.27 6.712c-3.461.294-7.196.317-10.736.536.362-2.263.062-5.188.626-7.248zm81.063 7.161c.371 2.341.385 5.043.536 7.604-3.64.206-7.406.287-11.003.537-.052-2.735.157-5.211.089-7.963 3.355-.164 6.85-.19 10.378-.178z" fill="#fff"/><path opacity=".78" d="M122.085 527.084c-.037 2.675-.136 5.291-.089 8.052-2.407.159-4.847.283-7.338.358-.056-2.86.076-5.533.09-8.322 2.543.068 4.836-.114 7.337-.088z" fill="#FF5000"/><path opacity=".78" d="M112.155 527.173c-.058 2.805.119 5.845-.089 8.501-3.28.029-6.351.268-9.574.356.032-2.951.141-5.824.27-8.677 3.026-.166 6.39.009 9.393-.18zm-11.991.268c-.008 2.945-.242 5.663-.18 8.68-3.37.236-6.99.226-10.377.446-.209-2.744-.031-5.873-.09-8.767 3.538-.13 6.99-.348 10.647-.359zm-13.329.447c.163 2.819.077 5.889.18 8.77-2.944.068-5.79.236-8.681.358-.206-2.716-.03-5.816-.088-8.68 2.911-.1 5.802-.221 8.59-.448zm-11.455.538c.483.021.258.685.27.895.114 2.427.014 5.314.089 7.784-3.132.119-6.227.275-9.485.269-.072-2.936.16-5.567.18-8.411 2.784-.378 6.03-.292 8.947-.537zm-11.453.626c-.15 2.741-.176 5.608-.267 8.41-3.523.146-7.33.008-10.738.268-.017-2.851.066-5.601.18-8.32a257.51 257.51 0 0010.825-.358zm71.67 8.052c.217 3.034.18 6.322.178 9.572h-11.093c-.09-3.011-.224-5.978-.179-9.125 3.719-.127 7.299-.395 11.094-.447zm-13.688.626c.173 2.898.022 6.12.267 8.947h-7.246c-.112-2.841-.226-5.68-.27-8.588 2.364-.171 4.796-.276 7.249-.359zm-9.755.448c-.018 2.941.098 5.747.269 8.498-3.331-.019-6.464.157-9.842.092-.101-2.587-.182-5.662 0-8.233 3.267-.041 6.351-.27 9.573-.357z" fill="#fff"/><path opacity=".78" d="M99.897 538.715c-.058 2.773.153 5.274.088 8.053-3.35-.051-6.668-.131-10.109-.092-.025-2.6-.171-5.077-.269-7.603 3.454-.097 6.829-.27 10.29-.358z" fill="#B1BC00"/><path opacity=".78" d="M87.101 539.162c.038 2.557.186 5.006.269 7.515-2.852.161-5.898.128-8.68.36-.048-2.546-.305-4.885-.269-7.517 2.94-.073 5.793-.232 8.68-.358zm-11.363.448c.32 2.333.223 5.084.448 7.514-3.271.16-6.65.212-9.933.359a181.81 181.81 0 01-.088-7.516c3.17-.138 6.5-.122 9.573-.357zm-12.078.447v7.515c-3.734.084-7.367.267-10.915.537-.208-2.564-.03-5.514.178-7.963 3.409-.199 7.18-.036 10.737-.089zm36.416 9.218c.018 3.053.112 6.031.269 8.945-3.218.123-6.547.134-9.752.27a157.26 157.26 0 01-.536-9.129.626.626 0 01.267-.177c3.126.153 6.494.068 9.752.091zm22.19-.001c.074 2.729.047 5.559.177 8.231-2.274.022-4.533.06-6.709.178-.225-2.725-.482-5.423-.626-8.231-.004-.152.065-.232.178-.269 2.299.059 4.83-.118 6.98.091zm-34.806 0c.161 3.12.377 6.184.536 9.304-2.884.068-5.664.242-8.41.447a217.545 217.545 0 01-.715-9.484c2.846-.105 5.617-.288 8.589-.267zm25.053 0c.257 2.815.387 5.756.716 8.5-3.546.032-6.819.338-10.379.358-.08-2.873-.265-6.118-.179-8.858h9.842zm12.347 0h10.827c-.083 2.53-.208 4.497-1.164 5.905-1.684 2.47-5.547 2.066-9.573 2.236.082-2.767-.238-5.61-.09-8.141zm-48.764.356c.484.132.242.775.27 1.075.238 2.618.432 5.69.624 8.411-3.322.314-6.78.494-10.288.626-.306-3.095-.325-6.479-.448-9.752 3.31-.092 6.665-.139 9.842-.36zm-12.346.448c.001 3.368.209 6.532.357 9.752-3.186-.336-6.04-.557-7.962-2.057-2.023-1.579-2.9-4.113-3.311-7.337 3.726-.03 7.308-.207 10.916-.358z" fill="#fff"/></g><path fill-rule="evenodd" clip-rule="evenodd" d="M56.215 511.464c-2.365.008.32-5.497 1.747-3.657.745.958-.821 2.975-1.747 3.657zm79.32 6.638c-.776-.93-1.074-2.948-1.248-4.949-.076-.857-.172-2.245.586-2.398.91-.183 1.272 1.376 1.398 1.932.404 1.769.532 3.984.255 5.182-.176.225-.675.326-.991.233zm-3.062-6.979c-1.802.742-2.741-3.42-1.13-3.6.698-.075 1.903 1.768 1.789 2.818-.045.375-.344.651-.659.782z" fill="#8F7ECE"/><path fill-rule="evenodd" clip-rule="evenodd" d="M57.806 502.862c-.168-1.448.624-2.352 1.17-3.244.637-1.036 1.46-2.425 1.17-4.414-.07-.504-.316-1.178-.719-1.263-1.01-.213-1.338 1.212-1.532 2.253-.197 1.074-.102 2.734-.99 2.704-.647-.023-.817-1.185-.811-2.163.012-2.476 1.43-5.649 4.145-4.777 1.597.516 2.666 3.503 2.522 6.128a8.275 8.275 0 01-1.08 3.694c-.798 1.376-2.65 2.899-3.875 1.082zm14.649-1.116c-.421-1.14.352-2.291.81-3.334.687-1.563 1.716-3.728.632-5.587-.828.13-1.053.86-1.352 1.532-.272.61-.337 1.587-1.081 1.713-.564-.404.032-1.305.27-2.073.4-1.289 1.237-3.587 3.153-2.705 1.235.571 1.683 3.22 1.532 5.318-.09 1.248-.53 2.832-1.17 3.785-.615.911-1.652 1.833-2.794 1.351zm-5.858-8.831c-.73.19-.919.931-1.17 1.622-.25.684-.265 1.586-.811 1.982-.75-.129-.498-1.634-.362-2.342.289-1.494 1.78-4.044 3.785-2.613 1.123.801 1.382 3.128 1.263 4.775-.123 1.7-.76 3.721-1.623 4.776-.283.347-.896.91-1.262.991-.828.185-1.689-.224-1.71-.72-.042-.895.972-1.897 1.352-2.704.579-1.235 1.096-2.635 1.08-4.145-.005-.449-.019-1.185-.541-1.622zm13.517 8.129c-.166-1.446.624-2.352 1.172-3.243.637-1.038 1.458-2.425 1.171-4.414-.07-.505-.316-1.178-.72-1.263-1.01-.213-1.34 1.212-1.532 2.253-.197 1.073-.102 2.733-.991 2.704-.648-.023-.816-1.185-.812-2.163.014-2.476 1.432-5.65 4.147-4.777 1.597.515 2.665 3.503 2.522 6.128a8.294 8.294 0 01-1.08 3.694c-.8 1.376-2.652 2.899-3.877 1.081zm38.781.552c-.166-1.448.623-2.351 1.172-3.244.636-1.036 1.456-2.425 1.17-4.415-.071-.502-.317-1.175-.719-1.261-1.011-.213-1.34 1.211-1.532 2.254-.199 1.071-.102 2.733-.993 2.702-.645-.022-.816-1.184-.809-2.162.012-2.476 1.43-5.65 4.144-4.777 1.598.515 2.667 3.503 2.523 6.126a8.262 8.262 0 01-1.081 3.696c-.797 1.374-2.65 2.899-3.875 1.081zm-15.984-.43c-.167-1.45.624-2.353 1.171-3.244.636-1.037 1.457-2.425 1.171-4.414-.071-.505-.317-1.179-.72-1.263-1.011-.213-1.341 1.212-1.533 2.253-.197 1.073-.1 2.732-.989 2.703-.648-.022-.818-1.184-.812-2.162.013-2.477 1.431-5.652 4.145-4.777 1.598.516 2.665 3.503 2.523 6.129a8.295 8.295 0 01-1.082 3.693c-.798 1.376-2.648 2.899-3.874 1.082zm-7.93.148c-.418-1.14.354-2.29.813-3.333.686-1.563 1.715-3.729.632-5.588-.83.131-1.052.861-1.353 1.532-.272.611-.337 1.587-1.082 1.713-.564-.404.032-1.306.27-2.072.402-1.29 1.236-3.586 3.155-2.703 1.233.568 1.682 3.218 1.531 5.316-.09 1.248-.528 2.832-1.171 3.784-.615.911-1.652 1.834-2.795 1.351zm-5.857-8.829c-.73.189-.92.93-1.17 1.622-.249.686-.265 1.586-.811 1.981-.75-.128-.497-1.632-.36-2.342.289-1.493 1.778-4.044 3.785-2.612 1.123.801 1.38 3.127 1.26 4.775-.12 1.7-.757 3.721-1.622 4.775-.283.347-.895.911-1.26.993-.83.184-1.69-.225-1.713-.722-.041-.895.971-1.896 1.351-2.704.58-1.232 1.097-2.635 1.081-4.144-.004-.45-.018-1.184-.54-1.622zm37.541 11.418c-.42-1.139.352-2.29.811-3.333.686-1.562 1.714-3.729.63-5.586-.826.129-1.053.858-1.352 1.531-.272.609-.335 1.585-1.081 1.712-.564-.404.033-1.307.27-2.073.4-1.29 1.237-3.586 3.155-2.703 1.232.568 1.68 3.218 1.531 5.315-.09 1.248-.529 2.834-1.172 3.785-.614.911-1.652 1.834-2.792 1.352zm-14.575-11.767c-.731.189-.921.93-1.172 1.623-.248.684-.263 1.585-.811 1.981-.748-.128-.497-1.633-.361-2.342.289-1.493 1.78-4.045 3.786-2.613 1.123.801 1.379 3.128 1.261 4.776-.122 1.7-.756 3.72-1.622 4.775-.282.346-.896.91-1.262.992-.829.183-1.689-.226-1.71-.722-.041-.893.97-1.895 1.352-2.704.579-1.233 1.095-2.634 1.08-4.144-.006-.449-.02-1.184-.541-1.622z" fill="#4D3D87"/></svg>