<svg width="280" height="720" fill="none" xmlns="http://www.w3.org/2000/svg"><path d="M73.423 582.729l11.27 5.327 109.53 17.206 15.706-34.89c-12.862 5.157-46.456 7.083-75.437 8.44-31.403 1.471-64.435 1.175-64.435 1.175l3.366 2.742z" fill="#B57D92"/><path d="M190.744 508.622l-.666 5.044-9.006 68.216-8.188 62.045-84.115.025-1.764-50.904-.012-.411L83.676 497l107.068 11.622z" fill="#FFD7BD"/><path d="M190.092 513.539l-.013.127-9.006 68.216-94.067 11.165-1.338.159 1.326-.569 19.159-8.236-1.287-.683-3.374-61.836 88.6-8.343z" fill="#ECB891"/><path d="M106.154 524.896l4.554 131.456 84.12-.025 14.375-142.14-103.049 10.709z" fill="#FFEBDD"/><path d="M193.831 529.012l-75.647 6.707a1.58 1.58 0 10.28 3.152l75.648-6.706a1.599 1.599 0 001.076-.561 1.575 1.575 0 00.363-1.156 1.576 1.576 0 00-.562-1.073 1.579 1.579 0 00-1.158-.363zm-1.278 22.946l-75.724 5.79a1.586 1.586 0 00-1.463 1.638 1.584 1.584 0 001.706 1.518l75.723-5.79a1.59 1.59 0 001.386-1.086 1.575 1.575 0 00-.093-1.208 1.577 1.577 0 00-1.535-.862zm-36.274-6.047l36.498-3.235a1.594 1.594 0 001.078-.56 1.57 1.57 0 00.364-1.157 1.58 1.58 0 00-1.723-1.436l-36.498 3.236a1.58 1.58 0 00-1.052.534 1.578 1.578 0 00.095 2.185 1.594 1.594 0 001.238.433zm-39.293 3.477c.047 0 .095-.002.142-.006l32.379-2.871a1.579 1.579 0 001.373-1.102 1.575 1.575 0 00-.107-1.207 1.598 1.598 0 00-1.546-.843l-32.379 2.87a1.58 1.58 0 00.138 3.159zm75.52 13.549l-50.823 4.144a1.587 1.587 0 00-1.455 1.641c.016.408.19.794.485 1.077a1.59 1.59 0 001.228.437l50.823-4.144a1.583 1.583 0 10-.258-3.155zm-57.295 5.08l-18.363 1.628a1.585 1.585 0 00-1.444 1.645 1.582 1.582 0 001.724 1.508l18.363-1.629a1.581 1.581 0 00-.28-3.152z" fill="#F4C6B1"/><path d="M209.927 570.372l-3.989 40.822-5.297 54.178-123.79.367-.555-6.975-6.241-78.78c80.987 18.644 139.872-9.612 139.872-9.612z" fill="#FFC652"/><path d="M208.471 585.27l-7.83 80.102-123.79.367-2.697-33.913s107.261 9.238 134.317-46.556z" fill="#F7A845"/><path d="M88.433 611.764a.959.959 0 01-.858-.534.95.95 0 01.103-1.003 48.308 48.308 0 004.034-6.084 7.255 7.255 0 01-5.966-2.346 6.361 6.361 0 01-.57-7.487 7.948 7.948 0 012.61-2.335 12.083 12.083 0 018.124-1.701 9.583 9.583 0 016.88 4.771c2.231 4.23.374 9.311-2.614 12.145-2.732 2.59-6.656 4.128-11.659 4.571a1.223 1.223 0 01-.084.003zm8.328-18.115a.956.956 0 01.915 1.224 49.972 49.972 0 01-7.144 14.71 15.643 15.643 0 008.329-3.775c2.83-2.685 3.794-6.93 2.24-9.874a7.638 7.638 0 00-5.5-3.779 10.174 10.174 0 00-6.832 1.452 6.16 6.16 0 00-2.007 1.763 4.46 4.46 0 00.429 5.18 5.4 5.4 0 005.276 1.552.898.898 0 01.334-.024 48.205 48.205 0 003.045-7.746.952.952 0 01.915-.683zm9.135 17.536a3.944 3.944 0 01-1.602-.331 3.07 3.07 0 01-1.436-1.213v-.002a4.97 4.97 0 01.222-4.527 4.991 4.991 0 013.805-2.476h.008a3.057 3.057 0 012.864 1.774 5.33 5.33 0 01-.564 5.202 4.193 4.193 0 01-3.297 1.573zm-1.394-2.513c.139.199.335.352.563.439a2.307 2.307 0 002.616-.663 3.435 3.435 0 00.361-3.199 1.172 1.172 0 00-1.154-.707h-.003a2.739 2.739 0 00-2.155 1.531 2.693 2.693 0 00-.228 2.599zm75.863 3.467a.956.956 0 01-.95-.866 17.292 17.292 0 01-.057-1.703 4.949 4.949 0 01-2.262 2.012 3.21 3.21 0 01-2.672-.214 3.246 3.246 0 01-.916-.714 3.11 3.11 0 01-2.574.709 2.5 2.5 0 01-1.809-1.642 4.404 4.404 0 01-4.024 1.343 3.533 3.533 0 01-1.796-1.055 3.019 3.019 0 01-2.809 1.321 3.12 3.12 0 01-2.539-1.776 4.327 4.327 0 01-.337-2.574 5.748 5.748 0 01-3.293.233c-.008.106-.016.212-.021.319l.107 2.31a.949.949 0 01-.232.669.961.961 0 01-.631.325.96.96 0 01-.681-.2.96.96 0 01-.354-.614c-.03-.204-.055-.409-.073-.613a3.68 3.68 0 01-1.277.905 2.683 2.683 0 01-2.707-.204 2.994 2.994 0 01-.837-.951 3.03 3.03 0 01-2.07 1.098 2.716 2.716 0 01-.896-.115 2.872 2.872 0 01-2.066-1.728 5.536 5.536 0 01-1.77 1.47 2.643 2.643 0 01-2.873-.101 2.71 2.71 0 01-.512-.486 4.445 4.445 0 01-3.719 1.924 2.256 2.256 0 01-1.902-1.106 2.007 2.007 0 01-.132-.314 4.407 4.407 0 01-3.165 1.068 3.134 3.134 0 01-2.567-1.499 3.258 3.258 0 01-.298-.682l-.092.164a5.461 5.461 0 01-1.372 1.78 2.494 2.494 0 01-2.852.237 2.853 2.853 0 01-1.133-2.561c-.069.09-.14.178-.211.264-.866 1.071-1.912 1.441-2.796.994a2.12 2.12 0 01-1.045-1.614 6.147 6.147 0 01-3.411 2.866 2.39 2.39 0 01-2.433-.461 1.75 1.75 0 01-.353-1.865 1.473 1.473 0 011.323-.965.958.958 0 01.868.493.952.952 0 01-.048.995c.035-.007.074-.017.113-.028a4.74 4.74 0 002.526-2.4c.297-.54.549-1.106.8-1.671.325-.773.7-1.525 1.122-2.25a.955.955 0 011.731.768 10.366 10.366 0 00-.38 4.012c.01.143.039.284.086.419.004-.082.194-.221.412-.49a26.962 26.962 0 003.299-5.188.952.952 0 01.991-.53.949.949 0 01.809.78 3.416 3.416 0 01-.562 2.229 7.593 7.593 0 00-.931 3.619c.004.603.138.904.262.985a.691.691 0 00.65-.149c.363-.34.657-.746.867-1.196l1.371-2.462a5.372 5.372 0 012.82-2.877c.01-.004.019-.01.028-.016a4.54 4.54 0 014.21-.103.839.839 0 01.399-.068.956.956 0 01.914.959l-.001.23a.96.96 0 01-.018.867 14.22 14.22 0 01-.128 1.529c-.03.964-.035 1.931-.014 2.891-.002.119.008.237.031.354a.756.756 0 00.341.092c1.104.088 2.116-.997 2.643-2.09.064-.134.125-.271.184-.409.005-.167.02-.334.045-.499a9.156 9.156 0 011.583-3.547.956.956 0 011.733.278.951.951 0 01-.103.715 12.253 12.253 0 00-.937 2.263c-.13.379-.259.759-.403 1.132a1.5 1.5 0 00.476 1.075c.077.056.319.231.899-.06 1.362-.68 2.313-2.749 3.076-4.412.167-.362.325-.707.479-1.021a.96.96 0 01.918-.533.957.957 0 01.844.643.945.945 0 01-.047.729 8.97 8.97 0 00-.568 2.038c-.081.405-.16.799-.256 1.162-.271 1.028.055 1.327.751 1.52.099.026.2.042.302.049.315-.013.899-.468 1.594-1.665.002-.062.007-.124.012-.185a10.374 10.374 0 011.815-4.406.952.952 0 011.74.727 19.358 19.358 0 01-1.598 4.24l-.054.104a2.02 2.02 0 00.604 1.397c.085.06.312.22.838-.003.992-.425 1.376-1.686 1.82-3.149a8.272 8.272 0 011.811-3.67.954.954 0 011.517 1.117 11.388 11.388 0 00-.928 2.47 3.731 3.731 0 002.869-.409 3.72 3.72 0 001.702-2.341.96.96 0 01.774-.724.97.97 0 01.712.166.942.942 0 01.386.619.966.966 0 01-.012.371l-.006.025a12.144 12.144 0 01-.798 2.128c-.588 1.311-1.097 2.444-.568 3.593a1.216 1.216 0 00.962.673c1.07.051 1.56-1.25 1.754-2.08a2.72 2.72 0 01.083-.389.954.954 0 011.856.436 7.979 7.979 0 01-.055.277 1.31 1.31 0 00.197.751 1.672 1.672 0 001.029.778 2.593 2.593 0 002.443-1.053c.132-.19.238-.398.314-.617a3.948 3.948 0 01-.955-.126 2.786 2.786 0 01-1.78-1.4 2.515 2.515 0 01-.238-1.358 3.188 3.188 0 011.89-2.75 2.272 2.272 0 012.886.538c.1.132.187.275.258.425a.96.96 0 01.829.652v.001a3.127 3.127 0 01-.278 2.506 9.698 9.698 0 00-.101 2.535c.046.317.178.861.557.944.389.099 1.064-.227 1.548-.975a.954.954 0 011.728.285 1.384 1.384 0 00.683.863 1.27 1.27 0 001.119.124 4.422 4.422 0 001.932-2.327c-.178.038-.359.06-.541.067a2.924 2.924 0 01-2.629-1.556 3.024 3.024 0 01-.029-3.146 3.25 3.25 0 012.694-1.366c.73.004 1.44.241 2.026.676a.943.943 0 011.14-.152.945.945 0 01.479.944 24.079 24.079 0 00-.235 4.276c.03.592.022 1.186.015 1.781-.023.701-.009 1.404.043 2.104a.952.952 0 01-.952 1.039zm-51.44-7.834a3.679 3.679 0 00-1.546 2.949 2.13 2.13 0 00.219 1.153 1.242 1.242 0 001.041.56 2.457 2.457 0 002.075-.902c.481-.668.78-1.448.869-2.265.015-.453.036-.906.062-1.358a3.616 3.616 0 00-2.688-.149l-.032.012zm48.884-.928a1.206 1.206 0 00-1.043.482 1.162 1.162 0 00.072 1.173 1.122 1.122 0 00.898.604c.609-.025 1.086-.55 1.411-1.258a1.6 1.6 0 00-.18-.446 1.332 1.332 0 00-1.139-.555h-.019zm-9.406.163a1.56 1.56 0 00-.489.126 1.316 1.316 0 00-.707 1.127.685.685 0 00.036.353.949.949 0 00.595.429c.299.085.617.071.907-.041a3.152 3.152 0 00-.183-1.938.2.2 0 00-.073-.046c-.028-.01-.057-.013-.086-.01zm-55.852 40.358a.95.95 0 01-.855-.528 7.614 7.614 0 01-.206-5.495l.212-.768c.564-2.04 1.124-4.063 1.672-6.12.123-.465.26-.978.43-1.506.17-1.467.317-2.932.441-4.397a.953.953 0 011.03-.867.953.953 0 01.872 1.026c-.011.14-.024.279-.036.419a3.46 3.46 0 012.961-.654 2.42 2.42 0 011.712 1.531 5.434 5.434 0 01-.19 3.778 5.31 5.31 0 00-.372 1.969l-.634.903.713-.634c.237.267.377.237.447.225a2.198 2.198 0 001.197-1.309 13.193 13.193 0 012.703-4.72 4.098 4.098 0 011.415-1.299 3.631 3.631 0 013.131-.091c.518.222.967.578 1.299 1.032.075-.351.162-.7.268-1.044a.963.963 0 01.978-.668.953.953 0 01.876.797 5.616 5.616 0 01-.62 3.268 10.737 10.737 0 01-.655 2.258 2.04 2.04 0 00.782 1.727 1.294 1.294 0 001.346.057 4.293 4.293 0 001.904-2.502l.155-.37c.044-.11.09-.222.139-.337a5.166 5.166 0 012.026-3.805 2.46 2.46 0 012.381-.343 2.798 2.798 0 011.322 1.334.95.95 0 01-.786 1.395.956.956 0 01-.6-.167c-.517-.356-.769-.279-.849-.254-.615.182-1.198 1.339-1.603 2.272a2.693 2.693 0 00.428 1.481 2.733 2.733 0 002.396 1.118 1.993 1.993 0 001.733-.995 5.952 5.952 0 00-.077-4.912 13.333 13.333 0 00-.961-1.614 9.52 9.52 0 01-1.545-3.16 3.394 3.394 0 01.089-1.98 3.3 3.3 0 012.538-1.942 8.213 8.213 0 012.41-.011c1.195.119 2.397.169 3.598.148a4.446 4.446 0 001.48-.201 1.07 1.07 0 00.666-.614.95.95 0 011.163-.68.953.953 0 01.684 1.158 2.907 2.907 0 01-1.819 1.911 6.108 6.108 0 01-2.14.331 36.16 36.16 0 01-3.58-.134 7.397 7.397 0 00-2.096-.037 1.482 1.482 0 00-1.124.758 1.61 1.61 0 00-.005.884 7.97 7.97 0 001.278 2.523c.406.589.77 1.206 1.09 1.846a7.714 7.714 0 01-.01 6.703 3.887 3.887 0 01-3.27 1.921 4.645 4.645 0 01-2.294-.446 4.62 4.62 0 01-1.783-1.506l-.02-.031a4.894 4.894 0 01-2.106 1.983 3.213 3.213 0 01-3.226-.202 3.486 3.486 0 01-1.013-1.057 3.587 3.587 0 01-1.804 1.29 3.218 3.218 0 01-2.706-.553 3.825 3.825 0 01-1.606-2.358 24.31 24.31 0 00-.185.49 3.95 3.95 0 01-2.634 2.529 2.332 2.332 0 01-2.232-.829 2.176 2.176 0 01-.416-.687 2.676 2.676 0 01-.141-.714 6.98 6.98 0 01.457-2.682 3.7 3.7 0 00.215-2.551.518.518 0 00-.404-.338 1.551 1.551 0 00-1.272.291 5.976 5.976 0 00-1.637 2.764 142.267 142.267 0 01-2.192 13.239.957.957 0 01-.933.754v-.001zm13.564-15.918a3.821 3.821 0 00-.476 1.923c.018 1.307.308 2.078.945 2.497.667.44 1.022.342 1.135.31.758-.213 1.423-1.517 1.734-2.172.083-.7.273-1.384.564-2.026a.968.968 0 01-.922-.658.896.896 0 00-.676-.569 2.425 2.425 0 00-2.304.695z" fill="#fff"/><path d="M149.196 634.56c-.334 0-.665-.046-.986-.136a4.089 4.089 0 01-1.455-.788 4.077 4.077 0 01-1.019-1.302 3.547 3.547 0 01-.334-1.058 5.11 5.11 0 011.428-4 4.036 4.036 0 013.589-1.484 2.79 2.79 0 012.338 2.854c.113.829.126 1.668.037 2.5a4.136 4.136 0 01-1.314 2.586 3.502 3.502 0 01-2.284.828zm.671-6.912a2.373 2.373 0 00-1.597.88c-.325.321-.58.706-.749 1.13a3.314 3.314 0 00-.231 1.335l.001.004a1.6 1.6 0 00.154.487 2.118 2.118 0 001.283 1.106 1.685 1.685 0 001.506-.3c.384-.377.622-.877.671-1.412a8.919 8.919 0 00-.047-2.046c-.099-.991-.278-1.074-.782-1.165a1.129 1.129 0 00-.209-.019zm14.974 6.629a3.116 3.116 0 01-1.097-.197c-2.04-.763-1.39-2.927-1.077-3.968l.134-.466c.054-.209.121-.412.188-.612.172-.512.233-.742.143-.953-.13-.311-.207-.369-.222-.378a.376.376 0 00-.334-.049 2.693 2.693 0 00-1.239 1.296 32.167 32.167 0 00-1.239 3.792.954.954 0 01-1.869-.369c.585-4.46-.16-4.956-.167-4.96a.973.973 0 00-.687.567 15.085 15.085 0 00-1.133 3.54c-.134.57-.266 1.128-.415 1.65a.966.966 0 01-1.086.678.957.957 0 01-.785-1.008c.015-.194.354-4.78.841-7.115a.956.956 0 011.89.199c.206-.141.433-.248.672-.318a2.055 2.055 0 011.956.367c.39.36.666.824.796 1.338a3.873 3.873 0 011.936-1.487 2.273 2.273 0 011.857.252c.457.306.803.749.988 1.266a3.034 3.034 0 01-.093 2.296c-.052.157-.106.315-.148.478a13.35 13.35 0 01-.155.545c-.383 1.272-.332 1.542-.083 1.635a1.258 1.258 0 00.978-.052c.788-.391.928-1.251 1.092-2.622a6.759 6.759 0 01.79-2.881c.012-.018.023-.037.036-.055a3.736 3.736 0 012.341-2.095 3.98 3.98 0 013.112.573.945.945 0 01.982-.71.951.951 0 01.895 1.009c-.022.355-.047.725-.082 1.105.025.034.049.069.072.105a.95.95 0 01-.241 1.297c-.053.338-.119.681-.199 1.022a6.528 6.528 0 00.07 1.953l.057.287c.03.274.109.541.233.787a1.783 1.783 0 001.561-.207 2.782 2.782 0 001.124-1.468.958.958 0 011.762-.103c.11.228.126.49.043.728a4.659 4.659 0 01-1.937 2.471 3.649 3.649 0 01-3.523.22 2.164 2.164 0 01-.939-1.24 3.676 3.676 0 01-1.423 1.093 3.22 3.22 0 01-2.784-.224 2.528 2.528 0 01-.79-.641 3.268 3.268 0 01-2.802 1.629zm4.142-6.656c-.05.123-.091.249-.123.377-.338 1.347-.21 3.256.455 3.602.17.117.365.191.57.218.204.026.412.002.606-.068a3.867 3.867 0 001.634-2.449c.065-.206.124-.415.176-.626.047-.464.116-.921.185-1.374a6.752 6.752 0 00-.567-.41 2.292 2.292 0 00-.967-.15 2.461 2.461 0 00-1.969.88z" fill="#fff"/><path d="M33.832 440.379l2.394-30.016 207.529-3.061 2.394 3.061v33.077H36.226l-2.394-3.061zm195.677-12.232a5.158 5.158 0 004.759-3.174 5.127 5.127 0 00-1.116-5.602 5.156 5.156 0 00-7.925.779 5.132 5.132 0 00.64 6.491 5.157 5.157 0 003.642 1.506z" fill="#2435A1"/><path d="M33.832 407.302h209.923v33.077H33.832v-33.077zm193.674 22.844a5.146 5.146 0 004.759-3.173 5.13 5.13 0 00-1.117-5.603 5.155 5.155 0 00-7.925.779 5.135 5.135 0 00.641 6.491 5.15 5.15 0 003.642 1.506z" fill="#49B3F7"/><path d="M232.514 426.165a5.125 5.125 0 01-1.807 2.864 5.145 5.145 0 01-6.402 0 5.123 5.123 0 01-1.806-2.864H33.832v14.214h209.923v-14.214h-11.241z" fill="#378FDD"/><path d="M207.082 407.302h-3.469v16.538h3.469v-16.538zm-30.039 0h-3.469v16.538h3.469v-16.538zm-30.039 0h-3.469v16.538h3.469v-16.538zm-30.04 0h-3.468v16.538h3.468v-16.538zm-30.039 0h-3.468v16.538h3.468v-16.538zm-30.039 0h-3.468v16.538h3.468v-16.538zm135.27 0h-3.468v11.07h3.468v-11.07zm-30.039 0h-3.469v11.07h3.469v-11.07zm-30.039 0h-3.469v11.07h3.469v-11.07zm-30.039 0H98.57v11.07h3.469v-11.07zm-30.039 0h-3.47v11.07H72v-11.07z" fill="#fff"/><path d="M215.391 53.284h-26.703v132.5h26.703v-132.5z" fill="#E94B36"/><path d="M208.038 53.284H196.4v132.5h11.638v-132.5z" fill="#FF6551"/><path d="M215.392 53.284h-7.353v132.5h7.353v-132.5z" fill="#E94B36"/><path d="M215.391 185.783h-26.703l11.394 28.484a2.538 2.538 0 003.82 1.132c.419-.295.739-.71.918-1.189l10.571-28.427z" fill="#FFBF94"/><path d="M208.959 203.08h-13.352l4.476 11.188a2.532 2.532 0 002.388 1.593 2.543 2.543 0 002.349-1.651l4.139-11.13z" fill="#5B5B5C"/><path d="M215.391 53.284h-26.703v6.232h26.703v-6.232z" fill="#2435A1"/><path d="M194.525 42h15.028c1.549 0 3.033.614 4.128 1.706a5.82 5.82 0 011.71 4.12v5.458h-26.703v-5.458c0-1.545.615-3.027 1.709-4.12A5.844 5.844 0 01194.525 42z" fill="#F7A845"/></svg>