<svg width="511" height="900" fill="none" xmlns="http://www.w3.org/2000/svg"><path d="M261.822 780.6a7128.445 7128.445 0 00-172.897 2.64 10.906 10.906 0 01-7.868-3.012 10.89 10.89 0 01-3.37-7.718c-1.855-85.518-7.382-170.778-17.495-255.726-.74-6.058 4.064-11.555 10.77-12.234a2098.444 2098.444 0 01191.231-9.56c6.75.016 12.168 5.141 12.105 11.396a30275.483 30275.483 0 00-1.447 262.902 11.165 11.165 0 01-3.171 7.937 11.189 11.189 0 01-7.858 3.375z" fill="#0E2663"/><path d="M256.586 776.119a6888.803 6888.803 0 00-172.976 2.893 10.901 10.901 0 01-10.344-6.499 10.888 10.888 0 01-.92-4.193 2554.18 2554.18 0 00-18.424-255.261c-.773-6.045 4.015-11.556 10.736-12.264a2087.215 2087.215 0 01191.727-10.291c6.769-.006 12.221 5.103 12.179 11.359-.572 87.643-.888 175.287-.948 262.932a11.176 11.176 0 01-3.171 7.942 11.193 11.193 0 01-7.859 3.382z" fill="#2435A1"/><path d="M256.386 490.504c-1.335.001-2.002.002-3.336.006 12.524 72.997 21.58 161.851-14.821 229.659-28.22 52.57-118.706 59.068-166.247 33.052.163 6.038.235 9.058.364 15.099a10.886 10.886 0 007.028 9.989 10.9 10.9 0 004.237.703 7506.298 7506.298 0 01172.976-2.893 11.193 11.193 0 007.859-3.382 11.18 11.18 0 003.171-7.942c.075-87.645.391-175.289.948-262.932.042-6.256-5.41-11.365-12.179-11.359z" fill="#182E89"/><path d="M185.498 491.961a2216.112 2216.112 0 00-120.84 8.834c-6.72.708-11.509 6.219-10.736 12.264 5.222 41.96 9.39 84.015 12.501 126.164-.823-35.844-3.923-81.63 20.924-110.811 23.134-27.169 64.084-35.802 98.151-36.451z" fill="#3847A9"/><path d="M125.658 540.452a2687.657 2687.657 0 0174.627-3.6m-80.269 170.87a4988.607 4988.607 0 0198.142-2.556m-69.185 20.351c13.654-.353 27.309-.676 40.964-.97" stroke="#FFC652" stroke-width="3.418" stroke-miterlimit="10"/><path fill-rule="evenodd" clip-rule="evenodd" d="M170.159 570.753a7.791 7.791 0 01-2.415-.201c-.013.021 1.555 1.058 1.565 1.091a28.324 28.324 0 01-3.747 1.491c-.016.036 1.696.556 1.696.556.121.19-2.325 6.908-2.325 6.908-.01 0-2.913-6.679-2.913-6.679.026-.05 1.613-.7 1.613-.7-.054-.102-3.851-1.122-3.844-1.157a16.7 16.7 0 011.458-1.223c-.018-.021-2.387.412-2.387.412-.001-.013 2.706-1.933 2.706-1.933-.022-.009-3.636.571-3.636.571-.002-.01 4.332-2.436 5.075-2.771a6.35 6.35 0 012.643-.093c.76.27 5.286 2.288 5.286 2.288 0 .006-3.649-.248-3.649-.248a8.404 8.404 0 002.874 1.688zm2.041 43.856c.272.468-.075 1.673-.331 1.52-.412-.247-1.031-1.852-1.736-2.677l-1.85-2.166a24.758 24.758 0 013.917 3.323zm-3.577 5.934a17.45 17.45 0 00-.807-5.295c-.347-1.117-1.092-5.158-1.092-5.158a44.826 44.826 0 001.791 5.357c.637 1.281 1.612 4.262.108 5.096zm-3.775-5.182a38.17 38.17 0 00-.412 5.339 10.868 10.868 0 01-.27-5.087 35.958 35.958 0 001.378-5.477 49.912 49.912 0 01-.696 5.225zm-2.421-1.612c-.654.955-1.193 2.544-1.555 2.799-.265.187-.682-1.009-.443-1.488a24.681 24.681 0 013.651-3.611 68.294 68.294 0 01-1.653 2.3zm11.395 3.341c.488.762-.873 1.519-1.027 1.368a2.286 2.286 0 01-.104-.775c.055-.083.888-.207 1.131-.593zm-13.674 1.846c-.894.036-1.169-1.281-1.126-1.284.387.137.762.306 1.121.506.066.074-.007.477.005.778zm-6.408-17.187c.041.19.11.372.205.542-.072.207-1.995.875-2.47 1.767-.655 1.232.187 2.747 0 3.36-.122.4-1.367.489-1.367.489a22.72 22.72 0 002.949.392 19.04 19.04 0 01-.274 1.918c.017.047 1.436-.767 1.456-.766.025.001.11.512.126.521.072.036.694-.583.694-.583.023.005.194.738.066.926-.303.252-.64.461-1.001.62-.909.493-1.875.873-2.877 1.131a2.01 2.01 0 01-2.126-1.032c-.306-.812-1.288-.566-1.565-.529-.073.01-.573-.149-.714.109a4.062 4.062 0 01-.439-.581 6.52 6.52 0 00-.413-1.107c-.231-.304-.631-.797-.823-1.088-.111-.169.13-.425.133-.432.012-.028-.366-.18-.369-.183-.049-.059-.09-.797-.585-.924a1440.005 1440.005 0 00-4.154-7.351.41.41 0 00-.035-.002l-.173-.342-.009-.039-.476-.836a.538.538 0 00.114-.226.54.54 0 00-.005-.253.53.53 0 00-.335-.361l-.004-.075a1.48 1.48 0 00.017-.175c.124-.045.252-.077.383-.096a16.968 16.968 0 003.288-2.397c.002.002-2.043 1.731-2.767 2.47-.671.685-.355 1.364-.215 1.949l.217.383c.648.027 1.682.332 2.302-.271.195-.19 3.591-4.588 3.591-4.588.006.005-2.075 2.915-2.88 4.353-.595 1.062.464 2.297.558 2.351.168.097 1.706.107 2.181-.759.465-.847 2.405-4.652 2.405-4.652.007.003-1.664 3.99-1.752 4.295-.33 1.144.921 1.993 1.08 2.028.183.04 1.69-.191 2.029-1.25.231-.72 1.05-3.96 1.05-3.96.014.004-.175 1.738-.277 2.846-.102 1.109 1.321 1.627 1.547 1.634.224.006 1.495-.408 1.612-1.403.104-.875.04-3.037.04-3.037.122.109.256.204.4.283.155-.015 1.177-.898 1.35-.99.037-.019.193.091.266.164.897.89-.035 4.893-.035 4.893.006.017 1.022-.196 1.022-.196.051.056-1.608 1.475-2.942 1.059h.001v.001zm43.835-19.308a11.157 11.157 0 00-3.492-.404c-.003-.015 3.788-3.354 3.53-3.704-.257-.349-3.249.169-3.249.169-.01-.024 2.892-3.598 2.376-4.176-.303-.338-3.572.861-3.572.861-.002-.003 2.492-6.176 1.839-6.302-.298-.058-4.69 4.426-4.69 4.426a37.419 37.419 0 002.977-4.853c.524-1.489-.941-5.047-1.417-4.842-.586.252-4.835 9.189-5.413 9.243-.069.006-.523-.456-.589-.409-.401.291-2.362 3.916-2.6 3.865-.027-.005-.368-.691-.39-.691-.346.001-4.087 4.194-5.023 5.641a2.04 2.04 0 00.426 3.003c.448.386 1.29 1.131.624 2.165-1.074 1.669-4.475.374-4.449.315.406-1.066.728-2.163.963-3.28-.165.027-1.334 1.15-2.254.815a7.56 7.56 0 01-1.381-.75c.018-.036 2.269-1.748 2.269-1.748-.166-.064-2.144.109-2.371-.109a3.044 3.044 0 01-.718-2.887c.168-1.128 1.759-3.615 2.092-3.603.067.003.358.338.716.274.219-.039.594-.287.871-.387a2.712 2.712 0 012.119.171 1.744 1.744 0 01.869 1.552 19.171 19.171 0 00-1.009-2.452c.001-.01 2.35 1.015 2.602 1.16a2.576 2.576 0 002.269.018 2.217 2.217 0 00.967-2.072c-.067.027-.441.876-1.061.969a5.459 5.459 0 01-2.627-.509 12.24 12.24 0 00-2.31-.315c-.01-.034 3.655.247 3.926.281.148.019.641-.646.734-1.31.248-1.785-2.537-2.403-2.767-2.64-.079-.082-.695-.454-.726-.476a3.742 3.742 0 01-.172-.395.808.808 0 01.129-.031 6.022 6.022 0 003.814-1.526c1.356-1.48-.66-4.547-.209-4.723a6.47 6.47 0 012.444.792c.136.274.226.569.267.872.307 1.533-1.244 1.943-.754 3.626.215.739.822 1.003 1.065 1.926l-.452 1.223c.037.093 2.028-1.167 1.568-2.168-.192-.419-.7-1.285-.7-1.285.724.42 1.571.578 2.398.446.49-.167.271 1.023.271 1.023.37-.425.663-.912.865-1.439a.936.936 0 00-.759-.91.94.94 0 00-.425.019c-.283.058-.929.457-.999-.117-.121-.989 1.561-1.108 1.134-2.708-.216-.809-1.754-.946-2.725-1.365a3.31 3.31 0 01-.764-.753c-.894-1.236-1.772-1.581-2.256-1.302-.573.33-.898.586-1.385.857a3.277 3.277 0 00-1.05.644c-.625.792.049 2.004.423 2.726.436.626.65 1.38.609 2.141-.231.881-1.815 1.624-2.653 1.736-.047.006-.103.029-.155.031l-.015-.352c.244-.487.451-.991.62-1.508.558-1.629-.668-2.088-1.779-2.496a.797.797 0 00-.579-.053l-.026.001-.016.277-.184-.043.012-.327-.079.003a.596.596 0 00.215-.486.722.722 0 00-.176-.446l.184-.007-.082-.072a1.875 1.875 0 00-.246-.242.38.38 0 01-.085-.147c.056.028.11.06.162.094.099.05.183.125.245.217l.108.071-.063-1.482-.1.105a1.1 1.1 0 00-.228.185.47.47 0 01-.154.107.622.622 0 01.073-.154c.06-.08.202-.184.226-.236l.074-.103-1.547.062.082.097a.967.967 0 01.247.217c.034.049.11.146.11.146a.685.685 0 01-.161-.094.739.739 0 00-.296-.164l-.083-.097.064 1.481.075-.078c.08-.093.174-.173.279-.238.048-.028.153-.107.153-.107 0 .001-.077.129-.098.155a4.02 4.02 0 01-.226.26l-.075.079.236-.009a.504.504 0 00-.138.458c.003.09.025.178.064.259.04.08.096.152.165.209l-.026.001.04.325-.207.059-.038-.275-.026.001a.79.79 0 00-.572.098c-1.084.512-2.301 1.118-1.591 2.63.216.504.474.99.77 1.452l.01.226a12.132 12.132 0 01-4.698-2.594c-.059-.084-.138-.17-.167-.219l-.018-.954c.453-.855.834-1.746 1.138-2.663.784-2.32-.984-2.971-2.662-3.528a1.2 1.2 0 00-.818-.064l-.062.355-.447-.005.003-.477c-.077.02-.156.032-.235.035-.003-.008.474-.524.457-.875a.865.865 0 00-.401-.685l.367-.017a5.926 5.926 0 01-.669-.773c.309.157.6.346.871.563l-.092-1.88c-.177.159-.811.594-.815.59.165-.284.364-.546.594-.781l-1.973.091c.22.229.426.471.616.725a6.124 6.124 0 01-.842-.513l.094 1.879c.201-.185.783-.64.784-.639-.153.292-.333.57-.538.829l.341-.016a.842.842 0 00-.306.718c.018.376.54.829.54.829a1.218 1.218 0 01-.263-.013l.049.475-.445.045-.043-.349a1.103 1.103 0 00-.836.139c-1.553.697-3.2 1.547-2.283 3.749.361.9.826 1.755 1.386 2.547l.049 1.002c-.051.027-.085.104-.148.183a14.707 14.707 0 01-4.435 2.995l-.011-.225c.257-.483.468-.989.63-1.511.539-1.63-.717-2.075-1.831-2.471a.795.795 0 00-.579-.047l-.027.001-.011.277-.186-.041.009-.327-.026.001a.768.768 0 00.158-.484.598.598 0 00-.181-.443l.236-.012a4.789 4.789 0 01-.47-.453c.182.111.356.237.519.376l-.078-1.477c-.15.145-.31.278-.478.4.129-.174.269-.341.42-.497l-1.546.077c.151.144.418.456.418.456a2.793 2.793 0 01-.518-.351l.079 1.477c.15-.152.309-.294.477-.426a2.707 2.707 0 01-.368.495l.21-.01a.72.72 0 00-.133.458.58.58 0 00.261.464l-.079.004.044.324-.207.06-.041-.274-.026.001a.792.792 0 00-.572.104c-1.078.521-2.288 1.136-1.563 2.638.222.5.484.982.784 1.44l.019.35a1.046 1.046 0 01-.158-.017c-.844-.038-2.48-.659-2.804-1.487a3.35 3.35 0 01.405-2.178c.316-.722.835-2.059.164-2.742a3.527 3.527 0 00-1.135-.542c-.509-.225-.84-.448-1.46-.725-.504-.226-1.378.128-2.122 1.493a3.02 3.02 0 01-.688.814c-.918.498-2.453.781-2.584 1.596-.258 1.605 1.424 1.578 1.41 2.578-.009.582-.689.23-.984.204a.942.942 0 00-.806.216.927.927 0 00-.315.773c.018.299.995 1.348.995 1.348.011-.014-.329-1.16.175-1.037a3.407 3.407 0 002.346-.653c.028.008-.418.908-.579 1.334-.383 1.013 1.762 2.011 1.762 2.011.014-.052-.563-1.173-.563-1.173.132-.909.728-1.223.882-2.002.338-1.698-1.365-1.907-1.091-3.526.02-.303.082-.602.185-.887a6.921 6.921 0 012.358-1.004c.519.154-1.252 3.353.237 4.701a6.072 6.072 0 003.939 1.178.646.646 0 01.132.018c.002.006-.124.399-.135.408-.065.053-.607.475-.652.535-.25.329-2.95 1.114-2.54 2.862.118.511.433.954.876 1.234.337-.08 3.884-.62 3.884-.62-.779.105-1.548.277-2.297.515a5.358 5.358 0 01-2.546.731c-.651-.038-1.138-.859-1.169-.868a2.174 2.174 0 001.15 1.972 2.576 2.576 0 002.233-.213c.238-.166 2.486-1.377 2.486-1.377.002.013-.784 2.522-.784 2.522a1.771 1.771 0 01.7-1.615 2.732 2.732 0 012.096-.352c.285.076.688.278.903.308.342.048.639-.328.687-.334.368-.045 2.102 2.291 2.407 3.402a2.95 2.95 0 01-.459 2.933 9.025 9.025 0 01-2.352.309 19.66 19.66 0 002.414 1.546 6.951 6.951 0 01-1.311.862c-.887.411-2.228-.613-2.316-.62-.301-.024 1.204 3.109 1.243 3.179.123.224-3.214 1.624-4.435.058-.772-.99.016-1.785.411-2.201a2.059 2.059 0 00.747-1.473 2.045 2.045 0 00-.586-1.545 55.903 55.903 0 00-5.506-5.166c-.121.23-.222.47-.3.718-.228.099-2.639-3.438-2.966-3.604-.064-.032-.49.458-.549.456-.814-.038-5.753-8.51-6.247-8.669-.591-.19-1.6 3.505-.957 4.912a34.7 34.7 0 003.408 4.539 63.07 63.07 0 00-5.075-3.967c-.722.216 2.405 6.069 2.405 6.069 0 .001-3.391-.861-3.634-.543-.493.644 2.738 3.922 2.738 3.922-.007.02-3.053-.213-3.25.11-.254.416 3.791 3.364 3.791 3.364-.001.008-3.231.311-3.393.69-.249.583 3.923 2.684 3.923 2.684.001.011-3.039 1.325-3.02 1.643.024.418 3.502 1.384 3.502 1.384.001.004-1.062.793-1.122.786-.012-.001-.132-.083-.185-.065-.063.023-.095.156-.065.229l.003.05a.88.88 0 00-.238.388c-.074.206-.378.598-.349.694.005.016.101.053.107.069.049.129.091.261.126.394 0 .034-.118.206-.138.308l-.975-.298a2.545 2.545 0 00.677 1.915c.355.33.74.285.644.416l1.064.543a.627.627 0 00.841.23l.004.075c.022.4.635.724.69.815a.865.865 0 00.577.645c1.739 3.544 2.603 5.318 4.323 8.869-.133.433.368.893.38.933.007.025-.134.433-.134.433.019.008.375-.161.495.126.082.194.208 1.034.349 1.36.194.344.407.676.638.996.146.374.242.765.287 1.164-.058.29-.848.995-.745 1.613.074.445.587.582.647.67.148.217.953 1.027 1.08 1.153.291.311.622.582.985.806.327.129.636.3.919.509.135.417.343.806.615 1.15.212.185.434.359.664.521.222.147.661.324.88.211.148-.076.142-.7.141-.858-.001-.103-.056-.615-.059-.749a3.75 3.75 0 00-.326-1.013 3.238 3.238 0 01-.188-.769c.067-.222 1.175-.778 1.394-.939a9.107 9.107 0 014.375-2.023 15.426 15.426 0 011.664-.096c.679.028 1.643.209 2.172-.242a.54.54 0 00.21-.485c-.083-.391-.563-.777-.739-1.124a21.694 21.694 0 01-.198-.418 9.853 9.853 0 001.201-.151c.393-.42.704-.909.917-1.443-.094-.058-1.914.694-2.136-.664-.193-1.187.859-2.265 2.57-1.89 1.165.256 2.958 2.6 1.463 3.706a9.586 9.586 0 00-1.675 2.377c.062.018 1.992-.883 1.992-.883.027.09-2.26 1.105-3.517 1.874-1.114.682-1.968 1.846-2.843 1.926-.702.065-.469-1.384-.469-1.384-.021-.074-1.582.449-1.797 1.155a2.445 2.445 0 00.623 2.005c.001.114-1.412 1.358-1.045 2.527.268.764.598 1.505.987 2.215a2.012 2.012 0 001.055-1.098 8.51 8.51 0 01.292-.965c.042.019.442 1.859 1.501 2.32.727.317 2.629-.521 2.689-.509.165.032 1.639 1.754 2.851 1.695a8.097 8.097 0 001.513-.535c.192.06 1.384 1.781 1.878 1.763.501-.019 1.641-1.848 1.771-1.899a9.227 9.227 0 001.548.421c1.187-.03 2.679-1.894 2.719-1.906.184-.053 2.018.679 2.719.308 1.023-.54 1.326-2.433 1.326-2.433.165.298.296.615.389.943.132.515 1.107 1.019 1.107 1.019a9.361 9.361 0 00.821-2.29c.252-1.2-1.206-2.449-1.206-2.449-.006-.09.829-1.113.446-2.052-.282-.69-1.881-1.018-1.881-1.018-.021.098.354 1.419-.362 1.421-.893.002-1.819-1.112-2.981-1.706-1.312-.672-3.65-1.6-3.65-1.6.011-.052 2.054.728 2.054.728a6.882 6.882 0 00-1.854-2.243c-1.571-.967.033-3.462 1.194-3.814 1.645-.499 2.806.489 2.685 1.686-.14 1.374-2.1.81-2.129.831a3.423 3.423 0 001.078 1.368c.522.049 1.047.03 1.564-.056-.007.11-.021.22-.04.328-.008 1.131-.738 1.419-.474 1.802.244.355 2.379.234 2.934.299.954.113 1.826.43 2.764.586 1.061.07 2.114.238 3.145.501.591.222 1.363.812 1.901.972.745.222.783.479 1.346.462.512-.016.715-.468 1.365-.646.445-.121.988.019 1.431-.117.312-.097.484-.439.777-.627.349-.224.866-.273 1.214-.564.176-.147.155-.55.192-.638a11.22 11.22 0 011.477-2.053c.07-.06.327-.211.323-.386l-.002-.076a.704.704 0 00.291-.587.932.932 0 00-.326-.67l-.003-.076c-.004-.151-.122-.26-.164-.348-.515-1.091-1.596-2.8-3.175-3.156l-.002-.075-.026.001c-.002-.076-.078-.086-.106-.098a2.605 2.605 0 01-.538-.764c.317.185.623.385.919.601l-.063-2.088c-.201.158-.867.668-.881.656.16-.328.367-.631.616-.899l-2.162.066c.255.261.48.55.671.86a10.299 10.299 0 01-.92-.601l.065 2.087c.201-.157.867-.667.88-.656a3.691 3.691 0 01-.615.9l.078.023c-1.609.402-2.616 2.362-3.11 3.369-.044.09-.172.206-.167.357l.002.075a.612.612 0 00-.083.632c.059.214.171.409.326.568l.002.075c.008.226.276.313.346.367.082.064.165.398.274.57l.024-.026a1.484 1.484 0 01-.375.617c-.173.173-.386.3-.62.371a10.957 10.957 0 01-4.128-.722 3.583 3.583 0 01-1.804-.97 1.931 1.931 0 01-.266-1.022c.034-.008.706.546.737.528.038-.175.067-.352.085-.531.087-.009 1.537.653 1.537.653.009-.031-.448-1.897-.448-1.897.076-.015 2.909-.624 2.909-.624-.07-.058-1.237.014-1.401-.382-.254-.614.449-2.209-.266-3.361-.548-.882-2.616-1.539-2.63-1.571-.011-.025.17-.553.161-.559-.177-.141-3.02-.823-3.02-.823.01-.011 1.036.114 1.036.114.021-.078-1.256-3.922-.437-4.888.067-.079.216-.2.251-.185.198.085 1.342.884 1.453.879.051-.003.2-.184.351-.315 0 0 .128 2.177.289 3.033.183.971 1.5 1.291 1.669 1.275.271-.026 1.628-.659 1.435-1.759-.192-1.101-.51-2.826-.51-2.826.017-.006 1.079 3.187 1.372 3.878.433 1.025 1.995 1.125 2.124 1.088a1.9 1.9 0 00.912-2.118c-.107-.271-2.101-4.159-2.101-4.159.008-.005 2.268 3.676 2.78 4.464.544.835 2.114.665 2.236.585a2.135 2.135 0 00.313-2.402c-.902-1.335-3.156-4.128-3.156-4.128.017-.013 3.724 4.103 3.961 4.305a2.894 2.894 0 002.454.077 2.108 2.108 0 00-.326-2.306c-.772-.684-2.965-2.251-2.965-2.251a19.256 19.256 0 003.426 2.137 2.757 2.757 0 002.492-.501c.156-.392-3.013-3.06-3.013-3.06 0-.001 4.683.015 4.775-.39.084-.369-2.152-1.904-2.152-1.904.002-.015 3.385-1.278 3.372-1.682-.012-.377-3.204-1.395-3.204-1.395-.001-.016 3.587-1.613 3.729-3.028h-.001z" fill="#FFC652"/><path fill-rule="evenodd" clip-rule="evenodd" d="M166.066 605.444a2.781 2.781 0 00-2.708-2.002c-1.019.041-1.529.062-2.547.105-1.672.07-2.508-.797-2.59-2.652-.276-6.064-.419-9.097-.715-15.161 3.08-.14 4.621-.208 7.702-.338 3.081-.129 4.622-.192 7.704-.311.242 6.079.359 9.118.585 15.197.069 1.859-.722 2.793-2.394 2.856-1.019.038-1.528.057-2.547.097a2.719 2.719 0 00-2.49 2.209z" fill="#2435A1"/><path d="M111.451 686.83c-2.911.135-4.367.204-7.278.344l-1.152 3.005a4.662 4.662 0 00-.404 1.645.925.925 0 00.44.729 3.567 3.567 0 001.782.336l.02.509c-2.364.111-3.546.168-5.91.282l-.021-.508a3.227 3.227 0 001.5-.609 8.485 8.485 0 001.454-2.756c2.385-6.264 3.575-9.399 5.952-15.675l.487-.025c2.905 6.079 4.345 9.125 7.199 15.23a7.06 7.06 0 001.526 2.371 2.917 2.917 0 001.816.55l.019.511c-2.962.127-4.443.192-7.405.325l-.02-.51a2.798 2.798 0 001.502-.44.965.965 0 00.364-.789 5.625 5.625 0 00-.628-1.891c-.496-1.054-.745-1.581-1.243-2.634zm-.43-1.001c-1.398-2.96-2.1-4.438-3.511-7.392a8773.86 8773.86 0 01-2.95 7.7c2.584-.126 3.877-.187 6.461-.308zm21.427-12.407c.15 1.756.225 2.635.372 4.391l-.528.022a5.298 5.298 0 00-.478-1.643 2.765 2.765 0 00-1.192-1.134 4.021 4.021 0 00-1.899-.3l-2.657.116c.225 5.727.332 8.591.535 14.319a3.812 3.812 0 00.45 2.14 2.06 2.06 0 001.64.515l.651-.026.017.512c-3.184.127-4.776.192-7.959.327l-.019-.511.665-.028a1.927 1.927 0 001.663-.789 4.187 4.187 0 00.233-2.029c-.207-5.725-.316-8.587-.545-14.311l-2.268.103a6.324 6.324 0 00-1.868.279 2.58 2.58 0 00-1.197 1.065 4.078 4.078 0 00-.528 2.042l-.528.025.04-4.396c6.16-.291 9.24-.429 15.4-.689zm17.407-.687c.141 1.763.211 2.644.35 4.407l-.529.019a5.285 5.285 0 00-.47-1.651 2.757 2.757 0 00-1.186-1.144 4.004 4.004 0 00-1.897-.311l-2.657.101c.197 5.746.29 8.619.467 14.367a3.84 3.84 0 00.441 2.149 2.066 2.066 0 001.637.526l.651-.023.015.513c-3.184.111-4.776.168-7.96.287l-.016-.513.665-.025a1.922 1.922 0 001.667-.783 4.222 4.222 0 00.241-2.034c-.181-5.745-.277-8.617-.478-14.36l-2.268.09a6.294 6.294 0 00-1.869.27 2.574 2.574 0 00-1.202 1.061 4.093 4.093 0 00-.538 2.047l-.528.022.061-4.411c6.161-.257 9.241-.378 15.403-.604zm6.903.783c.09 2.98.134 4.47.22 7.45 1.655-.055 2.482-.082 4.137-.135a3.409 3.409 0 002.139-.554 3.167 3.167 0 00.743-2.28l.514-.016c.072 2.627.107 3.941.175 6.568l-.514.016a7.1 7.1 0 00-.434-1.756 1.718 1.718 0 00-.839-.739 4.162 4.162 0 00-1.756-.224l-4.136.134c.071 2.485.106 3.728.174 6.213a5.753 5.753 0 00.152 1.519.873.873 0 00.4.418c.337.123.699.166 1.056.126l3.185-.098a8.597 8.597 0 002.307-.291 3.445 3.445 0 001.363-.918 10.697 10.697 0 001.695-2.654l.554-.016-1.504 4.779c-5.787.167-8.68.257-14.467.449l-.014-.514.664-.022c.44-.017.869-.141 1.251-.36.277-.145.486-.391.584-.687.121-.6.158-1.215.108-1.826-.137-4.895-.209-7.343-.359-12.238a4.027 4.027 0 00-.43-2.196 2.138 2.138 0 00-1.687-.497l-.667.024-.017-.513c5.817-.21 8.725-.309 14.542-.492.13 1.651.194 2.476.322 4.127l-.543.017a6.5 6.5 0 00-.702-2.025 2.164 2.164 0 00-1.074-.817 6.145 6.145 0 00-1.968-.145c-2.069.068-3.104.102-5.174.173zm28.573-2.31c.229 2.568.343 3.852.569 6.421l-.43.01a8.048 8.048 0 00-2.551-4.095 5.962 5.962 0 00-3.87-1.168 6.25 6.25 0 00-3.371 1.048 6.337 6.337 0 00-2.309 3.112 13.638 13.638 0 00-.741 5.22c.001 1.522.316 3.027.924 4.421a6.142 6.142 0 002.524 2.82 7.044 7.044 0 003.769.908 6.486 6.486 0 003.21-.867 10.761 10.761 0 003.013-3.204l.435.269a9.976 9.976 0 01-3.224 3.774 8.342 8.342 0 01-4.447 1.281 8.45 8.45 0 01-7.307-3.293 9.995 9.995 0 01-2.061-6.046 10.88 10.88 0 011.132-5.231 9.195 9.195 0 013.389-3.771 9.41 9.41 0 014.818-1.439 8.83 8.83 0 014.059.898c.258.151.545.248.842.284a.907.907 0 00.648-.281c.259-.3.429-.667.492-1.059l.487-.012zm18.351.031l.281 4.441-.528.01a5.38 5.38 0 00-.445-1.67 2.786 2.786 0 00-1.167-1.173 3.974 3.974 0 00-1.892-.347l-2.658.054c.106 5.789.156 8.684.252 14.473a3.887 3.887 0 00.41 2.171 2.05 2.05 0 001.63.556l.651-.012.008.518c-3.185.058-4.777.09-7.961.156l-.009-.516.665-.014a1.907 1.907 0 001.676-.761c.256-.65.349-1.352.271-2.045a6969.17 6969.17 0 00-.264-14.469l-2.268.05a6.247 6.247 0 00-1.874.238 2.57 2.57 0 00-1.217 1.048 4.14 4.14 0 00-.57 2.053l-.528.012.13-4.443c6.162-.148 9.244-.214 15.407-.33zm12.696 12.409c-2.913.041-4.369.062-7.282.109l-1.234 3.014a4.803 4.803 0 00-.449 1.657.959.959 0 00.42.755 3.54 3.54 0 001.771.399l.007.517c-2.365.037-3.547.057-5.912.098l-.008-.518a3.172 3.172 0 001.515-.571 8.623 8.623 0 001.528-2.752c2.556-6.285 3.837-9.428 6.407-15.714l.487-.007c2.714 6.27 4.062 9.409 6.744 15.69a7.222 7.222 0 001.46 2.453 2.895 2.895 0 001.799.616l.005.519c-2.963.032-4.444.051-7.407.091l-.006-.518a2.763 2.763 0 001.512-.398.98.98 0 00.386-.789 5.853 5.853 0 00-.575-1.938l-1.168-2.713zm-.401-1.029a2690.757 2690.757 0 00-3.292-7.619c-1.271 3.086-1.905 4.63-3.173 7.716 2.586-.041 3.879-.061 6.465-.097zm21.779-11.823l.236 4.452-.529.003a5.408 5.408 0 00-.427-1.677 2.792 2.792 0 00-1.156-1.189 3.979 3.979 0 00-1.888-.37l-2.658.024c.047 5.802.07 8.703.113 14.506a3.903 3.903 0 00.39 2.18 2.051 2.051 0 001.624.575l.651-.005.004.518c-3.185.025-4.777.04-7.961.073l-.005-.519.665-.006a1.9 1.9 0 001.683-.745 4.287 4.287 0 00.289-2.047c-.047-5.801-.072-8.702-.124-14.504l-2.269.024a6.251 6.251 0 00-1.876.217c-.51.205-.94.569-1.228 1.037a4.141 4.141 0 00-.589 2.051l-.529.006.175-4.453c6.163-.077 9.245-.107 15.409-.151z" fill="#FFC652"/><path d="M433.292 386.011a16861.986 16861.986 0 00-172.606-1.513 11.172 11.172 0 01-7.844-3.385 11.15 11.15 0 01-3.155-7.935c-.07-87.649-.293-175.297-.667-262.946a11.541 11.541 0 0111.791-11.346 2309.8 2309.8 0 01185.397 8.676c6.507.592 11.248 6.006 10.628 12.058-8.452 84.962-12.303 170.147-12.522 255.518a10.804 10.804 0 01-3.219 7.757 10.814 10.814 0 01-7.803 3.116z" fill="#FFEBDD"/><path d="M426.006 255.841c-.279 7.101-13.678 11.026-16.484 17.289-2.81 6.272 3.222 18.869-1.657 23.924-4.689 4.859-17.597-.63-23.807 2.792-5.896 3.251-7.968 17.215-14.863 18.872-6.511 1.564-14.784-9.88-21.917-10.015-7.134-.134-15.64 11.044-22.114 9.243-6.856-1.908-8.614-16.053-14.417-19.569-6.112-3.704-19.145 1.336-23.695-3.791-4.733-5.332 1.677-17.871-.904-24.376-2.578-6.496-15.8-11.161-15.781-18.421.02-7.26 13.335-11.785 16.019-18.237 2.689-6.463-3.658-19.109 1.245-24.359 4.714-5.048 17.934.298 24.274-3.21 6.02-3.332 8.236-17.409 15.369-19.035 6.734-1.536 15.066 10.028 22.388 10.276 7.322.249 16.393-10.669 23.008-8.674 7.007 2.113 8.326 16.193 14.137 19.873 6.122 3.876 19.629-.539 24.047 4.711 4.594 5.461-2.418 17.486-.044 23.981 2.371 6.485 15.476 11.626 15.196 18.726z" fill="#FFF7F2"/><path d="M340.234 138.34a2875.122 2875.122 0 01114.111 7.03 2088.645 2088.645 0 00-2.693 32.115 3389.188 3389.188 0 00-112.574-6.179c.35-10.99.735-21.978 1.156-32.966z" fill="#FFE0CC"/><path d="M340.005 144.478a2931.203 2931.203 0 01113.805 6.869c-.711 8.06-1.049 12.091-1.69 20.157a3261.402 3261.402 0 00-112.841-6.336c.276-8.276.421-12.415.726-20.69z" fill="#FFF7F2"/><path d="M249.637 324.205a6615.387 6615.387 0 01195.089 3.171 2505.045 2505.045 0 00-.367 32.321c-64.89-1.379-129.785-2.16-194.685-2.342-.01-11.05-.022-22.1-.037-33.15z" fill="#FFE0CC"/><path d="M249.645 330.376a6987.054 6987.054 0 01194.984 3.014c-.122 8.112-.168 12.169-.23 20.286a9754.71 9754.71 0 00-194.731-2.494c-.008-8.323-.013-12.484-.023-20.806z" fill="#FFF7F2"/><path d="M249.121 133.736c38.191.028 76.357.863 114.499 2.506a3531.89 3531.89 0 00-.623 12.998 2848.147 2848.147 0 00-113.823-2.384c-.02-5.248-.031-7.872-.053-13.12z" fill="#fff"/><path d="M249.174 146.855a2819.3 2819.3 0 01113.822 2.385c-.241 5.2-.358 7.8-.585 13.001a2972.997 2972.997 0 00-113.187-2.266l-.05-13.12z" fill="#49B3F7"/><path d="M249.225 159.975c37.749.029 75.477.784 113.186 2.266-.226 5.2-.335 7.8-.546 13.002a3162.04 3162.04 0 00-112.593-2.149l-.047-13.119z" fill="#FF6551"/><path d="M332.352 131.346c-.48 14.039-.928 28.079-1.345 42.12a3.91 3.91 0 003.819 3.995c4.543.139 6.814.214 11.356.373a3.503 3.503 0 012.422 1.09l1.683 1.781c.721-.662 1.082-.993 1.805-1.654a3.493 3.493 0 012.492-.909c4.483.172 6.725.263 11.207.454a3.9 3.9 0 004.094-3.685c.637-13.959 1.32-27.913 2.051-41.865a3334.15 3334.15 0 00-39.584-1.7z" fill="#FF2C4B"/><path fill-rule="evenodd" clip-rule="evenodd" d="M354.767 144.018a4.355 4.355 0 01-1.339-.227c-.008.01.816.669.82.688-.705.273-1.429.495-2.166.663-.011.02.92.394.92.394.06.113-1.636 3.787-1.636 3.787-.006 0-1.301-3.907-1.301-3.907.016-.027.935-.318.935-.318-.025-.06-2.095-.817-2.089-.839.28-.223.572-.43.875-.619-.009-.013-1.352.116-1.352.116 0-.007 1.607-.959 1.607-.959-.011-.006-2.058.145-2.058.145 0-.006 2.541-1.164 2.973-1.317a3.545 3.545 0 011.478.076c.411.188 2.836 1.543 2.836 1.543l-2.024-.314c.428.461.946.831 1.521 1.088zm-.847 24.817c.133.276-.112.941-.25.844-.223-.157-.505-1.088-.867-1.584l-.951-1.302a14.008 14.008 0 012.067 2.043v-.001h.001zm-2.266 3.198a9.952 9.952 0 00-.234-3.024c-.15-.646-.396-2.959-.396-2.959.195 1.05.456 2.085.782 3.102.305.75.732 2.473-.152 2.881zm-1.913-3.088c-.223.988-.376 1.99-.458 2.999a6.158 6.158 0 01.062-2.885c.416-.984.755-1.998 1.012-3.034-.154.983-.36 1.958-.616 2.92zm-1.297-1.016c-.41.512-.782 1.386-.997 1.515-.157.094-.341-.6-.186-.861a13.96 13.96 0 012.215-1.881c.002.002-.684.842-1.032 1.227zm6.288 2.374c.244.451-.555.82-.636.729a1.314 1.314 0 01-.027-.442c.035-.045.51-.079.663-.287zm-7.795.46c-.506-.019-.605-.776-.581-.775.213.094.417.206.611.335.034.044-.024.269-.03.44zm-2.849-10.009c.014.11.045.216.09.317-.048.113-1.162.403-1.471.887-.425.667-.02 1.563-.153 1.902-.087.221-.792.214-.792.214a12.79 12.79 0 001.643.357c-.062.361-.143.72-.241 1.073.008.028.844-.369.855-.368.014.002.038.295.047.3.039.024.417-.298.417-.298.013.004.077.426-.004.527a2.404 2.404 0 01-.591.306 7.152 7.152 0 01-1.672.511 1.133 1.133 0 01-1.152-.681c-.136-.474-.7-.38-.858-.371-.041.003-.315-.11-.407.029a2.444 2.444 0 01-.221-.349 3.72 3.72 0 00-.181-.647c-.117-.183-.318-.481-.414-.655-.055-.101.093-.235.095-.239.008-.015-.198-.119-.199-.12-.025-.036-.014-.457-.287-.551-.794-1.747-1.191-2.62-1.987-4.367l-.019-.003-.081-.202-.003-.023-.227-.497a.301.301 0 00-.086-.487l.002-.043a.858.858 0 00.018-.099 1.15 1.15 0 01.219-.036 9.486 9.486 0 001.963-1.201c.001.002-1.231.884-1.674 1.268-.41.356-.266.757-.215 1.095l.103.229c.363.046.929.268 1.306-.044.12-.099 2.239-2.43 2.239-2.43.003.003-1.306 1.553-1.828 2.33-.385.574.151 1.325.202 1.36.09.063.954.141 1.262-.327.301-.459 1.572-2.522 1.572-2.522.004.002-1.125 2.181-1.189 2.35a1.106 1.106 0 00.512 1.2 1.294 1.294 0 001.199-.613c.164-.398.777-2.194.777-2.194.007.003-.181.976-.29 1.599-.11.623.667.983.793.996.126.014.859-.161.972-.719.098-.49.164-1.716.164-1.716.084.074.185.179.212.178.087-.001.702-.453.804-.497.022-.009.104.06.142.105.462.546-.247 2.766-.247 2.766.002.01.584-.064.584-.064a1.968 1.968 0 01-1.704.464l.001.001v-.001zm25.475-8.933a6.271 6.271 0 00-1.94-.376c-.001-.008 2.27-1.719 2.141-1.927-.129-.206-1.827-.045-1.827-.045-.005-.014 1.78-1.893 1.516-2.24-.155-.203-2.037.327-2.037.327 0-.002 1.671-3.358 1.314-3.457a32.16 32.16 0 00-2.823 2.278 21.026 21.026 0 001.886-2.593c.361-.813-.293-2.873-.565-2.781-.338.114-3.131 4.944-3.453 4.948-.039 0-.271-.28-.31-.256-.239.145-1.504 2.094-1.634 2.056-.015-.005-.174-.406-.186-.407a20.343 20.343 0 00-3.072 2.947 1.146 1.146 0 00-.329.877 1.15 1.15 0 00.429.833c.233.237.672.694.251 1.247-.678.891-2.526.011-2.509-.022a12.39 12.39 0 00.691-1.805c-.093.008-.801.588-1.3.357a4.153 4.153 0 01-.739-.486 92.66 92.66 0 011.352-.881c-.089-.043-1.205-.036-1.322-.17a1.721 1.721 0 01-.265-1.66 4.567 4.567 0 011.342-1.933c.037.005.184.207.387.187.125-.012.346-.134.506-.177a1.52 1.52 0 011.176.194.983.983 0 01.413.913 10.766 10.766 0 00-.448-1.426c.001-.006 1.266.679 1.4.772a1.441 1.441 0 001.268.113 1.256 1.256 0 00.637-1.121c-.039.012-.288.473-.638.496a3.033 3.033 0 01-1.445-.405 6.723 6.723 0 00-1.276-.284c-.004-.02 2.032.307 2.181.338.081.017.389-.334.472-.703.223-.994-1.303-1.469-1.42-1.613-.041-.049-.366-.288-.382-.301a1.84 1.84 0 01-.077-.231.584.584 0 01.073-.011 3.38 3.38 0 002.202-.682c.827-.77-.147-2.588.111-2.666a3.61 3.61 0 011.324.559c.063.16.099.33.108.502.097.876-.788 1.035-.595 2.004.085.426.412.601.504 1.131l-.31.668c.017.053 1.187-.564.978-1.148-.088-.244-.33-.754-.33-.754.384.269.849.396 1.317.36.282-.072.103.587.103.587.227-.223.413-.483.551-.769a.516.516 0 00-.172-.431.524.524 0 00-.447-.124c-.16.019-.54.215-.552-.111-.021-.561.923-.551.761-1.47-.082-.464-.934-.613-1.454-.892a1.834 1.834 0 01-.389-.458c-.439-.737-.911-.971-1.194-.837-.335.158-.529.287-.813.417-.224.064-.433.17-.617.312-.387.417-.071 1.13.103 1.554.213.374.296.807.236 1.233-.172.484-1.091.829-1.565.853a.846.846 0 01-.088.01l.009-.198c.16-.263.3-.537.419-.82.39-.891-.273-1.207-.87-1.489a.446.446 0 00-.321-.057h-.014l-.022.155-.101-.033.023-.183-.044-.002a.355.355 0 00.144-.264.407.407 0 00-.076-.259l.103.005-.043-.045a1.1 1.1 0 00-.125-.148.198.198 0 01-.04-.087c.03.019.058.039.086.061a.368.368 0 01.126.134l.056.045.039-.837-.061.054a.613.613 0 00-.137.093.245.245 0 01-.091.053.36.36 0 01.048-.083c.038-.042.122-.094.138-.122l.047-.054-.866-.039.042.058a.553.553 0 01.126.134c.017.03.055.088.055.088a.373.373 0 01-.086-.061.401.401 0 00-.157-.106l-.041-.059-.038.837.045-.041a.687.687 0 01.168-.12c.028-.014.09-.053.09-.053.001 0-.049.069-.062.083-.047.048-.093.095-.139.135l-.045.041.131.006a.295.295 0 00-.099.251.359.359 0 00.105.275l-.015-.001.006.185-.118.024-.008-.157-.014-.001a.439.439 0 00-.324.029c-.629.236-1.339.52-1.018 1.405.096.294.216.58.359.854l-.006.128a6.733 6.733 0 01-2.492-1.685c-.029-.05-.069-.103-.082-.132l.038-.539c.295-.46.552-.943.768-1.446.554-1.269-.399-1.722-1.302-2.118a.663.663 0 00-.451-.076l-.054.197-.248-.025.026-.269a.588.588 0 01-.133.009c0-.005.292-.272.3-.471a.488.488 0 00-.187-.406l.205.009a3.35 3.35 0 01-.332-.47c.164.104.316.225.455.361l.047-1.065a5.838 5.838 0 01-.484.292c.106-.151.231-.289.371-.41l-1.101-.047c.11.14.212.287.304.439a3.384 3.384 0 01-.441-.331l-.047 1.065c.122-.095.47-.323.47-.322a2.98 2.98 0 01-.343.441l.191.008a.484.484 0 00-.208.389c-.009.214.258.495.258.495a.704.704 0 01-.146-.02l.002.27-.25.004-.006-.2a.627.627 0 00-.472.037c-.899.315-1.862.714-1.466 2.003.154.525.369 1.03.641 1.506l-.024.568c-.03.013-.053.055-.092.096a8.255 8.255 0 01-2.627 1.473l.005-.128c.169-.26.312-.535.43-.822.384-.894-.294-1.208-.893-1.487a.446.446 0 00-.321-.056h-.015l-.02.156-.102-.033.022-.184h-.014a.447.447 0 00.101-.404.343.343 0 00-.065-.122l.132.006a2.895 2.895 0 01-.239-.28c.096.072.187.152.27.238l.034-.838a2.472 2.472 0 01-.287.202 2.9 2.9 0 01.26-.26l-.865-.034a5.2 5.2 0 01.209.278 1.524 1.524 0 01-.27-.224l-.034.839c.091-.078.187-.151.288-.217a1.6 1.6 0 01-.231.262l.117.004a.42.42 0 00-.098.253.331.331 0 00.121.275l-.044-.002.007.185-.118.024-.009-.157h-.014a.434.434 0 00-.324.03c-.627.239-1.336.526-1.01 1.413.097.294.219.579.362.853l-.007.199a.651.651 0 01-.088-.017c-.469-.064-1.349-.497-1.486-.982a1.922 1.922 0 01.341-1.212c.214-.393.574-1.122.236-1.543a1.951 1.951 0 00-.602-.364c-.272-.154-.444-.297-.774-.485-.269-.154-.774.001-1.262.735-.116.166-.261.31-.427.426-.537.234-1.409.316-1.526.77-.231.897.708.968.647 1.533-.036.33-.397.095-.56.066a.535.535 0 00-.464.083.536.536 0 00-.214.419c.12.294.283.569.483.815.007-.007-.122-.673.153-.578.463.087.943-.002 1.343-.25.015.006-.281.493-.393.726-.267.554.877 1.228.877 1.228.011-.029-.252-.693-.252-.693.121-.508.47-.655.597-1.089.279-.944-.66-1.149-.42-2.052.027-.17.078-.336.151-.493a3.906 3.906 0 011.367-.447c.28.113-.877 1.834-.118 2.673a3.357 3.357 0 002.136.864.368.368 0 01.073.017c.001.003-.091.219-.097.224-.039.026-.363.238-.391.269-.157.173-1.705.484-1.566 1.494.039.293.191.56.425.742.192-.029 2.202-.159 2.202-.159-.441.021-.879.08-1.31.178a2.99 2.99 0 01-1.46.287c-.361-.054-.592-.543-.608-.549a1.23 1.23 0 00.541 1.173 1.42 1.42 0 001.259-.01c.141-.082 1.459-.657 1.459-.657.001.008-.566 1.388-.566 1.388a1.01 1.01 0 01.473-.879 1.523 1.523 0 011.189-.097c.156.057.371.191.489.219.189.043.375-.155.402-.156.564.565.97 1.268 1.176 2.039a1.689 1.689 0 01-.401 1.635c-.439.079-.887.1-1.331.062a11 11 0 001.276.988 3.932 3.932 0 01-.776.426c-.517.19-1.219-.453-1.268-.461-.166-.028.524 1.814.542 1.856.059.133-1.881.766-2.488-.178-.384-.597.096-1.009.338-1.226a1.177 1.177 0 00.459-1.274 1.158 1.158 0 00-.22-.425 32.13 32.13 0 00-2.818-3.194c-.08.124-.149.255-.205.391-.131.045-1.296-2.079-1.47-2.189-.034-.022-.298.234-.331.23-.451-.062-2.755-5.121-3.02-5.236-.317-.137-1.084 1.905-.801 2.737.477.96 1.032 1.88 1.66 2.75a35.521 35.521 0 00-2.621-2.512c-.414.084 1.018 3.568 1.018 3.568 0 .001-1.849-.662-2.002-.495-.311.341 1.324 2.368 1.324 2.368-.005.01-1.696-.277-1.824-.104-.165.224 1.946 2.103 1.946 2.103-.001.004-1.824.014-1.935.221-.171.319 2.059 1.721 2.059 1.721 0 .006-1.77.599-1.776.782-.008.24 1.893.96 1.893.96.001.002-.636.397-.669.391-.006-.002-.069-.054-.1-.046-.036.009-.061.083-.048.126l-.001.029a.505.505 0 00-.153.209c-.052.113-.242.321-.23.377.002.009.054.034.057.044.021.076.038.152.05.23-.001.019-.076.111-.093.168l-.532-.217a1.45 1.45 0 00.285 1.121c.182.205.401.198.34.267l.571.361a.355.355 0 00.195.18.355.355 0 00.266-.008l-.002.042c-.007.228.321.442.348.496.01.086.042.167.094.236a.486.486 0 00.198.158c.805 2.096 1.206 3.143 2.009 5.238-.095.239.165.523.17.547.003.014-.095.239-.095.239.01.005.219-.074.273.094.037.114.069.597.134.788.093.204.198.402.314.594.065.219.101.445.108.673-.046.162-.523.526-.493.881.021.256.305.357.335.41.073.129.491.626.557.702.15.19.325.358.519.502.179.088.346.199.496.33.058.242.158.472.297.679.111.115.228.223.351.325.119.093.359.213.487.159.087-.037.112-.391.118-.48.004-.059-.005-.351 0-.427a2.172 2.172 0 00-.14-.589 1.847 1.847 0 01-.072-.443c.048-.124.697-.389.828-.47a5.142 5.142 0 012.556-.95c.314-.01.628-.004.942.02.381.045.916.191 1.234-.041a.303.303 0 00.14-.265c-.03-.225-.283-.464-.367-.668-.024-.057-.093-.245-.093-.245.228.003.456-.007.683-.032.24-.22.437-.483.58-.775-.05-.037-1.109.307-1.173-.471-.056-.68.585-1.241 1.531-.953.644.196 1.551 1.6.66 2.159a5.419 5.419 0 00-1.048 1.269c.035.013 1.161-.411 1.161-.411.012.052-1.321.525-2.063.904-.658.337-1.19.958-1.688.964-.398.006-.203-.804-.203-.804-.009-.042-.912.184-1.064.574a1.394 1.394 0 00.264 1.163c-.005.065-.856.706-.7 1.384.119.444.274.878.463 1.297.281-.1.512-.307.642-.575.058-.182.127-.36.207-.534.022.013.17 1.072.748 1.379.397.21 1.506-.182 1.54-.173.092.026.852 1.062 1.539 1.08.3-.05.593-.129.877-.237.106.042.708 1.064.988 1.074.284.011 1.003-.974 1.079-.997.276.125.563.226.857.302.672.033 1.591-.956 1.614-.961.105-.023 1.112.466 1.523.286.599-.262.847-1.316.847-1.316.081.175.142.359.181.547.054.296.584.621.584.621.239-.393.426-.816.557-1.257.19-.666-.581-1.43-.581-1.43 0-.051.513-.592.336-1.137-.13-.401-1.019-.653-1.019-.653-.016.055.141.815-.263.785-.504-.036-.98-.702-1.61-1.087-.711-.435-1.99-1.059-1.99-1.059.009-.029 1.127.499 1.127.499a3.883 3.883 0 00-.949-1.345c-.844-.614.169-1.952.838-2.1.947-.21 1.558.398 1.438 1.067-.137.769-1.217.366-1.234.377.109.315.298.597.549.818.291.05.589.061.884.035-.01.062-.022.123-.037.184-.053.637-.476.768-.344.995.123.211 1.332.233 1.642.293.533.104 1.011.32 1.534.447a9.86 9.86 0 011.753.413c.324.15.735.513 1.032.626.412.156.423.302.741.315.289.012.422-.234.796-.307.256-.05.557.051.812-.008.18-.041.291-.227.463-.321a5.59 5.59 0 00.708-.267c.105-.076.109-.303.134-.351.263-.398.57-.765.916-1.094.041-.031.192-.105.197-.204l.002-.042a.394.394 0 00.188-.318.532.532 0 00-.157-.39l.002-.043c.003-.085-.059-.151-.079-.202a3.093 3.093 0 00-1.659-1.905l.002-.042-.014-.001c.001-.042-.041-.051-.056-.059a1.467 1.467 0 01-.271-.452c.17.117.334.242.492.376l.052-1.176c-.12.08-.516.339-.523.332.103-.178.233-.34.384-.48l-1.219-.054c.132.158.246.33.341.512a5.812 5.812 0 01-.492-.376l-.051 1.176a8.9 8.9 0 01.523-.332 2.1 2.1 0 01-.385.48l.043.016c-.922.159-1.571 1.22-1.891 1.765-.029.049-.106.109-.11.194l-.001.043a.347.347 0 00-.073.352.733.733 0 00.16.333l-.002.043c-.005.127.142.187.18.22.05.108.093.219.131.332l.015-.013a.852.852 0 01-.602.514 6.174 6.174 0 01-2.298-.579 2.024 2.024 0 01-.976-.622 1.091 1.091 0 01-.106-.587c.019-.003.374.337.393.328.029-.097.052-.195.07-.295.049-.001.838.433.838.433a41.5 41.5 0 00-.172-1.087l1.664-.229c-.037-.035-.697-.044-.772-.274-.117-.356.345-1.224-.008-1.904-.271-.52-1.405-.977-1.412-.997-.005-.015.119-.304.115-.308-.094-.087-1.663-.595-1.663-.595.006-.005.577.109.577.109.016-.042-.533-2.264-.029-2.772.041-.042.13-.103.149-.093.107.056.714.556.777.558.029.001.12-.094.211-.162 0 0-.024 1.232.029 1.721.061.555.788.792.883.79.154-.003.944-.301.884-.928-.061-.628-.164-1.613-.164-1.613.01-.002.468 1.84.603 2.242.199.596 1.074.718 1.147.703a1.067 1.067 0 00.604-1.153c-.049-.156-1.001-2.43-1.001-2.43.005-.002 1.116 2.166 1.37 2.631.27.493 1.16.463 1.233.424a1.21 1.21 0 00.277-1.337c-.45-.789-1.594-2.457-1.594-2.457.01-.006 1.915 2.467 2.04 2.59a1.622 1.622 0 001.376.147 1.187 1.187 0 00-.086-1.309c-.404-.417-1.569-1.392-1.569-1.392.562.513 1.177.964 1.833 1.347a1.55 1.55 0 001.421-.176c.105-.215-1.561-1.847-1.561-1.847.896.106 1.803.101 2.698-.017.063-.203-1.127-1.159-1.127-1.159.002-.009 1.954-.574 1.964-.802.01-.213-1.736-.919-1.736-.919 0-.009 2.081-.753 2.222-1.541z" fill="#FFC652"/><path d="M291.31 250.234c-2.9-.029-4.35-.041-7.25-.063l-1.287 2.987a4.787 4.787 0 00-.479 1.649.968.968 0 00.404.766 3.506 3.506 0 001.755.439l-.003.519c-2.355-.018-3.532-.026-5.888-.039l.003-.518a3.144 3.144 0 001.519-.537 8.617 8.617 0 001.574-2.72c2.666-6.233 4.005-9.348 6.698-15.571l.485.004a7836.16 7836.16 0 016.395 15.853 7.244 7.244 0 001.406 2.485 2.89 2.89 0 001.781.657l-.005.518c-2.951-.034-4.426-.049-7.377-.077l.004-.518a2.726 2.726 0 001.513-.364.972.972 0 00.399-.779 5.884 5.884 0 00-.536-1.951l-1.111-2.74zm-.379-1.039a5637.248 5637.248 0 00-3.121-7.701 3673.58 3673.58 0 00-3.315 7.645c2.574.02 3.862.031 6.436.056zm21.914-11.29l.144 4.447-.526-.009a5.431 5.431 0 00-.391-1.684 2.797 2.797 0 00-1.126-1.213 3.957 3.957 0 00-1.872-.416l-2.645-.04a7763.41 7763.41 0 00-.172 14.486 3.91 3.91 0 00.348 2.185c.208.212.459.376.736.482.278.105.575.149.871.129l.648.009-.006.517c-3.171-.046-4.757-.067-7.928-.106l.005-.517.662.008a1.9 1.9 0 00.937-.134c.295-.124.554-.321.753-.572a4.298 4.298 0 00.325-2.038c.061-5.795.093-8.693.162-14.488l-2.258-.032a6.175 6.175 0 00-1.871.171 2.542 2.542 0 00-1.243 1.006 4.132 4.132 0 00-.629 2.035 92.595 92.595 0 01-.527-.006l.267-4.446c6.134.075 9.202.121 15.336.226zm17.33.345c.049 1.776.074 2.665.125 4.441l-.526-.012a5.417 5.417 0 00-.385-1.683 2.795 2.795 0 00-1.12-1.218 3.976 3.976 0 00-1.87-.425l-2.645-.055c-.1 5.785-.147 8.678-.235 14.463a3.915 3.915 0 00.34 2.185 2.066 2.066 0 001.604.617l.649.012-.008.517c-3.172-.062-4.757-.091-7.929-.145l.007-.517.663.011a1.884 1.884 0 001.692-.696 4.281 4.281 0 00.333-2.033c.085-5.787.13-8.681.225-14.467l-2.258-.044a6.178 6.178 0 00-1.872.161c-.512.189-.95.539-1.247.997a4.129 4.129 0 00-.639 2.03l-.526-.009c.114-1.776.171-2.664.287-4.44 6.134.11 9.201.172 15.335.31zm6.822 1.193c-.062 2.988-.092 4.483-.15 7.471 1.648.039 2.471.059 4.119.1a3.35 3.35 0 002.153-.433 3.155 3.155 0 00.85-2.236l.512.014c-.058 2.629-.086 3.944-.14 6.573l-.512-.013a7.2 7.2 0 00-.349-1.779 1.736 1.736 0 00-.8-.786 4.128 4.128 0 00-1.735-.322c-1.647-.041-2.471-.061-4.118-.1-.048 2.492-.072 3.738-.117 6.231a5.807 5.807 0 00.082 1.529.883.883 0 00.379.441c.329.141.687.203 1.045.183l3.172.075a8.52 8.52 0 002.308-.166 3.395 3.395 0 001.396-.844 10.566 10.566 0 001.807-2.559l.552.015c-.686 1.876-1.028 2.814-1.711 4.692-5.764-.144-8.646-.211-14.41-.332l.009-.516.661.014c.438.006.871-.094 1.261-.293a1.19 1.19 0 00.611-.657c.148-.596.212-1.21.191-1.824.087-4.913.133-7.37.23-12.283a4.09 4.09 0 00-.316-2.226 2.137 2.137 0 00-1.651-.597l-.665-.016.01-.515c5.791.134 8.686.207 14.477.366l.112 4.141-.54-.015a6.59 6.59 0 00-.598-2.064 2.184 2.184 0 00-1.025-.878 6.063 6.063 0 00-1.949-.26c-2.06-.054-3.09-.081-5.151-.131zm28.514-.633c.099 2.565.149 3.848.251 6.413l-.429-.014a8.125 8.125 0 00-2.336-4.217 5.989 5.989 0 00-3.789-1.386 6.175 6.175 0 00-3.403.848 6.233 6.233 0 00-2.45 2.968 13.522 13.522 0 00-.987 5.162c-.07 1.52.173 3.038.714 4.46a6.189 6.189 0 002.384 2.947 7.047 7.047 0 003.709 1.107 6.427 6.427 0 003.231-.691 10.578 10.578 0 003.141-3.023l.421.291a9.817 9.817 0 01-3.375 3.578 8.246 8.246 0 01-4.481 1.038 8.484 8.484 0 01-7.122-3.675 10.058 10.058 0 01-1.772-6.146 10.81 10.81 0 011.378-5.156 9.04 9.04 0 013.556-3.563 9.288 9.288 0 014.861-1.152 8.845 8.845 0 013.99 1.129c.249.165.529.278.823.332a.885.885 0 00.658-.242c.273-.284.46-.639.542-1.024l.485.016zm18.243 1.091c.024 1.763.037 2.644.064 4.407l-.527-.02a5.332 5.332 0 00-.361-1.677 2.8 2.8 0 00-1.104-1.226 4.017 4.017 0 00-1.864-.452l-2.645-.098c-.179 5.74-.264 8.61-.423 14.35-.109.74 0 1.495.313 2.173a2.067 2.067 0 001.597.637l.649.022-.014.513c-3.172-.109-4.758-.162-7.929-.264l.013-.513.662.021a1.88 1.88 0 001.702-.665 4.222 4.222 0 00.358-2.013c.156-5.744.239-8.615.414-14.358l-2.258-.08a6.209 6.209 0 00-1.874.128c-.515.179-.957.52-1.262.97a4.075 4.075 0 00-.667 2.005l-.526-.017.348-4.404c6.134.21 9.2.323 15.334.561zm12.048 12.953c-2.901-.116-4.35-.172-7.25-.282l-1.361 2.911a4.649 4.649 0 00-.518 1.614.947.947 0 00.385.768c.53.309 1.132.477 1.746.486l-.015.511c-2.356-.086-3.533-.129-5.889-.212l.015-.512a3.148 3.148 0 001.532-.485 8.435 8.435 0 001.639-2.64 1867.38 1867.38 0 017.101-15.16l.485.02c2.392 6.337 3.589 9.503 5.988 15.829.28.912.738 1.759 1.348 2.491a2.932 2.932 0 001.766.699l-.016.51c-2.951-.119-4.427-.177-7.378-.291l.016-.511a2.746 2.746 0 001.522-.314.947.947 0 00.417-.757 5.74 5.74 0 00-.49-1.939l-1.043-2.736zm-.354-1.036l-2.924-7.693a1804.16 1804.16 0 00-3.512 7.441c2.574.098 3.861.149 6.436.252zm22.21-10.432c.01 1.75.016 2.625.028 4.375l-.526-.025a5.289 5.289 0 00-.348-1.667 2.796 2.796 0 00-1.094-1.229 4.039 4.039 0 00-1.861-.467l-2.645-.124c-.228 5.697-.335 8.546-.537 14.246a3.81 3.81 0 00.297 2.16 2.087 2.087 0 001.594.647l.648.028-.018.509c-3.172-.137-4.757-.204-7.929-.334l.017-.51.662.027a1.882 1.882 0 001.707-.645 4.17 4.17 0 00.373-1.996c.199-5.703.304-8.554.528-14.255l-2.257-.103a6.286 6.286 0 00-1.876.109c-.515.172-.96.506-1.27.951a4.02 4.02 0 00-.683 1.985l-.527-.023c.153-1.748.23-2.623.386-4.371 6.132.271 9.199.414 15.331.712z" fill="#2435A1"/><path d="M298.906 271.853c32.61.471 65.211 1.238 97.801 2.3m-69.629 17.027c13.617.244 27.233.531 40.847.861" stroke="#2435A1" stroke-width="3.694" stroke-miterlimit="10"/><path d="M260.811 98.885a11.55 11.55 0 00-10.835 6.933 11.51 11.51 0 00-.956 4.414c.334 75.284.545 150.568.632 225.852 7.071-.013 10.607-.015 17.679-.006a11.177 11.177 0 007.857-3.368 11.157 11.157 0 003.172-7.932c.143-75.262.632-150.52 1.466-225.777a1697.62 1697.62 0 00-19.015-.116z" fill="#C4C4DA"/><path d="M445.604 113.614a5.08 5.08 0 013.523 1.71 5.082 5.082 0 011.263 3.705c-8.191 85.132-11.931 170.473-12.151 255.988a4.868 4.868 0 01-4.961 4.891 14932.895 14932.895 0 00-172.596-1.645 5.026 5.026 0 01-4.946-5.092c-.056-87.652-.135-175.305-.237-262.957a5.203 5.203 0 015.302-5.094 2345.935 2345.935 0 01184.803 8.494zm.604-6.052a2376.786 2376.786 0 00-185.397-8.677 11.55 11.55 0 00-10.835 6.933 11.51 11.51 0 00-.956 4.414c.389 87.649.612 175.297.667 262.946a11.15 11.15 0 003.155 7.935 11.172 11.172 0 007.844 3.385c57.539.154 115.074.658 172.606 1.513a10.823 10.823 0 0010.197-6.67c.553-1.332.833-2.761.825-4.203.219-85.371 4.07-170.556 12.522-255.518.62-6.052-4.121-11.466-10.628-12.058z" fill="#FFC652"/></svg>