<svg width="280" height="480" fill="none" xmlns="http://www.w3.org/2000/svg"><path d="M167.253 426.907L25.775 431.36c-7.64.24-14.048-6.218-14.257-14.427a2811.704 2811.704 0 01-.099-124.238c.196-8.208 6.593-14.677 14.234-14.449l141.485 4.227a13.898 13.898 0 019.67 4.357 13.942 13.942 0 013.793 9.917c-.813 38.632-.783 77.254.092 115.864a13.94 13.94 0 01-3.777 9.923 13.895 13.895 0 01-9.663 4.373z" fill="#243976"/><path d="M163.409 423.261l-141.485 4.228c-7.64.228-14.038-6.251-14.235-14.472-.883-41.485-.85-82.959.1-124.422.209-8.221 6.616-14.689 14.257-14.449l141.478 4.453a13.906 13.906 0 019.667 4.384 13.945 13.945 0 013.773 9.934 2655.013 2655.013 0 00-.092 116.048 13.947 13.947 0 01-3.789 9.928 13.904 13.904 0 01-9.674 4.368z" fill="#864FF1"/><path d="M83.55 276.082l-61.503-1.936c-7.64-.24-14.049 6.228-14.258 14.449A3229.322 3229.322 0 007 340.819c4.728-38.977 38.66-64.352 76.55-64.737z" fill="#9768F3"/><path d="M163.524 278.599l-37.98-1.196a74.127 74.127 0 0130.404 23.459c25.15 33.337-14.37 71.009-43.285 83.403-32.659 13.999-74.114 16.285-105.528-2.723.112 10.492.297 20.983.555 31.475.196 8.221 6.593 14.699 14.234 14.471l141.485-4.227a13.913 13.913 0 009.675-4.368 13.954 13.954 0 003.788-9.928 2654.96 2654.96 0 01.092-116.048 13.953 13.953 0 00-3.772-9.935 13.911 13.911 0 00-9.668-4.383z" fill="#602A9F"/><path d="M160.868 418.926l-136.661 3.828c-6.256.175-11.482-5.127-11.637-11.844a2881.686 2881.686 0 01-.313-100.549l159.354 2.696c-.45 31.395-.352 62.782.293 94.163a11.423 11.423 0 01-3.106 8.134 11.39 11.39 0 01-7.93 3.572zm-35.57-113.593l-61.419-1.217a6.072 6.072 0 01-4.22-1.981 6.103 6.103 0 01-1.582-4.391 6.099 6.099 0 013.75-5.641 6.072 6.072 0 012.33-.466l61.413 1.529a6.006 6.006 0 014.178 1.909 6.026 6.026 0 011.612 4.307 6.02 6.02 0 01-6.062 5.951zm45.912-11.031a3.725 3.725 0 01-4.547 3.515 3.714 3.714 0 01-2.835-3.004 3.732 3.732 0 011.682-3.775 3.715 3.715 0 012.079-.573 3.73 3.73 0 013.621 3.837zm-12.471-.31a3.729 3.729 0 01-2.409 3.352 3.718 3.718 0 01-4.974-2.868 3.726 3.726 0 011.685-3.769 3.712 3.712 0 012.077-.572 3.736 3.736 0 012.607 1.178 3.753 3.753 0 011.014 2.679zm-12.858-.321a3.72 3.72 0 11-7.107-1.68 3.715 3.715 0 013.487-2.197 3.749 3.749 0 012.611 1.189 3.763 3.763 0 011.009 2.688z" fill="#fff"/><path d="M150.785 395.859l-113.871 2.068c-.412-26.491-.47-52.977-.172-79.458l113.879 1.574c-.283 25.279-.229 50.551.164 75.816z" fill="#FF6551"/><path d="M148.95 410.086l-109.59 2.646a2.205 2.205 0 01-2.188-2.217 2.202 2.202 0 012.083-2.316l109.595-2.446a2.155 2.155 0 012.183 2.117 2.155 2.155 0 01-.583 1.54c-.391.416-.93.659-1.5.676z" fill="#BFBFBF"/><path d="M39.255 408.2a2.267 2.267 0 00-2.083 2.316c.014.579.248 1.131.655 1.544.406.412.955.653 1.533.673l41.98-1.014c-.043-1.782-.064-2.674-.104-4.456l-41.981.937z" fill="#2435A1"/><path d="M93.374 380.871a21.255 21.255 0 01-14.988-6.285 23.13 23.13 0 01-6.929-16.463 23.145 23.145 0 016.857-16.492 21.267 21.267 0 0115.054-6.352l.146.001c11.867.083 21.915 10.501 21.942 22.748.026 12.246-9.977 22.706-21.844 22.841l-.237.002zm-.005-42.631a18.314 18.314 0 00-12.97 5.49 20.159 20.159 0 00-5.985 14.387 20.184 20.184 0 006.048 14.361 18.32 18.32 0 0012.913 5.432l.204-.001c10.279-.117 18.943-9.219 18.92-19.875-.023-10.657-8.727-19.72-19.006-19.794h-.124z" fill="#fff"/><path d="M88.936 350.484c-.007 6.605.001 9.908.04 16.513 5.825-3.02 8.74-4.521 14.576-7.505a2206.127 2206.127 0 01-14.617-9.008z" fill="#fff"/><path d="M87.043 409.357a5.17 5.17 0 01-10.236.951 5.19 5.19 0 012.12-5.303 5.167 5.167 0 012.832-.921c1.398 0 2.74.554 3.73 1.543a5.293 5.293 0 011.554 3.73z" fill="#FF6551"/><path d="M84.41 409.418a2.541 2.541 0 01-1.583 2.306 2.536 2.536 0 01-3.304-3.295 2.539 2.539 0 012.295-1.595 2.587 2.587 0 012.591 2.584z" fill="#fff"/><path d="M125.42 319.873a10.982 10.982 0 00-7.787 3.233 11.011 11.011 0 00-3.207 7.808c-.212 32.553.151 65.093 1.088 97.622l51.739-1.629a13.902 13.902 0 009.664-4.372 13.942 13.942 0 003.777-9.924 2733.462 2733.462 0 01-.541-91.986l-54.733-.752z" fill="#3F4D88" opacity=".35"/><path d="M262.625 208.517L134.418 206.5a10.88 10.88 0 01-7.638-3.314 10.919 10.919 0 01-3.072-7.749c.434-37.023.446-74.044.038-111.062a10.919 10.919 0 013.077-7.746 10.884 10.884 0 017.64-3.31l128.208-1.93a11.027 11.027 0 017.811 3.264 11.062 11.062 0 013.211 7.843c.422 38.31.409 76.618-.039 114.922a11.072 11.072 0 01-3.216 7.841 11.032 11.032 0 01-7.813 3.258z" fill="#243976"/><path d="M259.742 205.444l-128.209-1.93a10.882 10.882 0 01-7.639-3.306 10.913 10.913 0 01-3.078-7.743 4876.6 4876.6 0 00-.038-110.986 10.922 10.922 0 013.073-7.745 10.883 10.883 0 017.637-3.31l128.207-2.018a11.03 11.03 0 017.812 3.255 11.064 11.064 0 013.217 7.837c.448 38.285.461 76.567.039 114.846a11.065 11.065 0 01-3.212 7.839 11.027 11.027 0 01-7.809 3.261z" fill="#49B3F7"/><path d="M259.694 68.406l-27.648.435c13.823 4.124 23.739 16.462 26.009 29.675 5.537 32.233-57.048 69.801-83.172 76.202-17.316 4.243-36.767 6.851-53.882-.063-.059 7.124-.096 10.686-.186 17.81a10.919 10.919 0 003.079 7.743 10.88 10.88 0 007.639 3.306l128.208 1.93a11.025 11.025 0 007.809-3.261 11.054 11.054 0 003.213-7.839 5053.64 5053.64 0 00-.039-114.846 11.085 11.085 0 00-3.218-7.837 11.04 11.04 0 00-7.812-3.255z" fill="#378FDD"/><path d="M216.99 69.078l-85.502 1.345a10.883 10.883 0 00-7.637 3.31 10.922 10.922 0 00-3.073 7.746c.208 17.512.332 35.025.373 52.537 18.333-35.682 58.677-55.518 95.839-64.938z" fill="#6CC1F9"/><path d="M257.896 201.874L133.48 200.1a8.908 8.908 0 01-6.256-2.704 8.938 8.938 0 01-2.522-6.341c.337-31.254.379-62.507.124-93.759l142.216-1.356c.262 32.285.219 64.568-.129 96.848a9.054 9.054 0 01-5.557 8.388 9.033 9.033 0 01-3.46.698zm6.329-121.384a3.032 3.032 0 01-3.642 2.915 3.036 3.036 0 01.571-6.008 3.073 3.073 0 012.84 1.911c.153.375.232.776.231 1.181zm-10.163.132a3.04 3.04 0 01-1.896 2.764 3.025 3.025 0 01-3.28-.673 3.04 3.04 0 01.439-4.65 3.026 3.026 0 011.667-.527 3.074 3.074 0 013.07 3.086zm-10.477.136a3.028 3.028 0 01-1.891 2.769 3.026 3.026 0 01-3.282-.668 3.038 3.038 0 01.435-4.651 3.027 3.027 0 011.668-.528 3.068 3.068 0 012.837 1.9c.155.374.234.774.233 1.178zM224.203 90.93l-58.165.625a4.86 4.86 0 01-3.445-1.404 4.873 4.873 0 01-1.446-3.432 4.877 4.877 0 011.364-3.465 4.861 4.861 0 013.411-1.486l58.163-.756a4.887 4.887 0 014.524 3.025 4.91 4.91 0 01.373 1.876 4.912 4.912 0 01-1.352 3.5 4.896 4.896 0 01-3.427 1.517z" fill="#fff"/><path d="M146.528 127.299a4.401 4.401 0 01-4.387-4.399c-.014-3.969-.024-5.953-.047-9.923a4.41 4.41 0 014.358-4.439l9.858-.067h.03a4.342 4.342 0 013.083 1.278 4.42 4.42 0 011.301 3.12c.023 3.985.033 5.979.047 9.964a4.415 4.415 0 01-2.7 4.102 4.327 4.327 0 01-1.672.337l-9.859.027h-.012zm9.812-17.406h-.02l-9.859.067a2.986 2.986 0 00-2.947 3.009c.023 3.97.033 5.956.047 9.925a2.988 2.988 0 002.967 2.983l.008-.001 9.859-.027a2.933 2.933 0 002.083-.873 3.007 3.007 0 00.873-2.137c-.014-3.985-.024-5.977-.047-9.962a2.994 2.994 0 00-.884-2.12 2.933 2.933 0 00-2.08-.864zm20.093 17.324a4.414 4.414 0 01-3.105-1.306 4.428 4.428 0 01-1.283-3.118c-.014-3.997-.023-5.995-.047-9.992a4.427 4.427 0 011.258-3.134 4.411 4.411 0 013.1-1.33l9.858-.067a4.514 4.514 0 013.114 1.287 4.454 4.454 0 011.301 3.136c.023 4.013.032 6.02.047 10.032a4.45 4.45 0 01-1.271 3.149 4.332 4.332 0 01-3.101 1.317l-9.859.026h-.012zm9.811-17.525h-.02l-9.858.067a3 3 0 00-2.1.907 3.002 3.002 0 00-.847 2.128c.023 3.997.032 5.996.046 9.993a3.001 3.001 0 002.968 3.008l.008-.001 9.859-.027c.39 0 .776-.079 1.135-.232.359-.152.684-.375.955-.656a3.037 3.037 0 00.866-2.148c-.015-4.012-.024-6.018-.048-10.03a3.035 3.035 0 00-1.837-2.783 2.908 2.908 0 00-1.127-.226zm20.093 17.444a4.429 4.429 0 01-3.111-1.319 4.445 4.445 0 01-1.278-3.132 3747.66 3747.66 0 00-.047-10.059 4.44 4.44 0 011.252-3.147 4.422 4.422 0 013.105-1.343l9.858-.068h.03a4.315 4.315 0 013.086 1.297 4.488 4.488 0 011.299 3.152c.024 4.04.033 6.061.047 10.101a4.49 4.49 0 01-1.268 3.165 4.328 4.328 0 01-3.103 1.326l-9.859.027h-.011zm9.809-17.645h-.02l-9.858.067a3.01 3.01 0 00-2.947 3.06c.023 4.024.033 6.037.047 10.061a3.013 3.013 0 002.969 3.034h.008l9.858-.028a2.902 2.902 0 002.089-.894c.562-.58.873-1.359.866-2.167-.014-4.04-.024-6.059-.047-10.099a3.075 3.075 0 00-.888-2.159 2.908 2.908 0 00-2.077-.875zm20.094 17.563a4.44 4.44 0 01-3.115-1.332 4.454 4.454 0 01-1.272-3.144c-.015-4.052-.024-6.077-.048-10.128a4.452 4.452 0 014.358-4.517l9.858-.066.03-.001a4.313 4.313 0 013.088 1.306 4.537 4.537 0 011.297 3.17c.024 4.067.033 6.101.047 10.168a4.528 4.528 0 01-1.313 3.229 4.296 4.296 0 01-3.059 1.288l-9.858.027h-.013zm9.81-17.765h-.019l-9.858.066a3.023 3.023 0 00-2.948 3.087c.024 4.052.034 6.078.048 10.13a3.027 3.027 0 002.967 3.06l.009-.001 9.859-.028a2.881 2.881 0 002.055-.868 3.1 3.1 0 00.9-2.219 3447.34 3447.34 0 00-.048-10.167c0-.815-.319-1.597-.889-2.179a2.889 2.889 0 00-2.076-.881z" fill="#FF6551"/><path d="M151.098 124.699l-1.155-1.155a3537.444 3537.444 0 00-10.078-10.055l2.001-2.019c3.634 3.613 5.632 5.605 8.93 8.906 3.954-5.249 6.228-8.283 10.453-13.945l2.276 1.702a3446.11 3446.11 0 01-11.444 15.262l-.983 1.304z" fill="#2435A1"/><path d="M142.851 154.47l-.011 2.845 106.922.431.012-2.846-106.923-.43zm-.055 11.014l-.019 2.846 106.922.703.019-2.846-106.922-.703zm-.083 11.016l-.025 2.846 106.919.973.026-2.846-106.92-.973zm-.11 11.014l-.033 2.845 106.917 1.244.033-2.846-106.917-1.243z" fill="#BFBFBF"/><path d="M148.627 141.777a3965.14 3965.14 0 01-1.116 3.686l-2.433-.004c1.664-5.2 2.492-7.802 4.14-13.011l3.008-.005c1.686 5.209 2.525 7.816 4.195 13.035a2164.11 2164.11 0 00-2.548-.004c-.466-1.478-.698-2.217-1.165-3.694l-4.081-.003zm3.699-1.795l-1.016-3.209c-.249-.792-.46-1.68-.653-2.434h-.038c-.191.754-.401 1.661-.611 2.435l-.997 3.207 3.315.001zm32.551-7.585l.002 1.967-5.633.005.001 2.82a13.643 13.643 0 011.591-.097 6.173 6.173 0 013.487.991 3.722 3.722 0 011.57 3.175 3.837 3.837 0 01-1.171 2.921 7.337 7.337 0 01-4.927 1.472 22.573 22.573 0 01-2.893-.18c.009-5.225.009-7.837.002-13.063l7.971-.011zm-5.633 11.366c.413.06.829.087 1.246.08a3.198 3.198 0 002.261-.815c.22-.227.392-.495.507-.789.116-.294.172-.608.165-.924a2.132 2.132 0 00-.861-1.791 3.588 3.588 0 00-2.146-.623c-.364 0-.785.039-1.169.077 0 1.914 0 2.871-.003 4.785zm27.574-11.201a19.166 19.166 0 013.449-.298 6.43 6.43 0 013.679.838 2.917 2.917 0 011.344 2.489 3.041 3.041 0 01-2.145 2.843v.059a3.3 3.3 0 012.605 3.255 3.579 3.579 0 01-1.229 2.745c-.914.803-2.436 1.211-4.812 1.208-.967.001-1.933-.06-2.893-.182.009-5.182.009-7.774.002-12.957zm2.342 5.207l1.207-.001c1.648 0 2.548-.784 2.548-1.902-.001-1.254-.921-1.821-2.416-1.82a6.275 6.275 0 00-1.341.099l.002 3.624zm-.004 6.051c.413.055.83.075 1.246.06 1.513.002 2.875-.565 2.876-2.192.001-1.549-1.321-2.176-2.95-2.177h-1.169c0 1.723-.001 2.585-.003 4.309zm36.906-11.507l.003 1.995-5.02.004c.004 4.521.003 6.782-.004 11.302l-2.357-.004c.008-5.314.008-7.972.001-13.286l7.377-.011z" fill="#49B3F7"/></svg>